<svg width="145" height="100" viewBox="0 0 145 100" fill="none" xmlns="http://www.w3.org/2000/svg">
<path fill-rule="evenodd" clip-rule="evenodd" d="M132.688 78.9445C132.111 78.989 131.639 79.533 131.633 80.1597C131.624 81.2087 131.737 82.1352 132.041 83.0105C132.343 83.8845 132.814 84.6478 133.446 85.4052C135.445 87.8002 138.001 89.6495 140.449 91.2334C140.927 91.5425 141.576 91.3497 141.9 90.8028C142.223 90.2558 142.098 89.5619 141.62 89.2528C139.208 87.6926 136.85 85.9675 135.043 83.8027C134.521 83.1776 134.2 82.6288 134.003 82.0611C133.807 81.4947 133.715 80.8501 133.722 79.9986C133.728 79.3719 133.265 78.9 132.688 78.9445Z" fill="#FFBE55"/>
<path fill-rule="evenodd" clip-rule="evenodd" d="M142.254 90.4609C142.332 89.8336 141.932 89.2972 141.36 89.2628C140.872 89.2334 140.349 89.1923 139.8 89.1493C137.905 89.0004 135.71 88.8278 133.606 89.0336C130.861 89.3021 128.019 90.2282 125.925 92.8717C125.533 93.3659 125.559 94.081 125.983 94.4689C126.406 94.8567 127.067 94.7705 127.459 94.2763C128.993 92.34 131.147 91.5419 133.625 91.2995C135.542 91.112 137.502 91.2651 139.371 91.4111C139.95 91.4564 140.52 91.5009 141.078 91.5345C141.65 91.5689 142.176 91.0882 142.254 90.4609Z" fill="#FFBE55"/>
<path d="M133.378 87.8508C88.4913 78.5432 28.9968 47.0176 6.5 1.47583" stroke="#FFBE55" stroke-width="2" stroke-linecap="round"/>
</svg>
