<svg width="70" height="50" viewBox="0 0 70 50" fill="none" xmlns="http://www.w3.org/2000/svg">
<path d="M9.33484 1.34748C7.43001 10.7879 8.40754 29.9929 27.5563 31.2897C51.4922 32.9106 50.3158 15.7503 39.7794 16.6331C31.8696 17.2958 24.1762 37.39 40.5668 37.822C50.1278 38.074 58.2578 36.9575 62.0301 36.5772" stroke="#FFBE55" stroke-width="1.5" stroke-linecap="round"/>
<path fill-rule="evenodd" clip-rule="evenodd" d="M58.5358 40.0335C58.3122 39.9349 58.2016 39.6454 58.2889 39.3869C58.435 38.9542 58.6128 38.5891 58.8587 38.2714C59.1043 37.9541 59.4011 37.7058 59.7613 37.4824C60.9003 36.7759 62.1832 36.3714 63.3857 36.0611C63.6203 36.0006 63.8517 36.1704 63.9025 36.4403C63.9533 36.7103 63.8043 36.9782 63.5696 37.0387C62.3851 37.3444 61.1984 37.7253 60.1689 38.3638C59.8716 38.5482 59.6651 38.7291 59.5056 38.9352C59.3465 39.1408 59.2174 39.3929 59.0988 39.7442C59.0115 40.0026 58.7595 40.1322 58.5358 40.0335Z" fill="#FFBE55"/>
<path fill-rule="evenodd" clip-rule="evenodd" d="M63.9941 36.6299C63.9355 36.8987 63.6993 37.0636 63.4665 36.9981C63.2676 36.9421 63.0532 36.8862 62.8285 36.8275C62.0517 36.6248 61.1517 36.3899 60.3424 36.0122C59.2866 35.5195 58.2858 34.7428 57.8284 33.3639C57.7429 33.1061 57.8554 32.8157 58.0798 32.7153C58.3041 32.6148 58.5553 32.7423 58.6408 33.0001C58.9758 34.01 59.7206 34.6383 60.6739 35.0832C61.4113 35.4273 62.2145 35.6373 62.9806 35.8376C63.2178 35.8996 63.4515 35.9608 63.6786 36.0246C63.9114 36.0901 64.0527 36.3611 63.9941 36.6299Z" fill="#FFBE55"/>
</svg>
