<svg width="137" height="91" viewBox="0 0 137 91" fill="none" xmlns="http://www.w3.org/2000/svg">
<path fill-rule="evenodd" clip-rule="evenodd" d="M11.325 70.8337C11.8565 70.876 12.2915 71.3939 12.2967 71.9904C12.3054 72.989 12.2004 73.871 11.9211 74.7041C11.6422 75.5361 11.2084 76.2627 10.6261 76.9837C8.78488 79.2634 6.43095 81.0238 4.1753 82.5315C3.73515 82.8257 3.13684 82.6422 2.83894 82.1216C2.54104 81.601 2.65635 80.9404 3.0965 80.6462C5.31844 79.161 7.49099 77.5189 9.1553 75.4582C9.63588 74.8632 9.93185 74.3407 10.113 73.8004C10.2937 73.2613 10.3791 72.6477 10.3721 71.8371C10.3669 71.2406 10.7935 70.7914 11.325 70.8337Z" fill="#FFBE55"/>
<path fill-rule="evenodd" clip-rule="evenodd" d="M2.51333 81.7962C2.44159 81.1991 2.81035 80.6884 3.33698 80.6557C3.78686 80.6277 4.2687 80.5886 4.77373 80.5476C6.51938 80.4059 8.54211 80.2416 10.48 80.4375C13.0082 80.6931 15.6265 81.5746 17.556 84.091C17.9167 84.5615 17.8927 85.2421 17.5024 85.6113C17.1121 85.9805 16.5032 85.8984 16.1425 85.428C14.7292 83.5848 12.7448 82.8252 10.462 82.5944C8.69614 82.4159 6.89093 82.5616 5.16891 82.7007C4.63568 82.7437 4.11043 82.7861 3.59679 82.8181C3.07016 82.8508 2.58508 82.3933 2.51333 81.7962Z" fill="#FFBE55"/>
<path d="M10.6882 79.3114C51.1308 75.2155 99.9536 68.0732 130.811 1.37915" stroke="#FFBE55" stroke-width="2" stroke-linecap="round"/>
</svg>
