<svg width="146" height="107" viewBox="0 0 146 107" fill="none" xmlns="http://www.w3.org/2000/svg">
<path fill-rule="evenodd" clip-rule="evenodd" d="M133.184 85.3905C132.607 85.435 132.135 85.9791 132.129 86.6057C132.12 87.6548 132.234 88.5813 132.537 89.4565C132.84 90.3305 133.31 91.0939 133.943 91.8513C135.941 94.2462 138.497 96.0955 140.945 97.6795C141.423 97.9886 142.073 97.7958 142.396 97.2488C142.719 96.7019 142.594 96.008 142.116 95.6989C139.704 94.1386 137.346 92.4135 135.539 90.2487C135.017 89.6236 134.696 89.0748 134.5 88.5071C134.303 87.9408 134.211 87.2961 134.218 86.4446C134.224 85.818 133.761 85.346 133.184 85.3905Z" fill="#FFBE55"/>
<path fill-rule="evenodd" clip-rule="evenodd" d="M142.75 96.907C142.828 96.2797 142.428 95.7433 141.856 95.7089C141.368 95.6795 140.845 95.6384 140.297 95.5953C138.402 95.4464 136.206 95.2739 134.102 95.4797C131.357 95.7482 128.515 96.6742 126.421 99.3178C126.029 99.812 126.055 100.527 126.479 100.915C126.903 101.303 127.563 101.217 127.955 100.722C129.489 98.786 131.643 97.988 134.122 97.7455C136.038 97.558 137.998 97.7111 139.868 97.8572C140.446 97.9024 141.017 97.947 141.574 97.9805C142.146 98.0149 142.672 97.5343 142.75 96.907Z" fill="#FFBE55"/>
<path d="M133.874 94.2967C82.9846 88.9934 20.4869 48.9599 7.48828 1.91602" stroke="#FFBE55" stroke-width="2" stroke-linecap="round"/>
</svg>
