<svg width="73" height="52" viewBox="0 0 73 52" fill="none" xmlns="http://www.w3.org/2000/svg">
<path d="M63.1969 1.13089C65.2082 11.0988 64.176 31.377 43.9573 32.7462C18.6839 34.4577 19.926 16.3385 31.0512 17.2706C39.4029 17.9703 47.5263 39.1874 30.2198 39.6435C20.1245 39.9096 11.5402 38.7307 7.55714 38.3292" stroke="#FFBE55" stroke-width="1.5" stroke-linecap="round"/>
<path fill-rule="evenodd" clip-rule="evenodd" d="M11.2459 41.9785C11.482 41.8743 11.5987 41.5687 11.5066 41.2957C11.3523 40.8388 11.1646 40.4533 10.9049 40.1179C10.6456 39.7829 10.3323 39.5207 9.95192 39.2848C8.74927 38.5389 7.39466 38.1118 6.12498 37.7841C5.87722 37.7202 5.63291 37.8995 5.57928 38.1845C5.52565 38.4695 5.68303 38.7524 5.93078 38.8164C7.18148 39.1391 8.43448 39.5413 9.52155 40.2155C9.83545 40.4102 10.0535 40.6012 10.2219 40.8188C10.3899 41.0358 10.5262 41.3021 10.6514 41.673C10.7436 41.9459 11.0097 42.0827 11.2459 41.9785Z" fill="#FFBE55"/>
<path fill-rule="evenodd" clip-rule="evenodd" d="M5.48226 38.3846C5.5441 38.6685 5.79353 38.8425 6.03937 38.7734C6.24938 38.7143 6.47576 38.6552 6.71304 38.5933C7.53319 38.3792 8.48352 38.1312 9.338 37.7324C10.4528 37.2122 11.5095 36.392 11.9925 34.9361C12.0828 34.664 11.964 34.3573 11.7271 34.2512C11.4902 34.1451 11.225 34.2798 11.1347 34.552C10.781 35.6184 9.99459 36.2817 8.98799 36.7514C8.20935 37.1148 7.36135 37.3365 6.55242 37.5481C6.30194 37.6136 6.0552 37.6781 5.81542 37.7455C5.56958 37.8147 5.42042 38.1008 5.48226 38.3846Z" fill="#FFBE55"/>
</svg>
