<svg width="58" height="120" viewBox="0 0 58 120" fill="none" xmlns="http://www.w3.org/2000/svg">
<path d="M23.5109 1.52678C38.3861 8.77217 63.5864 30.1368 45.3854 57.6321C22.6343 92.0013 0.432986 72.4977 12.6272 59.0335C21.7816 48.9259 57.2392 59.3798 40.7343 82.2077C31.1066 95.5237 21.1031 105.459 16.6495 110.212" stroke="#FFBE55" stroke-width="1.5" stroke-linecap="round"/>
<path fill-rule="evenodd" clip-rule="evenodd" d="M25.0151 109.046C25.1137 108.638 24.8337 108.185 24.3898 108.035C23.6466 107.783 22.9627 107.645 22.2725 107.649C21.5833 107.654 20.9347 107.8 20.254 108.059C18.1016 108.877 16.2113 110.206 14.5335 111.525C14.2062 111.782 14.1966 112.275 14.5122 112.626C14.8278 112.977 15.349 113.052 15.6764 112.795C17.3291 111.497 19.0867 110.274 21.0323 109.534C21.5941 109.321 22.0565 109.228 22.5041 109.225C22.9507 109.222 23.4296 109.309 24.0328 109.513C24.4768 109.664 24.9165 109.455 25.0151 109.046Z" fill="#FFBE55"/>
<path fill-rule="evenodd" clip-rule="evenodd" d="M14.6743 112.95C15.1024 113.15 15.5738 112.999 15.7272 112.613C15.8583 112.283 16.0055 111.932 16.1598 111.564C16.6931 110.292 17.3111 108.819 17.6395 107.32C18.068 105.364 18.0514 103.188 16.646 101.126C16.3832 100.74 15.8693 100.591 15.4982 100.792C15.127 100.994 15.0392 101.47 15.3019 101.855C16.3313 103.366 16.4123 105.038 16.0254 106.803C15.7261 108.169 15.1752 109.485 14.6497 110.739C14.4869 111.128 14.3266 111.511 14.177 111.887C14.0236 112.274 14.2462 112.749 14.6743 112.95Z" fill="#FFBE55"/>
</svg>
