<svg width="138" height="49" viewBox="0 0 138 49" fill="none" xmlns="http://www.w3.org/2000/svg">
<path fill-rule="evenodd" clip-rule="evenodd" d="M12.3025 27.7602C12.8794 27.8046 13.3517 28.3487 13.3573 28.9753C13.3667 30.0244 13.2528 30.9509 12.9496 31.8262C12.6468 32.7002 12.176 33.4635 11.5438 34.2209C9.54503 36.6159 6.9897 38.4652 4.54105 40.0491C4.06324 40.3582 3.41374 40.1654 3.09035 39.6185C2.76696 39.0715 2.89214 38.3776 3.36995 38.0685C5.782 36.5082 8.14043 34.7831 9.94714 32.6183C10.4688 31.9932 10.7901 31.4444 10.9868 30.8768C11.183 30.3104 11.2757 29.6658 11.268 28.8143C11.2624 28.1876 11.7255 27.7157 12.3025 27.7602Z" fill="#FFBE55"/>
<path fill-rule="evenodd" clip-rule="evenodd" d="M2.73602 39.2766C2.65814 38.6493 3.05845 38.1129 3.63014 38.0785C4.11851 38.0491 4.64158 38.008 5.18982 37.9649C7.08482 37.816 9.28063 37.6435 11.3843 37.8493C14.1289 38.1178 16.9711 39.0439 19.0657 41.6874C19.4573 42.1816 19.4313 42.8967 19.0075 43.2845C18.5838 43.6724 17.9229 43.5862 17.5313 43.0919C15.997 41.1557 13.8429 40.3576 11.3648 40.1152C9.44783 39.9276 7.48817 40.0808 5.61882 40.2268C5.03996 40.272 4.46977 40.3166 3.91219 40.3501C3.34049 40.3845 2.81391 39.9039 2.73602 39.2766Z" fill="#FFBE55"/>
<path d="M11.6064 36.6673C43.5016 36.6697 113.529 27.8645 135.014 1.34082" stroke="#FFBE55" stroke-width="2" stroke-linecap="round"/>
</svg>
