<svg width="135" height="92" viewBox="0 0 135 92" fill="none" xmlns="http://www.w3.org/2000/svg">
<path fill-rule="evenodd" clip-rule="evenodd" d="M123.817 71.9259C123.3 71.9676 122.877 72.4769 122.872 73.0635C122.864 74.0456 122.966 74.913 123.238 75.7324C123.509 76.5505 123.931 77.2651 124.497 77.9742C126.288 80.2162 128.577 81.9475 130.771 83.4303C131.2 83.7196 131.781 83.5391 132.071 83.0271C132.361 82.5151 132.249 81.8655 131.821 81.5761C129.66 80.1155 127.546 78.5005 125.928 76.4739C125.46 75.8887 125.172 75.375 124.996 74.8436C124.82 74.3134 124.737 73.7099 124.744 72.9127C124.749 72.3261 124.334 71.8843 123.817 71.9259Z" fill="#FFBE55"/>
<path fill-rule="evenodd" clip-rule="evenodd" d="M132.39 82.7072C132.46 82.12 132.101 81.6178 131.589 81.5856C131.151 81.5581 130.683 81.5196 130.191 81.4793C128.494 81.3399 126.526 81.1784 124.641 81.3711C122.182 81.6224 119.636 82.4893 117.759 84.9641C117.408 85.4267 117.431 86.0962 117.811 86.4592C118.191 86.8223 118.783 86.7416 119.134 86.2789C120.508 84.4663 122.438 83.7192 124.659 83.4922C126.376 83.3167 128.132 83.46 129.807 83.5968C130.326 83.6391 130.837 83.6808 131.336 83.7122C131.848 83.7444 132.32 83.2945 132.39 82.7072Z" fill="#FFBE55"/>
<path d="M124.437 80.2631C52.3644 68.2727 43.8538 49.0639 6.2168 1.27759" stroke="#FFBE55" stroke-width="2" stroke-linecap="round"/>
</svg>
