<svg width="59" height="120" viewBox="0 0 59 120" fill="none" xmlns="http://www.w3.org/2000/svg">
<path d="M35.0262 1.44744C20.151 8.69283 -5.04925 30.0574 13.1517 57.5528C35.9028 91.922 58.1041 72.4183 45.9099 58.9542C36.7556 48.8465 1.29787 59.3004 17.8028 82.1283C27.4305 95.4443 37.434 105.379 41.8876 110.133" stroke="#FFBE55" stroke-width="1.5" stroke-linecap="round"/>
<path fill-rule="evenodd" clip-rule="evenodd" d="M33.524 108.966C33.4254 108.558 33.7054 108.105 34.1493 107.955C34.8924 107.703 35.5764 107.565 36.2666 107.569C36.9558 107.574 37.6043 107.72 38.285 107.979C40.4374 108.797 42.3278 110.127 44.0055 111.445C44.3329 111.702 44.3425 112.195 44.0269 112.546C43.7113 112.897 43.1901 112.973 42.8627 112.715C41.21 111.417 39.4523 110.194 37.5068 109.455C36.945 109.241 36.4826 109.148 36.035 109.145C35.5883 109.142 35.1094 109.229 34.5062 109.433C34.0623 109.584 33.6225 109.375 33.524 108.966Z" fill="#FFBE55"/>
<path fill-rule="evenodd" clip-rule="evenodd" d="M43.8648 112.87C43.4367 113.07 42.9653 112.92 42.8119 112.534C42.6808 112.204 42.5336 111.853 42.3793 111.485C41.846 110.213 41.228 108.739 40.8995 107.24C40.4711 105.285 40.4877 103.108 41.8931 101.046C42.1559 100.66 42.6697 100.511 43.0409 100.713C43.412 100.914 43.4999 101.39 43.2371 101.776C42.2077 103.286 42.1268 104.958 42.5137 106.724C42.8129 108.09 43.3639 109.405 43.8894 110.66C44.0521 111.048 44.2124 111.431 44.3621 111.808C44.5155 112.194 44.2928 112.67 43.8648 112.87Z" fill="#FFBE55"/>
</svg>
