<svg width="149" height="96" viewBox="0 0 149 96" fill="none" xmlns="http://www.w3.org/2000/svg">
<path fill-rule="evenodd" clip-rule="evenodd" d="M13.2927 74.5697C13.8696 74.6142 14.3419 75.1583 14.3475 75.7849C14.357 76.834 14.243 77.7605 13.9398 78.6357C13.637 79.5097 13.1662 80.2731 12.5341 81.0305C10.5353 83.4254 7.97993 85.2747 5.53129 86.8587C5.05348 87.1678 4.40397 86.975 4.08058 86.428C3.75719 85.8811 3.88238 85.1872 4.36019 84.8781C6.77223 83.3178 9.13067 81.5927 10.9374 79.4279C11.4591 78.8028 11.7804 78.254 11.977 77.6863C12.1732 77.12 12.2659 76.4753 12.2583 75.6238C12.2526 74.9972 12.7158 74.5252 13.2927 74.5697Z" fill="#FFBE55"/>
<path fill-rule="evenodd" clip-rule="evenodd" d="M3.72626 86.0862C3.64837 85.4589 4.04868 84.9225 4.62037 84.8881C5.10875 84.8587 5.63181 84.8176 6.18006 84.7745C8.07506 84.6256 10.2709 84.4531 12.3745 84.6589C15.1191 84.9274 17.9613 85.8534 20.056 88.497C20.4476 88.9912 20.4215 89.7062 19.9978 90.0941C19.5741 90.482 18.9131 90.3957 18.5215 89.9015C16.9873 87.9652 14.8332 87.1672 12.355 86.9247C10.4381 86.7372 8.47841 86.8903 6.60905 87.0364C6.0302 87.0816 5.46 87.1262 4.90242 87.1597C4.33073 87.1941 3.80414 86.7135 3.72626 86.0862Z" fill="#FFBE55"/>
<path d="M12.602 83.4759C56.5048 79.173 109.505 71.6698 143.002 1.60547" stroke="#FFBE55" stroke-width="2" stroke-linecap="round"/>
</svg>
