<svg width="328" height="214" viewBox="0 0 328 214" fill="none" xmlns="http://www.w3.org/2000/svg">
<g clip-path="url(#clip0_3243_29806)">
<path opacity="0.5" d="M958.645 -363L181.389 156.619C171.165 163.455 157.828 163.455 147.603 156.619L-629.652 -363L958.645 -363Z" fill="#00A89E"/>
<path opacity="0.5" d="M843.629 -330.578L183.958 110.433C173.734 117.268 160.397 117.268 150.172 110.433L-509.498 -330.578L843.629 -330.578Z" fill="#00A89E"/>
<path opacity="0.7" d="M708.316 -283.971L183.959 66.5788C173.734 73.4144 160.397 73.4144 150.173 66.5788L-374.185 -283.971L708.316 -283.971Z" fill="#00A89E"/>
<path opacity="0.5" d="M579.766 -241.417L183.955 23.1952C173.73 30.0309 160.394 30.0308 150.169 23.1952L-245.641 -241.417L579.766 -241.417Z" fill="#00A89E"/>
</g>
<defs>
<clipPath id="clip0_3243_29806">
<rect width="214" height="328" fill="white" transform="translate(328) rotate(90)"/>
</clipPath>
</defs>
</svg>
