<svg width="88" height="88" viewBox="0 0 88 88" fill="none" xmlns="http://www.w3.org/2000/svg">
<g opacity="0.5">
<path fill-rule="evenodd" clip-rule="evenodd" d="M44 0C19.712 0 0 19.712 0 44C0 68.288 19.712 88 44 88C68.288 88 88 68.288 88 44C88 19.712 68.288 0 44 0ZM44 13.2C51.304 13.2 57.2 19.096 57.2 26.4C57.2 33.704 51.304 39.6 44 39.6C36.696 39.6 30.8 33.704 30.8 26.4C30.8 19.096 36.696 13.2 44 13.2ZM17.6 61.5116C23.276 70.0476 33 75.6796 44 75.6796C55 75.6796 64.724 70.0476 70.4 61.5116C70.268 52.7556 52.756 47.9596 44 47.9596C35.2 47.9596 17.732 52.7556 17.6 61.5116Z" fill="#4ED0C8"/>
</g>
</svg>
