<svg width="1047" height="563" viewBox="0 0 1047 563" fill="none" xmlns="http://www.w3.org/2000/svg">
<path d="M483.608 0.443848C473.173 0.747628 462.668 2.92932 453.088 6.75419C441.575 11.3385 431.098 17.8284 421.408 25.4919C408.004 36.0414 396.064 48.7864 384.841 61.697C280.455 181.994 217.288 331.744 158.042 479.588C146.681 507.937 135.307 536.52 118.769 562.175H0C16.5372 536.52 27.9254 507.923 39.2723 479.588C98.5328 331.744 161.7 181.994 266.072 61.697C285.397 39.4244 306.931 17.6903 334.318 6.75419C343.912 2.92932 354.403 0.747628 364.839 0.443848H483.608V0.443848Z" fill="#DA2032"/>
<path d="M634.678 528.29H532.708C503.374 532.516 474.566 513.792 458.111 489.144C419.833 431.84 422.897 353.893 428.543 288.456C434.603 218.2 446.695 147.584 438.344 77.5492C436.163 59.2395 432.132 40.1842 421.393 25.4785C431.097 17.8287 441.56 11.3389 453.073 6.74077C462.653 2.9159 473.157 0.7342 483.593 0.43042H488.742C506.315 0.955131 523.363 6.98932 535.358 19.6929C549.742 34.9371 554.615 56.7264 557.099 77.5492C565.437 147.584 553.359 218.186 547.299 288.456C541.653 353.879 538.588 431.826 576.867 489.144C578.703 491.906 580.718 494.598 582.844 497.18C596.123 513.253 614.717 525.542 634.678 528.304V528.29Z" fill="#565656"/>
<path d="M947.781 56.685C946.276 56.685 944.744 56.7817 943.239 56.975C940.81 57.2788 938.394 57.8449 936.047 58.701C927.779 61.6698 920.959 67.6763 914.803 73.959C902.752 86.276 892.523 99.9599 883.495 114.528C865.371 143.759 852.105 176.471 838.757 208.382C812.515 271.126 784.479 333.125 754.69 394.254C732.687 439.434 710.007 519.881 651.464 528.304C645.819 529.119 640.187 529.077 634.665 528.304C614.704 525.542 596.11 513.253 582.831 497.18C607.167 467.479 621.689 423.486 635.935 394.254C665.724 333.125 693.746 271.126 719.974 208.382C739.962 160.578 759.784 110.979 796.033 73.959C802.19 67.6763 808.995 61.6698 817.278 58.701C821.074 57.334 825.022 56.6988 828.97 56.6988H947.767L947.781 56.685Z" fill="#DA2032"/>
<path d="M1046.36 516.829L937.884 517.865C934.046 518.044 930.14 517.603 926.206 516.443C902.697 509.525 893.711 481.287 890.55 456.971C876.277 346.864 906.645 233.706 885.663 124.69C885.001 121.294 884.297 117.883 883.496 114.5C892.524 99.9322 902.753 86.2483 914.803 73.9314C920.96 67.6487 927.779 61.6421 936.048 58.6734C938.394 57.8311 940.81 57.2511 943.24 56.9473C944.744 56.754 946.276 56.6573 947.781 56.6573C949.286 56.6573 950.873 56.754 952.419 56.9473C964.539 58.3972 976.314 65.3979 984.32 74.9394C995.929 88.789 1001.01 106.919 1004.43 124.69C1024.74 230.199 996.951 339.574 1008.09 446.311C1008.45 449.86 1008.86 453.422 1009.33 456.971C1012.48 481.287 1021.48 509.525 1044.99 516.443C1045.46 516.581 1045.91 516.705 1046.38 516.816L1046.36 516.829Z" fill="#565656"/>
</svg>
