<svg width="516" height="720" viewBox="0 0 516 720" fill="none" xmlns="http://www.w3.org/2000/svg">
<path d="M516 0L488.553 69.049H453.443C379.654 102.207 330.136 167.36 284.551 234.083C238.966 300.807 208.387 376.76 186.126 454.415C164.128 531.168 149.21 611.876 106.073 679.108C94.8406 696.595 77.8975 714.286 58.9002 718.865H58.8711C52.8834 720.305 46.6919 720.45 40.4129 718.865C39.9175 718.735 39.4368 718.618 38.9414 718.473C14.1314 711.19 4.64728 681.463 1.31111 655.864C0.81578 652.128 0.393348 648.377 0 644.641C28.9912 585.23 42.4233 518.434 60.7795 454.415C83.0256 376.76 113.605 300.807 159.189 234.083C204.774 167.36 256.915 90.4324 330.689 57.2598H281.798L516 0Z" fill="#DA2032"/>
</svg>
