<svg width="489" height="684" viewBox="0 0 489 684" fill="none" xmlns="http://www.w3.org/2000/svg">
<path d="M489 0.000183105L462.993 65.5891H429.726C359.809 97.0856 312.889 158.974 269.696 222.354C226.504 285.733 197.529 357.881 176.437 431.644C155.593 504.552 141.457 581.215 100.584 645.078C89.941 661.689 73.887 678.494 55.8866 682.843H55.859C50.1855 684.21 44.3189 684.348 38.3694 682.843C37.9 682.719 37.4445 682.609 36.9751 682.47C13.467 675.553 4.48057 647.315 1.31946 622.999C0.850121 619.45 0.449856 615.887 0.0771484 612.339C27.5471 555.904 40.2743 492.456 57.6673 431.644C78.746 357.881 107.72 285.733 150.913 222.354C194.106 158.974 243.51 85.901 313.414 54.3907H267.087L489 0.000183105Z" fill="#DA2032"/>
</svg>
