<svg width="1280" height="656" viewBox="0 0 1280 656" fill="none" xmlns="http://www.w3.org/2000/svg">
<g opacity="0.3">
<g opacity="0.9" clip-path="url(#clip0_3126_14431)">
<path opacity="0.2" d="M1913.61 -585L694.729 633.877C666.327 662.279 620.279 662.279 591.877 633.877L-627 -585L1913.61 -585Z" fill="#2B2015"/>
<path opacity="0.3" d="M1724.93 -507.637L694.143 523.154C665.741 551.556 619.692 551.556 591.291 523.154L-439.5 -507.637L1724.93 -507.637Z" fill="#2B2015"/>
<path opacity="0.5" d="M1508.49 -396.121L694.142 418.226C665.74 446.628 619.691 446.628 591.29 418.226L-223.058 -396.121L1508.49 -396.121Z" fill="#2B2015"/>
<path opacity="0.5" d="M1302.87 -294.303L694.141 314.423C665.739 342.825 619.691 342.825 591.289 314.423L-17.4374 -294.303L1302.87 -294.303Z" fill="#2B2015"/>
</g>
</g>
<defs>
<clipPath id="clip0_3126_14431">
<rect width="950.303" height="1318.79" fill="white" transform="translate(1288 -294.303) rotate(90)"/>
</clipPath>
</defs>
</svg>
