<svg width="78" height="29" viewBox="0 0 78 29" fill="none" xmlns="http://www.w3.org/2000/svg">
<g clip-path="url(#clip0_4066_27316)">
<path d="M3.12706 6.77249C4.75505 6.77568 6.37579 6.99024 7.94894 7.41086C9.34535 7.73484 10.6281 8.43281 11.6608 9.43048C11.8342 9.61038 11.9787 9.81351 12.1406 10.0108C13.2969 8.42647 14.9852 7.74166 16.8006 7.28899C18.2334 6.95152 19.6998 6.77825 21.1715 6.77249C21.5872 6.74057 22.0047 6.74057 22.4204 6.77249C22.9465 6.77249 23.4726 6.83052 23.9988 6.84213C24.1838 6.84213 24.2474 6.88274 24.2474 7.08587C24.2474 8.9836 24.2474 10.8813 24.2474 12.7791C24.2474 15.0192 24.2474 17.2613 24.2474 19.5053C24.2474 20.666 24.2474 21.8267 24.2474 22.9874C24.3084 24.0446 23.9557 25.0839 23.2645 25.8839C22.5734 26.6839 21.5983 27.1814 20.5471 27.2704C20.2053 27.3062 19.8613 27.3159 19.518 27.2994C18.3964 27.2994 17.2689 27.2994 16.1473 27.2994C14.6898 27.3494 13.2979 27.9193 12.2216 28.907C12.2216 28.907 12.2216 28.9592 12.1869 28.9882H12.0597C11.8589 28.6732 11.5826 28.4138 11.256 28.2338C10.4709 27.7383 9.57854 27.4398 8.65429 27.3632C7.27868 27.2298 5.89569 27.1891 4.51464 27.2414C3.74612 27.3076 2.97298 27.1882 2.25981 26.8932C1.69658 26.5965 1.21094 26.1707 0.842281 25.6505C0.473621 25.1302 0.232325 24.53 0.137963 23.8986C0.0627365 23.5537 0.0277977 23.2011 0.0338798 22.8481C0.0338798 19.6678 0.0338798 16.4894 0.0338798 13.313C0.0338798 11.2702 0.0338798 9.25057 0.0338798 7.18453C0.0338798 6.92918 0.074361 6.83052 0.369224 6.81891C0.878008 6.81891 1.38678 6.77248 1.89557 6.76087C2.30584 6.73652 2.71731 6.74041 3.12706 6.77249Z" fill="#999EAB"/>
<path d="M12.1591 6.1922C12.4135 5.72792 12.6332 5.24622 12.9165 4.79935C14.0543 2.96038 15.778 1.56148 17.8077 0.829771C18.9094 0.430896 20.058 0.177298 21.2247 0.0753254C22.1555 -0.0117269 23.0864 0.0230961 24.0114 0.0230961C24.1733 0.0230961 24.2369 0.0811338 24.2369 0.243631C24.2369 0.638268 24.2369 1.0387 24.2369 1.43334C24.2369 1.61905 24.156 1.65968 23.9883 1.65968C23.3465 1.65968 22.699 1.65968 22.0572 1.65968C20.2377 1.68707 18.4461 2.1129 16.8075 2.90743C14.9199 3.82249 13.393 5.34703 12.4713 7.23682L12.136 7.90422C11.9278 7.50378 11.7544 7.12075 11.5578 6.74352C10.2865 4.52405 8.19786 2.89434 5.74146 2.20519C4.85796 1.94813 3.95184 1.77711 3.03566 1.6945C2.13951 1.60745 1.24914 1.65387 0.358764 1.64806C0.121717 1.64806 0.0292191 1.56101 0.0234375 1.35208C0.0234375 0.980658 0.0234375 0.603448 0.0234375 0.226222C0.0234375 0.0637241 0.115951 0.0230905 0.266274 0.017287C2.56535 -0.177127 4.87786 0.170664 7.01922 1.0329C8.49898 1.66358 9.79431 2.66222 10.783 3.93464C11.2507 4.54256 11.6501 5.2004 11.9741 5.89622C12.0146 6.00068 12.0319 6.12836 12.1591 6.1922Z" fill="#999EAB"/>
<path d="M12.1479 9.63421C11.7762 8.95771 11.3 8.34461 10.7371 7.81772C9.43479 6.68815 7.85978 5.92169 6.16966 5.59499C4.27148 5.18405 2.32322 5.05692 0.388024 5.21775C0.0931608 5.21775 0.0122207 5.14812 0.0295656 4.86375C0.0295656 4.4575 0.0295656 4.05125 0.0295656 3.64501C0.0295656 3.49992 0.0295572 3.38966 0.237696 3.37806C2.43722 3.19045 4.65164 3.46114 6.74203 4.17313C7.89201 4.56297 8.95337 5.17823 9.8645 5.98321C10.7756 6.78819 11.5184 7.76684 12.0496 8.86233L12.1247 8.99582L12.1768 9.05386C12.6835 7.94072 13.4092 6.94187 14.3102 6.1173C15.7822 4.82182 17.5835 3.96194 19.5137 3.63341C21.0055 3.354 22.527 3.26818 24.0407 3.37806C24.2257 3.37806 24.2951 3.43609 24.2893 3.6276C24.2893 4.07447 24.2893 4.52714 24.2893 4.97401C24.2893 5.20035 24.2026 5.22936 24.0118 5.21775C23.2135 5.15678 22.4125 5.13935 21.6124 5.16552C19.449 5.17805 17.315 5.66949 15.3624 6.60479C14.007 7.26018 12.8849 8.31768 12.1479 9.63421Z" fill="#999EAB"/>
<path d="M19.2355 16.4122C19.2263 18.0459 18.6531 19.6258 17.6137 20.883C16.5742 22.1401 15.1328 22.9967 13.5348 23.3067C13.3251 23.3641 13.11 23.3991 12.893 23.4112C12.6155 23.4112 12.6097 23.5447 12.6155 23.7536C12.6213 23.9625 12.7022 24.1018 12.5461 24.1482C12.3445 24.1947 12.135 24.1947 11.9333 24.1482C11.8119 24.1482 11.8697 23.9683 11.8697 23.8697C11.8697 23.3938 11.8697 23.417 11.3898 23.3532C10.609 23.2567 9.84706 23.0435 9.1292 22.7206C9.01934 22.6742 8.97887 22.6335 9.05403 22.5C9.12919 22.3666 9.20436 22.0996 9.4761 22.0126C9.74783 21.9255 9.64377 21.6644 9.40672 21.5309C8.32314 20.9562 7.45924 20.038 6.94953 18.9193C5.26707 15.031 7.59707 11.4908 11.0834 10.6842C12.0662 10.4853 13.0842 10.5534 14.032 10.8815C14.1284 10.9166 14.2269 10.9457 14.3269 10.9685C14.377 10.9816 14.4297 10.9813 14.4797 10.9674C14.5296 10.9536 14.575 10.9268 14.6114 10.8897C14.6477 10.8527 14.6737 10.8066 14.6867 10.7563C14.6997 10.7059 14.6992 10.653 14.6853 10.6029C14.6629 10.535 14.6474 10.465 14.6391 10.394C14.6796 9.96453 14.8646 9.85427 15.2462 10.0516C16.2968 10.5562 17.2052 11.3164 17.8888 12.263C18.5724 13.2096 19.0095 14.3127 19.1603 15.472C19.1807 15.6279 19.1923 15.7849 19.195 15.9421C19.2066 16.0988 19.2239 16.2555 19.2355 16.4122Z" fill="#FEFEFE"/>
<path d="M12.2335 26.0576C11.1813 26.0576 10.129 26.0576 9.08255 26.0576C8.83972 26.0576 8.83393 25.9648 8.8744 25.7907C8.9423 25.5008 9.10281 25.2413 9.33143 25.0516C9.56006 24.862 9.84423 24.7526 10.1406 24.7402H14.3496C14.6361 24.75 14.9119 24.8516 15.1367 25.0302C15.3614 25.2088 15.5232 25.455 15.5984 25.7326C15.6563 25.9532 15.6331 26.0634 15.3498 26.0576C14.3091 26.046 13.2684 26.0576 12.2335 26.0576Z" fill="#FEFEFE"/>
<path d="M4.42287 20.1151C4.32164 20.754 4.39765 21.4086 4.64257 22.007C4.39115 21.9041 4.174 21.7317 4.01638 21.5098C3.85876 21.2878 3.76716 21.0256 3.75221 20.7535C3.7437 20.0125 3.94413 19.2841 4.33038 18.6526C4.38819 18.5365 4.45179 18.5365 4.54429 18.6236C5.49248 19.4651 5.9261 20.5968 5.1687 21.8445C5.10913 21.9195 5.07669 22.0126 5.07669 22.1086C5.07669 22.2045 5.10913 22.2976 5.1687 22.3726C5.5293 22.9088 5.99566 23.3651 6.53895 23.7132L8.1925 24.8159C8.22599 24.831 8.25561 24.8535 8.27917 24.8818C8.30273 24.9101 8.3196 24.9433 8.3285 24.9791C8.33741 25.0148 8.33812 25.0521 8.33059 25.0882C8.32305 25.1243 8.30747 25.1582 8.28501 25.1873C8.2687 25.2227 8.24468 25.254 8.21473 25.2789C8.18479 25.3038 8.14967 25.3216 8.11196 25.3311C8.07424 25.3405 8.03488 25.3414 7.99679 25.3336C7.95871 25.3258 7.92284 25.3095 7.89185 25.286C6.41175 24.3052 5.13402 23.1445 4.59633 21.3686C4.53488 21.1598 4.4904 20.9463 4.46334 20.7302C4.43816 20.5261 4.42464 20.3207 4.42287 20.1151Z" fill="#FEFEFE"/>
<path d="M4.77054 22.5756C4.29158 22.5911 3.81863 22.6873 3.3714 22.86C3.93287 22.8088 4.49893 22.8599 5.04228 23.0109C4.57158 23.5527 3.91045 23.8908 3.19715 23.9546C2.48384 24.0184 1.77357 23.803 1.21484 23.3533C2.06474 22.4364 3.71251 21.9431 4.77054 22.5756Z" fill="#FEFEFE"/>
<path d="M6.92729 20.9678C6.98883 21.4412 6.92913 21.9226 6.75383 22.3664C6.69977 22.4902 6.62036 22.6013 6.52075 22.6922C6.42114 22.7832 6.30356 22.8522 6.17567 22.8945C6.03113 22.9468 5.98488 22.8945 5.95019 22.7843C5.88473 22.601 5.85845 22.4059 5.87307 22.2117C5.88769 22.0175 5.94289 21.8286 6.03506 21.6572C6.12723 21.4859 6.25432 21.3359 6.40804 21.2171C6.56177 21.0984 6.73869 21.0134 6.92729 20.9678Z" fill="#FDFEFE"/>
<path d="M12.2107 24.6473H10.8404C10.7826 24.6473 10.7017 24.6473 10.6844 24.5835C10.667 24.5196 10.7364 24.479 10.7942 24.4558C10.9291 24.3753 11.0825 24.3313 11.2394 24.3281C11.9158 24.3281 12.5865 24.3281 13.263 24.3281H13.3266C13.5174 24.3281 13.7891 24.3919 13.7833 24.5486C13.7775 24.7053 13.5116 24.6299 13.367 24.6357C12.9796 24.6473 12.5981 24.6473 12.2107 24.6473Z" fill="#FDFEFE"/>
<path d="M60.8751 2.95409V5.18263C60.8751 5.34512 61.008 5.36254 61.1121 5.38575C61.2162 5.40897 61.3087 5.49022 61.2855 5.6237C61.2624 5.75718 61.1468 5.71656 61.0658 5.71656H60.1928C60.1177 5.71656 60.0078 5.76298 60.0078 5.6237C60.0078 5.48441 60.0078 5.42637 60.1177 5.39735C60.3721 5.33932 60.3778 5.14782 60.3836 4.93889C60.4183 4.01614 60.453 3.08758 60.4993 2.16483C60.4993 1.96751 60.453 1.83403 60.2506 1.7992C60.0483 1.76438 60.0541 1.71216 60.0714 1.56707C60.0887 1.42198 60.2217 1.46261 60.3085 1.4568C60.6611 1.4568 61.0138 1.4568 61.3723 1.4568C61.5284 1.4568 61.5862 1.50903 61.644 1.67153C61.9504 2.53625 62.2916 3.41256 62.6442 4.32951C63.0143 3.39515 63.3612 2.54206 63.6734 1.67734C63.737 1.50323 63.8063 1.451 63.974 1.4568C64.3267 1.4568 64.6794 1.4568 65.0321 1.4568C65.113 1.4568 65.2344 1.39876 65.2518 1.55545C65.2691 1.71214 65.2517 1.76438 65.1014 1.7818C64.8528 1.81662 64.8124 1.9733 64.8181 2.20544C64.8644 3.16301 64.8991 4.12059 64.928 5.07817C64.9212 5.15007 64.9419 5.22187 64.9859 5.27899C65.03 5.33612 65.094 5.37428 65.165 5.38575C65.2864 5.38575 65.3847 5.44959 65.3674 5.60629C65.35 5.76298 65.1939 5.71656 65.1014 5.71656C64.6042 5.71656 64.107 5.71656 63.604 5.71656C63.5288 5.71656 63.4074 5.77458 63.3901 5.61789C63.3727 5.46119 63.3901 5.41476 63.5462 5.39735C63.7774 5.36253 63.8237 5.21746 63.8237 4.99693C63.8237 4.30051 63.8237 3.60988 63.8237 2.91346H63.7081C63.3554 3.8072 62.9969 4.69515 62.6616 5.59469C62.5922 5.77459 62.5286 5.83842 62.3378 5.83842C62.147 5.83842 62.1123 5.76878 62.0487 5.60629C61.7134 4.71835 61.3492 3.83622 60.9907 2.95409H60.8751Z" fill="#999EAB"/>
<path d="M70.3223 11.1488C70.7906 10.4931 71.2589 9.83145 71.7157 9.16986C71.8371 8.99575 71.7908 8.85068 71.5769 8.78684C71.363 8.723 71.3341 8.723 71.363 8.54309C71.3919 8.36318 71.5538 8.42701 71.6579 8.42701C72.132 8.42701 72.6118 8.42701 73.0917 8.42701C73.1727 8.42701 73.2825 8.37479 73.3056 8.52568C73.3288 8.67657 73.2767 8.75202 73.1437 8.76943C72.9125 8.80425 72.8778 8.94934 72.8778 9.14666C72.8778 10.0868 72.8778 11.027 72.8778 11.9613C72.8778 12.1761 72.9125 12.3328 73.1553 12.3676C73.2825 12.3676 73.3172 12.4662 73.3056 12.5881C73.2941 12.71 73.1784 12.6984 73.0975 12.6984H71.5711C71.4844 12.6984 71.3746 12.7332 71.363 12.5823C71.3514 12.4314 71.3919 12.3792 71.5191 12.356C71.7446 12.3212 71.7793 12.1703 71.7793 11.9729C71.7793 11.3055 71.7793 10.6381 71.7793 9.97655C71.6579 9.94173 71.6521 10.0404 71.6174 10.0926C71.2069 10.673 70.7964 11.2533 70.3917 11.8337C70.172 12.1471 70.1951 12.2283 70.5536 12.3734C70.6031 12.387 70.6453 12.4195 70.6712 12.464C70.6971 12.5085 70.7047 12.5613 70.6923 12.6113C70.6923 12.7448 70.5767 12.71 70.5015 12.71H68.9405C68.8538 12.71 68.7497 12.71 68.7439 12.5823C68.7381 12.4546 68.7728 12.3908 68.8827 12.3792C69.1255 12.3444 69.1602 12.1877 69.1602 11.9729C69.1602 11.0386 69.1602 10.0984 69.1602 9.16407C69.1602 8.96094 69.1255 8.81585 68.9 8.77522C68.7786 8.77522 68.7323 8.68237 68.7439 8.55469C68.7555 8.42701 68.8595 8.43282 68.9463 8.43282H70.4784C70.5593 8.43282 70.6692 8.3806 70.6923 8.53149C70.7155 8.68238 70.6576 8.75781 70.5247 8.77522C70.2992 8.81005 70.2587 8.95513 70.2587 9.15826C70.2587 9.81405 70.2587 10.4699 70.2587 11.1256L70.3223 11.1488Z" fill="#999EAB"/>
<path d="M31.8462 18.2109C32.355 17.4971 32.8117 16.8587 33.2569 16.2203C33.4361 15.965 33.4072 15.8547 33.1008 15.7444C32.9794 15.698 32.9273 15.64 32.9389 15.5181C32.9505 15.3962 33.0719 15.4136 33.1528 15.4136H34.685C34.7659 15.4136 34.8815 15.3614 34.8989 15.5181C34.9048 15.5435 34.9052 15.5698 34.8999 15.5953C34.8947 15.6208 34.8841 15.6449 34.8687 15.6659C34.8533 15.6869 34.8335 15.7042 34.8108 15.7168C34.7881 15.7293 34.7629 15.7368 34.737 15.7386C34.5231 15.7734 34.4652 15.9011 34.4652 16.1158C34.4652 17.0618 34.4652 18.0136 34.4652 18.9596C34.4652 19.1743 34.5231 19.2962 34.737 19.3368C34.7626 19.3378 34.7877 19.3445 34.8105 19.3564C34.8332 19.3683 34.8531 19.3852 34.8685 19.4057C34.884 19.4262 34.8948 19.45 34.9 19.4752C34.9053 19.5004 34.9049 19.5265 34.8989 19.5515C34.8989 19.7314 34.7543 19.6734 34.6676 19.6734H33.1702C33.0834 19.6734 32.9505 19.7314 32.9389 19.5515C32.9273 19.3716 32.9736 19.3542 33.1008 19.3368C33.3263 19.302 33.3667 19.1569 33.361 18.9538C33.361 18.2864 33.361 17.619 33.361 16.9574C33.2684 16.9167 33.2511 16.998 33.2222 17.0386L31.9502 18.8435C31.7652 19.1105 31.7941 19.2323 32.1121 19.3484C32.2451 19.3948 32.2971 19.4645 32.274 19.5979C32.2509 19.7314 32.1295 19.6908 32.0543 19.6908H30.5222C30.4412 19.6908 30.3256 19.7314 30.314 19.5747C30.3091 19.5495 30.3094 19.5234 30.315 19.4983C30.3206 19.4731 30.3314 19.4494 30.3466 19.4287C30.3618 19.408 30.3812 19.3906 30.4035 19.3778C30.4257 19.365 30.4504 19.3569 30.4759 19.3542C30.7014 19.3194 30.7419 19.1801 30.7419 18.977C30.7419 18.0368 30.7419 17.0966 30.7419 16.1623C30.7419 15.9534 30.7419 15.7851 30.4759 15.7502C30.3487 15.7502 30.3083 15.6458 30.3256 15.5239C30.3429 15.402 30.4412 15.431 30.5164 15.4252H32.0774C32.1642 15.4252 32.2798 15.3846 32.2798 15.5413C32.2798 15.698 32.2798 15.727 32.141 15.7444C31.8808 15.7793 31.8462 15.9476 31.8519 16.1681C31.8577 16.8123 31.8462 17.4623 31.8462 18.2109Z" fill="#999EAB"/>
<path d="M57.4397 16.8997C56.9714 17.5613 56.4973 18.2171 56.0406 18.8845C55.9192 19.0644 55.9365 19.2501 56.1967 19.3197C56.3239 19.3545 56.428 19.401 56.3933 19.5693C56.3586 19.7376 56.214 19.6679 56.1215 19.6679C55.6359 19.6679 55.1444 19.6679 54.6588 19.6679C54.5778 19.6679 54.4564 19.726 54.4506 19.5635C54.4448 19.401 54.4506 19.3603 54.5952 19.3371C54.8438 19.3023 54.8843 19.134 54.8785 18.9077C54.8785 17.9907 54.8785 17.0738 54.8785 16.1568C54.8785 15.9305 54.8438 15.7622 54.5952 15.7274C54.4506 15.7274 54.4391 15.6055 54.4506 15.4952C54.4622 15.385 54.5721 15.4082 54.6472 15.4082H56.2025C56.2776 15.4082 56.3817 15.3675 56.3933 15.501C56.4048 15.6345 56.3933 15.71 56.2487 15.7332C56.1042 15.7564 55.977 15.9015 55.977 16.1104C55.977 16.7662 55.977 17.422 55.977 18.072C56.0811 18.1068 56.0984 18.0313 56.1273 17.9849L57.3704 16.2439C57.5727 15.9595 57.5496 15.8783 57.2143 15.7506C57.1897 15.7458 57.1663 15.7361 57.1456 15.7219C57.1249 15.7078 57.1072 15.6896 57.0937 15.6685C57.0802 15.6473 57.0711 15.6236 57.067 15.5988C57.0628 15.574 57.0638 15.5487 57.0697 15.5242C57.0697 15.3675 57.2027 15.4256 57.2836 15.4256H58.81C58.8967 15.4256 59.0066 15.385 59.0123 15.5416C59.0181 15.6983 59.0123 15.7274 58.8736 15.7448C58.6308 15.7796 58.5961 15.9363 58.5961 16.1452C58.5961 17.0854 58.5961 18.0255 58.5961 18.9599C58.5961 19.163 58.6308 19.3139 58.8505 19.3487C58.8761 19.3497 58.9012 19.3564 58.9239 19.3684C58.9467 19.3803 58.9665 19.3971 58.982 19.4176C58.9975 19.4382 59.0083 19.4619 59.0135 19.4871C59.0187 19.5124 59.0183 19.5384 59.0123 19.5635C59.0123 19.726 58.8967 19.6853 58.8158 19.6853H57.2547C57.1853 19.6853 57.0755 19.7318 57.0697 19.5925C57.0639 19.4532 57.0697 19.3778 57.1969 19.3603C57.4629 19.3255 57.5033 19.1398 57.4976 18.9077C57.4976 18.2519 57.4976 17.5961 57.4976 16.9403L57.4397 16.8997Z" fill="#999EAB"/>
<path d="M67.3273 12.6978H66.5815C66.4948 12.6978 66.3849 12.7384 66.3734 12.5817C66.3618 12.425 66.3733 12.3902 66.5063 12.3728C66.7781 12.338 66.8185 12.1639 66.807 11.9259C66.807 11.5835 66.807 11.2353 66.807 10.8929C66.807 10.7246 66.7723 10.6492 66.5815 10.6608C66.2635 10.6608 65.9397 10.6608 65.616 10.6608C65.4483 10.6608 65.402 10.7188 65.4078 10.8755C65.4078 11.2527 65.4078 11.6241 65.4078 12.0014C65.4078 12.1929 65.4599 12.3206 65.668 12.3554C65.6971 12.3561 65.7257 12.3634 65.7516 12.3769C65.7774 12.3903 65.7999 12.4096 65.8172 12.4331C65.8345 12.4567 65.8462 12.4838 65.8514 12.5126C65.8566 12.5414 65.8552 12.571 65.8472 12.5991C65.8183 12.7384 65.7085 12.6978 65.6217 12.6978H64.0954C64.0145 12.6978 63.8988 12.7442 63.8815 12.5933C63.8641 12.4424 63.8815 12.3844 64.0318 12.367C64.2862 12.3264 64.3209 12.1639 64.3209 11.9375C64.3209 11.0206 64.3209 10.1036 64.3209 9.18668C64.3209 8.96034 64.2862 8.79205 64.026 8.76303C63.8988 8.76303 63.8699 8.65856 63.8757 8.53669C63.8815 8.41482 64.0029 8.42643 64.0838 8.42063H65.6622C65.7547 8.42063 65.853 8.42062 65.8588 8.5541C65.8646 8.68758 65.8241 8.73981 65.72 8.75722C65.4599 8.79204 65.4194 8.96035 65.4252 9.18088C65.4309 9.40142 65.4252 9.72641 65.4252 9.99337C65.4252 10.1501 65.4599 10.2255 65.6333 10.2197C65.9686 10.2197 66.2982 10.2197 66.6335 10.2197C66.7896 10.2197 66.8243 10.1559 66.8243 10.0108C66.8243 9.77284 66.8243 9.5349 66.8243 9.29115C66.8243 9.04741 66.8243 8.78625 66.489 8.7108C66.356 8.7108 66.3965 8.57151 66.3965 8.48446C66.3965 8.39741 66.489 8.3916 66.5584 8.3916H68.183C68.2582 8.3916 68.3333 8.39162 68.3391 8.49608C68.3449 8.60054 68.3391 8.69918 68.2293 8.7166C67.917 8.76302 67.9228 8.98356 67.9228 9.2273C67.9228 10.1268 67.9228 11.0206 67.9228 11.9143C67.9228 12.1232 67.9228 12.2915 68.1888 12.3322C68.316 12.3322 68.3507 12.4366 68.3391 12.5585C68.3275 12.6804 68.2119 12.6688 68.1252 12.6688L67.3273 12.6978Z" fill="#999EAB"/>
<path d="M69.8994 3.58647C69.8994 3.11639 69.8994 2.64631 69.8994 2.17623C69.8994 1.97891 69.8647 1.82221 69.6392 1.79319C69.5062 1.79319 69.4773 1.69453 69.4831 1.57266C69.4889 1.45079 69.6045 1.4566 69.6855 1.4566C70.1943 1.4566 70.703 1.4566 71.2176 1.4566C71.2928 1.4566 71.4142 1.40437 71.4257 1.56106C71.4373 1.71775 71.4257 1.76417 71.2812 1.78739C71.0499 1.82221 70.9863 1.9673 70.9979 2.18783C71.0124 2.47008 71.0124 2.7529 70.9979 3.03515C70.9979 3.18604 71.0499 3.23246 71.1945 3.23246C71.5298 3.23246 71.8594 3.23246 72.1947 3.23246C72.3739 3.23246 72.3971 3.15121 72.3971 3.00612C72.3971 2.75657 72.3971 2.50703 72.3971 2.25167C72.3971 1.99632 72.3971 1.81641 72.0906 1.77579C71.9577 1.77579 71.9808 1.64811 71.9808 1.55525C71.9808 1.46239 72.0675 1.4566 72.1369 1.4566H73.7557C73.8251 1.4566 73.9119 1.4566 73.9176 1.54946C73.9234 1.64231 73.9465 1.75837 73.8136 1.77579C73.484 1.81641 73.484 2.04274 73.4898 2.29809C73.4898 3.18603 73.4898 4.07397 73.4898 4.9561C73.4898 5.18244 73.4898 5.35654 73.7673 5.39136C73.9061 5.39136 73.9292 5.50162 73.9176 5.61769C73.9061 5.73376 73.7847 5.71635 73.7095 5.71635H72.1774C72.1022 5.71635 71.9808 5.76859 71.975 5.6119C71.9692 5.4552 72.0039 5.40877 72.1311 5.39136C72.3566 5.35074 72.3971 5.19984 72.3913 5.00252C72.3913 4.63883 72.3913 4.27322 72.3913 3.90567C72.3913 3.74317 72.3392 3.68514 72.1774 3.68514C71.8536 3.68514 71.5298 3.68514 71.206 3.68514C71.0499 3.68514 70.9863 3.73737 70.9921 3.90567C70.9921 4.26549 70.9921 4.63111 70.9921 4.99673C70.9921 5.19985 71.0326 5.35073 71.2523 5.38555C71.472 5.42037 71.4373 5.49002 71.42 5.6235C71.4026 5.75698 71.2812 5.71635 71.2003 5.71635H69.7086C69.6392 5.71635 69.5294 5.76858 69.512 5.6351C69.4947 5.50162 69.512 5.42037 69.645 5.39715C69.9052 5.35653 69.9341 5.18242 69.9283 4.96189C69.8936 4.50342 69.8994 4.04494 69.8994 3.58647Z" fill="#999EAB"/>
<path d="M37.6553 19.6736H36.9037C36.8343 19.6736 36.7187 19.72 36.7129 19.5865C36.7071 19.453 36.6782 19.3718 36.8343 19.3486C37.0829 19.3079 37.1292 19.1454 37.1234 18.9191C37.1234 18.0022 37.1234 17.0852 37.1234 16.1683C37.1234 15.9477 37.1234 15.7678 36.8459 15.733C36.7187 15.733 36.7071 15.6285 36.7071 15.5299C36.7071 15.4312 36.8285 15.4138 36.9094 15.4138H38.4878C38.563 15.4138 38.6671 15.3848 38.6671 15.5183C38.6671 15.6517 38.6671 15.7156 38.5457 15.733C38.245 15.7678 38.2277 15.9709 38.2392 16.2089C38.2508 16.4468 38.2392 16.7138 38.2392 16.9633C38.2392 17.1142 38.2739 17.1897 38.4474 17.1839C38.7769 17.1839 39.1123 17.1839 39.4418 17.1839C39.5979 17.1839 39.6442 17.1374 39.6384 16.9865C39.6384 16.7389 39.6384 16.4894 39.6384 16.2379C39.6384 15.9942 39.6384 15.7736 39.3262 15.733C39.2163 15.733 39.2221 15.6227 39.2221 15.5357C39.2221 15.4486 39.3146 15.4196 39.3956 15.4196H40.9855C41.0607 15.4196 41.1647 15.3906 41.1647 15.5241C41.1647 15.6575 41.1647 15.7156 41.0722 15.7272C40.7138 15.7678 40.7369 16.0232 40.7369 16.2785C40.7369 17.1664 40.7369 18.0544 40.7369 18.9365C40.7369 19.1512 40.7658 19.3137 41.0029 19.3486C41.2399 19.3834 41.1879 19.4646 41.1647 19.5923C41.1416 19.72 41.026 19.6794 40.945 19.6852H39.4476C39.3666 19.6852 39.2279 19.749 39.2221 19.5633C39.2163 19.3776 39.251 19.366 39.3782 19.3486C39.6037 19.3137 39.6442 19.1629 39.6384 18.9597C39.6384 18.6038 39.6384 18.2498 39.6384 17.8977C39.6384 17.7004 39.5748 17.6423 39.3898 17.654C39.0891 17.654 38.8116 17.654 38.4821 17.654C38.2855 17.654 38.2334 17.7178 38.2392 17.9035C38.2392 18.2575 38.2392 18.6115 38.2392 18.9655C38.2392 19.1803 38.297 19.3137 38.511 19.3486C38.7249 19.3834 38.6902 19.4646 38.6671 19.5923C38.6439 19.72 38.5283 19.6794 38.4474 19.6852L37.6553 19.6736Z" fill="#999EAB"/>
<path d="M40.8008 1.43313C41.4484 1.43313 42.0901 1.43313 42.7377 1.43313C42.8302 1.43313 42.9747 1.35189 43.0036 1.5434C43.0325 1.73492 42.9343 1.74071 42.8071 1.76973C42.6799 1.79875 42.5816 1.91483 42.5873 2.08893C42.5873 3.06972 42.5873 4.0447 42.5873 5.02549C42.5873 5.21701 42.6567 5.32147 42.836 5.35629C42.8645 5.35754 42.8924 5.3654 42.9174 5.37928C42.9425 5.39317 42.9639 5.41269 42.9802 5.43631C42.9964 5.45993 43.007 5.487 43.0111 5.51541C43.0151 5.54382 43.0126 5.57278 43.0036 5.60003C43.0036 5.74512 42.8591 5.68708 42.7839 5.68708H41.2518C41.1824 5.68708 41.0726 5.73931 41.061 5.60003C41.0494 5.46075 41.061 5.39111 41.194 5.36789C41.4426 5.33307 41.4946 5.17058 41.4946 4.93844C41.4946 4.00988 41.4946 3.08713 41.4946 2.15857C41.4946 1.93804 41.431 1.86839 41.2113 1.88C40.9916 1.8916 40.6332 1.88 40.3383 1.88C40.1822 1.88 40.1186 1.91483 40.1186 2.08893C40.1186 3.07552 40.1186 4.06791 40.1186 5.0545C40.1137 5.08808 40.1156 5.12229 40.124 5.15515C40.1324 5.18801 40.1473 5.21885 40.1678 5.24587C40.1882 5.27288 40.2139 5.29555 40.2431 5.31251C40.2724 5.32948 40.3048 5.3404 40.3383 5.34467C40.4655 5.34467 40.5811 5.42013 40.5464 5.58843C40.5117 5.75673 40.3614 5.68708 40.2631 5.68708C39.7775 5.68708 39.286 5.68708 38.8004 5.68708C38.7194 5.68708 38.598 5.73931 38.5865 5.58262C38.5749 5.42593 38.6154 5.3853 38.7484 5.36208C38.8813 5.33887 39.0143 5.18798 39.0085 4.97905C39.0085 4.03309 39.0085 3.08132 39.0085 2.13535C39.0085 1.92642 38.9565 1.79295 38.7426 1.75813C38.5286 1.72331 38.5749 1.64787 38.5865 1.5318C38.598 1.41573 38.7252 1.42732 38.8062 1.42732L40.8008 1.43313Z" fill="#999EAB"/>
<path d="M52.3642 17.4333C52.9077 17.5261 53.0811 17.915 53.2314 18.3212C53.2835 18.4721 53.3413 18.6172 53.3991 18.7623C53.5726 19.2033 53.7113 19.2788 54.1681 19.1743C54.2606 19.4587 54.1276 19.6038 53.8674 19.6676C52.9771 19.894 52.5434 19.6676 52.3295 18.9364C52.2486 18.6636 52.1561 18.4025 52.0636 18.1355C52.0219 17.9944 51.9418 17.8677 51.8323 17.7699C51.7949 17.7331 51.7483 17.7072 51.6974 17.6949C51.6464 17.6826 51.5932 17.6845 51.5432 17.7002C51.4565 17.7409 51.497 17.8511 51.497 17.9266C51.497 18.2806 51.497 18.6346 51.497 18.9886C51.497 19.1743 51.5432 19.2904 51.7282 19.331C51.9132 19.3716 51.9364 19.4065 51.919 19.5574C51.9017 19.7083 51.7687 19.6734 51.682 19.6734H50.1845C50.1036 19.6734 49.988 19.7256 49.959 19.5806C49.9301 19.4355 49.959 19.36 50.1267 19.3368C50.2944 19.3136 50.3927 19.1569 50.3927 18.948C50.3927 18.0136 50.3927 17.0735 50.3927 16.1391C50.3927 15.9186 50.3464 15.7677 50.1094 15.7329C49.9764 15.7329 49.9475 15.6284 49.959 15.5065C49.9706 15.3846 50.0805 15.4137 50.1498 15.4137H51.7456C51.8265 15.4137 51.9132 15.4137 51.919 15.5355C51.9248 15.6574 51.919 15.7155 51.8034 15.7271C51.4854 15.7677 51.4854 15.9882 51.497 16.232C51.5085 16.4757 51.497 16.7717 51.497 17.0444C51.497 17.2011 51.5606 17.236 51.6993 17.2302C51.8317 17.2283 51.9598 17.183 52.0642 17.1013C52.1686 17.0196 52.2435 16.9059 52.2775 16.7775C52.4047 16.4583 52.5087 16.1275 52.6533 15.8199C52.7284 15.6336 52.8706 15.4824 53.0516 15.3963C53.2326 15.3103 53.4392 15.2958 53.6304 15.3556C53.7128 15.3796 53.788 15.4236 53.8494 15.4838C53.9107 15.5439 53.9563 15.6184 53.9821 15.7006C54.0078 15.7827 54.013 15.87 53.997 15.9546C53.981 16.0392 53.9445 16.1185 53.8906 16.1855C53.866 16.2263 53.8329 16.2611 53.7934 16.2876C53.754 16.314 53.7093 16.3315 53.6624 16.3387C53.6155 16.3459 53.5677 16.3426 53.5222 16.3292C53.4767 16.3158 53.4347 16.2925 53.3991 16.261C53.191 16.0811 53.0638 16.1739 52.9655 16.3654C52.9034 16.4967 52.8512 16.6325 52.8094 16.7717C52.7507 17.0412 52.5914 17.278 52.3642 17.4333Z" fill="#999EAB"/>
<path d="M55.5502 24.7863C55.8278 24.0725 56.1284 23.3645 56.377 22.6449C56.4348 22.4882 56.4984 22.4301 56.6603 22.4359C56.9494 22.4359 57.2385 22.4359 57.5333 22.4359C57.6143 22.4359 57.7068 22.4359 57.7183 22.5462C57.7299 22.6565 57.6894 22.7203 57.5912 22.7319C57.3541 22.7609 57.3715 22.935 57.3772 23.1033C57.3772 23.8926 57.4293 24.6877 57.4466 25.477C57.4466 25.6453 57.4986 25.7613 57.6721 25.7904C57.6956 25.7915 57.7186 25.7978 57.7395 25.8088C57.7604 25.8197 57.7786 25.8352 57.7929 25.854C57.8072 25.8727 57.8173 25.8944 57.8224 25.9175C57.8275 25.9406 57.8275 25.9646 57.8224 25.9877C57.8224 26.1386 57.6894 26.0921 57.6085 26.0921H56.4117C56.3192 26.0921 56.192 26.1386 56.1689 25.9761C56.1457 25.8136 56.2382 25.8136 56.3365 25.7904C56.4348 25.7671 56.5389 25.6453 56.5389 25.4886C56.5389 24.9082 56.5389 24.3279 56.5389 23.7475H56.429L55.8509 25.1636C55.741 25.448 55.6254 25.7439 55.5329 26.0109C55.4809 26.1792 55.371 26.1676 55.2496 26.1792C55.1282 26.1908 55.0646 26.1212 55.0183 25.9935C54.735 25.2564 54.4402 24.5252 54.1395 23.7765C54.0123 23.8636 54.0528 23.9739 54.047 24.0667C54.047 24.5368 54.047 25.0069 54.047 25.477C54.047 25.6569 54.047 25.7845 54.2551 25.8194C54.4633 25.8542 54.3823 25.9064 54.3823 25.9993C54.3823 26.0921 54.284 26.1153 54.2031 26.1153H53.5151C53.4399 26.1153 53.3359 26.156 53.3127 26.0283C53.2896 25.9006 53.3127 25.8426 53.4284 25.8136C53.544 25.7846 53.6192 25.6279 53.6249 25.4712C53.6249 24.6877 53.6828 23.91 53.7117 23.1498C53.7117 22.9757 53.7117 22.8132 53.492 22.7783C53.3937 22.7783 53.359 22.6913 53.3648 22.5926C53.3706 22.494 53.4746 22.4882 53.5498 22.4824H54.4864C54.6136 22.4824 54.6483 22.5288 54.6945 22.6507C54.9605 23.3819 55.2438 24.1073 55.5155 24.8328L55.5502 24.7863Z" fill="#999EAB"/>
<path d="M36.407 1.43359C36.8753 1.43359 37.3436 1.43359 37.8119 1.43359C38.0258 1.43359 38.0778 1.50323 38.0663 1.70055C38.0547 1.89787 38.0663 2.15904 38.0663 2.38537C38.0663 2.48984 38.0663 2.60589 37.9275 2.60589C37.7888 2.60589 37.702 2.60589 37.6442 2.44339C37.602 2.32625 37.5366 2.21886 37.4521 2.12759C37.3676 2.03632 37.2657 1.96306 37.1524 1.91216C37.0391 1.86126 36.9168 1.83376 36.7927 1.83131C36.6686 1.82885 36.5453 1.85148 36.4301 1.89787C36.4009 1.90605 36.3759 1.92488 36.3598 1.95064C36.3438 1.97641 36.3379 2.00727 36.3434 2.03716C36.3434 2.41439 36.3434 2.79161 36.3434 3.16304C36.3434 3.2617 36.3954 3.29072 36.4821 3.29072C36.7654 3.29072 37.0603 3.34294 37.147 2.9541C37.1817 2.79741 37.2915 2.84385 37.3898 2.83804C37.4881 2.83224 37.5344 2.92508 37.5344 3.02374C37.5344 3.36615 37.5344 3.70855 37.5344 4.05676C37.5344 4.14381 37.5344 4.25408 37.413 4.25408C37.2916 4.25408 37.1817 4.2831 37.1528 4.1148C37.1239 3.9465 37.0603 3.77821 36.8232 3.7608C36.3491 3.72597 36.3491 3.71436 36.3491 4.20185C36.3491 4.463 36.3491 4.72417 36.3491 4.98532C36.3491 5.15362 36.4069 5.24067 36.5862 5.23487C36.7654 5.22906 36.9562 5.23487 37.1643 5.23487C37.4708 5.23487 37.6153 5.03175 37.7425 4.7706C37.7888 4.65453 37.7946 4.50364 37.9911 4.50364C38.1877 4.50364 38.2339 4.54426 38.1993 4.72997C38.1646 4.91568 38.1125 5.2639 38.0836 5.53666C38.0836 5.66434 38.0142 5.71076 37.887 5.71076H34.9962C34.9269 5.71076 34.8344 5.73978 34.8286 5.62371C34.8228 5.50764 34.8286 5.42058 34.9384 5.40317C35.2737 5.36255 35.2564 5.1246 35.2564 4.87505C35.2564 3.98132 35.2564 3.08178 35.2564 2.18804C35.2564 1.97911 35.2564 1.81663 34.9905 1.78181C34.9642 1.78101 34.9384 1.77423 34.9152 1.76197C34.8919 1.74971 34.8717 1.73229 34.8561 1.71105C34.8405 1.68981 34.8299 1.66529 34.8251 1.63934C34.8204 1.61339 34.8216 1.5867 34.8286 1.56127C34.8286 1.41038 34.9558 1.451 35.0367 1.451L36.407 1.43359Z" fill="#999EAB"/>
<path d="M67.3508 1.43374C67.8133 1.43374 68.2701 1.43374 68.7268 1.43374C68.9176 1.43374 69.0101 1.47436 68.9928 1.68909C68.9754 1.90382 68.9928 2.17078 68.9928 2.40872C68.9928 2.52479 68.9928 2.61184 68.8251 2.61184C68.6574 2.61184 68.5996 2.61184 68.5649 2.46095C68.5302 2.31006 68.4782 2.03731 68.2527 1.95026C67.9496 1.87962 67.6363 1.86388 67.3277 1.90382C67.2294 1.90382 67.2525 2.01408 67.2525 2.08372C67.2525 2.42613 67.2525 2.76855 67.2525 3.11095C67.2525 3.25024 67.2988 3.29665 67.4317 3.29665C67.7035 3.29665 68.0099 3.32567 68.0619 2.95425C68.0966 2.77434 68.2354 2.84399 68.3394 2.83819C68.4435 2.83238 68.4435 2.94844 68.4435 3.02389C68.4435 3.35468 68.4435 3.69129 68.4435 4.02209C68.4435 4.10914 68.5071 4.24842 68.3279 4.25422C68.1486 4.26002 68.085 4.25423 68.0619 4.08593C68.059 4.00066 68.024 3.91966 67.9639 3.85932C67.9038 3.79899 67.8231 3.76383 67.7382 3.76094C67.2641 3.72032 67.2641 3.71451 67.2641 4.1962V4.97966C67.2641 5.08992 67.2641 5.18279 67.397 5.22341C67.5177 5.26965 67.6463 5.29129 67.7753 5.28706C67.9043 5.28284 68.0312 5.25283 68.1486 5.19879C68.2659 5.14476 68.3714 5.06778 68.4588 4.97236C68.5461 4.87694 68.6137 4.76499 68.6574 4.64306C68.7326 4.46896 68.854 4.49218 68.9812 4.50378C69.1084 4.51539 69.0737 4.66627 69.0622 4.74752C69.0275 5.05511 69.0621 5.44975 68.8887 5.64126C68.7152 5.83278 68.3105 5.69349 68.0214 5.69349C67.3334 5.69349 66.6454 5.69349 65.9632 5.69349C65.8822 5.69349 65.7608 5.75153 65.7319 5.60644C65.7228 5.57873 65.7204 5.54926 65.7248 5.52042C65.7291 5.49158 65.7402 5.46419 65.7571 5.44046C65.774 5.41672 65.7962 5.39731 65.822 5.3838C65.8478 5.37029 65.8763 5.36305 65.9054 5.36269C66.1077 5.33367 66.154 5.2002 66.154 5.00868C66.154 4.04531 66.154 3.08773 66.154 2.10694C66.154 1.91543 66.1135 1.77615 65.9054 1.74713C65.8763 1.74677 65.8478 1.73953 65.822 1.72602C65.7962 1.71251 65.774 1.6931 65.7571 1.66936C65.7402 1.64562 65.7291 1.61824 65.7248 1.5894C65.7204 1.56056 65.7228 1.53109 65.7319 1.50338C65.7319 1.35829 65.8765 1.41052 65.9632 1.41052C66.4199 1.43373 66.8825 1.43374 67.3508 1.43374Z" fill="#999EAB"/>
<path d="M67.7896 24.1658C67.9555 24.2022 68.108 24.2846 68.2296 24.4036C68.3512 24.5226 68.4372 24.6734 68.4776 24.839C68.547 25.0363 68.6222 25.2279 68.7031 25.4194C68.7322 25.5098 68.7924 25.5868 68.8729 25.6368C68.9534 25.6868 69.0489 25.7064 69.1425 25.6921C69.1945 25.6921 69.2928 25.5935 69.3102 25.727C69.3275 25.8604 69.3506 25.9243 69.235 26.0055C69.1155 26.0873 68.9793 26.1412 68.8364 26.1634C68.6935 26.1855 68.5475 26.1754 68.4089 26.1337C68.2704 26.092 68.143 26.0198 68.0358 25.9223C67.9287 25.8248 67.8445 25.7045 67.7896 25.5703C67.6913 25.2975 67.5988 25.0248 67.5005 24.7462C67.4727 24.6238 67.3979 24.5175 67.2924 24.4502C67.1767 24.3864 67.038 24.3573 67.038 24.5663V25.5703C67.038 25.7154 67.1363 25.7676 67.2461 25.7966C67.2692 25.799 67.2914 25.8065 67.3113 25.8185C67.3311 25.8306 67.348 25.847 67.3607 25.8664C67.3734 25.8859 67.3817 25.908 67.3849 25.931C67.3881 25.9541 67.3861 25.9775 67.3791 25.9997C67.3791 26.1042 67.2808 26.0926 67.2114 26.0926H65.9048C65.8181 26.0926 65.7255 26.0926 65.7198 25.9765C65.7156 25.9561 65.7158 25.9351 65.7205 25.9148C65.7251 25.8945 65.734 25.8755 65.7466 25.859C65.7592 25.8425 65.7752 25.8289 65.7936 25.8191C65.8119 25.8093 65.832 25.8036 65.8527 25.8024C66.0435 25.7676 66.0782 25.6399 66.0782 25.46C66.0782 24.6591 66.0782 23.8524 66.0782 23.0516C66.0782 22.8891 66.0782 22.7614 65.8643 22.7324C65.8408 22.7311 65.8179 22.7243 65.7974 22.7125C65.777 22.7008 65.7596 22.6843 65.7467 22.6646C65.7337 22.6448 65.7256 22.6222 65.7229 22.5987C65.7203 22.5752 65.7231 22.5514 65.7313 22.5293C65.7602 22.4074 65.8585 22.4422 65.9337 22.4422H67.1825C67.2577 22.4422 67.3618 22.4016 67.3791 22.5293C67.3861 22.5519 67.388 22.5758 67.3845 22.5993C67.381 22.6227 67.3722 22.6451 67.3588 22.6646C67.3455 22.6842 67.3279 22.7004 67.3074 22.7122C67.2868 22.7239 67.2639 22.7308 67.2403 22.7324C67.0553 22.7672 67.0264 22.8949 67.0322 23.0574C67.038 23.2199 67.0322 23.4984 67.0322 23.7132C67.0322 23.9279 67.1478 24.0788 67.4138 23.9569C67.4882 23.9181 67.5542 23.8647 67.6078 23.7999C67.6614 23.7351 67.7016 23.6603 67.726 23.5797C67.8185 23.3301 67.8994 23.069 68.0093 22.8252C68.071 22.6676 68.1858 22.5366 68.3336 22.455C68.4814 22.3734 68.653 22.3463 68.8187 22.3784C68.8909 22.3909 68.9588 22.421 69.0166 22.4662C69.0743 22.5113 69.1201 22.5701 69.1498 22.6372C69.1795 22.7044 69.1923 22.7778 69.187 22.8511C69.1817 22.9244 69.1585 22.9953 69.1194 23.0574C69.0153 23.2257 68.8534 23.3243 68.68 23.1851C68.5065 23.0458 68.3446 23.156 68.2695 23.3359C68.1481 23.6203 68.1076 23.9453 67.7896 24.1658Z" fill="#999EAB"/>
<path d="M53.769 1.43303C54.3183 1.43303 54.8733 1.43303 55.4226 1.43303C55.596 1.43303 55.6596 1.48527 55.6481 1.65938C55.6481 1.95536 55.6481 2.23971 55.6481 2.53569C55.6481 2.63435 55.6481 2.73881 55.5151 2.73301C55.3821 2.7272 55.278 2.77945 55.2491 2.59954C55.2334 2.50742 55.2122 2.41633 55.1855 2.32678C55.1422 2.16975 55.0391 2.03611 54.8985 1.95469C54.7579 1.87326 54.591 1.85057 54.4339 1.89151C54.3067 1.92053 54.3241 2.00177 54.3241 2.08302C54.3241 3.08122 54.3241 4.08523 54.3241 5.08343C54.3241 5.28075 54.4397 5.32716 54.59 5.36198C54.7404 5.39681 54.8444 5.41423 54.8155 5.59414C54.7866 5.77405 54.6363 5.6986 54.5438 5.6986C54.0234 5.6986 53.5031 5.6986 52.9827 5.6986C52.896 5.6986 52.7573 5.76823 52.7341 5.59993C52.711 5.43163 52.7804 5.38521 52.9191 5.3736C53.1793 5.3736 53.2198 5.19368 53.214 4.96154C53.214 4.07361 53.214 3.19149 53.214 2.30356C53.214 2.17008 53.3239 1.94955 53.1099 1.90892C52.9905 1.8696 52.8615 1.87042 52.7426 1.91126C52.6237 1.9521 52.5212 2.03073 52.4508 2.13525C52.3931 2.25676 52.3523 2.38564 52.3294 2.51828C52.3284 2.55212 52.32 2.58532 52.3049 2.61557C52.2898 2.64582 52.2682 2.67238 52.2418 2.69339C52.2154 2.7144 52.1847 2.72936 52.1519 2.73721C52.1191 2.74505 52.0849 2.7456 52.0519 2.73882C51.838 2.73882 51.8958 2.58793 51.8958 2.47186C51.8958 2.14106 51.7859 1.7116 51.9478 1.50848C52.1097 1.30536 52.5722 1.45045 52.9018 1.43884C53.2313 1.42724 53.4742 1.43303 53.769 1.43303Z" fill="#999EAB"/>
<path d="M77.9876 1.46872C77.9876 1.76469 77.9876 2.04906 77.9876 2.35665C77.9876 2.66423 77.9298 2.78612 77.6233 2.71067C77.5771 2.54817 77.5482 2.37986 77.4904 2.22897C77.4172 2.10356 77.3056 2.00527 77.1722 1.94879C77.0389 1.8923 76.8908 1.88064 76.7503 1.91558C76.6462 1.9562 76.6751 2.03166 76.6751 2.0955C76.6751 3.09951 76.6751 4.0977 76.6751 5.1017C76.6751 5.29902 76.7966 5.34544 76.9411 5.38026C77.0856 5.41508 77.1955 5.4325 77.1666 5.61241C77.1377 5.79232 76.9873 5.71687 76.8948 5.71687C76.3745 5.71687 75.8542 5.71687 75.3338 5.71687C75.2471 5.71687 75.1141 5.7865 75.0852 5.6182C75.0563 5.4499 75.1314 5.40927 75.2702 5.39767C75.5304 5.39767 75.5709 5.21776 75.5709 4.98563C75.5709 4.09769 75.5709 3.20977 75.5709 2.32764C75.5709 2.19416 75.7154 1.95621 75.4494 1.92139C75.3229 1.88591 75.1881 1.89476 75.0673 1.94645C74.9464 1.99814 74.8467 2.08958 74.7846 2.20575C74.7389 2.31088 74.7096 2.42247 74.6978 2.53656C74.6689 2.72807 74.5649 2.76869 74.3914 2.75128C74.218 2.73387 74.2584 2.59459 74.2642 2.49593C74.2642 2.15932 74.1139 1.70086 74.3278 1.50935C74.5417 1.31783 74.958 1.45712 75.2876 1.45712L77.9876 1.46872Z" fill="#999EAB"/>
<path d="M49.2025 10.359L49.428 10.4228C49.6321 10.4736 49.8157 10.586 49.9542 10.7447C50.0927 10.9035 50.1794 11.101 50.2028 11.3107C50.2401 11.5406 50.2044 11.7765 50.1006 11.9849C49.9968 12.1932 49.8303 12.3635 49.6246 12.4714C49.2565 12.6677 48.8505 12.7818 48.4343 12.8059C48.0182 12.8299 47.6018 12.7633 47.2137 12.6107C47.1154 12.5817 47.1212 12.5062 47.1212 12.4366V11.5951C47.1212 11.5138 47.1212 11.4152 47.2368 11.4268C47.3524 11.4384 47.4738 11.3688 47.5259 11.5313C47.5779 11.6937 47.6242 11.8272 47.682 11.9723C47.7261 12.0899 47.8053 12.1909 47.9088 12.2616C48.0123 12.3322 48.135 12.369 48.2601 12.367C48.3918 12.3767 48.5232 12.345 48.6361 12.2764C48.749 12.2077 48.8379 12.1055 48.8903 11.9839C48.9776 11.8165 49.0188 11.6287 49.0096 11.44C49.0005 11.2513 48.9413 11.0684 48.8383 10.9103C48.7473 10.7878 48.6197 10.6976 48.4742 10.6527C48.3287 10.6079 48.1727 10.6107 48.0289 10.6607C47.9075 10.6897 47.8092 10.6607 47.8381 10.5273C47.867 10.3938 47.7456 10.2313 47.9768 10.2139H48.0983C48.8614 10.2951 48.925 9.767 48.8556 9.22148C48.8421 9.11101 48.7899 9.00895 48.7083 8.9335C48.6268 8.85804 48.5213 8.81407 48.4105 8.80942C48.2925 8.78348 48.1694 8.79529 48.0584 8.84317C47.9475 8.89105 47.8542 8.97261 47.7918 9.07639C47.7291 9.20615 47.6807 9.34235 47.6473 9.48262C47.6068 9.65092 47.4854 9.6045 47.3756 9.61611C47.2657 9.62772 47.231 9.53486 47.231 9.43039V8.61791C47.231 8.53666 47.231 8.4496 47.3524 8.44379C47.8985 8.36844 48.4514 8.35675 49.0002 8.40898C49.5783 8.51924 49.9021 8.79201 49.9773 9.23308C50.0524 9.67414 49.8501 10.0282 49.324 10.3183C49.2841 10.3338 49.2436 10.3473 49.2025 10.359Z" fill="#999EAB"/>
<path d="M48.0392 17.5322C48.2531 17.0621 48.4497 16.6385 48.6173 16.209C48.7156 15.9769 48.6925 15.7738 48.3861 15.7273C48.2589 15.7273 48.2415 15.6287 48.2473 15.5242C48.2531 15.4197 48.3456 15.4081 48.4265 15.4081H49.473C49.5482 15.4081 49.6465 15.3791 49.658 15.5126C49.6696 15.6461 49.658 15.6867 49.5597 15.7157C49.3169 15.7738 49.2302 15.9769 49.1377 16.1742C48.6867 17.1492 48.2338 18.1164 47.779 19.0759C47.7129 19.2998 47.5661 19.4909 47.3673 19.6121C47.1686 19.7333 46.932 19.776 46.7036 19.7317C46.621 19.72 46.5425 19.6885 46.4746 19.6399C46.4067 19.5912 46.3515 19.527 46.3135 19.4525C46.2755 19.3779 46.2559 19.2953 46.2564 19.2116C46.2569 19.1279 46.2774 19.0456 46.3162 18.9715C46.3385 18.9113 46.376 18.8579 46.425 18.8166C46.474 18.7753 46.5328 18.7475 46.5957 18.7358C46.6586 18.7241 46.7234 18.729 46.7839 18.7499C46.8443 18.7709 46.8984 18.8072 46.9406 18.8554C47.0621 18.9947 47.1835 19.0237 47.3165 18.9193C47.4494 18.8148 47.5477 18.6871 47.4552 18.5188C46.9927 17.6483 46.5244 16.7778 46.0561 15.9131C46.0277 15.8623 45.9888 15.8184 45.9418 15.7843C45.8949 15.7503 45.8412 15.7268 45.7843 15.7157C45.6629 15.7157 45.6456 15.6171 45.6514 15.5126C45.6571 15.4081 45.7554 15.4081 45.8306 15.4023H47.4205C47.4899 15.4023 47.5766 15.4023 47.5882 15.4952C47.5998 15.5881 47.5882 15.6925 47.4726 15.7099C47.1546 15.7622 47.2182 15.9363 47.328 16.1394L48.0392 17.5322Z" fill="#999EAB"/>
<path d="M63.2914 24.2356C63.2694 24.6112 63.3536 24.9853 63.5342 25.315C63.6126 25.4647 63.7323 25.5885 63.8788 25.6719C64.0254 25.7552 64.1928 25.7945 64.361 25.7851C64.5127 25.7705 64.6565 25.71 64.7732 25.6115C64.8899 25.5131 64.974 25.3813 65.0143 25.2338L65.0721 25.0887C65.1299 24.9378 65.2571 24.9726 65.3612 24.9958C65.4653 25.019 65.4248 25.1293 65.4132 25.1989C65.3554 25.4369 65.4421 25.7793 65.2629 25.9012C64.9199 26.0835 64.5349 26.1716 64.1471 26.1565C63.9015 26.1728 63.6553 26.1374 63.4242 26.0524C63.1931 25.9675 62.9823 25.8349 62.8053 25.6633C62.6283 25.4917 62.4891 25.2847 62.3965 25.0558C62.304 24.8269 62.2602 24.5811 62.268 24.3342C62.2556 24.0887 62.2915 23.8432 62.3737 23.6117C62.4559 23.3802 62.5829 23.1672 62.7472 22.985C62.9115 22.8028 63.1101 22.6549 63.3314 22.5498C63.5528 22.4447 63.7926 22.3845 64.0372 22.3726C64.4295 22.3513 64.8222 22.4065 65.1935 22.5351C65.2398 22.5351 65.3034 22.5351 65.3092 22.6164C65.3439 22.9066 65.3728 23.1967 65.3959 23.4869C65.3959 23.5507 65.3381 23.5623 65.286 23.5623C65.234 23.5623 65.1126 23.5972 65.0663 23.4927L64.9623 23.2315C64.92 23.1047 64.8437 22.992 64.7417 22.906C64.6396 22.82 64.5159 22.7639 64.3841 22.7441C64.2332 22.7241 64.0798 22.7467 63.941 22.8092C63.8021 22.8717 63.6833 22.9717 63.5978 23.0981C63.3819 23.4367 63.275 23.8338 63.2914 24.2356Z" fill="#999EAB"/>
<path d="M31.5969 24.2815C31.5969 24.6704 31.5969 25.0534 31.5969 25.4422C31.5969 25.6337 31.6316 25.7672 31.8397 25.7963C31.9496 25.7963 32.0189 25.8543 32.0074 25.9762C31.9958 26.098 31.8802 26.0922 31.7935 26.0922H30.481C30.4059 26.0922 30.3076 26.127 30.2902 25.9994C30.2729 25.8717 30.2902 25.8195 30.4232 25.7963C30.5562 25.773 30.6603 25.6396 30.6545 25.4539C30.6545 24.6646 30.6545 23.8695 30.6545 23.0802C30.6545 22.9061 30.6545 22.7668 30.4348 22.7378C30.4107 22.7371 30.3871 22.7308 30.3659 22.7195C30.3446 22.7081 30.3263 22.6919 30.3123 22.6723C30.2983 22.6526 30.289 22.6299 30.2852 22.6061C30.2814 22.5822 30.2831 22.5578 30.2902 22.5347C30.2902 22.407 30.4059 22.4418 30.481 22.4418H32.7937C32.9324 22.4418 33.0076 22.4418 33.0018 22.6275C33.0018 22.8771 33.0018 23.1266 33.0018 23.3762C33.0018 23.4632 33.0018 23.5503 32.8804 23.5503C32.759 23.5503 32.6896 23.5503 32.6376 23.4168C32.4121 22.8365 32.3601 22.8365 31.7703 22.8365C31.62 22.8365 31.568 22.8887 31.5738 23.0338C31.6027 23.4516 31.5969 23.8695 31.5969 24.2815Z" fill="#999EAB"/>
<path d="M77.0584 22.4365H77.6829C77.758 22.4365 77.8563 22.4365 77.8736 22.541C77.8788 22.5608 77.8798 22.5815 77.8767 22.6017C77.8736 22.622 77.8664 22.6414 77.8556 22.6588C77.8448 22.6762 77.8306 22.6911 77.8138 22.7028C77.797 22.7145 77.778 22.7226 77.758 22.7267C77.5325 22.7673 77.5267 22.9182 77.5267 23.0981C77.5267 23.87 77.5267 24.6418 77.5267 25.4195C77.5267 25.611 77.5267 25.7793 77.7638 25.8199C77.8794 25.8199 77.8794 25.9244 77.8736 26.0115C77.8679 26.0985 77.7754 26.1043 77.706 26.1043H76.3993C76.3126 26.1043 76.2201 26.1043 76.2085 25.9941C76.197 25.8838 76.2085 25.8316 76.3357 25.8142C76.5497 25.7793 76.567 25.6284 76.567 25.4485C76.567 24.6651 76.567 23.8874 76.567 23.1271C76.567 22.953 76.567 22.7905 76.3357 22.7615C76.2374 22.7615 76.2085 22.6687 76.2143 22.5758C76.2201 22.4829 76.3242 22.4771 76.4051 22.4713L77.0584 22.4365Z" fill="#999EAB"/>
<path d="M77.5607 12.3617C77.3352 12.3268 77.2947 12.1818 77.3005 11.9787C77.3005 11.0443 77.3005 10.1041 77.3005 9.16396C77.3005 8.94923 77.3352 8.80414 77.5722 8.76352C77.598 8.76188 77.6231 8.75447 77.6456 8.74186C77.6682 8.72924 77.6877 8.71174 77.7027 8.6906C77.7176 8.66947 77.7277 8.64525 77.7321 8.61971C77.7366 8.59417 77.7353 8.56796 77.7283 8.54298C77.7283 8.39209 77.6069 8.42692 77.5202 8.42112L75.4908 8.3979C75.2077 8.39122 74.9281 8.4614 74.6814 8.60102C74.4791 8.71074 74.3171 8.88266 74.2193 9.09156C74.1215 9.30046 74.093 9.53535 74.1379 9.76172C74.1613 9.96464 74.2458 10.1556 74.3801 10.309C74.5144 10.4625 74.6921 10.5712 74.8895 10.6206C74.9647 10.6206 75.0514 10.6206 75.0977 10.7135C74.9626 10.7577 74.8398 10.8333 74.7393 10.9341C74.6388 11.035 74.5635 11.1582 74.5195 11.2938C74.4444 11.4737 74.375 11.6594 74.2998 11.8394C74.1264 12.2514 74.0165 12.3036 73.5713 12.1934C73.5713 12.3327 73.502 12.4778 73.6465 12.5938C73.7791 12.6821 73.9285 12.7419 74.0853 12.7695C74.242 12.7971 74.4027 12.792 74.5574 12.7544C74.7121 12.7169 74.8574 12.6476 74.9841 12.5511C75.1109 12.4545 75.2165 12.3328 75.2943 12.1934C75.4215 11.8742 75.514 11.5434 75.6296 11.2184C75.656 11.086 75.7275 10.9669 75.832 10.8818C75.8712 10.846 75.9188 10.8208 75.9704 10.8087C76.022 10.7965 76.0758 10.7977 76.1268 10.8121C76.2425 10.8528 76.1904 10.9688 76.1904 11.0559C76.1904 11.3751 76.1904 11.7001 76.1904 12.0251C76.1904 12.205 76.1442 12.3269 75.9534 12.3559C75.7626 12.3849 75.751 12.4545 75.7741 12.5938C75.7973 12.7331 75.9129 12.6983 75.9938 12.6983H77.4913C77.5838 12.6983 77.711 12.7447 77.7283 12.5764C77.7344 12.5509 77.7347 12.5243 77.7291 12.4987C77.7236 12.4731 77.7123 12.449 77.6962 12.4284C77.6801 12.4077 77.6595 12.391 77.636 12.3794C77.6126 12.3679 77.5868 12.3618 77.5607 12.3617ZM75.8609 10.3421C75.381 10.284 75.1497 9.94742 75.2191 9.39029C75.2232 9.29752 75.2478 9.20684 75.2911 9.12478C75.3344 9.04273 75.3953 8.97135 75.4695 8.91581C75.5436 8.86028 75.6291 8.82198 75.7198 8.80367C75.8105 8.78536 75.9041 8.78749 75.9938 8.80994C76.1615 8.80994 76.202 8.89699 76.1904 9.04788C76.1788 9.19877 76.1904 9.41931 76.1904 9.62823C76.1817 9.76351 76.1817 9.89921 76.1904 10.0345C76.2367 10.3189 76.1037 10.3711 75.8609 10.3421Z" fill="#999EAB"/>
<path d="M34.4421 5.49623C34.4421 5.29311 34.3843 5.20605 34.1761 5.23506C33.968 5.26408 33.887 5.14221 33.887 4.92748C33.887 3.99892 33.887 3.07037 33.887 2.14182C33.887 1.9503 33.9275 1.81102 34.1357 1.782C34.1647 1.78164 34.1933 1.77442 34.219 1.76091C34.2448 1.7474 34.267 1.72799 34.2839 1.70425C34.3008 1.68051 34.3119 1.65311 34.3163 1.62427C34.3206 1.59543 34.3182 1.56596 34.3091 1.53825C34.3091 1.39897 34.1646 1.44539 34.0836 1.44539C33.5748 1.44539 33.0661 1.44539 32.5515 1.44539C32.0369 1.44539 31.5339 1.44539 31.0251 1.44539C30.9384 1.44539 30.8054 1.37576 30.7823 1.54987C30.7592 1.72397 30.8343 1.76459 30.9847 1.7936C31.0502 1.79654 31.1146 1.81263 31.1739 1.84094C31.2332 1.86925 31.2862 1.90921 31.3299 1.95844C31.3735 2.00767 31.4069 2.06518 31.4281 2.12758C31.4492 2.18997 31.4577 2.25598 31.453 2.32172C31.4555 3.19949 31.243 4.06442 30.8343 4.84043C30.7245 5.03195 30.6089 5.22346 30.3487 5.24087C30.2099 5.24087 30.2331 5.35695 30.2331 5.444C30.2331 5.80381 30.2331 6.15782 30.2331 6.51184C30.2331 6.6163 30.1637 6.77299 30.3834 6.77879C30.6031 6.7846 30.6782 6.77879 30.7129 6.55826C30.7476 6.33772 30.7939 6.27969 30.8286 6.14041C30.8486 6.00614 30.9205 5.88522 31.0287 5.80376C31.1369 5.7223 31.2727 5.68687 31.4067 5.70514C31.8635 5.70514 32.326 5.70514 32.7828 5.70514C33.6789 5.70514 33.6673 5.55426 33.9391 6.56407C33.9418 6.58332 33.9418 6.60285 33.9391 6.6221C33.9796 6.83103 34.1414 6.75558 34.2629 6.76719C34.3843 6.7788 34.4074 6.65692 34.4074 6.55826C34.4421 6.21585 34.4421 5.86185 34.4421 5.49623ZM32.777 2.28109C32.777 3.18063 32.777 4.07437 32.777 4.96811C32.777 5.19444 32.7134 5.25248 32.4995 5.24087C32.0832 5.24087 31.6727 5.24087 31.2044 5.24087C31.6567 4.38531 31.9153 3.44007 31.9618 2.47262C31.9618 2.29851 31.9618 2.107 32.1294 1.98513C32.2146 1.93092 32.3113 1.89744 32.4117 1.88736C32.512 1.87729 32.6134 1.89089 32.7076 1.92709C32.8637 1.97932 32.7828 2.17084 32.7828 2.29271L32.777 2.28109Z" fill="#999EAB"/>
<path d="M58.233 10.3943L58.0885 10.3246L58.3024 10.226C58.4795 10.1492 58.6277 10.0179 58.7254 9.85091C58.8232 9.68395 58.8653 9.49006 58.8459 9.2974C58.8336 9.10235 58.758 8.91672 58.6306 8.76892C58.5032 8.62113 58.331 8.51934 58.1405 8.47912C57.9531 8.42297 57.7579 8.39749 57.5623 8.40367H55.6255C55.5446 8.40367 55.4289 8.36305 55.4058 8.50813C55.3968 8.53539 55.3943 8.56435 55.3984 8.59275C55.4024 8.62116 55.413 8.64823 55.4292 8.67185C55.4455 8.69547 55.467 8.715 55.492 8.72888C55.517 8.74276 55.5449 8.75062 55.5735 8.75187C55.8047 8.78669 55.8336 8.93178 55.8336 9.1349C55.8336 10.0519 55.8336 10.9688 55.8336 11.8858C55.8336 12.1295 55.8336 12.321 55.5272 12.3616C55.4116 12.3616 55.3942 12.4719 55.4058 12.5764C55.4174 12.6808 55.4925 12.6808 55.5677 12.6808C56.3771 12.6808 57.1865 12.7331 57.996 12.646C58.268 12.6233 58.5241 12.5078 58.7218 12.3189C58.9195 12.1299 59.0469 11.8788 59.0829 11.6072C59.1078 11.4714 59.1055 11.332 59.076 11.1971C59.0466 11.0622 58.9907 10.9346 58.9116 10.8217C58.8324 10.7087 58.7317 10.6128 58.6152 10.5394C58.4987 10.466 58.3687 10.4167 58.233 10.3943ZM57.0247 8.85634C57.1198 8.81481 57.2248 8.80148 57.3273 8.81793C57.4297 8.83438 57.5253 8.87994 57.6028 8.9492C57.7062 9.05873 57.7751 9.19645 57.8008 9.34513C57.8266 9.4938 57.8079 9.6468 57.7474 9.78491C57.7104 9.90629 57.6325 10.0109 57.527 10.0809C57.4214 10.1508 57.2949 10.1816 57.1692 10.1679C56.9784 10.1679 56.909 10.1215 56.9322 9.92999C56.9553 9.73848 56.9322 9.65722 56.9322 9.52374C56.9235 9.41946 56.9235 9.31463 56.9322 9.21035C56.99 9.09428 56.8512 8.91438 57.0247 8.85634ZM57.9439 11.6478C57.936 11.7391 57.9089 11.8277 57.8645 11.9077C57.8201 11.9877 57.7593 12.0574 57.6861 12.1122C57.613 12.1671 57.5291 12.2057 57.44 12.2257C57.3509 12.2457 57.2586 12.2465 57.1692 12.2282C56.99 12.2282 56.9206 12.1353 56.9322 11.9496C56.9437 11.7639 56.9322 11.555 56.9322 11.3692V10.934C56.9322 10.5452 56.9322 10.5452 57.3369 10.5916C57.7416 10.638 58.0249 11.0268 57.9439 11.6478Z" fill="#999EAB"/>
<path d="M34.5747 10.371C34.5716 9.98896 34.4616 9.61552 34.2571 9.29329C34.0526 8.97106 33.762 8.71305 33.4184 8.54871C32.0655 7.93354 30.3773 8.69378 30.4004 10.371C30.361 10.7302 30.407 11.0937 30.5346 11.4317C30.6623 11.7696 30.8679 12.0724 31.1347 12.3152C31.4703 12.5816 31.8762 12.7439 32.3024 12.782C32.7287 12.8202 33.1567 12.7325 33.534 12.5299C33.8935 12.306 34.1822 11.9842 34.3664 11.602C34.5507 11.2198 34.6229 10.7929 34.5747 10.371ZM33.216 11.7348C33.1801 11.9056 33.0883 12.0595 32.9553 12.172C32.8223 12.2845 32.6556 12.3492 32.4818 12.3558C32.3091 12.3454 32.1444 12.2793 32.0121 12.1675C31.8798 12.0556 31.787 11.9039 31.7475 11.7348C31.6256 11.3603 31.567 10.968 31.5741 10.5741C31.5661 10.1815 31.6188 9.78992 31.7302 9.41342C31.7651 9.23792 31.8564 9.07875 31.9901 8.96031C32.1237 8.84186 32.2924 8.77066 32.4702 8.75762C32.6487 8.75735 32.8217 8.81991 32.9591 8.93443C33.0964 9.04895 33.1894 9.20819 33.2218 9.38441C33.4794 10.1469 33.4774 10.9736 33.216 11.7348Z" fill="#999EAB"/>
<path d="M53.8616 8.59508C53.5343 8.40839 53.1627 8.31429 52.7864 8.32279C52.41 8.33129 52.043 8.44206 51.7245 8.64334C51.4059 8.84462 51.1477 9.12885 50.9773 9.46578C50.8069 9.80271 50.7307 10.1797 50.7568 10.5567C50.7167 11.0492 50.8547 11.5398 51.1457 11.9384C51.4366 12.3371 51.861 12.6171 52.341 12.7272C52.6494 12.8113 52.973 12.822 53.2863 12.7584C53.5995 12.6948 53.8936 12.5586 54.1451 12.3608C54.3966 12.163 54.5987 11.9089 54.7352 11.6189C54.8716 11.3288 54.9388 11.0108 54.9312 10.6901C54.9849 10.2733 54.9115 9.84992 54.7205 9.47588C54.5295 9.10183 54.23 8.79471 53.8616 8.59508ZM53.5667 11.758C53.5245 11.9199 53.4314 12.0638 53.3012 12.1684C53.171 12.2729 53.0106 12.3325 52.844 12.3383C52.6762 12.3393 52.5132 12.2821 52.3826 12.1763C52.252 12.0706 52.1617 11.9228 52.1271 11.758C51.8437 10.9684 51.8437 10.1043 52.1271 9.31471C52.1664 9.15629 52.2582 9.016 52.3874 8.91687C52.5166 8.81774 52.6756 8.76567 52.8382 8.7692C53.0035 8.77296 53.1627 8.83214 53.2905 8.93732C53.4184 9.04251 53.5075 9.18763 53.5436 9.34954C53.6886 9.74092 53.7573 10.1566 53.7459 10.5741C53.7548 10.9761 53.6941 11.3767 53.5667 11.758Z" fill="#999EAB"/>
<path d="M38.6569 11.1017C38.5008 10.5214 38.0787 10.2602 37.3098 10.2196C37.0785 10.2196 36.7316 10.3415 36.6333 10.179C36.535 10.0165 36.5871 9.7031 36.5871 9.45355C36.5871 8.90222 36.5871 8.91963 37.1652 8.8732C37.6104 8.8732 37.9515 8.93124 38.0151 9.45355C38.0151 9.62185 38.1828 9.56962 38.2869 9.57542C38.3909 9.58122 38.4256 9.48836 38.4256 9.3897C38.4256 9.14015 38.4256 8.89062 38.4256 8.64107C38.4256 8.39152 38.3736 8.3915 38.1828 8.3915C37.7029 8.3915 37.2288 8.3915 36.749 8.3915H35.3151C35.2226 8.3915 35.1012 8.33347 35.0723 8.50177C35.0652 8.52922 35.0645 8.55794 35.0702 8.5857C35.0759 8.61347 35.0879 8.63956 35.1052 8.66197C35.1225 8.68437 35.1447 8.7025 35.17 8.71497C35.1954 8.72745 35.2233 8.73392 35.2515 8.73391C35.4596 8.77453 35.5059 8.90222 35.5001 9.09374C35.5001 9.99908 35.5001 10.9044 35.5001 11.8156C35.5001 12.0593 35.529 12.303 35.1879 12.3437C35.0896 12.3437 35.0665 12.4423 35.0723 12.5352C35.0781 12.6281 35.1243 12.6687 35.211 12.6629C36.04 12.7075 36.8712 12.6881 37.6971 12.6048C37.8656 12.5839 38.0274 12.5259 38.1711 12.4351C38.3147 12.3442 38.4367 12.2228 38.5283 12.0793C38.6199 11.9358 38.6789 11.7739 38.7012 11.6049C38.7234 11.436 38.7083 11.2642 38.6569 11.1017ZM37.038 12.2624C36.6738 12.3263 36.5871 12.2624 36.5813 11.8794V11.1017C36.5813 10.6897 36.8241 10.5214 37.2115 10.7071C37.3521 10.7963 37.4626 10.926 37.5286 11.0792C37.5946 11.2324 37.6131 11.4021 37.5815 11.566C37.5353 11.9839 37.3734 12.1928 37.038 12.2508V12.2624Z" fill="#999EAB"/>
<path d="M41.4603 8.39736C41.1076 8.39736 40.7549 8.39736 40.4023 8.39736H39.3442C39.2517 8.39736 39.1245 8.33933 39.1014 8.50763C39.0783 8.67593 39.165 8.72236 39.2864 8.73977C39.4946 8.78039 39.535 8.90806 39.5292 9.09958C39.5292 10.0049 39.5292 10.9161 39.5292 11.8214C39.5292 12.0652 39.5582 12.3089 39.217 12.3495C39.1188 12.3495 39.0956 12.4482 39.1014 12.5411C39.1072 12.6339 39.1823 12.6687 39.2691 12.6687H40.9515C41.044 12.6687 41.1192 12.6687 41.125 12.5352C41.1308 12.4018 41.125 12.3553 41.0036 12.3495C40.6104 12.3495 40.6278 12.0536 40.6393 11.7692C40.6509 11.5507 40.6509 11.3318 40.6393 11.1134C40.6393 10.9277 40.6798 10.8522 40.8764 10.8754C41.084 10.8957 41.2931 10.8957 41.5008 10.8754C41.6678 10.8751 41.833 10.8402 41.986 10.7729C42.139 10.7056 42.2765 10.6073 42.3899 10.4842C42.5034 10.3611 42.5902 10.2158 42.6452 10.0575C42.7001 9.89909 42.7219 9.73106 42.7091 9.56387C42.7104 9.40282 42.6784 9.24326 42.6149 9.09533C42.5515 8.9474 42.458 8.81434 42.3406 8.70463C42.2231 8.59491 42.0842 8.51094 41.9326 8.45804C41.7811 8.40514 41.6203 8.38447 41.4603 8.39736ZM41.3447 10.3764C41.2636 10.4392 41.1673 10.4793 41.0658 10.4926C40.9642 10.5058 40.8609 10.4918 40.7665 10.4518C40.5699 10.388 40.6682 10.2081 40.6567 10.0746C40.648 9.92962 40.648 9.78427 40.6567 9.63932C40.6479 9.51566 40.6479 9.39154 40.6567 9.26789C40.6567 9.1228 40.5584 8.91968 40.7434 8.85003C40.8509 8.81081 40.967 8.80198 41.0792 8.8245C41.1913 8.84701 41.2952 8.90001 41.3794 8.97771C41.5287 9.18397 41.6062 9.43384 41.6 9.68873C41.5937 9.94362 41.504 10.1893 41.3447 10.388V10.3764Z" fill="#999EAB"/>
<path d="M50.4209 1.43374C49.6635 1.32347 48.9119 1.48017 48.1545 1.43374C48.0677 1.43374 47.929 1.36411 47.9059 1.53241C47.8827 1.70071 47.9521 1.74133 48.0909 1.76454C48.2296 1.78776 48.3395 1.93284 48.3337 2.12436C48.3337 2.59444 48.3337 3.06451 48.3337 3.5346C48.3337 4.00468 48.3337 4.49218 48.3337 4.97387C48.3337 5.17119 48.3337 5.32208 48.0851 5.3569C47.8365 5.39172 47.8827 5.45556 47.9059 5.59484C47.929 5.73413 48.0735 5.68768 48.1545 5.68768H49.6866C49.7733 5.68768 49.9063 5.75733 49.9237 5.58323C49.941 5.40912 49.8601 5.3801 49.7271 5.36269C49.5016 5.33367 49.4264 5.1944 49.438 4.97387C49.4496 4.75333 49.438 4.39351 49.438 4.06272C49.438 3.92924 49.4727 3.8828 49.6172 3.91182C49.9157 3.95712 50.2202 3.94333 50.5134 3.87121C50.8208 3.82245 51.0969 3.65486 51.2828 3.40432C51.4686 3.15377 51.5494 2.84018 51.5078 2.53061C51.5034 2.24209 51.3876 1.96654 51.1849 1.76196C50.9822 1.55738 50.7083 1.43972 50.4209 1.43374ZM49.7444 3.51138C49.5363 3.51138 49.4264 3.43014 49.438 3.19219C49.4582 2.82879 49.4582 2.46454 49.438 2.10114C49.438 1.88641 49.5247 1.82838 49.7097 1.82258C50.1838 1.82258 50.4035 2.06051 50.4035 2.64666C50.4035 3.23282 50.178 3.5462 49.7444 3.5346V3.51138Z" fill="#999EAB"/>
<path d="M47.8958 25.8547C47.8958 25.7154 47.8495 25.6632 47.7166 25.6806C47.468 25.7212 47.4275 25.5877 47.4275 25.373C47.4275 24.6011 47.4275 23.8351 47.4275 23.0516C47.4275 22.8891 47.4275 22.7614 47.6356 22.7208C47.659 22.7201 47.6818 22.714 47.7024 22.7029C47.723 22.6919 47.7407 22.6761 47.7542 22.657C47.7677 22.6378 47.7765 22.6158 47.78 22.5926C47.7835 22.5694 47.7816 22.5458 47.7744 22.5235C47.7744 22.3958 47.653 22.4306 47.5836 22.4306H44.9934C44.9125 22.4306 44.7968 22.3784 44.7737 22.5293C44.7506 22.6802 44.8258 22.7092 44.9472 22.7324C45.1727 22.773 45.3403 22.8891 45.3403 23.1386C45.3634 23.9007 45.186 24.6554 44.8258 25.3266C44.7332 25.4891 44.635 25.6574 44.4095 25.669C44.2823 25.669 44.2996 25.7676 44.2996 25.8489V26.789C44.2996 26.8877 44.2996 26.9806 44.4442 26.9747C44.5887 26.9689 44.6754 26.9747 44.7101 26.8355C44.7448 26.6962 44.7911 26.5743 44.82 26.4466C44.827 26.3895 44.8455 26.3343 44.8742 26.2844C44.9029 26.2345 44.9414 26.191 44.9872 26.1563C45.0331 26.1217 45.0854 26.0966 45.1411 26.0827C45.1968 26.0687 45.2547 26.0662 45.3114 26.0752C45.6872 26.0752 46.0572 26.0752 46.433 26.0752C47.2251 26.0752 47.2656 25.9127 47.4911 26.8064C47.4911 26.8064 47.4911 26.8064 47.4911 26.8355C47.4911 27.0096 47.6472 26.9631 47.757 26.9689C47.8669 26.9747 47.8842 26.8645 47.8842 26.7774C47.8958 26.4815 47.89 26.1681 47.8958 25.8547ZM46.2885 25.6864H45.1322C45.5318 24.9281 45.7552 24.0888 45.7855 23.2315C45.8202 22.9239 45.9879 22.8311 46.2712 22.8427C46.3984 22.8427 46.4562 22.8833 46.4504 23.0226C46.4504 23.8525 46.4504 24.6824 46.4504 25.5123C46.4735 25.6457 46.4215 25.6864 46.2885 25.6864Z" fill="#999EAB"/>
<path d="M63.5287 12.3847C63.4443 12.3415 63.3704 12.28 63.3124 12.2048C63.2544 12.1295 63.2138 12.0423 63.1934 11.9494C62.7771 10.899 62.3319 9.85436 61.9561 8.78652C61.9229 8.63658 61.8319 8.50595 61.7029 8.42327C61.5739 8.3406 61.4176 8.31261 61.2681 8.34545C61.1178 8.34545 61.0368 8.34544 60.979 8.53696C60.5685 9.65123 60.1464 10.7539 59.7302 11.8624C59.6434 12.0945 59.5625 12.315 59.2908 12.3905C59.1809 12.4195 59.1983 12.5065 59.1983 12.5878C59.1983 12.669 59.2676 12.6981 59.3428 12.6981H60.3141C60.3893 12.6981 60.4644 12.6981 60.476 12.5994C60.4876 12.5007 60.476 12.4311 60.4124 12.4079C59.9961 12.3034 60.1927 12.0365 60.2679 11.8275C60.4587 11.2994 60.4587 11.2994 61.0368 11.2994C61.8058 11.2994 61.8 11.2994 62.0717 12.0074C62.1469 12.2048 62.1989 12.3731 61.9041 12.4021C61.7769 12.4021 61.7595 12.4949 61.7653 12.5994C61.7711 12.7039 61.8578 12.7155 61.9445 12.7155H63.442C63.5114 12.7155 63.6212 12.7561 63.6386 12.6284C63.6559 12.5007 63.6443 12.4601 63.5287 12.3847ZM61.4011 10.8468C60.5916 10.8932 60.5916 10.8932 60.8691 10.1271C60.9385 9.93561 61.0137 9.74409 61.1004 9.50034C61.2681 9.9298 61.4011 10.2896 61.5398 10.661C61.615 10.8003 61.563 10.8351 61.4011 10.8468Z" fill="#999EAB"/>
<path d="M46.8147 12.3904C46.7357 12.3517 46.6659 12.2965 46.61 12.2284C46.5541 12.1603 46.5135 12.081 46.4909 11.9957C46.0399 10.835 45.5774 9.71495 45.1495 8.56586C45.0397 8.26989 44.8431 8.36275 44.6523 8.35114C44.4615 8.33953 44.3343 8.31051 44.2476 8.56006C43.8545 9.66272 43.4266 10.7596 43.0103 11.8564C42.9294 12.0828 42.8485 12.3149 42.5767 12.3845C42.4727 12.4136 42.4727 12.4948 42.4727 12.5819C42.4727 12.6689 42.5478 12.6979 42.623 12.6979H43.6232C43.6868 12.6979 43.7562 12.6979 43.7562 12.6051C43.7562 12.5122 43.7966 12.4368 43.7041 12.4136C43.2936 12.3149 43.4671 12.0538 43.5422 11.8332C43.733 11.2529 43.7388 11.2819 44.2996 11.2819C45.0802 11.2819 45.0744 11.2819 45.3461 12.0131C45.4213 12.2163 45.4328 12.3555 45.1727 12.3845C45.0513 12.3845 45.0224 12.4774 45.0339 12.5877C45.0455 12.6979 45.138 12.6979 45.2189 12.6979H46.7164C46.7915 12.6979 46.8956 12.6979 46.9014 12.5993C46.9072 12.5006 46.9187 12.46 46.8147 12.3904ZM44.0337 10.8408C43.9007 10.8408 43.9065 10.7886 43.9412 10.6899C44.0799 10.3127 44.2187 9.93548 44.3748 9.50022C44.5598 9.9645 44.7159 10.3823 44.8951 10.8408H44.0337Z" fill="#999EAB"/>
<path d="M71.8475 24.0672C72.0679 23.9854 72.2564 23.8349 72.3852 23.6377C72.6859 23.0574 72.3216 22.477 71.5932 22.4364C70.9687 22.4016 70.3443 22.4364 69.7199 22.4364C69.6505 22.4364 69.5696 22.4364 69.5522 22.5292C69.5349 22.6221 69.5522 22.7033 69.6621 22.7265C69.8587 22.7614 69.9049 22.8774 69.8991 23.0631C69.8991 23.864 69.8991 24.6707 69.8991 25.4716C69.8991 25.6399 69.8702 25.7618 69.691 25.7966C69.6676 25.7973 69.6448 25.8034 69.6242 25.8144C69.6036 25.8255 69.5859 25.8413 69.5724 25.8604C69.559 25.8796 69.5501 25.9016 69.5466 25.9248C69.5431 25.9479 69.545 25.9716 69.5522 25.9939C69.5522 26.1216 69.6736 26.0926 69.7488 26.0926C70.3848 26.0926 71.0208 26.0926 71.651 26.0635H71.836C72.0584 26.0247 72.2617 25.9132 72.4144 25.7463C72.5671 25.5794 72.6605 25.3665 72.6801 25.1408C72.7148 24.5721 72.524 24.3167 71.8475 24.0672ZM70.934 22.8136C71.0118 22.7823 71.0964 22.7717 71.1795 22.7829C71.2625 22.7941 71.3413 22.8266 71.4081 22.8774C71.4933 22.9607 71.5528 23.0668 71.5795 23.1831C71.6061 23.2994 71.5988 23.421 71.5585 23.5332C71.5439 23.6315 71.4975 23.7223 71.4265 23.7916C71.3554 23.8608 71.2636 23.9046 71.1653 23.9163C70.9687 23.9569 70.8184 23.9163 70.8589 23.6725C70.8675 23.5682 70.8675 23.4634 70.8589 23.3591C70.8532 23.278 70.8532 23.1965 70.8589 23.1154C70.8647 23.0109 70.7953 22.8542 70.934 22.8136ZM71.1884 25.7153C70.9687 25.7153 70.8184 25.6805 70.8589 25.4078C70.8675 25.2725 70.8675 25.1368 70.8589 25.0015C70.8501 24.9089 70.8501 24.8156 70.8589 24.7229C70.8878 24.5837 70.7548 24.3747 70.9572 24.3225C71.0772 24.2838 71.2066 24.2855 71.3256 24.3274C71.4446 24.3693 71.5467 24.4491 71.6163 24.5546C71.9054 25.0015 71.651 25.6805 71.1884 25.7095V25.7153Z" fill="#999EAB"/>
<path d="M45.7495 19.3661C45.5298 19.279 45.4662 19.0817 45.391 18.8844C44.9458 17.7643 44.4891 16.65 44.0612 15.5242C43.9456 15.2166 43.7317 15.3501 43.5524 15.3268C43.3732 15.3036 43.2518 15.3268 43.1709 15.53C42.7661 16.6558 42.3325 17.7701 41.9105 18.8844C41.8295 19.0991 41.7428 19.2964 41.5057 19.3545C41.367 19.3951 41.4075 19.4937 41.4017 19.5808C41.3959 19.6678 41.4884 19.6736 41.5578 19.6736H42.5349C42.61 19.6736 42.691 19.6736 42.691 19.575C42.691 19.4763 42.7199 19.4009 42.6332 19.3835C42.24 19.2848 42.4077 19.0353 42.4771 18.8031C42.6736 18.2228 42.6736 18.2228 43.2749 18.2228C44.015 18.2228 44.0092 18.2228 44.2867 18.9714C44.3677 19.1745 44.3677 19.3138 44.1075 19.337C43.9687 19.337 43.9745 19.4357 43.9687 19.5286C43.9629 19.6214 44.0844 19.6504 44.1653 19.6504H45.6627C45.7263 19.6504 45.8246 19.691 45.8362 19.5808C45.8477 19.4705 45.8767 19.4241 45.7495 19.3661ZM43.5987 17.8107C43.3559 17.8107 43.1072 17.8107 42.8182 17.8107L43.3038 16.4701C43.4657 16.888 43.5987 17.2536 43.749 17.6308C43.8126 17.7759 43.7548 17.8165 43.5987 17.8107Z" fill="#999EAB"/>
<path d="M47.5416 5.39716C47.3682 5.33912 47.3046 5.17663 47.241 5.01993C46.79 3.85924 46.3275 2.72757 45.8881 1.56687C45.7724 1.2709 45.5585 1.39277 45.3793 1.36956C45.2001 1.34634 45.0844 1.36955 45.0035 1.57847C44.6045 2.68114 44.1767 3.778 43.7662 4.86906C43.6737 5.107 43.6043 5.35073 43.3095 5.41457C43.1996 5.44358 43.2227 5.54225 43.2227 5.6235C43.2227 5.70475 43.3152 5.71636 43.3788 5.72217H44.3502C44.4138 5.72217 44.5063 5.72217 44.512 5.62931C44.5178 5.53645 44.512 5.45521 44.4542 5.43199C44.0033 5.32753 44.2345 5.04896 44.3097 4.85165C44.4947 4.31192 44.5005 4.31772 45.0729 4.31772C45.8245 4.31772 45.8187 4.31772 46.0904 5.04315C46.1656 5.25208 46.2061 5.40877 45.9112 5.43779C45.7782 5.43779 45.7782 5.54806 45.784 5.64672C45.7898 5.74538 45.8938 5.73958 45.969 5.73958H46.7148C46.9577 5.73958 47.1947 5.73958 47.4318 5.73958C47.5127 5.73958 47.6341 5.80341 47.6515 5.64672C47.6688 5.49003 47.6572 5.44358 47.5416 5.39716ZM44.6508 3.83604C44.8069 3.41238 44.9572 3.00033 45.1249 2.52444L45.6279 3.83604H44.6508Z" fill="#999EAB"/>
<path d="M59.6608 5.40329C59.5871 5.36451 59.5226 5.31021 59.4717 5.2441C59.4208 5.178 59.3847 5.10164 59.366 5.02026C58.9439 3.95242 58.5103 2.88458 58.0825 1.81093C57.8974 1.34665 57.8974 1.35247 57.4002 1.36988C57.2383 1.36988 57.1805 1.42791 57.1227 1.58461C56.718 2.67566 56.3017 3.76091 55.8854 4.84616C55.7929 5.08991 55.7293 5.35106 55.4171 5.42651C55.313 5.42651 55.3362 5.55418 55.3362 5.63542C55.3362 5.71667 55.4345 5.72249 55.4981 5.72249H56.4983C56.5561 5.72249 56.6313 5.72248 56.6313 5.64123C56.6313 5.55998 56.6602 5.45552 56.5908 5.43811C56.1167 5.33365 56.3537 5.04347 56.4289 4.81713C56.6023 4.28901 56.6139 4.29482 57.1747 4.29482C57.9437 4.29482 57.9437 4.29482 58.2096 5.03767C58.2848 5.23498 58.3079 5.38588 58.0362 5.4091C57.9148 5.4091 57.8917 5.50196 57.8974 5.61222C57.9032 5.72249 57.9957 5.71669 58.0709 5.72249H59.5683C59.6377 5.72249 59.7533 5.77471 59.7649 5.64123C59.7765 5.50775 59.7822 5.44972 59.6608 5.40329ZM56.77 3.84215C56.9203 3.4185 57.0707 3.00646 57.2441 2.52477L57.7529 3.84215H56.77Z" fill="#999EAB"/>
<path d="M42.4655 22.3662C42.2197 22.3578 41.9748 22.402 41.7473 22.4958C41.5197 22.5897 41.3146 22.731 41.1457 22.9105C40.9767 23.09 40.8477 23.3035 40.7673 23.5368C40.6868 23.7702 40.6567 24.0181 40.679 24.264C40.6575 24.5099 40.6884 24.7577 40.7696 24.9908C40.8508 25.2238 40.9804 25.4369 41.1499 25.6158C41.3194 25.7948 41.5249 25.9354 41.7527 26.0286C41.9806 26.1217 42.2255 26.1651 42.4713 26.1559C42.7173 26.1629 42.9619 26.1172 43.189 26.0219C43.416 25.9266 43.6202 25.784 43.7881 25.6034C43.956 25.4228 44.0837 25.2084 44.1627 24.9745C44.2417 24.7405 44.2701 24.4924 44.2463 24.2466C44.2659 24.0025 44.234 23.7571 44.1527 23.5263C44.0714 23.2954 43.9426 23.0844 43.7745 22.907C43.6065 22.7295 43.403 22.5896 43.1775 22.4965C42.9519 22.4033 42.7093 22.3589 42.4655 22.3662ZM43.0437 25.384C42.9978 25.5009 42.9183 25.6013 42.8153 25.6726C42.7124 25.7439 42.5906 25.7829 42.4655 25.7845C42.3395 25.7911 42.2147 25.7561 42.1103 25.6848C42.0059 25.6136 41.9276 25.51 41.8874 25.3899C41.5928 24.6704 41.5928 23.8634 41.8874 23.1439C41.9266 23.0227 42.0044 22.9178 42.1089 22.8454C42.2134 22.7731 42.3387 22.7372 42.4655 22.7435C42.59 22.741 42.7122 22.7769 42.8156 22.8465C42.919 22.916 42.9987 23.0158 43.0437 23.1323C43.2001 23.4983 43.2713 23.8953 43.2518 24.293C43.2541 24.668 43.1793 25.0394 43.0321 25.384H43.0437Z" fill="#999EAB"/>
<path d="M35.0486 22.3667C34.8031 22.3607 34.559 22.4059 34.3318 22.4993C34.1046 22.5928 33.8992 22.7326 33.7285 22.9099C33.5579 23.0872 33.4258 23.2981 33.3405 23.5292C33.2552 23.7604 33.2187 24.0068 33.2332 24.2529C33.2152 24.5011 33.2494 24.7503 33.3336 24.9843C33.4177 25.2184 33.5499 25.4321 33.7217 25.6115C33.8934 25.791 34.1008 25.9323 34.3303 26.0261C34.5599 26.12 34.8066 26.1644 35.0544 26.1564C35.2927 26.157 35.5287 26.1083 35.7474 26.0132C35.9662 25.9182 36.1631 25.779 36.3258 25.6042C36.4886 25.4294 36.6137 25.2228 36.6934 24.9972C36.7731 24.7717 36.8055 24.5322 36.7889 24.2935C36.815 24.0493 36.7893 23.8022 36.7135 23.5687C36.6378 23.3351 36.5136 23.1203 36.3493 22.9383C36.1849 22.7563 35.984 22.6113 35.7599 22.5128C35.5357 22.4143 35.2933 22.3645 35.0486 22.3667ZM35.6267 25.3671C35.5858 25.4886 35.508 25.5941 35.4044 25.6691C35.3007 25.744 35.1763 25.7845 35.0486 25.785C34.9218 25.7912 34.7965 25.7554 34.692 25.683C34.5875 25.6106 34.5096 25.5058 34.4704 25.3845C34.1839 24.6715 34.1839 23.8748 34.4704 23.1618C34.5065 23.0374 34.583 22.9286 34.6878 22.8529C34.7926 22.7772 34.9196 22.7388 35.0486 22.744C35.1777 22.7453 35.3032 22.7875 35.407 22.8646C35.5109 22.9417 35.5878 23.0498 35.6267 23.1734C35.7723 23.5196 35.8338 23.8956 35.806 24.2703C35.8247 24.6473 35.7533 25.0234 35.5978 25.3671H35.6267Z" fill="#999EAB"/>
<path d="M61.2673 22.9066C61.0975 22.7344 60.8953 22.5978 60.6725 22.5045C60.4497 22.4113 60.2107 22.3633 59.9694 22.3633C59.728 22.3633 59.489 22.4113 59.2662 22.5045C59.0434 22.5978 58.8413 22.7344 58.6714 22.9066C58.3207 23.3213 58.1461 23.8575 58.185 24.4001C58.224 24.9427 58.4733 25.4483 58.8795 25.8083C59.15 26.0151 59.4734 26.1407 59.8121 26.1705C60.1508 26.2003 60.491 26.1331 60.7932 25.9766C61.1035 25.8237 61.3612 25.5812 61.5332 25.2803C61.7052 24.9794 61.7838 24.6338 61.7588 24.2878C61.7752 24.0361 61.7401 23.7836 61.6556 23.5461C61.5711 23.3085 61.4389 23.0909 61.2673 22.9066ZM60.5793 25.3092C60.5446 25.4392 60.4701 25.555 60.3664 25.6404C60.2627 25.7257 60.135 25.7763 60.0011 25.7851C59.8636 25.7873 59.7292 25.7434 59.6192 25.6604C59.5093 25.5774 59.4301 25.4599 59.3941 25.3266C59.1399 24.6476 59.1399 23.899 59.3941 23.22C59.4246 23.0877 59.4979 22.9693 59.6025 22.8833C59.7071 22.7972 59.8371 22.7482 59.9722 22.7441C60.1139 22.7446 60.2513 22.7921 60.3632 22.8793C60.4751 22.9664 60.5552 23.0882 60.5909 23.2257C60.7204 23.5702 60.7794 23.9373 60.7643 24.3052C60.7663 24.6486 60.7035 24.9893 60.5793 25.3092Z" fill="#999EAB"/>
<path d="M76.0976 24.5891C76.0043 24.3953 75.8593 24.2313 75.6785 24.1155C75.4978 23.9997 75.2886 23.9366 75.0742 23.9333C74.8372 23.8984 74.4961 24.1132 74.3862 23.8752C74.2764 23.6373 74.3862 23.3703 74.3862 23.1092V23.0802C74.3862 22.8886 74.3862 22.7494 74.6406 22.732C74.7389 22.732 74.8198 22.6739 74.8025 22.5462C74.7851 22.4186 74.6695 22.4418 74.5828 22.436H73.2761C73.201 22.436 73.1027 22.4012 73.0853 22.5288C73.068 22.6565 73.0854 22.7029 73.201 22.7203C73.4322 22.761 73.4554 22.9177 73.4554 23.115C73.4554 23.881 73.4554 24.6529 73.4554 25.4364C73.4554 25.6221 73.4265 25.7672 73.2183 25.802C73.0102 25.8368 73.0738 25.9065 73.0911 26.0051C73.1085 26.1038 73.2125 26.098 73.2877 26.098H74.0971C74.4714 26.1096 74.846 26.0979 75.2188 26.0632C75.3867 26.052 75.5493 26.0001 75.6929 25.912C75.8364 25.8239 75.9565 25.7021 76.0429 25.5572C76.1293 25.4123 76.1794 25.2485 76.1889 25.0799C76.1985 24.9113 76.1671 24.7429 76.0976 24.5891ZM75.0048 25.6047C74.9227 25.6656 74.8259 25.7037 74.7243 25.7149C74.6228 25.7261 74.5201 25.7101 74.4267 25.6685C74.2648 25.5989 74.3515 25.4248 74.3457 25.3029C74.3291 25.1098 74.3291 24.9156 74.3457 24.7226C74.3457 24.5891 74.2532 24.4034 74.4961 24.3453C74.5989 24.3092 74.7106 24.3072 74.8147 24.3396C74.9188 24.372 75.0098 24.4371 75.0742 24.5252C75.1745 24.6801 75.2231 24.8631 75.213 25.0475C75.2199 25.1499 75.2049 25.2526 75.169 25.3487C75.1331 25.4448 75.0771 25.5321 75.0048 25.6047Z" fill="#999EAB"/>
<path d="M39.5466 22.4829C39.1478 22.4123 38.7413 22.3967 38.3382 22.4365H37.4016C37.3265 22.4365 37.2282 22.4016 37.2108 22.5351C37.1935 22.6686 37.2108 22.7034 37.3265 22.7208C37.5808 22.7615 37.5866 22.9472 37.5866 23.1445C37.5866 23.8757 37.5866 24.607 37.5866 25.3324C37.5866 25.5529 37.5866 25.7561 37.3033 25.8025C37.2108 25.8025 37.2108 25.9012 37.2108 25.9766C37.2108 26.052 37.286 26.0869 37.3611 26.0869H38.7661C38.8355 26.0869 38.9164 26.0869 38.9337 25.994C38.9511 25.9012 38.9338 25.8141 38.8181 25.8083C38.5059 25.8083 38.5059 25.5704 38.5175 25.3382C38.5319 25.1819 38.5319 25.0245 38.5175 24.8681C38.4886 24.6186 38.5522 24.5141 38.8355 24.5605C39.1351 24.606 39.4414 24.5595 39.7143 24.4271C39.9151 24.3338 40.0801 24.1775 40.1845 23.9817C40.2888 23.7858 40.3267 23.5612 40.2924 23.3418C40.2839 23.1349 40.2053 22.937 40.0698 22.7809C39.9342 22.6248 39.7497 22.5197 39.5466 22.4829ZM38.7719 24.2239C38.6042 24.2239 38.5059 24.1659 38.5175 23.9686C38.529 23.7713 38.5175 23.4521 38.5175 23.1909C38.5175 23.0632 38.425 22.8717 38.6215 22.8253C38.7339 22.7816 38.8581 22.7798 38.9716 22.8203C39.0852 22.8608 39.1805 22.9408 39.2402 23.0458C39.3111 23.1856 39.343 23.342 39.3327 23.4985C39.3327 23.9686 39.1361 24.2239 38.7719 24.2065V24.2239Z" fill="#999EAB"/>
<path d="M51.7869 25.8084C51.6456 25.7155 51.5445 25.5725 51.5037 25.408C51.1278 24.462 50.7347 23.5218 50.3878 22.5701C50.2837 22.2915 50.1103 22.3902 49.9426 22.3669C49.9065 22.3566 49.8687 22.3539 49.8314 22.3589C49.7942 22.364 49.7585 22.3767 49.7264 22.3964C49.6944 22.416 49.6667 22.4421 49.6452 22.473C49.6237 22.5039 49.6088 22.5389 49.6015 22.5759C49.2662 23.5044 48.9077 24.4272 48.5608 25.3499C48.4914 25.5472 48.4336 25.7504 48.1908 25.8142C48.0983 25.8142 48.1098 25.9187 48.1098 25.9883C48.1098 26.058 48.1908 26.0928 48.2601 26.0928H49.0407C49.1216 26.0928 49.191 26.0928 49.1968 25.9825C49.2026 25.8722 49.1968 25.8316 49.1043 25.8142C49.0118 25.7968 48.9077 25.7388 48.9366 25.6285C48.9909 25.3844 49.0764 25.1484 49.191 24.9263C49.2777 24.7812 49.4974 24.8741 49.6535 24.8741C50.33 24.8741 50.3242 24.874 50.5555 25.5008C50.6133 25.6749 50.6248 25.7852 50.4109 25.8142C50.2953 25.8142 50.2895 25.9013 50.2953 25.9941C50.3011 26.087 50.3762 26.0928 50.4514 26.0928H51.7002C51.7696 26.0928 51.8563 26.0928 51.8795 26.0115C51.8928 25.9722 51.8907 25.9293 51.8735 25.8915C51.8563 25.8537 51.8253 25.824 51.7869 25.8084ZM50.0525 24.4852C49.2604 24.5258 49.2604 24.5258 49.5437 23.7714C49.5841 23.6669 49.6246 23.5625 49.694 23.3651L50.1103 24.4446C50.0929 24.4678 50.0525 24.4852 50.0525 24.4852Z" fill="#999EAB"/>
<path d="M12.2515 10.9688C12.9665 10.9672 13.6747 11.1082 14.335 11.3835C14.9953 11.6588 15.5946 12.0631 16.098 12.5727C16.6014 13.0824 16.999 13.6873 17.2677 14.3524C17.5364 15.0175 17.6708 15.7296 17.6631 16.4473C17.6601 17.1618 17.5162 17.8686 17.2398 18.5271C16.9634 19.1855 16.5599 19.7825 16.0525 20.2837C15.5452 20.7849 14.944 21.1803 14.2837 21.4472C13.6234 21.7141 12.917 21.8471 12.2053 21.8387C11.4881 21.8342 10.7789 21.6872 10.1186 21.4063C9.45834 21.1254 8.85996 20.7161 8.35798 20.2019C7.85601 19.6878 7.46036 19.0791 7.19386 18.4107C6.92736 17.7424 6.79528 17.0278 6.80521 16.308C6.83697 14.8798 7.42494 13.521 8.44306 12.5229C9.46118 11.5248 10.8284 10.9669 12.2515 10.9688Z" fill="#999EAB"/>
<path d="M18.0557 16.4704C18.0621 15.4144 17.784 14.3763 17.2506 13.466C16.7173 12.5557 15.9487 11.8071 15.0261 11.2995C14.818 11.1777 14.8526 11.079 14.9278 10.9165C15.003 10.754 15.1417 10.8121 15.2516 10.8701C15.99 11.2552 16.641 11.7898 17.1634 12.44C17.6858 13.0903 18.0684 13.8421 18.2869 14.6481C18.5905 15.6392 18.6389 16.6913 18.4276 17.7062C18.2163 18.7211 17.7522 19.6656 17.0786 20.4516C16.1003 21.6719 14.6933 22.4695 13.1471 22.6802C12.0791 22.8604 10.9822 22.7316 9.98451 22.3088C9.90935 22.2797 9.69543 22.3087 9.7995 22.0824C9.90357 21.8561 9.9267 21.8155 10.1464 21.8909C11.081 22.2637 12.0972 22.3823 13.0921 22.2345C14.087 22.0867 15.0254 21.6779 15.8124 21.0494C16.4108 20.5985 16.9123 20.0309 17.2869 19.3807C17.6614 18.7305 17.9013 18.0111 17.9921 17.2655C18.0347 17.0027 18.056 16.7368 18.0557 16.4704Z" fill="#999EAB"/>
<path d="M15.4249 19.3662C15.2861 19.3662 15.2225 19.3023 15.159 19.1921C15.1349 19.1311 15.099 19.0756 15.0533 19.0288C15.0077 18.982 14.9532 18.9447 14.893 18.9193C15.0029 18.78 15.1358 18.9193 15.2399 18.8148C15.169 18.7298 15.1182 18.6298 15.0911 18.5222C15.0641 18.4147 15.0616 18.3025 15.0838 18.1939C15.0838 18.101 14.4652 17.6483 14.3727 17.6773C14.3084 17.7084 14.2482 17.7474 14.1934 17.7934C14.0074 17.9127 13.8484 18.0699 13.7269 18.2549C13.6054 18.4398 13.524 18.6484 13.4881 18.8671C13.4622 18.8914 13.4309 18.909 13.3968 18.9185C13.3626 18.9281 13.3267 18.9292 13.2921 18.9218C13.2575 18.9144 13.2251 18.8987 13.1978 18.876C13.1705 18.8533 13.1491 18.8244 13.1354 18.7916C13.0602 18.6639 12.9272 18.5189 12.9446 18.397C12.9793 18.0836 12.7654 18.0023 12.5919 17.8572C12.4185 17.7122 12.2392 17.5555 11.9617 17.6367C11.8634 17.6367 11.7362 17.5845 11.6033 17.5497C11.8056 17.9791 11.6611 18.1822 11.1928 18.3099C10.9095 18.3854 10.6146 18.4144 10.3082 18.5188C10.4296 18.6872 10.5972 18.6059 10.7302 18.6117C10.9557 18.6117 11.0309 18.6407 10.9037 18.9019C10.736 19.1612 10.4942 19.3635 10.2099 19.4822C10.0191 19.5983 9.97283 19.6911 10.048 19.8943C10.1232 20.0974 10.3602 20.3586 9.92658 20.4746C9.86298 20.4746 9.92657 20.5617 9.89766 20.6081C9.86297 20.9041 9.7936 20.9389 9.52765 20.8228C9.2663 20.7186 9.02893 20.5619 8.83009 20.3623C8.63124 20.1627 8.47513 19.9245 8.37132 19.6621C8.221 19.1804 7.85675 18.7568 7.91457 18.1997C7.91457 18.0081 7.7469 17.8166 7.60814 17.7122C6.98372 17.2595 7.11093 16.6211 7.14562 16.0175C7.15555 15.7797 7.24652 15.5526 7.40333 15.374C7.56014 15.1955 7.77328 15.0764 8.00708 15.0368C8.00708 15.0832 8.03598 15.1412 8.0938 15.1528C8.24671 15.1853 8.38354 15.2703 8.48066 15.3932C8.57778 15.5161 8.62909 15.6692 8.62571 15.826C8.62571 15.9943 8.69509 16.2323 8.98417 16.1916C9.09402 16.1916 9.16919 16.2729 9.24435 16.3484C9.32494 16.4307 9.42409 16.4924 9.53343 16.5283C9.63172 16.5573 9.76469 16.5921 9.81094 16.476C9.85719 16.36 9.71265 16.3426 9.64327 16.3135C9.5632 16.2801 9.49766 16.219 9.45845 16.1413C9.41923 16.0636 9.40891 15.9745 9.42935 15.8899C9.34263 15.9653 9.33684 16.0988 9.20965 16.064C9.08245 16.0291 9.05932 15.9305 9.04776 15.8202C9.03336 15.7396 9.03336 15.6571 9.04776 15.5765C9.07287 15.5397 9.08631 15.4963 9.08631 15.4517C9.08631 15.4072 9.07287 15.3637 9.04776 15.3269C9.04776 15.356 9.04776 15.3792 9.04776 15.3966C9.06054 15.4175 9.06731 15.4416 9.06731 15.4662C9.06731 15.4908 9.06054 15.5149 9.04776 15.5359C9.03408 15.5861 9.0069 15.6317 8.96917 15.6675C8.93145 15.7033 8.88462 15.7281 8.83384 15.739C8.80491 15.7495 8.77331 15.7501 8.744 15.7407C8.71469 15.7312 8.68935 15.7122 8.67196 15.6867C8.6536 15.6683 8.64329 15.6432 8.64329 15.6171C8.64329 15.591 8.6536 15.566 8.67196 15.5475C8.83384 15.4082 8.70665 15.2805 8.67196 15.1586C8.63727 15.0368 8.49274 14.9555 8.33663 15.0484C8.18053 15.1412 8.10536 15.2341 8.00129 15.0484C7.95327 14.9758 7.93014 14.8896 7.93535 14.8027C7.94057 14.7157 7.97387 14.6329 8.03021 14.5667C8.05512 14.5233 8.09102 14.4872 8.13427 14.4622C8.47539 14.7234 8.55633 14.1198 8.85698 14.2475C8.88588 14.2475 8.93214 14.2475 8.93214 14.1778C9.0709 14.1778 9.22122 14.2533 9.34842 14.1314C9.47561 14.0095 9.61437 14.0734 9.50452 13.8645C9.4467 13.7542 9.59124 13.6265 9.68953 13.6323C9.8897 13.6172 10.0855 13.5661 10.2677 13.4814C10.4059 13.4274 10.558 13.4209 10.7003 13.4629C10.8425 13.5049 10.9669 13.5931 11.054 13.7136C11.1002 13.7716 11.2159 13.8122 11.1581 13.9109C11.1003 14.0095 11.0251 13.9109 10.9557 13.9109C10.8863 13.9109 10.8401 13.8122 10.8285 13.9399C10.817 14.0676 10.8863 14.056 10.9441 14.0328C11.3787 13.9008 11.8316 13.84 12.2855 13.8528H12.3202C12.4011 13.5743 12.6382 13.6729 12.8232 13.6497C12.9157 13.6497 12.9388 13.5453 12.9851 13.4756C13.147 13.2203 13.4592 12.9881 13.6673 13.052C13.8754 13.1158 14.0778 12.9881 14.2801 12.9649C14.4825 12.9417 14.4652 12.8605 14.5172 12.7328C14.6386 12.46 14.8467 12.2105 14.5577 11.8564C15.263 12.1524 15.5116 12.7908 15.9973 13.1796C15.7198 13.1796 15.6446 12.9243 15.4191 12.7502C15.4848 12.9562 15.5103 13.1729 15.4943 13.3886C15.4943 13.6439 15.5463 13.6671 15.8238 13.6497C15.9452 13.6497 16.1592 13.9573 16.1765 14.085C16.217 14.4854 16.0667 14.9091 16.3384 15.2805C16.3847 15.3443 16.4425 15.4372 16.3384 15.501C16.2343 15.5649 16.2112 15.4546 16.1592 15.4024C16.1402 15.3812 16.117 15.3643 16.0911 15.3528C16.0652 15.3412 16.0372 15.3352 16.0089 15.3352C15.9805 15.3352 15.9525 15.3412 15.9266 15.3528C15.9007 15.3643 15.8775 15.3812 15.8585 15.4024C15.7602 15.5185 15.9568 15.472 15.9568 15.5184C15.9568 15.7912 16.2748 15.9131 16.2748 16.18C16.2911 16.5137 16.177 16.8406 15.9568 17.0912C15.9 17.1609 15.8264 17.2148 15.7429 17.2479C15.581 17.3059 15.529 17.4394 15.6909 17.5671C15.8528 17.6947 15.8932 17.9443 15.7429 18.1474C15.662 18.2693 15.581 18.3215 15.4365 18.2403C15.2919 18.159 15.2861 18.1358 15.2283 18.2403C15.1705 18.3447 15.1705 18.4492 15.263 18.4956C15.5984 18.6639 15.4365 19.0412 15.6041 19.2733C15.5695 19.3836 15.5116 19.4242 15.4249 19.3662Z" fill="#FEFEFE"/>
<path d="M10.7998 11.5429C10.8576 11.5429 10.9443 11.5429 10.9675 11.5719C11.0946 11.7344 10.794 12.3554 10.5859 12.3496C10.4316 12.3462 10.2783 12.3738 10.1349 12.4309C9.92676 12.5063 9.7244 12.6514 9.55673 12.3554C9.49892 12.2567 9.39485 12.3554 9.27344 12.3264C9.43394 12.118 9.66024 11.9707 9.91519 11.9085C10.2357 11.8585 10.5393 11.7311 10.7998 11.5371V11.5429Z" fill="#FDFDFE"/>
<path d="M12.9224 11.2299C12.587 11.2299 12.2517 11.2879 11.9164 11.2299C11.847 11.2299 11.6793 11.1835 11.6388 11.3982C11.5984 11.6129 11.2573 11.5781 11.1069 11.4678C10.9566 11.3576 10.893 11.4678 10.8005 11.5259C10.5403 11.5259 10.3322 11.7174 10.0547 11.7058C10.0894 11.6651 10.1067 11.6361 10.1299 11.6245C10.9824 11.2366 11.921 11.0786 12.853 11.166C12.853 11.166 12.8935 11.2009 12.9166 11.2241L12.9224 11.2299Z" fill="#999EAB"/>
<path d="M16.4439 18.4321C16.5191 18.4031 16.5364 18.2928 16.6521 18.287C16.6232 18.4205 16.6058 18.554 16.5653 18.6817C16.5248 18.8093 16.496 18.85 16.415 18.7571C16.3341 18.6643 16.2994 18.7571 16.2762 18.8093C16.2566 18.8685 16.2169 18.9189 16.1641 18.9518C16.1113 18.9846 16.0487 18.9979 15.9872 18.9892C15.7906 18.9892 15.7385 18.8674 15.86 18.7281C16.0298 18.5578 16.1722 18.362 16.282 18.1477C16.282 18.0955 16.3167 18.0143 16.4092 18.0607C16.5017 18.1071 16.4844 18.1419 16.4439 18.2116C16.4234 18.2447 16.4126 18.2829 16.4126 18.3218C16.4126 18.3608 16.4234 18.399 16.4439 18.4321Z" fill="#999EAB"/>
<path d="M15.4883 20.4981C16.0228 19.8828 16.5245 19.2396 16.9915 18.5713C16.6899 19.3478 16.167 20.018 15.4883 20.4981Z" fill="#999EAB"/>
<path d="M10.4874 20.6376C10.4874 20.3938 10.7129 20.3648 10.8517 20.301C10.9904 20.2371 11.0193 20.446 10.9904 20.5505C10.9615 20.655 10.921 20.9219 10.7013 20.9103C10.6668 20.9145 10.6319 20.9097 10.5997 20.8964C10.5676 20.8831 10.5395 20.8617 10.518 20.8343C10.4965 20.8069 10.4824 20.7744 10.477 20.74C10.4717 20.7055 10.4752 20.6702 10.4874 20.6376Z" fill="#F9FCFE"/>
<path d="M12.9219 11.2353C13.4779 11.246 14.0201 11.4107 14.4887 11.7112C13.9105 11.6647 13.4711 11.3107 12.9219 11.2295V11.2353Z" fill="#999EAB"/>
<path d="M8.93244 14.1665C8.84572 14.1665 8.72431 14.2245 8.68384 14.1201C8.64336 14.0156 8.76477 13.9634 8.83993 13.9169C8.91509 13.8705 9.03072 13.6558 9.23308 13.5049C9.10588 13.7776 9.01916 13.975 8.92665 14.1665H8.93244Z" fill="#999EAB"/>
<path d="M16.5176 15.5827C16.5176 15.1938 16.6737 14.863 16.5176 14.5322C16.6353 14.6818 16.6993 14.8668 16.6993 15.0574C16.6993 15.248 16.6353 15.4331 16.5176 15.5827Z" fill="#999EAB"/>
<path d="M17.3455 17.6309C17.3918 17.8166 17.2704 17.9384 17.2299 18.0835C17.2236 18.1034 17.2128 18.1216 17.1983 18.1366C17.1837 18.1515 17.1659 18.1628 17.1462 18.1696C17.1265 18.1764 17.1055 18.1784 17.0849 18.1756C17.0643 18.1727 17.0447 18.165 17.0275 18.1532C17.0102 18.1416 16.9965 18.1253 16.988 18.1062C16.9795 18.0871 16.9767 18.066 16.9797 18.0453C16.9827 18.0246 16.9915 18.0052 17.0051 17.9894C17.0187 17.9736 17.0365 17.9619 17.0564 17.9559C17.2125 17.8978 17.1952 17.7121 17.3455 17.6309Z" fill="#999EAB"/>
<path d="M12.3377 13.2962C12.222 13.4935 11.9214 13.4471 11.904 13.7082C11.904 13.7431 11.8289 13.7082 11.7942 13.7082C11.7595 13.7082 11.7479 13.6038 11.7942 13.5516C11.8585 13.4692 11.9412 13.4032 12.0356 13.3588C12.13 13.3145 12.2335 13.293 12.3377 13.2962Z" fill="#999EAB"/>
<path d="M15.4258 19.3667L15.6166 19.297C15.7406 19.3113 15.8653 19.2758 15.9635 19.1984C15.9802 19.1887 15.9991 19.1836 16.0184 19.1836C16.0377 19.1836 16.0566 19.1887 16.0733 19.1984C16.1196 19.2564 16.0733 19.297 16.0155 19.3144C15.9281 19.3687 15.8292 19.4017 15.7268 19.4108C15.6244 19.4198 15.5213 19.4047 15.4258 19.3667Z" fill="#999EAB"/>
<path d="M16.5521 16.998C16.5059 17.1431 16.7256 17.2592 16.5926 17.3985C16.5851 17.4093 16.5752 17.4181 16.5636 17.4241C16.552 17.4302 16.5392 17.4334 16.5261 17.4334C16.513 17.4334 16.5002 17.4302 16.4886 17.4241C16.477 17.4181 16.4671 17.4093 16.4596 17.3985C16.3787 17.2302 16.4365 17.1025 16.5521 16.998Z" fill="#999EAB"/>
<path d="M13.4883 18.8436C13.575 18.8088 13.6675 18.7101 13.708 18.89C13.708 18.9713 13.708 19.0641 13.6502 19.0699C13.4883 19.0699 13.523 18.9364 13.4941 18.8378L13.4883 18.8436Z" fill="#999EAB"/>
<path d="M11.1595 12.8952C11.0381 12.8952 10.9109 12.9996 10.8184 12.8952C10.7259 12.7907 10.8184 12.7965 10.882 12.7733C11.0439 12.6689 11.067 12.8488 11.1595 12.8952Z" fill="#999EAB"/>
<path d="M9.42928 12.7217C9.48709 12.7565 9.53336 12.7855 9.51602 12.8435C9.49867 12.9016 9.51601 12.977 9.40038 12.948C9.28474 12.919 9.29631 12.9132 9.31366 12.8435C9.331 12.7739 9.37724 12.7507 9.42928 12.7217Z" fill="#999EAB"/>
<path d="M9.06017 15.5478C9.15845 15.6522 9.11219 15.7799 9.12376 15.9018C9.13532 16.0237 9.15845 16.0237 9.23361 16.0237C9.30877 16.0237 9.2972 15.954 9.30298 15.9076C9.30877 15.8612 9.30298 15.6929 9.44753 15.7335C9.59207 15.7741 9.52847 15.8438 9.50535 15.925C9.44175 16.1629 9.62098 16.2268 9.78287 16.2964C9.94476 16.3661 10.0083 16.3487 9.93318 16.5054C9.85802 16.662 9.80599 16.7027 9.66723 16.6504C9.51307 16.6318 9.36804 16.5671 9.25095 16.4647C9.14688 16.3545 9.07172 16.2036 8.81733 16.3022C8.7017 16.3428 8.48201 15.9714 8.52248 15.8031C8.60342 15.4433 8.34324 15.3679 8.15245 15.2518C8.05994 15.188 7.979 15.1647 8.00791 15.0371C8.11776 15.1473 8.18713 15.0371 8.27386 14.9964C8.55716 14.8165 8.68435 14.8514 8.75951 15.1647C8.78842 15.2808 9.12955 15.5072 8.70171 15.5826C8.70171 15.5826 8.70171 15.6406 8.70171 15.6638C8.70171 15.6871 8.75373 15.7103 8.79999 15.6638C8.87574 15.6137 8.95496 15.5691 9.03703 15.5304L9.06017 15.5478Z" fill="#999EAB"/>
<path d="M10.4764 15.9417C10.1989 15.994 9.99653 15.7386 9.73058 15.785C9.72873 15.7049 9.75088 15.626 9.79416 15.5587C9.82885 15.4949 9.86356 15.4252 9.95028 15.4368C9.98089 15.4424 10.0084 15.4591 10.0276 15.4837C10.0467 15.5083 10.0563 15.5391 10.0543 15.5703C10.0543 15.6399 10.0543 15.698 10.1526 15.698C10.2509 15.698 10.1526 15.5355 10.2856 15.5413C10.4186 15.5471 10.2567 15.6748 10.3492 15.727C10.3877 15.7479 10.4199 15.779 10.4423 15.8168C10.4647 15.8546 10.4765 15.8977 10.4764 15.9417Z" fill="#999EAB"/>
<path d="M10.2615 13.8646C10.2166 13.8807 10.1768 13.9085 10.1463 13.9453C10.1158 13.982 10.0957 14.0263 10.0881 14.0736C10.0657 14.1854 10.0004 14.284 9.90634 14.348C9.81227 14.4121 9.6969 14.4364 9.58508 14.416C9.48679 14.416 9.38849 14.3579 9.41162 14.2302C9.41162 14.2302 9.41162 14.1084 9.48678 14.1548C9.75274 14.3115 9.78165 14.3057 9.94354 14.0329C9.97064 13.9736 10.0165 13.925 10.074 13.8945C10.1315 13.8641 10.1974 13.8536 10.2615 13.8646Z" fill="#999EAB"/>
<path d="M11.2806 15.6982C11.0898 15.9188 11.2517 16.0813 11.2806 16.2496C11.2806 16.3192 11.3384 16.3889 11.2806 16.4469C11.2635 16.4551 11.2447 16.4594 11.2257 16.4594C11.2067 16.4594 11.1879 16.4551 11.1708 16.4469C11.1313 16.4324 11.0991 16.4032 11.0807 16.3653C11.0624 16.3274 11.0594 16.2838 11.0725 16.2438C11.1245 16.1335 11.0725 16.0465 11.0725 15.9478C11.0725 15.8491 11.0494 15.7215 11.2806 15.6982Z" fill="#999EAB"/>
<path d="M10.159 18.2229C10.0896 18.0314 9.74848 17.9328 9.94505 17.6426C10.1185 17.8051 10.263 17.9734 10.159 18.2229Z" fill="#999EAB"/>
<path d="M10.9395 17.1377C11.0609 17.2422 11.1071 17.4279 11.2979 17.4569C11.3384 17.4569 11.3789 17.4975 11.3499 17.5497C11.3446 17.5611 11.3369 17.5712 11.3273 17.5793C11.3177 17.5874 11.3064 17.5933 11.2943 17.5966C11.2823 17.5999 11.2696 17.6005 11.2572 17.5984C11.2449 17.5964 11.2331 17.5916 11.2227 17.5846C11.1436 17.538 11.0766 17.4732 11.0274 17.3955C10.9781 17.3178 10.948 17.2294 10.9395 17.1377Z" fill="#999EAB"/>
<path d="M9.71289 17.0625C9.88056 17.1554 9.88056 17.1554 9.90946 17.521C9.76492 17.3759 9.76493 17.3759 9.71289 17.0625Z" fill="#999EAB"/>
<path d="M9.05891 15.5477L8.9375 15.1299H9.01843C9.01843 15.275 9.26705 15.3736 9.05891 15.5709V15.5477Z" fill="#999EAB"/>
</g>
<defs>
<clipPath id="clip0_4066_27316">
<rect width="78" height="29" fill="white"/>
</clipPath>
</defs>
</svg>
