<svg width="64" height="31" viewBox="0 0 64 31" fill="none" xmlns="http://www.w3.org/2000/svg">
<g clip-path="url(#clip0_4066_27315)">
<path d="M63.9997 15.31H56.8622H52.2666C52.2062 15.1898 52.3084 15.1481 52.3595 15.0972C54.3979 13.1144 56.4363 11.1286 58.4747 9.13962L63.7441 3.99607C63.8185 3.92206 63.8789 3.82956 63.9997 3.82031V15.31Z" fill="#999EAB"/>
<path d="M47.8469 0.34668V0.633458C47.8469 5.38846 47.8469 10.1419 47.8469 14.8938C47.8469 15.2084 47.7818 15.3101 47.4426 15.3055C42.5542 15.3055 37.6844 15.3055 32.875 15.3055L47.8469 0.34668Z" fill="#999EAB"/>
<path d="M16.3793 0.0644531C16.9508 0.527002 17.527 0.989563 18.0986 1.47986C20.0626 3.10187 22.0297 4.72387 24 6.34587C24.0995 6.41613 24.1797 6.51011 24.2332 6.6192C24.2868 6.72828 24.3121 6.84901 24.3067 6.97031C24.3067 9.61917 24.3067 12.268 24.3067 14.9169C24.3067 15.2314 24.223 15.3101 23.9117 15.3054C21.5093 15.3054 19.1023 15.3054 16.6999 15.3054C16.4211 15.3054 16.3096 15.2592 16.3096 14.9446C16.3096 10.0694 16.3096 5.19567 16.3096 0.323493C16.2995 0.277917 16.3006 0.230601 16.3127 0.185525C16.3248 0.140449 16.3477 0.0989189 16.3793 0.0644531V0.0644531Z" fill="#999EAB"/>
<path d="M63.9671 0.13409C63.8788 0.172352 63.796 0.222116 63.7208 0.282094C60.5517 3.44284 57.3857 6.60359 54.2228 9.76434C54.0091 9.97711 53.9115 9.96786 53.707 9.76434C52.09 8.14234 50.4651 6.52804 48.8326 4.92146C48.7472 4.84286 48.6802 4.7467 48.636 4.63965C48.5919 4.5326 48.5717 4.41724 48.577 4.30164C48.577 2.97413 48.577 1.65125 48.577 0.323736C48.577 0.115589 48.6049 0.00457661 48.8604 0.00457661C53.8356 0.00457661 58.8107 0.00457661 63.7859 0.00457661C63.8184 0.00238071 63.851 0.00238071 63.8835 0.00457661L63.9671 0.13409Z" fill="#999EAB"/>
<path d="M0.176647 7.63643C0.176647 5.21267 0.176647 2.78892 0.176647 0.360535C0.176647 0.249524 0.116239 0.0922515 0.241702 0.0367457C0.367164 -0.0187602 0.436871 0.143143 0.515867 0.221776C2.7742 2.46051 5.03098 4.69924 7.28621 6.93798C7.3594 7.00465 7.41723 7.0863 7.45573 7.17732C7.49423 7.26834 7.51249 7.36657 7.50925 7.46527C7.50925 9.95687 7.50925 12.4516 7.50925 14.9493C7.50925 15.2176 7.45349 15.3101 7.16075 15.3055C4.94888 15.3055 2.73547 15.3055 0.520511 15.3055C0.227764 15.3055 0.167359 15.213 0.167359 14.9447C0.176652 12.5086 0.179745 10.0725 0.176647 7.63643Z" fill="#999EAB"/>
<path d="M15.5762 7.65517C15.5762 10.0789 15.5762 12.5027 15.5762 14.9264C15.5762 15.2086 15.5298 15.3104 15.2138 15.3057C13.0159 15.3057 10.8133 15.3057 8.61073 15.3057C8.33657 15.3057 8.24828 15.2456 8.24828 14.9588C8.24828 12.4472 8.24828 9.94017 8.24828 7.43316C8.24568 7.33478 8.26471 7.23703 8.30404 7.14675C8.34337 7.05646 8.40205 6.97582 8.47597 6.91047L15.237 0.212766C15.3207 0.134133 15.3904 -0.0138798 15.5205 0.0277496C15.6506 0.0693789 15.5855 0.235893 15.5855 0.342279C15.5824 2.78145 15.5793 5.21908 15.5762 7.65517Z" fill="#999EAB"/>
<path d="M17.4531 0.0136719H17.7877C22.2858 0.0136719 26.7885 0.0136719 31.2633 0.0136719C31.6118 0.0136719 31.6908 0.106178 31.6908 0.443839C31.6908 2.22002 31.6908 3.99622 31.6908 5.76778C31.6908 6.03605 31.6258 6.10544 31.3563 6.10081C29.2002 6.10081 27.0487 6.10081 24.8926 6.10081C24.7389 6.11129 24.5871 6.06148 24.4697 5.96204L17.56 0.143185C17.5212 0.102688 17.4855 0.0593997 17.4531 0.0136719Z" fill="#999EAB"/>
<path d="M34.178 0.0419922H46.8869C46.8869 0.16688 46.7893 0.20851 46.7289 0.273266L40.7531 6.21702C40.6184 6.35116 40.5347 6.45292 40.3396 6.25865C38.326 4.24193 36.3124 2.23756 34.2988 0.245515C34.243 0.185383 34.1733 0.153004 34.178 0.0419922Z" fill="#999EAB"/>
<path d="M32.4531 14.3899V1.96582C32.6436 2.14159 32.8063 2.28498 32.9596 2.42837C34.8183 4.24618 36.677 6.07326 38.5729 7.88182C38.7867 8.08997 38.7727 8.19172 38.5729 8.39524C36.6306 10.3102 34.6944 12.2298 32.7645 14.154C32.6888 14.2639 32.5797 14.3466 32.4531 14.3899V14.3899Z" fill="#999EAB"/>
<path d="M26.8171 11.9757C26.8171 10.9581 26.8171 9.94513 26.8171 8.92753C26.8171 8.7055 26.859 8.61762 27.1099 8.62224C28.5442 8.62224 29.9831 8.62224 31.4267 8.62224C31.6358 8.62224 31.7102 8.67775 31.7102 8.89978C31.7102 10.9442 31.7102 12.9887 31.7102 15.0332C31.7102 15.2644 31.6266 15.3061 31.4175 15.3014C29.9909 15.3014 28.5643 15.3014 27.1378 15.3014C26.8915 15.3014 26.8125 15.2367 26.8125 14.9869C26.8264 13.9832 26.8171 12.9656 26.8171 11.9757Z" fill="#999EAB"/>
<path d="M48.6016 15.2784V5.85164C48.7456 5.82851 48.7921 5.94415 48.8618 6.01354L53.2251 10.3476C53.3227 10.4447 53.476 10.5141 53.2902 10.6992C51.7567 12.2024 50.2372 13.715 48.7084 15.2229C48.674 15.2435 48.6383 15.262 48.6016 15.2784Z" fill="#999EAB"/>
<path d="M3.93555 0.0136719H11.7793C11.8351 0.110807 11.7282 0.147808 11.6817 0.198688L8.07582 3.78344C7.9643 3.89908 7.88531 4.00547 7.71338 3.8297C6.47733 2.58544 5.232 1.35506 3.99596 0.129309C3.97311 0.092225 3.95293 0.0535834 3.93555 0.0136719Z" fill="#999EAB"/>
<path d="M46.7466 25.2595C46.5654 25.2595 46.5515 25.4029 46.4957 25.5093L45.1017 28.4234C45.018 28.2661 44.9483 28.1458 44.8879 28.0209C44.4697 27.1606 44.0469 26.3049 43.6426 25.4399C43.545 25.2364 43.3963 25.2549 43.229 25.2641C43.0618 25.2734 43.0896 25.4445 43.0896 25.5556C43.0896 26.8461 43.0896 28.1319 43.0896 29.4225C43.0896 29.5751 43.0896 29.6954 43.3034 29.6954C43.5171 29.6954 43.5822 29.6445 43.5729 29.4363C43.5729 29.1403 43.5729 28.8443 43.5729 28.5529V26.5269C44.0376 27.2716 44.414 28.0302 44.7904 28.7888C44.8554 28.9229 44.9065 29.02 45.0924 29.02C45.2783 29.02 45.334 28.909 45.3944 28.7795C45.5013 28.5482 45.6128 28.317 45.729 28.0811C45.9892 27.5491 46.2541 27.0172 46.5143 26.4899C46.5747 27.4751 46.5747 28.4419 46.5701 29.4086C46.5701 29.5751 46.5701 29.6954 46.7978 29.6954C47.0254 29.6954 47.0673 29.5982 47.0626 29.3993C47.0626 28.1088 47.0626 26.8229 47.0626 25.5324C47.0719 25.2641 46.9511 25.2549 46.7466 25.2595Z" fill="#999EAB"/>
<path d="M3.20711 25.2549C2.30564 25.2549 1.39952 25.2549 0.498044 25.2549C0.261059 25.2549 0.223886 25.3381 0.223886 25.5463C0.223886 26.1846 0.223886 26.8229 0.223886 27.4612V29.3762C0.223886 29.5427 0.191356 29.6953 0.460869 29.6953C0.730382 29.6953 0.702503 29.552 0.702503 29.3808C0.702503 28.2568 0.702503 27.1328 0.702503 26.0088C0.702503 25.7406 0.77685 25.6712 1.04172 25.6804C1.57609 25.6804 2.11512 25.6804 2.6495 25.6804C2.92831 25.6804 2.97942 25.7683 2.97478 26.0227C2.97478 27.1606 2.97478 28.2938 2.97478 29.4271C2.97478 29.626 3.03054 29.6953 3.23499 29.6953C3.43945 29.6953 3.46269 29.6028 3.46269 29.4363C3.46269 28.1227 3.46269 26.809 3.46269 25.5C3.44875 25.315 3.39763 25.2549 3.20711 25.2549Z" fill="#999EAB"/>
<path d="M16.232 26.5227C16.0508 26.5227 15.9904 26.6384 15.9114 26.754L14.4151 28.9095H14.3501C14.3501 28.2018 14.3501 27.4987 14.3501 26.791C14.3501 26.6291 14.3501 26.5366 14.127 26.532C13.904 26.5274 13.9179 26.6523 13.9179 26.8003C13.9179 27.6514 13.9179 28.5024 13.9179 29.3535C13.9179 29.4692 13.8064 29.6588 14.0341 29.7004C14.1145 29.7196 14.1991 29.7119 14.2747 29.6785C14.3503 29.645 14.4127 29.5877 14.4523 29.5154C14.8752 28.8725 15.3213 28.248 15.7627 27.6144C15.8278 27.5172 15.8696 27.3923 16.0276 27.3276C16.0276 28.0584 16.0276 28.7522 16.0276 29.4507C16.0276 29.6218 16.0554 29.7097 16.2553 29.7097C16.4551 29.7097 16.4876 29.6172 16.4829 29.4507C16.4829 28.5626 16.4829 27.6745 16.4829 26.791C16.4969 26.569 16.4318 26.5181 16.232 26.5227Z" fill="#999EAB"/>
<path d="M23.2939 22.3781C23.7586 21.6426 24.293 20.9164 24.8599 20.1024C24.8599 20.8979 24.8599 21.5918 24.8599 22.2856C24.8599 22.4244 24.7948 22.5909 25.0643 22.5955C25.3338 22.6001 25.2874 22.4244 25.2874 22.2717C25.2874 21.4345 25.2874 20.5927 25.2874 19.7554C25.2874 19.6491 25.3849 19.4733 25.1944 19.4363C25.1083 19.4037 25.013 19.4041 24.9272 19.4374C24.8413 19.4707 24.771 19.5346 24.7297 19.6167C24.516 19.9682 24.2651 20.3013 24.0281 20.6435L23.2103 21.8184C23.1452 21.1107 23.1498 20.4308 23.1452 19.7508C23.1452 19.6121 23.2288 19.4224 22.9361 19.4178C22.6433 19.4132 22.7084 19.5797 22.7084 19.737C22.7084 20.5649 22.7084 21.3929 22.7084 22.2162C22.7084 22.3411 22.6062 22.5261 22.8013 22.577C22.8937 22.6097 22.9948 22.6076 23.0857 22.5709C23.1765 22.5342 23.2506 22.4656 23.2939 22.3781V22.3781Z" fill="#999EAB"/>
<path d="M7.92758 21.7541L9.0614 20.1074V22.3276C9.0614 22.4618 9.01028 22.6144 9.25191 22.6191C9.49354 22.6237 9.49355 22.5173 9.49355 22.3369C9.49355 21.4858 9.49355 20.6347 9.49355 19.7836C9.49355 19.6726 9.59113 19.5015 9.40061 19.4599C9.31523 19.4304 9.22223 19.4314 9.13749 19.4626C9.05275 19.4938 8.98152 19.5533 8.93593 19.631C8.58278 20.1768 8.20175 20.7087 7.83465 21.2407C7.6906 21.4488 7.5419 21.6477 7.36997 21.9206C7.36997 21.1389 7.36997 20.4543 7.36997 19.7697C7.36997 19.6171 7.43502 19.4413 7.14692 19.4413C6.85882 19.4413 6.94246 19.6125 6.94246 19.7466C6.94246 20.5977 6.94246 21.4488 6.94246 22.2999C6.94246 22.4063 6.86347 22.5635 7.03075 22.6005C7.1082 22.6313 7.19407 22.6337 7.27316 22.6075C7.35225 22.5812 7.41947 22.528 7.46291 22.4572C7.59302 22.1889 7.76495 21.9622 7.92758 21.7541Z" fill="#999EAB"/>
<path d="M0.538462 22.2165C0.366532 22.2165 0.361885 22.2998 0.357239 22.4293C0.352592 22.5588 0.35724 22.6513 0.561698 22.6652C0.769889 22.7006 0.983957 22.6621 1.16655 22.5564C1.34913 22.4508 1.48865 22.2846 1.56076 22.087C1.73269 21.7031 1.88139 21.3053 2.02544 20.9075C2.37859 20.0102 2.72245 19.1128 3.07096 18.2155C2.70386 18.0999 2.56446 18.2432 2.45294 18.5624C2.16948 19.3811 1.84421 20.1859 1.52358 21.0047C1.42599 20.9105 1.36229 20.7869 1.34236 20.6531C1.07749 19.9547 0.807976 19.2655 0.575637 18.5578C0.468762 18.2432 0.324714 18.0952 -0.00985338 18.2155C-0.0470276 18.3358 0.0319642 18.4375 0.0737851 18.5439C0.417646 19.469 0.766157 20.3478 1.11466 21.2498C1.35165 21.7956 1.14254 22.1518 0.538462 22.2165Z" fill="#999EAB"/>
<path d="M4.22012 21.1896C4.64762 21.1896 5.07513 21.1896 5.50263 21.1896C5.67921 21.1896 5.72568 21.2405 5.72103 21.4117C5.72103 21.7308 5.72103 22.05 5.72103 22.3691C5.72103 22.5356 5.76285 22.5958 5.93943 22.5958C6.11601 22.5958 6.17177 22.5495 6.16712 22.3738C6.16712 21.9112 6.16712 21.4764 6.16712 21.0231C6.16712 20.5698 6.16712 20.098 6.16712 19.6355C6.16712 19.4643 6.11136 19.4181 5.94408 19.4181C5.77679 19.4181 5.71173 19.4505 5.71638 19.6309C5.71638 19.9408 5.71638 20.246 5.71638 20.556C5.71638 20.7225 5.67921 20.7826 5.50263 20.778C5.08442 20.778 4.66621 20.778 4.25265 20.778C4.06678 20.778 3.99708 20.7317 4.00637 20.5421C4.00637 20.2553 4.00637 19.9731 4.00637 19.6864C4.00637 19.5476 4.0389 19.4135 3.80656 19.4181C3.57422 19.4227 3.57422 19.4967 3.57422 19.6679C3.57422 20.5559 3.57422 21.444 3.57422 22.3321C3.57422 22.5033 3.6021 22.5865 3.80191 22.5912C4.00172 22.5958 4.00637 22.457 4.00637 22.3136C4.00637 22.0037 4.00637 21.6984 4.00637 21.3885C4.00637 21.2405 4.08536 21.1896 4.22012 21.1896Z" fill="#999EAB"/>
<path d="M25.4959 26.5227C24.9383 26.5227 24.3761 26.5227 23.8184 26.5227C23.6279 26.5227 23.5768 26.5782 23.5815 26.7632C23.5815 27.272 23.5815 27.7808 23.5815 28.2896C23.6003 28.4727 23.5727 28.6575 23.5013 28.8272C23.4298 28.9968 23.3168 29.146 23.1725 29.261C22.8798 29.4414 22.9495 29.5894 23.1214 29.7744C23.3469 29.6808 23.5438 29.5298 23.6922 29.3366C23.8407 29.1434 23.9355 28.9147 23.9671 28.6736C24.0126 28.4171 24.0329 28.1568 24.0275 27.8965C24.0275 27.5819 23.8928 27.1703 24.0926 26.9714C24.2924 26.7725 24.706 26.9436 25.022 26.9112C25.3379 26.8789 25.3054 26.9991 25.3054 27.2119C25.3054 27.9566 25.3054 28.7013 25.3054 29.446C25.3054 29.5894 25.3054 29.6912 25.5052 29.6912C25.705 29.6912 25.7515 29.6449 25.7515 29.4506C25.7515 28.5533 25.7515 27.656 25.7515 26.7586C25.7329 26.5782 25.6864 26.5181 25.4959 26.5227Z" fill="#999EAB"/>
<path d="M55.8866 27.952C56.249 27.5588 56.2769 27.0269 56.5185 26.5643C56.0539 26.5181 56.0539 26.5181 55.9377 26.8696C55.9052 26.9575 55.8773 27.05 55.8448 27.1379C55.5706 27.9011 55.5334 27.9196 54.7202 27.9104C54.5065 27.9104 54.4228 27.8687 54.4368 27.6375C54.4507 27.4062 54.4368 27.0454 54.4368 26.754C54.4368 26.5828 54.3903 26.5273 54.2184 26.5273C54.0465 26.5273 54 26.5967 54 26.7586C54 27.6837 54 28.5811 54 29.4923C54 29.6727 54.0697 29.7097 54.2323 29.7097C54.395 29.7097 54.4368 29.6542 54.4321 29.5015C54.4321 29.1824 54.4321 28.8632 54.4321 28.544C54.4321 28.4238 54.4321 28.3035 54.5994 28.3082C55.5567 28.3082 55.5892 28.1648 55.9052 29.1084L55.9888 29.3813C56.105 29.7513 56.1143 29.7559 56.5557 29.6495C56.3094 29.1407 56.3001 28.5394 55.8819 28.1093C55.8401 28.0353 55.8355 28.0075 55.8866 27.952Z" fill="#999EAB"/>
<path d="M20.4406 22.4569C20.6743 22.5771 20.9345 22.6371 21.1975 22.6314C21.4605 22.6258 21.7178 22.5546 21.9461 22.4245C22.1366 22.332 22.1366 22.2488 22.0019 22.0915C21.8671 21.9342 21.7881 22.036 21.6766 22.0915C21.0446 22.3875 20.2547 22.1516 20.3244 21.2635C20.336 21.0864 20.336 20.9087 20.3244 20.7316C20.3009 20.566 20.3272 20.3971 20.4001 20.2463C20.4729 20.0955 20.589 19.9696 20.7337 19.8845C20.8784 19.7994 21.0452 19.7588 21.213 19.768C21.3808 19.7772 21.5421 19.8356 21.6766 19.936C21.8996 20.0748 21.9879 19.9915 22.0809 19.825C22.1738 19.6585 21.9786 19.5845 21.8857 19.5382C21.0121 19.1358 19.8132 19.4642 19.869 20.7224C19.869 20.8195 19.869 20.912 19.869 21.0091C19.869 21.1063 19.869 21.1942 19.869 21.2913C19.8363 21.5202 19.8733 21.7536 19.9751 21.9614C20.077 22.1692 20.2391 22.3418 20.4406 22.4569Z" fill="#999EAB"/>
<path d="M52.969 27.0589C53.1596 27.1838 53.1967 27.0589 53.2897 26.971C53.3826 26.8831 53.3594 26.7582 53.2386 26.6935C53.0197 26.5602 52.771 26.4829 52.5149 26.4683C52.2587 26.4538 52.0029 26.5025 51.7702 26.6102C51.5608 26.6983 51.3854 26.851 51.2699 27.0459C51.1545 27.2408 51.105 27.4675 51.1289 27.6926C51.1289 27.836 51.1289 27.9793 51.1289 28.1181C51.1289 28.9368 51.1847 29.1589 51.4588 29.4086C51.6947 29.5892 51.9777 29.6987 52.2742 29.7241C52.5707 29.7495 52.8682 29.6898 53.1317 29.552C53.2153 29.5011 53.4291 29.478 53.3083 29.2884C53.1874 29.0987 53.1317 29.0525 52.9179 29.1727C52.7515 29.2787 52.5554 29.3291 52.3582 29.3166C52.161 29.3042 51.9729 29.2295 51.8213 29.1033C51.4356 28.7796 51.431 27.4289 51.8213 27.0959C51.9808 26.9626 52.1806 26.8865 52.3887 26.8798C52.5969 26.8731 52.8012 26.9362 52.969 27.0589Z" fill="#999EAB"/>
<path d="M31.3471 27.0726C31.5423 27.1882 31.5609 27.0495 31.6445 26.9754C31.7282 26.9014 31.7282 26.7673 31.6027 26.6979C31.3842 26.5643 31.1361 26.486 30.8801 26.4699C30.6241 26.4538 30.3681 26.5003 30.1343 26.6054C29.9236 26.6921 29.7468 26.8444 29.6304 27.0395C29.5139 27.2347 29.4641 27.4621 29.4884 27.6878C29.4884 27.8265 29.4884 27.9699 29.4884 28.1781C29.4719 28.4623 29.497 28.7474 29.5628 29.0245C29.8974 29.8895 31.1288 29.8479 31.6399 29.464C31.705 29.4131 31.7468 29.3529 31.6771 29.2928C31.6074 29.2327 31.5748 29.0615 31.4122 29.1078C31.3471 29.1078 31.2914 29.1818 31.2263 29.2096C30.5665 29.4825 29.8648 29.1772 29.9159 28.377C29.9159 28.2105 29.9159 28.0439 29.9159 27.8774C29.9252 26.9847 30.5711 26.6147 31.3471 27.0726Z" fill="#999EAB"/>
<path d="M19.2692 26.5129C18.5908 26.5129 17.9124 26.5129 17.2386 26.5129C17.0946 26.5129 16.9877 26.5129 16.9923 26.7118C16.997 26.9107 17.0667 26.9338 17.2247 26.9245C17.3827 26.9153 17.5871 26.9245 17.7637 26.9245C17.9403 26.9245 18.0472 26.9986 18.0379 27.2113C18.0379 27.5767 18.0379 27.9422 18.0379 28.3076C18.0379 28.673 18.0379 29.0661 18.0379 29.4454C18.0379 29.6166 18.0657 29.7045 18.2656 29.7045C18.4654 29.7045 18.5025 29.6212 18.4979 29.4454C18.4979 28.8673 18.4979 28.2891 18.4979 27.7062C18.4979 27.4611 18.391 27.1512 18.5397 26.9893C18.6884 26.8274 19.0044 26.943 19.2553 26.9338C19.4133 26.9338 19.5248 26.9338 19.5248 26.7164C19.5248 26.499 19.4179 26.5129 19.2692 26.5129Z" fill="#999EAB"/>
<path d="M32.5326 19.8155C32.765 19.7924 32.8114 19.8895 32.8021 20.0977C32.8021 20.4631 32.8021 20.8285 32.8021 21.1939C32.8021 21.5593 32.8021 21.9525 32.8021 22.3271C32.8021 22.526 32.8532 22.5954 33.0623 22.5954C33.2715 22.5954 33.29 22.5075 33.29 22.3364C33.29 21.7813 33.29 21.2263 33.29 20.6712C33.29 20.4029 33.211 20.0699 33.3412 19.8849C33.4713 19.6999 33.8058 19.8294 34.08 19.8247C34.2473 19.8247 34.3077 19.7785 34.3077 19.6073C34.3077 19.4362 34.2426 19.4131 34.0986 19.4131H31.9657C31.8217 19.4131 31.752 19.4362 31.752 19.6027C31.752 19.7692 31.817 19.834 31.9796 19.8247C32.1423 19.8155 32.356 19.834 32.5326 19.8155Z" fill="#999EAB"/>
<path d="M34.3435 26.5137C33.665 26.5137 32.9866 26.5137 32.3082 26.5137C32.1641 26.5137 32.0619 26.5137 32.0666 26.7079C32.0712 26.9022 32.1363 26.93 32.2989 26.9253C32.4615 26.9207 32.6799 26.9253 32.8658 26.9253C33.0517 26.9253 33.1121 26.9901 33.1074 27.1705C33.1074 27.5498 33.1074 27.9244 33.1074 28.3037C33.1074 28.683 33.1074 29.0623 33.1074 29.4416C33.1074 29.6081 33.1353 29.7006 33.3351 29.7006C33.5349 29.7006 33.5721 29.6174 33.5675 29.4416C33.5675 28.8865 33.5675 28.3315 33.5675 27.7764C33.5675 27.5082 33.4885 27.1705 33.6186 26.9855C33.7487 26.8005 34.0833 26.9346 34.3621 26.93C34.5247 26.93 34.5898 26.8883 34.5944 26.7126C34.5991 26.5368 34.4829 26.5137 34.3435 26.5137Z" fill="#999EAB"/>
<path d="M26.8543 20.1074C26.8311 20.4728 26.8543 20.8382 26.8543 21.2082C26.8543 21.5783 26.8543 21.9622 26.8543 22.3415C26.8543 22.5126 26.8822 22.5959 27.082 22.5959C27.2818 22.5959 27.3144 22.5126 27.3144 22.3415C27.3144 21.7263 27.3144 21.1111 27.3144 20.4913C27.3144 19.8715 27.3143 19.816 28.0067 19.8113H28.1508C28.3181 19.8113 28.3413 19.7327 28.3413 19.5939C28.3413 19.4552 28.2995 19.4043 28.1554 19.4043H26.0179C25.8785 19.4043 25.832 19.4552 25.832 19.5939C25.832 19.7327 25.832 19.8206 26.0272 19.8113C26.2224 19.8021 26.385 19.8113 26.5616 19.8113C26.7381 19.8113 26.8543 19.8622 26.8543 20.1074Z" fill="#999EAB"/>
<path d="M63.3174 26.5226C63.1268 26.5226 63.0757 26.5828 63.0804 26.7631C63.0804 27.6605 63.0804 28.5532 63.0804 29.4459C63.0804 29.6309 63.1315 29.6911 63.322 29.6957C63.5125 29.7003 63.5172 29.5801 63.5125 29.4459V28.1045C63.5125 27.642 63.5125 27.2072 63.5125 26.7585C63.5172 26.6151 63.5172 26.518 63.3174 26.5226Z" fill="#999EAB"/>
<path d="M5.55314 26.4991C5.24269 26.5888 4.9422 26.7097 4.65631 26.8599C4.65631 26.6933 4.65631 26.5037 4.40073 26.5222C4.14516 26.5407 4.2381 26.7674 4.23346 26.8922C4.23346 28.2799 4.23346 29.6305 4.23346 30.9997H4.58661C4.62557 30.9489 4.65353 30.8906 4.66872 30.8285C4.68392 30.7664 4.68602 30.7018 4.6749 30.6389C4.6749 30.2735 4.6749 29.9081 4.6749 29.5195C5.00101 29.6417 5.34444 29.712 5.69254 29.7277C5.84124 29.7433 5.99155 29.7259 6.1327 29.6768C6.27386 29.6278 6.40235 29.5482 6.50896 29.4438C6.61556 29.3395 6.69764 29.2129 6.74931 29.0733C6.80097 28.9336 6.82094 28.7843 6.80777 28.6361C6.80777 28.2691 6.80777 27.9037 6.80777 27.5398C6.82289 27.3804 6.79877 27.2197 6.73748 27.0717C6.67619 26.9237 6.57958 26.7928 6.45602 26.6903C6.33246 26.5878 6.18567 26.5168 6.02835 26.4835C5.87102 26.4502 5.70792 26.4555 5.55314 26.4991V26.4991ZM6.34309 28.7286C6.34276 28.8092 6.32562 28.8889 6.29277 28.9626C6.25992 29.0362 6.21206 29.1024 6.15223 29.1567C6.0924 29.211 6.02189 29.2524 5.94517 29.2783C5.86844 29.3041 5.78717 29.3138 5.70648 29.3067H5.5996C4.84218 29.3067 4.67025 29.1264 4.67025 28.3816V28.1689C4.66324 28.0873 4.66324 28.0053 4.67025 27.9237C4.70278 27.7109 4.55408 27.4612 4.75389 27.29C5.04736 27.0431 5.41978 26.9086 5.80406 26.9107C5.87619 26.9089 5.94795 26.9215 6.01503 26.948C6.0821 26.9745 6.1431 27.0142 6.19434 27.0648C6.24558 27.1153 6.28599 27.1757 6.31315 27.2422C6.34032 27.3088 6.35366 27.3801 6.35238 27.4519C6.37291 27.8773 6.3698 28.3035 6.34309 28.7286V28.7286Z" fill="#999EAB"/>
<path d="M17.0388 23.6038V22.4151C17.38 22.5642 17.7489 22.6399 18.1215 22.6371C18.2585 22.6444 18.3955 22.623 18.5237 22.5742C18.6518 22.5255 18.7683 22.4506 18.8655 22.3542C18.9628 22.2579 19.0386 22.1423 19.0881 22.0149C19.1377 21.8876 19.1598 21.7513 19.1531 21.6149C19.1531 21.2032 19.1531 20.7869 19.1531 20.3752C19.1671 20.1306 19.0829 19.8904 18.9191 19.7074C18.7553 19.5244 18.5253 19.4136 18.2795 19.3993C17.9102 19.3783 17.5438 19.4756 17.234 19.6768C17.1457 19.7231 17.0249 19.8294 17.011 19.6305C16.997 19.4317 16.8948 19.4363 16.7554 19.4363C16.616 19.4363 16.6113 19.5889 16.6113 19.6907C16.6113 20.9997 16.6113 22.3133 16.6113 23.6223C16.6113 23.7889 16.6346 23.8814 16.839 23.8814C17.0435 23.8814 17.0388 23.7426 17.0388 23.6038ZM17.0388 21.1523C17.0318 21.0399 17.0318 20.9271 17.0388 20.8147C17.0714 20.6019 16.9227 20.3521 17.1503 20.1856C17.4375 19.9524 17.7974 19.8264 18.168 19.8294C18.2401 19.8269 18.3119 19.8391 18.3791 19.8654C18.4462 19.8916 18.5072 19.9314 18.5582 19.9822C18.6092 20.033 18.6492 20.0937 18.6756 20.1605C18.702 20.2273 18.7143 20.2989 18.7117 20.3706C18.7117 20.7962 18.7349 21.2217 18.7117 21.6473C18.7111 21.7246 18.6949 21.801 18.6639 21.8719C18.633 21.9428 18.5879 22.0068 18.5315 22.0599C18.4751 22.1131 18.4084 22.1543 18.3356 22.1812C18.2627 22.208 18.1852 22.2199 18.1076 22.2162C17.9363 22.2429 17.7614 22.2354 17.593 22.1941C17.4247 22.1528 17.2663 22.0786 17.1271 21.9757C16.8948 21.7536 17.0946 21.3836 17.0388 21.1431V21.1523Z" fill="#999EAB"/>
<path d="M59.3489 27.9148C59.4808 27.8042 59.5698 27.6512 59.6004 27.4823C59.6309 27.3133 59.6011 27.1391 59.5162 26.9897C59.4516 26.8435 59.3433 26.7207 59.2061 26.6379C59.069 26.5551 58.9095 26.5165 58.7494 26.5271C58.2848 26.5271 57.8201 26.5271 57.3554 26.5271C57.1835 26.5271 57.1324 26.578 57.137 26.7491C57.137 27.2117 57.137 27.6465 57.137 28.0952C57.137 28.5438 57.137 29.0203 57.137 29.4828C57.137 29.6216 57.137 29.7095 57.3229 29.7048C57.8108 29.7048 58.2987 29.7048 58.782 29.7048C58.9562 29.7069 59.1266 29.6538 59.2686 29.5532C59.4106 29.4526 59.5168 29.3097 59.5719 29.1451C59.6476 28.9833 59.6691 28.8015 59.6331 28.6266C59.5971 28.4517 59.5056 28.293 59.3721 28.1738C59.2931 28.0674 59.2095 28.035 59.3489 27.9148ZM57.5645 27.3921C57.6017 26.9295 57.5645 26.9295 58.0664 26.9295C58.2799 26.9157 58.4941 26.9157 58.7076 26.9295C58.7674 26.9287 58.8267 26.9403 58.8817 26.9637C58.9367 26.987 58.9862 27.0216 59.0269 27.0652C59.0677 27.1088 59.0987 27.1604 59.1182 27.2167C59.1376 27.273 59.145 27.3328 59.1398 27.3921C59.1261 27.5049 59.0711 27.6088 58.9854 27.6838C58.8997 27.7589 58.7892 27.8 58.6751 27.7991C58.5217 27.7991 58.3684 27.7991 58.2104 27.7991C58.1392 27.7945 58.0678 27.7945 57.9966 27.7991C57.6528 27.8824 57.5227 27.7668 57.5645 27.3921V27.3921ZM58.6286 29.2932C58.4892 29.2932 58.3452 29.2932 58.2058 29.2932C57.5738 29.2932 57.597 29.2932 57.5598 28.6502C57.5598 28.2802 57.6574 28.1877 58.0245 28.22C58.2336 28.2478 58.4474 28.22 58.6611 28.22C58.7354 28.22 58.8089 28.2347 58.8774 28.2631C58.9459 28.2915 59.0081 28.3331 59.0604 28.3856C59.1126 28.4381 59.154 28.5003 59.1819 28.5688C59.2099 28.6372 59.224 28.7105 59.2234 28.7844C59.1909 29.0989 58.9864 29.2793 58.6286 29.2932V29.2932Z" fill="#999EAB"/>
<path d="M11.844 22.5817C12.0238 22.5877 12.2007 22.5355 12.3482 22.4329C12.4956 22.3303 12.6057 22.1829 12.6619 22.0128C12.7358 21.8499 12.7553 21.6677 12.7177 21.4929C12.6801 21.3181 12.5872 21.1599 12.4528 21.0414C12.3598 20.9628 12.3041 20.9212 12.4528 20.8102C12.5855 20.7002 12.675 20.5471 12.7056 20.3779C12.7362 20.2087 12.7059 20.0342 12.6201 19.8851C12.5541 19.7389 12.4449 19.6163 12.3071 19.5337C12.1692 19.451 12.0093 19.4122 11.8487 19.4225C11.384 19.4225 10.9193 19.4225 10.4547 19.4225C10.2549 19.4225 10.2223 19.4919 10.227 19.6677C10.227 20.1302 10.227 20.565 10.227 21.0137C10.227 21.4624 10.227 21.9064 10.227 22.3551C10.227 22.5077 10.227 22.5956 10.4361 22.591C10.8961 22.5817 11.3701 22.6049 11.844 22.5817ZM10.6545 19.9683C10.6545 19.8388 10.7381 19.8203 10.8403 19.8203C11.1377 19.8203 11.4305 19.8203 11.7279 19.8203C12.0253 19.8203 12.239 20.0331 12.2158 20.306C12.1926 20.5789 11.9602 20.6992 11.6907 20.713H11.2679C10.6266 20.7177 10.5476 20.6159 10.6545 19.9683V19.9683ZM10.6545 21.5688C10.6545 21.2265 10.7149 21.0692 11.0866 21.1062C11.3002 21.1178 11.5143 21.1178 11.7279 21.1062C11.8023 21.1056 11.8761 21.1198 11.9449 21.148C12.0137 21.1762 12.0761 21.2178 12.1285 21.2704C12.1809 21.323 12.2222 21.3855 12.25 21.4542C12.2777 21.5229 12.2914 21.5965 12.2901 21.6705C12.2901 21.9665 12.0671 22.1331 11.7139 22.1701C11.5699 22.1701 11.4258 22.1701 11.2864 22.1701C10.6545 22.2163 10.6777 22.2163 10.6498 21.5688H10.6545Z" fill="#999EAB"/>
<path d="M12.913 27.9284C13.0443 27.8174 13.133 27.6648 13.1643 27.4963C13.1957 27.3277 13.1676 27.1536 13.085 27.0033C13.0139 26.8521 12.8976 26.7266 12.752 26.6438C12.6064 26.561 12.4387 26.525 12.2718 26.5407C11.835 26.5407 11.3935 26.5407 10.9567 26.5407C10.7662 26.5407 10.7105 26.5916 10.7151 26.7766C10.7151 27.2392 10.7151 27.674 10.7151 28.1226C10.7151 28.5713 10.7151 29.02 10.7151 29.4687C10.7151 29.6583 10.7709 29.7138 10.9567 29.7092C11.4214 29.7092 11.8582 29.7092 12.3136 29.7092C12.4932 29.7154 12.6703 29.6657 12.8202 29.567C12.9701 29.4684 13.0854 29.3257 13.15 29.1587C13.2295 28.9915 13.252 28.8031 13.2143 28.622C13.1766 28.4409 13.0806 28.277 12.9409 28.155C12.8619 28.0625 12.7829 28.0348 12.913 27.9284ZM11.1473 27.105C11.1473 26.9755 11.1798 26.9108 11.3238 26.9154C11.6212 26.9154 11.9186 26.9154 12.216 26.9154C12.5134 26.9154 12.7504 27.142 12.7179 27.3779C12.6853 27.6138 12.4623 27.7804 12.1835 27.7896H11.7932C11.0776 27.8174 11.0822 27.8174 11.1426 27.105H11.1473ZM12.1928 29.2975H11.7699C11.1519 29.2975 11.1751 29.2975 11.1426 28.6731C11.1194 28.3077 11.2263 28.1735 11.6073 28.2105C11.8085 28.2221 12.0102 28.2221 12.2114 28.2105C12.2852 28.2081 12.3588 28.2201 12.428 28.246C12.4972 28.2718 12.5605 28.311 12.6145 28.3613C12.6684 28.4115 12.7119 28.4719 12.7424 28.5389C12.7729 28.6059 12.7898 28.6782 12.7922 28.7517C12.7783 29.0894 12.5599 29.279 12.1881 29.2975H12.1928Z" fill="#999EAB"/>
<path d="M37.3084 28.1458C37.2201 28.0626 37.1504 28.0302 37.2851 27.9146C37.4163 27.8034 37.5044 27.6502 37.5341 27.4812C37.5638 27.3123 37.5333 27.1384 37.4478 26.9895C37.3827 26.8437 37.2743 26.7213 37.1372 26.6386C37.0002 26.5559 36.841 26.5169 36.6811 26.5269C36.2164 26.5269 35.7517 26.5269 35.287 26.5269C35.1197 26.5269 35.064 26.5732 35.0686 26.7443C35.0686 27.2069 35.0686 27.6694 35.0686 28.132C35.0686 28.5945 35.0686 29.0293 35.0686 29.4826C35.0686 29.6167 35.0686 29.7046 35.2591 29.7C35.7238 29.7 36.235 29.7 36.7182 29.7C36.8986 29.7014 37.0745 29.6444 37.2195 29.5377C37.3645 29.4309 37.4707 29.28 37.5221 29.1079C37.5947 28.9459 37.6132 28.765 37.5747 28.5918C37.5362 28.4186 37.4428 28.2623 37.3084 28.1458ZM35.5101 27.0727C35.5101 26.9432 35.5891 26.9155 35.6959 26.9201C36.0026 26.9201 36.314 26.9201 36.6253 26.9201C36.6879 26.9135 36.7512 26.921 36.8106 26.9419C36.87 26.9629 36.9239 26.9967 36.9684 27.0411C37.013 27.0854 37.047 27.1391 37.068 27.1982C37.089 27.2573 37.0965 27.3203 37.09 27.3826C37.09 27.674 36.8855 27.7897 36.6253 27.8082C36.472 27.8082 36.314 27.8082 36.1606 27.8082C35.4729 27.8174 35.4032 27.7295 35.5101 27.0727ZM36.5556 29.2976H36.1467C35.4961 29.2976 35.5147 29.2976 35.4915 28.6269C35.4915 28.3031 35.5705 28.1643 35.8958 28.2245C36.1049 28.2522 36.3233 28.2245 36.5324 28.2245C36.607 28.2201 36.6817 28.2306 36.7522 28.2553C36.8227 28.2801 36.8875 28.3185 36.9429 28.3685C36.9983 28.4184 37.0431 28.4789 37.0747 28.5463C37.1064 28.6137 37.1242 28.6867 37.1271 28.761C37.1457 29.0709 36.918 29.2791 36.5556 29.2976Z" fill="#999EAB"/>
<path d="M31.0363 22.3734C31.2501 22.2392 31.2361 22.0773 31.0363 21.9571C30.9062 21.8831 30.8505 22.0172 30.7715 22.0588C30.61 22.1614 30.4247 22.2208 30.2334 22.2313C30.0421 22.2418 29.8514 22.2031 29.6795 22.119C29.5534 22.0519 29.4498 21.9496 29.3812 21.8247C29.3127 21.6998 29.2823 21.5577 29.2938 21.4159C29.2938 21.2031 29.3728 21.1569 29.5633 21.1661C29.7538 21.1754 30.0652 21.1661 30.3114 21.1661H30.6692C31.4499 21.1661 31.4964 21.106 31.3384 20.3243C31.2895 20.0408 31.1362 19.7857 30.9086 19.6087C30.6809 19.4316 30.3951 19.3454 30.107 19.3668C29.8095 19.3438 29.5144 19.4342 29.2814 19.6197C29.0485 19.8052 28.8951 20.072 28.8524 20.3659C28.7966 20.8113 28.7966 21.2619 28.8524 21.7073C28.8696 21.8613 28.9255 22.0084 29.0148 22.1353C29.1041 22.2622 29.224 22.3647 29.3635 22.4335C29.6224 22.573 29.914 22.6409 30.2081 22.6303C30.5023 22.6198 30.7882 22.531 31.0363 22.3734V22.3734ZM29.2938 20.389C29.3446 20.1915 29.4687 20.0206 29.6412 19.9107C29.8137 19.8008 30.0217 19.7601 30.2231 19.797C30.4247 19.818 30.6098 19.9172 30.7384 20.073C30.8671 20.2288 30.9291 20.4287 30.9109 20.6296C30.9109 20.7637 30.8551 20.8192 30.7157 20.8146C30.5763 20.81 30.2929 20.8146 30.0791 20.8146H29.6423C29.2613 20.8285 29.2148 20.7544 29.2891 20.389H29.2938Z" fill="#999EAB"/>
<path d="M40.7381 27.3739C40.7447 27.2002 40.6944 27.029 40.5946 26.8863C40.4948 26.7436 40.3511 26.6371 40.1851 26.5829C39.9204 26.4921 39.6394 26.4583 39.3606 26.4838C39.0818 26.5094 38.8116 26.5936 38.568 26.731C38.4565 26.7911 38.3636 26.8466 38.4705 26.9992C38.5773 27.1519 38.5959 27.2074 38.7632 27.0917C39.0397 26.9184 39.3694 26.8495 39.6926 26.8975C39.7826 26.8976 39.8716 26.9166 39.9537 26.9532C40.0359 26.9898 40.1094 27.0432 40.1694 27.11C40.2295 27.1767 40.2747 27.2553 40.3023 27.3406C40.3298 27.426 40.3389 27.5161 40.3292 27.6052C40.3292 27.7994 40.2827 27.8688 40.0736 27.8688C39.6714 27.8301 39.2657 27.8519 38.8701 27.9336C38.6471 27.9836 38.4521 28.1173 38.3258 28.3069C38.1994 28.4965 38.1513 28.7272 38.1916 28.9512C38.2174 29.174 38.3282 29.3785 38.5012 29.5223C38.6742 29.6661 38.8961 29.7382 39.121 29.7236C39.549 29.718 39.9671 29.5947 40.3292 29.3675C40.3989 29.5155 40.3292 29.719 40.594 29.6913C40.7334 29.6913 40.7799 29.6311 40.7753 29.497C40.7474 28.7893 40.766 28.0816 40.7381 27.3739ZM40.0039 29.0992C39.7277 29.2734 39.3987 29.3455 39.0745 29.3027C38.9513 29.3027 38.8331 29.254 38.746 29.1672C38.6588 29.0805 38.6099 28.9629 38.6099 28.8402C38.5915 28.7157 38.621 28.5889 38.6926 28.4851C38.7641 28.3814 38.8723 28.3083 38.9955 28.2805C39.206 28.2346 39.4217 28.2175 39.6368 28.2296C39.6923 28.2221 39.7486 28.2221 39.8041 28.2296C39.9667 28.2851 40.2083 28.0816 40.2687 28.3545C40.3023 28.4204 40.322 28.4924 40.3268 28.5661C40.3316 28.6398 40.3212 28.7137 40.2965 28.7833C40.2717 28.8529 40.233 28.9168 40.1827 28.9711C40.1324 29.0254 40.0716 29.069 40.0039 29.0992V29.0992Z" fill="#999EAB"/>
<path d="M10.0004 27.503C10.0241 27.306 9.97947 27.1068 9.87381 26.9385C9.76816 26.7702 9.60786 26.643 9.41953 26.5779C9.15551 26.4867 8.87485 26.4531 8.59662 26.4794C8.31839 26.5057 8.04911 26.5914 7.8071 26.7306C7.69558 26.7907 7.598 26.8416 7.71417 26.9896C7.83034 27.1376 7.83963 27.1977 8.01156 27.0867C8.30732 26.9013 8.66353 26.8367 9.00597 26.9063C9.16873 26.9193 9.31984 26.9955 9.42674 27.1183C9.53365 27.2412 9.5878 27.4009 9.57753 27.5631C9.57753 27.7759 9.57752 27.8777 9.29872 27.8684C8.91917 27.8236 8.53488 27.8392 8.16026 27.9147C8.04262 27.9346 7.93019 27.9779 7.82963 28.0419C7.72908 28.1058 7.64245 28.1893 7.57486 28.2872C7.50727 28.3851 7.4601 28.4955 7.43614 28.6118C7.41218 28.7282 7.41191 28.8482 7.43536 28.9647C7.47095 29.1886 7.59041 29.3909 7.76972 29.5308C7.94903 29.6707 8.17489 29.7378 8.40189 29.7186C8.81791 29.6988 9.22155 29.5713 9.57287 29.3486C9.57287 29.566 9.62864 29.7371 9.87956 29.6816C10.1305 29.6261 9.99573 29.4318 9.99573 29.3069C10.0097 28.6918 10.0097 28.1043 10.0004 27.503ZM9.26619 29.0988C8.96929 29.2725 8.62206 29.341 8.28107 29.2931C8.16858 29.2784 8.06536 29.2233 7.99089 29.138C7.91642 29.0528 7.87584 28.9435 7.87681 28.8305C7.85771 28.7176 7.88134 28.6017 7.94314 28.5052C8.00494 28.4086 8.10052 28.3383 8.21137 28.3078C8.62675 28.2086 9.05742 28.1897 9.47994 28.2523C9.67046 28.2523 9.52641 28.4836 9.57287 28.5993C9.66116 28.8722 9.49852 28.997 9.26619 29.0988V29.0988Z" fill="#999EAB"/>
<path d="M21.2769 26.4758C21.1163 26.4658 20.9554 26.4884 20.8039 26.5423C20.6524 26.5962 20.5134 26.6802 20.3956 26.7893C20.2778 26.8983 20.1835 27.0301 20.1185 27.1766C20.0536 27.3232 20.0192 27.4813 20.0176 27.6415C20.0176 27.9005 20.0176 28.1641 20.0176 28.4232C19.978 28.6522 20.014 28.8879 20.1205 29.0947C20.2269 29.3016 20.3979 29.4685 20.6078 29.5703C20.8668 29.694 21.1537 29.7487 21.4403 29.7293C21.727 29.7098 22.0037 29.6168 22.2435 29.4593C22.4061 29.3575 22.3968 29.2743 22.276 29.1309C22.1552 28.9875 22.0669 29.0754 21.96 29.1309C21.2816 29.5379 20.5381 29.2789 20.4498 28.6082C20.4219 28.3908 20.4498 28.2474 20.7333 28.2752C20.9824 28.289 21.2322 28.289 21.4814 28.2752H21.8717C22.5316 28.2752 22.5316 28.2752 22.5176 27.6276C22.5201 27.4685 22.4891 27.3106 22.4265 27.1641C22.364 27.0177 22.2712 26.8859 22.1543 26.7774C22.0374 26.6688 21.8989 26.5859 21.7477 26.534C21.5966 26.482 21.4362 26.4622 21.2769 26.4758V26.4758ZM21.8438 27.9144C21.658 27.9144 21.4674 27.9144 21.2769 27.9144H20.8122C20.4126 27.9144 20.3708 27.8496 20.4823 27.4518C20.5379 27.2586 20.6641 27.0931 20.8361 26.9878C21.0081 26.8825 21.2134 26.8451 21.4117 26.8829C21.6019 26.9002 21.7788 26.9875 21.9077 27.1278C22.0367 27.2681 22.1083 27.4513 22.1087 27.6415C22.0994 27.845 22.0529 27.9329 21.8392 27.9144H21.8438Z" fill="#999EAB"/>
<path d="M15.6504 22.3455C15.7061 22.3038 15.827 22.2715 15.7665 22.1651C15.7061 22.0587 15.6318 21.9662 15.5481 21.9477C15.4645 21.9292 15.3716 22.0356 15.2786 22.0818C14.577 22.4657 13.8428 22.1096 13.8428 21.3973C13.8428 21.2076 13.9125 21.1567 14.0891 21.166C14.3539 21.166 14.6141 21.166 14.8744 21.166H15.2693C15.9524 21.166 15.9524 21.166 15.9199 20.4814C15.914 20.3273 15.8772 20.1758 15.8119 20.036C15.7465 19.8961 15.6538 19.7707 15.5391 19.6669C15.4245 19.5631 15.2902 19.4831 15.1442 19.4316C14.9981 19.38 14.8432 19.3579 14.6885 19.3667C14.5308 19.3547 14.3724 19.3745 14.2225 19.4247C14.0726 19.4749 13.9344 19.5546 13.8161 19.659C13.6978 19.7634 13.6017 19.8904 13.5337 20.0325C13.4656 20.1746 13.4269 20.3288 13.4199 20.486C13.4199 20.8514 13.4199 21.2169 13.4199 21.5869C13.4222 21.741 13.4609 21.8925 13.5327 22.029C13.6045 22.1656 13.7076 22.2835 13.8335 22.3732C14.1076 22.5412 14.4242 22.6278 14.746 22.6228C15.0678 22.6179 15.3816 22.5217 15.6504 22.3455V22.3455ZM13.8707 20.3565C13.9332 20.1681 14.061 20.0079 14.2312 19.9045C14.4015 19.8011 14.603 19.7614 14.8 19.7922C15.0029 19.8132 15.1901 19.9107 15.3231 20.0646C15.4561 20.2186 15.525 20.4173 15.5156 20.6202C15.5156 20.7821 15.4413 20.8191 15.2972 20.8144C15.1532 20.8098 14.8976 20.8144 14.6978 20.8144H14.2331C13.8428 20.8283 13.7684 20.7312 13.8707 20.3658V20.3565Z" fill="#999EAB"/>
<path d="M49.5438 26.5315C48.7399 26.3419 47.7316 26.6842 47.8199 27.8591C47.8199 27.9284 47.8199 28.0025 47.8199 28.0718C47.8199 28.2384 47.8199 28.4049 47.8199 28.5668C47.8173 28.7306 47.8501 28.8931 47.9159 29.0433C47.9818 29.1934 48.0792 29.3278 48.2016 29.4374C48.324 29.547 48.4685 29.6292 48.6255 29.6785C48.7825 29.7277 48.9483 29.743 49.1117 29.7231C49.2754 29.7421 49.4413 29.7263 49.5984 29.6768C49.7555 29.6273 49.9003 29.5452 50.0232 29.4359C50.1462 29.3267 50.2444 29.1927 50.3116 29.0429C50.3787 28.8931 50.4132 28.7308 50.4128 28.5668C50.4128 28.2568 50.4128 27.9516 50.4128 27.6417C50.4174 27.3856 50.3336 27.1357 50.1755 26.9337C50.0173 26.7316 49.7944 26.5897 49.5438 26.5315ZM49.962 28.5529C49.9614 28.6602 49.9381 28.7661 49.8936 28.8639C49.8491 28.9616 49.7844 29.0488 49.7037 29.12C49.6231 29.1911 49.5282 29.2445 49.4254 29.2767C49.3226 29.3089 49.2141 29.3192 49.107 29.3068C49.0003 29.3196 48.892 29.3092 48.7896 29.2763C48.6873 29.2434 48.5934 29.1888 48.5143 29.1162C48.4352 29.0437 48.3729 28.9549 48.3316 28.856C48.2904 28.7572 48.2711 28.6506 48.2753 28.5436C48.2753 28.3864 48.2753 28.2337 48.2753 28.0811V27.7249C48.2684 27.6128 48.2856 27.5005 48.3258 27.3955C48.3659 27.2906 48.4281 27.1953 48.5081 27.1161C48.5881 27.0369 48.6841 26.9756 48.7898 26.9362C48.8955 26.8968 49.0084 26.8803 49.121 26.8877C49.2308 26.8826 49.3405 26.9 49.4433 26.9388C49.5461 26.9777 49.6399 27.037 49.7187 27.1134C49.7975 27.1897 49.8598 27.2812 49.9017 27.3825C49.9435 27.4837 49.9641 27.5924 49.962 27.7018C49.9713 27.9886 49.976 28.2707 49.962 28.5529V28.5529Z" fill="#999EAB"/>
<path d="M28.0014 27.8317C27.6622 27.7854 27.1928 27.9704 27.0163 27.7438C26.8397 27.5171 26.9605 27.087 26.9698 26.7493C26.9698 26.555 26.9047 26.5088 26.7235 26.5088C26.5423 26.5088 26.5098 26.5828 26.5098 26.7401C26.5098 27.2026 26.5098 27.6652 26.5098 28.1277C26.5098 28.5903 26.5098 29.0251 26.5098 29.4691C26.5098 29.6079 26.5098 29.7004 26.7003 29.6957C27.165 29.6957 27.6296 29.6958 28.1222 29.668C28.2541 29.6665 28.3839 29.6348 28.5015 29.5754C28.6191 29.516 28.7214 29.4304 28.8005 29.3253C28.8795 29.2202 28.9332 29.0984 28.9574 28.9694C28.9816 28.8403 28.9757 28.7074 28.94 28.581C28.8703 28.1323 28.5776 27.9057 28.0014 27.8317ZM27.9549 29.2933C27.8248 29.2933 27.6947 29.2933 27.5646 29.2933C26.9652 29.2933 26.9652 29.2933 26.9652 28.6874C26.9652 28.2248 26.9652 28.2248 27.4298 28.2248C27.6064 28.2248 27.7876 28.2248 27.9642 28.2248C28.0383 28.2199 28.1126 28.231 28.182 28.2573C28.2514 28.2836 28.3142 28.3245 28.3663 28.3772C28.4184 28.4299 28.4584 28.4931 28.4836 28.5626C28.5088 28.6321 28.5187 28.7063 28.5125 28.7799C28.5079 29.0898 28.3174 29.2656 27.9549 29.2933V29.2933Z" fill="#999EAB"/>
<path d="M61.9557 27.855C61.6612 27.821 61.3644 27.8102 61.0682 27.8226C60.8498 27.8226 60.7475 27.7809 60.7708 27.5358C60.794 27.2906 60.7708 27.0177 60.7708 26.7587C60.7708 26.5783 60.7243 26.5136 60.5338 26.5089C60.3433 26.5043 60.334 26.6107 60.334 26.7495C60.334 27.1889 60.334 27.6237 60.334 28.0631C60.334 28.5025 60.334 28.9882 60.334 29.4507C60.334 29.5941 60.334 29.7051 60.5292 29.7005C60.9938 29.7005 61.4585 29.7005 61.9232 29.6728C62.0414 29.6726 62.1584 29.6479 62.2665 29.6003C62.3746 29.5526 62.4716 29.4831 62.5511 29.396C62.6307 29.309 62.6912 29.2063 62.7287 29.0947C62.7662 28.9831 62.7799 28.8649 62.7689 28.7477C62.779 28.5222 62.6992 28.3019 62.5469 28.1347C62.3946 27.9675 62.1821 27.8669 61.9557 27.855V27.855ZM61.8767 29.2796C61.5561 29.312 61.2355 29.2796 60.9148 29.2796C60.8033 29.2796 60.7708 29.2287 60.7754 29.127C60.7801 29.0252 60.7754 28.9142 60.7754 28.8078C60.7754 28.2019 60.7754 28.2019 61.3842 28.2157C61.5375 28.2157 61.6908 28.2157 61.8488 28.2157C61.9824 28.2194 62.109 28.2754 62.2013 28.3715C62.2935 28.4677 62.3439 28.5962 62.3414 28.7292C62.3546 28.7968 62.3524 28.8665 62.335 28.9332C62.3176 29 62.2855 29.062 62.241 29.1147C62.1964 29.1675 62.1406 29.2096 62.0776 29.2382C62.0146 29.2667 61.9459 29.2809 61.8767 29.2796Z" fill="#999EAB"/>
</g>
<defs>
<clipPath id="clip0_4066_27315">
<rect width="64" height="31" fill="white"/>
</clipPath>
</defs>
</svg>
