<svg width="184" height="30" viewBox="0 0 184 30" fill="none" xmlns="http://www.w3.org/2000/svg">
<g clip-path="url(#clip0_4066_27317)">
<path d="M0.000193529 14.391C0.0743655 14.3545 0.037278 14.2896 0.037278 14.2409C0.0673882 13.456 0.168056 12.6753 0.338091 11.9079C0.523069 10.9909 0.799106 10.094 1.16222 9.23009C1.6034 8.17537 2.17202 7.17683 2.85581 6.25606C3.22978 5.74959 3.6329 5.26461 4.06317 4.80352C4.78861 4.02392 5.5983 3.32463 6.47788 2.71806C6.77869 2.50707 7.09187 2.31232 7.40504 2.1338C7.51844 2.05539 7.6528 2.01164 7.79133 2.00803C7.92985 2.00443 8.06637 2.04111 8.18383 2.1135C8.29525 2.17798 8.38627 2.27171 8.44667 2.38421C8.50708 2.49671 8.53449 2.62354 8.52585 2.75051C8.52585 7.20547 8.52585 11.6604 8.52585 16.1154V16.3467C8.75273 16.1535 8.95976 15.9387 9.14395 15.7056C9.29641 15.5393 9.45299 15.377 9.60133 15.2066C9.98868 14.7562 10.4049 14.3221 10.8169 13.8879C10.8426 13.8572 10.861 13.8212 10.871 13.7827C10.8809 13.7441 10.8822 13.7038 10.8746 13.6648V7.13244C10.8746 6.70641 11.1095 6.42646 11.4721 6.42646C11.5736 6.41173 11.6772 6.41954 11.7752 6.44931C11.8733 6.47908 11.9633 6.53005 12.0388 6.59851C12.1142 6.66697 12.1732 6.75118 12.2113 6.84496C12.2494 6.93875 12.2658 7.03975 12.2592 7.14056C12.2592 8.69858 12.2592 10.2566 12.2592 11.8187V12.2569C12.4756 12.0793 12.6706 11.8779 12.8402 11.6564C12.9885 11.486 13.1451 11.3237 13.2935 11.1573C13.8044 10.5771 14.3401 10.0172 14.8676 9.44919C15.3181 8.9569 15.7659 8.4646 16.2109 7.97231C16.623 7.51789 17.035 7.05941 17.4471 6.60499C17.5017 6.54472 17.5692 6.49711 17.6447 6.46554C17.7202 6.43397 17.8019 6.41924 17.8839 6.4224H22.5361C22.6558 6.41291 22.7755 6.44072 22.8783 6.50188C22.9811 6.56304 23.0618 6.65447 23.1089 6.76323C23.1764 6.87562 23.2068 7.00592 23.1957 7.13606C23.1846 7.26621 23.1327 7.38973 23.0471 7.48948C22.8245 7.7451 22.5897 7.9926 22.3589 8.2401C21.7779 8.86493 21.1887 9.48976 20.6076 10.1186C20.3728 10.3661 20.1502 10.6177 19.9195 10.8693C19.3302 11.4981 18.7368 12.127 18.1517 12.76L16.9815 14.0177C16.4087 14.6385 15.8318 15.235 15.2549 15.8679L14.0764 17.1419C13.516 17.7586 12.9473 18.3591 12.3787 18.9718C11.9666 19.3775 11.604 19.8116 11.2084 20.2295C10.648 20.826 10.0917 21.4265 9.53542 22.0229C9.48647 22.0839 9.44107 22.1475 9.39943 22.2136H11.8224C11.8627 22.2178 11.9034 22.2126 11.9414 22.1985C11.9793 22.1845 12.0133 22.1618 12.0408 22.1324C12.4158 21.6902 12.8237 21.2804 13.2193 20.8544L14.4555 19.5236C14.8676 19.0975 15.2508 18.6675 15.6505 18.2374C16.0502 17.8073 16.4746 17.3529 16.8867 16.9066C17.0515 16.7281 17.2287 16.5617 17.3811 16.367C17.4477 16.2772 17.5348 16.2043 17.6354 16.154C17.736 16.1037 17.8473 16.0774 17.9601 16.0774C18.0729 16.0774 18.1842 16.1037 18.2848 16.154C18.3854 16.2043 18.4725 16.2772 18.5391 16.367C19.0624 17.0608 19.5898 17.7465 20.1296 18.4281C20.8095 19.2801 21.473 20.1484 22.1405 21.0086C22.8081 21.8687 23.4056 22.6315 24.0278 23.443C24.3203 23.8203 24.6253 24.1895 24.9055 24.575C24.9714 24.6683 25.025 24.6967 25.1321 24.575C25.946 23.7575 26.6546 22.8445 27.2419 21.8565C27.7513 21.0078 28.1658 20.1072 28.4781 19.1706C28.7297 18.419 28.9104 17.6462 29.0179 16.8619C29.0797 16.4562 29.1127 16.014 29.1415 15.5839C29.1415 15.2958 29.1786 15.0077 29.1663 14.7237C29.1368 14.0235 29.0638 13.3257 28.9479 12.6342C28.8064 11.8947 28.6052 11.1675 28.3462 10.4595C28.0078 9.51862 27.5642 8.61776 27.0235 7.7735C26.5975 7.11191 26.1165 6.48628 25.5854 5.90306C24.6691 4.90173 23.61 4.03662 22.4413 3.33477C21.5153 2.7796 20.5265 2.33297 19.4951 2.00396C18.8081 1.7845 18.1038 1.62164 17.3894 1.51707C16.7828 1.43315 16.1721 1.38168 15.5598 1.36289C15.1725 1.36289 14.7851 1.36289 14.4019 1.36289C13.7816 1.39682 13.1646 1.47548 12.5559 1.59823C12.1958 1.69889 11.8277 1.76947 11.4556 1.8092C11.3049 1.80859 11.1592 1.75584 11.0439 1.66017C10.9287 1.5645 10.8513 1.432 10.8252 1.28581C10.7863 1.11613 10.8139 0.938228 10.9025 0.787748C10.9911 0.637267 11.1343 0.525327 11.3032 0.474346C11.9258 0.315037 12.5573 0.191752 13.1946 0.105126C13.5116 0.0502481 13.8328 0.0217371 14.1547 0.019913C14.2 0.019913 14.2618 0.0523733 14.2907 -0.0166016H16.2521C16.2809 0.0523733 16.3428 0.019913 16.3881 0.019913C16.9544 0.041359 17.518 0.107854 18.0734 0.218731C18.8869 0.364217 19.6864 0.577304 20.4634 0.855725C21.5047 1.22943 22.5021 1.71233 23.4385 2.29609C24.1045 2.71432 24.7368 3.18229 25.3299 3.69587C25.9182 4.21321 26.4689 4.77044 26.9782 5.36344C27.5224 5.99643 28.0092 6.67526 28.4328 7.39211C28.9167 8.20507 29.3223 9.06084 29.6442 9.94823C29.9046 10.6689 30.1085 11.4081 30.2541 12.1595C30.3526 12.6965 30.4227 13.2382 30.4643 13.7824C30.4972 14.1598 30.5013 14.533 30.5137 14.9063C30.5234 15.3127 30.5069 15.7192 30.4643 16.1235C30.423 16.4887 30.3901 16.8538 30.3406 17.2149C30.2508 17.8149 30.1214 18.4086 29.9533 18.9921C29.6803 19.9743 29.3047 20.9261 28.8325 21.8322C28.3883 22.683 27.8626 23.49 27.2625 24.2423C26.752 24.8698 26.2015 25.4647 25.6142 26.0234C25.5275 26.1326 25.4146 26.219 25.2858 26.2748C25.1569 26.3306 25.016 26.3542 24.8756 26.3433C24.7353 26.3325 24.5998 26.2876 24.4813 26.2126C24.3629 26.1377 24.2651 26.0351 24.1967 25.9139C23.7352 25.2688 23.2325 24.6561 22.7463 24.0272C22.3534 23.516 21.9606 23.0061 21.5678 22.4976C21.0939 21.8849 20.6117 21.2804 20.1338 20.6637C19.6104 19.9861 19.0953 19.3045 18.5638 18.635C18.3825 18.4078 18.2053 18.1765 18.024 17.9453C17.9622 17.8601 17.9086 17.8357 17.8179 17.9453C17.4059 18.397 16.9938 18.8446 16.5817 19.2882C16.5199 19.3532 16.5817 19.3775 16.5817 19.4221L17.9127 21.2966C18.1971 21.7024 18.4731 22.1081 18.7657 22.5138C18.8592 22.6571 18.8969 22.8288 18.8719 22.9974C18.8469 23.1659 18.7609 23.3198 18.6297 23.4308C18.4755 23.5413 18.2834 23.5878 18.0947 23.5605C17.906 23.5332 17.7356 23.4342 17.6202 23.2847C17.0721 22.5179 16.5323 21.7429 15.9719 20.972C15.8565 20.8057 15.7164 20.6515 15.6093 20.4811C15.5516 20.3878 15.5227 20.4202 15.4733 20.4811C15.0901 20.8868 14.6986 21.2926 14.336 21.6983C14.1918 21.8647 14.0269 22.0107 13.8786 22.1771C13.5118 22.5828 13.1245 22.9885 12.7454 23.374C12.6902 23.4333 12.6225 23.48 12.5471 23.5108C12.4716 23.5417 12.3902 23.5559 12.3086 23.5525H7.81298C7.68137 23.5604 7.55051 23.5279 7.43836 23.4597C7.32622 23.3914 7.23828 23.2906 7.18663 23.1711C7.1245 23.048 7.10263 22.9089 7.12403 22.7731C7.14543 22.6372 7.20904 22.5112 7.30612 22.4124C7.6399 22.0432 7.99017 21.6902 8.32806 21.325C8.74013 20.8747 9.1522 20.4202 9.56426 19.982C9.97633 19.5439 10.3637 19.1259 10.7592 18.6959C11.3197 18.0832 11.8883 17.4787 12.457 16.8701C12.869 16.4643 13.2399 16.018 13.6396 15.5961C14.2 15.0037 14.7563 14.3991 15.3126 13.8027L16.5076 12.5125C17.068 11.912 17.6366 11.2953 18.1929 10.7029C18.5803 10.2728 18.9759 9.85086 19.3714 9.42889C19.8824 8.88521 20.3851 8.33341 20.9126 7.75727H19.7135C19.322 7.75727 18.9305 7.78567 18.5391 7.75727C18.4333 7.74869 18.3273 7.76917 18.2327 7.81646C18.1381 7.86374 18.0587 7.93596 18.0034 8.02506C17.8756 8.19952 17.719 8.34153 17.5913 8.49977C17.0803 9.07591 16.5529 9.63177 16.0337 10.1957C15.6917 10.565 15.3538 10.9382 15.0159 11.3074L13.3388 13.1454C13.0009 13.5187 12.6589 13.8839 12.3251 14.2612C11.7606 14.8941 11.1796 15.5149 10.6068 16.1397C10.1617 16.6266 9.72496 17.1176 9.27169 17.6004C8.94615 17.9493 8.62474 18.3023 8.31157 18.6634C8.2088 18.7588 8.08026 18.8229 7.94137 18.8481C7.80249 18.8733 7.65919 18.8585 7.52865 18.8054C7.4058 18.7519 7.30141 18.6643 7.22824 18.5533C7.15507 18.4424 7.11627 18.3129 7.11658 18.1806V3.97988C6.91334 4.08969 6.7262 4.22619 6.5603 4.38562C6.07698 4.75908 5.62119 5.16584 5.19636 5.60282C4.4947 6.33599 3.87319 7.1397 3.34206 8.00071C2.83496 8.84064 2.42053 9.73156 2.10586 10.6583C1.89085 11.2772 1.72687 11.9122 1.6155 12.5571C1.52484 13.0967 1.46303 13.6364 1.4177 14.1801C1.37578 14.6618 1.3689 15.1458 1.3971 15.6285C1.45234 16.7616 1.65169 17.8834 1.99048 18.9677C2.18846 19.577 2.42235 20.1745 2.69099 20.757C3.10547 21.643 3.61817 22.4812 4.21975 23.2563C4.71852 23.9136 5.28164 24.5211 5.90099 25.07C6.75304 25.8258 7.69207 26.4808 8.69891 27.0215C9.8132 27.6061 11.0024 28.04 12.2344 28.3118C12.7552 28.4245 13.2821 28.5071 13.8127 28.5593C14.5556 28.6389 15.304 28.6579 16.0502 28.6161C17.0693 28.564 18.0788 28.3952 19.0583 28.113C19.8409 27.8911 20.6032 27.6047 21.337 27.2569C21.5028 27.1808 21.6919 27.1705 21.8652 27.2279C22.0385 27.2852 22.1828 27.406 22.2683 27.5652C22.3133 27.6484 22.3399 27.7401 22.3464 27.8341C22.353 27.9282 22.3393 28.0226 22.3062 28.111C22.2731 28.1995 22.2215 28.2801 22.1546 28.3476C22.0877 28.415 22.0071 28.4678 21.918 28.5025C21.2022 28.8427 20.4594 29.1249 19.697 29.3464C19.0224 29.5471 18.3337 29.699 17.6366 29.8008C17.1504 29.8698 16.6642 29.9185 16.1738 29.9591C15.6254 30.0012 15.0748 30.0079 14.5255 29.9793C13.8089 29.9477 13.0955 29.865 12.391 29.7318C11.6761 29.5993 10.9713 29.4191 10.2813 29.1922C8.85631 28.7217 7.51365 28.0374 6.30069 27.1636C5.7439 26.7572 5.21015 26.321 4.70187 25.8571C3.77237 25.001 2.95934 24.0299 2.28304 22.9682C1.56883 21.8631 1.0141 20.6655 0.634779 19.41C0.41452 18.714 0.251911 18.0017 0.148544 17.2799C0.0608311 16.7592 0.00987687 16.2332 -0.00393116 15.7056C-0.00393116 15.665 0.0207943 15.6163 -0.0410156 15.592L0.000193529 14.391Z" fill="#999EAB"/>
<path d="M163.974 12.5944C164.308 11.8763 164.761 11.2392 165.152 10.5657C165.416 10.1154 165.696 9.67717 165.977 9.23086C165.992 9.19757 166.017 9.16962 166.048 9.15076C166.08 9.1319 166.117 9.12304 166.154 9.12536C166.566 9.12536 166.978 9.12536 167.365 9.12536C167.481 9.12536 167.497 9.16594 167.497 9.26331C167.497 11.0702 167.497 12.8744 167.497 14.6758C167.497 14.7894 167.464 14.8097 167.357 14.8097C166.974 14.8097 166.586 14.8097 166.203 14.8097C166.092 14.8097 166.067 14.7772 166.067 14.6718C166.067 13.6791 166.067 12.6823 166.067 11.6815C166.067 11.5679 166.15 11.4583 166.092 11.3204C165.9 11.7596 165.673 12.1829 165.412 12.5863C164.979 13.3044 164.543 14.0185 164.106 14.7367C164.093 14.761 164.074 14.7811 164.049 14.7941C164.025 14.8072 163.997 14.8126 163.97 14.8097C163.558 14.8097 163.146 14.8097 162.734 14.8097C162.569 14.8097 162.618 14.7123 162.618 14.6352V10.302C162.618 9.95712 162.618 9.60819 162.618 9.26331C162.618 9.15782 162.643 9.12131 162.754 9.12536C163.166 9.12536 163.55 9.12536 163.949 9.12536C164.056 9.12536 164.089 9.14972 164.085 9.25926C164.085 10.0707 164.085 10.8822 164.085 11.718C164.102 11.9725 164.081 12.228 164.023 12.4767C164 12.5129 163.983 12.5527 163.974 12.5944Z" fill="#999EAB"/>
<path d="M88.2077 12.6105C88.3395 12.3468 88.4467 12.0871 88.6198 11.8437C88.937 11.3284 89.242 10.805 89.5552 10.2856C89.7653 9.93671 89.9672 9.59184 90.1897 9.23479C90.2092 9.19666 90.2404 9.16555 90.2789 9.14588C90.3173 9.12621 90.3611 9.11898 90.404 9.12524C90.7831 9.12524 91.1581 9.12524 91.5372 9.12524C91.6773 9.12524 91.7185 9.14959 91.7185 9.29565C91.7185 10.4074 91.7185 11.515 91.7185 12.6267C91.7185 13.3002 91.7185 13.9778 91.7185 14.6554C91.7185 14.7731 91.7185 14.8177 91.566 14.8136C91.1828 14.8136 90.7996 14.8136 90.4122 14.8136C90.2969 14.8136 90.2515 14.8136 90.2515 14.6635C90.2515 13.852 90.2515 13.0406 90.2515 12.2291C90.2393 11.9329 90.26 11.6363 90.3133 11.3446C90.1198 11.7531 89.8995 12.1489 89.654 12.5294C89.209 13.2678 88.7599 14.0062 88.319 14.7447C88.3058 14.7693 88.2854 14.7895 88.2604 14.8026C88.2354 14.8156 88.207 14.8209 88.1788 14.8177C87.7668 14.8177 87.3547 14.8177 86.9426 14.8177C86.7819 14.8177 86.8314 14.7163 86.8314 14.6432V9.87179C86.8314 9.66486 86.8314 9.46605 86.8314 9.25101C86.8314 9.15769 86.8602 9.13336 86.9509 9.13336C87.363 9.13336 87.7462 9.13336 88.1459 9.13336C88.2365 9.13336 88.2613 9.15769 88.2613 9.25101C88.2613 10.2572 88.2613 11.2797 88.2613 12.2778C88.2283 12.3792 88.15 12.4888 88.2077 12.6105Z" fill="#999EAB"/>
<path d="M135.373 12.6266C135.571 12.2209 135.785 11.8151 136.032 11.4094L137.091 9.64852C137.178 9.50651 137.269 9.36857 137.347 9.2225C137.361 9.19529 137.383 9.17311 137.41 9.15923C137.438 9.14536 137.469 9.14052 137.499 9.14541C137.911 9.14541 138.323 9.14541 138.711 9.14541C138.843 9.14541 138.855 9.19004 138.851 9.29553V12.3264C138.851 13.1094 138.851 13.8884 138.851 14.6715C138.851 14.7892 138.83 14.8338 138.694 14.8297C138.319 14.8297 137.94 14.8297 137.561 14.8297C137.454 14.8297 137.417 14.8095 137.421 14.6959C137.421 13.718 137.421 12.7402 137.421 11.7624C137.441 11.6279 137.441 11.4912 137.421 11.3567C137.056 12.0961 136.643 12.8117 136.185 13.4989C135.933 13.9047 135.682 14.3104 135.439 14.7405C135.425 14.7713 135.402 14.7969 135.372 14.8137C135.342 14.8305 135.308 14.8375 135.274 14.8338C134.862 14.8338 134.479 14.8338 134.079 14.8338C133.927 14.8338 133.923 14.7729 133.927 14.6553V10.5695C133.927 10.1395 133.927 9.70938 133.927 9.2793C133.927 9.17381 133.955 9.14135 134.067 9.14541C134.479 9.14541 134.862 9.14541 135.258 9.14541C135.369 9.14541 135.398 9.17381 135.398 9.2793C135.398 10.1151 135.398 10.9469 135.398 11.7786C135.415 12.0614 135.407 12.3452 135.373 12.6266Z" fill="#999EAB"/>
<path d="M116.643 11.3442C116.207 12.1985 115.725 13.0288 115.197 13.8313C115.021 14.1235 114.848 14.4197 114.678 14.7199C114.664 14.7496 114.641 14.7743 114.612 14.7903C114.583 14.8064 114.55 14.813 114.517 14.8092C114.113 14.8092 113.709 14.8092 113.305 14.8092C113.202 14.8092 113.178 14.7808 113.178 14.6834C113.178 12.8738 113.178 11.0629 113.178 9.25059C113.178 9.15322 113.202 9.12482 113.305 9.12482C113.698 9.12482 114.09 9.12482 114.48 9.12482C114.579 9.12482 114.608 9.15322 114.608 9.25059C114.608 10.1635 114.608 11.0805 114.608 11.9934C114.608 12.18 114.566 12.3666 114.579 12.5817C114.731 12.3423 114.81 12.0948 114.946 11.8757C115.399 11.1454 115.831 10.4069 116.272 9.67256C116.326 9.60624 116.372 9.53409 116.408 9.45752C116.495 9.13699 116.722 9.10048 117.01 9.12077C117.298 9.14105 117.612 9.12077 117.917 9.12077C118.015 9.12077 118.044 9.14511 118.044 9.24654C118.044 11.0561 118.044 12.867 118.044 14.6793C118.044 14.7767 118.02 14.8051 117.917 14.8051C117.524 14.8051 117.132 14.8051 116.742 14.8051C116.643 14.8051 116.614 14.7808 116.614 14.6793C116.614 13.7786 116.614 12.8779 116.614 11.9731C116.619 11.7824 116.647 11.5795 116.643 11.3442Z" fill="#999EAB"/>
<path d="M132.433 11.9696C132.433 12.8622 132.433 13.7507 132.433 14.6393C132.433 14.7894 132.392 14.8138 132.252 14.8097C131.881 14.8097 131.51 14.8097 131.135 14.8097C130.987 14.8097 130.962 14.7651 130.962 14.6312C130.962 14.0104 130.962 13.3937 130.962 12.7729C130.962 12.6512 130.962 12.6025 130.802 12.6025C130.225 12.6025 129.648 12.6025 129.067 12.6025C128.935 12.6025 128.914 12.6472 128.914 12.7608C128.914 13.3856 128.914 14.0104 128.914 14.6353C128.914 14.761 128.914 14.8097 128.75 14.8057C128.366 14.8057 127.983 14.8057 127.596 14.8057C127.489 14.8057 127.443 14.8057 127.443 14.6677C127.443 12.8635 127.443 11.058 127.443 9.25115C127.443 9.1416 127.48 9.12133 127.583 9.12133C127.996 9.12133 128.379 9.12133 128.778 9.12133C128.894 9.12133 128.914 9.15784 128.91 9.25927C128.91 9.91656 128.91 10.5739 128.91 11.2271C128.91 11.3529 128.91 11.4015 129.071 11.3975C129.648 11.3975 130.225 11.3975 130.806 11.3975C130.938 11.3975 130.958 11.3569 130.958 11.2393C130.958 10.5901 130.958 9.9409 130.958 9.29173C130.958 9.16595 130.958 9.11727 131.123 9.12133C131.506 9.12133 131.89 9.12133 132.277 9.12133C132.409 9.12133 132.429 9.16189 132.429 9.27956C132.432 10.1776 132.433 11.0743 132.433 11.9696Z" fill="#999EAB"/>
<path d="M103.783 11.9655C103.783 12.8581 103.783 13.7467 103.783 14.6352C103.783 14.7772 103.75 14.8178 103.606 14.8097C103.227 14.8097 102.848 14.8097 102.473 14.8097C102.345 14.8097 102.312 14.7813 102.312 14.6555C102.312 14.0266 102.312 13.3937 102.312 12.7648C102.312 12.639 102.279 12.6065 102.155 12.6065C101.579 12.6065 100.998 12.6065 100.421 12.6065C100.297 12.6065 100.264 12.639 100.264 12.7648C100.264 13.3937 100.264 14.0266 100.264 14.6555C100.264 14.7813 100.231 14.8137 100.103 14.8097C99.7242 14.8097 99.3493 14.8097 98.9702 14.8097C98.8589 14.8097 98.8301 14.7813 98.8301 14.6758C98.8301 12.8716 98.8301 11.0661 98.8301 9.25923C98.8301 9.15374 98.8589 9.12127 98.9702 9.12533C99.3493 9.12533 99.7284 9.12533 100.103 9.12533C100.231 9.12533 100.264 9.15374 100.264 9.27951C100.264 9.9368 100.264 10.59 100.264 11.2473C100.264 11.369 100.297 11.4056 100.421 11.4015H102.155C102.279 11.4015 102.312 11.369 102.312 11.2473C102.312 10.59 102.312 9.9368 102.312 9.27951C102.312 9.15374 102.345 9.12127 102.473 9.12533C102.856 9.12533 103.243 9.12533 103.627 9.12533C103.754 9.12533 103.783 9.15779 103.783 9.27951C103.783 10.1775 103.783 11.0729 103.783 11.9655Z" fill="#999EAB"/>
<path d="M57.459 11.9655C57.459 11.0769 57.459 10.1884 57.459 9.29574C57.459 9.15373 57.4919 9.12127 57.6362 9.12533C59.1484 9.12533 60.6648 9.12533 62.1689 9.12533C62.3131 9.12533 62.3502 9.15779 62.3461 9.2998C62.3461 11.0769 62.3461 12.8554 62.3461 14.6352C62.3461 14.7772 62.3172 14.8178 62.173 14.8097C61.8104 14.8097 61.4519 14.8097 61.0934 14.8097C60.9492 14.8097 60.9162 14.7772 60.9162 14.6352C60.9162 13.2679 60.9162 11.8965 60.9162 10.5292C60.9162 10.3709 60.8791 10.3304 60.7184 10.3344C60.1745 10.3344 59.6264 10.3344 59.0701 10.3344C58.9259 10.3344 58.893 10.3709 58.893 10.5089C58.893 11.8803 58.893 13.2476 58.893 14.619C58.893 14.7772 58.8559 14.8178 58.6952 14.8137C58.3243 14.8137 57.9493 14.8137 57.5785 14.8137C57.4507 14.8137 57.4219 14.7813 57.4219 14.6596C57.4493 13.7534 57.4617 12.8554 57.459 11.9655Z" fill="#999EAB"/>
<path d="M44.1609 9.12479L43.3614 10.5083C43.1183 10.9384 42.8752 11.3685 42.6239 11.7945C42.6088 11.8137 42.6007 11.8372 42.6007 11.8615C42.6007 11.8857 42.6088 11.9092 42.6239 11.9284C43.1348 12.8454 43.6499 13.761 44.1691 14.6752C44.2227 14.7767 44.2144 14.8091 44.0991 14.8091C43.6293 14.8091 43.1595 14.8091 42.6939 14.8091C42.6637 14.8124 42.6332 14.8054 42.6077 14.7891C42.5822 14.7728 42.5631 14.7484 42.5538 14.7199C42.1994 14.0464 41.8492 13.3701 41.503 12.6912C41.4828 12.6349 41.4434 12.5873 41.3916 12.5562C41.3398 12.5252 41.2788 12.5127 41.2187 12.5208C40.852 12.5208 40.852 12.5208 40.852 12.886C40.852 13.4702 40.852 14.0585 40.852 14.6428C40.852 14.7645 40.8273 14.8051 40.6954 14.801C40.3163 14.801 39.9372 14.801 39.5622 14.801C39.4551 14.801 39.418 14.7807 39.418 14.6671C39.418 12.8657 39.418 11.0615 39.418 9.25463C39.418 9.13291 39.4633 9.11262 39.5705 9.11668C39.9496 9.11668 40.3286 9.11668 40.7077 9.11668C40.8355 9.11668 40.852 9.15725 40.8479 9.2668C40.8479 9.89163 40.8479 10.5165 40.8479 11.1372C40.8479 11.2955 40.9014 11.3036 41.0374 11.3239C41.3176 11.3563 41.4495 11.2427 41.5566 11.0033C41.8574 10.3947 42.2077 9.81049 42.5332 9.21811C42.5662 9.15725 42.595 9.11668 42.6733 9.11668C43.1595 9.12885 43.6417 9.12479 44.1609 9.12479Z" fill="#999EAB"/>
<path d="M174.527 11.957C174.527 11.0685 174.527 10.1758 174.527 9.28729C174.527 9.1534 174.56 9.125 174.696 9.125C175.805 9.125 176.917 9.125 178.026 9.125C178.162 9.125 178.199 9.15746 178.191 9.28729C178.191 9.59159 178.191 9.8959 178.191 10.1961C178.191 10.3179 178.162 10.3422 178.042 10.3422C177.416 10.3422 176.806 10.3422 176.159 10.3422C176.019 10.3422 175.982 10.3787 175.99 10.5086C175.99 10.7439 175.99 10.9752 175.99 11.2105C175.99 11.3119 176.023 11.3363 176.122 11.3322C176.608 11.3322 177.095 11.3322 177.585 11.3322C177.704 11.3322 177.733 11.3647 177.729 11.4783C177.729 11.7988 177.729 12.1234 177.729 12.4439C177.729 12.5656 177.696 12.59 177.581 12.5859C177.099 12.5859 176.617 12.5859 176.139 12.5859C176.015 12.5859 175.986 12.6184 175.99 12.732C175.99 12.9795 175.99 13.227 175.99 13.4704C175.99 13.5921 176.027 13.6165 176.143 13.6124C176.81 13.6124 177.474 13.6124 178.141 13.6124C178.281 13.6124 178.314 13.6489 178.306 13.7788C178.306 14.0831 178.306 14.3833 178.306 14.6876C178.306 14.785 178.306 14.8296 178.178 14.8296C177.003 14.8296 175.828 14.8296 174.655 14.8296C174.527 14.8296 174.527 14.7728 174.527 14.6836C174.527 13.7625 174.527 12.8578 174.527 11.957Z" fill="#999EAB"/>
<path d="M159.181 14.8827C158.672 14.9242 158.161 14.8259 157.706 14.5987C157.104 14.3103 156.634 13.8111 156.387 13.1989C156.194 12.7269 156.116 12.2168 156.16 11.7099C156.183 11.2435 156.324 10.7901 156.571 10.3916C156.818 9.99307 157.163 9.66224 157.574 9.42964C158.023 9.17378 158.534 9.04202 159.053 9.04825C159.637 9.01915 160.219 9.13789 160.743 9.39313C160.925 9.49814 161.099 9.6147 161.266 9.74207C161.357 9.80293 161.361 9.86379 161.303 9.9571C161.122 10.2411 160.949 10.5292 160.771 10.8132C160.718 10.8984 160.668 10.9227 160.565 10.8375C160.291 10.5923 159.953 10.4277 159.589 10.3624C159.225 10.2971 158.849 10.3338 158.505 10.4683C158.303 10.5523 158.126 10.6834 157.987 10.8502C157.849 11.0171 157.753 11.2147 157.71 11.4259C157.614 11.7211 157.6 12.0359 157.669 12.3381C157.738 12.6404 157.887 12.9193 158.101 13.1462C158.297 13.3541 158.55 13.5027 158.828 13.5745C159.107 13.6464 159.401 13.6385 159.675 13.5519C160.054 13.4493 160.398 13.2522 160.677 12.9798C160.743 12.9271 160.78 12.9027 160.837 12.9798C161.031 13.2598 161.221 13.5357 161.422 13.7913C161.44 13.8079 161.454 13.8282 161.462 13.8506C161.47 13.8731 161.474 13.8971 161.471 13.921C161.469 13.9448 161.461 13.9678 161.448 13.9882C161.436 14.0086 161.418 14.0259 161.398 14.0388C160.963 14.4585 160.41 14.741 159.811 14.8503C159.602 14.8763 159.392 14.8872 159.181 14.8827Z" fill="#999EAB"/>
<path d="M146.027 11.9655C146.027 11.0769 146.027 10.1884 146.027 9.29574C146.027 9.15373 146.064 9.12127 146.205 9.12533C147.303 9.12533 148.395 9.12533 149.48 9.12533C149.625 9.12533 149.662 9.15779 149.658 9.2998C149.658 9.60005 149.658 9.90434 149.658 10.2046C149.658 10.3141 149.629 10.3425 149.522 10.3425C148.887 10.3425 148.248 10.3425 147.614 10.3425C147.49 10.3425 147.453 10.375 147.457 10.5008C147.457 10.732 147.457 10.9674 147.457 11.1986C147.457 11.3082 147.49 11.3366 147.597 11.3325C148.092 11.3325 148.586 11.3325 149.081 11.3325C149.208 11.3325 149.237 11.365 149.237 11.4867C149.237 11.8113 149.237 12.1318 149.237 12.4524C149.237 12.5619 149.204 12.5903 149.097 12.5862C148.603 12.5862 148.108 12.5862 147.614 12.5862C147.486 12.5862 147.453 12.6228 147.457 12.7445C147.457 12.9879 147.457 13.2354 147.457 13.4789C147.457 13.5925 147.49 13.6168 147.597 13.6127C148.273 13.6127 148.945 13.6127 149.621 13.6127C149.748 13.6127 149.777 13.6493 149.773 13.771C149.773 14.0793 149.773 14.3877 149.773 14.6961C149.773 14.834 149.707 14.83 149.612 14.83C148.471 14.83 147.325 14.83 146.184 14.83C146.056 14.83 146.027 14.7934 146.031 14.6758C146.031 13.7588 146.027 12.8621 146.027 11.9655Z" fill="#999EAB"/>
<path d="M121.324 9.12507C121.848 9.12507 122.338 9.12507 122.824 9.12507C122.855 9.12113 122.886 9.12843 122.912 9.14562C122.938 9.16281 122.956 9.18869 122.964 9.21839C123.146 9.62412 123.343 10.0299 123.529 10.4356L124.176 11.8557C124.411 11.0442 124.703 10.2855 124.963 9.50646C125.086 9.13318 125.086 9.13319 125.474 9.13319H126.623C126.438 9.59978 126.261 10.0501 126.079 10.5005C125.709 11.4296 125.338 12.3628 124.963 13.292C124.814 13.7274 124.581 14.1299 124.275 14.4767C124.038 14.7234 123.713 14.8691 123.368 14.8824C122.872 14.9219 122.376 14.8023 121.955 14.5416C121.881 14.4889 121.835 14.4483 121.893 14.355C122.074 14.0629 122.247 13.7707 122.42 13.4745C122.474 13.3853 122.503 13.4015 122.577 13.4543C122.661 13.5288 122.759 13.5861 122.866 13.623C122.973 13.66 123.086 13.6757 123.199 13.6693C123.274 13.6645 123.346 13.6376 123.405 13.5922C123.433 13.5772 123.458 13.5562 123.477 13.5308C123.496 13.5054 123.509 13.4761 123.516 13.4452C123.522 13.4142 123.521 13.3822 123.513 13.3515C123.506 13.3208 123.491 13.2922 123.471 13.2676C123.014 12.4075 122.589 11.5351 122.128 10.675C121.843 10.1759 121.609 9.64846 121.324 9.12507Z" fill="#999EAB"/>
<path d="M83.2788 9.125C84.0411 9.125 84.8075 9.125 85.5699 9.125C85.6935 9.125 85.7306 9.1534 85.7265 9.27918C85.7265 9.58754 85.7265 9.8959 85.7265 10.2043C85.7265 10.3138 85.6976 10.3422 85.5864 10.3422C85.1125 10.3422 84.6386 10.3422 84.1647 10.3422C84.0164 10.3422 83.9875 10.3787 83.9875 10.5167C83.9875 11.8881 83.9875 13.2554 83.9875 14.6268C83.9875 14.785 83.9505 14.8256 83.7898 14.8215C83.4354 14.8215 83.0851 14.8215 82.7308 14.8215C82.5865 14.8215 82.5536 14.7891 82.5536 14.6471C82.5536 13.2797 82.5536 11.9083 82.5536 10.541C82.5536 10.3828 82.5165 10.3422 82.3558 10.3463C81.8736 10.3463 81.3956 10.3463 80.9135 10.3463C80.8023 10.3463 80.7734 10.3179 80.7734 10.2083C80.7734 9.89996 80.7734 9.5916 80.7734 9.28324C80.7734 9.15746 80.8105 9.12906 80.9341 9.12906C81.7253 9.12906 82.5041 9.125 83.2788 9.125Z" fill="#999EAB"/>
<path d="M171.02 9.125C171.791 9.125 172.561 9.125 173.332 9.125C173.455 9.125 173.492 9.1534 173.488 9.27918C173.488 9.58754 173.488 9.8959 173.488 10.2043C173.488 10.3138 173.459 10.3422 173.352 10.3422C172.862 10.3422 172.376 10.3422 171.89 10.3422C171.745 10.3422 171.712 10.3747 171.712 10.5167C171.712 11.8881 171.712 13.2554 171.712 14.6268C171.712 14.7809 171.675 14.8256 171.515 14.8215C171.16 14.8215 170.81 14.8215 170.455 14.8215C170.311 14.8215 170.278 14.7891 170.278 14.6471C170.278 13.2797 170.278 11.9124 170.278 10.541C170.278 10.3868 170.241 10.3422 170.081 10.3463C169.615 10.3463 169.145 10.3463 168.675 10.3463C168.568 10.3463 168.535 10.3179 168.539 10.2124C168.539 9.89996 168.539 9.5916 168.539 9.28324C168.539 9.15746 168.568 9.125 168.696 9.12906C169.483 9.12906 170.249 9.125 171.02 9.125Z" fill="#999EAB"/>
<path d="M181.536 9.125C182.306 9.125 183.077 9.125 183.848 9.125C183.971 9.125 184.004 9.15746 184 9.27918C184 9.58754 184 9.89996 184 10.2083C184 10.3179 183.971 10.3422 183.864 10.3422C183.374 10.3422 182.887 10.3422 182.401 10.3422C182.253 10.3422 182.224 10.3828 182.224 10.5207C182.224 11.8881 182.224 13.2594 182.224 14.6268C182.224 14.785 182.183 14.8256 182.026 14.8175C181.672 14.8175 181.318 14.8175 180.967 14.8175C180.819 14.8175 180.79 14.7809 180.79 14.643C180.79 13.2757 180.79 11.9043 180.79 10.537C180.79 10.3747 180.753 10.3381 180.592 10.3422C180.123 10.3422 179.657 10.3422 179.187 10.3422C179.076 10.3422 179.047 10.3097 179.051 10.2043C179.051 9.8959 179.051 9.58754 179.051 9.27918C179.051 9.14935 179.088 9.125 179.208 9.125C179.995 9.12906 180.769 9.125 181.536 9.125Z" fill="#999EAB"/>
<path d="M110.137 11.9492C110.137 11.0647 110.137 10.1802 110.137 9.29977C110.137 9.15776 110.17 9.12124 110.314 9.1253C110.701 9.1253 111.084 9.1253 111.472 9.1253C111.579 9.1253 111.608 9.1537 111.608 9.2592C111.608 11.0661 111.608 12.8716 111.608 14.6758C111.608 14.7812 111.579 14.8137 111.472 14.8096C111.06 14.8096 110.689 14.8096 110.297 14.8096C110.17 14.8096 110.137 14.7772 110.141 14.6555C110.141 13.7547 110.137 12.8499 110.137 11.9492Z" fill="#999EAB"/>
<path d="M40.8726 21.1995C41.1116 20.5625 41.3795 19.9823 41.6308 19.4102C41.6761 19.2966 41.7297 19.1871 41.7709 19.0735C41.7805 19.041 41.8015 19.0129 41.8302 18.9943C41.8589 18.9757 41.8934 18.9678 41.9275 18.972C42.3396 18.9517 42.3725 18.972 42.4014 19.3778C42.4302 19.7835 42.4426 20.1892 42.4797 20.595C42.525 21.1224 42.5786 21.6458 42.6321 22.1692C42.6321 22.295 42.6321 22.3721 42.459 22.364C42.0923 22.364 42.1129 22.364 42.0882 21.9947C42.047 21.4024 42.0182 20.8059 41.9399 20.2136C41.9336 20.1136 41.9336 20.0133 41.9399 19.9133C41.6926 20.4692 41.4577 20.9885 41.2393 21.5119C41.2179 21.5984 41.1625 21.6731 41.0852 21.7194C41.008 21.7658 40.9152 21.7802 40.8273 21.7594C40.7037 21.7594 40.6377 21.7391 40.5718 21.5931C40.3246 21.021 40.0485 20.4611 39.8218 19.8768C39.8218 20.3515 39.7518 20.8222 39.7312 21.2928C39.7225 21.6214 39.695 21.9492 39.6488 22.2747C39.6199 22.4573 39.3933 22.3234 39.2614 22.3558C39.2161 22.3558 39.1007 22.4005 39.1296 22.2909C39.1584 22.1814 39.1296 21.9623 39.1708 21.8081C39.2022 21.6065 39.2215 21.4033 39.2285 21.1995C39.2862 20.7938 39.2779 20.388 39.3191 19.9823C39.3479 19.678 39.3892 19.3778 39.3892 19.0735C39.3892 18.9964 39.4221 18.972 39.4922 18.9801H39.5128C39.9578 18.9598 39.9537 18.9801 40.1886 19.5198C40.4235 20.0594 40.6336 20.5625 40.852 21.0818C40.8622 21.1204 40.8691 21.1598 40.8726 21.1995Z" fill="#999EAB"/>
<path d="M109.481 19.7913C109.094 20.4365 108.657 21.0086 108.245 21.5969C108.121 21.7713 107.985 21.9458 107.878 22.1284C107.84 22.201 107.78 22.2604 107.706 22.2988C107.633 22.3372 107.549 22.3528 107.466 22.3434C107.215 22.3434 107.215 22.3434 107.215 22.0959C107.215 21.1181 107.215 20.1403 107.215 19.1625C107.215 19.0123 107.24 18.9555 107.409 18.9636C107.759 18.9636 107.759 18.9636 107.759 19.3045V21.0085C107.774 21.1894 107.76 21.3715 107.718 21.5482C108.08 20.968 108.488 20.4284 108.875 19.8725L109.378 19.1259C109.457 19.0607 109.55 19.0143 109.65 18.9904C109.75 18.9664 109.855 18.9656 109.955 18.988C110.013 19.0164 109.992 19.0651 109.992 19.1057V22.2258C109.992 22.315 109.967 22.3394 109.877 22.3394C109.489 22.3394 109.489 22.3394 109.489 21.9783L109.481 19.7913Z" fill="#999EAB"/>
<path d="M106.363 20.66C106.363 21.1672 106.363 21.6703 106.363 22.1775C106.363 22.3235 106.322 22.3519 106.182 22.3479C105.861 22.3479 105.861 22.3479 105.861 22.0152C105.861 21.6825 105.861 21.3498 105.861 21.013C105.861 20.9075 105.861 20.8588 105.72 20.8629C105.234 20.8629 104.744 20.8629 104.258 20.8629C104.142 20.8629 104.126 20.9034 104.126 21.0049C104.126 21.4106 104.126 21.7961 104.126 22.1937C104.126 22.3032 104.126 22.3479 103.986 22.3479C103.623 22.3479 103.623 22.3479 103.623 21.9989C103.623 21.0495 103.623 20.1042 103.623 19.1588C103.623 18.9965 103.668 18.964 103.825 18.9681C104.126 18.9681 104.126 18.9681 104.126 19.2805C104.126 19.5929 104.126 19.9621 104.126 20.303C104.126 20.4085 104.126 20.4571 104.266 20.4531C104.752 20.4531 105.242 20.4531 105.729 20.4531C105.844 20.4531 105.865 20.4125 105.861 20.3111C105.861 19.9053 105.861 19.4996 105.861 19.1223C105.861 19.0127 105.861 18.9681 106.005 18.9681C106.363 18.9681 106.363 18.9681 106.363 19.317V20.66Z" fill="#999EAB"/>
<path d="M53.2467 22.3434H53.0695C52.6286 22.3434 52.6327 22.3434 52.4185 21.9376C52.2042 21.5319 52.027 21.2438 51.8292 20.903C51.7533 20.8562 51.6684 20.8251 51.5798 20.8119C51.4912 20.7986 51.4008 20.8034 51.3141 20.8259C51.277 20.8624 51.3141 20.9111 51.3141 20.9517C51.3141 21.3574 51.3141 21.7632 51.3141 22.1689C51.3141 22.2866 51.2894 22.319 51.1699 22.319C50.7578 22.319 50.7578 22.319 50.7578 21.9133C50.7578 20.972 50.7578 20.0347 50.7578 19.0934C50.7578 18.9595 50.7867 18.9271 50.9226 18.9271C51.2976 18.9271 51.2976 18.9271 51.2976 19.3004C51.2976 19.6047 51.2976 19.909 51.2976 20.2092C51.2976 20.3106 51.3306 20.3188 51.4254 20.339C51.7756 20.4121 51.8663 20.1605 51.9981 19.9333C52.1836 19.6168 52.3814 19.3085 52.5709 18.992C52.5832 18.9708 52.6014 18.9535 52.6232 18.942C52.6451 18.9306 52.6698 18.9254 52.6945 18.9271H53.2014C53.0118 19.2354 52.8346 19.5235 52.6533 19.8116C52.5297 20.0104 52.4102 20.2173 52.2825 20.3999C52.2517 20.441 52.2351 20.4908 52.2351 20.5419C52.2351 20.593 52.2517 20.6428 52.2825 20.6839C52.5998 21.1992 52.9088 21.7226 53.2179 22.2419C53.2319 22.2744 53.2416 22.3085 53.2467 22.3434Z" fill="#999EAB"/>
<path d="M66.495 18.98C66.1777 19.475 65.8851 19.9335 65.5967 20.392C65.5553 20.4441 65.5327 20.5084 65.5327 20.5745C65.5327 20.6407 65.5553 20.705 65.5967 20.7571C65.9181 21.2562 66.2107 21.7715 66.5156 22.2827C66.5156 22.2827 66.5527 22.3192 66.5156 22.3517C66.4553 22.3456 66.3946 22.3456 66.3343 22.3517C66.2104 22.3824 66.0792 22.3656 65.9674 22.3045C65.8557 22.2435 65.7717 22.1428 65.7327 22.023C65.5472 21.666 65.3206 21.3252 65.1311 20.9762C65.0628 20.9115 64.979 20.865 64.8874 20.8408C64.7959 20.8167 64.6997 20.8158 64.6077 20.8383C64.5583 20.8748 64.583 20.9356 64.583 20.9803C64.583 21.386 64.583 21.7917 64.583 22.1975C64.583 22.3354 64.5418 22.3598 64.4099 22.3598C64.0391 22.3598 64.0391 22.3598 64.0391 21.9987C64.0391 21.0533 64.0391 20.1079 64.0391 19.1585C64.0391 19.0003 64.0885 18.9719 64.2286 18.9759C64.583 18.9759 64.583 18.976 64.583 19.3371C64.583 19.6982 64.583 19.9416 64.583 20.2459C64.583 20.3433 64.6077 20.3676 64.7149 20.3879C65.0486 20.4609 65.1269 20.2256 65.2753 20.0187C65.4731 19.6982 65.6667 19.3817 65.8522 19.0571C65.8637 19.0327 65.8825 19.0123 65.906 18.9985C65.9295 18.9848 65.9567 18.9783 65.984 18.98H66.495Z" fill="#999EAB"/>
<path d="M62.0938 18.8867C62.5108 18.8919 62.9179 19.0129 63.2682 19.2356C63.3877 19.3249 63.4578 19.3898 63.3177 19.5115C63.2818 19.5451 63.2549 19.5869 63.2394 19.6332C63.1941 19.7834 63.1075 19.7225 63.0375 19.6738C62.7653 19.475 62.4325 19.3734 62.0938 19.3857C61.8268 19.3891 61.5688 19.4817 61.3622 19.6482C61.1556 19.8148 61.0125 20.0456 60.9565 20.3027C60.8858 20.5764 60.9042 20.8651 61.0092 21.128C61.1142 21.3908 61.3005 21.6145 61.5417 21.7674C61.7559 21.8796 61.9966 21.9338 62.2391 21.9246C62.4816 21.9153 62.7173 21.8429 62.9221 21.7147C62.9551 21.6944 62.9839 21.67 63.0169 21.6538C63.0498 21.6376 63.1405 21.455 63.2394 21.524C63.3377 21.6092 63.42 21.7109 63.4825 21.8242C63.5237 21.877 63.4825 21.9013 63.4331 21.9297C63.152 22.1821 62.7973 22.3411 62.4194 22.3841C62.0297 22.4436 61.631 22.3782 61.2821 22.1975C61.0326 22.0697 60.8213 21.8802 60.6688 21.6475C60.5164 21.4149 60.4281 21.1472 60.4126 20.8707C60.3444 20.4264 60.4521 19.9732 60.7134 19.6048C60.8411 19.4149 61.0109 19.2559 61.2101 19.14C61.4092 19.024 61.6325 18.954 61.8631 18.9354C61.9661 18.9273 62.0526 18.8705 62.0938 18.8867Z" fill="#999EAB"/>
<path d="M48.9073 21.9302C49.2537 21.9274 49.5868 21.7989 49.8427 21.5691C49.9251 21.492 49.9705 21.4839 50.0446 21.5934C50.2507 21.9018 50.2589 21.9018 49.9375 22.1087C49.6895 22.2649 49.4067 22.3596 49.1134 22.3846C48.7255 22.4466 48.3277 22.378 47.9843 22.1899C47.7428 22.0588 47.5385 21.8701 47.3902 21.6412C47.2419 21.4122 47.1543 21.1503 47.1355 20.8793C47.0653 20.4224 47.1792 19.9565 47.4527 19.581C47.5856 19.4019 47.7544 19.2516 47.9485 19.1392C48.1427 19.0269 48.3583 18.9549 48.5818 18.9278C48.9407 18.8849 49.3047 18.9252 49.6449 19.0454C49.7336 19.0741 49.8171 19.1166 49.8922 19.1712C50.1683 19.3376 50.1518 19.3335 49.9787 19.6175C49.8963 19.7514 49.8427 19.7311 49.7356 19.654C49.556 19.5196 49.3458 19.4302 49.1233 19.3934C48.9008 19.3567 48.6725 19.3737 48.4582 19.4431C48.2629 19.5021 48.0878 19.6127 47.9519 19.763C47.816 19.9132 47.7246 20.0972 47.6876 20.2951C47.6128 20.5715 47.6297 20.8643 47.7356 21.1307C47.8416 21.3971 48.0312 21.6232 48.2769 21.776C48.4681 21.8848 48.6866 21.9382 48.9073 21.9302Z" fill="#999EAB"/>
<path d="M92.4136 20.5703C92.6225 20.644 92.794 20.795 92.8917 20.9912C92.9894 21.1874 93.0056 21.4134 92.9369 21.6212C92.8887 21.8323 92.7707 22.0217 92.6014 22.1597C92.4321 22.2978 92.2212 22.3766 92.0015 22.3839C91.7836 22.4131 91.562 22.3991 91.3497 22.3426C91.1373 22.2862 90.9387 22.1885 90.7653 22.0553C90.6705 21.9863 90.6046 21.9173 90.7447 21.8119C90.8848 21.7064 90.8642 21.6252 90.9425 21.6009C91.0208 21.5765 91.0867 21.7226 91.1732 21.7672C91.316 21.8676 91.4848 21.9259 91.6599 21.9352C91.8351 21.9446 92.0093 21.9046 92.1622 21.82C92.2698 21.76 92.3539 21.6663 92.4009 21.5537C92.448 21.4412 92.4553 21.3163 92.4218 21.1992C92.3752 21.093 92.299 21.0019 92.202 20.9366C92.105 20.8712 91.9912 20.8343 91.8738 20.83C91.7516 20.8239 91.6292 20.8239 91.507 20.83C91.4081 20.83 91.3669 20.8016 91.3834 20.7042C91.3875 20.6732 91.3875 20.6418 91.3834 20.6109C91.3504 20.4445 91.4164 20.3918 91.5853 20.408C91.7738 20.4287 91.9633 20.3795 92.1169 20.2701C92.2146 20.2075 92.2863 20.1124 92.3188 20.0022C92.3513 19.892 92.3425 19.774 92.2941 19.6696C92.2349 19.5529 92.138 19.4589 92.0187 19.4024C91.8993 19.3458 91.7643 19.3299 91.6348 19.3572C91.4269 19.3906 91.2311 19.4758 91.0661 19.6047C91.0167 19.6452 90.9796 19.6452 90.9301 19.5763C90.72 19.2801 90.7241 19.2435 91.0579 19.0813C91.2855 18.9517 91.5453 18.8873 91.8081 18.8952C92.0709 18.9031 92.3262 18.9829 92.5454 19.1259C92.6348 19.1885 92.7083 19.2704 92.7605 19.3653C92.8126 19.4603 92.842 19.5658 92.8462 19.6736C92.8851 19.8492 92.8637 20.0324 92.7854 20.1947C92.7071 20.357 92.5763 20.4891 92.4136 20.5703Z" fill="#999EAB"/>
<path d="M114.69 7.57535H114.921C115.11 7.57535 115.263 7.551 115.23 7.8269C115.23 7.98514 115.469 8.13932 115.679 8.14337C115.889 8.14743 116.132 7.9973 116.14 7.81878C116.148 7.64026 116.223 7.55506 116.425 7.57129C116.648 7.58346 116.873 7.58346 117.096 7.57129C117.195 7.57129 117.228 7.59563 117.224 7.69706C117.232 7.92309 117.167 8.14573 117.039 8.33356C116.911 8.52139 116.726 8.66491 116.511 8.74385C116.253 8.86055 115.971 8.92097 115.687 8.92097C115.403 8.92097 115.121 8.86055 114.863 8.74385C114.644 8.66528 114.456 8.51969 114.327 8.3284C114.198 8.13711 114.134 7.91018 114.146 7.68083C114.146 7.59968 114.166 7.56723 114.253 7.57129C114.34 7.57535 114.541 7.57535 114.69 7.57535Z" fill="#999EAB"/>
<path d="M70.8969 20.6435C70.8969 20.1363 70.8969 19.6332 70.8969 19.1301C70.8969 19.0124 70.8969 18.9678 71.0494 18.9678C71.5727 18.9678 72.1001 18.9678 72.6276 18.9678C72.743 18.9678 72.7924 18.9678 72.7883 19.1138C72.7883 19.4222 72.7883 19.4222 72.4792 19.4222C72.1702 19.4222 71.89 19.4222 71.5974 19.4222C71.4408 19.4222 71.3914 19.4465 71.3955 19.6129C71.3955 20.4568 71.3955 21.3048 71.3955 22.1487C71.3955 22.2989 71.3708 22.3557 71.2018 22.3475C70.8887 22.3475 70.8887 22.3475 70.8887 22.0432L70.8969 20.6435Z" fill="#999EAB"/>
<path d="M50.7577 11.4662C50.6875 10.8972 50.4315 10.3661 50.0284 9.95279C49.7317 9.63869 49.3666 9.39485 48.9605 9.23956C48.5545 9.08426 48.1179 9.02154 47.6837 9.05612C47.4978 9.05148 47.3118 9.06096 47.1274 9.08451C46.7021 9.15857 46.2992 9.32572 45.9483 9.57361C45.5974 9.8215 45.3075 10.1438 45.1001 10.5168C44.7968 11.0742 44.6841 11.713 44.7786 12.3385C44.8281 12.7717 44.9775 13.188 45.2154 13.5557C45.5751 14.128 46.1326 14.553 46.7854 14.7526C47.3205 14.909 47.8864 14.9341 48.4337 14.8257C48.8471 14.7515 49.2382 14.5859 49.5772 14.3413C49.9162 14.0967 50.1945 13.7795 50.391 13.4137C50.7322 12.8236 50.8614 12.1375 50.7577 11.4662ZM48.4007 13.4543C48.1502 13.5853 47.8642 13.6355 47.5832 13.5976C47.3022 13.5598 47.0403 13.4358 46.8348 13.2433C46.6159 13.0601 46.4481 12.825 46.3472 12.5602C46.2462 12.2954 46.2155 12.0096 46.258 11.7299C46.289 11.406 46.4234 11.1002 46.6417 10.856C46.86 10.6119 47.1512 10.442 47.4736 10.3707C47.6723 10.3338 47.8764 10.3362 48.0742 10.3776C48.272 10.4189 48.4595 10.4985 48.6258 10.6117C48.7921 10.7249 48.934 10.8695 49.0432 11.0371C49.1524 11.2046 49.2267 11.3918 49.2619 11.5879C49.2619 11.7218 49.2866 11.8476 49.299 12.0261C49.3005 12.3232 49.2171 12.6147 49.0582 12.8672C48.8994 13.1198 48.6715 13.3233 48.4007 13.4543Z" fill="#999EAB"/>
<path d="M69.5821 11.3076C69.4621 10.6619 69.1022 10.0833 68.5725 9.68464C68.0279 9.23955 67.3292 9.01991 66.6234 9.07198C66.3465 9.05177 66.0681 9.07645 65.7993 9.14502C65.3427 9.25456 64.9207 9.47384 64.5713 9.78326C64.2218 10.0927 63.9557 10.4826 63.7967 10.9181C63.5763 11.5108 63.5518 12.1569 63.7266 12.7642C63.8354 13.2177 64.0586 13.6369 64.3755 13.9829C64.6924 14.329 65.0928 14.5908 65.5397 14.7441C66.0903 14.9335 66.6826 14.9727 67.2539 14.8578C67.6908 14.7923 68.1056 14.6253 68.4639 14.3706C68.8222 14.1159 69.1137 13.7808 69.3143 13.3931C69.6452 12.7491 69.7398 12.0123 69.5821 11.3076ZM66.8666 13.5878C66.7844 13.5959 66.7015 13.5959 66.6193 13.5878C66.2827 13.5837 65.9571 13.4694 65.6938 13.263C65.4304 13.0566 65.2443 12.7697 65.1647 12.4477C65.081 12.2028 65.0579 11.9417 65.0974 11.6863C65.1368 11.4308 65.2376 11.1883 65.3914 10.9789C65.5109 10.801 65.669 10.6513 65.8542 10.5407C66.0395 10.4301 66.2474 10.3612 66.4629 10.3391C66.6784 10.317 66.8962 10.3421 67.1007 10.4128C67.3051 10.4834 67.4911 10.5978 67.6454 10.7477C67.8103 10.8987 67.941 11.0823 68.0291 11.2864C68.1171 11.4906 68.1605 11.7107 68.1563 11.9324C68.1733 12.3136 68.0533 12.6885 67.8174 12.9912C67.5816 13.294 67.2449 13.5052 66.8666 13.5878Z" fill="#999EAB"/>
<path d="M144.748 12.8655C144.731 12.6264 144.64 12.3982 144.486 12.2122C144.333 12.0263 144.125 11.8916 143.89 11.8268C143.993 11.7375 144.088 11.6605 144.175 11.5753C144.376 11.3436 144.5 11.0567 144.53 10.7534C144.56 10.4501 144.495 10.145 144.344 9.87929C144.17 9.63686 143.937 9.44142 143.666 9.31095C143.395 9.18049 143.095 9.11921 142.794 9.13274C142.065 9.10434 141.331 9.13274 140.598 9.13274C140.474 9.13274 140.441 9.16519 140.441 9.28691C140.441 11.0762 140.441 12.8696 140.441 14.6588C140.441 14.8049 140.491 14.8171 140.619 14.8171C141.22 14.8171 141.822 14.8171 142.428 14.8171C142.786 14.8369 143.146 14.7971 143.491 14.6994C143.872 14.6042 144.214 14.396 144.471 14.103C144.601 13.9261 144.692 13.7251 144.739 13.5123C144.787 13.2995 144.79 13.0794 144.748 12.8655ZM141.904 10.3662C141.999 10.2891 142.205 10.3662 142.366 10.3378C142.541 10.3159 142.719 10.3501 142.873 10.4351C142.953 10.4904 143.013 10.5694 143.044 10.6607C143.075 10.752 143.076 10.8507 143.046 10.9423C143.027 11.049 142.97 11.1457 142.886 11.2149C142.801 11.2841 142.694 11.3212 142.584 11.3196C142.386 11.3196 142.172 11.3196 141.991 11.3196C141.875 11.3196 141.867 11.271 141.871 11.1858C141.875 11.1006 141.871 10.9342 141.871 10.78C141.871 10.6258 141.801 10.4595 141.904 10.3662ZM143.272 13.1373C143.247 13.2655 143.178 13.3811 143.075 13.4641C142.973 13.547 142.844 13.5922 142.712 13.5918C142.465 13.5918 142.213 13.5918 141.962 13.5918C141.888 13.5918 141.863 13.5674 141.867 13.4944C141.867 13.3402 141.867 13.182 141.867 12.9913C141.867 12.8006 141.781 12.5855 141.904 12.48C142.028 12.3746 142.259 12.4557 142.444 12.4557C142.663 12.4172 142.888 12.4575 143.079 12.5693C143.168 12.6319 143.234 12.7205 143.269 12.8224C143.304 12.9244 143.305 13.0346 143.272 13.1373Z" fill="#999EAB"/>
<path d="M97.5819 12.9916C97.58 12.7316 97.495 12.4787 97.3389 12.269C97.1829 12.0592 96.9637 11.9032 96.7124 11.8231C97.0076 11.6382 97.2177 11.3469 97.2976 11.0116C97.3785 10.7672 97.3875 10.5052 97.3233 10.2559C97.2591 10.0067 97.1244 9.78058 96.935 9.6037C96.575 9.2931 96.1114 9.12408 95.6328 9.12898C94.8994 9.10464 94.1576 9.12898 93.4242 9.12898C93.2882 9.12898 93.2676 9.16955 93.2676 9.28721C93.2676 11.0751 93.2676 12.8658 93.2676 14.6591C93.2676 14.7809 93.3005 14.8174 93.4242 14.8133C94.0876 14.8133 94.7469 14.8133 95.4062 14.8133C95.7944 14.8203 96.1804 14.7542 96.5435 14.6186C96.8095 14.529 97.0478 14.374 97.2358 14.1682C97.371 14.0052 97.4714 13.8169 97.5309 13.6147C97.5904 13.4125 97.6077 13.2005 97.5819 12.9916ZM94.6974 10.7925C94.6974 10.6627 94.6274 10.4598 94.7263 10.3665C94.8252 10.2731 95.0271 10.3421 95.1878 10.3421C95.2931 10.3336 95.3991 10.3432 95.501 10.3705C95.6147 10.3938 95.716 10.4566 95.7865 10.5476C95.8569 10.6385 95.8916 10.7514 95.8842 10.8655C95.8742 10.9852 95.8201 11.097 95.732 11.18C95.6439 11.263 95.528 11.3113 95.4062 11.3159C95.2043 11.3159 94.9941 11.3159 94.7922 11.3159C94.7057 11.3159 94.6892 11.2834 94.6892 11.2063C94.6892 11.1293 94.6974 10.9507 94.6974 10.7925ZM95.6946 13.5596C95.3928 13.5982 95.088 13.6104 94.784 13.5961C94.6974 13.5961 94.6933 13.5555 94.6974 13.4906V13.02C94.6974 12.8699 94.6974 12.7157 94.6974 12.5656C94.6974 12.5209 94.6974 12.456 94.7593 12.4601C95.0893 12.4377 95.4208 12.4499 95.7482 12.4966C95.8561 12.536 95.9494 12.6068 96.0156 12.6995C96.0818 12.7922 96.1179 12.9026 96.1191 13.0159C96.1182 13.1397 96.0762 13.2598 95.9996 13.3579C95.923 13.4561 95.8159 13.5269 95.6946 13.5596Z" fill="#999EAB"/>
<path d="M79.9088 12.1193C79.5792 11.1618 79.2413 10.2124 78.9157 9.25484C78.8869 9.17369 78.8704 9.125 78.7715 9.125C78.3347 9.125 77.8979 9.125 77.4611 9.125C77.3787 9.125 77.3499 9.15746 77.3252 9.23861C77.2345 9.53073 77.1191 9.81475 77.0202 10.1028C76.8059 10.7236 76.6082 11.3484 76.3856 11.9692C76.0601 12.9105 75.7264 13.8478 75.3926 14.8093H76.8142C76.8966 14.8093 76.8966 14.7688 76.9172 14.712C77.012 14.3874 77.1232 14.0628 77.2057 13.7341C77.2304 13.6368 77.2634 13.6327 77.3416 13.6327C77.8485 13.6327 78.3553 13.6327 78.8622 13.6327C79.0352 13.6327 79.0311 13.7504 79.06 13.8478C79.1465 14.1358 79.2165 14.432 79.3237 14.7201C79.3237 14.7647 79.3237 14.8134 79.4061 14.8134H80.8401C80.5228 13.8964 80.2261 13.0079 79.9088 12.1193ZM78.5243 12.4967C78.2564 12.4967 77.9886 12.4967 77.7001 12.4967C77.5724 12.4967 77.5642 12.448 77.593 12.3506C77.7496 11.8637 77.9062 11.3768 78.0051 10.8778C78.0339 10.752 78.0586 10.6262 78.0875 10.4964C78.2029 10.963 78.2976 11.4174 78.4419 11.8556C78.4954 12.026 78.5243 12.2005 78.5861 12.3668C78.6479 12.5332 78.6314 12.4885 78.5243 12.4885V12.4967Z" fill="#999EAB"/>
<path d="M155.263 10.4596C155.17 10.0786 154.948 9.74011 154.633 9.49976C154.319 9.25942 153.931 9.13146 153.533 9.13688C152.77 9.13688 152.008 9.13688 151.242 9.13688C151.085 9.13688 151.027 9.15718 151.031 9.3357C151.031 10.2121 151.031 11.0885 151.031 11.9649V14.6711C151.031 14.7766 151.031 14.8253 151.172 14.8212C151.584 14.8212 151.967 14.8212 152.362 14.8212C152.478 14.8212 152.498 14.7847 152.498 14.6833C152.498 14.2045 152.498 13.7217 152.498 13.2429C152.498 13.0968 152.544 13.0766 152.68 13.0725C153.074 13.0922 153.47 13.0813 153.862 13.04C154.085 13.0049 154.298 12.9251 154.488 12.8058C154.677 12.6865 154.841 12.5301 154.967 12.3462C155.16 12.0754 155.287 11.7642 155.339 11.437C155.39 11.1098 155.364 10.7754 155.263 10.4596ZM153.459 11.7904C153.164 11.8638 152.859 11.8871 152.556 11.8594C152.474 11.8594 152.503 11.7904 152.503 11.7458C152.503 11.5307 152.503 11.3157 152.503 11.1006V10.4596C152.503 10.4068 152.503 10.3379 152.581 10.346C152.835 10.3386 153.09 10.3494 153.343 10.3784C153.453 10.3971 153.555 10.4447 153.639 10.5162C153.723 10.5877 153.786 10.6803 153.821 10.7842C153.892 10.9657 153.895 11.1664 153.828 11.3496C153.762 11.5328 153.63 11.6864 153.459 11.7823V11.7904Z" fill="#999EAB"/>
<path d="M75.1328 10.5934C75.073 10.1914 74.8697 9.8235 74.5593 9.5558C74.2489 9.2881 73.8518 9.13811 73.4392 9.13274C72.6521 9.10434 71.861 9.13274 71.0698 9.13274C70.9256 9.13274 70.8926 9.1652 70.8926 9.3072C70.8926 10.1958 70.8926 11.0843 70.8926 11.9769C70.8926 12.8695 70.8926 13.7662 70.8926 14.6629C70.8926 14.7887 70.9214 14.8211 71.0492 14.8171C71.42 14.8171 71.7909 14.8171 72.1659 14.8171C72.2936 14.8171 72.3225 14.7846 72.3225 14.6629C72.3225 14.1841 72.3225 13.7013 72.3225 13.2225C72.3225 13.0968 72.3596 13.0724 72.4832 13.0684C72.8845 13.088 73.2868 13.0771 73.6864 13.0359C73.9677 12.9952 74.234 12.8853 74.4609 12.7166C74.6877 12.5478 74.8678 12.3256 74.9844 12.0703C75.1949 11.6068 75.247 11.0885 75.1328 10.5934ZM73.2991 11.7862C72.9979 11.8541 72.688 11.876 72.3802 11.8512C72.2936 11.8512 72.3266 11.7822 72.3225 11.7375V10.4595C72.3225 10.4108 72.3019 10.3378 72.4008 10.3459C72.6525 10.3412 72.9042 10.3507 73.1548 10.3743C73.2851 10.3929 73.4062 10.451 73.5014 10.5404C73.5966 10.6298 73.6613 10.7461 73.6864 10.8733C73.7443 11.0459 73.737 11.2333 73.6659 11.401C73.5947 11.5687 73.4645 11.7055 73.2991 11.7862Z" fill="#999EAB"/>
<path d="M109.511 12.3347C109.435 11.9061 109.202 11.52 108.855 11.2499C108.509 10.9798 108.073 10.8446 107.632 10.87C107.397 10.87 107.158 10.87 106.919 10.87C106.808 10.87 106.783 10.8376 106.787 10.7321C106.787 10.2533 106.787 9.77454 106.787 9.29578C106.787 9.14971 106.746 9.1213 106.606 9.12536C106.231 9.12536 105.852 9.12536 105.473 9.12536C105.341 9.12536 105.316 9.16188 105.316 9.2836C105.316 10.1722 105.316 11.0607 105.316 11.9493C105.316 12.8378 105.316 13.7548 105.316 14.6555C105.316 14.7813 105.349 14.8138 105.477 14.8097C105.889 14.8097 106.334 14.8097 106.767 14.8097C107.205 14.8293 107.645 14.8185 108.081 14.7773C108.307 14.7422 108.523 14.6613 108.715 14.5398C108.907 14.4183 109.072 14.2587 109.198 14.0713C109.372 13.8202 109.49 13.5355 109.544 13.2361C109.598 12.9368 109.587 12.6295 109.511 12.3347ZM107.673 13.5519C107.404 13.6194 107.125 13.6387 106.849 13.6087C106.763 13.6087 106.792 13.5438 106.787 13.4992V12.8378C106.787 12.639 106.787 12.4321 106.787 12.2373C106.787 12.1116 106.829 12.0872 106.94 12.0953C107.148 12.0933 107.356 12.1055 107.562 12.1319C107.715 12.1745 107.851 12.2646 107.948 12.3889C108.045 12.5131 108.099 12.6648 108.102 12.8216C108.109 12.9687 108.072 13.1146 107.996 13.2414C107.919 13.3682 107.808 13.4705 107.673 13.5357V13.5519Z" fill="#999EAB"/>
<path d="M56.2267 10.371C56.1201 10.006 55.8937 9.68615 55.5827 9.46148C55.2718 9.23682 54.894 9.12004 54.5084 9.12943C53.7502 9.12943 52.9961 9.12943 52.2379 9.12943C52.0896 9.12943 52.0607 9.17001 52.0648 9.30796C52.0648 10.1925 52.0648 11.0729 52.0648 11.9574C52.0648 12.8419 52.0648 13.7629 52.0648 14.6636C52.0648 14.7854 52.0895 14.8219 52.2214 14.8178C52.5923 14.8178 52.9631 14.8178 53.334 14.8178C53.4576 14.8178 53.4947 14.7935 53.4947 14.6636C53.4947 14.1808 53.4947 13.6939 53.4947 13.2071C53.4947 13.1056 53.4947 13.0691 53.6266 13.0691C53.9562 13.0691 54.2818 13.0691 54.6114 13.0691C54.8359 13.0657 55.0574 13.0172 55.2622 12.9265C55.4669 12.8358 55.6507 12.7048 55.8023 12.5417C56.0667 12.252 56.246 11.8969 56.3208 11.5144C56.3956 11.1319 56.363 10.7366 56.2267 10.371ZM54.8669 11.2311C54.7433 11.6856 54.5702 11.8357 54.0428 11.8519C53.8614 11.8519 53.6307 11.9331 53.5153 11.8154C53.3999 11.6977 53.4906 11.4827 53.4865 11.3082V11.081C53.4865 10.8781 53.4865 10.6753 53.4865 10.4765C53.4865 10.375 53.4865 10.3264 53.6183 10.3385C53.8578 10.3312 54.0975 10.342 54.3353 10.371C54.5196 10.4189 54.678 10.5353 54.7771 10.6956C54.8762 10.856 54.9084 11.0479 54.8669 11.2311Z" fill="#999EAB"/>
<path d="M95.1667 18.9028C94.9332 18.8932 94.7001 18.9311 94.4821 19.0141C94.2641 19.0971 94.0658 19.2235 93.8996 19.3853C93.7333 19.547 93.6027 19.7408 93.5159 19.9545C93.429 20.1681 93.3878 20.3971 93.3948 20.6272C93.3826 20.8625 93.4203 21.0978 93.5056 21.318C93.5909 21.5382 93.7218 21.7385 93.8901 21.9061C94.0584 22.0737 94.2602 22.2049 94.4829 22.2914C94.7055 22.3778 94.944 22.4177 95.1832 22.4084C95.4177 22.4113 95.6503 22.3672 95.8669 22.2787C96.0835 22.1902 96.2795 22.0592 96.443 21.8937C96.6065 21.7282 96.734 21.5316 96.8178 21.3159C96.9016 21.1003 96.9399 20.8701 96.9303 20.6394C96.9372 20.4095 96.8962 20.1807 96.81 19.9669C96.7238 19.7532 96.5942 19.5591 96.429 19.3965C96.2639 19.2338 96.0667 19.1062 95.8496 19.0213C95.6325 18.9364 95.4002 18.8961 95.1667 18.9028ZM95.1255 21.9337C94.7976 21.9043 94.4927 21.7552 94.2708 21.5157C94.0489 21.2762 93.9261 20.9636 93.9264 20.6394C93.922 20.4768 93.9507 20.315 94.0108 20.1636C94.071 20.0121 94.1614 19.8741 94.2766 19.7576C94.3918 19.6411 94.5296 19.5485 94.6818 19.4854C94.8339 19.4222 94.9974 19.3896 95.1626 19.3897C95.3325 19.3893 95.5006 19.4234 95.6565 19.4898C95.8125 19.5562 95.9528 19.6536 96.0688 19.7758C96.1848 19.898 96.2739 20.0424 96.3307 20.2001C96.3875 20.3578 96.4107 20.5252 96.3988 20.6921C96.3863 21.0196 96.2478 21.3301 96.0114 21.5607C95.7749 21.7913 95.4582 21.9246 95.1255 21.9337Z" fill="#999EAB"/>
<path d="M55.2096 18.9034C54.9732 18.8919 54.7371 18.9291 54.5161 19.0125C54.2952 19.096 54.0944 19.2239 53.9265 19.3881C53.7586 19.5522 53.6273 19.7491 53.541 19.966C53.4547 20.183 53.4153 20.4153 53.4254 20.6481C53.4161 20.8814 53.4559 21.1141 53.5423 21.3316C53.6286 21.5491 53.7596 21.7467 53.9271 21.912C54.0946 22.0773 54.295 22.2068 54.5157 22.2923C54.7364 22.3778 54.9726 22.4175 55.2096 22.409C55.4458 22.4144 55.6807 22.3716 55.8992 22.2832C56.1178 22.1948 56.3154 22.0627 56.4796 21.8954C56.6438 21.728 56.7709 21.529 56.853 21.3108C56.9352 21.0926 56.9705 20.8601 56.9568 20.6278C56.9636 20.3999 56.9231 20.173 56.8377 19.961C56.7524 19.749 56.624 19.5564 56.4604 19.395C56.2969 19.2336 56.1016 19.1067 55.8865 19.0222C55.6714 18.9376 55.4411 18.8972 55.2096 18.9034ZM55.1684 21.9302C54.8354 21.9113 54.5228 21.7658 54.2968 21.5243C54.0707 21.2828 53.9489 20.9642 53.9569 20.6359C53.9573 20.4663 53.9925 20.2986 54.0602 20.1427C54.1279 19.9869 54.2268 19.846 54.351 19.7286C54.4753 19.6112 54.6223 19.5197 54.7832 19.4595C54.9442 19.3992 55.1158 19.3716 55.2879 19.3781C55.6014 19.4115 55.891 19.5589 56.0999 19.7916C56.3088 20.0243 56.4218 20.3254 56.4169 20.6359C56.4241 20.8023 56.3973 20.9684 56.3379 21.1244C56.2785 21.2804 56.1879 21.423 56.0714 21.5437C55.9549 21.6645 55.8149 21.7609 55.6598 21.8273C55.5046 21.8937 55.3375 21.9287 55.1684 21.9302Z" fill="#999EAB"/>
<path d="M44.923 18.9032C44.6884 18.8924 44.4541 18.9296 44.2349 19.0123C44.0156 19.095 43.8161 19.2216 43.6489 19.3839C43.4817 19.5462 43.3504 19.7409 43.2633 19.9556C43.1762 20.1704 43.1352 20.4005 43.1429 20.6316C43.1307 20.8664 43.1683 21.1012 43.2534 21.3209C43.3384 21.5406 43.4691 21.7404 43.637 21.9076C43.8048 22.0748 44.0063 22.2058 44.2284 22.292C44.4505 22.3783 44.6885 22.4181 44.9271 22.4087C45.1636 22.4136 45.3985 22.3702 45.6171 22.2814C45.8357 22.1925 46.0332 22.0601 46.1973 21.8924C46.3614 21.7248 46.4885 21.5255 46.5706 21.3071C46.6527 21.0887 46.688 20.856 46.6743 20.6235C46.68 20.3957 46.6385 20.1692 46.5525 19.9577C46.4664 19.7461 46.3375 19.5541 46.1737 19.3932C46.0099 19.2322 45.8145 19.1058 45.5995 19.0216C45.3845 18.9373 45.1543 18.8971 44.923 18.9032ZM44.89 21.93C44.5534 21.9173 44.2352 21.775 44.0041 21.5337C43.7729 21.2924 43.6471 20.9714 43.6538 20.6397C43.6531 20.469 43.6876 20.2998 43.7554 20.1426C43.8232 19.9855 43.9228 19.8435 44.0481 19.7255C44.1734 19.6074 44.3218 19.5157 44.4842 19.4559C44.6467 19.3962 44.8198 19.3696 44.993 19.3779C45.3073 19.4133 45.5967 19.5633 45.8041 19.7984C46.0116 20.0334 46.1221 20.3365 46.1139 20.6478C46.1194 20.8112 46.092 20.9741 46.0334 21.1271C45.9749 21.28 45.8861 21.4201 45.7724 21.5392C45.6587 21.6583 45.5222 21.7542 45.3708 21.8212C45.2194 21.8883 45.056 21.9252 44.89 21.93Z" fill="#999EAB"/>
<path d="M74.6959 18.9034C74.4596 18.8919 74.2234 18.9291 74.0025 19.0125C73.7815 19.096 73.5807 19.2239 73.4128 19.3881C73.2449 19.5522 73.1136 19.7491 73.0273 19.966C72.941 20.183 72.9017 20.4153 72.9117 20.6481C72.9019 20.8812 72.9411 21.1138 73.027 21.3313C73.1129 21.5488 73.2435 21.7464 73.4107 21.9118C73.5779 22.0772 73.778 22.2067 73.9985 22.2923C74.2189 22.3778 74.455 22.4176 74.6918 22.409C74.9282 22.4144 75.1632 22.3715 75.382 22.2832C75.6008 22.1948 75.7987 22.0628 75.9632 21.8956C76.1276 21.7283 76.2552 21.5293 76.3378 21.3111C76.4204 21.0929 76.4562 20.8603 76.4431 20.6278C76.4499 20.3999 76.4094 20.173 76.3241 19.961C76.2387 19.749 76.1104 19.5564 75.9468 19.395C75.7832 19.2336 75.5879 19.1067 75.3728 19.0222C75.1578 18.9376 74.9274 18.8972 74.6959 18.9034ZM74.6547 21.9302C74.3217 21.9113 74.0092 21.7658 73.7832 21.5243C73.5571 21.2828 73.4352 20.9642 73.4432 20.6359C73.4429 20.4649 73.4782 20.2957 73.5468 20.1386C73.6153 19.9816 73.7158 19.84 73.842 19.7225C73.9682 19.6051 74.1175 19.5143 74.2806 19.4558C74.4438 19.3973 74.6174 19.3722 74.7907 19.3822C75.1002 19.4182 75.3852 19.5659 75.5906 19.7967C75.7961 20.0275 75.9075 20.325 75.9033 20.6318C75.9111 20.7986 75.8846 20.9651 75.8255 21.1216C75.7664 21.278 75.6758 21.4211 75.5593 21.5423C75.4427 21.6635 75.3026 21.7603 75.1471 21.827C74.9917 21.8936 74.8242 21.9287 74.6547 21.9302Z" fill="#999EAB"/>
<path d="M68.4946 18.9032C68.2584 18.8923 68.0225 18.9299 67.8018 19.0136C67.5812 19.0973 67.3806 19.2252 67.2128 19.3892C67.0451 19.5533 66.9138 19.7499 66.8273 19.9665C66.7407 20.1832 66.7009 20.4152 66.7103 20.6479C66.7011 20.8812 66.7409 21.1139 66.8272 21.3314C66.9136 21.5489 67.0446 21.7464 67.2121 21.9118C67.3796 22.0771 67.58 22.2065 67.8007 22.2921C68.0213 22.3776 68.2576 22.4173 68.4946 22.4087C68.7309 22.413 68.9655 22.3692 69.1838 22.2802C69.4021 22.1911 69.5994 22.0587 69.7634 21.8911C69.9273 21.7236 70.0545 21.5245 70.1368 21.3064C70.2191 21.0883 70.2548 20.8558 70.2417 20.6235C70.248 20.3959 70.207 20.1695 70.1214 19.958C70.0359 19.7465 69.9074 19.5544 69.7439 19.3934C69.5804 19.2324 69.3853 19.1059 69.1705 19.0216C68.9557 18.9373 68.7257 18.8971 68.4946 18.9032ZM68.4657 21.93C68.1295 21.9183 67.8113 21.7769 67.58 21.5363C67.3487 21.2956 67.2228 20.9751 67.2295 20.6438C67.2282 20.4731 67.2623 20.3038 67.3295 20.1465C67.3968 19.9891 67.4959 19.8468 67.6208 19.7284C67.7457 19.61 67.8939 19.5178 68.0561 19.4575C68.2184 19.3973 68.3914 19.3702 68.5646 19.3779C68.8781 19.4141 69.1668 19.5636 69.3747 19.7975C69.5826 20.0314 69.6948 20.333 69.6896 20.6438C69.6956 20.8075 69.6687 20.9708 69.6104 21.1242C69.552 21.2777 69.4634 21.4182 69.3496 21.5378C69.2359 21.6574 69.0992 21.7536 68.9475 21.8209C68.7958 21.8882 68.6321 21.9253 68.4657 21.93Z" fill="#999EAB"/>
<path d="M79.8538 18.8991C79.6208 18.8929 79.3891 18.9336 79.1727 19.0188C78.9563 19.104 78.7599 19.2318 78.5956 19.3944C78.4312 19.557 78.3023 19.751 78.2168 19.9645C78.1313 20.1779 78.091 20.4063 78.0984 20.6356C78.0851 20.8681 78.1211 21.1007 78.204 21.3188C78.287 21.5368 78.415 21.7355 78.5801 21.9022C78.7452 22.069 78.9436 22.2001 79.1629 22.2872C79.3821 22.3744 79.6174 22.4158 79.8538 22.4087C80.303 22.4165 80.7375 22.2511 81.0647 21.948C81.3919 21.6448 81.5858 21.2277 81.605 20.7857C81.6294 20.5458 81.6021 20.3034 81.5249 20.0746C81.4478 19.8457 81.3225 19.6354 81.1572 19.4574C80.992 19.2794 80.7905 19.1376 80.5659 19.0414C80.3413 18.9452 80.0987 18.8967 79.8538 18.8991ZM79.8208 21.9299C79.4874 21.9131 79.1739 21.7688 78.9469 21.5279C78.7198 21.2869 78.5973 20.9682 78.6052 20.6397C78.6026 20.4686 78.636 20.2988 78.7032 20.141C78.7703 19.9832 78.87 19.8407 78.9957 19.7226C79.1215 19.6045 79.2706 19.5133 79.4339 19.4546C79.5972 19.396 79.771 19.3712 79.9444 19.3819C80.2569 19.4116 80.5462 19.5573 80.7536 19.7894C80.961 20.0215 81.071 20.3226 81.0611 20.6315C81.0725 20.7991 81.0486 20.9672 80.9908 21.1252C80.933 21.2832 80.8426 21.4277 80.7253 21.5497C80.6081 21.6716 80.4664 21.7684 80.3093 21.8338C80.1523 21.8992 79.9831 21.9319 79.8126 21.9299H79.8208Z" fill="#999EAB"/>
<path d="M59.4485 20.5507C59.5727 20.4691 59.672 20.3558 59.7359 20.2228C59.7998 20.0899 59.8258 19.9424 59.8111 19.7961C59.8111 19.5809 59.7243 19.3745 59.5697 19.2223C59.4152 19.0701 59.2056 18.9846 58.987 18.9846C58.5749 18.9643 58.1628 18.9846 57.7178 18.9846C57.6024 18.9846 57.5942 19.0333 57.5983 19.1185C57.5983 19.3254 57.5983 19.5242 57.5983 19.7433C57.5983 20.5548 57.5983 21.3866 57.5983 22.2061C57.5983 22.267 57.5489 22.3684 57.689 22.3603C58.1852 22.3861 58.6828 22.3711 59.1765 22.3157C59.3871 22.2936 59.5819 22.1956 59.7234 22.0405C59.8649 21.8855 59.9431 21.6843 59.943 21.4758C59.9745 21.2896 59.9432 21.0984 59.8539 20.9313C59.7646 20.7643 59.6222 20.6306 59.4485 20.5507ZM58.1422 19.4553C58.2246 19.3619 58.4307 19.4268 58.5831 19.4309C58.7391 19.4066 58.8987 19.4191 59.0488 19.4674C59.1275 19.5141 59.1925 19.5802 59.2373 19.6592C59.2821 19.7382 59.3052 19.8273 59.3043 19.9178C59.2989 20.0325 59.2519 20.1416 59.1717 20.225C59.0915 20.3084 58.9835 20.3606 58.8675 20.3722C58.6491 20.3722 58.4554 20.3722 58.2164 20.3722C58.1299 20.3722 58.1052 20.3438 58.1093 20.2627C58.1134 20.1815 58.1093 20.0111 58.1093 19.8853C58.1134 19.7393 58.0639 19.5445 58.1422 19.4553ZM58.8963 21.8897C58.6779 21.8897 58.4595 21.8897 58.2452 21.8897C58.1299 21.8897 58.101 21.8572 58.1093 21.7558C58.1175 21.6543 58.1093 21.488 58.1093 21.3257C58.1093 21.1634 58.0227 20.92 58.1463 20.8185C58.27 20.7171 58.4966 20.8185 58.682 20.7901C58.8212 20.7588 58.9672 20.7766 59.0944 20.8403C59.2217 20.9041 59.3222 21.0098 59.3784 21.1391C59.4188 21.219 59.4376 21.3078 59.433 21.3969C59.4283 21.4861 59.4004 21.5726 59.352 21.648C59.3035 21.7234 59.2361 21.7853 59.1563 21.8276C59.0765 21.87 58.987 21.8913 58.8963 21.8897Z" fill="#999EAB"/>
<path d="M99.4199 20.5381L99.5352 20.4448C99.6598 20.3174 99.7437 20.157 99.7767 19.9832C99.8096 19.8094 99.7901 19.63 99.7207 19.467C99.6544 19.3173 99.5439 19.1907 99.4035 19.1039C99.2631 19.017 99.0993 18.9739 98.9336 18.9801C98.5216 18.9801 98.1095 18.9801 97.718 18.9801C97.6109 18.9801 97.582 19.0085 97.582 19.114C97.582 20.1472 97.582 21.1819 97.582 22.2178C97.582 22.3233 97.6109 22.3558 97.718 22.3517C98.1301 22.3517 98.5422 22.3517 98.9542 22.3517C99.1236 22.3579 99.2916 22.3194 99.4408 22.2402C99.5901 22.161 99.7151 22.0441 99.8031 21.9014C99.8738 21.7883 99.92 21.6622 99.9389 21.5307C99.9579 21.3993 99.9491 21.2655 99.9131 21.1375C99.8771 21.0096 99.8148 20.8903 99.7299 20.7872C99.645 20.6841 99.5395 20.5993 99.4199 20.5381ZM98.1177 19.4548C98.2084 19.3777 98.4062 19.4223 98.5586 19.4304C98.7111 19.4386 98.9707 19.3696 99.1108 19.5441C99.1794 19.6092 99.2273 19.6926 99.2485 19.7842C99.2697 19.8757 99.2634 19.9713 99.2303 20.0593C99.2041 20.1477 99.1501 20.2256 99.076 20.2817C99.002 20.3379 98.9117 20.3694 98.8182 20.3717C98.6204 20.3717 98.4062 20.3717 98.2249 20.3717C98.1342 20.3717 98.0971 20.3717 98.1054 20.2581C98.1136 20.1445 98.1054 20.0066 98.1054 19.8524C98.1054 19.6982 98.0188 19.5359 98.1177 19.4548ZM98.88 21.8892C98.6575 21.8892 98.435 21.8892 98.2084 21.8892C98.1054 21.8892 98.0765 21.8608 98.0848 21.7634C98.093 21.666 98.0848 21.4754 98.0848 21.3293C98.0848 21.1548 98.0147 20.9236 98.0848 20.8221C98.1548 20.7207 98.4309 20.7978 98.6163 20.7897C98.9171 20.7897 99.1932 20.8181 99.3292 21.1426C99.3625 21.2204 99.3768 21.3048 99.371 21.3889C99.3652 21.4731 99.3394 21.5548 99.2958 21.6274C99.2521 21.7 99.1917 21.7615 99.1195 21.807C99.0473 21.8524 98.9653 21.8806 98.88 21.8892Z" fill="#999EAB"/>
<path d="M112.854 18.9805C112.441 18.9805 112.058 18.9805 111.659 18.9805C111.434 18.9844 111.218 19.0631 111.045 19.2036C110.55 19.5891 110.632 20.6399 111.251 20.8834C111.337 20.9199 111.354 20.9523 111.292 21.0457C111.024 21.4514 110.773 21.8855 110.488 22.3481C110.694 22.3481 110.855 22.3481 111.012 22.3481C111.039 22.35 111.067 22.3433 111.091 22.3287C111.115 22.3141 111.133 22.2925 111.143 22.2669C111.279 22.0275 111.428 21.7963 111.556 21.5528C111.729 21.2445 111.869 20.8955 112.347 21.0213C112.441 21.0213 112.466 21.0457 112.466 21.1349C112.466 21.427 112.466 21.7151 112.466 22.0072C112.466 22.2994 112.466 22.3521 112.833 22.3521C112.944 22.3521 112.973 22.3197 112.969 22.2142C112.969 21.1809 112.969 20.1463 112.969 19.1103C112.994 19.0008 112.961 18.9805 112.854 18.9805ZM112.441 20.5425C112.305 20.6318 112.058 20.5425 111.865 20.575C111.763 20.5816 111.662 20.5625 111.571 20.5197C111.479 20.4768 111.4 20.4116 111.342 20.3302C111.283 20.2489 111.247 20.1541 111.236 20.0549C111.225 19.9557 111.24 19.8554 111.279 19.7635C111.312 19.6714 111.373 19.5913 111.453 19.534C111.533 19.4767 111.629 19.445 111.729 19.443C111.939 19.443 112.141 19.443 112.359 19.443C112.454 19.443 112.483 19.4674 112.479 19.5566C112.479 19.7149 112.479 19.8731 112.479 20.0597C112.479 20.2464 112.569 20.4533 112.454 20.5344L112.441 20.5425Z" fill="#999EAB"/>
<path d="M84.5348 21.1222C84.5084 20.9275 84.42 20.746 84.2823 20.6039C84.1446 20.4617 83.9646 20.3662 83.7684 20.331C83.4714 20.3 83.1726 20.2892 82.8742 20.2986C82.7835 20.2986 82.7506 20.2783 82.7547 20.185C82.7547 19.9781 82.7547 19.7792 82.7547 19.5601C82.7547 19.4547 82.7835 19.4222 82.8907 19.4263H83.9868C84.2999 19.4263 84.2958 19.4262 84.2999 19.126C84.2999 19.0043 84.2711 18.9678 84.1433 18.9678C83.5665 18.9678 82.9896 18.9678 82.4127 18.9678C82.2932 18.9678 82.252 18.9962 82.252 19.122C82.252 19.6332 82.252 20.1444 82.252 20.6556C82.252 21.1669 82.252 21.6903 82.252 22.2055C82.252 22.307 82.252 22.3475 82.3838 22.3435C82.7959 22.3435 83.245 22.3435 83.6736 22.3435C83.8069 22.3413 83.9376 22.3072 84.0546 22.2443C84.1716 22.1815 84.2713 22.0916 84.3453 21.9824C84.434 21.8589 84.4965 21.7191 84.5291 21.5713C84.5617 21.4235 84.5636 21.2708 84.5348 21.1222ZM84.0238 21.459C84.0064 21.5841 83.9414 21.6981 83.842 21.7779C83.7426 21.8577 83.6161 21.8974 83.4882 21.8891C83.2904 21.8891 83.0761 21.8891 82.8948 21.8891C82.7918 21.8891 82.7464 21.8688 82.7547 21.7592C82.7629 21.6497 82.7547 21.4549 82.7547 21.3048V20.8544C82.7547 20.8057 82.7547 20.7449 82.8247 20.753C83.1 20.7354 83.3763 20.7476 83.6489 20.7895C83.7859 20.8335 83.9009 20.9271 83.9705 21.0514C84.0401 21.1757 84.0591 21.3214 84.0238 21.459Z" fill="#999EAB"/>
<path d="M90.4775 22.2261C90.1108 21.2361 89.7399 20.2461 89.3896 19.248C89.3196 19.0492 89.2578 18.9113 89.0105 18.9762C88.9034 19.0046 88.7551 18.8991 88.685 19.0898C88.3348 20.0757 87.9721 21.0535 87.6095 22.0354C87.4982 22.3438 87.4983 22.3438 87.832 22.3438C87.8705 22.3418 87.909 22.3418 87.9474 22.3438C88.0298 22.3438 88.0587 22.3438 88.0875 22.2423C88.1617 22.007 88.2688 21.7798 88.3347 21.5404C88.3376 21.5167 88.3455 21.4939 88.3579 21.4733C88.3703 21.4528 88.387 21.4351 88.4068 21.4213C88.4266 21.4075 88.4492 21.398 88.4729 21.3934C88.4967 21.3887 88.5213 21.3891 88.5449 21.3944C88.7097 21.3944 88.8787 21.3944 89.0435 21.3944C89.2083 21.3944 89.4968 21.3294 89.6245 21.4228C89.7523 21.5161 89.7811 21.7798 89.8429 21.9705C89.9748 22.3762 89.9706 22.3762 90.3951 22.3397C90.4899 22.3397 90.5269 22.3275 90.4775 22.2261ZM88.549 20.9399C88.6768 20.4693 88.8952 20.0311 89.0147 19.5239C89.1465 20.027 89.3278 20.4774 89.4803 20.9399H88.549Z" fill="#999EAB"/>
<path d="M103.099 22.2266C102.731 21.2447 102.374 20.2615 102.028 19.2769C101.958 19.0862 101.917 18.9239 101.645 19.005C101.455 18.9279 101.352 19.005 101.282 19.2038C100.952 20.1289 100.614 21.054 100.281 21.9831C100.132 22.3888 100.141 22.3888 100.606 22.3645C100.676 22.3645 100.693 22.3442 100.713 22.2752C100.767 22.0967 100.837 21.9223 100.899 21.7437C101.01 21.4191 101.01 21.4151 101.377 21.4151H101.653C101.863 21.4151 102.123 21.3339 102.267 21.4475C102.411 21.5611 102.419 21.8086 102.481 21.9993C102.609 22.3686 102.609 22.3645 103 22.3604C103.099 22.3442 103.157 22.3523 103.099 22.2266ZM101.179 20.9607C101.315 20.4778 101.55 20.0275 101.645 19.5041C101.76 20.0275 101.97 20.4819 102.118 20.9607H101.179Z" fill="#999EAB"/>
<path d="M87.4986 19.8125C87.4739 19.588 87.3677 19.3799 87.1997 19.2263C87.0316 19.0728 86.8129 18.9841 86.5838 18.9766C86.1717 18.9523 85.7596 18.9766 85.3476 18.9766C85.2116 18.9766 85.1992 19.0253 85.1992 19.1389C85.1992 19.6421 85.1992 20.1492 85.1992 20.6523V21.9953C85.1992 22.3605 85.1992 22.3564 85.5701 22.3564C85.6813 22.3564 85.706 22.3199 85.7019 22.2185C85.7019 21.8898 85.7019 21.5612 85.7019 21.2325C85.7019 21.123 85.7349 21.0946 85.842 21.0986C86.0975 21.0986 86.353 21.0986 86.6126 21.0986C86.8268 21.0978 87.0322 21.0148 87.1854 20.8674C87.3277 20.7345 87.4316 20.5669 87.4867 20.3816C87.5417 20.1962 87.5458 19.9998 87.4986 19.8125ZM86.798 20.5103C86.6693 20.6177 86.5053 20.6754 86.3365 20.6726C86.1264 20.6726 85.8503 20.7497 85.7267 20.6483C85.603 20.5468 85.7019 20.2425 85.6813 20.0518C85.6607 19.8612 85.5907 19.5487 85.7226 19.4595C85.8544 19.3702 86.1346 19.4311 86.3777 19.427C86.4968 19.415 86.6166 19.4408 86.7196 19.5007C86.8227 19.5605 86.9036 19.6513 86.9505 19.7597C87.0053 19.8839 87.022 20.0211 86.9985 20.1544C86.9751 20.2878 86.9126 20.4115 86.8186 20.5103H86.798Z" fill="#999EAB"/>
</g>
<defs>
<clipPath id="clip0_4066_27317">
<rect width="184" height="30" fill="white"/>
</clipPath>
</defs>
</svg>
