<svg width="1288" height="950" viewBox="0 0 1288 950" fill="none" xmlns="http://www.w3.org/2000/svg">
<g clip-path="url(#clip0_3566_28753)">
<path opacity="0.5" d="M1894.41 -290.909L705.797 926.121C677.262 955.337 630.271 955.337 601.737 926.121L-586.88 -290.909L1894.41 -290.909Z" fill="#4ED0C8"/>
<path opacity="0.5" d="M1714.73 -213.333L709.812 815.61C681.278 844.827 634.287 844.827 605.753 815.61L-399.169 -213.333L1714.73 -213.333Z" fill="#4ED0C8"/>
<path opacity="0.7" d="M1503.34 -101.818L709.808 710.682C681.274 739.898 634.283 739.898 605.749 710.682L-187.783 -101.818L1503.34 -101.818Z" fill="#4ED0C8"/>
<path opacity="0.5" d="M1302.52 0L709.809 606.879C681.274 636.095 634.284 636.095 605.749 606.879L13.0385 -5.6365e-05L1302.52 0Z" fill="#4ED0C8"/>
</g>
<defs>
<clipPath id="clip0_3566_28753">
<rect width="950" height="1288" fill="white" transform="translate(1288) rotate(90)"/>
</clipPath>
</defs>
</svg>
