<svg width="24" height="24" viewBox="0 0 24 24" fill="none" xmlns="http://www.w3.org/2000/svg">
<path fill-rule="evenodd" clip-rule="evenodd" d="M12 24C18.6274 24 24 18.6274 24 12C24 5.37258 18.6274 0 12 0C5.37258 0 0 5.37258 0 12C0 18.6274 5.37258 24 12 24ZM12.0003 21.2528C17.1106 21.2528 21.2533 17.1101 21.2533 11.9998C21.2533 6.88949 17.1106 2.74677 12.0003 2.74677C6.89 2.74677 2.74728 6.88949 2.74728 11.9998C2.74728 17.1101 6.89 21.2528 12.0003 21.2528Z" fill="#4ED072"/>
<path d="M16.8007 12.1744H16.1741C16.0006 12.1744 15.86 12.0343 15.86 11.8614C15.86 11.6886 16.0006 11.5485 16.1741 11.5485H16.8007C16.949 11.5492 17.0932 11.4992 17.2092 11.407C17.2298 11.3891 17.248 11.3733 17.2649 11.357C17.3848 11.239 17.4539 11.0792 17.4576 10.9115C17.4602 10.7411 17.3931 10.5769 17.2718 10.4568C17.1373 10.319 16.9528 10.2407 16.7598 10.2395H13.7556C13.6568 10.2395 13.5637 10.1932 13.5044 10.1143C13.445 10.0356 13.4265 9.93357 13.4542 9.83901C14.2727 7.04447 13.2111 6.67677 12.8622 6.55584C12.7727 6.52476 12.6737 6.53751 12.5951 6.59033C12.5147 6.64333 12.4642 6.731 12.4586 6.82678C12.374 8.20471 11.5199 9.62646 9.91991 11.0528C9.85821 11.1106 9.77574 11.1412 9.69118 11.1375C9.60661 11.1339 9.52703 11.0964 9.47059 11.0335C9.41415 10.9706 9.38557 10.8878 9.39136 10.8036C9.39706 10.7195 9.43667 10.6412 9.50117 10.5865C10.973 9.27409 11.7571 7.99629 11.8314 6.78858C11.8489 6.49808 12.0019 6.23237 12.2448 6.07058C12.4876 5.90879 12.7925 5.86958 13.0687 5.96441C14.2987 6.38998 14.667 7.61677 14.1662 9.61349H16.76C17.1222 9.61506 17.4687 9.76141 17.7217 10.0197C17.9618 10.2602 18.0933 10.5878 18.086 10.927C18.0788 11.2557 17.9437 11.5688 17.709 11.8002C17.6818 11.8273 17.652 11.8536 17.6218 11.8798C17.6186 11.8827 17.6123 11.8881 17.6093 11.8908V11.8907C17.3801 12.0743 17.0949 12.1744 16.8008 12.1744L16.8007 12.1744Z" fill="black"/>
<path d="M16.6812 13.5651H15.9959C15.8061 13.5651 15.6523 13.42 15.6523 13.2411C15.6523 13.062 15.8061 12.917 15.9959 12.917H16.6812C16.8436 12.9175 17.0013 12.8657 17.1282 12.7702C17.1488 12.7532 17.1694 12.7361 17.189 12.7184V12.7183C17.3248 12.592 17.401 12.4193 17.4001 12.2394C17.4005 12.0342 17.3021 11.8399 17.1327 11.7112C17.0594 11.6579 17.012 11.579 17.0011 11.4923C16.9903 11.4056 17.017 11.3185 17.0752 11.2507C17.1334 11.1828 17.2183 11.1399 17.3104 11.1318C17.4025 11.1237 17.4942 11.1509 17.5648 11.2074C17.8753 11.444 18.0645 11.7938 18.0852 12.1697C18.106 12.5456 17.9564 12.9121 17.6736 13.1778C17.6429 13.2068 17.6092 13.2351 17.5752 13.2631C17.5717 13.266 17.568 13.2689 17.5642 13.2717C17.3138 13.4614 17.0024 13.5649 16.6813 13.5652L16.6812 13.5651Z" fill="black"/>
<path d="M16.6817 15.3043H15.9961C15.8062 15.3043 15.6523 15.1585 15.6523 14.9787C15.6523 14.7989 15.8062 14.6531 15.9961 14.6531H16.6817C16.872 14.6541 17.0548 14.5823 17.1887 14.4542C17.3334 14.3182 17.4103 14.1304 17.4 13.9376C17.3897 13.7447 17.2931 13.5651 17.1346 13.4438C16.9924 13.3298 16.972 13.1293 17.0885 12.9916C17.205 12.854 17.416 12.8292 17.5644 12.9358C17.8679 13.168 18.056 13.5092 18.0836 13.8779C18.1112 14.2465 17.976 14.6094 17.7101 14.8799C17.4443 15.1505 17.0719 15.3042 16.6817 15.3044L16.6817 15.3043Z" fill="black"/>
<path d="M16.1314 16.6958H11.2987C10.5629 16.6953 9.87312 16.3261 9.44915 15.7056L9.39062 15.62L9.89411 15.2538L9.95263 15.3397C10.2612 15.7913 10.7632 16.0601 11.2987 16.0604H16.1314C16.3021 16.0601 16.4658 15.9899 16.5866 15.8652C16.7074 15.7406 16.7754 15.5717 16.7758 15.3954C16.7767 15.2514 16.7311 15.111 16.6462 14.9967L17.134 14.6089C17.3241 14.8672 17.4138 15.1896 17.3855 15.5126C17.3571 15.8357 17.2128 16.1362 16.9808 16.355C16.7487 16.5739 16.4458 16.6955 16.1314 16.6958L16.1314 16.6958Z" fill="black"/>
<path d="M8.88791 16.6955H6.75849C6.53356 16.6952 6.31791 16.6059 6.1589 16.4472C5.99989 16.2885 5.91042 16.0733 5.91016 15.8489V10.2375C5.91042 10.0131 5.99988 9.79797 6.1589 9.63931C6.318 9.48065 6.53356 9.39138 6.75849 9.39111H8.88791C9.11284 9.39137 9.32849 9.48064 9.4875 9.63931C9.64651 9.79797 9.73598 10.0131 9.73624 10.2375V15.8489C9.73598 16.0733 9.64652 16.2885 9.4875 16.4472C9.32849 16.6059 9.11284 16.6952 8.88791 16.6955ZM6.75849 10.0104C6.63282 10.0105 6.53096 10.1121 6.53087 10.2374V15.8489C6.53096 15.9743 6.63272 16.076 6.75849 16.0761H8.88791C9.01367 16.076 9.11544 15.9743 9.11553 15.8489V10.2374C9.11544 10.1121 9.01359 10.0105 8.88791 10.0104H6.75849Z" fill="black"/>
</svg>
