<svg width="96" height="37" viewBox="0 0 96 37" fill="none" xmlns="http://www.w3.org/2000/svg">
<g clip-path="url(#clip0_4066_27247)">
<path d="M3.84884 8.64097C5.85252 8.64505 7.84728 8.9188 9.78346 9.45544C11.5021 9.8688 13.0809 10.7593 14.3518 12.0322C14.5653 12.2617 14.7432 12.5209 14.9425 12.7726C16.3656 10.7512 18.4435 9.8775 20.6778 9.29996C22.4413 8.86939 24.246 8.64833 26.0574 8.64097C26.569 8.60025 27.0828 8.60025 27.5944 8.64097C28.242 8.64097 28.8895 8.71501 29.5371 8.72982C29.7648 8.72982 29.8431 8.78164 29.8431 9.0408C29.8431 11.462 29.8431 13.8833 29.8431 16.3046C29.8431 19.1627 29.8431 22.0233 29.8431 24.8863C29.8431 26.3672 29.8431 27.8481 29.8431 29.329C29.9181 30.6778 29.4841 32.0038 28.6334 33.0245C27.7828 34.0452 26.5827 34.6799 25.2889 34.7934C24.8682 34.8392 24.4448 34.8516 24.0223 34.8305C22.6418 34.8305 21.2542 34.8305 19.8737 34.8305C18.08 34.8942 16.3668 35.6214 15.0421 36.8815C15.0421 36.8815 15.0421 36.9482 14.9994 36.9852H14.8428C14.5958 36.5832 14.2556 36.2523 13.8537 36.0226C12.8874 35.3905 11.7891 35.0096 10.6516 34.9119C8.95852 34.7417 7.25638 34.6897 5.55664 34.7564C4.61076 34.8409 3.6592 34.6885 2.78146 34.3122C2.08824 33.9337 1.49054 33.3905 1.0368 32.7267C0.583068 32.0628 0.286088 31.2971 0.16995 30.4915C0.0773644 30.0514 0.0343628 29.6017 0.0418484 29.1513C0.0418484 25.0936 0.0418484 21.0385 0.0418484 16.9858C0.0418484 14.3794 0.0418484 11.8027 0.0418484 9.16668C0.0418484 8.84089 0.0916715 8.71501 0.45458 8.7002C1.08078 8.7002 1.70696 8.64096 2.33315 8.62615C2.83811 8.59508 3.34453 8.60004 3.84884 8.64097Z" fill="white"/>
<path d="M14.9655 7.90054C15.2786 7.30818 15.549 6.6936 15.8976 6.12346C17.2981 3.77718 19.4196 1.99238 21.9177 1.05882C23.2736 0.54991 24.6872 0.226355 26.1231 0.096251C27.2688 -0.0148156 28.4144 0.0296138 29.553 0.0296138C29.7522 0.0296138 29.8305 0.103662 29.8305 0.310986C29.8305 0.814488 29.8305 1.32539 29.8305 1.82889C29.8305 2.06583 29.7309 2.11767 29.5245 2.11767C28.7347 2.11767 27.9377 2.11767 27.1478 2.11767C24.9084 2.15261 22.7033 2.69591 20.6866 3.70962C18.3635 4.87712 16.4841 6.82223 15.3497 9.23333L14.937 10.0848C14.6809 9.57393 14.4674 9.08524 14.2254 8.60395C12.6608 5.77221 10.0901 3.69293 7.06687 2.81367C5.97948 2.48569 4.86426 2.2675 3.73665 2.1621C2.63369 2.05103 1.53785 2.11025 0.442007 2.10285C0.150257 2.10285 0.0364127 1.99177 0.0292969 1.72521C0.0292969 1.25133 0.0292969 0.770063 0.0292969 0.288774C0.0292969 0.0814494 0.14316 0.0296065 0.328172 0.0222021C3.1578 -0.225844 6.00397 0.21789 8.63949 1.31798C10.4607 2.12264 12.055 3.39677 13.2719 5.0202C13.8474 5.79582 14.3391 6.63514 14.7378 7.52291C14.7876 7.65619 14.8089 7.81909 14.9655 7.90054Z" fill="white"/>
<path d="M14.9508 12.2914C14.4933 11.4283 13.9073 10.646 13.2145 9.97378C11.6116 8.53262 9.67312 7.55472 7.59297 7.13789C5.25676 6.61359 2.8589 6.45139 0.477117 6.65659C0.114209 6.65659 0.0145902 6.56774 0.0359377 6.20493C0.0359377 5.68661 0.0359377 5.1683 0.0359377 4.64999C0.0359377 4.46488 0.0359273 4.3242 0.292098 4.30939C2.99921 4.07004 5.72465 4.41539 8.29744 5.32379C9.71279 5.82117 11.0191 6.60616 12.1405 7.63321C13.2619 8.66025 14.176 9.90888 14.8298 11.3066L14.9223 11.4769L14.9863 11.5509C15.6101 10.1307 16.5032 8.85633 17.6121 7.80429C19.4238 6.15144 21.6408 5.05434 24.0164 4.63519C25.8525 4.2787 27.7251 4.1692 29.5881 4.30939C29.8158 4.30939 29.9012 4.38343 29.8941 4.62778C29.8941 5.19792 29.8941 5.77547 29.8941 6.34561C29.8941 6.63438 29.7873 6.67139 29.5525 6.65659C28.57 6.5788 27.5842 6.55655 26.5994 6.58995C23.9368 6.60594 21.3103 7.23294 18.9072 8.42626C17.239 9.26244 15.8579 10.6117 14.9508 12.2914Z" fill="white"/>
<path d="M23.6743 20.9398C23.663 23.0241 22.9576 25.0399 21.6782 26.6439C20.3989 28.2478 18.6248 29.3406 16.6581 29.7362C16.4 29.8094 16.1353 29.8541 15.8682 29.8695C15.5267 29.8695 15.5195 30.0398 15.5266 30.3064C15.5338 30.5729 15.6334 30.7507 15.4413 30.8099C15.1931 30.8692 14.9352 30.8692 14.687 30.8099C14.5375 30.8099 14.6087 30.5804 14.6087 30.4545C14.6087 29.8473 14.6087 29.8769 14.0181 29.7955C13.0571 29.6725 12.1193 29.4004 11.2358 28.9884C11.1006 28.9292 11.0508 28.8773 11.1433 28.707C11.2358 28.5367 11.3283 28.1961 11.6627 28.085C11.9972 27.974 11.8691 27.6408 11.5774 27.4705C10.2437 26.7373 9.18045 25.5658 8.55311 24.1385C6.4824 19.1775 9.35008 14.6608 13.6409 13.6316C14.8506 13.3778 16.1034 13.4647 17.27 13.8833C17.3887 13.9281 17.5099 13.9652 17.6329 13.9944C17.6946 14.0111 17.7595 14.0106 17.821 13.993C17.8825 13.9753 17.9384 13.9412 17.9831 13.8939C18.0278 13.8466 18.0598 13.7878 18.0758 13.7236C18.0918 13.6594 18.0912 13.5918 18.0741 13.5279C18.0465 13.4413 18.0274 13.352 18.0172 13.2614C18.067 12.7134 18.2947 12.5727 18.7643 12.8245C20.0575 13.4683 21.1755 14.4382 22.0169 15.646C22.8582 16.8537 23.3961 18.2611 23.5818 19.7402C23.6069 19.9392 23.6211 20.1394 23.6245 20.34C23.6387 20.5399 23.6601 20.7398 23.6743 20.9398Z" fill="white"/>
<path d="M15.058 33.2459C13.7629 33.2459 12.4678 33.2459 11.1799 33.2459C10.881 33.2459 10.8739 33.1275 10.9237 32.9053C11.0073 32.5356 11.2048 32.2044 11.4862 31.9624C11.7676 31.7204 12.1173 31.5809 12.4821 31.5651H17.6624C18.015 31.5776 18.3545 31.7072 18.6311 31.9351C18.9077 32.163 19.1069 32.477 19.1994 32.8313C19.2706 33.1126 19.2421 33.2533 18.8935 33.2459C17.6126 33.2311 16.3317 33.2459 15.058 33.2459Z" fill="white"/>
<path d="M5.44293 25.6638C5.31833 26.479 5.41189 27.3142 5.71333 28.0777C5.40389 27.9464 5.13663 27.7264 4.94264 27.4432C4.74864 27.1601 4.6359 26.8255 4.61751 26.4783C4.60703 25.5329 4.85372 24.6037 5.32909 23.7979C5.40025 23.6498 5.47852 23.6498 5.59238 23.7609C6.75938 24.8345 7.29306 26.2784 6.36088 27.8703C6.28756 27.9661 6.24763 28.0848 6.24763 28.2072C6.24763 28.3296 6.28756 28.4484 6.36088 28.5441C6.8047 29.2283 7.37868 29.8105 8.04733 30.2546L10.0825 31.6614C10.1237 31.6807 10.1602 31.7094 10.1891 31.7455C10.2181 31.7816 10.2389 31.824 10.2499 31.8696C10.2608 31.9152 10.2617 31.9628 10.2524 32.0089C10.2432 32.0549 10.224 32.0981 10.1963 32.1353C10.1763 32.1805 10.1467 32.2204 10.1098 32.2522C10.073 32.2839 10.0298 32.3067 9.98335 32.3187C9.93693 32.3308 9.88848 32.3319 9.84161 32.3219C9.79473 32.312 9.75059 32.2912 9.71244 32.2612C7.89078 31.0098 6.31819 29.5289 5.65642 27.2632C5.58079 26.9967 5.52605 26.7243 5.49274 26.4487C5.46175 26.1883 5.44512 25.9262 5.44293 25.6638Z" fill="white"/>
<path d="M5.87039 28.8033C5.2809 28.823 4.6988 28.9457 4.14836 29.1661C4.8394 29.1008 5.53609 29.166 6.20483 29.3586C5.6255 30.0498 4.81181 30.4812 3.9339 30.5626C3.05598 30.644 2.18181 30.3692 1.49414 29.7955C2.54017 28.6256 4.56819 27.9962 5.87039 28.8033Z" fill="white"/>
<path d="M8.52499 26.7523C8.60074 27.3563 8.52726 27.9705 8.31151 28.5367C8.24497 28.6947 8.14724 28.8364 8.02464 28.9524C7.90204 29.0685 7.75733 29.1565 7.59992 29.2105C7.42202 29.2772 7.36511 29.2105 7.32241 29.0699C7.24184 28.836 7.2095 28.5871 7.22749 28.3393C7.24549 28.0916 7.31343 27.8505 7.42687 27.6319C7.54031 27.4133 7.69672 27.222 7.88592 27.0704C8.07512 26.9189 8.29287 26.8105 8.52499 26.7523Z" fill="white"/>
<path d="M15.0284 31.4467H13.3419C13.2708 31.4467 13.1712 31.4467 13.1498 31.3652C13.1285 31.2838 13.2139 31.2319 13.285 31.2023C13.4511 31.0997 13.6398 31.0435 13.8329 31.0394C14.6655 31.0394 15.4909 31.0394 16.3235 31.0394H16.4018C16.6366 31.0394 16.971 31.1209 16.9639 31.3208C16.9568 31.5207 16.6295 31.4245 16.4516 31.4319C15.9748 31.4467 15.5052 31.4467 15.0284 31.4467Z" fill="white"/>
<path d="M74.9228 3.76884V6.61214C74.9228 6.81947 75.0865 6.84169 75.2146 6.8713C75.3427 6.90092 75.4565 7.00459 75.4281 7.17489C75.3996 7.34519 75.2573 7.29336 75.1577 7.29336H74.0832C73.9907 7.29336 73.8555 7.3526 73.8555 7.17489C73.8555 6.99718 73.8555 6.92313 73.9907 6.88611C74.3038 6.81206 74.3109 6.56773 74.318 6.30117C74.3607 5.12386 74.4034 3.93915 74.4603 2.76185C74.4603 2.5101 74.4034 2.33979 74.1543 2.29536C73.9053 2.25094 73.9124 2.1843 73.9337 1.99919C73.9551 1.81408 74.1187 1.86591 74.2255 1.85851C74.6596 1.85851 75.0936 1.85851 75.5348 1.85851C75.7269 1.85851 75.7981 1.92514 75.8692 2.13247C76.2464 3.23573 76.6662 4.35379 77.1003 5.52369C77.5557 4.33158 77.9827 3.24314 78.3669 2.13988C78.4452 1.91774 78.5306 1.8511 78.7369 1.85851C79.171 1.85851 79.6051 1.85851 80.0391 1.85851C80.1388 1.85851 80.2882 1.78445 80.3096 1.98437C80.3309 2.18429 80.3095 2.25094 80.1245 2.27315C79.8186 2.31758 79.7687 2.51748 79.7759 2.81366C79.8328 4.0354 79.8755 5.25714 79.9111 6.47887C79.9027 6.5706 79.9282 6.66221 79.9824 6.73509C80.0366 6.80798 80.1154 6.85667 80.2028 6.8713C80.3523 6.8713 80.4732 6.95276 80.4519 7.15268C80.4305 7.3526 80.2384 7.29336 80.1245 7.29336C79.5126 7.29336 78.9006 7.29336 78.2815 7.29336C78.189 7.29336 78.0396 7.3674 78.0182 7.16748C77.9969 6.96756 78.0182 6.90832 78.2104 6.88611C78.495 6.84168 78.5519 6.65659 78.5519 6.37522C78.5519 5.48669 78.5519 4.60554 78.5519 3.71701H78.4096C77.9755 4.85729 77.5344 5.99019 77.1216 7.13788C77.0363 7.36741 76.958 7.44885 76.7232 7.44885C76.4883 7.44885 76.4456 7.36 76.3674 7.15268C75.9546 6.0198 75.5064 4.89432 75.0652 3.76884H74.9228Z" fill="white"/>
<path d="M86.5502 14.2239C87.1266 13.3872 87.703 12.5431 88.2651 11.699C88.4146 11.4769 88.3577 11.2918 88.0944 11.2103C87.8311 11.1289 87.7955 11.1289 87.8311 10.8993C87.8666 10.6698 88.0659 10.7512 88.194 10.7512C88.7775 10.7512 89.3681 10.7512 89.9587 10.7512C90.0583 10.7512 90.1935 10.6846 90.222 10.8771C90.2505 11.0696 90.1864 11.1659 90.0228 11.1881C89.7381 11.2326 89.6954 11.4177 89.6954 11.6694C89.6954 12.8689 89.6954 14.0685 89.6954 15.2606C89.6954 15.5345 89.7381 15.7344 90.037 15.7789C90.1935 15.7789 90.2362 15.9047 90.222 16.0602C90.2078 16.2157 90.0654 16.2009 89.9658 16.2009H88.0872C87.9805 16.2009 87.8453 16.2453 87.8311 16.0528C87.8168 15.8603 87.8667 15.7937 88.0232 15.7641C88.3007 15.7196 88.3434 15.5271 88.3434 15.2754C88.3434 14.4239 88.3434 13.5723 88.3434 12.7282C88.194 12.6838 88.1869 12.8097 88.1442 12.8763C87.6389 13.6168 87.1337 14.3572 86.6356 15.0977C86.3652 15.4975 86.3937 15.6012 86.8348 15.7863C86.8958 15.8037 86.9477 15.8452 86.9797 15.9019C87.0116 15.9586 87.0209 16.0261 87.0056 16.0899C87.0056 16.2602 86.8633 16.2157 86.7708 16.2157H84.8495C84.7428 16.2157 84.6147 16.2157 84.6076 16.0528C84.6005 15.8899 84.6432 15.8085 84.7784 15.7937C85.0772 15.7492 85.1199 15.5493 85.1199 15.2754C85.1199 14.0833 85.1199 12.8837 85.1199 11.6916C85.1199 11.4325 85.0772 11.2473 84.7997 11.1955C84.6503 11.1955 84.5934 11.077 84.6076 10.9141C84.6218 10.7512 84.7499 10.7587 84.8566 10.7587H86.7423C86.842 10.7587 86.9772 10.692 87.0056 10.8845C87.0341 11.0771 86.9629 11.1733 86.7993 11.1955C86.5218 11.2399 86.472 11.4251 86.472 11.6842C86.472 12.5209 86.472 13.3576 86.472 14.1943L86.5502 14.2239Z" fill="white"/>
<path d="M39.1947 23.2351C39.8209 22.3244 40.383 21.5099 40.931 20.6954C41.1515 20.3696 41.116 20.2289 40.7388 20.0882C40.5894 20.029 40.5253 19.9549 40.5396 19.7995C40.5538 19.644 40.7032 19.6662 40.8029 19.6662H42.6886C42.7882 19.6662 42.9305 19.5995 42.9519 19.7995C42.9591 19.8318 42.9596 19.8654 42.9532 19.898C42.9468 19.9306 42.9336 19.9613 42.9147 19.988C42.8957 20.0148 42.8714 20.0369 42.8435 20.053C42.8155 20.069 42.7845 20.0785 42.7526 20.0808C42.4893 20.1253 42.4182 20.2881 42.4182 20.5621C42.4182 21.769 42.4182 22.9834 42.4182 24.1903C42.4182 24.4643 42.4893 24.6198 42.7526 24.6716C42.7842 24.6729 42.8151 24.6814 42.8431 24.6966C42.8711 24.7118 42.8955 24.7333 42.9145 24.7595C42.9336 24.7857 42.9468 24.816 42.9533 24.8482C42.9597 24.8803 42.9592 24.9136 42.9519 24.9456C42.9519 25.1751 42.774 25.101 42.6672 25.101H40.8242C40.7175 25.101 40.5538 25.1751 40.5396 24.9456C40.5253 24.716 40.5823 24.6938 40.7388 24.6716C41.0163 24.6272 41.0662 24.4421 41.059 24.1829C41.059 23.3314 41.059 22.4799 41.059 21.6358C40.9452 21.5839 40.9238 21.6876 40.8883 21.7394L39.3228 24.0422C39.0951 24.3828 39.1306 24.5383 39.522 24.6864C39.6857 24.7456 39.7497 24.8345 39.7213 25.0048C39.6928 25.1751 39.5434 25.1233 39.4508 25.1233H37.5651C37.4655 25.1233 37.3232 25.1751 37.309 24.9752C37.3029 24.9429 37.3033 24.9097 37.3102 24.8776C37.3171 24.8456 37.3303 24.8153 37.3491 24.7888C37.3678 24.7624 37.3916 24.7403 37.419 24.7239C37.4464 24.7075 37.4768 24.6973 37.5082 24.6938C37.7857 24.6494 37.8356 24.4717 37.8356 24.2125C37.8356 23.013 37.8356 21.8135 37.8356 20.6214C37.8356 20.3548 37.8356 20.1401 37.5082 20.0957C37.3517 20.0957 37.3019 19.9624 37.3232 19.8069C37.3446 19.6514 37.4655 19.6884 37.558 19.681H39.4793C39.5861 19.681 39.7284 19.6292 39.7284 19.8291C39.7284 20.029 39.7284 20.066 39.5576 20.0882C39.2374 20.1327 39.1947 20.3474 39.2018 20.6288C39.2089 21.4507 39.1947 22.28 39.1947 23.2351Z" fill="white"/>
<path d="M70.6967 21.5617C70.1203 22.4058 69.5368 23.2426 68.9747 24.0941C68.8252 24.3236 68.8466 24.5605 69.1668 24.6494C69.3234 24.6938 69.4514 24.7531 69.4087 24.9678C69.366 25.1825 69.1882 25.0937 69.0743 25.0937C68.4766 25.0937 67.8717 25.0937 67.274 25.0937C67.1744 25.0937 67.0249 25.1677 67.0178 24.9604C67.0107 24.753 67.0178 24.7012 67.1957 24.6716C67.5017 24.6272 67.5515 24.4124 67.5444 24.1237C67.5444 22.9538 67.5444 21.7839 67.5444 20.614C67.5444 20.3252 67.5017 20.1105 67.1957 20.066C67.0178 20.066 67.0036 19.9106 67.0178 19.7699C67.032 19.6292 67.1673 19.6588 67.2598 19.6588H69.1739C69.2664 19.6588 69.3945 19.607 69.4087 19.7773C69.423 19.9476 69.4087 20.0438 69.2308 20.0735C69.053 20.1031 68.8964 20.2882 68.8964 20.5547C68.8964 21.3914 68.8964 22.2281 68.8964 23.0574C69.0245 23.1019 69.0458 23.0056 69.0814 22.9464L70.6113 20.725C70.8604 20.3622 70.8319 20.2586 70.4192 20.0957C70.3889 20.0896 70.3602 20.0771 70.3347 20.0591C70.3092 20.0411 70.2875 20.0179 70.2708 19.9909C70.2542 19.9639 70.243 19.9337 70.2379 19.9021C70.2328 19.8704 70.234 19.838 70.2413 19.8069C70.2413 19.607 70.405 19.681 70.5046 19.681H72.3832C72.4899 19.681 72.6251 19.6292 72.6322 19.8291C72.6393 20.029 72.6322 20.066 72.4615 20.0883C72.1626 20.1327 72.1199 20.3326 72.1199 20.5992C72.1199 21.7987 72.1199 22.9982 72.1199 24.1903C72.1199 24.4495 72.1626 24.642 72.433 24.6864C72.4645 24.6877 72.4954 24.6962 72.5234 24.7114C72.5514 24.7267 72.5759 24.7481 72.5949 24.7743C72.614 24.8005 72.6272 24.8308 72.6337 24.863C72.6401 24.8952 72.6396 24.9284 72.6322 24.9604C72.6322 25.1677 72.4899 25.1159 72.3903 25.1159H70.469C70.3836 25.1159 70.2484 25.1751 70.2413 24.9974C70.2342 24.8197 70.2413 24.7234 70.3978 24.7012C70.7252 24.6568 70.775 24.4198 70.7679 24.1237C70.7679 23.287 70.7679 22.4503 70.7679 21.6136L70.6967 21.5617Z" fill="white"/>
<path d="M82.8643 16.2009H81.9463C81.8396 16.2009 81.7044 16.2527 81.6901 16.0528C81.6759 15.8529 81.6901 15.8085 81.8538 15.7863C82.1882 15.7419 82.2381 15.5197 82.2238 15.2161C82.2238 14.7793 82.2238 14.335 82.2238 13.8981C82.2238 13.6834 82.1811 13.5871 81.9463 13.602C81.5549 13.602 81.1565 13.602 80.758 13.602C80.5516 13.602 80.4947 13.676 80.5018 13.8759C80.5018 14.3572 80.5018 14.8311 80.5018 15.3124C80.5018 15.5567 80.5658 15.7196 80.822 15.7641C80.8579 15.7649 80.893 15.7743 80.9249 15.7915C80.9567 15.8087 80.9843 15.8332 81.0056 15.8632C81.0269 15.8933 81.0413 15.928 81.0477 15.9647C81.0541 16.0014 81.0524 16.0391 81.0426 16.075C81.007 16.2527 80.8718 16.2009 80.7651 16.2009H78.8865C78.7869 16.2009 78.6446 16.2602 78.6232 16.0677C78.6019 15.8751 78.6232 15.8011 78.8082 15.7789C79.1213 15.727 79.164 15.5197 79.164 15.2309C79.164 14.061 79.164 12.8911 79.164 11.7212C79.164 11.4324 79.1213 11.2177 78.8011 11.1807C78.6446 11.1807 78.609 11.0474 78.6161 10.8919C78.6232 10.7364 78.7726 10.7513 78.8722 10.7439H80.8149C80.9287 10.7439 81.0497 10.7438 81.0568 10.9141C81.0639 11.0844 81.0141 11.1511 80.886 11.1733C80.5658 11.2177 80.516 11.4325 80.5231 11.7138C80.5302 11.9952 80.5231 12.4098 80.5231 12.7505C80.5231 12.9504 80.5658 13.0466 80.7793 13.0392C81.192 13.0392 81.5976 13.0392 82.0103 13.0392C82.2025 13.0392 82.2452 12.9578 82.2452 12.7727C82.2452 12.4691 82.2452 12.1655 82.2452 11.8545C82.2452 11.5435 82.2452 11.2103 81.8324 11.1141C81.6688 11.1141 81.7186 10.9364 81.7186 10.8253C81.7186 10.7142 81.8324 10.7068 81.9178 10.7068H83.9174C84.0099 10.7068 84.1024 10.7068 84.1095 10.8401C84.1166 10.9734 84.1095 11.0993 83.9743 11.1215C83.5901 11.1807 83.5972 11.4621 83.5972 11.7731C83.5972 12.9207 83.5972 14.061 83.5972 15.2013C83.5972 15.4679 83.5972 15.6826 83.9245 15.7344C84.0811 15.7344 84.1238 15.8677 84.1095 16.0232C84.0953 16.1787 83.953 16.1639 83.8462 16.1639L82.8643 16.2009Z" fill="white"/>
<path d="M86.0308 4.57595C86.0308 3.97619 86.0308 3.37644 86.0308 2.77668C86.0308 2.52493 85.9881 2.325 85.7106 2.28798C85.5469 2.28798 85.5113 2.1621 85.5184 2.00661C85.5255 1.85112 85.6679 1.85853 85.7675 1.85853C86.3937 1.85853 87.0199 1.85853 87.6532 1.85853C87.7457 1.85853 87.8951 1.79189 87.9094 1.99181C87.9236 2.19173 87.9094 2.25095 87.7315 2.28057C87.4468 2.325 87.3686 2.51011 87.3828 2.79148C87.4006 3.15159 87.4006 3.51243 87.3828 3.87254C87.3828 4.06506 87.4468 4.12429 87.6247 4.12429C88.0375 4.12429 88.443 4.12429 88.8558 4.12429C89.0764 4.12429 89.1048 4.02062 89.1048 3.83551C89.1048 3.51712 89.1048 3.19873 89.1048 2.87294C89.1048 2.54714 89.1048 2.3176 88.7277 2.26577C88.564 2.26577 88.5925 2.10287 88.5925 1.9844C88.5925 1.86593 88.6992 1.85853 88.7846 1.85853H90.777C90.8624 1.85853 90.9692 1.85854 90.9763 1.97701C90.9834 2.09548 91.0119 2.24356 90.8482 2.26577C90.4426 2.3176 90.4426 2.60637 90.4497 2.93216C90.4497 4.06504 90.4497 5.19794 90.4497 6.32341C90.4497 6.61219 90.4497 6.83432 90.7913 6.87875C90.9621 6.87875 90.9905 7.01942 90.9763 7.16751C90.9621 7.3156 90.8126 7.29339 90.7201 7.29339H88.8344C88.7419 7.29339 88.5925 7.36004 88.5854 7.16012C88.5783 6.9602 88.6209 6.90096 88.7775 6.87875C89.055 6.82691 89.1048 6.63439 89.0977 6.38264C89.0977 5.91863 89.0977 5.45216 89.0977 4.98321C89.0977 4.77589 89.0337 4.70184 88.8344 4.70184C88.4359 4.70184 88.0374 4.70184 87.639 4.70184C87.4468 4.70184 87.3686 4.76848 87.3757 4.98321C87.3757 5.44229 87.3757 5.90877 87.3757 6.37525C87.3757 6.6344 87.4255 6.82691 87.6959 6.87133C87.9663 6.91576 87.9236 7.00462 87.9022 7.17492C87.8809 7.34522 87.7315 7.29339 87.6318 7.29339H85.796C85.7106 7.29339 85.5754 7.36002 85.554 7.18972C85.5327 7.01942 85.554 6.91575 85.7177 6.88613C86.0379 6.8343 86.0735 6.61217 86.0664 6.3308C86.0237 5.74585 86.0308 5.1609 86.0308 4.57595Z" fill="white"/>
<path d="M46.3448 25.101H45.4198C45.3344 25.101 45.192 25.1603 45.1849 24.99C45.1778 24.8197 45.1422 24.716 45.3344 24.6864C45.6404 24.6346 45.6973 24.4272 45.6902 24.1385C45.6902 22.9686 45.6902 21.7987 45.6902 20.6288C45.6902 20.3474 45.6902 20.1179 45.3486 20.0734C45.192 20.0734 45.1778 19.9402 45.1778 19.8143C45.1778 19.6884 45.3272 19.6662 45.4269 19.6662H47.3695C47.462 19.6662 47.5901 19.6292 47.5901 19.7995C47.5901 19.9698 47.5901 20.0512 47.4407 20.0734C47.0706 20.1179 47.0493 20.377 47.0635 20.6806C47.0778 20.9842 47.0635 21.3248 47.0635 21.6432C47.0635 21.8357 47.1062 21.932 47.3197 21.9245C47.7253 21.9245 48.138 21.9245 48.5436 21.9245C48.7357 21.9245 48.7927 21.8653 48.7855 21.6728C48.7855 21.3569 48.7855 21.0385 48.7855 20.7176C48.7855 20.4066 48.7856 20.1253 48.4013 20.0734C48.2661 20.0734 48.2732 19.9327 48.2732 19.8217C48.2732 19.7106 48.3871 19.6736 48.4867 19.6736H50.4436C50.5361 19.6736 50.6641 19.6366 50.6641 19.8069C50.6641 19.9772 50.6641 20.0512 50.5503 20.066C50.1091 20.1179 50.1376 20.4436 50.1376 20.7694C50.1376 21.9023 50.1376 23.0352 50.1376 24.1607C50.1376 24.4346 50.1731 24.642 50.4649 24.6864C50.7566 24.7308 50.6926 24.8345 50.6641 24.9974C50.6357 25.1603 50.4934 25.1085 50.3937 25.1159H48.5507C48.4511 25.1159 48.2803 25.1973 48.2732 24.9604C48.2661 24.7234 48.3088 24.7086 48.4653 24.6864C48.7429 24.642 48.7927 24.4495 48.7855 24.1903C48.7855 23.7362 48.7855 23.2845 48.7855 22.8353C48.7855 22.5835 48.7073 22.5095 48.4796 22.5243C48.1095 22.5243 47.768 22.5243 47.3624 22.5243C47.1204 22.5243 47.0564 22.6058 47.0635 22.8427C47.0635 23.2944 47.0635 23.746 47.0635 24.1977C47.0635 24.4717 47.1347 24.642 47.398 24.6864C47.6613 24.7308 47.6185 24.8345 47.5901 24.9974C47.5616 25.1603 47.4193 25.1085 47.3197 25.1159L46.3448 25.101Z" fill="white"/>
<path d="M50.217 1.82888C51.014 1.82888 51.8038 1.82888 52.6008 1.82888C52.7147 1.82888 52.8926 1.72522 52.9281 1.96956C52.9637 2.21391 52.8428 2.2213 52.6862 2.25833C52.5297 2.29535 52.4087 2.44345 52.4158 2.66558C52.4158 3.91693 52.4158 5.16088 52.4158 6.41223C52.4158 6.65658 52.5012 6.78986 52.7218 6.83429C52.7569 6.83588 52.7913 6.8459 52.8221 6.86362C52.8529 6.88133 52.8793 6.90625 52.8993 6.93638C52.9193 6.96651 52.9323 7.00105 52.9373 7.0373C52.9423 7.07354 52.9392 7.11049 52.9281 7.14526C52.9281 7.33037 52.7502 7.25632 52.6577 7.25632H50.772C50.6866 7.25632 50.5515 7.32297 50.5372 7.14526C50.523 6.96756 50.5372 6.87871 50.7009 6.84909C51.0069 6.80466 51.0709 6.59734 51.0709 6.30117C51.0709 5.11646 51.0709 3.93914 51.0709 2.75443C51.0709 2.47306 50.9926 2.3842 50.7222 2.39901C50.4518 2.41382 50.0107 2.39901 49.6477 2.39901C49.4556 2.39901 49.3773 2.44345 49.3773 2.66558C49.3773 3.92434 49.3773 5.19049 49.3773 6.44924C49.3713 6.49208 49.3736 6.53574 49.384 6.57766C49.3944 6.61958 49.4127 6.65893 49.4379 6.6934C49.4631 6.72787 49.4946 6.75678 49.5306 6.77843C49.5666 6.80008 49.6065 6.81401 49.6477 6.81946C49.8043 6.81946 49.9466 6.91573 49.9039 7.13046C49.8612 7.34519 49.6762 7.25632 49.5552 7.25632C48.9575 7.25632 48.3527 7.25632 47.7549 7.25632C47.6553 7.25632 47.5059 7.32297 47.4916 7.12305C47.4774 6.92313 47.5272 6.87129 47.6909 6.84168C47.8545 6.81206 48.0182 6.61954 48.0111 6.35298C48.0111 5.14606 48.0111 3.93173 48.0111 2.72481C48.0111 2.45825 47.947 2.28795 47.6838 2.24352C47.4205 2.1991 47.4774 2.10285 47.4916 1.95476C47.5059 1.80667 47.6624 1.82147 47.762 1.82147L50.217 1.82888Z" fill="white"/>
<path d="M64.4489 22.2429C65.1177 22.3614 65.3312 22.8575 65.5162 23.3758C65.5803 23.5683 65.6514 23.7534 65.7226 23.9385C65.9361 24.5013 66.1068 24.5976 66.669 24.4643C66.7829 24.8271 66.6192 25.0122 66.299 25.0937C65.2031 25.3824 64.6694 25.0936 64.4062 24.1607C64.3065 23.8127 64.1927 23.4795 64.0788 23.1389C64.0276 22.9588 63.929 22.7972 63.7942 22.6724C63.7482 22.6254 63.6908 22.5924 63.6281 22.5767C63.5655 22.5611 63.4999 22.5634 63.4384 22.5835C63.3317 22.6354 63.3815 22.7761 63.3815 22.8723C63.3815 23.324 63.3815 23.7757 63.3815 24.2273C63.3815 24.4643 63.4384 24.6124 63.6661 24.6642C63.8938 24.716 63.9223 24.7605 63.9009 24.953C63.8796 25.1455 63.7159 25.101 63.6092 25.101H61.7662C61.6666 25.101 61.5242 25.1677 61.4887 24.9826C61.4531 24.7975 61.4887 24.7012 61.695 24.6716C61.9014 24.642 62.0223 24.442 62.0223 24.1755C62.0223 22.9834 62.0223 21.7839 62.0223 20.5917C62.0223 20.3104 61.9654 20.1179 61.6737 20.0734C61.51 20.0734 61.4744 19.9402 61.4887 19.7847C61.5029 19.6292 61.6381 19.6662 61.7235 19.6662H63.6875C63.7871 19.6662 63.8938 19.6662 63.9009 19.8217C63.9081 19.9772 63.9009 20.0512 63.7586 20.066C63.3672 20.1179 63.3672 20.3992 63.3815 20.7102C63.3957 21.0212 63.3815 21.3988 63.3815 21.7468C63.3815 21.9468 63.4598 21.9912 63.6305 21.9838C63.7934 21.9814 63.9511 21.9237 64.0796 21.8194C64.2081 21.7152 64.3002 21.5701 64.3421 21.4062C64.4987 20.999 64.6267 20.5769 64.8046 20.1845C64.8971 19.9467 65.0721 19.7538 65.2948 19.6441C65.5176 19.5344 65.7719 19.5158 66.0072 19.5921C66.1087 19.6227 66.2012 19.6788 66.2768 19.7556C66.3523 19.8324 66.4084 19.9274 66.4401 20.0323C66.4718 20.1371 66.4781 20.2484 66.4584 20.3563C66.4388 20.4643 66.3938 20.5655 66.3274 20.651C66.2973 20.703 66.2564 20.7474 66.2079 20.7812C66.1594 20.8149 66.1044 20.8372 66.0467 20.8464C65.989 20.8555 65.93 20.8514 65.874 20.8343C65.818 20.8172 65.7663 20.7874 65.7226 20.7472C65.4664 20.5177 65.3099 20.6362 65.1889 20.8805C65.1125 21.048 65.0482 21.2213 64.9968 21.3988C64.9245 21.7427 64.7285 22.0448 64.4489 22.2429Z" fill="white"/>
<path d="M68.3692 31.6244C68.7108 30.7136 69.0808 29.8103 69.3868 28.8921C69.4579 28.6922 69.5362 28.6182 69.7354 28.6256C70.0912 28.6256 70.447 28.6256 70.8099 28.6256C70.9096 28.6256 71.0234 28.6256 71.0377 28.7662C71.0519 28.9069 71.0021 28.9884 70.8811 29.0032C70.5894 29.0402 70.6107 29.2623 70.6178 29.4771C70.6178 30.4841 70.6819 31.4985 70.7032 32.5055C70.7032 32.7202 70.7672 32.8683 70.9807 32.9053C71.0097 32.9068 71.038 32.9148 71.0637 32.9288C71.0894 32.9428 71.1118 32.9625 71.1295 32.9865C71.1471 33.0104 71.1595 33.0381 71.1657 33.0676C71.172 33.0971 71.172 33.1276 71.1657 33.1571C71.1657 33.3496 71.0021 33.2904 70.9025 33.2904H69.4295C69.3156 33.2904 69.1591 33.3496 69.1306 33.1423C69.1021 32.935 69.216 32.9349 69.337 32.9053C69.4579 32.8757 69.586 32.7202 69.586 32.5203C69.586 31.7799 69.586 31.0394 69.586 30.299H69.4508L68.7392 32.1057C68.604 32.4685 68.4617 32.8461 68.3479 33.1867C68.2838 33.4014 68.1486 33.3866 67.9992 33.4014C67.8497 33.4162 67.7715 33.3274 67.7146 33.1645C67.3659 32.2241 67.003 31.2912 66.633 30.336C66.4764 30.4471 66.5262 30.5877 66.5191 30.7062C66.5191 31.306 66.5191 31.9057 66.5191 32.5055C66.5191 32.735 66.5191 32.8979 66.7753 32.9423C67.0314 32.9868 66.9318 33.0534 66.9318 33.1719C66.9318 33.2903 66.8108 33.32 66.7112 33.32H65.8644C65.7719 33.32 65.6439 33.3718 65.6154 33.2089C65.5869 33.046 65.6154 32.972 65.7577 32.935C65.9 32.8979 65.9925 32.698 65.9996 32.4981C65.9996 31.4985 66.0708 30.5063 66.1064 29.5363C66.1064 29.3142 66.1064 29.1068 65.836 29.0624C65.715 29.0624 65.6723 28.9513 65.6794 28.8255C65.6865 28.6996 65.8146 28.6922 65.9071 28.6848H67.0599C67.2165 28.6848 67.2591 28.744 67.3161 28.8995C67.6434 29.8325 67.9921 30.758 68.3265 31.6836L68.3692 31.6244Z" fill="white"/>
<path d="M44.8078 1.82889C45.3842 1.82889 45.9606 1.82889 46.537 1.82889C46.8002 1.82889 46.8643 1.91773 46.8501 2.16949C46.8358 2.42124 46.8501 2.75445 46.8501 3.04323C46.8501 3.17651 46.8501 3.32458 46.6793 3.32458C46.5085 3.32458 46.4018 3.32458 46.3306 3.11725C46.2786 2.9678 46.1982 2.83078 46.0942 2.71433C45.9902 2.59789 45.8647 2.50441 45.7253 2.43947C45.5859 2.37453 45.4353 2.33945 45.2826 2.33632C45.1298 2.33319 44.9781 2.36205 44.8363 2.42123C44.8004 2.43168 44.7696 2.4557 44.7498 2.48857C44.7301 2.52145 44.7228 2.56082 44.7295 2.59896C44.7295 3.08025 44.7295 3.56154 44.7295 4.03542C44.7295 4.1613 44.7936 4.19832 44.9003 4.19832C45.249 4.19832 45.6119 4.26495 45.7186 3.76885C45.7613 3.56893 45.8965 3.62818 46.0175 3.62077C46.1385 3.61337 46.1954 3.73182 46.1954 3.8577C46.1954 4.29456 46.1954 4.73142 46.1954 5.17569C46.1954 5.28675 46.1954 5.42744 46.046 5.42744C45.8965 5.42744 45.7613 5.46447 45.7258 5.24974C45.6902 5.03501 45.6119 4.82029 45.3201 4.79808C44.7366 4.75365 44.7366 4.73883 44.7366 5.3608C44.7366 5.694 44.7366 6.0272 44.7366 6.3604C44.7366 6.57513 44.8078 6.68619 45.0284 6.67879C45.249 6.67138 45.4838 6.67879 45.74 6.67879C46.1171 6.67879 46.295 6.41964 46.4516 6.08644C46.5085 5.93835 46.5156 5.74584 46.7576 5.74584C46.9995 5.74584 47.0564 5.79766 47.0137 6.03461C46.971 6.27155 46.907 6.71583 46.8714 7.06383C46.8714 7.22673 46.786 7.28596 46.6295 7.28596H43.0715C42.9861 7.28596 42.8723 7.32299 42.8652 7.1749C42.8581 7.02681 42.8652 6.91574 43.0004 6.89352C43.4131 6.84169 43.3918 6.53811 43.3918 6.21972C43.3918 5.07943 43.3918 3.93174 43.3918 2.79146C43.3918 2.5249 43.3918 2.31759 43.0644 2.27316C43.0321 2.27214 43.0004 2.26349 42.9717 2.24785C42.9431 2.23221 42.9182 2.20999 42.899 2.18289C42.8799 2.15578 42.8668 2.1245 42.861 2.09139C42.8551 2.05828 42.8565 2.02423 42.8652 1.99179C42.8652 1.79927 43.0217 1.8511 43.1213 1.8511L44.8078 1.82889Z" fill="white"/>
<path d="M82.8925 1.8289C83.4618 1.8289 84.0239 1.8289 84.5861 1.8289C84.8209 1.8289 84.9348 1.88073 84.9134 2.1547C84.8921 2.42866 84.9134 2.76926 84.9134 3.07284C84.9134 3.22093 84.9134 3.332 84.7071 3.332C84.5007 3.332 84.4295 3.33199 84.3868 3.13948C84.3442 2.94696 84.2801 2.59897 84.0026 2.4879C83.6295 2.39778 83.2439 2.3777 82.8641 2.42866C82.7431 2.42866 82.7716 2.56934 82.7716 2.65819C82.7716 3.09505 82.7716 3.53193 82.7716 3.96879C82.7716 4.1465 82.8285 4.20572 82.9921 4.20572C83.3266 4.20572 83.7037 4.24274 83.7678 3.76886C83.8105 3.53932 83.9813 3.62819 84.1093 3.62078C84.2374 3.61338 84.2374 3.76145 84.2374 3.85771C84.2374 4.27976 84.2374 4.70922 84.2374 5.13127C84.2374 5.24234 84.3157 5.42004 84.0951 5.42745C83.8745 5.43485 83.7962 5.42746 83.7678 5.21273C83.7642 5.10394 83.7211 5.00059 83.6471 4.92361C83.5732 4.84663 83.4738 4.80178 83.3693 4.79809C82.7858 4.74626 82.7858 4.73885 82.7858 5.35342V6.353C82.7858 6.49369 82.7858 6.61217 82.9495 6.664C83.0979 6.723 83.2562 6.7506 83.415 6.74521C83.5738 6.73982 83.73 6.70153 83.8744 6.63259C84.0189 6.56365 84.1487 6.46544 84.2562 6.34369C84.3637 6.22195 84.4468 6.07912 84.5007 5.92355C84.5932 5.70142 84.7426 5.73105 84.8992 5.74585C85.0557 5.76066 85.0131 5.95317 84.9988 6.05683C84.9561 6.44926 84.9988 6.95277 84.7853 7.19712C84.5719 7.44147 84.0738 7.26376 83.718 7.26376C82.8712 7.26376 82.0244 7.26376 81.1847 7.26376C81.0851 7.26376 80.9357 7.33781 80.9001 7.15269C80.8889 7.11734 80.8859 7.07974 80.8913 7.04294C80.8967 7.00615 80.9103 6.97121 80.9311 6.94092C80.9519 6.91063 80.9792 6.88587 81.0109 6.86863C81.0426 6.8514 81.0778 6.84216 81.1136 6.8417C81.3626 6.80468 81.4195 6.63438 81.4195 6.39004C81.4195 5.1609 81.4195 3.93917 81.4195 2.68782C81.4195 2.44347 81.3697 2.26577 81.1136 2.22874C81.0778 2.22828 81.0426 2.21904 81.0109 2.20181C80.9792 2.18457 80.9519 2.15981 80.9311 2.12952C80.9103 2.09924 80.8967 2.06429 80.8913 2.0275C80.8859 1.9907 80.8889 1.9531 80.9001 1.91775C80.9001 1.73264 81.078 1.79927 81.1847 1.79927C81.7469 1.82889 82.3162 1.8289 82.8925 1.8289Z" fill="white"/>
<path d="M83.4339 30.8321C83.6382 30.8785 83.8258 30.9836 83.9755 31.1354C84.1252 31.2873 84.2309 31.4797 84.2807 31.691C84.3661 31.9428 84.4586 32.1871 84.5583 32.4315C84.5941 32.5468 84.6681 32.6451 84.7672 32.7089C84.8663 32.7726 84.9839 32.7976 85.099 32.7795C85.1631 32.7795 85.2841 32.6536 85.3054 32.8239C85.3268 32.9942 85.3552 33.0756 85.2129 33.1793C85.0658 33.2836 84.8982 33.3524 84.7223 33.3807C84.5465 33.409 84.3667 33.396 84.1962 33.3428C84.0258 33.2896 83.8689 33.1974 83.737 33.0731C83.6051 32.9487 83.5016 32.7953 83.4339 32.624C83.313 32.276 83.1991 31.928 83.0781 31.5726C83.0439 31.4165 82.9519 31.2807 82.822 31.1949C82.6797 31.1135 82.5089 31.0764 82.5089 31.343V32.624C82.5089 32.8091 82.6298 32.8757 82.765 32.9128C82.7934 32.9158 82.8208 32.9253 82.8452 32.9407C82.8696 32.9561 82.8904 32.977 82.9061 33.0018C82.9218 33.0267 82.9319 33.0548 82.9358 33.0842C82.9398 33.1136 82.9373 33.1436 82.9287 33.1719C82.9287 33.3052 82.8077 33.2904 82.7224 33.2904H81.1142C81.0074 33.2904 80.8936 33.2904 80.8865 33.1423C80.8813 33.1163 80.8816 33.0894 80.8873 33.0635C80.893 33.0377 80.904 33.0134 80.9195 32.9923C80.935 32.9713 80.9548 32.9539 80.9773 32.9414C80.9998 32.929 81.0247 32.9217 81.0501 32.9202C81.2849 32.8757 81.3276 32.7128 81.3276 32.4833C81.3276 31.4615 81.3276 30.4323 81.3276 29.4105C81.3276 29.2031 81.3277 29.0402 81.0644 29.0032C81.0354 29.0016 81.0072 28.9929 80.982 28.9779C80.9569 28.9629 80.9355 28.9419 80.9196 28.9167C80.9036 28.8915 80.8936 28.8627 80.8904 28.8327C80.8871 28.8027 80.8906 28.7724 80.9007 28.7441C80.9363 28.5886 81.0572 28.633 81.1498 28.633H82.6868C82.7793 28.633 82.9074 28.5812 82.9287 28.7441C82.9374 28.7729 82.9397 28.8035 82.9353 28.8334C82.931 28.8633 82.9202 28.8918 82.9038 28.9168C82.8873 28.9417 82.8657 28.9625 82.8404 28.9774C82.8152 28.9924 82.787 29.0012 82.7579 29.0032C82.5302 29.0476 82.4946 29.2105 82.5018 29.4179C82.5089 29.6252 82.5018 29.9806 82.5018 30.2546C82.5018 30.5285 82.6441 30.721 82.9714 30.5655C83.063 30.516 83.1442 30.4479 83.2102 30.3652C83.2762 30.2826 83.3256 30.1871 83.3557 30.0843C83.4695 29.7659 83.5691 29.4327 83.7043 29.1217C83.7803 28.9206 83.9215 28.7535 84.1035 28.6494C84.2854 28.5452 84.4967 28.5106 84.7006 28.5515C84.7893 28.5675 84.873 28.606 84.9441 28.6636C85.0151 28.7212 85.0715 28.7961 85.1081 28.8818C85.1446 28.9675 85.1604 29.0612 85.1538 29.1547C85.1473 29.2482 85.1187 29.3386 85.0706 29.4179C84.9425 29.6326 84.7433 29.7585 84.5298 29.5808C84.3163 29.4031 84.1171 29.5437 84.0246 29.7733C83.8751 30.1361 83.8253 30.5507 83.4339 30.8321Z" fill="white"/>
<path d="M66.1765 1.82891C66.8525 1.82891 67.5357 1.82891 68.2117 1.82891C68.4251 1.82891 68.5034 1.89556 68.4892 2.11769C68.4892 2.49532 68.4892 2.85812 68.4892 3.23574C68.4892 3.36162 68.4892 3.4949 68.3255 3.48749C68.1619 3.48009 68.0338 3.54674 67.9982 3.31721C67.9788 3.19967 67.9527 3.08345 67.9199 2.9692C67.8666 2.76885 67.7397 2.59835 67.5666 2.49446C67.3936 2.39058 67.1882 2.36163 66.9948 2.41386C66.8383 2.45088 66.8597 2.55454 66.8597 2.6582C66.8597 3.93176 66.8597 5.21274 66.8597 6.48631C66.8597 6.73806 67.002 6.79728 67.187 6.84171C67.372 6.88613 67.5001 6.90836 67.4645 7.1379C67.4289 7.36744 67.2439 7.27118 67.13 7.27118C66.4896 7.27118 65.8492 7.27118 65.2088 7.27118C65.102 7.27118 64.9313 7.36002 64.9028 7.14529C64.8743 6.93056 64.9597 6.87134 65.1305 6.85653C65.4507 6.85653 65.5005 6.62697 65.4934 6.3308C65.4934 5.19792 65.4934 4.07245 65.4934 2.93957C65.4934 2.76927 65.6286 2.48791 65.3653 2.43607C65.2183 2.38591 65.0596 2.38695 64.9132 2.43906C64.7668 2.49117 64.6408 2.59149 64.5541 2.72484C64.4831 2.87987 64.4328 3.0443 64.4047 3.21353C64.4034 3.2567 64.3931 3.29906 64.3745 3.33766C64.3559 3.37625 64.3294 3.41014 64.2968 3.43694C64.2643 3.46375 64.2265 3.48284 64.1862 3.49285C64.1458 3.50286 64.1038 3.50356 64.0631 3.4949C63.7998 3.4949 63.871 3.3024 63.871 3.15431C63.871 2.73225 63.7358 2.18432 63.935 1.92517C64.1343 1.66601 64.7035 1.85113 65.1091 1.83632C65.5147 1.82151 65.8136 1.82891 66.1765 1.82891Z" fill="white"/>
<path d="M95.9856 1.87332C95.9856 2.25095 95.9856 2.61376 95.9856 3.0062C95.9856 3.39863 95.9145 3.55414 95.5373 3.45788C95.4804 3.25056 95.4448 3.03581 95.3737 2.8433C95.2836 2.68329 95.1463 2.55789 94.9821 2.48582C94.818 2.41375 94.6358 2.39888 94.4628 2.44345C94.3347 2.49528 94.3703 2.59156 94.3703 2.67301C94.3703 3.95398 94.3703 5.22754 94.3703 6.50851C94.3703 6.76026 94.5198 6.81948 94.6977 6.86391C94.8756 6.90833 95.0107 6.93056 94.9752 7.1601C94.9396 7.38964 94.7546 7.29338 94.6407 7.29338C94.0003 7.29338 93.3599 7.29338 92.7194 7.29338C92.6127 7.29338 92.449 7.38222 92.4134 7.16749C92.3779 6.95276 92.4704 6.90093 92.6412 6.88612C92.9614 6.88612 93.0112 6.65659 93.0112 6.36041C93.0112 5.22753 93.0112 4.09466 93.0112 2.96918C93.0112 2.79888 93.1891 2.49529 92.8618 2.45086C92.706 2.40561 92.5402 2.41689 92.3914 2.48284C92.2427 2.54879 92.1199 2.66546 92.0434 2.81368C91.9872 2.9478 91.9512 3.09017 91.9367 3.23573C91.9011 3.48008 91.773 3.53191 91.5596 3.50969C91.3461 3.48748 91.3959 3.30977 91.403 3.1839C91.403 2.75444 91.218 2.1695 91.4813 1.92516C91.7446 1.68081 92.2569 1.85852 92.6625 1.85852L95.9856 1.87332Z" fill="white"/>
<path d="M60.5559 13.2169L60.8335 13.2984C61.0846 13.3633 61.3106 13.5066 61.481 13.7092C61.6515 13.9117 61.7583 14.1637 61.787 14.4312C61.833 14.7246 61.7889 15.0256 61.6612 15.2914C61.5335 15.5572 61.3285 15.7744 61.0754 15.9121C60.6223 16.1626 60.1226 16.3082 59.6104 16.3389C59.0982 16.3695 58.5857 16.2846 58.1081 16.0899C57.9871 16.0528 57.9942 15.9566 57.9942 15.8677V14.7941C57.9942 14.6904 57.9942 14.5645 58.1365 14.5793C58.2789 14.5942 58.4283 14.5053 58.4923 14.7126C58.5564 14.9199 58.6133 15.0903 58.6845 15.2754C58.7387 15.4254 58.8362 15.5543 58.9636 15.6444C59.091 15.7345 59.242 15.7815 59.396 15.7789C59.5581 15.7912 59.7198 15.7508 59.8588 15.6633C59.9978 15.5757 60.1071 15.4453 60.1717 15.2902C60.2791 15.0766 60.3297 14.837 60.3185 14.5962C60.3072 14.3554 60.2344 14.1221 60.1076 13.9203C59.9956 13.7641 59.8386 13.649 59.6595 13.5918C59.4804 13.5345 59.2884 13.5381 59.1114 13.602C58.962 13.639 58.841 13.602 58.8766 13.4317C58.9122 13.2614 58.7627 13.054 59.0474 13.0318H59.1968C60.1361 13.1355 60.2144 12.4617 60.129 11.7657C60.1122 11.6247 60.048 11.4945 59.9477 11.3982C59.8473 11.302 59.7174 11.2459 59.5811 11.2399C59.4359 11.2068 59.2843 11.2219 59.1478 11.283C59.0112 11.3441 58.8965 11.4481 58.8197 11.5806C58.7425 11.7461 58.6828 11.9199 58.6418 12.0989C58.592 12.3136 58.4425 12.2544 58.3073 12.2692C58.1721 12.284 58.1294 12.1655 58.1294 12.0322V10.9956C58.1294 10.8919 58.1294 10.7809 58.2788 10.7735C58.9509 10.6773 59.6315 10.6624 60.3069 10.729C61.0185 10.8697 61.4169 11.2177 61.5095 11.7805C61.602 12.3432 61.3529 12.7949 60.7054 13.1651C60.6563 13.1848 60.6065 13.2021 60.5559 13.2169Z" fill="white"/>
<path d="M59.1256 22.3688C59.3888 21.769 59.6308 21.2285 59.8371 20.6806C59.9581 20.3844 59.9297 20.1252 59.5525 20.066C59.396 20.066 59.3746 19.9401 59.3817 19.8069C59.3889 19.6736 59.5027 19.6588 59.6023 19.6588H60.8903C60.9828 19.6588 61.1038 19.6218 61.118 19.7921C61.1322 19.9624 61.118 20.0142 60.997 20.0512C60.6982 20.1252 60.5914 20.3844 60.4776 20.6361C59.9226 21.8801 59.3651 23.1142 58.8054 24.3384C58.724 24.6239 58.5434 24.8678 58.2987 25.0224C58.0541 25.1771 57.7629 25.2315 57.4818 25.1751C57.3802 25.1601 57.2835 25.1199 57.2 25.0578C57.1164 24.9958 57.0484 24.9138 57.0017 24.8187C56.955 24.7237 56.9308 24.6183 56.9314 24.5115C56.932 24.4047 56.9573 24.2996 57.0051 24.2051C57.0325 24.1283 57.0786 24.0602 57.1389 24.0075C57.1992 23.9548 57.2715 23.9193 57.349 23.9044C57.4264 23.8894 57.5062 23.8957 57.5806 23.9224C57.655 23.9492 57.7215 23.9955 57.7736 24.057C57.923 24.2347 58.0724 24.2717 58.2361 24.1385C58.3997 24.0052 58.5207 23.8423 58.4069 23.6275C57.8376 22.5169 57.2612 21.4062 56.6848 20.303C56.65 20.2383 56.602 20.1822 56.5443 20.1387C56.4865 20.0953 56.4204 20.0654 56.3504 20.0512C56.2009 20.0512 56.1796 19.9253 56.1867 19.7921C56.1938 19.6588 56.3148 19.6588 56.4073 19.6514H58.3642C58.4496 19.6514 58.5563 19.6514 58.5705 19.7698C58.5848 19.8883 58.5705 20.0216 58.4282 20.0438C58.0369 20.1104 58.1151 20.3326 58.2503 20.5917L59.1256 22.3688Z" fill="white"/>
<path d="M77.8972 30.921C77.8701 31.4002 77.9738 31.8776 78.1961 32.2982C78.2926 32.4891 78.4399 32.6472 78.6203 32.7535C78.8007 32.8599 79.0067 32.91 79.2137 32.898C79.4004 32.8794 79.5774 32.8022 79.721 32.6765C79.8646 32.5509 79.9681 32.3828 80.0178 32.1946L80.0889 32.0094C80.1601 31.8169 80.3166 31.8614 80.4447 31.891C80.5728 31.9206 80.523 32.0613 80.5088 32.1501C80.4376 32.4537 80.5443 32.8906 80.3237 33.0461C79.9015 33.2787 79.4278 33.3911 78.9504 33.3719C78.6482 33.3927 78.3451 33.3475 78.0607 33.2391C77.7762 33.1307 77.5168 32.9616 77.299 32.7426C77.0811 32.5236 76.9098 32.2596 76.7959 31.9675C76.682 31.6755 76.6281 31.3619 76.6377 31.0469C76.6224 30.7337 76.6666 30.4204 76.7678 30.125C76.869 29.8296 77.0252 29.5579 77.2275 29.3254C77.4297 29.0929 77.6741 28.9043 77.9465 28.7702C78.219 28.6362 78.5142 28.5593 78.8152 28.5441C79.298 28.517 79.7813 28.5874 80.2384 28.7515C80.2953 28.7515 80.3736 28.7515 80.3807 28.8551C80.4234 29.2254 80.459 29.5956 80.4874 29.9658C80.4874 30.0473 80.4163 30.0621 80.3522 30.0621C80.2882 30.0621 80.1387 30.1065 80.0818 29.9732L79.9537 29.64C79.9018 29.4782 79.8078 29.3344 79.6822 29.2246C79.5566 29.1149 79.4043 29.0434 79.2421 29.018C79.0565 28.9926 78.8676 29.0214 78.6967 29.1011C78.5258 29.1809 78.3796 29.3085 78.2744 29.4697C78.0087 29.9018 77.877 30.4084 77.8972 30.921Z" fill="white"/>
<path d="M38.8883 30.9802C38.8883 31.4763 38.8883 31.965 38.8883 32.4611C38.8883 32.7054 38.931 32.8757 39.1872 32.9127C39.3224 32.9127 39.4078 32.9868 39.3935 33.1423C39.3793 33.2978 39.237 33.2904 39.1303 33.2904H37.5149C37.4224 33.2904 37.3015 33.3348 37.2801 33.1719C37.2588 33.009 37.2801 32.9424 37.4438 32.9127C37.6075 32.8831 37.7356 32.7128 37.7284 32.4759C37.7284 31.4689 37.7284 30.4545 37.7284 29.4475C37.7284 29.2253 37.7284 29.0476 37.458 29.0106C37.4284 29.0097 37.3994 29.0017 37.3732 28.9872C37.3471 28.9727 37.3245 28.9521 37.3073 28.927C37.29 28.9019 37.2786 28.873 37.2739 28.8425C37.2692 28.8121 37.2713 28.7809 37.2801 28.7514C37.2801 28.5885 37.4224 28.633 37.5149 28.633H40.3613C40.5321 28.633 40.6246 28.633 40.6175 28.8699C40.6175 29.1883 40.6175 29.5067 40.6175 29.8251C40.6175 29.9362 40.6175 30.0472 40.468 30.0472C40.3186 30.0472 40.2332 30.0472 40.1692 29.8769C39.8917 29.1365 39.8276 29.1365 39.1018 29.1365C38.9168 29.1365 38.8527 29.2031 38.8599 29.3882C38.8954 29.9213 38.8883 30.4545 38.8883 30.9802Z" fill="white"/>
<path d="M94.8393 28.6255H95.6079C95.7004 28.6255 95.8213 28.6255 95.8427 28.7588C95.849 28.7841 95.8503 28.8105 95.8464 28.8364C95.8426 28.8622 95.8338 28.887 95.8205 28.9091C95.8072 28.9313 95.7897 28.9504 95.769 28.9653C95.7484 28.9802 95.725 28.9906 95.7004 28.9958C95.4229 29.0476 95.4157 29.2401 95.4157 29.4696C95.4157 30.4544 95.4157 31.4392 95.4157 32.4314C95.4157 32.6758 95.4157 32.8905 95.7075 32.9423C95.8498 32.9423 95.8498 33.0756 95.8427 33.1867C95.8356 33.2978 95.7217 33.3052 95.6363 33.3052H94.0282C93.9214 33.3052 93.8075 33.3052 93.7933 33.1645C93.7791 33.0238 93.7933 32.9572 93.9499 32.9349C94.2132 32.8905 94.2345 32.698 94.2345 32.4685C94.2345 31.4689 94.2345 30.4767 94.2345 29.5067C94.2345 29.2845 94.2345 29.0772 93.9499 29.0402C93.8289 29.0402 93.7933 28.9217 93.8004 28.8032C93.8076 28.6848 93.9356 28.6774 94.0353 28.67L94.8393 28.6255Z" fill="white"/>
<path d="M95.4597 15.7714C95.1822 15.727 95.1324 15.5419 95.1395 15.2828C95.1395 14.0906 95.1395 12.8911 95.1395 11.6916C95.1395 11.4176 95.1822 11.2325 95.474 11.1807C95.5057 11.1786 95.5365 11.1692 95.5643 11.1531C95.5921 11.137 95.6161 11.1146 95.6345 11.0877C95.6529 11.0607 95.6653 11.0298 95.6707 10.9972C95.6762 10.9646 95.6746 10.9312 95.6661 10.8993C95.6661 10.7068 95.5167 10.7512 95.4099 10.7438L92.9122 10.7142C92.5638 10.7057 92.2196 10.7952 91.916 10.9734C91.667 11.1134 91.4677 11.3327 91.3473 11.5992C91.2269 11.8658 91.1918 12.1654 91.2471 12.4543C91.2759 12.7132 91.3799 12.9568 91.5451 13.1526C91.7104 13.3484 91.9292 13.487 92.1722 13.5501C92.2647 13.5501 92.3714 13.5501 92.4284 13.6686C92.2621 13.7249 92.111 13.8214 91.9873 13.9501C91.8636 14.0788 91.771 14.236 91.7168 14.409C91.6243 14.6386 91.5389 14.8755 91.4464 15.105C91.2329 15.6308 91.0977 15.6974 90.5498 15.5567C90.5498 15.7344 90.4644 15.9195 90.6423 16.0676C90.8056 16.1802 90.9894 16.2565 91.1823 16.2918C91.3752 16.3271 91.573 16.3205 91.7634 16.2726C91.9538 16.2246 92.1326 16.1363 92.2886 16.0131C92.4447 15.8899 92.5746 15.7346 92.6703 15.5567C92.8269 15.1495 92.9407 14.7274 93.083 14.3128C93.1155 14.1438 93.2036 13.992 93.3321 13.8833C93.3804 13.8377 93.439 13.8056 93.5025 13.79C93.566 13.7745 93.6322 13.776 93.695 13.7945C93.8373 13.8463 93.7733 13.9944 93.7733 14.1054C93.7733 14.5127 93.7733 14.9273 93.7733 15.342C93.7733 15.5715 93.7163 15.727 93.4815 15.764C93.2467 15.8011 93.2325 15.8899 93.2609 16.0676C93.2894 16.2453 93.4317 16.2009 93.5313 16.2009H95.3743C95.4882 16.2009 95.6447 16.2601 95.6661 16.0454C95.6736 16.0129 95.6739 15.979 95.6671 15.9463C95.6602 15.9136 95.6464 15.8829 95.6265 15.8565C95.6067 15.8302 95.5814 15.8089 95.5525 15.7941C95.5236 15.7794 95.4919 15.7716 95.4597 15.7714ZM93.3677 13.1947C92.7771 13.1207 92.4924 12.6912 92.5778 11.9804C92.5829 11.862 92.6131 11.7463 92.6664 11.6416C92.7197 11.5369 92.7947 11.4459 92.8859 11.375C92.9772 11.3041 93.0824 11.2553 93.194 11.2319C93.3056 11.2086 93.4208 11.2113 93.5313 11.2399C93.7377 11.2399 93.7875 11.351 93.7733 11.5435C93.759 11.736 93.7733 12.0174 93.7733 12.2839C93.7626 12.4565 93.7626 12.6297 93.7733 12.8023C93.8302 13.1651 93.6665 13.2317 93.3677 13.1947Z" fill="white"/>
<path d="M42.3884 7.01202C42.3884 6.75287 42.3173 6.64179 42.0611 6.67882C41.805 6.71584 41.7053 6.56035 41.7053 6.28638C41.7053 5.10167 41.7053 3.91697 41.7053 2.73226C41.7053 2.48791 41.7551 2.31021 42.0113 2.27319C42.0471 2.27273 42.0822 2.26351 42.1139 2.24627C42.1456 2.22904 42.173 2.20427 42.1938 2.17399C42.2146 2.1437 42.2282 2.10874 42.2336 2.07194C42.239 2.03515 42.236 1.99754 42.2248 1.96219C42.2248 1.78448 42.0469 1.84372 41.9473 1.84372C41.3211 1.84372 40.6949 1.84372 40.0616 1.84372C39.4283 1.84372 38.8092 1.84372 38.183 1.84372C38.0762 1.84372 37.9126 1.75488 37.8841 1.97701C37.8557 2.19915 37.9481 2.25096 38.1332 2.28799C38.2139 2.29173 38.2931 2.31227 38.3661 2.34839C38.439 2.38451 38.5043 2.43548 38.5581 2.49829C38.6118 2.5611 38.6529 2.63448 38.6789 2.71409C38.7049 2.7937 38.7153 2.87792 38.7095 2.96179C38.7126 4.0817 38.4512 5.18524 37.9482 6.17532C37.813 6.41967 37.6706 6.66401 37.3504 6.68623C37.1797 6.68623 37.2081 6.83432 37.2081 6.94539C37.2081 7.40446 37.2081 7.85613 37.2081 8.3078C37.2081 8.44108 37.1227 8.641 37.3931 8.6484C37.6635 8.6558 37.756 8.6484 37.7987 8.36703C37.8414 8.08566 37.8983 8.01161 37.941 7.83391C37.9657 7.66261 38.0542 7.50832 38.1874 7.40439C38.3205 7.30046 38.4877 7.25525 38.6526 7.27857C39.2148 7.27857 39.784 7.27857 40.3462 7.27857C41.4492 7.27857 41.4349 7.08607 41.7694 8.37444C41.7727 8.399 41.7727 8.42393 41.7694 8.44849C41.8192 8.71505 42.0184 8.61879 42.1679 8.6336C42.3173 8.64841 42.3458 8.4929 42.3458 8.36703C42.3884 7.93017 42.3884 7.4785 42.3884 7.01202ZM40.3391 2.90996C40.3391 4.05765 40.3391 5.19793 40.3391 6.33822C40.3391 6.62699 40.2608 6.70104 39.9975 6.68623C39.4852 6.68623 38.9799 6.68623 38.4036 6.68623C38.9603 5.59464 39.2786 4.38866 39.3357 3.15432C39.3357 2.93218 39.3357 2.68784 39.5421 2.53235C39.647 2.46318 39.7659 2.42047 39.8895 2.40761C40.013 2.39476 40.1377 2.41211 40.2537 2.4583C40.4458 2.52494 40.3462 2.76929 40.3462 2.92478L40.3391 2.90996Z" fill="white"/>
<path d="M71.6708 13.2614L71.4929 13.1725L71.7562 13.0466C71.9742 12.9487 72.1566 12.7812 72.2769 12.5681C72.3971 12.3551 72.4491 12.1077 72.4251 11.8619C72.41 11.6131 72.3169 11.3762 72.1601 11.1877C72.0033 10.9991 71.7915 10.8692 71.557 10.8179C71.3263 10.7463 71.086 10.7138 70.8454 10.7216H68.4616C68.362 10.7216 68.2196 10.6698 68.1912 10.8549C68.1801 10.8897 68.177 10.9266 68.182 10.9629C68.187 10.9991 68.2 11.0337 68.22 11.0638C68.24 11.0939 68.2664 11.1189 68.2972 11.1366C68.328 11.1543 68.3624 11.1643 68.3975 11.1659C68.6821 11.2103 68.7177 11.3954 68.7177 11.6546C68.7177 12.8245 68.7177 13.9944 68.7177 15.1643C68.7177 15.4753 68.7177 15.7196 68.3406 15.7715C68.1983 15.7715 68.1769 15.9122 68.1912 16.0454C68.2054 16.1787 68.2979 16.1787 68.3904 16.1787C69.3866 16.1787 70.3828 16.2454 71.3791 16.1343C71.7139 16.1053 72.0291 15.958 72.2724 15.7169C72.5158 15.4758 72.6726 15.1554 72.7168 14.8089C72.7475 14.6356 72.7446 14.4578 72.7084 14.2857C72.6722 14.1136 72.6034 13.9508 72.506 13.8067C72.4086 13.6626 72.2845 13.5402 72.1412 13.4465C71.9978 13.3529 71.8379 13.29 71.6708 13.2614ZM70.1836 11.2992C70.3007 11.2462 70.4299 11.2292 70.556 11.2502C70.6821 11.2712 70.7998 11.3293 70.8952 11.4177C71.0225 11.5574 71.1073 11.7331 71.1389 11.9228C71.1705 12.1125 71.1476 12.3077 71.0731 12.4839C71.0276 12.6388 70.9317 12.7723 70.8018 12.8615C70.6719 12.9507 70.5162 12.99 70.3615 12.9726C70.1267 12.9726 70.0413 12.9134 70.0697 12.669C70.0982 12.4247 70.0697 12.321 70.0697 12.1507C70.0591 12.0176 70.0591 11.8839 70.0697 11.7509C70.1409 11.6028 69.9701 11.3732 70.1836 11.2992ZM71.315 14.8607C71.3053 14.9772 71.2719 15.0902 71.2173 15.1923C71.1626 15.2944 71.0878 15.3834 70.9977 15.4533C70.9077 15.5232 70.8045 15.5725 70.6948 15.598C70.5852 15.6235 70.4716 15.6246 70.3615 15.6012C70.1409 15.6012 70.0555 15.4827 70.0697 15.2457C70.084 15.0088 70.0697 14.7422 70.0697 14.5053V13.95C70.0697 13.4539 70.0697 13.4539 70.5679 13.5131C71.066 13.5723 71.4146 14.0685 71.315 14.8607Z" fill="white"/>
<path d="M42.5529 13.2317C42.5491 12.7443 42.4136 12.2679 42.162 11.8567C41.9103 11.4456 41.5526 11.1164 41.1297 10.9068C39.4646 10.1219 37.3868 11.0919 37.4153 13.2317C37.3668 13.6901 37.4234 14.1539 37.5805 14.585C37.7376 15.0162 37.9907 15.4025 38.319 15.7122C38.7321 16.0522 39.2316 16.2592 39.7562 16.3079C40.2808 16.3566 40.8077 16.2447 41.272 15.9862C41.7145 15.7006 42.0698 15.29 42.2966 14.8024C42.5233 14.3147 42.6122 13.77 42.5529 13.2317ZM40.8807 14.9718C40.8364 15.1897 40.7235 15.3861 40.5597 15.5296C40.396 15.6732 40.1909 15.7557 39.977 15.7641C39.7644 15.7508 39.5617 15.6665 39.3989 15.5238C39.2361 15.3811 39.1219 15.1875 39.0732 14.9718C38.9233 14.494 38.8511 13.9935 38.8598 13.4909C38.85 12.9899 38.9148 12.4904 39.0519 12.01C39.0949 11.7861 39.2073 11.583 39.3718 11.4319C39.5363 11.2808 39.7439 11.1899 39.9627 11.1733C40.1825 11.173 40.3954 11.2528 40.5644 11.3989C40.7334 11.545 40.8479 11.7482 40.8878 11.973C41.2048 12.9458 41.2023 14.0006 40.8807 14.9718Z" fill="white"/>
<path d="M66.2906 10.966C65.8878 10.7278 65.4304 10.6077 64.9672 10.6186C64.5041 10.6294 64.0524 10.7707 63.6603 11.0275C63.2682 11.2843 62.9504 11.647 62.7406 12.0769C62.5309 12.5067 62.4372 12.9877 62.4693 13.4687C62.4199 14.0971 62.5898 14.723 62.9479 15.2316C63.306 15.7403 63.8283 16.0975 64.4191 16.2379C64.7986 16.3453 65.197 16.3589 65.5825 16.2777C65.968 16.1966 66.3299 16.0229 66.6395 15.7705C66.9491 15.5181 67.1978 15.194 67.3658 14.8239C67.5337 14.4539 67.6163 14.0481 67.607 13.639C67.6732 13.1072 67.5827 12.567 67.3477 12.0897C67.1127 11.6125 66.7441 11.2207 66.2906 10.966ZM65.9276 15.0014C65.8757 15.208 65.7611 15.3916 65.6008 15.525C65.4406 15.6584 65.2433 15.7345 65.0382 15.7418C64.8316 15.7431 64.631 15.67 64.4703 15.5351C64.3095 15.4002 64.1984 15.2117 64.1558 15.0014C63.807 13.994 63.807 12.8915 64.1558 11.8841C64.2042 11.682 64.3172 11.503 64.4762 11.3765C64.6353 11.25 64.8309 11.1836 65.0311 11.1881C65.2344 11.1929 65.4304 11.2684 65.5878 11.4026C65.7451 11.5368 65.8547 11.722 65.8992 11.9286C66.0777 12.4279 66.1623 12.9583 66.1483 13.4909C66.1591 14.0039 66.0844 14.5149 65.9276 15.0014Z" fill="white"/>
<path d="M47.5773 14.1647C47.3851 13.4243 46.8657 13.0911 45.9193 13.0392C45.6346 13.0392 45.2077 13.1947 45.0867 12.9874C44.9658 12.7801 45.0298 12.3802 45.0298 12.0618C45.0298 11.3584 45.0298 11.3806 45.7414 11.3214C46.2893 11.3214 46.7091 11.3954 46.7874 12.0618C46.7874 12.2766 46.9938 12.2099 47.1219 12.2173C47.2499 12.2247 47.2926 12.1063 47.2926 11.9804C47.2926 11.662 47.2926 11.3436 47.2926 11.0252C47.2926 10.7068 47.2286 10.7068 46.9938 10.7068C46.4032 10.7068 45.8196 10.7068 45.229 10.7068H43.4643C43.3505 10.7068 43.201 10.6328 43.1654 10.8475C43.1567 10.8825 43.1559 10.9192 43.1629 10.9546C43.1699 10.99 43.1846 11.0233 43.2059 11.0519C43.2272 11.0805 43.2545 11.1036 43.2857 11.1195C43.317 11.1354 43.3513 11.1437 43.386 11.1437C43.6422 11.1955 43.6991 11.3584 43.692 11.6028C43.692 12.7579 43.692 13.913 43.692 15.0755C43.692 15.3864 43.7276 15.6974 43.3078 15.7492C43.1868 15.7492 43.1583 15.8751 43.1654 15.9936C43.1725 16.1121 43.2295 16.1639 43.3362 16.1565C44.3565 16.2135 45.3794 16.1887 46.396 16.0825C46.6034 16.0557 46.8026 15.9817 46.9794 15.8658C47.1562 15.75 47.3063 15.595 47.419 15.4119C47.5318 15.2289 47.6044 15.0222 47.6318 14.8067C47.6591 14.5911 47.6405 14.3719 47.5773 14.1647ZM45.5848 15.6456C45.1365 15.727 45.0298 15.6456 45.0227 15.1569V14.1647C45.0227 13.639 45.3215 13.4243 45.7983 13.6612C45.9713 13.775 46.1074 13.9405 46.1886 14.136C46.2699 14.3315 46.2925 14.5479 46.2537 14.7571C46.1968 15.2902 45.9975 15.5568 45.5848 15.6308V15.6456Z" fill="white"/>
<path d="M51.027 10.7142C50.593 10.7142 50.1589 10.7142 49.7248 10.7142H48.4226C48.3088 10.7142 48.1522 10.6402 48.1237 10.8549C48.0953 11.0697 48.202 11.1289 48.3515 11.1511C48.6076 11.2029 48.6574 11.3658 48.6503 11.6102C48.6503 12.7653 48.6503 13.9278 48.6503 15.0829C48.6503 15.3938 48.6859 15.7048 48.2661 15.7567C48.1451 15.7567 48.1166 15.8826 48.1237 16.001C48.1309 16.1195 48.2234 16.1639 48.3301 16.1639H50.4008C50.5147 16.1639 50.6072 16.1639 50.6143 15.9936C50.6214 15.8233 50.6143 15.7641 50.4649 15.7567C49.981 15.7567 50.0023 15.379 50.0166 15.0162C50.0308 14.7375 50.0308 14.4582 50.0166 14.1795C50.0166 13.9426 50.0664 13.8463 50.3083 13.8759C50.5639 13.9018 50.8213 13.9018 51.0768 13.8759C51.2824 13.8755 51.4857 13.831 51.674 13.7451C51.8623 13.6592 52.0316 13.5338 52.1712 13.3767C52.3108 13.2197 52.4177 13.0343 52.4853 12.8323C52.5529 12.6302 52.5797 12.4159 52.564 12.2025C52.5657 11.9971 52.5262 11.7935 52.4481 11.6047C52.37 11.416 52.255 11.2462 52.1104 11.1063C51.9659 10.9663 51.7949 10.8591 51.6084 10.7917C51.4218 10.7242 51.2239 10.6978 51.027 10.7142ZM50.8847 13.2392C50.7849 13.3194 50.6665 13.3705 50.5414 13.3875C50.4164 13.4044 50.2893 13.3864 50.1731 13.3354C49.9312 13.254 50.0521 13.0244 50.0379 12.8541C50.0273 12.6692 50.0273 12.4837 50.0379 12.2988C50.0272 12.141 50.0272 11.9827 50.0379 11.8249C50.0379 11.6398 49.9169 11.3806 50.1447 11.2918C50.2769 11.2417 50.4199 11.2305 50.5579 11.2592C50.696 11.2879 50.8238 11.3555 50.9274 11.4547C51.1112 11.7178 51.2066 12.0366 51.1989 12.3618C51.1912 12.6871 51.0808 13.0006 50.8847 13.254V13.2392Z" fill="white"/>
<path d="M62.0565 1.82889C61.1243 1.6882 60.1992 1.88812 59.267 1.82889C59.1603 1.82889 58.9895 1.74005 58.9611 1.95477C58.9326 2.1695 59.018 2.22133 59.1888 2.25095C59.3595 2.28057 59.4948 2.46567 59.4876 2.71002C59.4876 3.30978 59.4876 3.90953 59.4876 4.50929C59.4876 5.10905 59.4876 5.73103 59.4876 6.3456C59.4876 6.59735 59.4876 6.78987 59.1817 6.8343C58.8757 6.87873 58.9326 6.96018 58.9611 7.13788C58.9895 7.31559 59.1674 7.25633 59.267 7.25633H61.1527C61.2595 7.25633 61.4231 7.34519 61.4445 7.12306C61.4658 6.90093 61.3662 6.8639 61.2026 6.84169C60.925 6.80467 60.8325 6.62697 60.8468 6.3456C60.861 6.06423 60.8468 5.60515 60.8468 5.1831C60.8468 5.0128 60.8895 4.95356 61.0674 4.99058C61.4347 5.04837 61.8094 5.03078 62.1703 4.93876C62.5486 4.87656 62.8885 4.66273 63.1173 4.34307C63.346 4.02341 63.4454 3.62331 63.3942 3.22834C63.3888 2.86023 63.2463 2.50866 62.9968 2.24765C62.7473 1.98663 62.4102 1.83651 62.0565 1.82889ZM61.2239 4.47967C60.9677 4.47967 60.8325 4.37602 60.8468 4.07243C60.8717 3.60878 60.8717 3.14404 60.8468 2.6804C60.8468 2.40643 60.9535 2.3324 61.1812 2.325C61.7647 2.325 62.0351 2.62857 62.0351 3.37641C62.0351 4.12426 61.7576 4.5241 61.2239 4.50929V4.47967Z" fill="white"/>
<path d="M58.9485 32.9868C58.9485 32.8091 58.8916 32.7425 58.7279 32.7647C58.422 32.8165 58.3721 32.6462 58.3721 32.3723C58.3721 31.3875 58.3721 30.4101 58.3721 29.4105C58.3721 29.2032 58.3722 29.0403 58.6283 28.9884C58.6571 28.9876 58.6852 28.9798 58.7105 28.9656C58.7358 28.9515 58.7577 28.9314 58.7742 28.907C58.7908 28.8826 58.8017 28.8545 58.806 28.8249C58.8103 28.7953 58.808 28.7651 58.7991 28.7367C58.7991 28.5738 58.6497 28.6182 58.5643 28.6182H55.3764C55.2768 28.6182 55.1344 28.5516 55.106 28.7441C55.0775 28.9366 55.17 28.9736 55.3195 29.0033C55.597 29.0551 55.8033 29.2032 55.8033 29.5215C55.8318 30.4938 55.6133 31.4567 55.17 32.313C55.0562 32.5204 54.9352 32.7351 54.6577 32.7499C54.5011 32.7499 54.5225 32.8758 54.5225 32.9794V34.1789C54.5225 34.3048 54.5225 34.4233 54.7004 34.4159C54.8783 34.4085 54.985 34.4159 55.0277 34.2382C55.0704 34.0605 55.1273 33.905 55.1629 33.7421C55.1716 33.6691 55.1943 33.5987 55.2296 33.5351C55.265 33.4715 55.3123 33.4159 55.3688 33.3717C55.4252 33.3275 55.4896 33.2955 55.5581 33.2777C55.6267 33.26 55.698 33.2567 55.7677 33.2682C56.2303 33.2682 56.6857 33.2682 57.1482 33.2682C58.1231 33.2682 58.1729 33.0609 58.4504 34.2012C58.4504 34.2012 58.4504 34.2012 58.4504 34.2382C58.4504 34.4603 58.6425 34.4011 58.7778 34.4085C58.913 34.4159 58.9343 34.2752 58.9343 34.1641C58.9485 33.7865 58.9414 33.3867 58.9485 32.9868ZM56.9703 32.7721H55.5471C56.039 31.8046 56.3139 30.7338 56.3512 29.64C56.3939 29.2476 56.6003 29.1291 56.949 29.1439C57.1055 29.1439 57.1767 29.1958 57.1696 29.3735C57.1696 30.4323 57.1696 31.4911 57.1696 32.55C57.198 32.7203 57.134 32.7721 56.9703 32.7721Z" fill="white"/>
<path d="M78.1884 15.8011C78.0845 15.746 77.9936 15.6676 77.9222 15.5716C77.8508 15.4755 77.8008 15.3643 77.7757 15.2457C77.2634 13.9055 76.7154 12.5727 76.2529 11.2103C76.2121 11.019 76.1 10.8524 75.9413 10.7469C75.7825 10.6414 75.5901 10.6057 75.4061 10.6476C75.2211 10.6476 75.1215 10.6476 75.0503 10.8919C74.5451 12.3136 74.0256 13.7204 73.5133 15.1347C73.4066 15.4309 73.307 15.7122 72.9725 15.8085C72.8373 15.8455 72.8587 15.9566 72.8587 16.0602C72.8587 16.1639 72.944 16.2009 73.0365 16.2009H74.232C74.3245 16.2009 74.417 16.2009 74.4312 16.075C74.4455 15.9492 74.4313 15.8603 74.353 15.8307C73.8406 15.6974 74.0826 15.3568 74.1751 15.0903C74.4099 14.4164 74.4099 14.4164 75.1215 14.4164C76.0679 14.4164 76.0608 14.4164 76.3952 15.3198C76.4877 15.5715 76.5518 15.7863 76.1889 15.8233C76.0323 15.8233 76.011 15.9418 76.0181 16.075C76.0252 16.2083 76.1319 16.2231 76.2387 16.2231H78.0817C78.1671 16.2231 78.3023 16.275 78.3236 16.1121C78.345 15.9492 78.3307 15.8973 78.1884 15.8011ZM75.5698 13.8389C74.5736 13.8981 74.5736 13.8981 74.9151 12.9208C75.0005 12.6764 75.093 12.432 75.1998 12.1211C75.4061 12.669 75.5698 13.1281 75.7406 13.602C75.8331 13.7797 75.769 13.8241 75.5698 13.8389Z" fill="white"/>
<path d="M57.6174 15.8085C57.5202 15.7592 57.4343 15.6887 57.3655 15.6018C57.2968 15.515 57.2468 15.4137 57.2189 15.305C56.6639 13.8241 56.0946 12.395 55.5681 10.929C55.4329 10.5513 55.1909 10.6698 54.9561 10.655C54.7213 10.6402 54.5647 10.6032 54.458 10.9215C53.9741 12.3284 53.4475 13.7278 52.9352 15.1273C52.8356 15.416 52.736 15.7122 52.4015 15.8011C52.2734 15.8381 52.2734 15.9418 52.2734 16.0528C52.2734 16.1639 52.3659 16.2009 52.4584 16.2009H53.6895C53.7678 16.2009 53.8531 16.2009 53.8531 16.0824C53.8531 15.964 53.9029 15.8677 53.7891 15.8381C53.2839 15.7122 53.4973 15.379 53.5899 15.0977C53.8247 14.3572 53.8318 14.3942 54.522 14.3942C55.4827 14.3942 55.4756 14.3942 55.81 15.3272C55.9025 15.5864 55.9167 15.764 55.5965 15.8011C55.4471 15.8011 55.4115 15.9195 55.4258 16.0602C55.44 16.2009 55.5538 16.2009 55.6535 16.2009H57.4965C57.589 16.2009 57.717 16.2009 57.7242 16.075C57.7313 15.9492 57.7455 15.8973 57.6174 15.8085ZM54.1947 13.8315C54.031 13.8315 54.0382 13.7649 54.0808 13.639C54.2516 13.1577 54.4224 12.6764 54.6145 12.1211C54.8422 12.7134 55.0344 13.2465 55.255 13.8315H54.1947Z" fill="white"/>
<path d="M88.4277 30.7062C88.699 30.6019 88.9309 30.4099 89.0895 30.1583C89.4595 29.4179 89.0112 28.6774 88.1146 28.6256C87.3461 28.5812 86.5776 28.6256 85.8091 28.6256C85.7237 28.6256 85.6241 28.6256 85.6028 28.7441C85.5814 28.8625 85.6028 28.9662 85.738 28.9958C85.9799 29.0402 86.0368 29.1883 86.0297 29.4252C86.0297 30.4471 86.0297 31.4763 86.0297 32.4981C86.0297 32.7128 85.9941 32.8683 85.7735 32.9128C85.7448 32.9136 85.7167 32.9214 85.6913 32.9355C85.666 32.9497 85.6442 32.9697 85.6276 32.9942C85.611 33.0186 85.6002 33.0467 85.5958 33.0763C85.5915 33.1059 85.5939 33.1361 85.6028 33.1645C85.6028 33.3274 85.7522 33.2904 85.8447 33.2904C86.6274 33.2904 87.4102 33.2904 88.1858 33.2534H88.4135C88.6872 33.2038 88.9375 33.0615 89.1254 32.8486C89.3133 32.6357 89.4283 32.364 89.4524 32.0761C89.4951 31.3504 89.2603 31.0246 88.4277 30.7062ZM87.3034 29.1069C87.3992 29.0669 87.5032 29.0534 87.6055 29.0677C87.7077 29.0819 87.8047 29.1235 87.8869 29.1883C87.9918 29.2945 88.065 29.4299 88.0978 29.5783C88.1306 29.7267 88.1216 29.8818 88.072 30.025C88.054 30.1504 87.9969 30.2663 87.9095 30.3546C87.822 30.4429 87.7091 30.4988 87.5881 30.5137C87.3461 30.5655 87.1611 30.5137 87.2109 30.2027C87.2216 30.0697 87.2216 29.9359 87.2109 29.8029C87.2039 29.6993 87.2039 29.5954 87.2109 29.4919C87.218 29.3586 87.1326 29.1587 87.3034 29.1069ZM87.6165 32.8091C87.3461 32.8091 87.1611 32.7647 87.2109 32.4167C87.2216 32.2441 87.2216 32.0709 87.2109 31.8983C87.2002 31.7801 87.2002 31.6611 87.2109 31.5429C87.2465 31.3652 87.0828 31.0987 87.3319 31.032C87.4797 30.9826 87.6389 30.9848 87.7853 31.0382C87.9318 31.0917 88.0574 31.1935 88.1431 31.3282C88.4989 31.8983 88.1858 32.7647 87.6165 32.8017V32.8091Z" fill="white"/>
<path d="M56.3078 24.7086C56.0374 24.5976 55.9591 24.3458 55.8666 24.0941C55.3187 22.665 54.7565 21.2434 54.23 19.8069C54.0876 19.4145 53.8244 19.5848 53.6038 19.5552C53.3832 19.5255 53.2337 19.5552 53.1341 19.8143C52.636 21.2508 52.1023 22.6724 51.5829 24.0941C51.4832 24.368 51.3765 24.6198 51.0847 24.6938C50.914 24.7457 50.9638 24.8715 50.9567 24.9826C50.9495 25.0937 51.0634 25.1011 51.1488 25.1011H52.3514C52.4439 25.1011 52.5435 25.1011 52.5435 24.9752C52.5435 24.8493 52.5791 24.7531 52.4723 24.7309C51.9885 24.605 52.1948 24.2866 52.2802 23.9904C52.5221 23.25 52.5221 23.25 53.2622 23.25C54.173 23.25 54.1659 23.25 54.5075 24.2051C54.6071 24.4643 54.6071 24.642 54.2869 24.6716C54.1161 24.6716 54.1232 24.7975 54.1161 24.916C54.109 25.0344 54.2584 25.0715 54.358 25.0715H56.201C56.2793 25.0715 56.4003 25.1233 56.4145 24.9826C56.4287 24.8419 56.4643 24.7827 56.3078 24.7086ZM53.6607 22.7243C53.3618 22.7243 53.0558 22.7243 52.7 22.7243L53.2978 21.0138C53.497 21.5469 53.6607 22.0134 53.8457 22.4947C53.924 22.6798 53.8528 22.7317 53.6607 22.7243Z" fill="white"/>
<path d="M58.5134 6.88614C58.2999 6.81209 58.2216 6.60477 58.1433 6.40485C57.5883 4.92396 57.019 3.48011 56.4782 1.99922C56.3359 1.62159 56.0726 1.77709 55.852 1.74747C55.6314 1.71786 55.4891 1.74746 55.3895 2.01402C54.8985 3.42087 54.3719 4.82032 53.8667 6.21235C53.7529 6.51593 53.6675 6.8269 53.3045 6.90835C53.1693 6.94537 53.1978 7.07126 53.1978 7.17492C53.1978 7.27858 53.3117 7.2934 53.3899 7.3008H54.5854C54.6637 7.3008 54.7775 7.3008 54.7847 7.18233C54.7918 7.06386 54.7847 6.9602 54.7135 6.93058C54.1585 6.7973 54.4431 6.44189 54.5356 6.19014C54.7633 5.50153 54.7704 5.50892 55.4749 5.50892C56.4 5.50892 56.3928 5.50892 56.7273 6.43447C56.8198 6.70104 56.8696 6.90095 56.5067 6.93797C56.343 6.93797 56.343 7.07867 56.3501 7.20454C56.3572 7.33042 56.4853 7.32302 56.5778 7.32302H57.4958C57.7947 7.32302 58.0864 7.32302 58.3782 7.32302C58.4778 7.32302 58.6272 7.40446 58.6486 7.20454C58.6699 7.00462 58.6557 6.94537 58.5134 6.88614ZM54.9554 4.89436C55.1476 4.35384 55.3326 3.82811 55.5389 3.22095L56.158 4.89436H54.9554Z" fill="white"/>
<path d="M73.4289 6.89354C73.3381 6.84406 73.2587 6.77479 73.1961 6.69044C73.1335 6.6061 73.0891 6.50868 73.0659 6.40485C72.5465 5.04243 72.0128 3.68001 71.4862 2.31019C71.2585 1.71783 71.2585 1.72525 70.6466 1.74747C70.4473 1.74747 70.3762 1.82151 70.305 2.02143C69.8069 3.41346 69.2945 4.79809 68.7822 6.18272C68.6684 6.49371 68.5901 6.82691 68.2058 6.92317C68.0777 6.92317 68.1062 7.08605 68.1062 7.18972C68.1062 7.29338 68.2272 7.3008 68.3055 7.3008H69.5365C69.6076 7.3008 69.7002 7.30079 69.7002 7.19713C69.7002 7.09346 69.7357 6.96018 69.6503 6.93797C69.0668 6.80469 69.3586 6.43446 69.4511 6.14569C69.6646 5.47188 69.6788 5.47929 70.369 5.47929C71.3155 5.47929 71.3154 5.47929 71.6428 6.42706C71.7353 6.67881 71.7637 6.87134 71.4293 6.90095C71.2799 6.90095 71.2514 7.01943 71.2585 7.16011C71.2656 7.3008 71.3795 7.2934 71.472 7.3008H73.315C73.4004 7.3008 73.5427 7.36743 73.5569 7.19713C73.5712 7.02682 73.5783 6.95278 73.4289 6.89354ZM69.8709 4.90175C70.0559 4.36122 70.241 3.83551 70.4544 3.22095L71.0806 4.90175H69.8709Z" fill="white"/>
<path d="M52.2662 28.5368C51.9636 28.526 51.6622 28.5824 51.3822 28.7021C51.1021 28.8218 50.8497 29.0021 50.6417 29.2311C50.4338 29.4601 50.275 29.7325 50.176 30.0303C50.077 30.328 50.0399 30.6442 50.0674 30.958C50.0409 31.2718 50.0789 31.5879 50.1789 31.8853C50.2788 32.1826 50.4383 32.4545 50.647 32.6828C50.8556 32.9111 51.1085 33.0906 51.3889 33.2094C51.6693 33.3282 51.9708 33.3836 52.2733 33.3719C52.576 33.3807 52.8771 33.3224 53.1565 33.2008C53.436 33.0793 53.6873 32.8973 53.8939 32.6669C54.1006 32.4365 54.2577 32.1629 54.355 31.8645C54.4522 31.566 54.4872 31.2494 54.4578 30.9358C54.482 30.6244 54.4428 30.3113 54.3427 30.0168C54.2427 29.7223 54.0841 29.453 53.8772 29.2266C53.6704 29.0002 53.42 28.8218 53.1424 28.7029C52.8648 28.584 52.5662 28.5274 52.2662 28.5368ZM52.9778 32.3871C52.9213 32.5361 52.8234 32.6643 52.6967 32.7552C52.57 32.8462 52.4201 32.8959 52.2662 32.898C52.111 32.9064 51.9574 32.8617 51.8289 32.7708C51.7004 32.6799 51.6041 32.5477 51.5546 32.3945C51.192 31.4765 51.192 30.4469 51.5546 29.5289C51.6028 29.3743 51.6987 29.2405 51.8273 29.1481C51.9559 29.0558 52.1101 29.0101 52.2662 29.018C52.4193 29.0148 52.5698 29.0607 52.6971 29.1495C52.8243 29.2382 52.9223 29.3655 52.9778 29.5141C53.1703 29.9811 53.2579 30.4876 53.2339 30.995C53.2367 31.4735 53.1446 31.9473 52.9635 32.3871H52.9778Z" fill="white"/>
<path d="M43.1366 28.5368C42.8344 28.529 42.534 28.5866 42.2544 28.7059C41.9747 28.8252 41.7219 29.0036 41.5119 29.2298C41.3019 29.4559 41.1393 29.725 41.0343 30.0199C40.9294 30.3149 40.8844 30.6293 40.9022 30.9432C40.8801 31.2598 40.9222 31.5778 41.0258 31.8764C41.1294 32.175 41.2921 32.4477 41.5034 32.6767C41.7148 32.9057 41.97 33.0859 42.2526 33.2056C42.5351 33.3254 42.8387 33.382 43.1437 33.3719C43.4371 33.3726 43.7274 33.3104 43.9967 33.1892C44.2659 33.068 44.5083 32.8903 44.7086 32.6673C44.9089 32.4442 45.0629 32.1806 45.1609 31.8929C45.259 31.6052 45.299 31.2996 45.2784 30.995C45.3106 30.6834 45.279 30.3682 45.1857 30.0702C45.0925 29.7723 44.9397 29.4982 44.7374 29.266C44.5351 29.0338 44.2879 28.8488 44.012 28.7231C43.7361 28.5974 43.4377 28.5339 43.1366 28.5368ZM43.8482 32.3648C43.7977 32.5198 43.702 32.6545 43.5745 32.75C43.4469 32.8456 43.2938 32.8973 43.1366 32.898C42.9805 32.9059 42.8263 32.8602 42.6977 32.7679C42.5691 32.6755 42.4732 32.5417 42.425 32.3871C42.0724 31.4773 42.0724 30.4609 42.425 29.5512C42.4694 29.3924 42.5635 29.2536 42.6925 29.157C42.8215 29.0604 42.9778 29.0115 43.1366 29.018C43.2955 29.0197 43.45 29.0736 43.5777 29.172C43.7055 29.2704 43.8002 29.4083 43.8482 29.566C44.0274 30.0076 44.103 30.4873 44.0687 30.9654C44.0918 31.4465 44.004 31.9263 43.8126 32.3648H43.8482Z" fill="white"/>
<path d="M75.4076 29.2253C75.1985 29.0057 74.9497 28.8314 74.6755 28.7124C74.4013 28.5934 74.1072 28.5322 73.8101 28.5322C73.513 28.5322 73.2189 28.5934 72.9447 28.7124C72.6705 28.8314 72.4217 29.0057 72.2126 29.2253C71.781 29.7545 71.5661 30.4386 71.614 31.1309C71.6619 31.8231 71.9688 32.4682 72.4687 32.9275C72.8017 33.1914 73.1997 33.3516 73.6166 33.3896C74.0334 33.4276 74.4521 33.3419 74.8241 33.1423C75.2059 32.9472 75.5231 32.6378 75.7348 32.2539C75.9465 31.87 76.0432 31.4291 76.0124 30.9876C76.0327 30.6664 75.9895 30.3443 75.8855 30.0412C75.7815 29.7381 75.6188 29.4604 75.4076 29.2253ZM74.5608 32.2908C74.518 32.4566 74.4264 32.6044 74.2988 32.7133C74.1711 32.8222 74.0139 32.8868 73.8492 32.8979C73.6799 32.9008 73.5145 32.8448 73.3792 32.7388C73.2439 32.6329 73.1464 32.4831 73.1021 32.313C72.7892 31.4466 72.7892 30.4915 73.1021 29.6252C73.1397 29.4564 73.2299 29.3054 73.3586 29.1956C73.4873 29.0858 73.6473 29.0233 73.8136 29.018C73.9879 29.0187 74.1571 29.0793 74.2948 29.1905C74.4326 29.3016 74.5311 29.4571 74.575 29.6326C74.7344 30.072 74.807 30.5404 74.7885 31.0098C74.7909 31.4479 74.7137 31.8825 74.5608 32.2908Z" fill="white"/>
<path d="M93.658 31.3726C93.5432 31.1254 93.3646 30.9162 93.1422 30.7684C92.9198 30.6207 92.6623 30.5402 92.3985 30.5359C92.1067 30.4915 91.6869 30.7655 91.5517 30.4619C91.4165 30.1583 91.5517 29.8177 91.5517 29.4845V29.4475C91.5517 29.2031 91.5517 29.0254 91.8648 29.0032C91.9857 29.0032 92.0854 28.9292 92.064 28.7663C92.0427 28.6034 91.9003 28.633 91.7936 28.6256H90.1854C90.0929 28.6256 89.9719 28.5812 89.9506 28.7441C89.9292 28.907 89.9506 28.9662 90.0929 28.9884C90.3776 29.0402 90.406 29.2401 90.406 29.4919C90.406 30.4693 90.406 31.4541 90.406 32.4537C90.406 32.6906 90.3704 32.8757 90.1143 32.9202C89.8581 32.9646 89.9364 33.0534 89.9577 33.1793C89.9791 33.3052 90.1071 33.2978 90.1997 33.2978H91.1959C91.6565 33.3126 92.1175 33.2977 92.5763 33.2534C92.783 33.2391 92.9832 33.1729 93.1599 33.0605C93.3365 32.9481 93.4844 32.7928 93.5907 32.6079C93.697 32.423 93.7587 32.214 93.7704 31.9989C93.7821 31.7837 93.7435 31.5688 93.658 31.3726ZM92.3131 32.6684C92.2119 32.7462 92.0928 32.7947 91.9678 32.809C91.8428 32.8233 91.7164 32.8029 91.6015 32.7499C91.4022 32.661 91.509 32.4389 91.5018 32.2834C91.4813 32.037 91.4813 31.7893 91.5018 31.5429C91.5018 31.3726 91.388 31.1357 91.6869 31.0617C91.8135 31.0156 91.9509 31.013 92.079 31.0543C92.2071 31.0957 92.3191 31.1787 92.3985 31.2912C92.5219 31.4888 92.5817 31.7222 92.5692 31.9576C92.5777 32.0882 92.5592 32.2192 92.5151 32.3418C92.4709 32.4644 92.402 32.5758 92.3131 32.6684Z" fill="white"/>
<path d="M48.6729 28.6848C48.182 28.5948 47.6817 28.5749 47.1857 28.6256H46.0329C45.9404 28.6256 45.8194 28.5812 45.7981 28.7515C45.7767 28.9218 45.7981 28.9662 45.9404 28.9884C46.2535 29.0403 46.2606 29.2772 46.2606 29.529C46.2606 30.4619 46.2606 31.3949 46.2606 32.3204C46.2606 32.6018 46.2606 32.8609 45.9119 32.9202C45.7981 32.9202 45.7981 33.0461 45.7981 33.1423C45.7981 33.2386 45.8906 33.283 45.9831 33.283H47.7123C47.7977 33.283 47.8973 33.283 47.9186 33.1645C47.94 33.0461 47.9186 32.935 47.7763 32.9276C47.392 32.9276 47.392 32.624 47.4063 32.3278C47.4241 32.1283 47.4241 31.9276 47.4063 31.7281C47.3707 31.4097 47.449 31.2764 47.7976 31.3356C48.1664 31.3936 48.5435 31.3342 48.8792 31.1653C49.1264 31.0464 49.3296 30.8469 49.458 30.597C49.5864 30.3472 49.633 30.0606 49.5908 29.7807C49.5803 29.5167 49.4836 29.2643 49.3168 29.065C49.1499 28.8658 48.9228 28.7317 48.6729 28.6848ZM47.7194 30.9062C47.513 30.9062 47.392 30.8321 47.4063 30.5804C47.4205 30.3286 47.4063 29.9214 47.4063 29.5882C47.4063 29.4253 47.2924 29.1809 47.5344 29.1217C47.6726 29.0659 47.8255 29.0637 47.9652 29.1153C48.105 29.167 48.2222 29.2691 48.2957 29.4031C48.383 29.5814 48.4223 29.7809 48.4096 29.9806C48.4096 30.5804 48.1677 30.9062 47.7194 30.884V30.9062Z" fill="white"/>
<path d="M63.7372 32.9275C63.5633 32.809 63.4388 32.6265 63.3885 32.4166C62.926 31.2097 62.4421 30.0102 62.0151 28.7959C61.8871 28.4405 61.6736 28.5663 61.4672 28.5367C61.4228 28.5235 61.3762 28.52 61.3304 28.5265C61.2846 28.5329 61.2406 28.5492 61.2012 28.5743C61.1617 28.5993 61.1277 28.6326 61.1012 28.672C61.0748 28.7114 61.0564 28.7561 61.0474 28.8033C60.6347 29.988 60.1935 31.1653 59.7665 32.3426C59.6812 32.5943 59.61 32.8535 59.3111 32.9349C59.1973 32.9349 59.2115 33.0682 59.2115 33.1571C59.2115 33.2459 59.3111 33.2903 59.3965 33.2903H60.3572C60.4568 33.2903 60.5422 33.2903 60.5493 33.1497C60.5564 33.009 60.5493 32.9572 60.4354 32.9349C60.3216 32.9127 60.1935 32.8387 60.2291 32.698C60.2959 32.3866 60.4011 32.0854 60.5422 31.8021C60.6489 31.617 60.9193 31.7354 61.1114 31.7354C61.944 31.7354 61.9369 31.7354 62.2215 32.5351C62.2927 32.7572 62.3069 32.8979 62.0436 32.9349C61.9013 32.9349 61.8942 33.046 61.9013 33.1645C61.9084 33.283 62.0009 33.2903 62.0934 33.2903H63.6305C63.7158 33.2903 63.8226 33.2904 63.851 33.1867C63.8675 33.1365 63.8649 33.0817 63.8437 33.0335C63.8225 32.9853 63.7844 32.9474 63.7372 32.9275ZM61.6024 31.2393C60.6276 31.2912 60.6276 31.2911 60.9762 30.3286C61.026 30.1953 61.0759 30.062 61.1612 29.8103L61.6736 31.1875C61.6522 31.2171 61.6024 31.2393 61.6024 31.2393Z" fill="white"/>
<path d="M15.0788 13.9944C15.9588 13.9924 16.8304 14.1722 17.6431 14.5235C18.4558 14.8748 19.1933 15.3905 19.8129 16.0408C20.4325 16.691 20.9219 17.4628 21.2525 18.3114C21.5832 19.16 21.7486 20.0685 21.7392 20.9842C21.7355 21.8958 21.5585 22.7976 21.2183 23.6377C20.878 24.4778 20.3814 25.2395 19.757 25.8789C19.1325 26.5184 18.3927 27.0229 17.58 27.3634C16.7673 27.7039 15.8979 27.8737 15.0218 27.8629C14.1392 27.8571 13.2664 27.6696 12.4537 27.3112C11.641 26.9528 10.9046 26.4306 10.2867 25.7746C9.66893 25.1187 9.18198 24.342 8.85398 23.4893C8.52598 22.6366 8.36342 21.7248 8.37564 20.8065C8.41473 18.9843 9.13839 17.2507 10.3915 15.9773C11.6445 14.7038 13.3272 13.992 15.0788 13.9944Z" fill="white"/>
<path d="M22.2233 21.0138C22.2312 19.6665 21.8889 18.342 21.2325 17.1806C20.576 16.0192 19.63 15.0641 18.4946 14.4165C18.2384 14.261 18.2811 14.1351 18.3736 13.9278C18.4661 13.7204 18.6369 13.7945 18.7721 13.8685C19.681 14.3599 20.4821 15.0419 21.1251 15.8716C21.7681 16.7012 22.2389 17.6604 22.5079 18.6888C22.8816 19.9532 22.9411 21.2956 22.6811 22.5904C22.421 23.8853 21.8497 25.0904 21.0207 26.0933C19.8166 27.6502 18.085 28.6677 16.1819 28.9366C14.8675 29.1665 13.5174 29.0021 12.2895 28.4627C12.197 28.4257 11.9337 28.4627 12.0618 28.1739C12.1899 27.8851 12.2184 27.8333 12.4888 27.9296C13.6391 28.4053 14.8897 28.5565 16.1142 28.3679C17.3387 28.1794 18.4937 27.6578 19.4623 26.8559C20.1988 26.2807 20.8161 25.5565 21.2771 24.7269C21.7381 23.8974 22.0333 22.9794 22.145 22.0282C22.1975 21.6929 22.2237 21.3536 22.2233 21.0138Z" fill="white"/>
<path d="M18.986 24.7086C18.8152 24.7086 18.7369 24.6272 18.6587 24.4865C18.6291 24.4088 18.5849 24.3379 18.5287 24.2782C18.4725 24.2184 18.4054 24.171 18.3314 24.1385C18.4666 23.9608 18.6302 24.1385 18.7583 24.0052C18.6711 23.8967 18.6085 23.7691 18.5752 23.6319C18.542 23.4947 18.5388 23.3515 18.5662 23.2129C18.5662 23.0944 17.8048 22.5169 17.6909 22.5539C17.6118 22.5936 17.5377 22.6433 17.4703 22.702C17.2413 22.8541 17.0457 23.0547 16.8961 23.2907C16.7466 23.5268 16.6464 23.7929 16.6022 24.0718C16.5704 24.1028 16.5318 24.1254 16.4898 24.1375C16.4478 24.1497 16.4036 24.1511 16.361 24.1416C16.3184 24.1322 16.2786 24.1121 16.245 24.0832C16.2114 24.0543 16.185 24.0174 16.1681 23.9756C16.0756 23.8127 15.912 23.6276 15.9333 23.4721C15.976 23.0722 15.7127 22.9686 15.4992 22.7834C15.2858 22.5983 15.0652 22.3984 14.7236 22.5021C14.6026 22.5021 14.4461 22.4354 14.2824 22.391C14.5315 22.9389 14.3536 23.1981 13.7772 23.361C13.4285 23.4573 13.0656 23.4943 12.6885 23.6276C12.8379 23.8423 13.0443 23.7386 13.2079 23.746C13.4854 23.746 13.578 23.7831 13.4214 24.1163C13.2151 24.4471 12.9174 24.7052 12.5675 24.8567C12.3327 25.0048 12.2758 25.1233 12.3683 25.3824C12.4608 25.6416 12.7525 25.9748 12.2188 26.1229C12.1406 26.1229 12.2188 26.2339 12.1832 26.2932C12.1405 26.6708 12.0552 26.7152 11.7278 26.5671C11.4062 26.4342 11.114 26.2343 10.8693 25.9796C10.6246 25.7249 10.4324 25.4209 10.3047 25.0862C10.1197 24.4717 9.67135 23.9312 9.74251 23.2203C9.74251 22.976 9.53615 22.7316 9.36537 22.5983C8.59686 22.0208 8.75341 21.2063 8.79611 20.4363C8.80833 20.1328 8.92029 19.843 9.11329 19.6152C9.30629 19.3874 9.56861 19.2355 9.85636 19.1849C9.85636 19.2441 9.89194 19.3182 9.9631 19.333C10.1513 19.3744 10.3197 19.4828 10.4392 19.6396C10.5588 19.7965 10.6219 19.9918 10.6178 20.1919C10.6178 20.4066 10.7032 20.7102 11.0589 20.6584C11.1941 20.6584 11.2867 20.7621 11.3792 20.8583C11.4784 20.9634 11.6004 21.0421 11.735 21.0878C11.8559 21.1249 12.0196 21.1693 12.0765 21.0212C12.1334 20.8731 11.9555 20.8509 11.8701 20.8139C11.7716 20.7712 11.6909 20.6932 11.6427 20.5942C11.5944 20.4951 11.5817 20.3813 11.6069 20.2734C11.5001 20.3696 11.493 20.5399 11.3365 20.4955C11.1799 20.4511 11.1514 20.3252 11.1372 20.1845C11.1195 20.0817 11.1195 19.9764 11.1372 19.8735C11.1681 19.8266 11.1847 19.7711 11.1847 19.7143C11.1847 19.6575 11.1681 19.602 11.1372 19.5551C11.1372 19.5921 11.1372 19.6218 11.1372 19.644C11.1529 19.6707 11.1613 19.7015 11.1613 19.7328C11.1613 19.7642 11.1529 19.7949 11.1372 19.8217C11.1204 19.8858 11.0869 19.944 11.0405 19.9897C10.9941 20.0354 10.9364 20.0669 10.8739 20.0808C10.8383 20.0943 10.7994 20.0951 10.7633 20.083C10.7273 20.0709 10.6961 20.0467 10.6747 20.0142C10.6521 19.9906 10.6394 19.9587 10.6394 19.9253C10.6394 19.892 10.6521 19.8601 10.6747 19.8365C10.8739 19.6588 10.7174 19.4959 10.6747 19.3404C10.632 19.1849 10.4541 19.0812 10.262 19.1997C10.0698 19.3182 9.97733 19.4366 9.84924 19.1997C9.79015 19.1072 9.76167 18.9971 9.76809 18.8862C9.77451 18.7753 9.81549 18.6696 9.88483 18.5851C9.9155 18.5298 9.95968 18.4838 10.0129 18.4519C10.4327 18.7851 10.5324 18.015 10.9024 18.1779C10.938 18.1779 10.9949 18.1779 10.9949 18.089C11.1657 18.089 11.3507 18.1853 11.5072 18.0298C11.6638 17.8743 11.8346 17.9558 11.6994 17.6892C11.6282 17.5485 11.8061 17.3856 11.9271 17.393C12.1734 17.3737 12.4145 17.3085 12.6387 17.2005C12.8087 17.1316 12.996 17.1233 13.1711 17.1769C13.3462 17.2305 13.4993 17.3429 13.6064 17.4967C13.6633 17.5707 13.8057 17.6226 13.7345 17.7484C13.6634 17.8743 13.5708 17.7484 13.4855 17.7484C13.4001 17.7484 13.3431 17.6226 13.3289 17.7855C13.3147 17.9483 13.4001 17.9335 13.4712 17.9039C14.0061 17.7355 14.5635 17.658 15.1221 17.6744H15.1648C15.2644 17.319 15.5562 17.4448 15.7839 17.4152C15.8977 17.4152 15.9262 17.282 15.9831 17.1931C16.1824 16.8673 16.5666 16.5711 16.8228 16.6526C17.079 16.734 17.328 16.5711 17.5771 16.5415C17.8261 16.5119 17.8048 16.4082 17.8688 16.2453C18.0183 15.8973 18.2744 15.5789 17.9186 15.1273C18.7868 15.5049 19.0927 16.3194 19.6905 16.8155C19.3489 16.8155 19.2564 16.4897 18.9789 16.2675C19.0597 16.5303 19.0911 16.8069 19.0714 17.082C19.0714 17.4078 19.1354 17.4374 19.477 17.4152C19.6264 17.4152 19.8897 17.8077 19.9111 17.9706C19.9609 18.4815 19.7759 19.022 20.1103 19.4959C20.1672 19.5773 20.2384 19.6958 20.1103 19.7772C19.9822 19.8587 19.9538 19.718 19.8897 19.6514C19.8664 19.6244 19.8378 19.6028 19.806 19.5881C19.7741 19.5733 19.7396 19.5657 19.7047 19.5657C19.6698 19.5657 19.6353 19.5733 19.6035 19.5881C19.5716 19.6028 19.543 19.6244 19.5197 19.6514C19.3987 19.7995 19.6407 19.7402 19.6407 19.7995C19.6407 20.1475 20.032 20.303 20.032 20.6436C20.0521 21.0693 19.9117 21.4864 19.6407 21.8061C19.5707 21.895 19.4801 21.9638 19.3774 22.006C19.1781 22.08 19.1141 22.2503 19.3133 22.4132C19.5126 22.5761 19.5624 22.8945 19.3774 23.1537C19.2778 23.3092 19.1781 23.3758 19.0002 23.2721C18.8223 23.1685 18.8152 23.1389 18.7441 23.2721C18.6729 23.4054 18.6729 23.5387 18.7868 23.5979C19.1995 23.8127 19.0002 24.294 19.2066 24.5901C19.1639 24.7308 19.0927 24.7827 18.986 24.7086Z" fill="white"/>
<path d="M13.2926 14.7274C13.3638 14.7274 13.4705 14.7274 13.499 14.7645C13.6556 14.9718 13.2855 15.7641 13.0294 15.7566C12.8395 15.7523 12.6508 15.7876 12.4743 15.8603C12.2181 15.9566 11.9691 16.1417 11.7627 15.7641C11.6916 15.6382 11.5635 15.764 11.4141 15.727C11.6116 15.4612 11.8901 15.2732 12.2039 15.1939C12.5984 15.1301 12.972 14.9675 13.2926 14.72V14.7274Z" fill="white"/>
<path d="M15.9045 14.3276C15.4917 14.3276 15.079 14.4016 14.6663 14.3276C14.5809 14.3276 14.3745 14.2684 14.3247 14.5423C14.2749 14.8163 13.8551 14.7719 13.6701 14.6312C13.4851 14.4905 13.4068 14.6312 13.2929 14.7052C12.9727 14.7052 12.7166 14.9496 12.375 14.9348C12.4177 14.8829 12.439 14.8459 12.4675 14.8311C13.5168 14.3362 14.672 14.1346 15.8191 14.2461C15.8191 14.2461 15.8689 14.2906 15.8973 14.3202L15.9045 14.3276Z" fill="white"/>
<path d="M20.2382 23.5165C20.3307 23.4795 20.3521 23.3388 20.4944 23.3314C20.4588 23.5017 20.4374 23.672 20.3876 23.8349C20.3378 23.9978 20.3023 24.0497 20.2026 23.9312C20.103 23.8127 20.0603 23.9312 20.0318 23.9978C20.0076 24.0733 19.9588 24.1376 19.8938 24.1795C19.8288 24.2215 19.7518 24.2384 19.6761 24.2274C19.4341 24.2274 19.3701 24.0719 19.5195 23.8942C19.7285 23.6769 19.9038 23.4271 20.039 23.1537C20.039 23.0871 20.0817 22.9834 20.1955 23.0426C20.3094 23.1019 20.288 23.1463 20.2382 23.2352C20.213 23.2774 20.1996 23.3261 20.1996 23.3759C20.1996 23.4256 20.213 23.4743 20.2382 23.5165Z" fill="white"/>
<path d="M19.0625 26.1525C19.7203 25.3675 20.3379 24.5469 20.9126 23.6942C20.5414 24.685 19.8979 25.54 19.0625 26.1525Z" fill="white"/>
<path d="M12.9083 26.3302C12.9083 26.0192 13.1859 25.9822 13.3566 25.9007C13.5274 25.8193 13.563 26.0858 13.5274 26.2191C13.4918 26.3524 13.442 26.693 13.1716 26.6782C13.1292 26.6836 13.0861 26.6774 13.0466 26.6605C13.0071 26.6435 12.9724 26.6162 12.9459 26.5812C12.9195 26.5463 12.9021 26.5048 12.8955 26.4608C12.889 26.4169 12.8934 26.3719 12.9083 26.3302Z" fill="white"/>
<path d="M15.9043 14.335C16.5886 14.3487 17.2559 14.5588 17.8327 14.9422C17.1211 14.8829 16.5803 14.4313 15.9043 14.3276V14.335Z" fill="white"/>
<path d="M10.9936 18.0742C10.8869 18.0742 10.7375 18.1483 10.6876 18.015C10.6378 17.8817 10.7873 17.8151 10.8798 17.7558C10.9723 17.6966 11.1146 17.4226 11.3636 17.2301C11.2071 17.5781 11.1004 17.8299 10.9865 18.0742H10.9936Z" fill="white"/>
<path d="M20.3301 19.8809C20.3301 19.3848 20.5222 18.9628 20.3301 18.5407C20.4749 18.7315 20.5538 18.9676 20.5538 19.2108C20.5538 19.454 20.4749 19.6901 20.3301 19.8809Z" fill="white"/>
<path d="M21.3482 22.4947C21.4051 22.7316 21.2557 22.8871 21.2059 23.0722C21.1982 23.0976 21.1848 23.1208 21.1669 23.1399C21.1491 23.159 21.1271 23.1734 21.1029 23.182C21.0787 23.1907 21.0528 23.1933 21.0275 23.1896C21.0021 23.186 20.9779 23.1762 20.9568 23.1611C20.9355 23.1463 20.9186 23.1255 20.9082 23.1012C20.8977 23.0768 20.8942 23.0499 20.8979 23.0235C20.9017 22.9971 20.9125 22.9723 20.9292 22.9521C20.946 22.9319 20.9679 22.9171 20.9924 22.9093C21.1845 22.8353 21.1632 22.5984 21.3482 22.4947Z" fill="white"/>
<path d="M15.185 16.9636C15.0426 17.2153 14.6726 17.1561 14.6513 17.4893C14.6513 17.5337 14.5588 17.4893 14.5161 17.4893C14.4734 17.4893 14.4591 17.356 14.5161 17.2894C14.5952 17.1843 14.697 17.1001 14.8132 17.0435C14.9294 16.9869 15.0567 16.9595 15.185 16.9636Z" fill="white"/>
<path d="M18.9844 24.7086L19.2192 24.6198C19.3719 24.638 19.5253 24.5927 19.6462 24.4939C19.6667 24.4815 19.69 24.475 19.7138 24.475C19.7375 24.475 19.7608 24.4815 19.7814 24.4939C19.8383 24.5679 19.7814 24.6198 19.7102 24.642C19.6026 24.7112 19.4809 24.7533 19.3549 24.7649C19.2289 24.7764 19.102 24.7572 18.9844 24.7086Z" fill="white"/>
<path d="M20.3732 21.6876C20.3163 21.8727 20.5867 22.0208 20.423 22.1985C20.4138 22.2123 20.4016 22.2235 20.3873 22.2313C20.3731 22.239 20.3573 22.2431 20.3412 22.2431C20.3251 22.2431 20.3092 22.239 20.295 22.2313C20.2807 22.2235 20.2685 22.2123 20.2593 22.1985C20.1597 21.9838 20.2309 21.8209 20.3732 21.6876Z" fill="white"/>
<path d="M16.6016 24.0422C16.7083 23.9978 16.8222 23.8719 16.872 24.1014C16.872 24.2051 16.872 24.3236 16.8008 24.331C16.6016 24.331 16.6442 24.1607 16.6087 24.0348L16.6016 24.0422Z" fill="white"/>
<path d="M13.7336 16.4527C13.5841 16.4527 13.4276 16.586 13.3137 16.4527C13.1999 16.3194 13.3137 16.3268 13.392 16.2972C13.5912 16.1639 13.6197 16.3934 13.7336 16.4527Z" fill="white"/>
<path d="M11.6069 16.2306C11.6781 16.275 11.735 16.312 11.7137 16.386C11.6923 16.4601 11.7137 16.5563 11.5713 16.5193C11.429 16.4823 11.4433 16.4749 11.4646 16.386C11.486 16.2972 11.5429 16.2676 11.6069 16.2306Z" fill="white"/>
<path d="M11.1501 19.8365C11.271 19.9698 11.2141 20.1327 11.2283 20.2882C11.2426 20.4437 11.271 20.4437 11.3635 20.4437C11.456 20.4437 11.4418 20.3548 11.4489 20.2956C11.456 20.2363 11.4489 20.0216 11.6268 20.0734C11.8047 20.1253 11.7264 20.2141 11.698 20.3178C11.6197 20.6214 11.8403 20.7028 12.0396 20.7917C12.2388 20.8805 12.3171 20.8583 12.2246 21.0582C12.132 21.2581 12.068 21.31 11.8972 21.2433C11.7075 21.2196 11.529 21.137 11.3849 21.0064C11.2568 20.8657 11.1643 20.6732 10.8512 20.7991C10.7089 20.8509 10.4385 20.377 10.4883 20.1623C10.5879 19.7032 10.2677 19.607 10.0329 19.4589C9.91902 19.3774 9.8194 19.3478 9.85498 19.1849C9.99018 19.3256 10.0756 19.1849 10.1823 19.1331C10.531 18.9035 10.6875 18.948 10.78 19.3478C10.8156 19.4959 11.2355 19.7847 10.7089 19.8809C10.7089 19.8809 10.7089 19.955 10.7089 19.9846C10.7089 20.0142 10.7729 20.0438 10.8299 19.9846C10.9231 19.9207 11.0206 19.8638 11.1216 19.8143L11.1501 19.8365Z" fill="white"/>
<path d="M12.8946 20.34C12.5531 20.4067 12.304 20.0809 11.9767 20.1401C11.9744 20.0379 12.0017 19.9373 12.055 19.8513C12.0977 19.7699 12.1404 19.681 12.2471 19.6958C12.2848 19.703 12.3186 19.7243 12.3422 19.7557C12.3658 19.7871 12.3775 19.8264 12.3752 19.8661C12.3752 19.955 12.3752 20.029 12.4961 20.029C12.6171 20.029 12.4961 19.8217 12.6598 19.8291C12.8235 19.8365 12.6242 19.9994 12.7381 20.0661C12.7855 20.0928 12.8251 20.1324 12.8526 20.1806C12.8802 20.2288 12.8947 20.2839 12.8946 20.34Z" fill="white"/>
<path d="M12.6303 17.6892C12.575 17.7097 12.5261 17.7452 12.4885 17.7921C12.451 17.839 12.4262 17.8955 12.4168 17.9558C12.3893 18.0985 12.309 18.2243 12.1932 18.306C12.0774 18.3877 11.9354 18.4188 11.7978 18.3926C11.6768 18.3926 11.5558 18.3186 11.5843 18.1557C11.5843 18.1557 11.5843 18.0002 11.6768 18.0595C12.0041 18.2594 12.0397 18.252 12.239 17.904C12.2723 17.8283 12.3288 17.7662 12.3995 17.7274C12.4703 17.6885 12.5515 17.6751 12.6303 17.6892Z" fill="white"/>
<path d="M13.8832 20.029C13.6484 20.3104 13.8477 20.5177 13.8832 20.7324C13.8832 20.8213 13.9544 20.9101 13.8832 20.9842C13.8621 20.9947 13.839 21.0001 13.8156 21.0001C13.7922 21.0001 13.7691 20.9947 13.748 20.9842C13.6995 20.9657 13.6598 20.9284 13.6372 20.88C13.6146 20.8317 13.611 20.7761 13.6271 20.725C13.6911 20.5843 13.6271 20.4733 13.6271 20.3474C13.6271 20.2215 13.5986 20.0586 13.8832 20.029Z" fill="white"/>
<path d="M12.5035 23.25C12.4181 23.0056 11.9983 22.8797 12.2402 22.5095C12.4537 22.7168 12.6316 22.9316 12.5035 23.25Z" fill="white"/>
<path d="M13.4629 21.8653C13.6123 21.9986 13.6692 22.2355 13.9041 22.2725C13.9539 22.2725 14.0037 22.3244 13.9681 22.391C13.9615 22.4055 13.952 22.4184 13.9402 22.4287C13.9284 22.439 13.9146 22.4465 13.8997 22.4507C13.8848 22.455 13.8692 22.4558 13.854 22.4531C13.8388 22.4505 13.8243 22.4445 13.8116 22.4354C13.7141 22.376 13.6317 22.2933 13.5711 22.1942C13.5104 22.095 13.4734 21.9823 13.4629 21.8653Z" fill="white"/>
<path d="M11.9551 21.769C12.1614 21.8875 12.1614 21.8875 12.197 22.354C12.0191 22.1689 12.0191 22.1689 11.9551 21.769Z" fill="white"/>
<path d="M11.1514 19.8365L11.002 19.3034H11.1016C11.1016 19.4885 11.4076 19.6144 11.1514 19.8661V19.8365Z" fill="white"/>
</g>
<defs>
<clipPath id="clip0_4066_27247">
<rect width="96" height="37" fill="white"/>
</clipPath>
</defs>
</svg>
