<svg width="198" height="40" viewBox="0 0 198 40" fill="none" xmlns="http://www.w3.org/2000/svg">
<g clip-path="url(#clip0_4382_36599)">
<path d="M12.8628 16.5675C12.8628 14.2449 14.8215 12.3624 17.2382 12.3624C19.6548 12.3624 21.6135 14.2543 21.6135 16.5675C21.6135 18.8808 19.6548 20.7727 17.2382 20.7727C14.8215 20.7727 12.8628 18.8808 12.8628 16.5675ZM24.4199 16.5675C24.4199 12.7652 21.1944 9.66518 17.2382 9.66518C13.2819 9.66518 10.0564 12.7652 10.0564 16.5675C10.0564 20.3699 13.2721 23.4699 17.2382 23.4699C21.2042 23.4699 24.4199 20.3699 24.4199 16.5675ZM7.44485 27.3191C7.44485 26.9445 7.2792 26.598 7.01609 26.3451C4.42404 23.8539 2.80644 20.3793 2.80644 16.5675C2.80644 8.91595 9.27683 2.6879 17.2382 2.6879C25.1995 2.6879 31.6699 8.91595 31.6699 16.5582C31.6699 20.3793 30.0523 23.8539 27.4407 26.3638L15.2503 38.0801L17.2382 39.9906L29.4384 28.265C32.5566 25.2681 34.486 21.1285 34.486 16.5582C34.4763 7.41747 26.7586 0 17.2382 0C7.7177 0 0 7.41747 0 16.5675C0 21.1379 1.92943 25.2775 5.0282 28.265C5.2913 28.5179 5.64211 28.6678 6.03189 28.6678C6.80171 28.6678 7.43511 28.0684 7.43511 27.3191M25.8718 24.8373C28.0741 22.7113 29.4384 19.7893 29.4384 16.5582C29.4384 10.0866 23.9619 4.82323 17.2284 4.82323C10.4949 4.82323 5.0282 10.096 5.0282 16.5675C5.0282 19.7986 6.41193 22.7488 8.59471 24.8466C8.84807 25.0901 9.20862 25.2494 9.59841 25.2494C10.3682 25.2494 11.0016 24.65 11.0016 23.9007C11.0016 23.5167 10.836 23.1702 10.5631 22.9267C8.87731 21.2878 7.82489 19.04 7.82489 16.5675C7.82489 11.5851 12.0443 7.52049 17.2284 7.52049C22.4125 7.52049 26.6319 11.5757 26.6319 16.5675C26.6319 19.0588 25.5795 21.3159 23.8742 22.9548L11.6837 34.671L13.6619 36.5722L25.8718 24.8373Z" fill="#302525"/>
<path d="M43.7031 8.83167H45.194V11.8942H46.11L48.4585 8.83167H50.2125L47.3963 12.3718L50.6023 16.4645H48.7118L46.1685 13.1585H45.1843V16.4645H43.6934V8.83167H43.7031Z" fill="#302525"/>
<path d="M50.7578 13.7298C50.7578 12.0628 51.9759 10.8734 53.6325 10.8734C55.289 10.8734 56.5071 12.0628 56.5071 13.7298C56.5071 15.3969 55.2793 16.5957 53.6325 16.5957C51.9856 16.5957 50.7578 15.4062 50.7578 13.7298ZM55.0357 13.7298C55.0357 12.7839 54.4802 12.0909 53.6325 12.0909C52.7847 12.0909 52.2292 12.7745 52.2292 13.7298C52.2292 14.6851 52.7847 15.3782 53.6325 15.3782C54.4802 15.3782 55.0357 14.6664 55.0357 13.7298Z" fill="#302525"/>
<path d="M59.0907 18.4781H57.668V10.9951H59.0907V11.66H59.1102C59.4025 11.2667 59.9579 10.864 60.8252 10.864C62.3259 10.864 63.4465 12.0534 63.4465 13.7204C63.4465 15.3875 62.3259 16.5863 60.8252 16.5863C59.9677 16.5863 59.4025 16.1836 59.1102 15.7902H59.0907V18.4687V18.4781ZM60.5134 15.3594C61.3806 15.3594 61.9751 14.657 61.9751 13.7111C61.9751 12.7651 61.3709 12.0908 60.5134 12.0908C59.6559 12.0908 59.042 12.7932 59.042 13.7111C59.042 14.6289 59.6559 15.3594 60.5134 15.3594Z" fill="#302525"/>
<path d="M64.6152 10.9951H69.4485V16.4552H68.0258V12.1658H66.0282V16.4552H64.6055V10.9951H64.6152Z" fill="#302525"/>
<path d="M70.6289 13.7298C70.6289 12.0628 71.847 10.8734 73.5036 10.8734C75.1601 10.8734 76.3782 12.0628 76.3782 13.7298C76.3782 15.3969 75.1504 16.5957 73.5036 16.5957C71.8567 16.5957 70.6289 15.4062 70.6289 13.7298ZM74.9068 13.7298C74.9068 12.7839 74.3513 12.0909 73.5036 12.0909C72.6558 12.0909 72.1003 12.7745 72.1003 13.7298C72.1003 14.6851 72.6558 15.3782 73.5036 15.3782C74.3513 15.3782 74.9068 14.6664 74.9068 13.7298Z" fill="#302525"/>
<path d="M78.9501 18.4781H77.5273V10.9951H78.9501V11.66H78.9695C79.2619 11.2667 79.8173 10.864 80.6846 10.864C82.1853 10.864 83.3059 12.0534 83.3059 13.7204C83.3059 15.3875 82.1853 16.5863 80.6846 16.5863C79.8271 16.5863 79.2619 16.1836 78.9695 15.7902H78.9501V18.4687V18.4781ZM80.3728 15.3594C81.24 15.3594 81.8345 14.657 81.8345 13.7111C81.8345 12.7651 81.2303 12.0908 80.3728 12.0908C79.5152 12.0908 78.9013 12.7932 78.9013 13.7111C78.9013 14.6289 79.5152 15.3594 80.3728 15.3594Z" fill="#302525"/>
<path d="M84.1445 14.7788C84.1445 13.8984 84.8754 12.9993 86.6391 12.9993C86.9217 12.9993 87.3408 13.018 87.6818 13.0649V12.915C87.6818 12.3344 87.2141 12.0628 86.6489 12.0628C86.0837 12.0628 85.6062 12.2594 85.2457 12.5029L84.3881 11.6788C85.0021 11.1543 85.8986 10.8734 86.7074 10.8734C88.169 10.8734 89.1143 11.6601 89.1143 12.9431V16.4645H87.7208V15.9401H87.7013C87.3602 16.3522 86.8633 16.5957 86.1519 16.5957C85.0118 16.5957 84.164 15.809 84.164 14.7881L84.1445 14.7788ZM87.6818 14.3199V14.1044C87.409 14.0576 87.0777 14.0295 86.8438 14.0295C85.996 14.0295 85.5867 14.3199 85.5867 14.7694C85.5867 15.1534 85.9375 15.4905 86.493 15.4905C87.0971 15.4905 87.6818 15.0972 87.6818 14.3199Z" fill="#302525"/>
<path d="M91.6858 12.1752H89.9805V10.9951H94.9307L94.4922 12.1752H93.1085V16.4646H91.6858V12.1752Z" fill="#302525"/>
<path d="M95.7598 10.9951H97.1825V14.3573H97.202L99.5699 10.9951H100.817V16.4552H99.3945V13.093H99.375L97.0071 16.4552H95.7598V10.9951Z" fill="#302525"/>
<path d="M102.277 16.4645V11.0045H104.743C106.029 11.0045 106.896 11.5289 106.896 12.4748C106.896 12.9806 106.545 13.3833 106.117 13.5425V13.5612C106.731 13.7673 107.15 14.2262 107.15 14.8443C107.15 15.8277 106.321 16.4552 105.025 16.4552H102.277V16.4645ZM104.684 13.2334C105.103 13.2334 105.435 13.0742 105.435 12.6996C105.435 12.325 105.103 12.1658 104.684 12.1658H103.7V13.2334H104.684ZM104.957 15.2938C105.396 15.2938 105.688 15.0784 105.688 14.76C105.688 14.4416 105.405 14.2168 104.957 14.2168H103.7V15.2938H104.957Z" fill="#302525"/>
<path d="M108.428 10.9951H109.85V13.0743H111.965V10.9951H113.388V16.4552H111.965V14.2543H109.85V16.4552H108.428V10.9951Z" fill="#302525"/>
<path d="M114.83 10.9951H116.253V12.6528H117.208C118.445 12.6528 119.43 13.4301 119.43 14.5634C119.43 15.6966 118.445 16.4646 117.208 16.4646H114.84V11.0045L114.83 10.9951ZM117.052 15.3313C117.559 15.3313 117.958 15.0129 117.958 14.554C117.958 14.0951 117.559 13.7673 117.052 13.7673H116.243V15.3313H117.052ZM119.888 10.9951H121.31V16.4552H119.888V10.9951Z" fill="#302525"/>
<path d="M122.762 10.9951H124.184V14.3573H124.204L126.572 10.9951H127.819V16.4552H126.396V13.093H126.377L124.009 16.4552H122.762V10.9951ZM123.395 9.38423L124.155 8.66309C124.34 8.92532 124.72 9.29994 125.256 9.29994C125.87 9.29994 126.211 8.92532 126.387 8.66309L127.127 9.38423C126.913 9.75885 126.28 10.377 125.266 10.377C124.253 10.377 123.639 9.75885 123.395 9.38423Z" fill="#302525"/>
<path d="M130.928 18.0473L131.834 17.1763C132 17.2981 132.194 17.4198 132.477 17.4198C132.955 17.4198 133.179 17.0733 133.413 16.4177L131.142 11.0045H132.75L134.114 14.5633H134.134L135.361 11.0045H136.882L134.826 16.5207C134.338 17.8319 133.666 18.628 132.497 18.628C131.824 18.628 131.279 18.3657 130.918 18.0473H130.928Z" fill="#302525"/>
<path d="M137.66 10.9951H139.083V13.0743H141.197V10.9951H142.62V16.4552H141.197V14.2543H139.083V16.4552H137.66V10.9951Z" fill="#302525"/>
<path d="M144.062 10.9951H145.485V14.3573H145.505L147.873 10.9951H149.12V16.4552H147.697V13.093H147.678L145.31 16.4552H144.062V10.9951Z" fill="#302525"/>
<path d="M150.572 16.4645V11.0045H153.038C154.324 11.0045 155.191 11.5289 155.191 12.4748C155.191 12.9806 154.84 13.3833 154.412 13.5425V13.5612C155.026 13.7673 155.445 14.2262 155.445 14.8443C155.445 15.8277 154.616 16.4552 153.32 16.4552H150.572V16.4645ZM152.979 13.2334C153.398 13.2334 153.729 13.0742 153.729 12.6996C153.729 12.325 153.398 12.1658 152.979 12.1658H151.995V13.2334H152.979ZM153.252 15.2938C153.691 15.2938 153.983 15.0784 153.983 14.76C153.983 14.4416 153.7 14.2168 153.252 14.2168H151.995V15.2938H153.252Z" fill="#302525"/>
<path d="M156.332 13.7392C156.332 12.0628 157.511 10.8734 159.1 10.8734C160.688 10.8734 161.838 11.8099 161.838 13.8984V14.1794H157.852C157.979 15.0035 158.671 15.3688 159.363 15.3688C159.86 15.3688 160.347 15.1627 160.659 14.8443L161.565 15.7153C160.931 16.3147 160.132 16.5957 159.216 16.5957C157.696 16.5957 156.332 15.5374 156.332 13.7392ZM160.337 13.1866C160.269 12.5217 159.83 12.0066 159.109 12.0066C158.388 12.0066 157.94 12.531 157.842 13.1866H160.337Z" fill="#302525"/>
<path d="M164.458 18.4781H163.035V10.9951H164.458V11.66H164.477C164.77 11.2667 165.325 10.864 166.192 10.864C167.693 10.864 168.814 12.0534 168.814 13.7204C168.814 15.3875 167.693 16.5863 166.192 16.5863C165.335 16.5863 164.77 16.1836 164.477 15.7902H164.458V18.4687V18.4781ZM165.881 15.3594C166.748 15.3594 167.342 14.657 167.342 13.7111C167.342 12.7651 166.738 12.0908 165.881 12.0908C165.023 12.0908 164.409 12.7932 164.409 13.7111C164.409 14.6289 165.023 15.3594 165.881 15.3594Z" fill="#302525"/>
<path d="M169.701 13.7298C169.701 12.0628 170.861 10.8734 172.508 10.8734C173.287 10.8734 174.038 11.1075 174.593 11.6413L173.696 12.5029C173.433 12.2501 173.053 12.0909 172.576 12.0909C171.728 12.0909 171.173 12.7933 171.173 13.7392C171.173 14.6851 171.728 15.3969 172.576 15.3969C173.053 15.3969 173.433 15.2377 173.696 14.9848L174.593 15.8464C174.038 16.3803 173.287 16.605 172.508 16.605C170.861 16.605 169.701 15.4156 169.701 13.7392V13.7298Z" fill="#302525"/>
<path d="M175.586 10.9951H177.009V14.3573H177.028L179.396 10.9951H180.643V16.4552H179.221V13.093H179.201L176.833 16.4552H175.586V10.9951Z" fill="#302525"/>
<path d="M183.295 12.1752H181.59V10.9951H186.54L186.102 12.1752H184.718V16.4646H183.295V12.1752Z" fill="#302525"/>
<path d="M186.969 13.7392C186.969 12.0628 188.148 10.8734 189.736 10.8734C191.325 10.8734 192.474 11.8099 192.474 13.8984V14.1794H188.489C188.616 15.0035 189.307 15.3688 189.999 15.3688C190.496 15.3688 190.984 15.1627 191.295 14.8443L192.202 15.7153C191.568 16.3147 190.769 16.5957 189.853 16.5957C188.333 16.5957 186.969 15.5374 186.969 13.7392ZM190.974 13.1866C190.906 12.5217 190.467 12.0066 189.746 12.0066C189.025 12.0066 188.577 12.531 188.479 13.1866H190.974Z" fill="#302525"/>
<path d="M194.754 12.1752H193.049V10.9951H197.999L197.561 12.1752H196.177V16.4646H194.754V12.1752Z" fill="#302525"/>
<path d="M45.3115 20.9974H43.0508V19.7331H49.4237L48.9462 20.9974H46.8122V27.366H45.3018V20.9974H45.3115Z" fill="#302525"/>
<path d="M50.2528 29.3889H48.8301V21.9059H50.2528V22.5708H50.2723C50.5646 22.1775 51.1201 21.7748 51.9873 21.7748C53.488 21.7748 54.6086 22.9642 54.6086 24.6313C54.6086 26.2983 53.488 27.4971 51.9873 27.4971C51.1298 27.4971 50.5646 27.0944 50.2723 26.701H50.2528V29.3796V29.3889ZM51.6755 26.2702C52.5428 26.2702 53.1372 25.5678 53.1372 24.6219C53.1372 23.676 52.533 23.0017 51.6755 23.0017C50.818 23.0017 50.2041 23.7041 50.2041 24.6219C50.2041 25.5397 50.818 26.2702 51.6755 26.2702Z" fill="#302525"/>
<path d="M55.4355 25.6895C55.4355 24.8092 56.1664 23.9101 57.9302 23.9101C58.2128 23.9101 58.6318 23.9288 58.9728 23.9756V23.8258C58.9728 23.2451 58.5051 22.9735 57.9399 22.9735C57.3747 22.9735 56.8972 23.1702 56.5367 23.4137L55.6792 22.5896C56.2931 22.0651 57.1896 21.7841 57.9984 21.7841C59.4601 21.7841 60.4053 22.5708 60.4053 23.8539V27.3753H59.0118V26.8508H58.9923C58.6513 27.2629 58.1543 27.5064 57.4429 27.5064C56.3028 27.5064 55.455 26.7197 55.455 25.6989L55.4355 25.6895ZM58.9728 25.2306V25.0152C58.7 24.9684 58.3687 24.9403 58.1348 24.9403C57.287 24.9403 56.8777 25.2306 56.8777 25.6802C56.8777 26.0641 57.2285 26.4013 57.784 26.4013C58.3882 26.4013 58.9728 26.008 58.9728 25.2306Z" fill="#302525"/>
<path d="M61.7891 21.9059H63.2118V23.985H65.3263V21.9059H66.7491V27.366H65.3263V25.1651H63.2118V27.366H61.7891V21.9059Z" fill="#302525"/>
<path d="M67.9102 24.6313C67.9102 22.9642 69.0698 21.7748 70.7166 21.7748C71.4962 21.7748 72.2465 22.0089 72.8019 22.5428L71.9054 23.4044C71.6423 23.1515 71.2623 22.9923 70.7848 22.9923C69.937 22.9923 69.3816 23.6947 69.3816 24.6406C69.3816 25.5865 69.937 26.2983 70.7848 26.2983C71.2623 26.2983 71.6423 26.1391 71.9054 25.8862L72.8019 26.7479C72.2465 27.2817 71.4962 27.5065 70.7166 27.5065C69.0698 27.5065 67.9102 26.317 67.9102 24.6406V24.6313Z" fill="#302525"/>
<path d="M73.8047 21.9059H78.638V27.366H77.2153V23.0766H75.2176V27.366H73.7949V21.9059H73.8047Z" fill="#302525"/>
<path d="M79.8066 24.6313C79.8066 22.9642 81.0247 21.7748 82.6813 21.7748C84.3379 21.7748 85.5559 22.9642 85.5559 24.6313C85.5559 26.2983 84.3281 27.4971 82.6813 27.4971C81.0345 27.4971 79.8066 26.3077 79.8066 24.6313ZM84.0845 24.6313C84.0845 23.6853 83.5291 22.9923 82.6813 22.9923C81.8335 22.9923 81.2781 23.676 81.2781 24.6313C81.2781 25.5865 81.8335 26.2796 82.6813 26.2796C83.5291 26.2796 84.0845 25.5678 84.0845 24.6313Z" fill="#302525"/>
<path d="M88.1297 29.3889H86.707V21.9059H88.1297V22.5708H88.1492C88.4416 22.1775 88.997 21.7748 89.8643 21.7748C91.3649 21.7748 92.4856 22.9642 92.4856 24.6313C92.4856 26.2983 91.3649 27.4971 89.8643 27.4971C89.0067 27.4971 88.4416 27.0944 88.1492 26.701H88.1297V29.3796V29.3889ZM89.5524 26.2702C90.4197 26.2702 91.0141 25.5678 91.0141 24.6219C91.0141 23.676 90.41 23.0017 89.5524 23.0017C88.6949 23.0017 88.081 23.7041 88.081 24.6219C88.081 25.5397 88.6949 26.2702 89.5524 26.2702Z" fill="#302525"/>
<path d="M94.7366 23.0859H93.0312V21.9059H97.9815L97.543 23.0859H96.1593V27.3753H94.7366V23.0859Z" fill="#302525"/>
<path d="M98.8086 21.9059H100.231V23.985H102.346V21.9059H103.769V27.366H102.346V25.1651H100.231V27.366H98.8086V21.9059Z" fill="#302525"/>
<path d="M104.93 24.6313C104.93 22.9642 106.148 21.7748 107.804 21.7748C109.461 21.7748 110.679 22.9642 110.679 24.6313C110.679 26.2983 109.451 27.4971 107.804 27.4971C106.158 27.4971 104.93 26.3077 104.93 24.6313ZM109.208 24.6313C109.208 23.6853 108.652 22.9923 107.804 22.9923C106.957 22.9923 106.401 23.676 106.401 24.6313C106.401 25.5865 106.957 26.2796 107.804 26.2796C108.652 26.2796 109.208 25.5678 109.208 24.6313Z" fill="#302525"/>
<path d="M111.838 21.9059H115.706L115.268 23.0859H113.261V27.3753H111.838V21.9152V21.9059Z" fill="#302525"/>
<path d="M116.096 24.6313C116.096 22.9642 117.314 21.7748 118.97 21.7748C120.627 21.7748 121.845 22.9642 121.845 24.6313C121.845 26.2983 120.617 27.4971 118.97 27.4971C117.324 27.4971 116.096 26.3077 116.096 24.6313ZM120.374 24.6313C120.374 23.6853 119.818 22.9923 118.97 22.9923C118.123 22.9923 117.567 23.676 117.567 24.6313C117.567 25.5865 118.123 26.2796 118.97 26.2796C119.818 26.2796 120.374 25.5678 120.374 24.6313Z" fill="#302525"/>
<path d="M125.676 21.9059H127.098V24.0412H127.673L129.038 21.9059H130.626L128.921 24.4908L130.948 27.366H129.301L127.79 25.1744H127.089V27.366H125.666V21.9059H125.676Z" fill="#302525"/>
<path d="M131.201 24.6313C131.201 22.9642 132.419 21.7748 134.076 21.7748C135.732 21.7748 136.95 22.9642 136.95 24.6313C136.95 26.2983 135.723 27.4971 134.076 27.4971C132.429 27.4971 131.201 26.3077 131.201 24.6313ZM135.479 24.6313C135.479 23.6853 134.924 22.9923 134.076 22.9923C133.228 22.9923 132.673 23.676 132.673 24.6313C132.673 25.5865 133.228 26.2796 134.076 26.2796C134.924 26.2796 135.479 25.5678 135.479 24.6313Z" fill="#302525"/>
<path d="M138.841 21.9059H140L141.404 25.5678H141.423L142.875 21.9059H143.996L145.399 27.366H143.927L143.216 24.1255H143.197L141.91 27.366H140.848L139.62 24.1255H139.601L138.889 27.366H137.447L138.841 21.9059Z" fill="#302525"/>
<path d="M146.422 21.9059H151.255V27.366H149.832V23.0766H147.835V27.366H146.412V21.9059H146.422Z" fill="#302525"/>
<path d="M152.15 27.366V26.2327C152.15 26.2327 152.316 26.2889 152.433 26.2889C152.901 26.2889 153.037 25.9049 153.125 24.8841C153.281 23.0391 153.329 21.9059 153.329 21.9059H157.481V27.366H156.058V23.0766H154.548C154.528 23.5355 154.499 24.163 154.46 24.7624C154.323 26.5605 153.992 27.469 152.735 27.469C152.452 27.469 152.17 27.3753 152.141 27.3566L152.15 27.366Z" fill="#302525"/>
<path d="M158.66 24.6406C158.66 22.9642 159.839 21.7748 161.428 21.7748C163.016 21.7748 164.166 22.7113 164.166 24.7998V25.0808H160.18C160.307 25.905 160.999 26.2702 161.691 26.2702C162.188 26.2702 162.675 26.0642 162.987 25.7457L163.893 26.6167C163.26 27.2161 162.461 27.4971 161.545 27.4971C160.024 27.4971 158.66 26.4388 158.66 24.6406ZM162.665 24.0881C162.597 23.4231 162.158 22.908 161.437 22.908C160.716 22.908 160.268 23.4325 160.171 24.0881H162.665Z" fill="#302525"/>
<path d="M165.365 21.9059H166.788V24.0412H167.363L168.727 21.9059H170.315L168.61 24.4908L170.637 27.366H168.99L167.48 25.1744H166.778V27.366H165.355V21.9059H165.365Z" fill="#302525"/>
<path d="M170.891 24.6313C170.891 22.9642 172.05 21.7748 173.697 21.7748C174.477 21.7748 175.227 22.0089 175.782 22.5428L174.886 23.4044C174.623 23.1515 174.243 22.9923 173.765 22.9923C172.918 22.9923 172.362 23.6947 172.362 24.6406C172.362 25.5865 172.918 26.2983 173.765 26.2983C174.243 26.2983 174.623 26.1391 174.886 25.8862L175.782 26.7479C175.227 27.2817 174.477 27.5065 173.697 27.5065C172.05 27.5065 170.891 26.317 170.891 24.6406V24.6313Z" fill="#302525"/>
<path d="M176.443 25.6895C176.443 24.8092 177.174 23.9101 178.938 23.9101C179.221 23.9101 179.64 23.9288 179.981 23.9756V23.8258C179.981 23.2451 179.513 22.9735 178.948 22.9735C178.383 22.9735 177.905 23.1702 177.544 23.4137L176.687 22.5896C177.301 22.0651 178.197 21.7841 179.006 21.7841C180.468 21.7841 181.413 22.5708 181.413 23.8539V27.3753H180.02V26.8508H180C179.659 27.2629 179.162 27.5064 178.451 27.5064C177.311 27.5064 176.463 26.7197 176.463 25.6989L176.443 25.6895ZM179.981 25.2306V25.0152C179.708 24.9684 179.376 24.9403 179.143 24.9403C178.295 24.9403 177.886 25.2306 177.886 25.6802C177.886 26.0641 178.236 26.4013 178.792 26.4013C179.396 26.4013 179.981 26.008 179.981 25.2306Z" fill="#302525"/>
</g>
<defs>
<clipPath id="clip0_4382_36599">
<rect width="198" height="40" fill="white"/>
</clipPath>
</defs>
</svg>
