<svg width="240" height="28" viewBox="0 0 240 28" fill="none" xmlns="http://www.w3.org/2000/svg">
<g clip-path="url(#clip0_4382_35453)">
<path d="M116.803 28.0851H103.777H95.3893C95.279 27.8645 95.4656 27.7882 95.5589 27.6948C99.279 24.0577 102.999 20.4149 106.719 16.7664L116.336 7.33119C116.472 7.19543 116.582 7.02576 116.803 7.00879V28.0851Z" fill="#302525"/>
<path d="M87.3244 0.636353V1.16241C87.3244 9.88483 87.3244 18.6044 87.3244 27.3212C87.3244 27.8982 87.2056 28.0848 86.5866 28.0763C77.665 28.0763 68.7774 28.0763 60 28.0763L87.3244 0.636353Z" fill="#302525"/>
<path d="M29.8936 0.118896C30.9367 0.967381 31.9883 1.81589 33.0314 2.71528C36.6158 5.69064 40.2059 8.66598 43.8017 11.6413C43.9833 11.7702 44.1296 11.9426 44.2274 12.1427C44.3252 12.3428 44.3713 12.5643 44.3614 12.7868C44.3614 17.6458 44.3614 22.5048 44.3614 27.3638C44.3614 27.9407 44.2088 28.085 43.6406 28.0765C39.2561 28.0765 34.8632 28.0765 30.4787 28.0765C29.9699 28.0765 29.7664 27.9916 29.7664 27.4147C29.7664 18.4716 29.7664 9.53145 29.7664 0.594072C29.748 0.510468 29.75 0.423673 29.7721 0.340987C29.7942 0.258301 29.8359 0.182119 29.8936 0.118896Z" fill="#302525"/>
<path d="M116.743 0.246089C116.582 0.316277 116.431 0.407561 116.294 0.517584C110.51 6.31556 104.732 12.1135 98.9597 17.9115C98.5696 18.3018 98.3915 18.2849 98.0183 17.9115C95.0671 14.9362 92.1017 11.975 89.1222 9.02789C88.9665 8.88371 88.8441 8.70731 88.7635 8.51094C88.683 8.31458 88.6462 8.10297 88.6558 7.89092C88.6558 5.45577 88.6558 3.02912 88.6558 0.593971C88.6558 0.212153 88.7067 0.00851423 89.1731 0.00851423C98.253 0.00851423 107.333 0.00851423 116.413 0.00851423C116.472 0.00448614 116.531 0.00448614 116.591 0.00851423L116.743 0.246089Z" fill="#302525"/>
<path d="M0.321454 14.0083C0.321454 9.56227 0.321454 5.1162 0.321454 0.661654C0.321454 0.458018 0.211206 0.169523 0.440181 0.0677043C0.669156 -0.0341139 0.796375 0.262877 0.940544 0.407119C5.0621 4.51379 9.18082 8.62044 13.2967 12.7271C13.4303 12.8494 13.5358 12.9992 13.6061 13.1662C13.6764 13.3331 13.7097 13.5133 13.7038 13.6944C13.7038 18.2649 13.7038 22.8411 13.7038 27.4229C13.7038 27.915 13.602 28.0847 13.0677 28.0762C9.03099 28.0762 4.99142 28.0762 0.94902 28.0762C0.414745 28.0762 0.304502 27.9065 0.304502 27.4144C0.321463 22.9457 0.327107 18.477 0.321454 14.0083Z" fill="#302525"/>
<path d="M28.4251 14.0424C28.4251 18.4884 28.4251 22.9345 28.4251 27.3806C28.4251 27.8981 28.3402 28.0848 27.7636 28.0763C23.7523 28.0763 19.7325 28.0763 15.7127 28.0763C15.2123 28.0763 15.0512 27.966 15.0512 27.44C15.0512 22.8327 15.0512 18.2339 15.0512 13.6351C15.0465 13.4547 15.0812 13.2754 15.153 13.1097C15.2248 12.9441 15.3318 12.7962 15.4667 12.6763L27.806 0.39027C27.9586 0.246028 28.0858 -0.025482 28.3233 0.0508817C28.5607 0.127245 28.442 0.432694 28.442 0.627845C28.4364 5.10219 28.4307 9.5737 28.4251 14.0424Z" fill="#302525"/>
<path d="M31.8535 0.0253906H32.4641C40.6733 0.0253906 48.891 0.0253906 57.0578 0.0253906C57.6938 0.0253906 57.838 0.195081 57.838 0.814475C57.838 4.07266 57.838 7.33085 57.838 10.5805C57.838 11.0727 57.7192 11.1999 57.2274 11.1915C53.2924 11.1915 49.3659 11.1915 45.4309 11.1915C45.1503 11.2107 44.8733 11.1193 44.6592 10.9369L32.0486 0.262965C31.9778 0.188679 31.9126 0.109272 31.8535 0.0253906Z" fill="#302525"/>
<path d="M62.3754 0.0761719H85.5698C85.5698 0.305263 85.3917 0.381626 85.2814 0.500414L74.3754 11.4035C74.1295 11.6495 73.9768 11.8362 73.6206 11.4798C69.9457 7.78042 66.2708 4.10365 62.5959 0.449507C62.4941 0.339204 62.3669 0.279808 62.3754 0.0761719Z" fill="#302525"/>
<path d="M59.2285 26.3962V3.60596C59.5762 3.92838 59.873 4.19141 60.1529 4.45444C63.5451 7.78899 66.9373 11.1405 70.3974 14.4581C70.7875 14.8399 70.7621 15.0266 70.3974 15.3999C66.8525 18.9126 63.319 22.4338 59.7967 25.9635C59.6587 26.1651 59.4595 26.3168 59.2285 26.3962Z" fill="#302525"/>
<path d="M48.9421 21.9673C48.9421 20.1006 48.9421 18.2424 48.9421 16.3757C48.9421 15.9685 49.0184 15.8073 49.4763 15.8157C52.094 15.8157 54.7202 15.8157 57.3548 15.8157C57.7364 15.8157 57.8721 15.9176 57.8721 16.3248C57.8721 20.0751 57.8721 23.8255 57.8721 27.5758C57.8721 28 57.7195 28.0764 57.3378 28.0679C54.7343 28.0679 52.1308 28.0679 49.5272 28.0679C49.0778 28.0679 48.9336 27.9491 48.9336 27.4909C48.959 25.6497 48.9421 23.783 48.9421 21.9673Z" fill="#302525"/>
<path d="M88.6973 28.0257V10.7335C88.9602 10.6911 89.045 10.9032 89.1722 11.0305L97.1354 18.9808C97.3135 19.159 97.5934 19.2863 97.2542 19.6257C94.4556 22.3833 91.6824 25.1578 88.8923 27.9239C88.8294 27.9617 88.7643 27.9957 88.6973 28.0257Z" fill="#302525"/>
<path d="M7.18359 0.0253906H21.4988C21.6006 0.203572 21.4055 0.271446 21.3207 0.364779L14.7398 6.94054C14.5362 7.15266 14.3921 7.34782 14.0783 7.02539C11.8225 4.74297 9.54968 2.486 7.29385 0.237512C7.25216 0.169486 7.21531 0.0986031 7.18359 0.0253906Z" fill="#302525"/>
<path d="M124.835 10.8097C124.521 10.8097 124.513 10.9624 124.504 11.2C124.496 11.4376 124.504 11.6073 124.877 11.6328C125.257 11.6977 125.648 11.6271 125.981 11.4332C126.314 11.2394 126.569 10.9346 126.701 10.5722C127.014 9.86791 127.286 9.13823 127.549 8.40853C127.978 7.3113 128.4 6.21407 128.822 5.11684C129.033 4.56807 129.245 4.01911 129.457 3.47034C128.787 3.25822 128.532 3.52125 128.329 4.1067C127.903 5.34388 127.425 6.56377 126.942 7.79486L126.942 7.79593C126.839 8.05882 126.736 8.32251 126.633 8.5867C126.455 8.41399 126.338 8.18733 126.302 7.94185C126.227 7.74256 126.151 7.54368 126.076 7.34503L126.075 7.34324C125.667 6.26534 125.26 5.19386 124.903 4.09821C124.708 3.52124 124.445 3.24973 123.834 3.47034C123.782 3.6381 123.853 3.78623 123.924 3.93339C123.946 3.97974 123.968 4.02602 123.987 4.07276C124.436 5.28707 124.889 6.45794 125.344 7.632C125.525 8.09865 125.705 8.56581 125.886 9.0364C126.319 10.0376 125.937 10.6909 124.835 10.8097Z" fill="#302525"/>
<path d="M166.364 11.1067C166.975 10.1346 167.653 9.17126 168.37 8.1501C168.649 7.7541 168.933 7.3494 169.222 6.93211V10.937C169.222 10.9785 169.219 11.0214 169.216 11.0641C169.2 11.2832 169.184 11.4984 169.595 11.5055C170.024 11.5128 170.015 11.2689 170.005 11.0208C170.004 10.9842 170.003 10.9475 170.003 10.9115V6.29574C170.003 6.24819 170.013 6.19308 170.024 6.13594C170.058 5.95858 170.096 5.76163 169.833 5.71029C169.676 5.65046 169.502 5.65119 169.345 5.71233C169.188 5.77348 169.06 5.89069 168.985 6.04121C168.708 6.49933 168.396 6.94032 168.084 7.38243C167.957 7.56264 167.83 7.74303 167.704 7.92485L166.212 10.08C166.107 8.93481 166.101 7.82923 166.095 6.72832C166.095 6.58125 166.094 6.43427 166.093 6.28728C166.093 6.24147 166.098 6.19264 166.103 6.14331C166.126 5.91852 166.149 5.68332 165.711 5.67637C165.261 5.66921 165.275 5.8853 165.29 6.1262C165.293 6.17088 165.296 6.21672 165.296 6.26182V10.8097C165.296 10.8671 165.284 10.9314 165.272 10.9971C165.236 11.1934 165.198 11.4016 165.465 11.4715C165.634 11.5316 165.819 11.5276 165.984 11.4603C166.15 11.393 166.285 11.2672 166.364 11.1067Z" fill="#302525"/>
<path d="M129.703 16.3843H124.759C124.326 16.3843 124.258 16.537 124.258 16.9188V23.9443C124.258 23.9745 124.258 24.0044 124.257 24.0338C124.252 24.3023 124.248 24.5297 124.691 24.5297C125.14 24.5297 125.137 24.3107 125.133 24.0338C125.132 24.0072 125.132 23.9802 125.132 23.9528V17.7673C125.132 17.2752 125.268 17.1479 125.751 17.1649H128.685C129.194 17.1649 129.287 17.3261 129.279 17.7927V24.0376C129.279 24.4024 129.381 24.5297 129.754 24.5297C130.127 24.5297 130.169 24.36 130.169 24.0546V16.834C130.144 16.4946 130.051 16.3843 129.703 16.3843Z" fill="#302525"/>
<path d="M209.166 16.3927C208.902 16.3927 208.832 16.5604 208.763 16.7274C208.746 16.7695 208.728 16.8115 208.708 16.8508L206.164 22.1963C206.111 22.0968 206.062 22.0054 206.015 21.919L206.014 21.9181L206.014 21.9172L206.013 21.9161C205.925 21.7531 205.845 21.6072 205.774 21.4581C205.598 21.0949 205.422 20.7322 205.246 20.3696C204.657 19.1566 204.069 17.9451 203.501 16.7236C203.331 16.367 203.076 16.3819 202.787 16.3988L202.746 16.4011C202.478 16.4161 202.485 16.6606 202.49 16.8578C202.491 16.8847 202.492 16.9113 202.492 16.9357V24.029C202.492 24.309 202.492 24.5296 202.882 24.5296C203.272 24.5296 203.391 24.4363 203.374 24.0545V18.7175C204.222 20.0836 204.909 21.4751 205.596 22.8666C205.714 23.1127 205.808 23.2908 206.147 23.2908C206.486 23.2908 206.588 23.0872 206.698 22.8496C206.893 22.4254 207.097 22.0011 207.309 21.5684C207.621 20.9262 207.938 20.284 208.253 19.6442L208.259 19.6315L208.26 19.6298C208.421 19.3023 208.582 18.9755 208.742 18.6496C208.852 20.4569 208.852 22.2302 208.844 24.0036C208.844 24.309 208.844 24.5296 209.259 24.5296C209.675 24.5296 209.751 24.3514 209.743 23.9866V16.8933C209.76 16.4011 209.539 16.3842 209.166 16.3927Z" fill="#302525"/>
<path d="M152.925 19.0788C153.054 18.8863 153.172 18.709 153.474 18.709C153.839 18.7005 153.958 18.7939 153.932 19.2011V24.0799C153.941 24.3854 153.881 24.5551 153.517 24.5551C153.152 24.5551 153.101 24.3939 153.101 24.0799V20.1854C152.872 20.2796 152.777 20.4432 152.688 20.5957C152.665 20.6355 152.642 20.6746 152.618 20.7114C152.428 20.9848 152.238 21.2573 152.048 21.5295C151.431 22.4146 150.816 23.2967 150.226 24.1987C150.154 24.3313 150.04 24.4364 149.902 24.4978C149.764 24.5591 149.61 24.5733 149.463 24.5381C149.146 24.4799 149.189 24.2641 149.227 24.0708C149.239 24.0104 149.251 23.9522 149.251 23.9017V19.2181L149.251 19.1728C149.249 18.9216 149.248 18.718 149.632 18.726C150.039 18.7345 150.039 18.9042 150.039 19.2011V23.0872H150.158L152.889 19.1333C152.901 19.1151 152.913 19.0969 152.925 19.0788Z" fill="#302525"/>
<path d="M140.388 6.94066L138.319 9.96127C138.022 10.3431 137.708 10.7588 137.471 11.251C137.391 11.3809 137.269 11.4786 137.124 11.5267C136.98 11.5749 136.823 11.5703 136.682 11.514C136.449 11.4623 136.478 11.2824 136.504 11.1134C136.513 11.0606 136.521 11.0089 136.521 10.9625V6.27884C136.521 6.23357 136.516 6.18601 136.51 6.13852C136.488 5.92789 136.465 5.71884 136.894 5.71884C137.337 5.71884 137.322 5.94807 137.307 6.18782C137.304 6.2324 137.301 6.27735 137.301 6.32126V10.2667C137.527 9.90539 137.732 9.61481 137.927 9.33751C138.002 9.23077 138.076 9.12555 138.149 9.01946C138.33 8.75648 138.512 8.49351 138.695 8.23003L138.696 8.22802L138.697 8.2267C139.192 7.51367 139.689 6.79696 140.159 6.06672C140.242 5.92428 140.372 5.81511 140.527 5.75786C140.681 5.70061 140.851 5.69883 141.007 5.75279C141.269 5.81034 141.232 6.00281 141.198 6.18132C141.187 6.23968 141.177 6.29654 141.177 6.34671V11.0304C141.177 11.3613 141.177 11.5564 140.736 11.5479C140.361 11.5407 140.372 11.3372 140.384 11.1251C140.386 11.0878 140.388 11.0502 140.388 11.0134V6.94066Z" fill="#302525"/>
<path d="M133.893 8.92619H131.552C131.306 8.92619 131.162 9.01952 131.162 9.29104V10.988C131.162 11.251 131.153 11.5056 130.789 11.4971C130.424 11.4886 130.373 11.3359 130.373 11.022V6.13467C130.373 5.82073 130.373 5.68499 130.797 5.67651C131.174 5.66896 131.169 5.86255 131.163 6.08444C131.163 6.11215 131.162 6.14037 131.162 6.16862V7.73832C131.145 8.0862 131.272 8.17106 131.611 8.17106H133.893C134.215 8.17954 134.283 8.06923 134.283 7.76377V6.0668C134.274 5.7359 134.393 5.67651 134.698 5.67651C135.004 5.67651 135.105 5.76136 135.105 6.0753V11.0983C135.114 11.4207 135.012 11.5056 134.69 11.5056C134.367 11.5056 134.291 11.3953 134.291 11.0898V9.33348C134.3 9.01954 134.215 8.92619 133.893 8.92619Z" fill="#302525"/>
<path d="M170.384 18.7089H167.322C166.975 18.7089 166.881 18.8108 166.89 19.1502V21.9502C166.924 22.2859 166.874 22.6249 166.743 22.9362C166.613 23.2474 166.407 23.521 166.143 23.732C165.609 24.0629 165.736 24.3344 166.05 24.6738C166.462 24.5021 166.821 24.2251 167.092 23.8707C167.363 23.5162 167.536 23.0968 167.594 22.6544C167.677 22.184 167.714 21.7066 167.704 21.2289C167.704 21.0645 167.684 20.8856 167.664 20.7053C167.613 20.2532 167.562 19.7928 167.823 19.532C168.057 19.2976 168.452 19.3433 168.858 19.3903C169.083 19.4164 169.312 19.4429 169.519 19.4217C170.044 19.3676 170.042 19.5458 170.037 19.8731C170.036 19.9051 170.036 19.9385 170.036 19.9732V24.0714C170.036 24.3344 170.036 24.5211 170.401 24.5211C170.765 24.5211 170.85 24.4362 170.85 24.0799V19.1417C170.816 18.8108 170.731 18.7005 170.384 18.7089Z" fill="#302525"/>
<path d="M226.608 19.7966C226.43 20.3451 226.255 20.8864 225.847 21.3309C225.754 21.4327 225.762 21.4837 225.838 21.6194C226.323 22.1203 226.507 22.7478 226.691 23.378C226.798 23.7406 226.904 24.104 227.068 24.4449C226.262 24.64 226.246 24.6315 226.033 23.9528L225.881 23.4521C225.379 21.9471 225.269 21.9496 224.1 21.9758C223.925 21.9798 223.726 21.9843 223.498 21.9843C223.192 21.9758 223.192 22.1964 223.192 22.417V24.1734C223.201 24.4534 223.125 24.5552 222.828 24.5552C222.531 24.5552 222.404 24.4873 222.404 24.1564V19.1418C222.404 18.8449 222.489 18.7176 222.802 18.7176C223.116 18.7176 223.201 18.8194 223.201 19.1334C223.201 19.3107 223.204 19.502 223.207 19.694L223.207 19.6951C223.212 20.0816 223.218 20.4707 223.201 20.754C223.176 21.1782 223.328 21.2546 223.718 21.2546C225.202 21.2715 225.27 21.2376 225.771 19.8376C225.8 19.757 225.828 19.6743 225.855 19.5915C225.883 19.5088 225.911 19.4261 225.94 19.3455C226.152 18.7006 226.152 18.7006 227 18.7855C226.831 19.111 226.719 19.4552 226.608 19.7966Z" fill="#302525"/>
<path d="M161.157 11.2508C161.584 11.4712 162.059 11.5813 162.539 11.5709C163.019 11.5605 163.489 11.4301 163.905 11.1914C164.253 11.0217 164.253 10.869 164.007 10.5805C163.806 10.3451 163.673 10.4261 163.521 10.5192C163.486 10.5402 163.451 10.5618 163.413 10.5805C162.26 11.1236 160.818 10.6908 160.945 9.06173C160.967 8.73682 160.967 8.41088 160.945 8.08598C160.903 7.7821 160.951 7.47232 161.084 7.19575C161.216 6.91918 161.428 6.68823 161.692 6.53207C161.956 6.37591 162.261 6.30155 162.567 6.31837C162.873 6.33519 163.168 6.44244 163.413 6.62658C163.82 6.88113 163.981 6.72838 164.151 6.42293C164.306 6.14317 164.021 6.00577 163.841 5.91944L163.819 5.90877L163.795 5.89687C162.201 5.15869 160.013 5.76111 160.114 8.06899V9.11264C160.055 9.53253 160.122 9.96069 160.308 10.3418C160.494 10.723 160.79 11.0396 161.157 11.2508Z" fill="#302525"/>
<path d="M221.017 19.6286C220.901 19.7643 220.802 19.8783 220.521 19.6932C220.215 19.4681 219.842 19.3524 219.462 19.3647C219.082 19.377 218.718 19.5166 218.427 19.7611C217.714 20.372 217.723 22.8496 218.427 23.4435C218.703 23.6749 219.047 23.8119 219.407 23.8348C219.766 23.8577 220.124 23.7652 220.428 23.5708C220.818 23.3502 220.92 23.435 221.14 23.7829C221.315 24.0576 221.108 24.1418 220.938 24.2111C220.893 24.2295 220.85 24.2469 220.818 24.2666C220.337 24.5193 219.794 24.6288 219.253 24.5822C218.712 24.5356 218.196 24.3347 217.765 24.0035C217.265 23.5453 217.163 23.1381 217.163 21.6362V20.8556C217.119 20.4429 217.21 20.027 217.42 19.6695C217.631 19.312 217.951 19.0317 218.333 18.8702C218.758 18.6727 219.225 18.5833 219.692 18.6099C220.16 18.6366 220.614 18.7784 221.013 19.0229C221.234 19.1417 221.276 19.3708 221.107 19.532C221.074 19.563 221.045 19.5964 221.017 19.6286Z" fill="#302525"/>
<path d="M181.061 19.7186C181.333 19.8807 181.417 19.7703 181.51 19.6487C181.539 19.6111 181.568 19.5725 181.604 19.5404C181.757 19.4047 181.757 19.1586 181.528 19.0314C181.129 18.7863 180.676 18.6427 180.209 18.6131C179.742 18.5835 179.274 18.6689 178.848 18.8617C178.463 19.0207 178.141 19.3001 177.928 19.658C177.716 20.016 177.625 20.4332 177.669 20.8471V21.7465C177.639 22.2679 177.685 22.791 177.805 23.2992C178.415 24.8859 180.663 24.8095 181.596 24.1053C181.714 24.012 181.791 23.9017 181.663 23.7914C181.627 23.7597 181.596 23.7113 181.563 23.6604C181.483 23.5338 181.392 23.3915 181.18 23.452C181.108 23.452 181.043 23.5014 180.976 23.5518C180.932 23.5849 180.888 23.6184 180.841 23.6386C179.637 24.1392 178.356 23.5792 178.449 22.1114V21.195C178.466 19.5574 179.645 18.8786 181.061 19.7186Z" fill="#302525"/>
<path d="M155.314 18.6922H159.02L159.066 18.6921C159.313 18.6907 159.486 18.6898 159.486 19.0656C159.486 19.4644 159.283 19.4644 158.994 19.4644C158.851 19.4697 158.697 19.4526 158.543 19.4357C158.206 19.3985 157.875 19.362 157.688 19.5662C157.497 19.7758 157.538 20.1207 157.578 20.4636C157.595 20.6065 157.612 20.7491 157.612 20.8813V24.0717C157.621 24.3941 157.553 24.5468 157.188 24.5468C156.823 24.5468 156.772 24.3856 156.772 24.0717V19.9735C156.789 19.5832 156.594 19.4474 156.272 19.4474C156.166 19.4474 156.055 19.4455 155.943 19.4437L155.942 19.4437H155.94C155.712 19.4399 155.481 19.4361 155.288 19.4474C155 19.4644 154.873 19.422 154.864 19.0571C154.856 18.6923 155.051 18.6922 155.314 18.6922Z" fill="#302525"/>
<path d="M183.224 6.40619C183.648 6.36376 183.733 6.54196 183.716 6.92378V11.0135C183.716 11.3783 183.809 11.5056 184.19 11.5056C184.572 11.5056 184.606 11.3444 184.606 11.0304V7.97589C184.606 7.84189 184.595 7.69908 184.585 7.55534C184.556 7.17126 184.527 6.78039 184.699 6.53345C184.864 6.29742 185.21 6.34044 185.574 6.38568C185.733 6.40549 185.895 6.42573 186.048 6.42315C186.353 6.42315 186.463 6.3383 186.463 6.02436C186.463 5.71042 186.345 5.66801 186.082 5.66801H182.189C181.926 5.66801 181.799 5.71044 181.799 6.01589C181.799 6.32135 181.918 6.44012 182.215 6.42315C182.341 6.41592 182.484 6.41793 182.632 6.41999C182.831 6.42278 183.039 6.42568 183.224 6.40619Z" fill="#302525"/>
<path d="M182.817 18.6919H186.531C186.786 18.6919 186.998 18.7344 186.989 19.0568C186.981 19.3792 186.862 19.4556 186.565 19.4556C186.407 19.4582 186.24 19.4364 186.076 19.4151C185.713 19.3677 185.372 19.3232 185.208 19.5574C185.035 19.8045 185.065 20.2001 185.093 20.5869C185.104 20.7313 185.115 20.8745 185.115 21.0083V24.0628C185.123 24.3853 185.056 24.538 184.691 24.538C184.326 24.538 184.275 24.3683 184.275 24.0628V19.8968C184.284 19.5659 184.174 19.4471 183.834 19.4471C183.722 19.4471 183.603 19.4461 183.483 19.4452C183.242 19.4433 182.998 19.4414 182.8 19.4471C182.503 19.4556 182.384 19.4047 182.376 19.0483C182.367 18.6919 182.554 18.6919 182.817 18.6919Z" fill="#302525"/>
<path d="M172.86 6.94071C172.832 7.38696 172.841 7.8332 172.851 8.28195C172.856 8.50727 172.86 8.73321 172.86 8.96011V11.0389C172.86 11.3528 172.911 11.5056 173.276 11.5056C173.64 11.5056 173.7 11.3528 173.7 11.0389V7.64494C173.7 6.508 173.7 6.40615 174.963 6.39767H175.226C175.532 6.39767 175.574 6.25342 175.574 5.99888C175.574 5.74433 175.498 5.65102 175.235 5.65102H171.334C171.079 5.65102 170.995 5.74433 170.995 5.99888C170.995 6.25342 170.995 6.41464 171.351 6.39767C171.589 6.38634 171.8 6.39014 172.01 6.39391C172.115 6.39579 172.219 6.39767 172.326 6.39767C172.648 6.39767 172.86 6.49101 172.86 6.94071Z" fill="#302525"/>
<path d="M238.975 19.1504C238.966 18.8195 239.059 18.7092 239.407 18.7092C239.772 18.7007 239.772 18.8789 239.763 19.1419V24.0716C239.772 24.3177 239.763 24.5383 239.416 24.5298C239.068 24.5213 238.975 24.411 238.975 24.0716V19.1504Z" fill="#302525"/>
<path fill-rule="evenodd" clip-rule="evenodd" d="M133.986 18.6664C133.419 18.831 132.871 19.0528 132.349 19.3283C132.349 19.0228 132.349 18.6749 131.883 18.7089C131.514 18.7357 131.543 19.0009 131.567 19.224C131.573 19.2833 131.579 19.3396 131.577 19.3877V26.9222H132.222C132.293 26.829 132.344 26.7221 132.372 26.6082C132.399 26.4943 132.403 26.3759 132.383 26.2604V24.2071C132.978 24.4312 133.605 24.5601 134.24 24.5889C134.512 24.6175 134.786 24.5856 135.044 24.4956C135.301 24.4056 135.536 24.2597 135.73 24.0683C135.925 23.8768 136.075 23.6447 136.169 23.3885C136.263 23.1323 136.3 22.8584 136.276 22.5865V20.5755C136.303 20.2831 136.259 19.9884 136.147 19.7169C136.035 19.4454 135.859 19.2052 135.634 19.0172C135.408 18.8292 135.14 18.699 134.853 18.6378C134.566 18.5767 134.268 18.5866 133.986 18.6664ZM135.428 22.7562C135.427 22.904 135.396 23.0502 135.336 23.1854C135.276 23.3206 135.188 23.4418 135.079 23.5415C134.97 23.6412 134.841 23.7171 134.701 23.7645C134.561 23.8119 134.413 23.8297 134.266 23.8168H134.071C132.688 23.8168 132.375 23.4858 132.375 22.1198V21.7295C132.362 21.5799 132.362 21.4294 132.375 21.2798C132.395 21.146 132.376 21.0043 132.358 20.8631C132.323 20.5923 132.288 20.3237 132.527 20.1174C133.063 19.6643 133.742 19.4176 134.444 19.4216C134.575 19.4181 134.706 19.4414 134.829 19.49C134.951 19.5385 135.063 19.6114 135.156 19.7041C135.25 19.7969 135.323 19.9076 135.373 20.0297C135.422 20.1518 135.447 20.2826 135.445 20.4143C135.482 21.1947 135.476 21.9765 135.428 22.7562Z" fill="#302525"/>
<path fill-rule="evenodd" clip-rule="evenodd" d="M154.949 11.1746L154.949 13.3718C154.95 13.6207 154.95 13.8643 154.585 13.8643C154.212 13.8643 154.169 13.6946 154.169 13.3891V6.17701C154.169 5.99035 154.178 5.71033 154.432 5.71033L154.449 5.71033C154.695 5.71014 154.874 5.71001 154.899 6.06671C154.92 6.37882 155.085 6.28112 155.233 6.19324C155.258 6.17841 155.282 6.16381 155.306 6.15156C155.871 5.78248 156.54 5.60408 157.214 5.64246C157.662 5.66872 158.082 5.87199 158.381 6.20765C158.68 6.54331 158.834 6.98391 158.808 7.43276V9.70671C158.82 9.95693 158.78 10.2069 158.689 10.4405C158.599 10.6741 158.461 10.8862 158.283 11.0629C158.106 11.2396 157.893 11.3771 157.659 11.4665C157.425 11.5559 157.175 11.5952 156.925 11.5819C156.245 11.5869 155.572 11.4481 154.949 11.1746ZM154.949 8.23883C154.937 8.44509 154.937 8.65197 154.949 8.85823V8.84124C154.987 9.00286 154.961 9.19635 154.935 9.3967C154.89 9.74331 154.842 10.1104 155.111 10.3685C155.365 10.5572 155.654 10.6935 155.961 10.7692C156.268 10.845 156.587 10.8587 156.9 10.8097C157.042 10.8166 157.183 10.7948 157.316 10.7455C157.449 10.6962 157.571 10.6206 157.674 10.5231C157.777 10.4256 157.859 10.3083 157.915 10.1782C157.972 10.0481 158.001 9.90793 158.002 9.76609C158.031 9.24569 158.021 8.72529 158.012 8.20489C158.007 7.94469 158.002 7.68449 158.002 7.42429C158.007 7.29264 157.985 7.16143 157.937 7.03883C157.888 6.91624 157.815 6.80489 157.722 6.71175C157.629 6.6186 157.518 6.54566 157.395 6.49745C157.273 6.44924 157.142 6.4268 157.01 6.43155C156.334 6.42602 155.677 6.65711 155.153 7.08487C154.873 7.29092 154.905 7.56646 154.937 7.84378C154.953 7.97758 154.969 8.1118 154.949 8.23883Z" fill="#302525"/>
<path fill-rule="evenodd" clip-rule="evenodd" d="M232.165 21.2629C232.405 21.0602 232.568 20.7795 232.624 20.4696C232.679 20.1597 232.625 19.84 232.47 19.566C232.352 19.2978 232.155 19.0725 231.904 18.9207C231.654 18.7689 231.363 18.6979 231.071 18.7175H228.526C228.213 18.7175 228.119 18.8108 228.128 19.1247V24.1393C228.128 24.3938 228.128 24.555 228.467 24.5466H231.13C231.448 24.5503 231.759 24.4529 232.018 24.2684C232.277 24.0839 232.471 23.8218 232.572 23.5199C232.71 23.223 232.749 22.8896 232.683 22.5687C232.618 22.2479 232.451 21.9567 232.207 21.7381C232.18 21.7018 232.153 21.6702 232.128 21.6414C232.02 21.5154 231.958 21.4424 232.165 21.2629ZM228.921 20.1405C228.944 19.8234 228.957 19.6532 229.048 19.5617C229.154 19.4556 229.366 19.4556 229.824 19.4556C230.214 19.4302 230.605 19.4302 230.994 19.4556C231.103 19.454 231.212 19.4754 231.312 19.5182C231.412 19.5611 231.503 19.6246 231.577 19.7046C231.651 19.7845 231.708 19.8792 231.744 19.9825C231.779 20.0858 231.793 20.1953 231.783 20.3041C231.758 20.5111 231.658 20.7016 231.501 20.8393C231.345 20.977 231.143 21.0523 230.935 21.0508H230.087C229.957 21.0423 229.827 21.0423 229.697 21.0508C229.069 21.2035 228.832 20.9914 228.908 20.3041C228.913 20.2456 228.917 20.1912 228.921 20.1405ZM230.85 23.7914H230.078C229.513 23.7914 229.235 23.7914 229.09 23.6524C228.951 23.518 228.936 23.2535 228.906 22.7331L228.9 22.612C228.9 21.9332 229.078 21.7635 229.748 21.8229C230.002 21.8568 230.26 21.8456 230.519 21.8343C230.649 21.8286 230.779 21.8229 230.91 21.8229C231.045 21.8229 231.179 21.8498 231.304 21.9019C231.429 21.954 231.543 22.0304 231.638 22.1266C231.733 22.2229 231.809 22.337 231.86 22.4626C231.911 22.5881 231.937 22.7225 231.936 22.8581C231.876 23.435 231.503 23.766 230.85 23.7914Z" fill="#302525"/>
<path fill-rule="evenodd" clip-rule="evenodd" d="M146.388 11.2068C146.119 11.3949 145.796 11.4908 145.468 11.4798C144.958 11.5048 144.449 11.5004 143.944 11.496C143.592 11.4929 143.243 11.4898 142.898 11.4968C142.517 11.5053 142.517 11.3441 142.517 11.0641V6.13436C142.508 5.81193 142.568 5.68466 142.932 5.68466H145.476C145.769 5.66578 146.061 5.73692 146.313 5.88855C146.564 6.04018 146.764 6.26509 146.884 6.53315C147.041 6.80675 147.096 7.12688 147.04 7.43725C146.984 7.74762 146.821 8.02836 146.579 8.23012C146.314 8.42915 146.405 8.5066 146.567 8.64467L146.579 8.65436C146.824 8.87169 146.994 9.1619 147.062 9.48252C147.131 9.80313 147.095 10.1373 146.96 10.4362C146.858 10.7482 146.657 11.0186 146.388 11.2068ZM143.636 6.41437C143.449 6.41437 143.297 6.44832 143.297 6.68589C143.102 7.87377 143.246 8.06043 144.416 8.05194H145.188C145.68 8.02649 146.104 7.80588 146.146 7.30527C146.189 6.80467 145.799 6.41437 145.256 6.41437H143.636ZM144.086 8.77316C143.407 8.70528 143.297 8.99376 143.297 9.62164H143.288L143.293 9.74324C143.315 10.268 143.326 10.5337 143.465 10.6586C143.606 10.7867 143.882 10.7665 144.441 10.7253L144.45 10.7247H145.23C145.875 10.6568 146.282 10.3513 146.282 9.80831C146.284 9.67246 146.259 9.53753 146.209 9.41147C146.158 9.2854 146.083 9.17077 145.987 9.0743C145.891 8.97784 145.777 8.9015 145.652 8.84978C145.526 8.79806 145.392 8.77201 145.256 8.77316C144.866 8.79443 144.475 8.79443 144.086 8.77316Z" fill="#302525"/>
<path fill-rule="evenodd" clip-rule="evenodd" d="M147.419 21.2883C147.658 21.0848 147.82 20.8048 147.877 20.4957C147.935 20.1866 147.883 19.8672 147.733 19.5914C147.603 19.3141 147.391 19.0838 147.125 18.9319C146.859 18.78 146.553 18.714 146.248 18.7429H143.848C143.501 18.7429 143.399 18.8362 143.407 19.1756V24.1138C143.407 24.4617 143.509 24.5635 143.848 24.555H146.325C146.653 24.5664 146.976 24.4752 147.249 24.2943C147.523 24.1133 147.733 23.8515 147.851 23.5453C147.996 23.2386 148.037 22.893 147.969 22.5608C147.9 22.2285 147.725 21.9278 147.47 21.7041C147.444 21.6733 147.417 21.6465 147.394 21.6219C147.286 21.5112 147.224 21.4481 147.419 21.2883ZM144.196 19.778C144.196 19.5405 144.256 19.4217 144.518 19.4302H146.147C146.689 19.4302 147.122 19.8459 147.063 20.2786C147.003 20.7114 146.596 21.0168 146.087 21.0338H145.375L145.374 21.0338C144.724 21.0592 144.4 21.0718 144.252 20.9165C144.105 20.7621 144.132 20.4418 144.186 19.8033L144.188 19.778H144.196ZM146.096 23.7998H145.333C144.778 23.7998 144.507 23.7998 144.367 23.664C144.232 23.5334 144.219 23.2771 144.194 22.7745L144.188 22.6544C144.145 21.9841 144.34 21.738 145.036 21.8059C145.403 21.8271 145.771 21.8271 146.138 21.8059C146.273 21.8014 146.407 21.8235 146.534 21.8709C146.66 21.9184 146.775 21.9902 146.874 22.0824C146.972 22.1746 147.052 22.2853 147.107 22.4082C147.163 22.5311 147.194 22.6638 147.198 22.7986C147.173 23.418 146.774 23.7659 146.096 23.7998Z" fill="#302525"/>
<path fill-rule="evenodd" clip-rule="evenodd" d="M191.889 21.6385L191.919 21.6657L191.928 21.6738L191.942 21.6872C192.187 21.9008 192.358 22.1875 192.428 22.5053C192.498 22.823 192.465 23.1549 192.332 23.4521C192.238 23.7678 192.044 24.0444 191.78 24.2403C191.515 24.4362 191.194 24.5407 190.865 24.5381H188.202C187.854 24.5466 187.854 24.3854 187.854 24.1393V19.1163C187.846 18.8024 187.948 18.7175 188.253 18.7175H190.797C191.089 18.6992 191.379 18.7707 191.63 18.9223C191.88 19.074 192.077 19.2986 192.196 19.566C192.352 19.8391 192.408 20.1582 192.354 20.4681C192.3 20.7779 192.139 21.0591 191.9 21.263C191.681 21.451 191.757 21.5191 191.889 21.6385ZM188.999 19.4387C188.804 19.4302 188.66 19.4812 188.66 19.7187C188.465 20.9236 188.592 21.0848 189.847 21.0678H190.695C191.17 21.0339 191.543 20.8218 191.543 20.2872C191.555 20.1728 191.542 20.0572 191.503 19.9488C191.465 19.8404 191.403 19.742 191.322 19.6607C191.24 19.5793 191.142 19.5172 191.033 19.4788C190.925 19.4404 190.81 19.4267 190.695 19.4387H188.999ZM189.822 23.7999H190.568C191.23 23.766 191.645 23.3842 191.611 22.8157C191.606 22.6793 191.573 22.5454 191.516 22.4218C191.458 22.2981 191.376 22.1873 191.275 22.0956C191.174 22.004 191.056 21.9334 190.927 21.888C190.798 21.8427 190.662 21.8235 190.526 21.8315C190.399 21.8315 190.271 21.8371 190.142 21.8427C189.882 21.854 189.619 21.8655 189.364 21.8315C188.77 21.7212 188.626 21.9757 188.626 22.5696L188.629 22.6693C188.648 23.2306 188.658 23.5133 188.804 23.6556C188.952 23.7999 189.241 23.7999 189.822 23.7999Z" fill="#302525"/>
<path fill-rule="evenodd" clip-rule="evenodd" d="M180.493 11.0981C180.883 10.852 180.858 10.555 180.493 10.3344C180.325 10.2382 180.224 10.3338 180.129 10.4248C180.09 10.4622 180.051 10.4989 180.009 10.5211C179.715 10.7092 179.377 10.8181 179.027 10.8374C178.678 10.8568 178.33 10.7858 178.017 10.6314C177.786 10.5083 177.597 10.3207 177.472 10.0916C177.347 9.86252 177.292 9.60188 177.313 9.34169C177.313 8.95139 177.457 8.86656 177.805 8.88353C178.037 8.89486 178.367 8.89105 178.695 8.88728H178.695L178.697 8.88727C178.859 8.88539 179.021 8.88353 179.17 8.88353H179.823C181.248 8.88353 181.332 8.77322 181.044 7.33928C180.955 6.81935 180.675 6.35132 180.26 6.02657C179.844 5.70182 179.323 5.54365 178.797 5.58291C178.254 5.54069 177.715 5.70653 177.29 6.04685C176.865 6.38716 176.585 6.87649 176.507 7.41564C176.405 8.23269 176.405 9.0592 176.507 9.87624C176.539 10.1587 176.641 10.4287 176.804 10.6614C176.966 10.8942 177.185 11.0822 177.44 11.2084C177.912 11.4642 178.445 11.5888 178.981 11.5694C179.518 11.55 180.04 11.3873 180.493 11.0981ZM177.313 7.45805C177.405 7.09577 177.632 6.78216 177.947 6.58057C178.262 6.37898 178.641 6.30444 179.009 6.37199C179.377 6.41062 179.714 6.59249 179.949 6.87827C180.184 7.16405 180.297 7.5308 180.264 7.89928C180.264 8.14534 180.162 8.24716 179.908 8.23867C179.738 8.23303 179.453 8.2349 179.165 8.23678C179.021 8.23772 178.876 8.23867 178.746 8.23867H177.949C177.253 8.26413 177.168 8.12836 177.304 7.45805H177.313Z" fill="#302525"/>
<path fill-rule="evenodd" clip-rule="evenodd" d="M197.939 19.3757C198.121 19.6375 198.213 19.9514 198.2 20.2701C198.226 20.9192 198.23 21.5683 198.234 22.2173C198.239 22.8663 198.243 23.5158 198.268 24.1647C198.277 24.4108 198.192 24.5211 197.937 24.5211C197.591 24.5575 197.558 24.3765 197.521 24.1711C197.506 24.0896 197.49 24.0042 197.454 23.9271C196.793 24.344 196.03 24.57 195.249 24.5804C194.839 24.6071 194.434 24.4749 194.118 24.2111C193.802 23.9474 193.6 23.5723 193.553 23.1635C193.479 22.7527 193.567 22.3294 193.798 21.9816C194.028 21.6339 194.384 21.3886 194.791 21.2968C195.513 21.147 196.254 21.1069 196.988 21.178C197.369 21.178 197.454 21.0508 197.454 20.6944C197.472 20.531 197.455 20.3657 197.405 20.2092C197.355 20.0527 197.272 19.9085 197.163 19.786C197.053 19.6636 196.919 19.5656 196.769 19.4984C196.619 19.4312 196.457 19.3964 196.292 19.3962C195.702 19.3082 195.101 19.4347 194.596 19.7526C194.313 19.949 194.263 19.8762 194.103 19.6419C194.09 19.6233 194.076 19.6036 194.062 19.5829C193.867 19.3029 194.036 19.2011 194.24 19.0908C194.685 18.8388 195.178 18.6843 195.686 18.6375C196.195 18.5907 196.708 18.6526 197.191 18.8192C197.494 18.9186 197.756 19.1139 197.939 19.3757ZM195.164 23.8083C195.756 23.8868 196.356 23.7546 196.86 23.435C196.984 23.3796 197.095 23.2997 197.187 23.2C197.279 23.1004 197.349 22.9832 197.394 22.8555C197.44 22.7278 197.458 22.5922 197.45 22.457C197.441 22.3218 197.405 22.1898 197.344 22.0689C197.273 21.7464 197.065 21.7866 196.846 21.8289C196.725 21.8522 196.601 21.8761 196.496 21.8398C196.394 21.826 196.292 21.826 196.19 21.8398C195.798 21.8176 195.404 21.849 195.02 21.9332C194.795 21.9842 194.598 22.1182 194.467 22.3085C194.337 22.4989 194.283 22.7315 194.316 22.9599C194.316 23.1849 194.406 23.4007 194.565 23.5598C194.724 23.7189 194.939 23.8083 195.164 23.8083Z" fill="#302525"/>
<path fill-rule="evenodd" clip-rule="evenodd" d="M142.102 20.5077C142.145 20.1462 142.063 19.7809 141.871 19.4722C141.678 19.1635 141.385 18.9301 141.042 18.8107C140.56 18.6433 140.047 18.5817 139.54 18.63C139.032 18.6783 138.54 18.8354 138.099 19.0907L138.094 19.0934C137.892 19.2025 137.719 19.2965 137.929 19.5659C137.955 19.5992 137.978 19.6301 137.999 19.6583C138.15 19.8596 138.197 19.9226 138.472 19.744C139.012 19.404 139.662 19.2854 140.287 19.4131C140.584 19.437 140.86 19.5767 141.055 19.802C141.25 20.0274 141.349 20.3204 141.33 20.618C141.33 21.0083 141.33 21.1949 140.821 21.178C140.128 21.0958 139.427 21.1244 138.743 21.2628C138.529 21.2994 138.323 21.3788 138.14 21.4961C137.956 21.6135 137.798 21.7665 137.675 21.9461C137.552 22.1257 137.466 22.3282 137.422 22.5417C137.378 22.7551 137.378 22.9752 137.42 23.1889C137.485 23.5997 137.703 23.9708 138.031 24.2274C138.358 24.4839 138.77 24.607 139.184 24.5719C139.944 24.5356 140.68 24.3016 141.321 23.8931C141.321 24.2919 141.423 24.6058 141.881 24.504C142.224 24.4278 142.172 24.2088 142.125 24.0074C142.109 23.9398 142.093 23.8743 142.093 23.8168C142.119 22.6883 142.119 21.6107 142.102 20.5077ZM140.762 23.4349C140.22 23.7535 139.586 23.8791 138.964 23.7913C138.759 23.7644 138.57 23.6632 138.434 23.5069C138.298 23.3506 138.224 23.15 138.226 22.9428C138.191 22.7357 138.234 22.5231 138.347 22.346C138.46 22.1689 138.634 22.0399 138.837 21.984C139.595 21.8019 140.381 21.7673 141.152 21.8822C141.372 21.8822 141.347 22.0527 141.321 22.2316C141.306 22.3349 141.29 22.4409 141.321 22.5186C141.483 23.0192 141.186 23.2483 140.762 23.4349Z" fill="#302525"/>
<path fill-rule="evenodd" clip-rule="evenodd" d="M161.82 18.746C162.097 18.6472 162.39 18.6057 162.683 18.6242C162.974 18.5992 163.267 18.6355 163.543 18.7308C163.818 18.8261 164.071 18.9782 164.285 19.1773C164.498 19.3764 164.667 19.6181 164.782 19.8867C164.896 20.1554 164.952 20.445 164.948 20.7369C164.973 21.9248 164.973 21.9248 163.769 21.9248H163.057C162.602 21.9502 162.146 21.9502 161.691 21.9248C161.174 21.8739 161.123 22.1369 161.174 22.5357C161.335 23.766 162.692 24.2411 163.93 23.4945C163.959 23.4795 163.987 23.4632 164.014 23.4473C164.174 23.3544 164.319 23.2701 164.507 23.4945C164.727 23.7575 164.744 23.9102 164.447 24.0969C164.01 24.3858 163.505 24.5565 162.982 24.5922C162.458 24.6279 161.935 24.5274 161.462 24.3005C161.079 24.1138 160.767 23.8076 160.573 23.4282C160.379 23.0487 160.313 22.6164 160.385 22.1963V20.7623C160.388 20.4686 160.451 20.1784 160.569 19.9097C160.688 19.6409 160.86 19.3991 161.075 19.1991C161.29 18.999 161.544 18.8448 161.82 18.746ZM163.71 21.2629C164.1 21.2969 164.184 21.1357 164.201 20.7623C164.201 20.4135 164.07 20.0775 163.835 19.8202C163.599 19.5628 163.277 19.4025 162.929 19.3708C162.567 19.3015 162.193 19.3701 161.879 19.5633C161.565 19.7564 161.335 20.06 161.233 20.4145C161.03 21.1442 161.106 21.2629 161.835 21.2629H163.71Z" fill="#302525"/>
<path fill-rule="evenodd" clip-rule="evenodd" d="M152.414 11.0473C152.435 11.0315 152.461 11.0164 152.488 11.0006C152.593 10.9405 152.713 10.8711 152.626 10.7164C152.515 10.5213 152.38 10.3516 152.227 10.3176C152.126 10.2951 152.017 10.3733 151.906 10.4533C151.85 10.4939 151.792 10.5351 151.735 10.5637C150.455 11.2679 149.115 10.6146 149.115 9.30792C149.115 8.96004 149.242 8.86671 149.564 8.88368H151.718C152.965 8.88368 152.965 8.88367 152.906 7.62791C152.895 7.34517 152.828 7.0674 152.708 6.81086C152.589 6.55432 152.42 6.32414 152.211 6.13377C152.001 5.9434 151.756 5.79665 151.49 5.7021C151.223 5.60754 150.941 5.56707 150.658 5.58306C150.37 5.56118 150.081 5.59737 149.808 5.68948C149.534 5.7816 149.282 5.92777 149.066 6.11929C148.85 6.31082 148.675 6.5438 148.551 6.80442C148.426 7.06503 148.356 7.34796 148.343 7.63641V9.6558C148.347 9.93855 148.418 10.2163 148.549 10.4668C148.68 10.7174 148.868 10.9336 149.098 11.0982C149.598 11.4063 150.176 11.5651 150.763 11.5561C151.35 11.5471 151.923 11.3706 152.414 11.0473ZM149.166 7.39883C149.28 7.05314 149.513 6.75926 149.824 6.56966C150.134 6.38006 150.502 6.30707 150.862 6.36368C151.232 6.40226 151.574 6.58106 151.816 6.86343C152.059 7.1458 152.185 7.51035 152.168 7.88245C152.168 8.17942 152.032 8.24731 151.769 8.23882C151.594 8.23317 151.328 8.23505 151.062 8.23694C150.93 8.23788 150.797 8.23882 150.675 8.23882H149.827C149.115 8.26428 148.979 8.0861 149.166 7.41579V7.39883Z" fill="#302525"/>
<path fill-rule="evenodd" clip-rule="evenodd" d="M211.125 21.1612C210.964 19.0061 212.804 18.3782 214.271 18.7261C214.728 18.8328 215.135 19.0932 215.424 19.4637C215.712 19.8343 215.865 20.2927 215.857 20.7625V22.4594C215.858 22.7604 215.795 23.058 215.672 23.3329C215.55 23.6077 215.37 23.8534 215.146 24.0538C214.922 24.2543 214.657 24.4048 214.371 24.4956C214.084 24.5864 213.781 24.6154 213.482 24.5806C213.184 24.617 212.882 24.5891 212.595 24.4987C212.309 24.4083 212.045 24.2575 211.821 24.0565C211.598 23.8555 211.42 23.609 211.3 23.3335C211.18 23.058 211.12 22.76 211.125 22.4594V21.1612ZM214.909 23.0044C214.991 22.8252 215.033 22.6308 215.034 22.434C215.06 21.9164 215.051 21.3988 215.034 20.8728C215.038 20.672 215.001 20.4727 214.924 20.287C214.848 20.1013 214.734 19.9333 214.59 19.7933C214.446 19.6534 214.275 19.5444 214.088 19.4732C213.9 19.402 213.7 19.3701 213.499 19.3794C213.294 19.3658 213.088 19.3961 212.895 19.4683C212.702 19.5406 212.527 19.6531 212.381 19.7984C212.235 19.9437 212.121 20.1184 212.048 20.311C211.975 20.5036 211.943 20.7095 211.956 20.9152V22.417C211.948 22.6132 211.983 22.8088 212.059 22.9901C212.134 23.1714 212.248 23.3343 212.392 23.4674C212.536 23.6004 212.708 23.7006 212.895 23.761C213.081 23.8214 213.279 23.8405 213.474 23.817C213.669 23.8397 213.867 23.8209 214.055 23.7618C214.243 23.7027 214.416 23.6048 214.563 23.4743C214.71 23.3438 214.828 23.1837 214.909 23.0044Z" fill="#302525"/>
<path fill-rule="evenodd" clip-rule="evenodd" d="M174.955 21.1103C174.73 21.0795 174.474 21.1046 174.223 21.1293C173.784 21.1724 173.362 21.2138 173.157 20.9491C172.922 20.6453 172.976 20.1422 173.029 19.6516C173.048 19.4708 173.068 19.2917 173.072 19.1249C173.072 18.7685 172.954 18.6836 172.623 18.6836C172.292 18.6836 172.233 18.8194 172.233 19.1079V24.1139C172.233 24.3685 172.233 24.5382 172.58 24.5297C173.428 24.5297 174.276 24.5297 175.175 24.4788C175.416 24.476 175.653 24.4179 175.868 24.3089C176.082 24.1999 176.269 24.0429 176.413 23.8502C176.558 23.6574 176.656 23.434 176.7 23.1972C176.744 22.9605 176.733 22.7167 176.668 22.4848C176.541 21.6618 176.007 21.2461 174.955 21.1103ZM174.87 23.7915H174.158C173.614 23.7915 173.34 23.7915 173.203 23.6547C173.064 23.5165 173.064 23.2386 173.064 22.68C173.064 22.2558 173.064 22.0436 173.17 21.9376C173.276 21.8315 173.488 21.8315 173.912 21.8315H174.887C175.022 21.8225 175.158 21.8428 175.284 21.891C175.411 21.9392 175.526 22.0142 175.621 22.1109C175.716 22.2076 175.789 22.3236 175.835 22.4511C175.881 22.5786 175.899 22.7146 175.888 22.8497C175.879 23.4182 175.532 23.7406 174.87 23.7915Z" fill="#302525"/>
<path fill-rule="evenodd" clip-rule="evenodd" d="M235.303 21.0932C235.843 21.0704 236.385 21.0903 236.922 21.1526C237.336 21.1745 237.724 21.359 238.001 21.6657C238.279 21.9724 238.425 22.3765 238.407 22.7901C238.427 23.0051 238.402 23.2219 238.333 23.4267C238.265 23.6315 238.154 23.8198 238.009 23.9794C237.864 24.1391 237.687 24.2668 237.49 24.3542C237.292 24.4416 237.079 24.4869 236.863 24.4871C236.015 24.538 235.167 24.538 234.319 24.538C233.963 24.5465 233.963 24.3429 233.963 24.0799V19.1247C233.963 18.8702 233.98 18.675 234.327 18.6835C234.675 18.692 234.76 18.8108 234.76 19.1417C234.76 19.3001 234.765 19.4613 234.769 19.6225C234.779 19.9449 234.788 20.2673 234.76 20.5671C234.717 21.0168 234.904 21.0932 235.303 21.0932ZM235.608 23.7791C235.998 23.7923 236.388 23.8055 236.778 23.7659C236.905 23.7682 237.03 23.7423 237.145 23.6899C237.26 23.6376 237.362 23.5602 237.443 23.4634C237.524 23.3667 237.583 23.2529 237.615 23.1306C237.646 23.0082 237.65 22.8803 237.626 22.7562C237.631 22.5124 237.539 22.2766 237.371 22.1002C237.202 21.9238 236.971 21.8211 236.727 21.8144H235.879C235.324 21.8017 235.046 21.7953 234.907 21.9311C234.768 22.0669 234.768 22.3447 234.768 22.9005C234.768 22.9655 234.769 23.0315 234.77 23.0975C234.772 23.2295 234.774 23.3615 234.768 23.4859C234.76 23.6726 234.819 23.7659 235.023 23.7659C235.218 23.7659 235.413 23.7725 235.608 23.7791Z" fill="#302525"/>
</g>
<defs>
<clipPath id="clip0_4382_35453">
<rect width="240" height="28" fill="white"/>
</clipPath>
</defs>
</svg>
