<svg width="96" height="44" viewBox="0 0 96 44" fill="none" xmlns="http://www.w3.org/2000/svg">
<path d="M6.93191 4.79321V6.84072H4.57292V17.5955H2.35625V6.84342H0V4.79591H6.93191V4.79321Z" fill="#302525"/>
<path d="M11.3461 4.79321C13.7571 4.79321 15.057 6.00555 15.057 8.08809C15.057 9.33545 14.3536 10.3242 13.3685 10.6663V10.9061C14.4932 11.2644 15.1993 12.307 15.1993 13.875C15.1993 16.2296 13.8966 17.5955 11.2585 17.5955H8.05664V4.79321H11.3461ZM10.2569 10.0009H11.472C12.4572 10.0009 12.9497 9.48901 12.9497 8.51645V8.20932C12.9497 7.27178 12.438 6.80839 11.472 6.80839H10.2569V10.0009ZM10.2569 15.5804H11.4172C12.5092 15.5804 13.0537 15.0011 13.0537 13.9747V13.4466C13.0537 12.3555 12.5447 11.62 11.4172 11.62H10.2569V15.5804Z" fill="#302525"/>
<path d="M22.9463 4.57233C26.7119 4.57233 29.7742 7.37149 29.7742 11.1944C29.7742 14.8476 26.8898 17.8165 22.9463 17.8165C19.1807 17.8165 16.1211 15.0173 16.1211 11.1944C16.1211 7.54121 19.0055 4.57233 22.9463 4.57233ZM22.9463 15.769C25.7075 15.769 27.5548 13.7026 27.5548 11.1944C27.5548 8.51378 25.5324 6.61984 22.9463 6.61984C20.185 6.61984 18.3378 8.6862 18.3378 11.1944C18.3378 13.875 20.3601 15.769 22.9463 15.769Z" fill="#302525"/>
<path d="M33.3944 4.79319V5.97051L33.1837 8.54875H33.4656L36.9657 4.79319H38.2136V17.5955H35.997V15.0523L36.2788 8.30898H35.997L33.3588 10.9384V17.5955H31.1777V4.79319H33.3944ZM34.1689 2.42239H34.0457C33.6407 2.42239 33.4464 2.55979 33.4464 2.81573C33.4464 3.07167 33.6571 3.20906 34.0457 3.20906H35.3484C35.737 3.20906 35.9477 3.07167 35.9477 2.81573C35.9477 2.55979 35.7534 2.42239 35.3484 2.42239H35.2252V0.816711H35.5235C36.6674 0.816711 37.6006 1.43096 37.6006 2.45472C37.6006 3.61587 36.651 4.23012 34.6971 4.23012C32.7431 4.23012 31.7935 3.61587 31.7935 2.45472C31.7935 1.43096 32.7267 0.816711 33.8706 0.816711H34.1689V2.42239Z" fill="#302525"/>
<path d="M49.707 4.79321V6.84072H46.33V17.5955H44.1133V4.79321H49.707Z" fill="#302525"/>
<path d="M56.6435 4.57233C60.4091 4.57233 63.4714 7.37149 63.4714 11.1944C63.4714 14.8476 60.587 17.8165 56.6435 17.8165C52.8779 17.8165 49.8184 15.0173 49.8184 11.1944C49.8184 7.54121 52.7028 4.57233 56.6435 4.57233ZM56.6435 15.769C59.4048 15.769 61.252 13.7026 61.252 11.1944C61.252 8.51378 59.2297 6.61984 56.6435 6.61984C53.8823 6.61984 52.035 8.6862 52.035 11.1944C52.035 13.875 54.0574 15.769 56.6435 15.769Z" fill="#302525"/>
<path d="M67.969 4.79321C70.38 4.79321 71.9097 6.36387 71.9097 9.35162C71.9097 12.0996 70.3964 13.7376 67.969 13.7376H67.1069V17.5955H64.8711V4.79321H67.969ZM67.1069 12.0322H67.9526C69.0253 12.0322 69.7122 11.162 69.7122 9.6776V8.97714C69.7122 7.54388 69.0253 6.84342 67.9526 6.84342H67.1069V12.0322Z" fill="#302525"/>
<path d="M79.5908 4.57233C83.3564 4.57233 86.4187 7.37149 86.4187 11.1944C86.4187 14.8476 83.5343 17.8165 79.5908 17.8165C75.8252 17.8165 72.7656 15.0173 72.7656 11.1944C72.7629 7.54121 75.65 4.57233 79.5908 4.57233ZM79.5908 15.769C82.3521 15.769 84.1993 13.7026 84.1993 11.1944C84.1993 8.51378 82.1769 6.61984 79.5908 6.61984C76.8295 6.61984 74.9823 8.6862 74.9823 11.1944C74.9796 13.875 77.0047 15.769 79.5908 15.769Z" fill="#302525"/>
<path d="M94.0631 4.79321V15.548H95.6996V16.3509L94.1178 20.7045H93.3953V17.5955H86.7617V17.2022L88.6801 6.75721V4.79321H94.0631ZM90.3495 6.84342L89.2767 15.548H91.8464V6.84342H90.3495Z" fill="#302525"/>
<path d="M6.93191 27.5432V29.5907H4.57292V40.3455H2.35625V29.5934H0V27.5458H6.93191V27.5432Z" fill="#302525"/>
<path d="M11.3461 27.5432C13.7571 27.5432 15.057 28.7555 15.057 30.838C15.057 32.0854 14.3536 33.0741 13.3685 33.4163V33.656C14.4932 34.0144 15.1993 35.057 15.1993 36.6249C15.1993 38.9796 13.8966 40.3455 11.2585 40.3455H8.05664V27.5432H11.3461ZM10.2569 32.7508H11.472C12.4572 32.7508 12.9497 32.239 12.9497 31.2664V30.9593C12.9497 30.0217 12.438 29.5583 11.472 29.5583H10.2569V32.7508ZM10.2569 38.333H11.4172C12.5092 38.333 13.0537 37.7538 13.0537 36.7273V36.1993C13.0537 35.1082 12.5447 34.3727 11.4172 34.3727H10.2569V38.333Z" fill="#302525"/>
<path d="M22.9463 27.3222C26.7119 27.3222 29.7742 30.1214 29.7742 33.9443C29.7742 37.5975 26.8898 40.5664 22.9463 40.5664C19.1807 40.5664 16.1211 37.7672 16.1211 33.9443C16.1211 30.2938 19.0055 27.3222 22.9463 27.3222ZM22.9463 38.5188C25.7075 38.5188 27.5548 36.4525 27.5548 33.9443C27.5548 31.2637 25.5324 29.3697 22.9463 29.3697C20.185 29.3697 18.3378 31.4361 18.3378 33.9443C18.3378 36.6249 20.3601 38.5188 22.9463 38.5188Z" fill="#302525"/>
<path d="M35.893 33.6559H33.3944V38.2979H37.5295V40.3454H31.1777V27.5431H37.1764V29.5906H33.3944V32.3385L35.6111 31.7755L35.893 33.6559ZM31.4405 24.3021H33.5504V26.3496H31.4405V24.3021ZM34.9598 24.3021H37.0725V26.3496H34.9598V24.3021Z" fill="#302525"/>
<path d="M49.3873 27.5432V38.298H51.0238V39.1008L49.442 43.4545H48.7195V40.3482H42.0859V39.9548L44.0043 29.5098V27.5458H49.3873V27.5432ZM45.6737 29.5934L44.6009 38.298H47.1706V29.5934H45.6737Z" fill="#302525"/>
<path d="M56.6371 33.656H54.1386V38.298H58.2736V40.3455H51.9219V27.5432H57.9206V29.5907H54.1386V32.3386L56.3552 31.7756L56.6371 33.656Z" fill="#302525"/>
<path d="M67.4796 27.5432V40.3455H65.263V29.5934H63.3282L63.153 35.3614C63.0299 39.5426 62.0967 40.4479 60.69 40.4479C60.0387 40.4479 59.475 40.2269 59.0371 39.7312V37.4278H59.5653C59.5653 37.9747 59.776 38.298 60.2166 38.298C60.7448 38.298 61.0075 37.8723 61.1142 36.7435L61.8175 29.5745V27.5432H67.4796Z" fill="#302525"/>
<path d="M75.6904 27.3222C79.456 27.3222 82.5183 30.1214 82.5183 33.9443C82.5183 37.5975 79.6339 40.5664 75.6904 40.5664C71.9248 40.5664 68.8652 37.7672 68.8652 33.9443C68.8652 30.2938 71.7497 27.3222 75.6904 27.3222ZM75.6904 38.5188C78.4517 38.5188 80.2989 36.4525 80.2989 33.9443C80.2989 31.2637 78.2765 29.3697 75.6904 29.3697C72.9291 29.3697 71.0819 31.4361 71.0819 33.9443C71.0819 36.6249 73.1043 38.5188 75.6904 38.5188Z" fill="#302525"/>
<path d="M23.3463 21.4481H0V23.501H23.3463V21.4481Z" fill="#302525"/>
</svg>
