<svg width="157" height="40" viewBox="0 0 157 40" fill="none" xmlns="http://www.w3.org/2000/svg">
<path d="M1.49566 19.9591C1.5933 19.9123 1.54448 19.8289 1.54448 19.7664C1.58412 18.7586 1.71664 17.7563 1.94048 16.771C2.184 15.5935 2.54739 14.4419 3.02542 13.3327C3.60621 11.9785 4.35478 10.6965 5.25496 9.51424C5.74727 8.86396 6.27796 8.24127 6.84441 7.64925C7.79942 6.64829 8.86534 5.75043 10.0233 4.97162C10.4193 4.70073 10.8316 4.45067 11.2438 4.22146C11.3931 4.12078 11.57 4.06461 11.7524 4.05998C11.9347 4.05535 12.1145 4.10245 12.2691 4.1954C12.4158 4.27818 12.5356 4.39853 12.6151 4.54298C12.6946 4.68742 12.7307 4.85026 12.7193 5.01328C12.7193 10.7332 12.7193 16.4532 12.7193 22.1731V22.4701C13.018 22.222 13.2906 21.9463 13.533 21.647C13.7338 21.4334 13.9399 21.225 14.1352 21.0062C14.6451 20.428 15.193 19.8706 15.7355 19.3132C15.7692 19.2737 15.7935 19.2275 15.8066 19.178C15.8197 19.1285 15.8214 19.0768 15.8114 19.0266V10.6395C15.8114 10.0925 16.1206 9.73303 16.598 9.73303C16.7316 9.71411 16.868 9.72414 16.997 9.76236C17.1261 9.80058 17.2446 9.86603 17.344 9.95393C17.4433 10.0418 17.5209 10.1499 17.5711 10.2704C17.6213 10.3908 17.6428 10.5205 17.6341 10.6499C17.6341 12.6503 17.6341 14.6507 17.6341 16.6564V17.219C17.9191 16.991 18.1757 16.7323 18.399 16.448C18.5943 16.2292 18.8004 16.0208 18.9957 15.8072C19.6684 15.0623 20.3736 14.3434 21.0679 13.6141C21.661 12.982 22.2505 12.3499 22.8364 11.7178C23.3789 11.1344 23.9213 10.5457 24.4638 9.96224C24.5357 9.88487 24.6246 9.82373 24.724 9.7832C24.8234 9.74267 24.9309 9.72375 25.0388 9.72781H31.1633C31.3209 9.71563 31.4785 9.75133 31.6138 9.82986C31.7491 9.90839 31.8553 10.0258 31.9173 10.1654C32.0063 10.3097 32.0462 10.477 32.0316 10.6441C32.017 10.8112 31.9486 10.9698 31.8359 11.0979C31.543 11.4261 31.2338 11.7439 30.93 12.0616C30.1651 12.8639 29.3894 13.6661 28.6245 14.4736C28.3153 14.7914 28.0224 15.1144 27.7186 15.4374C26.9429 16.2448 26.1617 17.0523 25.3914 17.865L23.8508 19.4799C23.0968 20.2769 22.3373 21.0427 21.5779 21.8554L20.0264 23.4911C19.2886 24.283 18.54 25.054 17.7914 25.8406C17.2489 26.3615 16.7716 26.9189 16.2508 27.4555C15.5131 28.2213 14.7807 28.9923 14.0484 29.7581C13.984 29.8364 13.9242 29.9181 13.8694 30.0029H17.0591C17.1122 30.0083 17.1658 30.0017 17.2157 29.9836C17.2657 29.9655 17.3105 29.9364 17.3466 29.8987C17.8403 29.3309 18.3773 28.8047 18.8981 28.2578L20.5255 26.5491C21.0679 26.0021 21.5724 25.4499 22.0986 24.8977C22.6248 24.3455 23.1835 23.762 23.726 23.189C23.943 22.9598 24.1763 22.7462 24.377 22.4961C24.4646 22.3809 24.5793 22.2873 24.7118 22.2227C24.8442 22.1581 24.9906 22.1244 25.1392 22.1244C25.2877 22.1244 25.4341 22.1581 25.5666 22.2227C25.699 22.2873 25.8137 22.3809 25.9013 22.4961C26.5903 23.3869 27.2846 24.2673 27.9952 25.1425C28.8903 26.2365 29.7637 27.3513 30.6425 28.4557C31.5213 29.5601 32.3079 30.5395 33.127 31.5814C33.5122 32.0658 33.9136 32.5399 34.2825 33.0348C34.3693 33.1546 34.4398 33.1911 34.5808 33.0348C35.6523 31.9852 36.5851 30.813 37.3583 29.5445C38.0289 28.4548 38.5745 27.2985 38.9857 26.0958C39.3169 25.1309 39.5548 24.1386 39.6963 23.1317C39.7777 22.6107 39.8211 22.0429 39.8591 21.4907C39.8591 21.1208 39.9079 20.751 39.8916 20.3863C39.8528 19.4872 39.7568 18.5913 39.6041 17.7034C39.4179 16.7539 39.153 15.8202 38.8121 14.9112C38.3666 13.7032 37.7826 12.5465 37.0708 11.4626C36.51 10.6131 35.8768 9.80982 35.1776 9.061C33.9712 7.77534 32.577 6.66459 31.0385 5.76344C29.8194 5.05064 28.5177 4.47718 27.1599 4.05475C26.2555 3.77298 25.3283 3.56388 24.3878 3.42961C23.5893 3.32186 22.7853 3.25577 21.9793 3.23165C21.4694 3.23165 20.9594 3.23165 20.4549 3.23165C19.6383 3.27522 18.826 3.37621 18.0247 3.53381C17.5507 3.66306 17.0662 3.75367 16.5763 3.80469C16.3778 3.8039 16.186 3.73618 16.0343 3.61335C15.8826 3.49051 15.7807 3.32038 15.7463 3.13269C15.6951 2.91482 15.7314 2.6864 15.8481 2.49319C15.9648 2.29998 16.1532 2.15626 16.3756 2.0908C17.1952 1.88626 18.0266 1.72797 18.8655 1.61674C19.2829 1.54628 19.7057 1.50967 20.1294 1.50733C20.1891 1.50733 20.2705 1.54901 20.3085 1.46045H22.8906C22.9286 1.54901 23.01 1.50733 23.0696 1.50733C23.8152 1.53487 24.5571 1.62024 25.2883 1.76261C26.3593 1.9494 27.4118 2.223 28.4346 2.58047C29.8054 3.06029 31.1186 3.68032 32.3513 4.42983C33.2279 4.96682 34.0604 5.56766 34.8412 6.22707C35.6156 6.89132 36.3407 7.60677 37.0111 8.36816C37.7276 9.18088 38.3683 10.0525 38.926 10.9729C39.5631 12.0167 40.097 13.1154 40.5209 14.2548C40.8636 15.1801 41.132 16.1293 41.3237 17.094C41.4534 17.7835 41.5457 18.479 41.6004 19.1777C41.6438 19.6622 41.6492 20.1415 41.6655 20.6207C41.6782 21.1425 41.6565 21.6645 41.6004 22.1836C41.5461 22.6524 41.5027 23.1213 41.4376 23.5849C41.3193 24.3553 41.149 25.1175 40.9277 25.8666C40.5684 27.1278 40.0739 28.3499 39.4522 29.5132C38.8675 30.6056 38.1754 31.6418 37.3854 32.6076C36.7133 33.4134 35.9886 34.1772 35.2155 34.8946C35.1013 35.0348 34.9528 35.1456 34.7831 35.2173C34.6134 35.289 34.4279 35.3192 34.2432 35.3053C34.0584 35.2913 33.8801 35.2337 33.7241 35.1375C33.5682 35.0413 33.4395 34.9095 33.3494 34.7539C32.7419 33.9256 32.08 33.139 31.4399 32.3315C30.9228 31.6751 30.4056 31.0205 29.8885 30.3676C29.2646 29.581 28.6299 28.8047 28.0007 28.0129C27.3117 27.1429 26.6336 26.2678 25.9339 25.4082C25.6952 25.1165 25.4619 24.8195 25.2232 24.5226C25.1419 24.4132 25.0713 24.3819 24.952 24.5226C24.4095 25.1026 23.8671 25.6774 23.3246 26.2469C23.2432 26.3303 23.3246 26.3615 23.3246 26.4188L25.0768 28.8256C25.4511 29.3465 25.8145 29.8675 26.1997 30.3884C26.3227 30.5724 26.3724 30.7929 26.3395 31.0092C26.3066 31.2256 26.1934 31.4232 26.0207 31.5657C25.8176 31.7076 25.5647 31.7674 25.3163 31.7323C25.0679 31.6973 24.8436 31.5701 24.6916 31.3782C23.9701 30.3936 23.2595 29.3986 22.5217 28.4088C22.3699 28.1952 22.1854 27.9973 22.0444 27.7785C21.9684 27.6587 21.9304 27.7004 21.8654 27.7785C21.3609 28.2994 20.8455 28.8204 20.3681 29.3413C20.1783 29.5549 19.9613 29.7424 19.766 29.956C19.2832 30.477 18.7733 30.9979 18.2742 31.4928C18.2016 31.569 18.1124 31.6289 18.0131 31.6685C17.9138 31.7081 17.8066 31.7264 17.6992 31.722H11.7809C11.6076 31.7321 11.4353 31.6905 11.2877 31.6028C11.1401 31.5151 11.0243 31.3857 10.9563 31.2323C10.8745 31.0742 10.8457 30.8957 10.8739 30.7213C10.9021 30.5468 10.9858 30.385 11.1136 30.2582C11.553 29.7841 12.0141 29.3309 12.459 28.8621C13.0014 28.2838 13.5439 27.7003 14.0864 27.1377C14.6288 26.5751 15.1387 26.0385 15.6595 25.4863C16.3973 24.6997 17.1459 23.9235 17.8945 23.1421C18.4369 22.6211 18.9252 22.0481 19.4514 21.5063C20.1891 20.7458 20.9214 19.9696 21.6538 19.2038L23.227 17.5472C23.9647 16.7762 24.7133 15.9843 25.4457 15.2238C25.9556 14.6716 26.4763 14.1298 26.9971 13.588C27.6698 12.8899 28.3316 12.1815 29.0259 11.4417H27.4474C26.932 11.4417 26.4167 11.4782 25.9013 11.4417C25.7621 11.4307 25.6225 11.457 25.498 11.5177C25.3735 11.5784 25.269 11.6711 25.1961 11.7855C25.028 12.0095 24.8218 12.1919 24.6536 12.3951C23.981 13.1348 23.2866 13.8485 22.6031 14.5726C22.1529 15.0466 21.708 15.5259 21.2632 16L19.0554 18.3598C18.6105 18.8391 18.1603 19.308 17.7209 19.7924C16.9777 20.6051 16.2128 21.4021 15.4588 22.2044C14.8729 22.8295 14.2979 23.4599 13.7012 24.0798C13.2727 24.5278 12.8495 24.981 12.4372 25.4447C12.302 25.5671 12.1327 25.6495 11.9499 25.6818C11.7671 25.7141 11.5784 25.6951 11.4066 25.627C11.2448 25.5583 11.1074 25.4458 11.0111 25.3033C10.9148 25.1609 10.8637 24.9946 10.8641 24.8247V6.59174C10.5965 6.73273 10.3502 6.90798 10.1318 7.11268C9.49551 7.59219 8.89548 8.11444 8.3362 8.67551C7.4125 9.61687 6.5943 10.6488 5.89509 11.7543C5.22751 12.8327 4.68194 13.9766 4.26768 15.1665C3.98463 15.9611 3.76875 16.7765 3.62214 17.6045C3.5028 18.2973 3.42142 18.9902 3.36175 19.6883C3.30657 20.3068 3.29751 20.9283 3.33463 21.548C3.40735 23.0029 3.66979 24.4432 4.11579 25.8354C4.37642 26.6177 4.68433 27.3848 5.03798 28.1327C5.58363 29.2704 6.25858 30.3466 7.05053 31.3417C7.70714 32.1856 8.44846 32.9656 9.26381 33.6704C10.3855 34.6409 11.6217 35.4818 12.9472 36.1761C14.4141 36.9266 15.9796 37.4838 17.6016 37.8327C18.2871 37.9774 18.9808 38.0835 19.6792 38.1505C20.6573 38.2527 21.6425 38.2771 22.6248 38.2234C23.9665 38.1566 25.2954 37.9398 26.5848 37.5774C27.6152 37.2926 28.6187 36.9249 29.5847 36.4782C29.8029 36.3806 30.0519 36.3673 30.28 36.441C30.5082 36.5147 30.6982 36.6698 30.8107 36.8742C30.8699 36.981 30.905 37.0987 30.9136 37.2194C30.9222 37.3402 30.9041 37.4614 30.8606 37.575C30.8171 37.6886 30.7491 37.7921 30.661 37.8787C30.5729 37.9653 30.4668 38.033 30.3496 38.0775C29.4072 38.5144 28.4293 38.8767 27.4257 39.1611C26.5376 39.4188 25.631 39.6138 24.7133 39.7446C24.0732 39.8331 23.4331 39.8956 22.7876 39.9477C22.0656 40.0018 21.3408 40.0105 20.6177 39.9738C19.6743 39.9331 18.7351 39.8269 17.8077 39.656C16.8666 39.4859 15.9386 39.2544 15.0303 38.9631C13.1544 38.359 11.3868 37.4804 9.79001 36.3584C9.05701 35.8367 8.35436 35.2767 7.68523 34.681C6.46157 33.5818 5.39125 32.335 4.50094 30.9719C3.56071 29.5529 2.83043 28.0153 2.33106 26.4032C2.0411 25.5097 1.82703 24.595 1.69095 23.6682C1.57548 22.9998 1.5084 22.3244 1.49023 21.647C1.49023 21.5949 1.52278 21.5324 1.44141 21.5011L1.49566 19.9591Z" fill="white"/>
<path d="M152.784 4.45218H152.48C152.285 4.45218 152.019 4.45217 151.905 4.44696C151.791 4.44175 151.764 4.48342 151.764 4.58761C151.749 4.88209 151.832 5.17346 152.002 5.41906C152.172 5.66466 152.419 5.85159 152.708 5.95248C153.048 6.10232 153.418 6.17989 153.793 6.17989C154.167 6.17989 154.537 6.10232 154.878 5.95248C155.161 5.85112 155.404 5.66685 155.572 5.42569C155.741 5.18452 155.826 4.89866 155.816 4.60846C155.822 4.47822 155.778 4.44696 155.648 4.44696C155.353 4.46259 155.058 4.46259 154.764 4.44696C154.498 4.42613 154.4 4.53552 154.389 4.76473C154.379 4.99395 154.058 5.18671 153.782 5.1815C153.505 5.17629 153.191 4.97833 153.191 4.77516C153.231 4.44802 153.063 4.44965 152.84 4.45182L152.784 4.45218Z" fill="white"/>
<path d="M103.393 27.1676C102.723 27.2208 102.051 27.0946 101.451 26.8029C100.659 26.4326 100.04 25.7916 99.7152 25.0057C99.4611 24.3996 99.3589 23.7447 99.4168 23.0938C99.446 22.495 99.6317 21.9129 99.9569 21.4012C100.282 20.8895 100.736 20.4647 101.278 20.1661C101.869 19.8376 102.542 19.6684 103.225 19.6764C103.994 19.639 104.759 19.7915 105.449 20.1192C105.689 20.254 105.919 20.4037 106.138 20.5672C106.257 20.6454 106.263 20.7235 106.187 20.8433C106.04 21.0673 105.897 21.2938 105.755 21.5193L105.754 21.5213L105.752 21.5241C105.664 21.6639 105.576 21.8036 105.487 21.9425C105.417 22.0519 105.351 22.0832 105.216 21.9738C104.855 21.6589 104.41 21.4475 103.93 21.3637C103.451 21.2799 102.956 21.327 102.503 21.4997C102.238 21.6076 102.004 21.7759 101.822 21.9901C101.639 22.2043 101.514 22.458 101.456 22.7291C101.331 23.1081 101.313 23.5124 101.403 23.9005C101.494 24.2886 101.69 24.6466 101.972 24.9379C102.23 25.2049 102.562 25.3957 102.929 25.4879C103.296 25.5802 103.683 25.5701 104.044 25.4589C104.542 25.3271 104.996 25.0741 105.362 24.7243C105.449 24.6566 105.498 24.6254 105.574 24.7243L105.61 24.7756C105.853 25.1174 106.091 25.4536 106.344 25.7662C106.367 25.7875 106.385 25.8136 106.396 25.8424C106.407 25.8712 106.411 25.9021 106.408 25.9327C106.405 25.9633 106.395 25.9928 106.378 26.019C106.361 26.0452 106.339 26.0675 106.312 26.084C105.739 26.6228 105.012 26.9856 104.223 27.1259C103.948 27.1594 103.67 27.1733 103.393 27.1676Z" fill="white"/>
<path d="M58.5789 8.21829L59.6313 6.44187L59.2217 6.4423C58.6906 6.44313 58.1835 6.44393 57.673 6.43146C57.5699 6.43146 57.5319 6.48356 57.4885 6.5617C57.3527 6.80273 57.2136 7.04271 57.0744 7.28297C56.7743 7.80086 56.4734 8.32006 56.2029 8.85384C56.0618 9.1612 55.8883 9.30707 55.5194 9.26539C55.3404 9.23934 55.2698 9.22893 55.2698 9.02576V6.62421C55.2753 6.48355 55.2535 6.43146 55.0854 6.43146H53.5882C53.4471 6.42625 53.3874 6.4523 53.3874 6.60858V13.558C53.3874 13.7038 53.4363 13.7299 53.5773 13.7299H55.0691C55.2427 13.7351 55.2753 13.683 55.2753 13.5267V11.271C55.2753 10.8022 55.2753 10.8022 55.7581 10.8022C55.8371 10.7918 55.9175 10.8078 55.9857 10.8477C56.0539 10.8875 56.1057 10.9487 56.1324 11.021C56.588 11.8927 57.0491 12.7609 57.5156 13.6257C57.5279 13.6623 57.553 13.6937 57.5866 13.7146C57.6202 13.7355 57.6603 13.7445 57.7001 13.7403H59.5499C59.7018 13.7403 59.7126 13.6986 59.6421 13.5684C58.9586 12.3945 58.2805 11.2189 57.6079 10.0416C57.5881 10.017 57.5773 9.98674 57.5773 9.95563C57.5773 9.92453 57.5881 9.89431 57.6079 9.86969C57.9384 9.32328 58.2581 8.77166 58.5779 8.22004L58.5789 8.21829Z" fill="white"/>
<path d="M155.051 9.29147C154.477 10.3884 153.842 11.4544 153.147 12.4848C152.916 12.8599 152.688 13.2402 152.463 13.6257C152.445 13.6639 152.415 13.6955 152.377 13.7161C152.339 13.7367 152.295 13.7452 152.252 13.7403H150.657C150.521 13.7403 150.489 13.7039 150.489 13.5788V6.6034C150.489 6.47837 150.521 6.44191 150.657 6.44191H152.203C152.333 6.44191 152.371 6.47837 152.371 6.6034V10.125C152.371 10.2263 152.362 10.3277 152.352 10.4318C152.338 10.5738 152.324 10.721 152.333 10.8804C152.438 10.7194 152.517 10.5557 152.593 10.3958C152.663 10.2502 152.731 10.1079 152.816 9.9739C153.236 9.31336 153.643 8.64764 154.05 7.98222C154.221 7.70302 154.391 7.42388 154.563 7.14518C154.633 7.06003 154.693 6.96739 154.742 6.86909C154.856 6.45754 155.154 6.41066 155.534 6.43671C155.787 6.45405 156.054 6.4483 156.323 6.44252C156.458 6.43962 156.593 6.43671 156.727 6.43671C156.857 6.43671 156.895 6.46797 156.895 6.5982V13.5736C156.895 13.6986 156.863 13.7351 156.727 13.7351H155.181C155.051 13.7351 155.013 13.7039 155.013 13.5736V10.0989C155.015 10.0002 155.023 9.89901 155.031 9.79352C155.042 9.63733 155.054 9.47182 155.051 9.29147Z" fill="white"/>
<path d="M117.735 10.6786C117.696 10.7574 117.657 10.837 117.616 10.9165C117.557 10.796 117.605 10.6849 117.65 10.5806C117.663 10.5496 117.677 10.5192 117.686 10.4894V6.60312C117.686 6.4833 117.654 6.45206 117.535 6.45206H115.961C115.842 6.45206 115.804 6.4833 115.804 6.60312V13.5265C115.804 13.5442 115.802 13.5631 115.799 13.5823C115.789 13.6647 115.779 13.7505 115.951 13.7505H117.578C117.615 13.7545 117.652 13.7478 117.685 13.731C117.718 13.7143 117.745 13.6884 117.762 13.6567C118.149 13.0244 118.541 12.3922 118.933 11.7599C119.129 11.4441 119.325 11.1282 119.52 10.8123C119.843 10.3238 120.133 9.81569 120.388 9.29119C120.318 9.66575 120.29 10.0466 120.307 10.4268V13.5525C120.307 13.7452 120.366 13.7453 120.518 13.7453H122.037C122.238 13.7505 122.238 13.6932 122.238 13.5421V6.66043C122.238 6.47289 122.184 6.44163 121.999 6.44163H120.507C120.451 6.4336 120.393 6.44288 120.343 6.46813C120.292 6.49338 120.251 6.53333 120.225 6.58229C120.021 6.90133 119.831 7.2128 119.64 7.52373C119.557 7.65957 119.474 7.79531 119.39 7.93153C119.233 8.18512 119.078 8.43946 118.923 8.6937L118.92 8.69811C118.668 9.11091 118.416 9.52342 118.158 9.93195C117.984 10.1707 117.86 10.4226 117.735 10.6786Z" fill="white"/>
<path d="M109.702 24.2296C109.996 23.6137 110.359 23.0443 110.722 22.4764L110.723 22.4749C110.903 22.1931 111.083 21.9115 111.253 21.6249C111.54 21.1483 111.841 20.6811 112.145 20.2112L112.338 19.911C112.358 19.8682 112.391 19.8323 112.433 19.8081C112.475 19.7839 112.523 19.7725 112.572 19.7755H114.167C114.318 19.7755 114.34 19.8276 114.34 19.9526V26.902C114.34 27.0479 114.297 27.0739 114.156 27.0739H112.637C112.49 27.0739 112.458 27.0323 112.458 26.8968V23.0575C112.458 23.0048 112.472 22.9528 112.486 22.8995C112.512 22.8052 112.539 22.707 112.49 22.5938C112.238 23.1577 111.938 23.7013 111.595 24.2192C111.193 24.8702 110.788 25.5186 110.383 26.1681L110.354 26.2144L110.348 26.2239L109.876 26.9802C109.859 27.0114 109.833 27.0372 109.801 27.0539C109.769 27.0707 109.733 27.0776 109.697 27.0739H108.069C107.893 27.0739 107.903 26.9916 107.913 26.9076C107.915 26.8881 107.917 26.8686 107.917 26.8499V19.9526C107.917 19.8172 107.95 19.7703 108.096 19.7755H109.669C109.811 19.7755 109.854 19.8068 109.848 19.9474V23.1043C109.87 23.4311 109.843 23.7592 109.767 24.0785C109.737 24.1249 109.715 24.176 109.702 24.2296Z" fill="white"/>
<path d="M72.0499 24.271C72.3102 23.75 72.5923 23.2291 72.9178 22.7082L74.3119 20.4473C74.3434 20.3969 74.3753 20.3469 74.4071 20.297C74.4906 20.1663 74.5737 20.036 74.6483 19.9003C74.6663 19.8653 74.6955 19.8369 74.7317 19.819C74.7678 19.8012 74.8089 19.795 74.849 19.8013H76.4438C76.6174 19.8013 76.6337 19.8586 76.6283 19.994V26.8965C76.6283 27.0476 76.6012 27.1049 76.4222 27.0997H74.9304C74.7893 27.0997 74.7405 27.0737 74.7459 26.9278V23.1614C74.7728 22.9887 74.7728 22.8131 74.7459 22.6404C74.2655 23.5899 73.7219 24.5087 73.1185 25.391C72.7876 25.9119 72.4567 26.4329 72.1366 26.9851C72.1185 27.0246 72.0876 27.0576 72.0486 27.0791C72.0095 27.1007 71.9644 27.1097 71.9197 27.1049H70.3465C70.1458 27.1049 70.1404 27.0268 70.1458 26.8757V19.9732C70.1458 19.8378 70.1837 19.7961 70.3302 19.8013H71.898C72.0444 19.8013 72.0824 19.8378 72.0824 19.9732V23.1822C72.1052 23.5453 72.0943 23.9097 72.0499 24.271Z" fill="white"/>
<path d="M68.182 26.8551V23.4273C68.182 22.2777 68.1802 21.1265 68.1766 19.9734C68.1766 19.8224 68.1495 19.7703 67.9759 19.7703H66.457C66.24 19.7651 66.24 19.8276 66.24 19.9891V22.4896C66.24 22.6407 66.2128 22.6928 66.0392 22.6928H63.7554C63.5439 22.698 63.5439 22.6355 63.5439 22.474V19.9474C63.5493 19.8172 63.5222 19.7703 63.3703 19.7703H61.7971C61.6615 19.7703 61.6127 19.7963 61.6127 19.937V26.8916C61.6127 27.0687 61.6724 27.0687 61.8134 27.0687H63.3323C63.5493 27.0739 63.5493 27.0114 63.5493 26.8499V24.4431C63.5493 24.2973 63.5764 24.24 63.75 24.24H66.0338C66.2454 24.24 66.2454 24.3025 66.2454 24.4588V26.8447C66.2454 27.0166 66.2779 27.0739 66.4732 27.0739H67.9433C68.1278 27.0791 68.182 27.0478 68.182 26.8551Z" fill="white"/>
<path d="M138.122 13.5165V6.6401C138.122 6.48381 138.084 6.44214 137.916 6.44214H136.397C136.228 6.43693 136.185 6.4786 136.185 6.6401V9.16667C136.185 9.32296 136.142 9.36463 135.979 9.36463H133.695C133.532 9.36984 133.489 9.32296 133.489 9.16667V6.6401C133.489 6.4786 133.446 6.44214 133.277 6.44214H131.786C131.639 6.43693 131.601 6.47861 131.601 6.61406V13.5686C131.601 13.7041 131.639 13.7406 131.786 13.7406H133.277C133.446 13.7458 133.489 13.7041 133.489 13.5426V11.115C133.489 10.9535 133.532 10.9118 133.695 10.9118H135.979C136.142 10.9118 136.185 10.9535 136.185 11.115V13.5426C136.185 13.7041 136.228 13.7406 136.397 13.7406H137.888C138.078 13.751 138.122 13.6989 138.122 13.5165Z" fill="white"/>
<path d="M77.1367 6.66093V10.0887C77.1403 11.2313 77.124 12.3844 77.0878 13.5478C77.0878 13.7041 77.1258 13.7458 77.294 13.7458H78.7641C78.9757 13.751 79.0245 13.6989 79.0245 13.4957V8.21855C79.0245 8.04143 79.0679 7.99454 79.2577 7.99454H81.4276C81.6392 7.98933 81.688 8.04144 81.688 8.2446V13.5165C81.688 13.6989 81.7314 13.7405 81.9213 13.7405H83.3425C83.5324 13.751 83.5703 13.6989 83.5703 13.5165V6.66615C83.5758 6.48382 83.527 6.44213 83.3371 6.44213H77.3699C77.1801 6.43692 77.1367 6.4786 77.1367 6.66093Z" fill="white"/>
<path d="M123.595 19.9834C123.595 19.8115 123.638 19.775 123.817 19.775H128.201C128.38 19.775 128.428 19.8167 128.418 19.9834V21.1503C128.418 21.3066 128.38 21.3379 128.222 21.3379H125.743C125.559 21.3379 125.51 21.3848 125.521 21.5515V22.4527C125.521 22.5829 125.564 22.6142 125.694 22.609H127.62C127.777 22.609 127.815 22.6507 127.81 22.7965V24.0364C127.81 24.1926 127.767 24.2239 127.615 24.2187H125.716C125.553 24.2187 125.515 24.2604 125.521 24.4062V25.3544C125.521 25.5106 125.57 25.5419 125.722 25.5367H128.352C128.537 25.5367 128.58 25.5836 128.569 25.7503V26.9172C128.569 27.0422 128.569 27.0995 128.401 27.0995H123.763C123.595 27.0995 123.595 27.0266 123.595 26.912V19.9834Z" fill="white"/>
<path d="M86.0783 19.9943V23.4221C86.0783 23.9217 86.0796 24.4213 86.0809 24.923V25.1425C86.0823 25.7246 86.0837 26.31 86.0837 26.902C86.0783 27.053 86.1162 27.0999 86.2844 27.0999L90.8081 27.0999C90.9273 27.1001 91.0093 27.1002 91.0093 26.928V25.7403C91.0147 25.584 90.9767 25.5371 90.8086 25.5371H88.1451C88.004 25.5423 87.9606 25.511 87.9606 25.3652V24.4223C87.9552 24.266 87.9986 24.2191 88.1667 24.2191H90.1197C90.2607 24.2243 90.3041 24.1879 90.3041 24.0472V22.8074C90.3041 22.6511 90.2661 22.6094 90.0979 22.6094H88.1451C88.004 22.6146 87.9606 22.5781 87.9606 22.4375V21.5415C87.9552 21.38 88.004 21.3383 88.1667 21.3383H90.6784C90.8194 21.3383 90.8574 21.3018 90.8574 21.1612V19.9995C90.8628 19.8171 90.814 19.7755 90.6242 19.7755H86.3115C86.1271 19.7703 86.0783 19.8119 86.0783 19.9943Z" fill="white"/>
<path d="M55.5314 19.7749H53.5568C53.7242 20.0755 53.8786 20.377 54.0316 20.6759C54.2207 21.0454 54.4077 21.4107 54.6146 21.7649C54.9336 22.3447 55.2391 22.9288 55.5444 23.5126L55.5452 23.514C55.8213 24.0419 56.0973 24.5696 56.3831 25.0938C56.4097 25.1253 56.4287 25.1621 56.4388 25.2015C56.449 25.2409 56.4499 25.2819 56.4416 25.3217C56.4334 25.3615 56.416 25.3991 56.3909 25.4317C56.3658 25.4643 56.3335 25.4912 56.2963 25.5105C56.2182 25.5689 56.1237 25.6033 56.025 25.6095C55.8763 25.6177 55.7273 25.5975 55.5867 25.5501C55.4462 25.5027 55.3167 25.4291 55.206 25.3334C55.1083 25.2657 55.0703 25.2448 54.9998 25.3594C54.772 25.7397 54.5441 26.1148 54.3054 26.4899C54.2295 26.6097 54.2892 26.6618 54.3868 26.7295C54.9417 27.0643 55.5943 27.2178 56.2475 27.1671C56.7009 27.1499 57.1293 26.9629 57.4409 26.6462C57.8436 26.2009 58.1514 25.6841 58.3468 25.125C58.7323 24.1935 59.1144 23.2588 59.4959 22.3259L59.8169 21.5409C59.9815 21.1423 60.1434 20.7437 60.3081 20.3383L60.533 19.7854H59.0195C58.7646 19.7854 58.6371 19.7854 58.553 19.8452C58.4689 19.9051 58.4282 20.0249 58.3468 20.2646C58.229 20.6094 58.106 20.9512 57.9828 21.2937C57.7485 21.9446 57.5133 22.5982 57.3107 23.2809L56.4591 21.4576C56.3544 21.2343 56.2468 21.011 56.1392 20.7877C55.9957 20.4901 55.8522 20.1924 55.7158 19.8948C55.7056 19.8566 55.6812 19.8234 55.6472 19.8013C55.6133 19.7793 55.5721 19.7699 55.5314 19.7749Z" fill="white"/>
<path d="M114.144 6.44171H111.127C110.62 6.44171 110.111 6.443 109.6 6.4443H109.598C109.082 6.44561 108.564 6.44692 108.041 6.44692C107.878 6.44692 107.829 6.48339 107.829 6.64488V7.83263C107.829 7.97329 107.867 8.00975 108.014 8.00975H109.912C110.124 8.00454 110.173 8.05664 110.173 8.25981V13.5318C110.173 13.7141 110.216 13.7558 110.406 13.7558H111.8C112.012 13.761 112.061 13.7089 112.061 13.5057V8.22856C112.061 8.05144 112.099 8.00454 112.294 8.00454H114.165C114.312 8.00454 114.35 7.96807 114.35 7.82742V6.63967C114.355 6.47818 114.306 6.44171 114.144 6.44171Z" fill="white"/>
<path d="M122.022 19.775H118.979C118.474 19.775 117.971 19.7763 117.465 19.7776C116.954 19.7789 116.44 19.7803 115.919 19.7803C115.751 19.775 115.713 19.8167 115.713 19.9782V21.1712C115.708 21.3066 115.751 21.3431 115.892 21.3431H117.742C117.954 21.3379 118.003 21.3952 118.003 21.5931V26.8651C118.003 27.0474 118.046 27.0891 118.236 27.0891H119.63C119.841 27.0943 119.89 27.037 119.89 26.839V21.5619C119.89 21.3796 119.934 21.3379 120.124 21.3379H122.049C122.19 21.3379 122.228 21.3014 122.228 21.1608V19.973C122.234 19.8115 122.185 19.775 122.022 19.775Z" fill="white"/>
<path d="M135.866 19.775H132.823C132.488 19.775 132.153 19.7756 131.816 19.7762L131.814 19.7762C131.135 19.7774 130.45 19.7785 129.758 19.775C129.6 19.775 129.552 19.8063 129.552 19.973V21.1608C129.546 21.2962 129.584 21.3379 129.731 21.3379H131.58C131.792 21.3327 131.841 21.3796 131.841 21.5879V26.8599C131.841 27.037 131.879 27.0839 132.074 27.0839H133.468C133.674 27.0943 133.729 27.0422 133.729 26.839V21.5671C133.729 21.39 133.767 21.3379 133.962 21.3379H135.888C136.029 21.3379 136.067 21.3066 136.067 21.166V19.973C136.072 19.8167 136.029 19.775 135.866 19.775Z" fill="white"/>
<path d="M146.486 6.66611V10.0679C146.486 10.6461 146.488 11.2257 146.489 11.8052L146.489 11.8197C146.491 12.3944 146.492 12.9691 146.492 13.5425C146.486 13.6988 146.53 13.7405 146.698 13.7405H148.244C148.385 13.7457 148.423 13.704 148.423 13.5686V6.61401C148.423 6.47856 148.385 6.44209 148.244 6.44209H146.72C146.53 6.43688 146.486 6.48378 146.486 6.66611Z" fill="white"/>
<path fill-rule="evenodd" clip-rule="evenodd" d="M68.3163 9.44743C68.2238 8.71694 67.8869 8.03503 67.3561 7.5043C66.9655 7.10103 66.4849 6.78795 65.9503 6.58855C65.4158 6.38916 64.8411 6.30863 64.2695 6.35303C64.0247 6.34707 63.7799 6.35925 63.5371 6.38948C62.9773 6.48458 62.4468 6.69918 61.9849 7.01746C61.5229 7.33574 61.1413 7.74958 60.8682 8.22842C60.469 8.94416 60.3206 9.76437 60.445 10.5675C60.5102 11.1237 60.7069 11.6582 61.0201 12.1303C61.4936 12.865 62.2275 13.4108 63.0869 13.6671C63.7913 13.8679 64.5363 13.9001 65.2567 13.7608C65.8011 13.6656 66.3158 13.4529 66.7622 13.1389C67.2085 12.8249 67.5748 12.4177 67.8335 11.9479C68.2827 11.1903 68.4528 10.3094 68.3163 9.44743ZM65.2134 12C64.8836 12.1683 64.5071 12.2327 64.1371 12.1841C63.7672 12.1355 63.4225 11.9763 63.152 11.7291C62.8638 11.494 62.6428 11.1921 62.51 10.8521C62.3771 10.5121 62.3366 10.1452 62.3925 9.78604C62.4334 9.37022 62.6103 8.97748 62.8977 8.66403C63.1851 8.35057 63.5685 8.13245 63.9928 8.04088C64.2544 7.99356 64.5231 7.99656 64.7835 8.04968C65.0439 8.1028 65.2907 8.20499 65.5097 8.35034C65.7286 8.4957 65.9154 8.68131 66.0591 8.89645C66.2029 9.11159 66.3008 9.35199 66.3471 9.6037C66.3471 9.70407 66.3582 9.80093 66.3707 9.90974C66.3796 9.98729 66.3892 10.0709 66.3959 10.1663C66.3979 10.5478 66.2881 10.922 66.0789 11.2463C65.8698 11.5706 65.5699 11.8318 65.2134 12Z" fill="white"/>
<path fill-rule="evenodd" clip-rule="evenodd" d="M93.096 9.24437C92.938 8.41532 92.4642 7.67246 91.7669 7.1606C91.05 6.58912 90.1302 6.30712 89.2011 6.37397C88.8365 6.34803 88.47 6.37972 88.1161 6.46775C87.515 6.6084 86.9595 6.88995 86.4994 7.28723C86.0394 7.6845 85.689 8.18512 85.4797 8.74427C85.1896 9.50528 85.1573 10.3349 85.3875 11.1146C85.5307 11.6968 85.8245 12.235 86.2417 12.6794C86.6589 13.1238 87.186 13.4599 87.7744 13.6568C88.4991 13.8998 89.2789 13.9502 90.031 13.8026C90.6062 13.7186 91.1522 13.5042 91.6239 13.1772C92.0956 12.8501 92.4794 12.4199 92.7434 11.922C93.179 11.0953 93.3036 10.1493 93.096 9.24437ZM89.5211 12.1721C89.4129 12.1825 89.3038 12.1825 89.1956 12.1721C88.7525 12.1668 88.3239 12.0201 87.9772 11.755C87.6305 11.49 87.3855 11.1217 87.2807 10.7082C87.1705 10.3938 87.1401 10.0586 87.192 9.73061C87.2439 9.4026 87.3766 9.09123 87.5791 8.82241C87.7364 8.59393 87.9445 8.40176 88.1884 8.25972C88.4323 8.11767 88.706 8.02927 88.9897 8.00088C89.2734 7.97249 89.5602 8.0048 89.8293 8.09551C90.0985 8.18621 90.3433 8.33305 90.5464 8.52547C90.7635 8.7194 90.9356 8.9551 91.0515 9.2172C91.1674 9.4793 91.2245 9.76192 91.2191 10.0466C91.2414 10.5361 91.0834 11.0174 90.7729 11.4061C90.4624 11.7948 90.0192 12.066 89.5211 12.1721Z" fill="white"/>
<path fill-rule="evenodd" clip-rule="evenodd" d="M84.3906 24.5781C84.3689 24.2712 84.2488 23.9782 84.0468 23.7394C83.8448 23.5006 83.5707 23.3277 83.2623 23.2445C83.294 23.2177 83.3252 23.1917 83.3558 23.1662L83.362 23.161L83.3632 23.16C83.4604 23.0791 83.5515 23.0032 83.6366 22.9215C83.9012 22.624 84.0644 22.2557 84.1042 21.8663C84.144 21.4769 84.0584 21.0852 83.859 20.744C83.63 20.4327 83.3232 20.1818 82.9668 20.0143C82.6103 19.8468 82.2157 19.7681 81.8193 19.7855C81.1794 19.7612 80.537 19.7693 79.8938 19.7774C79.572 19.7814 79.25 19.7855 78.9279 19.7855C78.7652 19.7855 78.7218 19.8271 78.7218 19.9834V26.8807C78.7218 27.0682 78.7869 27.0839 78.9551 27.0839H81.3365C81.8085 27.1093 82.2817 27.0583 82.7361 26.9328C83.2379 26.8105 83.6886 26.5432 84.0271 26.167C84.1973 25.9399 84.3173 25.6818 84.3798 25.4086C84.4423 25.1354 84.446 24.8528 84.3906 24.5781ZM80.6476 21.3691C80.7208 21.311 80.8447 21.3211 80.9773 21.332C81.0704 21.3397 81.1679 21.3477 81.2551 21.3327C81.4857 21.3046 81.7197 21.3484 81.9224 21.4577C82.0279 21.5286 82.1069 21.6301 82.1479 21.7473C82.1889 21.8645 82.1897 21.9912 82.1502 22.1089C82.1257 22.2459 82.0509 22.37 81.9396 22.4588C81.8282 22.5476 81.6874 22.5954 81.5426 22.5933H80.7615C80.6096 22.5933 80.5987 22.5308 80.6041 22.4214C80.6077 22.3501 80.6066 22.2346 80.6054 22.1079C80.6048 22.0403 80.6041 21.9694 80.6041 21.9005C80.6041 21.8421 80.5961 21.7823 80.5883 21.724C80.5696 21.5846 80.552 21.4536 80.6476 21.3691ZM82.4486 24.9272C82.4157 25.0917 82.3239 25.2401 82.1892 25.3467C82.0545 25.4532 81.8853 25.5112 81.7108 25.5106H80.7235C80.6259 25.5106 80.5933 25.4794 80.5988 25.3856V24.7396C80.5988 24.6665 80.5886 24.5906 80.5787 24.5165C80.5554 24.3424 80.5334 24.1782 80.6476 24.0832C80.7609 23.9889 80.9427 24.0108 81.1251 24.0328C81.2045 24.0424 81.2841 24.052 81.3582 24.052C81.6459 24.0026 81.9425 24.0543 82.1936 24.1978C82.3106 24.2782 82.3982 24.3919 82.444 24.5229C82.4898 24.6538 82.4914 24.7953 82.4486 24.9272Z" fill="white"/>
<path fill-rule="evenodd" clip-rule="evenodd" d="M129.957 11.4063C129.954 11.0724 129.842 10.7478 129.637 10.4785C129.431 10.2092 129.143 10.0089 128.812 9.90597C129.201 9.66863 129.477 9.29467 129.582 8.86409C129.689 8.55027 129.701 8.21385 129.616 7.89389C129.532 7.57392 129.354 7.28354 129.105 7.05643C128.631 6.65764 128.021 6.44063 127.391 6.44692C126.747 6.42607 126.098 6.43304 125.45 6.43999C125.127 6.44346 124.805 6.44692 124.483 6.44692C124.304 6.44692 124.277 6.49901 124.277 6.65008V13.5474C124.277 13.7037 124.32 13.7505 124.483 13.7453H127.092C127.603 13.7543 128.112 13.6694 128.59 13.4953C128.94 13.3803 129.253 13.1813 129.501 12.917C129.679 12.7077 129.811 12.466 129.889 12.2064C129.968 11.9467 129.991 11.6746 129.957 11.4063ZM126.159 8.58279C126.159 8.53591 126.152 8.48162 126.144 8.42512C126.125 8.28071 126.104 8.12191 126.197 8.03579C126.288 7.95183 126.446 7.97019 126.605 7.9887C126.673 7.9966 126.741 8.00453 126.805 8.00453C126.943 7.99353 127.083 8.00588 127.217 8.041C127.367 8.07083 127.5 8.15153 127.593 8.2683C127.686 8.38506 127.731 8.53003 127.722 8.67656C127.708 8.83015 127.637 8.9738 127.521 9.08035C127.405 9.18689 127.253 9.24895 127.092 9.25479H126.284C126.17 9.25479 126.148 9.21313 126.148 9.11415C126.148 9.07346 126.15 9.01077 126.152 8.93692C126.155 8.83133 126.159 8.70204 126.159 8.58279ZM127.472 12.1356C127.075 12.1851 126.673 12.2008 126.273 12.1825C126.159 12.1825 126.154 12.1304 126.159 12.0471V10.8593C126.159 10.802 126.159 10.7186 126.241 10.7239C126.675 10.6951 127.112 10.7108 127.543 10.7707C127.685 10.8214 127.807 10.9122 127.895 11.0313C127.982 11.1503 128.029 11.292 128.031 11.4375C128.03 11.5965 127.974 11.7507 127.873 11.8767C127.773 12.0027 127.632 12.0936 127.472 12.1356Z" fill="white"/>
<path fill-rule="evenodd" clip-rule="evenodd" d="M106.691 10.2863C106.509 9.77004 106.325 9.25564 106.141 8.74154L106.137 8.73117C105.884 8.02438 105.631 7.31813 105.384 6.60841L105.383 6.60587C105.346 6.50321 105.323 6.44171 105.194 6.44171H103.469C103.361 6.44171 103.323 6.48338 103.29 6.58757C103.218 6.81485 103.133 7.03886 103.049 7.26197C102.994 7.40687 102.94 7.55162 102.889 7.69718C102.774 8.02023 102.663 8.34462 102.553 8.66868L102.552 8.67016C102.39 9.14499 102.227 9.62018 102.053 10.0935C101.828 10.73 101.599 11.3649 101.369 12.0038L101.365 12.014L101.363 12.0194L101.359 12.0309C101.155 12.5963 100.951 13.1648 100.746 13.7401H102.617C102.711 13.7401 102.724 13.7014 102.743 13.644L102.748 13.629L102.753 13.6151C102.797 13.4684 102.844 13.3209 102.89 13.1739L102.891 13.1721C102.977 12.9025 103.063 12.6322 103.133 12.3596C103.165 12.2346 103.209 12.2294 103.312 12.2294H105.313C105.506 12.2294 105.532 12.3371 105.558 12.4459C105.563 12.466 105.568 12.486 105.574 12.5055C105.611 12.6248 105.645 12.7452 105.68 12.866C105.752 13.1197 105.826 13.375 105.921 13.6255C105.921 13.6828 105.921 13.7453 106.03 13.7453H107.917C107.773 13.338 107.632 12.935 107.491 12.5349C107.226 11.7785 106.965 11.0324 106.691 10.2863ZM104.869 10.7707H103.784C103.616 10.7707 103.605 10.7082 103.643 10.5832C103.849 9.95808 104.055 9.33295 104.185 8.69219C104.206 8.60329 104.225 8.5144 104.245 8.42464L104.245 8.42253L104.246 8.42099L104.246 8.41869C104.261 8.34733 104.277 8.27541 104.294 8.2025C104.331 8.35131 104.367 8.49917 104.403 8.64597L104.404 8.64781C104.512 9.09136 104.618 9.52538 104.76 9.94766C104.79 10.0404 104.814 10.1344 104.838 10.2278C104.871 10.3547 104.903 10.4816 104.95 10.6045C104.991 10.7103 105.005 10.7495 104.993 10.7621C104.986 10.7695 104.969 10.7677 104.942 10.7649C104.923 10.7629 104.898 10.7603 104.869 10.7603V10.7707Z" fill="white"/>
<path fill-rule="evenodd" clip-rule="evenodd" d="M98.2351 21.4894C98.1121 21.0002 97.8197 20.5657 97.4057 20.2571C96.9917 19.9485 96.4808 19.7842 95.9568 19.7912H92.9407C92.7345 19.7912 92.6586 19.8172 92.664 20.0464V26.8968C92.664 27.0323 92.664 27.0948 92.8484 27.0896H94.4162C94.568 27.0896 94.5952 27.0427 94.5952 26.9125V25.0631C94.5952 24.8756 94.6549 24.8495 94.8339 24.8443C95.3532 24.8696 95.8737 24.8556 96.3908 24.8026C96.6836 24.7575 96.9637 24.6551 97.2138 24.5019C97.4638 24.3487 97.6785 24.1479 97.8446 23.9118C98.0991 23.564 98.2668 23.1646 98.3345 22.7445C98.4022 22.3244 98.3682 21.8949 98.2351 21.4894ZM95.8591 23.1981C95.4712 23.2924 95.0695 23.3223 94.6711 23.2867C94.5845 23.2867 94.5913 23.2302 94.5975 23.1783L94.5995 23.1603C94.6002 23.1535 94.6006 23.147 94.6006 23.1408V21.4894C94.6006 21.4217 94.6006 21.3332 94.7037 21.3436C95.0388 21.3341 95.3742 21.348 95.7072 21.3853C95.8514 21.4093 95.9861 21.4704 96.0969 21.5621C96.2077 21.6539 96.2905 21.7728 96.3365 21.9062C96.4301 22.1393 96.4334 22.3969 96.3458 22.6322C96.2582 22.8674 96.0855 23.0646 95.8591 23.1877V23.1981Z" fill="white"/>
<path fill-rule="evenodd" clip-rule="evenodd" d="M100.404 8.32751C100.325 7.81136 100.058 7.33903 99.6489 6.99531C99.2403 6.6516 98.7175 6.45902 98.1744 6.45213C97.4838 6.42783 96.7909 6.43592 96.0971 6.44402C95.75 6.44807 95.4025 6.45213 95.0552 6.45213C94.8653 6.45213 94.8219 6.4938 94.8219 6.67613V13.5526C94.8219 13.7141 94.8599 13.7557 95.028 13.7505H96.4981C96.6663 13.7505 96.7043 13.7088 96.7043 13.5526V11.7032C96.7043 11.5417 96.7531 11.5105 96.9159 11.5053C97.4442 11.5304 97.9737 11.5165 98.4998 11.4636C98.8702 11.4113 99.2208 11.2703 99.5194 11.0536C99.818 10.8369 100.055 10.5515 100.209 10.2238C100.486 9.62864 100.554 8.96322 100.404 8.32751ZM97.9899 9.85908C97.5935 9.94627 97.1855 9.97438 96.7802 9.94244C96.6931 9.94244 96.698 9.89059 96.7027 9.8406C96.7041 9.82524 96.7056 9.81004 96.7043 9.79657V8.15561C96.7043 8.14669 96.7037 8.13699 96.7031 8.1272C96.6997 8.06835 96.6958 8.00082 96.8073 8.00974C97.1387 8.00369 97.4702 8.01587 97.8001 8.04621C97.9715 8.07016 98.1309 8.14469 98.2563 8.25948C98.3817 8.37428 98.4668 8.52366 98.4998 8.68696C98.5761 8.90856 98.5665 9.14913 98.4728 9.36447C98.3791 9.5798 98.2077 9.75543 97.9899 9.85908Z" fill="white"/>
<path fill-rule="evenodd" clip-rule="evenodd" d="M145.661 10.5628C145.561 10.0125 145.254 9.51675 144.798 9.16997C144.341 8.82319 143.768 8.6496 143.188 8.68224H142.249C142.103 8.68224 142.07 8.64056 142.076 8.50512V6.66098C142.076 6.47344 142.021 6.43697 141.837 6.44217H140.345C140.172 6.44217 140.139 6.48907 140.139 6.64535V13.5426C140.139 13.7041 140.182 13.7458 140.351 13.7406H142.048C142.626 13.7658 143.204 13.7518 143.779 13.6989C144.076 13.6539 144.36 13.5501 144.613 13.394C144.866 13.238 145.083 13.0331 145.249 12.7925C145.478 12.4701 145.634 12.1046 145.705 11.7202C145.776 11.3358 145.761 10.9413 145.661 10.5628ZM143.242 12.1257C142.888 12.2123 142.52 12.237 142.157 12.1986C142.068 12.1986 142.072 12.1481 142.075 12.0987C142.076 12.0846 142.077 12.0706 142.076 12.0579V10.4378C142.076 10.2763 142.13 10.2451 142.276 10.2555C142.55 10.2529 142.824 10.2686 143.095 10.3024C143.297 10.3571 143.475 10.4728 143.603 10.6323C143.731 10.7918 143.802 10.9866 143.806 11.188C143.815 11.3769 143.766 11.5642 143.666 11.727C143.566 11.8898 143.418 12.0211 143.242 12.1048V12.1257Z" fill="white"/>
<path fill-rule="evenodd" clip-rule="evenodd" d="M75.5145 8.04081C75.3743 7.57221 75.0761 7.16152 74.6668 6.87306C74.2574 6.5846 73.76 6.43466 73.2525 6.44673H70.2635C70.0682 6.44673 70.0302 6.49882 70.0356 6.67594V13.5524C70.0356 13.7087 70.0681 13.7555 70.2417 13.7503H71.7064C71.8691 13.7503 71.918 13.7191 71.918 13.5524V11.6822C71.918 11.552 71.918 11.5051 72.0916 11.5051H73.3881C73.6836 11.5007 73.9752 11.4384 74.2448 11.3219C74.5143 11.2055 74.7563 11.0373 74.9558 10.8279C75.3039 10.456 75.54 9.99996 75.6384 9.50889C75.7369 9.01781 75.694 8.51025 75.5145 8.04081ZM73.7244 9.14521C73.5617 9.72866 73.3338 9.92141 72.6395 9.94225C72.5705 9.94225 72.496 9.95095 72.4214 9.95968C72.2378 9.98115 72.0531 10.0028 71.9451 9.89536C71.8413 9.7921 71.8642 9.63043 71.8873 9.46691C71.8981 9.39119 71.9088 9.31508 71.9071 9.24418V8.17626C71.9071 8.04602 71.9071 7.98351 72.0807 7.99914C72.396 7.98973 72.7116 8.00366 73.0246 8.04081C73.2673 8.10236 73.4757 8.25175 73.6061 8.45765C73.7366 8.66355 73.779 8.90996 73.7244 9.14521Z" fill="white"/>
<path d="M83.2393 32.3091C83.7883 32.3159 84.3242 32.4712 84.7854 32.7572C84.9427 32.8718 85.0349 32.9551 84.8505 33.1114C84.8032 33.1546 84.7679 33.2082 84.7474 33.2677C84.688 33.4597 84.5747 33.3829 84.4826 33.3205C84.1243 33.0653 83.6852 32.9341 83.2393 32.9499C82.8878 32.9542 82.5482 33.073 82.2762 33.2869C82.0042 33.5008 81.8158 33.7971 81.7421 34.1272C81.649 34.4787 81.6733 34.8494 81.8115 35.1868C81.9498 35.5243 82.1949 35.8115 82.5124 36.0078C82.7945 36.1519 83.1113 36.2215 83.4306 36.2096C83.7498 36.1977 84.0601 36.1047 84.3297 35.9401C84.3385 35.9349 84.347 35.9294 84.3554 35.9238L84.3783 35.9085C84.4033 35.8915 84.4279 35.8747 84.4545 35.862C84.466 35.8565 84.4828 35.836 84.5037 35.8105C84.5618 35.7397 84.6517 35.6302 84.7474 35.6953C84.8768 35.8048 84.9851 35.9353 85.0675 36.0808C85.1217 36.1485 85.0675 36.1798 85.0024 36.2162C84.6323 36.5403 84.1654 36.7445 83.6679 36.7997C83.155 36.8761 82.6301 36.7921 82.1707 36.56C81.8423 36.396 81.5641 36.1526 81.3634 35.8539C81.1627 35.5552 81.0464 35.2115 81.0261 34.8566C80.9362 34.2861 81.078 33.7042 81.4221 33.2312C81.5902 32.9873 81.8137 32.7832 82.0759 32.6343C82.3381 32.4854 82.632 32.3956 82.9356 32.3717C83.0011 32.3666 83.0615 32.347 83.1127 32.3304C83.1673 32.3127 83.2113 32.2984 83.2393 32.3091Z" fill="white"/>
<path d="M71.593 36.7472H71.3597C71.0732 36.7472 70.9294 36.7472 70.8234 36.6845C70.7166 36.6214 70.648 36.4948 70.5104 36.2406L70.5026 36.2262C70.2896 35.8328 70.1044 35.5256 69.9144 35.2103C69.8528 35.108 69.7907 35.0049 69.7269 34.8978C69.6269 34.8376 69.5151 34.7978 69.3985 34.7808C69.2819 34.7638 69.1629 34.7699 69.0488 34.7988C69.0161 34.8302 69.0272 34.8687 69.0381 34.9063C69.0435 34.9248 69.0488 34.9431 69.0488 34.9603V36.5231C69.0488 36.6742 69.0162 36.7159 68.8589 36.7159C68.5849 36.7159 68.4493 36.7159 68.3822 36.6487C68.3165 36.5829 68.3165 36.4527 68.3165 36.195V32.5744C68.3165 32.4025 68.3544 32.3608 68.5335 32.3608C69.0271 32.3608 69.0271 32.3608 69.0271 32.8401V34.007C69.0271 34.1372 69.0705 34.1476 69.1953 34.1737C69.6053 34.2571 69.7451 34.0109 69.8931 33.7502C69.9058 33.7278 69.9193 33.704 69.9323 33.6816L69.9493 33.6528C70.0876 33.4225 70.2312 33.1956 70.375 32.9682C70.4849 32.7946 70.5953 32.62 70.7033 32.4442C70.7196 32.417 70.7434 32.3948 70.7722 32.38C70.801 32.3653 70.8335 32.3586 70.8661 32.3608H71.5333C71.2838 32.7567 71.0505 33.1266 70.8118 33.4965C70.766 33.5684 70.7205 33.6412 70.6751 33.7139C70.5595 33.899 70.4444 34.0835 70.3236 34.2518C70.2831 34.3047 70.2612 34.3686 70.2612 34.4342C70.2612 34.4998 70.2831 34.5637 70.3236 34.6165C70.6764 35.1753 71.0214 35.7415 71.3653 36.3057L71.555 36.6169C71.5735 36.6586 71.5863 36.7023 71.593 36.7472Z" fill="white"/>
<path d="M145.624 33.4711C145.248 34.0815 144.837 34.6409 144.43 35.1953C144.284 35.3932 144.139 35.5906 143.996 35.7893C143.954 35.8481 143.91 35.907 143.866 35.966C143.742 36.1315 143.618 36.299 143.514 36.4718C143.463 36.565 143.384 36.6413 143.287 36.6906C143.19 36.7399 143.08 36.7598 142.971 36.7478C142.64 36.7478 142.64 36.7478 142.64 36.4301V32.6637C142.64 32.4709 142.673 32.398 142.895 32.4084C143.356 32.4084 143.356 32.4084 143.356 32.846V35.0339C143.376 35.2662 143.358 35.5 143.302 35.7268C143.635 35.2075 143.997 34.7135 144.358 34.2201L144.359 34.2187C144.515 34.0052 144.673 33.7906 144.826 33.5753L145.488 32.6168C145.592 32.533 145.715 32.4734 145.846 32.4427C145.978 32.412 146.116 32.4109 146.248 32.4396C146.308 32.4686 146.303 32.514 146.299 32.5575L146.297 32.5729C146.297 32.579 146.297 32.5849 146.297 32.5907V36.5968C146.297 36.7114 146.264 36.7426 146.145 36.7426C145.882 36.7426 145.755 36.7426 145.693 36.6796C145.635 36.62 145.635 36.5042 145.635 36.279L145.624 33.4711Z" fill="white"/>
<path d="M56.1076 33.407C56.1725 33.2644 56.237 33.1225 56.3008 32.9811C56.3255 32.9206 56.3521 32.861 56.3786 32.8016C56.4161 32.7177 56.4534 32.6341 56.4852 32.5487C56.4977 32.507 56.5254 32.4709 56.5632 32.447C56.601 32.4232 56.6464 32.413 56.6913 32.4185C57.2338 32.3924 57.2772 32.4185 57.3152 32.9394C57.3304 33.1478 57.3421 33.3562 57.3538 33.5646C57.3714 33.8771 57.3889 34.1897 57.4182 34.5022C57.4779 35.1795 57.5484 35.8515 57.619 36.5235C57.619 36.685 57.6189 36.784 57.3911 36.7735C56.934 36.7735 56.934 36.7735 56.9077 36.3712L56.9029 36.2995C56.8919 36.1454 56.8816 35.9911 56.8713 35.8367C56.8306 35.229 56.7898 34.619 56.7076 34.0126C56.6993 33.8842 56.6993 33.7554 56.7076 33.627L56.5365 34.0016L56.5357 34.0032C56.2731 34.5776 56.0218 35.1271 55.7854 35.6796C55.7571 35.7907 55.6842 35.8865 55.5825 35.946C55.4808 36.0056 55.3587 36.024 55.2429 35.9973C55.0802 35.9973 54.9934 35.9713 54.9066 35.7838C54.7887 35.5178 54.6659 35.2538 54.543 34.9897C54.3266 34.5247 54.1095 34.0584 53.9193 33.5802C53.9193 33.9382 53.8875 34.2944 53.8557 34.6499C53.8334 34.8996 53.8111 35.1489 53.7999 35.3983C53.7885 35.8201 53.7523 36.241 53.6915 36.6589C53.6667 36.8121 53.5307 36.7918 53.391 36.771C53.3169 36.7599 53.2417 36.7487 53.1816 36.7631C53.1694 36.7631 53.1533 36.7655 53.1359 36.7681C53.0678 36.7783 52.9778 36.7917 53.008 36.6798C53.0253 36.6157 53.0268 36.5225 53.0285 36.4213C53.0305 36.3002 53.0327 36.1677 53.0622 36.0599C53.1036 35.8011 53.129 35.5401 53.1382 35.2784C53.1815 34.9808 53.1966 34.6832 53.2116 34.3856C53.2229 34.1623 53.2342 33.9389 53.2575 33.7156C53.2663 33.6249 53.276 33.5345 53.2857 33.4442L53.2859 33.4425L53.286 33.4408C53.318 33.1434 53.3497 32.8476 53.3497 32.5487C53.3497 32.4497 53.3931 32.4185 53.4853 32.4289H53.5125C54.0821 32.4036 54.0928 32.4275 54.3771 33.0657L54.4021 33.1217C54.6704 33.7229 54.9142 34.2888 55.1618 34.8636L55.2755 35.1274C55.2889 35.1769 55.2979 35.2275 55.3026 35.2784C55.5564 34.6186 55.835 34.0062 56.107 33.4085L56.1076 33.407Z" fill="white"/>
<path d="M141.517 36.5343V32.8616C141.517 32.6408 141.517 32.5288 141.46 32.4721C141.402 32.4136 141.284 32.4136 141.045 32.4136C140.855 32.4136 140.855 32.4709 140.855 32.6116V34.1379C140.86 34.2682 140.833 34.3203 140.681 34.3203H138.756C138.571 34.3255 138.571 34.263 138.571 34.1275V32.8147C138.571 32.6128 138.571 32.5124 138.52 32.4627C138.471 32.4136 138.372 32.4136 138.175 32.4136C137.969 32.4084 137.909 32.4501 137.909 32.6585V36.3051C137.909 36.525 137.909 36.637 137.966 36.694C138.024 36.7531 138.144 36.7531 138.387 36.7531C138.571 36.7531 138.571 36.6958 138.571 36.5551V35.0287C138.571 34.8985 138.593 34.8464 138.745 34.8464H140.67C140.855 34.8412 140.855 34.9037 140.855 35.0392V36.3259C140.855 36.5407 140.855 36.6476 140.909 36.7007C140.962 36.7531 141.068 36.7531 141.278 36.7531C141.462 36.7583 141.517 36.7218 141.517 36.5343Z" fill="white"/>
<path d="M87.8514 34.2419C88.2311 33.6532 88.6162 33.0646 89.0339 32.429H88.3613C88.3253 32.4268 88.2895 32.4351 88.2586 32.4528C88.2276 32.4704 88.2029 32.4966 88.1877 32.528C87.9436 32.9447 87.6886 33.3511 87.4282 33.7626C87.3964 33.8059 87.3671 33.85 87.3384 33.8933C87.1905 34.1161 87.0584 34.3152 86.6905 34.2367C86.5494 34.2106 86.5169 34.1794 86.5169 34.0543V32.8874C86.5169 32.4238 86.5169 32.4238 86.0504 32.4238C85.8659 32.4186 85.8008 32.4551 85.8008 32.6582V36.3048C85.8008 36.7685 85.8008 36.7685 86.2891 36.7685C86.4626 36.7685 86.5169 36.7372 86.5169 36.5601V34.9973C86.5169 34.9888 86.5162 34.9798 86.5151 34.9705L86.513 34.9527C86.5068 34.904 86.5001 34.8505 86.5494 34.8149C86.6705 34.7861 86.7972 34.7873 86.9177 34.8182C87.0382 34.8492 87.1485 34.909 87.2384 34.9921C87.3511 35.1944 87.4738 35.3947 87.5969 35.5957C87.7464 35.8396 87.8966 36.0848 88.0304 36.3361C88.0818 36.4899 88.1923 36.6192 88.3394 36.6976C88.4866 36.7759 88.6592 36.7976 88.8224 36.758C88.9017 36.7502 88.9817 36.7502 89.0611 36.758C89.1099 36.7164 89.0611 36.6695 89.0611 36.6695C88.9498 36.4876 88.8398 36.3052 88.7299 36.1231L88.729 36.1217C88.4427 35.647 88.1569 35.1735 87.8514 34.7107C87.7968 34.6438 87.7672 34.5613 87.7672 34.4763C87.7672 34.3913 87.7968 34.3088 87.8514 34.2419Z" fill="white"/>
<path d="M67.1118 35.7528C66.7749 36.0478 66.3364 36.2129 65.8804 36.2165C65.5899 36.2267 65.3022 36.1581 65.0504 36.0185C64.7271 35.8223 64.4775 35.532 64.3379 35.1899C64.1984 34.8479 64.1762 34.472 64.2747 34.1171C64.3234 33.8631 64.4437 33.6267 64.6226 33.4339C64.8015 33.241 65.032 33.0989 65.2891 33.0231C65.5713 32.9341 65.8718 32.9122 66.1647 32.9594C66.4577 33.0066 66.7343 33.1214 66.9708 33.294C67.1118 33.393 67.1823 33.419 67.2908 33.2471L67.3221 33.1973C67.5199 32.8824 67.523 32.8774 67.1769 32.6741C67.0781 32.604 66.9682 32.5494 66.8514 32.5126C66.4035 32.3582 65.9243 32.3065 65.4519 32.3615C65.1576 32.3964 64.8738 32.4888 64.6182 32.633C64.3626 32.7773 64.1404 32.9703 63.9655 33.2002C63.6053 33.6824 63.4555 34.2805 63.5478 34.8672C63.5726 35.2151 63.6879 35.5514 63.8831 35.8454C64.0784 36.1394 64.3473 36.3816 64.6653 36.5499C65.1174 36.7914 65.641 36.8795 66.1516 36.7999C66.5378 36.7678 66.9101 36.6462 67.2366 36.4457C67.6523 36.1847 67.6491 36.1801 67.3917 35.8046L67.3776 35.7841C67.28 35.6434 67.2203 35.6539 67.1118 35.7528Z" fill="white"/>
<path d="M123.154 34.4708C123.429 34.5654 123.655 34.7593 123.784 35.0112C123.913 35.2631 123.934 35.5532 123.843 35.82C123.78 36.0911 123.625 36.3343 123.402 36.5115C123.179 36.6888 122.901 36.79 122.612 36.7994C122.325 36.8369 122.033 36.8188 121.754 36.7464C121.474 36.6739 121.213 36.5485 120.985 36.3774C120.86 36.2889 120.773 36.2003 120.957 36.0649C121.054 35.994 121.092 35.9318 121.122 35.884C121.149 35.8404 121.169 35.8089 121.218 35.794C121.279 35.7753 121.335 35.8347 121.394 35.8978C121.434 35.9403 121.476 35.9845 121.522 36.0076C121.709 36.1365 121.932 36.2113 122.162 36.2233C122.393 36.2353 122.622 36.184 122.824 36.0753C122.965 35.9983 123.076 35.878 123.138 35.7335C123.2 35.5889 123.209 35.4287 123.165 35.2782C123.104 35.1419 123.004 35.025 122.876 34.9411C122.748 34.8572 122.598 34.8097 122.444 34.8042C122.283 34.7964 122.122 34.7964 121.961 34.8042C121.831 34.8042 121.777 34.7677 121.798 34.6427C121.804 34.6029 121.804 34.5626 121.798 34.5229C121.755 34.3093 121.842 34.2416 122.064 34.2624C122.312 34.289 122.562 34.2258 122.764 34.0853C122.893 34.0049 122.987 33.8829 123.03 33.7414C123.072 33.5999 123.061 33.4483 122.997 33.3143C122.919 33.1645 122.792 33.0438 122.635 32.9712C122.477 32.8986 122.3 32.8782 122.129 32.9131C121.856 32.9561 121.598 33.0655 121.381 33.2309C121.315 33.283 121.267 33.283 121.202 33.1945C120.925 32.8142 120.93 32.7673 121.37 32.5589C121.669 32.3926 122.011 32.3099 122.357 32.32C122.703 32.3301 123.039 32.4327 123.328 32.6162C123.446 32.6966 123.542 32.8017 123.611 32.9237C123.68 33.0456 123.718 33.181 123.724 33.3195C123.775 33.5449 123.747 33.7802 123.644 33.9885C123.541 34.1969 123.369 34.3665 123.154 34.4708Z" fill="white"/>
<path d="M94.8269 32.6216V34.5647L94.8161 36.3619C94.8161 36.5544 94.8161 36.6521 94.8653 36.7016C94.9161 36.7527 95.0191 36.7527 95.2283 36.7527C95.4507 36.7631 95.4833 36.6901 95.4833 36.4974V33.2415C95.4779 33.0279 95.5429 32.9967 95.7491 32.9967H96.91C97.3168 32.9967 97.3168 32.9967 97.3168 32.6007C97.3222 32.4132 97.2571 32.4132 97.1053 32.4132H95.0276C94.8269 32.4132 94.8269 32.4705 94.8269 32.6216Z" fill="white"/>
<path fill-rule="evenodd" clip-rule="evenodd" d="M126.779 32.3297C126.472 32.3174 126.165 32.3661 125.878 32.4726C125.591 32.5792 125.33 32.7414 125.111 32.9491C124.892 33.1569 124.72 33.4056 124.606 33.68C124.491 33.9543 124.437 34.2484 124.446 34.5437C124.43 34.8459 124.48 35.148 124.592 35.4307C124.704 35.7134 124.877 35.9706 125.098 36.1857C125.32 36.4009 125.586 36.5694 125.879 36.6804C126.172 36.7915 126.486 36.8426 126.801 36.8307C127.109 36.8344 127.416 36.7778 127.701 36.6642C127.986 36.5506 128.244 36.3824 128.459 36.1698C128.674 35.9573 128.842 35.7049 128.953 35.428C129.063 35.1511 129.113 34.8556 129.101 34.5593C129.11 34.2642 129.056 33.9704 128.942 33.696C128.829 33.4216 128.658 33.1723 128.441 32.9635C128.223 32.7547 127.964 32.5908 127.678 32.4818C127.392 32.3728 127.086 32.3211 126.779 32.3297ZM126.725 36.2212C126.293 36.1834 125.892 35.992 125.6 35.6845C125.307 35.377 125.146 34.9756 125.146 34.5593C125.14 34.3506 125.178 34.1429 125.257 33.9485C125.336 33.754 125.455 33.5768 125.607 33.4272C125.759 33.2777 125.94 33.1588 126.141 33.0777C126.341 32.9965 126.556 32.9548 126.774 32.9548C126.997 32.9543 127.219 32.9981 127.424 33.0834C127.629 33.1686 127.814 33.2936 127.966 33.4506C128.119 33.6075 128.237 33.7929 128.311 33.9954C128.386 34.1978 128.417 34.4128 128.401 34.6271C128.385 35.0475 128.202 35.4462 127.891 35.7423C127.58 36.0383 127.163 36.2095 126.725 36.2212Z" fill="white"/>
<path fill-rule="evenodd" clip-rule="evenodd" d="M73.2618 32.4699C73.5527 32.3627 73.8636 32.315 74.1747 32.3297C74.4795 32.3218 74.7827 32.3737 75.0659 32.4822C75.349 32.5908 75.6061 32.7536 75.8214 32.9609C76.0368 33.1682 76.2058 33.4154 76.3181 33.6876C76.4305 33.9598 76.4838 34.2511 76.4748 34.5438C76.4929 34.842 76.4464 35.1406 76.3383 35.4207C76.2302 35.7008 76.0628 35.9564 75.8467 36.1713C75.6305 36.3861 75.3704 36.5557 75.0826 36.6692C74.7949 36.7827 74.4857 36.8377 74.1747 36.8307C73.8627 36.8417 73.5517 36.7907 73.2612 36.6809C72.9707 36.5711 72.7069 36.4048 72.4864 36.1926C72.2659 35.9803 72.0934 35.7266 71.9797 35.4474C71.8661 35.1682 71.8137 34.8694 71.8259 34.5698C71.8127 34.2709 71.8645 33.9727 71.9781 33.6941C72.0917 33.4155 72.2645 33.1628 72.4855 32.952C72.7066 32.7412 72.971 32.577 73.2618 32.4699ZM72.9731 35.6948C73.2707 36.0049 73.6821 36.1918 74.1205 36.216C74.3432 36.2141 74.5632 36.1692 74.7674 36.0839C74.9716 35.9987 75.1559 35.8748 75.3093 35.7198C75.4627 35.5647 75.5819 35.3816 75.6601 35.1814C75.7382 34.9811 75.7736 34.7678 75.7642 34.5542C75.7706 34.1555 75.6218 33.7689 75.3468 33.4701C75.0718 33.1714 74.6906 32.9821 74.2778 32.9393C74.0513 32.9309 73.8253 32.9664 73.6134 33.0437C73.4016 33.121 73.208 33.2386 73.0445 33.3893C72.881 33.54 72.7507 33.7209 72.6616 33.921C72.5724 34.1211 72.5262 34.3365 72.5256 34.5542C72.5151 34.9757 72.6755 35.3847 72.9731 35.6948Z" fill="white"/>
<path fill-rule="evenodd" clip-rule="evenodd" d="M60.6357 32.3302C60.3269 32.3164 60.0185 32.3641 59.7298 32.4703C59.4412 32.5765 59.1785 32.739 58.9584 32.9474C58.7383 33.1558 58.5655 33.4058 58.4508 33.6815C58.3362 33.9572 58.2822 34.2527 58.2923 34.5494C58.2762 34.8509 58.3257 35.1523 58.4377 35.4344C58.5497 35.7165 58.7217 35.973 58.9427 36.1877C59.1637 36.4024 59.4289 36.5705 59.7213 36.6813C60.0138 36.7921 60.3271 36.8431 60.6412 36.8311C60.9524 36.8374 61.2617 36.7817 61.5494 36.6676C61.8372 36.5535 62.0973 36.3835 62.3133 36.1682C62.5293 35.9529 62.6967 35.6971 62.8047 35.4167C62.9128 35.1363 62.9593 34.8374 62.9412 34.539C62.9487 34.2465 62.8941 33.9556 62.7809 33.6841C62.6676 33.4125 62.4979 33.1659 62.2823 32.9593C62.0666 32.7527 61.8094 32.5903 61.5263 32.4822C61.2433 32.374 60.9403 32.3223 60.6357 32.3302ZM60.5923 36.2164C60.1491 36.2001 59.7303 36.0174 59.426 35.7076C59.1216 35.3978 58.9561 34.9856 58.9649 34.5598C58.9639 34.3406 59.0094 34.1234 59.0987 33.9216C59.1879 33.7198 59.319 33.5375 59.4839 33.3859C59.6489 33.2344 59.8442 33.1166 60.0581 33.0399C60.272 32.9632 60.4999 32.9291 60.7279 32.9397C61.1416 32.9851 61.5226 33.1777 61.7957 33.4796C62.0688 33.7814 62.2143 34.1705 62.2035 34.5702C62.2107 34.78 62.1747 34.9891 62.0976 35.1855C62.0205 35.3819 61.9037 35.5618 61.754 35.7147C61.6043 35.8677 61.4246 35.9907 61.2253 36.0768C61.0259 36.1629 60.8108 36.2104 60.5923 36.2164Z" fill="white"/>
<path fill-rule="evenodd" clip-rule="evenodd" d="M98.916 32.4699C99.2068 32.3627 99.5178 32.315 99.8289 32.3297C100.134 32.3218 100.437 32.3737 100.72 32.4822C101.003 32.5908 101.26 32.7536 101.476 32.9609C101.691 33.1682 101.86 33.4154 101.972 33.6876C102.085 33.9598 102.138 34.2511 102.129 34.5438C102.146 34.8423 102.099 35.141 101.99 35.4211C101.882 35.7012 101.714 35.9567 101.497 36.1715C101.281 36.3863 101.02 36.5557 100.732 36.6692C100.444 36.7826 100.135 36.8376 99.8235 36.8307C99.5117 36.8417 99.2009 36.7907 98.9107 36.6809C98.6205 36.571 98.357 36.4047 98.1369 36.1923C97.9168 35.98 97.7449 35.7263 97.6318 35.447C97.5188 35.1678 97.4671 34.8691 97.48 34.5698C97.4668 34.2709 97.5186 33.9727 97.6322 33.6941C97.7458 33.4155 97.9187 33.1628 98.1397 32.952C98.3608 32.7412 98.6251 32.577 98.916 32.4699ZM98.6272 35.6948C98.9248 36.0049 99.3362 36.1918 99.7746 36.216C99.9978 36.2141 100.218 36.169 100.423 36.0835C100.627 35.9979 100.812 35.8736 100.965 35.718C101.119 35.5624 101.238 35.3786 101.316 35.1778C101.394 34.9769 101.429 34.7631 101.418 34.549C101.424 34.155 101.277 33.773 101.007 33.4767C100.736 33.1804 100.361 32.9908 99.9537 32.9445C99.7254 32.9317 99.4969 32.9638 99.2822 33.039C99.0674 33.1141 98.8709 33.2307 98.7048 33.3815C98.5386 33.5322 98.4063 33.714 98.316 33.9157C98.2258 34.1174 98.1794 34.3346 98.1798 34.5542C98.1692 34.9757 98.3297 35.3847 98.6272 35.6948Z" fill="white"/>
<path fill-rule="evenodd" clip-rule="evenodd" d="M91.6647 32.3302C91.3538 32.3162 91.0432 32.3645 90.7527 32.4719C90.4623 32.5794 90.1982 32.7436 89.9773 32.9542C89.7565 33.1649 89.5836 33.4173 89.4697 33.6955C89.3559 33.9737 89.3034 34.2716 89.3158 34.5702C89.3037 34.8698 89.356 35.1686 89.4697 35.4479C89.5834 35.7271 89.7559 35.9808 89.9764 36.193C90.1969 36.4053 90.4607 36.5715 90.7512 36.6813C91.0417 36.7911 91.3527 36.8421 91.6647 36.8312C91.9758 36.8366 92.2846 36.7804 92.572 36.6661C92.8594 36.5517 93.1192 36.3817 93.335 36.1665C93.5509 35.9514 93.7182 35.6959 93.8266 35.4158C93.9349 35.1358 93.982 34.8373 93.9648 34.539C93.973 34.2468 93.9191 33.956 93.8064 33.6845C93.6937 33.4129 93.5246 33.1663 93.3094 32.9596C93.0941 32.7529 92.8373 32.5905 92.5545 32.4822C92.2718 32.374 91.969 32.3223 91.6647 32.3302ZM91.6267 36.2164C91.184 36.2015 90.7652 36.0199 90.4607 35.7109C90.1562 35.4019 89.9905 34.9904 89.9993 34.5651C89.9976 34.3458 90.0424 34.1285 90.131 33.9265C90.2195 33.7244 90.35 33.5418 90.5145 33.3897C90.6789 33.2376 90.8739 33.1193 91.0875 33.0419C91.3011 32.9646 91.5289 32.9298 91.7569 32.9397C92.1697 32.9861 92.5497 33.1781 92.8234 33.4785C93.097 33.7788 93.2447 34.166 93.2379 34.5651C93.2458 34.7753 93.2104 34.9849 93.1336 35.1819C93.0568 35.3789 92.9401 35.5594 92.7903 35.7129C92.6406 35.8664 92.4607 35.9899 92.261 36.0764C92.0612 36.1628 91.8457 36.2104 91.6267 36.2164Z" fill="white"/>
<path fill-rule="evenodd" clip-rule="evenodd" d="M105.724 32.4788C106.009 32.3694 106.314 32.3171 106.62 32.325C106.943 32.322 107.262 32.3843 107.558 32.5078C107.853 32.6313 108.119 32.8133 108.336 33.0419C108.554 33.2704 108.719 33.5404 108.82 33.8343C108.922 34.1282 108.958 34.4393 108.926 34.7474C108.9 35.3149 108.645 35.8504 108.214 36.2397C107.784 36.6289 107.212 36.8412 106.62 36.8312C106.309 36.8403 105.999 36.7872 105.711 36.6753C105.422 36.5634 105.161 36.395 104.944 36.1809C104.726 35.9669 104.558 35.7118 104.448 35.4318C104.339 35.1518 104.292 34.8531 104.309 34.5547C104.3 34.2602 104.353 33.967 104.465 33.6929C104.578 33.4189 104.747 33.1698 104.964 32.961C105.18 32.7522 105.439 32.5881 105.724 32.4788ZM105.426 35.7003C105.725 36.0097 106.138 36.1949 106.577 36.2165H106.566C106.791 36.2191 107.013 36.1771 107.22 36.0931C107.427 36.0091 107.613 35.8849 107.768 35.7283C107.922 35.5717 108.041 35.3862 108.117 35.1833C108.193 34.9804 108.225 34.7646 108.21 34.5495C108.223 34.1527 108.078 33.7662 107.805 33.4682C107.532 33.1702 107.151 32.9831 106.74 32.9449C106.511 32.9313 106.282 32.9631 106.068 33.0384C105.853 33.1137 105.656 33.2308 105.491 33.3825C105.325 33.5341 105.194 33.717 105.106 33.9196C105.017 34.1222 104.973 34.3402 104.977 34.5599C104.966 34.9818 105.127 35.3909 105.426 35.7003Z" fill="white"/>
<path fill-rule="evenodd" clip-rule="evenodd" d="M79.7566 34.445C79.9202 34.3402 80.0509 34.1947 80.135 34.024C80.2191 33.8534 80.2533 33.664 80.234 33.4761C80.234 33.1997 80.1197 32.9347 79.9162 32.7393C79.7128 32.544 79.4368 32.4342 79.1491 32.4342C78.7905 32.417 78.4319 32.4225 78.0608 32.4283C77.8705 32.4312 77.6769 32.4342 77.4783 32.4342C77.3264 32.4342 77.3155 32.4967 77.3209 32.6061V36.5705C77.3209 36.5862 77.3183 36.6039 77.3156 36.6222C77.3049 36.6952 77.2928 36.7767 77.4403 36.7684C78.0936 36.8015 78.7486 36.7823 79.3986 36.7111C79.6758 36.6828 79.9322 36.557 80.1185 36.3579C80.3049 36.1587 80.4078 35.9005 80.4076 35.6328C80.4491 35.3937 80.4079 35.1481 80.2903 34.9337C80.1728 34.7192 79.9853 34.5476 79.7566 34.445ZM78.037 33.0385C78.1156 32.9516 78.2798 32.9715 78.4407 32.991C78.5017 32.9984 78.5622 33.0058 78.6174 33.0072C78.8227 32.976 79.0328 32.9921 79.2304 33.0541C79.3341 33.114 79.4196 33.1989 79.4786 33.3003C79.5376 33.4017 79.568 33.5162 79.5667 33.6324C79.5597 33.7797 79.4978 33.9197 79.3922 34.0268C79.2867 34.1339 79.1445 34.201 78.9917 34.2158H78.1346C78.0207 34.2158 77.9882 34.1793 77.9936 34.0752C77.9972 34.0057 77.996 33.8853 77.9948 33.7649C77.9942 33.7047 77.9936 33.6445 77.9936 33.5907C77.9952 33.5355 77.9907 33.4749 77.9862 33.414C77.9753 33.2677 77.9642 33.1194 78.037 33.0385ZM79.0297 36.1641H78.1726C78.0207 36.1641 77.9828 36.1225 77.9936 35.9922C78.0007 35.9072 77.9985 35.7867 77.9962 35.6554C77.9949 35.5854 77.9936 35.5124 77.9936 35.44C77.9936 35.3809 77.9844 35.3134 77.975 35.244C77.9512 35.069 77.9258 34.8821 78.0424 34.7888C78.1408 34.7101 78.2886 34.7266 78.4441 34.7438C78.5459 34.7551 78.651 34.7668 78.7476 34.7524C78.9309 34.7122 79.123 34.735 79.2905 34.8169C79.4581 34.8987 79.5904 35.0345 79.6644 35.2004C79.7176 35.303 79.7423 35.417 79.7362 35.5315C79.7301 35.646 79.6934 35.757 79.6296 35.8539C79.5658 35.9507 79.4771 36.0302 79.372 36.0845C79.2669 36.1389 79.149 36.1663 79.0297 36.1641Z" fill="white"/>
<path fill-rule="evenodd" clip-rule="evenodd" d="M132.528 34.3098L132.376 34.4296C132.534 34.5081 132.673 34.617 132.785 34.7494C132.896 34.8818 132.978 35.035 133.026 35.1992C133.073 35.3635 133.085 35.5353 133.06 35.7041C133.035 35.8728 132.974 36.0348 132.881 36.18C132.765 36.3632 132.601 36.5134 132.404 36.615C132.208 36.7167 131.987 36.7661 131.763 36.7582H130.136C129.995 36.7634 129.957 36.7217 129.957 36.5863V32.6011C129.957 32.4656 129.995 32.4292 130.136 32.4292H131.736C131.955 32.4212 132.17 32.4765 132.355 32.5881C132.54 32.6996 132.685 32.8621 132.772 33.0543C132.864 33.2636 132.89 33.494 132.846 33.7171C132.803 33.9402 132.692 34.1463 132.528 34.3098ZM131.101 32.9956C130.933 32.9792 130.755 32.9618 130.662 33.0387C130.575 33.1082 130.597 33.2241 130.621 33.3523C130.633 33.4163 130.646 33.4833 130.646 33.5492C130.646 33.6181 130.647 33.6845 130.649 33.748C130.651 33.8667 130.653 33.9751 130.646 34.0701C130.635 34.216 130.684 34.216 130.803 34.216H131.584C131.707 34.213 131.826 34.1725 131.924 34.1004C132.021 34.0283 132.092 33.9283 132.127 33.8149C132.171 33.7018 132.179 33.5791 132.151 33.4616C132.123 33.344 132.06 33.2369 131.97 33.1533C131.828 32.981 131.593 32.9936 131.401 33.0038C131.343 33.0069 131.289 33.0098 131.243 33.0074C131.198 33.0051 131.15 33.0004 131.101 32.9956ZM130.782 36.1643H131.666C131.778 36.1533 131.886 36.1171 131.981 36.0588C132.076 36.0004 132.156 35.9214 132.213 35.8282C132.271 35.735 132.305 35.6301 132.312 35.522C132.32 35.4139 132.301 35.3056 132.257 35.2058C132.078 34.789 131.715 34.7526 131.319 34.7526C131.239 34.7559 131.147 34.7478 131.056 34.7397C130.867 34.7229 130.681 34.7063 130.619 34.7942C130.558 34.8806 130.578 35.0403 130.598 35.2034C130.608 35.2862 130.619 35.37 130.619 35.4454L130.619 35.498L130.62 35.5713L130.621 35.6461C130.624 35.7829 130.626 35.9199 130.619 36.0028C130.608 36.1278 130.646 36.1643 130.782 36.1643Z" fill="white"/>
<path fill-rule="evenodd" clip-rule="evenodd" d="M150.062 32.4291H148.488C148.193 32.4342 147.908 32.5352 147.68 32.7156C147.029 33.2105 147.138 34.5598 147.951 34.8723C148.065 34.9192 148.087 34.9609 148.006 35.0807C147.766 35.4348 147.536 35.8057 147.296 36.1934L147.295 36.1956C147.182 36.3777 147.067 36.5634 146.948 36.7529H147.637C147.674 36.7555 147.71 36.7468 147.741 36.728C147.772 36.7093 147.797 36.6816 147.81 36.6488C147.879 36.5314 147.949 36.4156 148.02 36.2999C148.134 36.1125 148.249 35.925 148.353 35.7319C148.372 35.6984 148.391 35.6646 148.41 35.6308C148.615 35.2646 148.818 34.9016 149.394 35.0495C149.519 35.0495 149.552 35.0807 149.552 35.1953V36.3154C149.552 36.6904 149.552 36.7582 150.035 36.7582C150.181 36.7582 150.219 36.7165 150.214 36.581V32.5958C150.246 32.4552 150.203 32.4291 150.062 32.4291ZM149.519 34.4348C149.413 34.5025 149.256 34.4902 149.093 34.4774C148.98 34.4685 148.864 34.4594 148.76 34.4764C148.627 34.4848 148.493 34.4604 148.373 34.4054C148.252 34.3504 148.149 34.2666 148.071 34.1622C147.994 34.0577 147.946 33.936 147.932 33.8086C147.917 33.6812 147.937 33.5525 147.989 33.4345C148.033 33.3162 148.112 33.2134 148.218 33.1399C148.324 33.0663 148.45 33.0255 148.581 33.023H149.411C149.535 33.023 149.573 33.0543 149.568 33.1689V33.8148C149.568 33.8912 149.58 33.9703 149.592 34.0459C149.617 34.2075 149.639 34.3534 149.535 34.4243L149.519 34.4348Z" fill="white"/>
<path fill-rule="evenodd" clip-rule="evenodd" d="M112.45 34.5139C112.631 34.6964 112.748 34.9294 112.783 35.1794C112.82 35.3702 112.818 35.5663 112.775 35.756C112.732 35.9458 112.65 36.1253 112.533 36.2838C112.436 36.424 112.304 36.5394 112.15 36.6202C111.996 36.7009 111.824 36.7446 111.649 36.7475H109.951C109.777 36.7527 109.777 36.7006 109.777 36.5703V32.6112C109.777 32.4497 109.831 32.4132 109.989 32.4132H112.267C112.435 32.4132 112.473 32.4601 112.473 32.6164L112.473 32.6312C112.468 33.0019 112.468 33.0019 112.061 33.0019H110.618C110.477 32.9967 110.439 33.0383 110.439 33.1738V33.976C110.434 34.0959 110.477 34.1219 110.596 34.1219C110.989 34.1098 111.383 34.1238 111.773 34.1636C112.032 34.2087 112.269 34.3314 112.45 34.5139ZM111.87 36.0212C112.001 35.9188 112.087 35.7724 112.11 35.6118C112.156 35.4351 112.131 35.2481 112.04 35.0885C111.948 34.9289 111.797 34.8087 111.616 34.7522C111.257 34.6984 110.894 34.6827 110.531 34.7054C110.439 34.6949 110.439 34.7731 110.439 34.8356V35.4138C110.439 35.4777 110.44 35.5478 110.441 35.6182C110.444 35.76 110.446 35.9034 110.439 35.9973C110.428 36.138 110.488 36.164 110.623 36.164H111.405C111.573 36.1747 111.74 36.1237 111.87 36.0212Z" fill="white"/>
<path fill-rule="evenodd" clip-rule="evenodd" d="M120.605 36.5967L120.39 36.0297C119.978 34.9474 119.566 33.8639 119.173 32.7729C119.081 32.5177 119 32.3405 118.674 32.4239C118.631 32.4352 118.582 32.43 118.532 32.4247C118.422 32.4129 118.309 32.4009 118.246 32.5698C117.827 33.7203 117.394 34.8622 116.96 36.0073L116.959 36.0109L116.83 36.3518C116.683 36.7477 116.683 36.7477 117.123 36.7477C117.173 36.7451 117.224 36.7451 117.275 36.7477C117.383 36.7477 117.421 36.7477 117.459 36.6175C117.502 36.4845 117.554 36.3535 117.605 36.2223C117.67 36.0555 117.736 35.8883 117.785 35.7163C117.788 35.6858 117.799 35.6565 117.815 35.6301C117.831 35.6038 117.853 35.581 117.88 35.5633C117.906 35.5457 117.935 35.5334 117.967 35.5275C117.998 35.5215 118.03 35.5219 118.061 35.5287H118.718C118.777 35.5287 118.848 35.5225 118.924 35.516C119.126 35.4984 119.36 35.478 119.483 35.5652C119.606 35.6531 119.659 35.859 119.711 36.0592C119.73 36.1315 119.749 36.2035 119.77 36.2685L119.775 36.2829C119.858 36.5332 119.9 36.6597 119.989 36.718C120.079 36.7776 120.217 36.7661 120.496 36.7426C120.62 36.7426 120.671 36.7269 120.605 36.5967ZM118.345 34.1392C118.468 33.8142 118.594 33.484 118.68 33.1272C118.797 33.5616 118.943 33.9655 119.087 34.364C119.157 34.558 119.227 34.7508 119.293 34.9453H118.067C118.143 34.6722 118.243 34.4073 118.345 34.1392Z" fill="white"/>
<path fill-rule="evenodd" clip-rule="evenodd" d="M135.81 32.8094C136.265 34.0736 136.736 35.336 137.22 36.5967C137.288 36.7406 137.235 36.748 137.13 36.7626C137.118 36.7644 137.104 36.7663 137.09 36.7686L137.073 36.7688C136.575 36.7739 136.573 36.7739 136.406 36.305C136.383 36.2351 136.366 36.1593 136.348 36.0832C136.304 35.8928 136.26 35.7007 136.124 35.5965C135.99 35.4935 135.78 35.5152 135.571 35.5368C135.484 35.5458 135.397 35.5548 135.316 35.5548H134.953C134.472 35.5548 134.47 35.56 134.325 35.9721L134.323 35.9768C134.295 36.0573 134.265 36.1371 134.235 36.2168C134.18 36.3639 134.125 36.5106 134.079 36.6592C134.052 36.7478 134.03 36.7738 133.938 36.7738C133.325 36.8051 133.314 36.8051 133.51 36.2841C133.687 35.8023 133.865 35.3213 134.044 34.8409C134.307 34.1317 134.569 33.4237 134.828 32.7157C134.92 32.4604 135.056 32.3614 135.305 32.4604C135.644 32.362 135.711 32.5426 135.795 32.7694L135.81 32.8094ZM134.948 34.2413C134.856 34.4838 134.764 34.7242 134.692 34.9714H135.929C135.857 34.7435 135.773 34.52 135.689 34.2946C135.546 33.9122 135.401 33.5239 135.305 33.1012C135.23 33.5052 135.088 33.8756 134.948 34.2413Z" fill="white"/>
<path fill-rule="evenodd" clip-rule="evenodd" d="M116.682 33.4966C116.65 33.2085 116.51 32.9412 116.289 32.7441C116.068 32.5469 115.78 32.4331 115.478 32.4235C115.117 32.4026 114.755 32.4096 114.393 32.4165C114.212 32.42 114.032 32.4235 113.851 32.4235C113.672 32.4235 113.655 32.486 113.655 32.6319V36.2993C113.655 36.5304 113.655 36.6464 113.714 36.7045C113.773 36.763 113.891 36.763 114.128 36.7629H114.144C114.29 36.7629 114.323 36.7161 114.317 36.5858V35.3199C114.317 35.1793 114.361 35.1428 114.502 35.148H115.516C115.798 35.1469 116.069 35.0404 116.27 34.8511C116.458 34.6805 116.594 34.4653 116.667 34.2273C116.739 33.9894 116.745 33.7372 116.682 33.4966ZM115.76 34.3926C115.591 34.5305 115.375 34.6046 115.153 34.601C115.069 34.601 114.978 34.61 114.887 34.619C114.675 34.6399 114.463 34.6607 114.35 34.5698C114.244 34.4849 114.262 34.2895 114.28 34.0959C114.29 33.9924 114.3 33.8893 114.29 33.804C114.286 33.7646 114.28 33.7212 114.273 33.6755C114.24 33.4375 114.199 33.1396 114.344 33.0434C114.465 32.9641 114.678 32.9771 114.905 32.9909C115.005 32.997 115.108 33.0033 115.207 33.0017C115.364 32.9863 115.521 33.0194 115.657 33.0963C115.793 33.1732 115.899 33.2897 115.961 33.4289C116.033 33.5883 116.055 33.7645 116.024 33.9357C115.993 34.1069 115.911 34.2658 115.787 34.3926H115.76Z" fill="white"/>
</svg>
