<svg width="267" height="48" viewBox="0 0 267 48" fill="none" xmlns="http://www.w3.org/2000/svg">
<path d="M186.575 22.8139H195.396C196.033 22.8139 196.523 23.3691 196.523 23.9748C196.523 24.6309 196.033 25.1356 195.396 25.1356H186.575V32.8076H198.19C198.778 32.8076 199.317 33.3627 199.317 33.9684C199.317 34.6246 198.778 35.1294 198.19 35.1294H185.448C184.86 35.1294 184.37 34.6246 184.37 33.9684V13.9811C184.37 13.3754 184.86 12.8202 185.448 12.8202H198.19C198.778 12.8202 199.317 13.3754 199.317 13.9811C199.317 14.6372 198.778 15.142 198.19 15.142H186.575V22.8139ZM247.195 1.71609C246.901 1.16088 247.097 0.454259 247.636 0.15142C248.175 -0.15142 248.861 0.0504732 249.155 0.605678L261.701 23.4196C261.897 23.7729 261.897 24.2271 261.701 24.5804L248.861 47.3943C248.665 47.7477 248.322 48 247.93 48H238.031C237.394 48 236.904 47.4448 236.904 46.8391C236.904 46.5867 236.953 46.3344 237.1 46.183L249.499 23.9748L237.394 2.32176H230.043L241.902 23.4196C242.098 23.7729 242.098 24.2271 241.902 24.5804L229.112 47.3943C228.769 47.9495 228.083 48.1514 227.544 47.7981C227.005 47.4953 226.857 46.7887 227.152 46.2335L239.648 23.9748L227.201 1.81703C227.054 1.61514 227.005 1.41325 227.005 1.16088C227.005 0.504732 227.495 0 228.132 0H238.031C238.423 0 238.766 0.201893 238.962 0.555205L251.801 23.4196C251.998 23.7729 251.998 24.1766 251.801 24.5804L239.942 45.6782H247.244L259.397 23.9748L247.195 1.71609ZM207.305 28.8707V33.9684C207.305 34.6246 206.815 35.1294 206.178 35.1294C205.54 35.1294 205.051 34.6246 205.051 33.9684V13.9811C205.051 13.3754 205.54 12.8202 206.178 12.8202H212.548C216.812 12.8202 220.34 16.4543 220.34 20.8454C220.34 25.2366 216.812 28.8707 212.548 28.8707H207.305ZM137.276 13.9811C137.276 13.3754 137.766 12.8202 138.403 12.8202C139.04 12.8202 139.53 13.3754 139.53 13.9811V30.6877L152.958 13.2745C153.349 12.7697 154.035 12.6688 154.526 13.0726C154.82 13.3249 154.967 13.6783 154.967 13.9811V33.9684C154.967 34.6246 154.477 35.1294 153.84 35.1294C153.203 35.1294 152.712 34.6246 152.712 33.9684V17.3123L139.334 34.6246C139.138 34.9274 138.795 35.1294 138.403 35.1294C137.766 35.1294 137.276 34.6246 137.276 33.9684V13.9811ZM116.057 34.4227C115.861 35.0284 115.175 35.2807 114.586 35.0284C114.048 34.776 113.753 34.1199 113.998 33.5142L122.378 13.5268C122.623 12.9716 123.31 12.6688 123.848 12.9211C124.142 13.0726 124.338 13.2745 124.437 13.5268L132.817 33.5142C133.062 34.1199 132.817 34.776 132.228 35.0284C131.64 35.2807 131.003 35.0284 130.758 34.4227L123.407 16.9085L116.057 34.4227ZM161.583 32.8076L166.924 13.6783C167.071 13.1735 167.512 12.8202 168.002 12.8202H176.186C176.774 12.8202 177.313 13.3754 177.313 13.9811V32.8076H178.931C179.568 32.8076 180.058 33.3627 180.058 33.9684V38.5615C180.058 39.2177 179.568 39.7224 178.931 39.7224C178.342 39.7224 177.804 39.2177 177.804 38.5615V35.1294H161.141V38.5615C161.141 39.2177 160.651 39.7224 160.014 39.7224C159.427 39.7224 158.887 39.2177 158.887 38.5615V33.9684C158.887 33.3627 159.427 32.8076 160.014 32.8076H161.583ZM168.835 15.142L163.935 32.8076H175.059V15.142H168.835ZM218.086 20.8454C218.086 17.7161 215.586 15.142 212.548 15.142H207.305V26.5489H212.548C215.586 26.5489 218.086 23.9748 218.086 20.8454Z" fill="#4ED0C8"/>
<path d="M101.94 15.5271C101.94 14.4254 102.984 13.5 104.227 13.5C105.52 13.5 106.514 14.4254 106.514 15.5271V30.9508C106.514 32.0966 105.52 32.978 104.227 32.978C103.482 32.978 102.835 32.6695 102.387 32.1848L91.6962 20.9915V30.9508C91.6962 32.0966 90.6516 32.978 89.4088 32.978C88.1155 32.978 87.1214 32.0966 87.1214 30.9508V15.5271C87.1214 14.9542 87.3701 14.3813 87.9167 13.9847C88.8616 13.2796 90.3038 13.3678 91.1489 14.2051L101.94 25.4864V15.5271ZM45.301 15.5271C45.301 14.4254 46.3453 13.5 47.5884 13.5H55.2961C57.0365 13.5 58.6775 14.161 59.8212 15.1745C61.0146 16.2322 61.7108 17.6423 61.7108 19.2288C61.7108 20.5508 61.2135 21.7407 60.3682 22.7101C61.6114 23.8118 62.3573 25.3102 62.3573 26.9407C62.3573 28.6153 61.5616 30.1135 60.3682 31.2152C59.125 32.3169 57.4343 32.978 55.5447 32.978H47.5884C46.3453 32.978 45.301 32.0966 45.301 30.9508V15.5271ZM49.8759 17.5542V20.9034H55.2961C55.7934 20.9034 56.2906 20.7271 56.589 20.4186C56.9371 20.1102 57.1857 19.7135 57.1857 19.2288C57.1857 18.7881 56.9371 18.3474 56.589 18.039C56.2906 17.7305 55.7934 17.5542 55.2961 17.5542H49.8759ZM49.8759 24.9576V28.9678H55.5447C56.1415 28.9678 56.7382 28.7034 57.1359 28.3509C57.5338 27.9983 57.7824 27.5136 57.7824 26.9407C57.7824 26.4119 57.5338 25.8831 57.1359 25.5305C56.7382 25.1779 56.1415 24.9576 55.5447 24.9576H49.8759ZM83.7894 30.1576C84.2868 31.1712 83.7894 32.361 82.5958 32.8017C81.4521 33.2424 80.1097 32.8017 79.6123 31.7881L78.6182 29.6729H69.7168L68.6725 31.7881C68.1753 32.8017 66.8327 33.2424 65.689 32.8017C64.5453 32.361 63.9982 31.1712 64.4955 30.1576L66.0371 27.0288C66.0868 26.8966 66.1365 26.7644 66.2359 26.6763L72.0539 14.7339C72.3026 14.2932 72.7004 13.8966 73.2474 13.6762C74.3912 13.2355 75.7337 13.7203 76.2311 14.7339L82.0985 26.6763C82.1483 26.7644 82.1982 26.8966 82.2481 27.0288L83.7894 30.1576ZM76.6287 25.6187L74.1425 20.5949L71.7058 25.6187H76.6287ZM33.3666 13.5C35.6043 13.5 37.6928 14.3372 39.1846 15.6593C40.6764 16.9813 41.6212 18.8322 41.6212 20.8593C41.6212 22.8864 40.6764 24.6932 39.1846 26.0593C38.737 26.456 38.1901 26.8085 37.5934 27.1169L40.3283 29.5407C41.1737 30.3339 41.1737 31.6119 40.2786 32.4051C39.3835 33.1983 37.9415 33.1983 37.0464 32.4051L32.4218 28.1745H28.9907V30.9508C28.9907 32.0966 27.9961 32.978 26.7032 32.978C25.4601 32.978 24.4655 32.0966 24.4655 30.9508V15.5271C24.4655 14.4254 25.4601 13.5 26.7032 13.5H33.3666ZM35.9524 18.5237C35.306 17.9068 34.3612 17.5542 33.3666 17.5542H28.9907V24.1644H33.3666C34.3612 24.1644 35.306 23.7678 35.9524 23.1949C36.6486 22.578 37.0464 21.7407 37.0464 20.8593C37.0464 19.9339 36.6486 19.1407 35.9524 18.5237ZM15.4152 15.5271C15.4152 14.4254 16.4595 13.5 17.7027 13.5C18.9956 13.5 19.9901 14.4254 19.9901 15.5271V24.1203C19.9901 26.5881 18.8961 28.7915 17.0562 30.3779C15.2661 32.0084 12.73 32.978 9.99507 32.978C7.2601 32.978 4.72403 32.0084 2.93388 30.3779C1.14371 28.7915 0 26.5881 0 24.1203V15.5271C0 14.4254 1.04426 13.5 2.28742 13.5C3.53059 13.5 4.57486 14.4254 4.57486 15.5271V24.1203C4.57486 25.4423 5.17158 26.6763 6.16611 27.5136C7.16064 28.3949 8.50329 28.9678 9.99507 28.9678C11.4869 28.9678 12.8295 28.3949 13.824 27.5136C14.8185 26.6763 15.4152 25.4423 15.4152 24.1203V15.5271Z" fill="white"/>
</svg>
