<svg width="133" height="24" viewBox="0 0 133 24" fill="none" xmlns="http://www.w3.org/2000/svg">
<path d="M93.1877 11.4069H97.5934C97.9115 11.4069 98.1563 11.6845 98.1563 11.9874C98.1563 12.3155 97.9115 12.5678 97.5934 12.5678H93.1877V16.4038H98.9887C99.2822 16.4038 99.5516 16.6814 99.5516 16.9842C99.5516 17.3123 99.2822 17.5647 98.9887 17.5647H92.6247C92.3312 17.5647 92.0863 17.3123 92.0863 16.9842V6.99055C92.0863 6.68771 92.3312 6.41008 92.6247 6.41008H98.9887C99.2822 6.41008 99.5516 6.68771 99.5516 6.99055C99.5516 7.31862 99.2822 7.57098 98.9887 7.57098H93.1877V11.4069ZM123.465 0.858045C123.318 0.580441 123.416 0.227129 123.685 0.0757098C123.954 -0.0757098 124.297 0.0252366 124.444 0.302839L130.71 11.7098C130.808 11.8864 130.808 12.1136 130.71 12.2902L124.297 23.6972C124.199 23.8738 124.028 24 123.832 24H118.888C118.57 24 118.325 23.7224 118.325 23.4196C118.325 23.2934 118.349 23.1672 118.423 23.0915L124.615 11.9874L118.57 1.16088H114.898L120.821 11.7098C120.919 11.8864 120.919 12.1136 120.821 12.2902L114.433 23.6972C114.262 23.9748 113.919 24.0757 113.65 23.8991C113.381 23.7476 113.307 23.3943 113.454 23.1167L119.696 11.9874L113.479 0.908516C113.405 0.807572 113.381 0.706624 113.381 0.580441C113.381 0.252366 113.626 0 113.944 0H118.888C119.084 0 119.255 0.100946 119.353 0.277602L125.766 11.7098C125.864 11.8864 125.864 12.0883 125.766 12.2902L119.843 22.8391H123.49L129.56 11.9874L123.465 0.858045ZM103.541 14.4353V16.9842C103.541 17.3123 103.296 17.5647 102.978 17.5647C102.66 17.5647 102.415 17.3123 102.415 16.9842V6.99055C102.415 6.68771 102.66 6.41008 102.978 6.41008H106.16C108.29 6.41008 110.052 8.22713 110.052 10.4227C110.052 12.6183 108.29 14.4353 106.16 14.4353H103.541ZM68.5643 6.99055C68.5643 6.68771 68.8091 6.41008 69.1273 6.41008C69.4454 6.41008 69.6902 6.68771 69.6902 6.99055V15.3439L76.3968 6.63723C76.5925 6.38487 76.9352 6.33439 77.18 6.53629C77.327 6.66247 77.4003 6.83913 77.4003 6.99055V16.9842C77.4003 17.3123 77.1555 17.5647 76.8373 17.5647C76.5192 17.5647 76.2744 17.3123 76.2744 16.9842V8.65615L69.5923 17.3123C69.4945 17.4637 69.3233 17.5647 69.1273 17.5647C68.8091 17.5647 68.5643 17.3123 68.5643 16.9842V6.99055ZM57.9662 17.2114C57.8683 17.5142 57.5257 17.6404 57.2317 17.5142C56.9627 17.388 56.8158 17.0599 56.9382 16.7571L61.1236 6.7634C61.246 6.48581 61.5887 6.33439 61.8577 6.46056C62.0047 6.53629 62.1025 6.63723 62.1516 6.7634L66.3371 16.7571C66.4595 17.0599 66.3371 17.388 66.0431 17.5142C65.7496 17.6404 65.4315 17.5142 65.309 17.2114L61.6374 8.45424L57.9662 17.2114ZM80.7047 16.4038L83.3728 6.83913C83.4461 6.58674 83.6663 6.41008 83.9112 6.41008H87.9988C88.2923 6.41008 88.5617 6.68771 88.5617 6.99055V16.4038H89.3695C89.6876 16.4038 89.9324 16.6814 89.9324 16.9842V19.2808C89.9324 19.6088 89.6876 19.8612 89.3695 19.8612C89.0755 19.8612 88.8065 19.6088 88.8065 19.2808V17.5647H80.4844V19.2808C80.4844 19.6088 80.2396 19.8612 79.9214 19.8612C79.6279 19.8612 79.3585 19.6088 79.3585 19.2808V16.9842C79.3585 16.6814 79.6279 16.4038 79.9214 16.4038H80.7047ZM84.3271 7.57098L81.8797 16.4038H87.4358V7.57098H84.3271ZM108.926 10.4227C108.926 8.85805 107.678 7.57098 106.16 7.57098H103.541V13.2745H106.16C107.678 13.2745 108.926 11.9874 108.926 10.4227Z" fill="#4ED0C8"/>
<path d="M50.9151 7.76354C50.9151 7.21269 51.4368 6.75 52.0575 6.75C52.7035 6.75 53.2 7.21269 53.2 7.76354V15.4754C53.2 16.0483 52.7035 16.489 52.0575 16.489C51.6853 16.489 51.3621 16.3347 51.1386 16.0924L45.7989 10.4957V15.4754C45.7989 16.0483 45.2771 16.489 44.6564 16.489C44.0105 16.489 43.514 16.0483 43.514 15.4754V7.76354C43.514 7.4771 43.6382 7.19065 43.9112 6.99237C44.3831 6.6398 45.1035 6.68388 45.5256 7.10253L50.9151 12.7432V7.76354ZM22.6262 7.76354C22.6262 7.21269 23.1478 6.75 23.7687 6.75H27.6184C28.4877 6.75 29.3073 7.08049 29.8785 7.58726C30.4746 8.1161 30.8223 8.82116 30.8223 9.6144C30.8223 10.2754 30.5739 10.8703 30.1517 11.3551C30.7726 11.9059 31.1452 12.6551 31.1452 13.4703C31.1452 14.3076 30.7478 15.0568 30.1517 15.6076C29.5308 16.1585 28.6863 16.489 27.7425 16.489H23.7687C23.1478 16.489 22.6262 16.0483 22.6262 15.4754V7.76354ZM24.9112 8.77711V10.4517H27.6184C27.8668 10.4517 28.1151 10.3635 28.2641 10.2093C28.438 10.0551 28.5622 9.85677 28.5622 9.6144C28.5622 9.39405 28.438 9.17372 28.2641 9.01948C28.1151 8.86524 27.8668 8.77711 27.6184 8.77711H24.9112ZM24.9112 12.4788V14.4839H27.7425C28.0406 14.4839 28.3386 14.3517 28.5373 14.1754C28.736 13.9992 28.8602 13.7568 28.8602 13.4703C28.8602 13.2059 28.736 12.9415 28.5373 12.7653C28.3386 12.589 28.0406 12.4788 27.7425 12.4788H24.9112ZM41.8498 15.0788C42.0982 15.5856 41.8498 16.1805 41.2536 16.4008C40.6824 16.6212 40.0119 16.4008 39.7634 15.8941L39.2669 14.8364H34.821L34.2994 15.8941C34.0511 16.4008 33.3805 16.6212 32.8092 16.4008C32.238 16.1805 31.9648 15.5856 32.2132 15.0788L32.9831 13.5144C33.0079 13.4483 33.0327 13.3822 33.0824 13.3381L35.9883 7.36693C36.1125 7.14661 36.3112 6.94829 36.5844 6.83812C37.1557 6.61777 37.8262 6.86016 38.0746 7.36693L41.0052 13.3381C41.0301 13.3822 41.055 13.4483 41.0799 13.5144L41.8498 15.0788ZM38.2732 12.8093L37.0315 10.2975L35.8145 12.8093H38.2732ZM16.6654 6.75C17.7831 6.75 18.8262 7.16861 19.5713 7.82966C20.3164 8.49067 20.7883 9.41609 20.7883 10.4297C20.7883 11.4432 20.3164 12.3466 19.5713 13.0297C19.3477 13.228 19.0746 13.4042 18.7765 13.5585L20.1425 14.7703C20.5648 15.1669 20.5648 15.8059 20.1177 16.2025C19.6706 16.5992 18.9504 16.5992 18.5033 16.2025L16.1935 14.0873H14.4798V15.4754C14.4798 16.0483 13.983 16.489 13.3373 16.489C12.7164 16.489 12.2196 16.0483 12.2196 15.4754V7.76354C12.2196 7.21269 12.7164 6.75 13.3373 6.75H16.6654ZM17.9569 9.26184C17.6341 8.95339 17.1622 8.77711 16.6654 8.77711H14.4798V12.0822H16.6654C17.1622 12.0822 17.6341 11.8839 17.9569 11.5974C18.3046 11.289 18.5033 10.8703 18.5033 10.4297C18.5033 9.96693 18.3046 9.57033 17.9569 9.26184ZM7.69935 7.76354C7.69935 7.21269 8.22093 6.75 8.84185 6.75C9.48761 6.75 9.98435 7.21269 9.98435 7.76354V12.0602C9.98435 13.2941 9.43792 14.3958 8.51897 15.189C7.62486 16.0042 6.35818 16.489 4.99217 16.489C3.62615 16.489 2.35948 16.0042 1.46536 15.189C0.571242 14.3958 0 13.2941 0 12.0602V7.76354C0 7.21269 0.521568 6.75 1.14248 6.75C1.7634 6.75 2.28497 7.21269 2.28497 7.76354V12.0602C2.28497 12.7212 2.58301 13.3381 3.07975 13.7568C3.57648 14.1974 4.24708 14.4839 4.99217 14.4839C5.73727 14.4839 6.40787 14.1974 6.90461 13.7568C7.40131 13.3381 7.69935 12.7212 7.69935 12.0602V7.76354Z" fill="#2B2015"/>
</svg>
