<svg width="1280" height="312" viewBox="0 0 1280 312" fill="none" xmlns="http://www.w3.org/2000/svg">
<g filter="url(#filter0_d_3172_24888)">
<rect y="6" width="1280" height="296" fill="#D2F3F0"/>
</g>
<g clip-path="url(#clip0_3172_24888)">
<g opacity="0.3" clip-path="url(#clip1_3172_24888)">
<g opacity="0.9" clip-path="url(#clip2_3172_24888)">
<path opacity="0.5" d="M1908.91 -579.212L690.032 639.665C661.63 668.067 615.582 668.067 587.18 639.665L-631.697 -579.212L1908.91 -579.212Z" fill="#4ED0C8"/>
<path opacity="0.5" d="M1724.93 -501.637L694.142 529.154C665.74 557.556 619.692 557.556 591.29 529.154L-439.501 -501.637L1724.93 -501.637Z" fill="#4ED0C8"/>
<path opacity="0.7" d="M1508.49 -390.121L694.141 424.226C665.739 452.628 619.691 452.628 591.289 424.226L-223.058 -390.121L1508.49 -390.121Z" fill="#4ED0C8"/>
<path opacity="0.5" d="M1302.87 -288.303L694.141 320.423C665.739 348.825 619.691 348.825 591.289 320.423L-17.4373 -288.303L1302.87 -288.303Z" fill="#4ED0C8"/>
</g>
</g>
</g>
<defs>
<filter id="filter0_d_3172_24888" x="-8" y="0" width="1296" height="312" filterUnits="userSpaceOnUse" color-interpolation-filters="sRGB">
<feFlood flood-opacity="0" result="BackgroundImageFix"/>
<feColorMatrix in="SourceAlpha" type="matrix" values="0 0 0 0 0 0 0 0 0 0 0 0 0 0 0 0 0 0 127 0" result="hardAlpha"/>
<feOffset dy="2"/>
<feGaussianBlur stdDeviation="4"/>
<feColorMatrix type="matrix" values="0 0 0 0 0 0 0 0 0 0 0 0 0 0 0 0 0 0 0.2 0"/>
<feBlend mode="normal" in2="BackgroundImageFix" result="effect1_dropShadow_3172_24888"/>
<feBlend mode="normal" in="SourceGraphic" in2="effect1_dropShadow_3172_24888" result="shape"/>
</filter>
<clipPath id="clip0_3172_24888">
<rect width="1280" height="296" fill="white" transform="translate(0 6)"/>
</clipPath>
<clipPath id="clip1_3172_24888">
<rect width="3632" height="1288" fill="white" transform="translate(1288 -2970) rotate(90)"/>
</clipPath>
<clipPath id="clip2_3172_24888">
<rect width="950.303" height="1318.79" fill="white" transform="translate(1288 -288.303) rotate(90)"/>
</clipPath>
</defs>
</svg>
