<svg width="356" height="272" viewBox="0 0 356 272" fill="none" xmlns="http://www.w3.org/2000/svg">
<g clip-path="url(#clip0_3496_27264)">
<path opacity="0.3" d="M207 0L331.55 124.546C337.408 130.404 337.408 139.901 331.55 145.759L207 272H227L351.55 145.759C357.408 139.901 357.408 130.404 351.55 124.546L227 0H207Z" fill="#4ED0C8"/>
<path opacity="0.5" d="M187 0L311.55 124.546C317.408 130.404 317.408 139.901 311.55 145.759L187 272H207L331.55 145.759C337.408 139.901 337.408 130.404 331.55 124.546L207 0H187Z" fill="#4ED0C8"/>
<path opacity="0.7" d="M167 0L291.55 124.546C297.408 130.404 297.408 139.901 291.55 145.759L167 272H187L311.55 145.759C317.408 139.901 317.408 130.404 311.55 124.546L187 0H167Z" fill="#4ED0C8"/>
<path opacity="0.87" d="M291.55 124.546L167 0H0V272H167L291.55 145.759C297.408 139.901 297.408 130.404 291.55 124.546Z" fill="#4ED0C8"/>
</g>
<defs>
<clipPath id="clip0_3496_27264">
<rect width="356" height="272" fill="white"/>
</clipPath>
</defs>
</svg>
