<svg width="400" height="272" viewBox="0 0 400 272" fill="none" xmlns="http://www.w3.org/2000/svg">
<g clip-path="url(#clip0_3172_17437)">
<path opacity="0.87" d="M0 8.00001C0 3.58173 3.58172 0 8 0H204V272H8C3.58172 272 0 268.418 0 264V8.00001Z" fill="#008981"/>
<g opacity="0.9" clip-path="url(#clip1_3172_17437)">
<path opacity="0.5" d="M144 -126L395.393 125.393C401.251 131.251 401.251 140.749 395.393 146.607L144 398V-126Z" fill="#008981"/>
<path opacity="0.5" d="M160 -88.0548L372.601 124.546C378.458 130.404 378.458 139.901 372.601 145.759L160 358.36V-88.0548Z" fill="#008981"/>
<path opacity="0.7" d="M183 -43.4133L350.959 124.546C356.817 130.404 356.817 139.901 350.959 145.759L183 313.718V-43.4133Z" fill="#008981"/>
<path opacity="0.5" d="M204 -1.00397L329.55 124.546C335.408 130.404 335.408 139.901 329.55 145.759L204 271.309V-1.00397Z" fill="#008981"/>
</g>
</g>
<defs>
<clipPath id="clip0_3172_17437">
<rect width="400" height="272" rx="8" fill="white"/>
</clipPath>
<clipPath id="clip1_3172_17437">
<rect width="196" height="272" fill="white" transform="translate(204)"/>
</clipPath>
</defs>
</svg>
