<svg width="400" height="272" viewBox="0 0 400 272" fill="none" xmlns="http://www.w3.org/2000/svg">
<g clip-path="url(#clip0_3509_27316)">
<path opacity="0.3" d="M251 0L375.55 124.546C381.408 130.404 381.408 139.901 375.55 145.759L251 272H271L395.55 145.759C401.408 139.901 401.408 130.404 395.55 124.546L271 0H251Z" fill="#008981"/>
<path opacity="0.5" d="M231 0L355.55 124.546C361.408 130.404 361.408 139.901 355.55 145.759L231 272H251L375.55 145.759C381.408 139.901 381.408 130.404 375.55 124.546L251 0H231Z" fill="#008981"/>
<path opacity="0.7" d="M211 0L335.55 124.546C341.408 130.404 341.408 139.901 335.55 145.759L211 272H231L355.55 145.759C361.408 139.901 361.408 130.404 355.55 124.546L231 0H211Z" fill="#008981"/>
<path opacity="0.87" d="M335.55 124.546L211 0H0V272H211L335.55 145.759C341.408 139.901 341.408 130.404 335.55 124.546Z" fill="#008981"/>
</g>
<defs>
<clipPath id="clip0_3509_27316">
<rect width="400" height="272" fill="white"/>
</clipPath>
</defs>
</svg>
