<svg width="24" height="24" viewBox="0 0 24 24" fill="none" xmlns="http://www.w3.org/2000/svg">
<path fill-rule="evenodd" clip-rule="evenodd" d="M12 24C18.6274 24 24 18.6274 24 12C24 5.37258 18.6274 0 12 0C5.37258 0 0 5.37258 0 12C0 18.6274 5.37258 24 12 24ZM11.9993 21.253C17.1096 21.253 21.2523 17.1103 21.2523 12C21.2523 6.88973 17.1096 2.74701 11.9993 2.74701C6.88904 2.74701 2.74632 6.88973 2.74632 12C2.74632 17.1103 6.88904 21.253 11.9993 21.253Z" fill="#D9D9D9"/>
<path fill-rule="evenodd" clip-rule="evenodd" d="M11.9979 2.74701C11.9984 2.74701 11.9988 2.74701 11.9993 2.74701C17.1096 2.74701 21.2523 6.88973 21.2523 12C21.2523 17.1103 17.1096 21.253 11.9993 21.253C9.55503 21.253 7.3321 20.3053 5.67797 18.7572L3.61719 20.5865C5.78018 22.6985 8.7381 24 12 24C18.6274 24 24 18.6274 24 12C24 5.37258 18.6274 0 12 0C11.9993 0 11.9986 6.07028e-08 11.9979 1.82104e-07V2.74701Z" fill="#FAB839"/>
<path d="M16 8.81158C16 9.81198 15.3283 10.6232 14.5 10.6232C13.6717 10.6232 13 9.81198 13 8.81158C13 7.81117 13.6717 7 14.5 7C15.3283 7 16 7.81117 16 8.81158Z" fill="black"/>
<path d="M11 8.81158C11 9.81198 10.3283 10.6232 9.5 10.6232C8.67166 10.6232 8 9.81198 8 8.81158C8 7.81117 8.67166 7 9.5 7C10.3283 7 11 7.81117 11 8.81158Z" fill="black"/>
<path d="M17.6182 13.4209C17.444 13.3405 17.2365 13.3189 17.0421 13.3607C16.8475 13.4025 16.682 13.5044 16.5823 13.6439C15.6361 14.9472 13.8896 15.75 11.9995 15.75C10.1094 15.75 8.36286 14.9472 7.41675 13.6439C7.28171 13.4567 7.03154 13.341 6.76043 13.3406C6.48917 13.3401 6.2385 13.4549 6.10242 13.6418C5.96637 13.8286 5.96586 14.0591 6.1009 14.2463C6.90017 15.3524 8.16364 16.1983 9.66901 16.6353C11.1742 17.0722 12.8247 17.0722 14.33 16.6353C15.8354 16.1983 17.0988 15.3523 17.8981 14.2463C17.999 14.1074 18.0264 13.9421 17.9739 13.7872C17.9212 13.6323 17.7933 13.5005 17.6182 13.4209Z" fill="black"/>
</svg>
