<svg width="344" height="168" viewBox="0 0 344 168" fill="none" xmlns="http://www.w3.org/2000/svg">
<path d="M62.3638 50.6378C59.6639 49.7415 56.7705 49.3206 53.9602 49.4077C50.5841 49.5092 47.2948 50.1963 44.097 51.258C39.6786 52.7136 35.4294 54.869 31.3484 57.134C-6.62993 78.2554 -36.8124 110.782 -65.813 143.186C-71.3738 149.399 -76.9601 155.671 -83.5941 160.71L-113.998 149.622C-107.364 144.583 -101.773 138.309 -96.2173 132.098C-67.2132 99.6956 -37.0308 67.1691 0.94404 46.0463C7.97532 42.1357 15.5216 38.5693 23.5559 38.32C26.3697 38.2343 29.2595 38.6538 31.9594 39.5501L62.3638 50.6378V50.6378Z" fill="white"/>
<path d="M188.024 193.188L158.746 189.852C157.705 189.772 156.667 189.522 155.645 189.077C149.539 186.418 148.063 178.465 148.026 171.769C147.869 141.452 159.849 111.795 157.847 81.5494C157.782 80.6067 157.707 79.6588 157.604 78.7152C160.526 75.068 163.743 71.7004 167.404 68.764C169.275 67.2664 171.314 65.8659 173.643 65.337C174.304 65.1869 174.975 65.1103 175.64 65.109C176.052 65.1067 176.468 65.1316 176.874 65.1818C177.28 65.232 177.704 65.3111 178.115 65.415C181.334 66.2121 184.273 68.5021 186.112 71.3551C188.778 75.4958 189.539 80.5789 189.867 85.5095C191.804 114.782 180.647 143.499 180.072 172.799C180.05 173.773 180.042 174.753 180.05 175.73C180.083 182.425 181.563 190.379 187.669 193.037C187.791 193.09 187.91 193.139 188.032 193.185L188.024 193.188Z" fill="#231F20"/>
<path d="M51.6033 199.87L25.4908 190.347C17.5845 188.69 11.9557 181.205 10.0438 173.356C5.59302 155.106 13.6572 135.431 21.214 119.201C29.327 101.775 39.0183 84.8204 43.4201 66.1053C44.5715 61.2127 45.3189 55.9565 43.942 51.1876C47.1415 50.1348 50.4271 49.45 53.8046 49.3476C56.615 49.2627 59.5089 49.685 62.2096 50.5817L63.5282 51.0626C67.9791 52.838 71.7813 55.9753 73.6667 60.3487C75.9265 65.5959 75.1395 71.6309 73.8311 77.1954C69.4257 95.9092 59.7393 112.861 51.6251 130.291C44.0695 146.518 36.0053 166.193 40.4548 184.446C40.6671 185.325 40.9317 186.202 41.235 187.062C43.1346 192.418 46.7484 197.302 51.602 199.873L51.6033 199.87Z" fill="#231F20"/>
<path d="M176.851 65.1792C176.444 65.1288 176.026 65.1037 175.613 65.1056C174.945 65.1064 174.273 65.1785 173.61 65.3313C171.274 65.8567 169.228 67.2513 167.353 68.7426C163.681 71.667 160.457 75.0217 157.528 78.6553C151.648 85.9462 146.967 94.3398 142.289 102.514C133.094 118.588 123.438 134.399 113.337 149.917C105.875 161.387 97.0519 182.362 80.9335 182.679C79.379 182.71 77.8568 182.511 76.3889 182.117C71.0815 180.703 66.462 176.761 63.4067 171.974C70.9826 164.764 76.381 153.365 81.2115 145.944C91.3125 130.426 100.965 114.614 110.156 98.5402C117.161 86.2941 124.18 73.5575 135.223 64.7689C137.099 63.2776 139.14 61.8825 141.48 61.3576C142.553 61.1153 143.642 61.0757 144.71 61.2078L176.847 65.1824L176.851 65.1792Z" fill="white"/>
<path d="M344 0L336.021 19.9475H325.815C304.365 29.5265 289.97 48.3485 276.718 67.6241C263.467 86.8997 254.578 108.842 248.107 131.275C241.712 153.449 237.375 176.764 224.835 196.187C221.57 201.239 216.645 206.349 211.122 207.672H211.114C209.373 208.088 207.573 208.13 205.748 207.672C205.604 207.634 205.464 207.601 205.32 207.559C198.108 205.455 195.351 196.867 194.381 189.472C194.237 188.392 194.114 187.309 194 186.23C202.428 169.067 206.332 149.77 211.668 131.275C218.135 108.842 227.025 86.8997 240.276 67.6241C253.527 48.3485 268.684 26.1249 290.131 16.5417H275.918L344 0Z" fill="white"/>
</svg>
