<svg width="1280" height="720" viewBox="0 0 1280 720" fill="none" xmlns="http://www.w3.org/2000/svg">
<g clip-path="url(#clip0_3339_23724)">
<path d="M252.046 432.782C243.687 430.007 234.729 428.704 226.027 428.974C215.574 429.288 205.39 431.415 195.489 434.703C181.809 439.209 168.653 445.883 156.018 452.896C38.431 518.291 -55.0186 618.998 -144.809 719.324C-162.026 738.561 -179.322 757.981 -199.862 773.582L-293.998 739.253C-273.459 723.651 -256.148 704.225 -238.945 684.995C-149.144 584.673 -55.6947 483.966 61.8811 418.566C83.6511 406.458 107.016 395.417 131.891 394.645C140.603 394.379 149.55 395.678 157.91 398.453L252.046 432.782V432.782Z" fill="white"/>
<path d="M641.117 874.139L550.466 863.81C547.244 863.564 544.029 862.79 540.866 861.411C521.961 853.179 517.391 828.556 517.276 807.825C516.789 713.956 553.882 622.135 547.682 528.49C547.481 525.571 547.248 522.636 546.931 519.715C555.978 508.422 565.936 497.996 577.274 488.904C583.065 484.267 589.38 479.931 596.59 478.293C598.636 477.829 600.713 477.592 602.772 477.588C604.048 477.581 605.337 477.658 606.593 477.813C607.849 477.968 609.164 478.213 610.435 478.535C620.401 481.003 629.503 488.093 635.196 496.926C643.449 509.747 645.807 525.485 646.82 540.751C652.82 631.384 618.274 720.296 616.495 811.014C616.426 814.029 616.402 817.061 616.426 820.087C616.529 840.817 621.111 865.442 640.016 873.673C640.393 873.838 640.761 873.989 641.141 874.13L641.117 874.139Z" fill="#231F20"/>
<path d="M218.732 894.827L137.883 865.344C113.404 860.213 95.9766 837.037 90.0573 812.737C76.2769 756.233 101.245 695.316 124.642 645.064C149.761 591.111 179.767 538.617 193.395 480.672C196.96 465.524 199.274 449.25 195.011 434.485C204.917 431.225 215.09 429.105 225.547 428.788C234.249 428.525 243.209 429.832 251.571 432.609L255.653 434.098C269.434 439.594 281.206 449.308 287.044 462.849C294.04 479.095 291.603 497.78 287.553 515.009C273.913 572.95 243.922 625.436 218.799 679.4C195.406 729.641 170.438 790.559 184.214 847.073C184.872 849.794 185.691 852.511 186.63 855.173C192.511 871.757 203.7 886.877 218.728 894.838L218.732 894.827Z" fill="#231F20"/>
<path d="M606.523 477.805C605.262 477.649 603.969 477.571 602.689 477.577C600.623 477.579 598.541 477.802 596.487 478.275C589.254 479.902 582.921 484.22 577.114 488.838C565.747 497.892 555.764 508.278 546.695 519.529C528.491 542.103 513.996 568.091 499.514 593.4C471.044 643.165 441.148 692.121 409.874 740.167C386.77 775.68 359.452 840.621 309.547 841.602C304.734 841.699 300.021 841.081 295.476 839.862C279.044 835.484 264.741 823.278 255.282 808.459C278.738 786.135 295.452 750.841 310.408 727.865C341.682 679.819 371.566 630.862 400.025 581.095C421.712 543.18 443.446 503.745 477.637 476.534C483.443 471.917 489.765 467.598 497.009 465.972C500.33 465.222 503.702 465.1 507.009 465.509L606.51 477.815L606.523 477.805Z" fill="white"/>
</g>
<defs>
<clipPath id="clip0_3339_23724">
<rect width="1280" height="720" fill="white"/>
</clipPath>
</defs>
</svg>
