<svg width="983" height="603" viewBox="0 0 983 603" fill="none" xmlns="http://www.w3.org/2000/svg">
<path d="M546.046 139.782C537.687 137.007 528.729 135.704 520.027 135.974C509.574 136.288 499.39 138.415 489.489 141.703C475.809 146.209 462.653 152.883 450.018 159.896C332.431 225.291 238.981 325.998 149.191 426.324C131.974 445.561 114.678 464.981 94.1381 480.582L0.0015219 446.253C20.5415 430.651 37.8525 411.225 55.0546 391.995C144.856 291.673 238.305 190.966 355.881 125.566C377.651 113.458 401.016 102.417 425.891 101.645C434.603 101.379 443.55 102.678 451.91 105.453L546.046 139.782V139.782Z" fill="white"/>
<path d="M935.117 581.139L844.466 570.81C841.244 570.564 838.029 569.79 834.866 568.411C815.961 560.179 811.391 535.556 811.276 514.825C810.789 420.956 847.882 329.135 841.682 235.49C841.481 232.571 841.248 229.636 840.931 226.715C849.978 215.422 859.936 204.996 871.274 195.904C877.065 191.267 883.38 186.931 890.59 185.293C892.636 184.829 894.713 184.592 896.772 184.588C898.048 184.581 899.337 184.658 900.593 184.813C901.849 184.968 903.164 185.213 904.435 185.535C914.401 188.003 923.503 195.093 929.196 203.926C937.449 216.747 939.807 232.485 940.82 247.751C946.82 338.384 912.274 427.296 910.495 518.014C910.426 521.029 910.402 524.061 910.426 527.087C910.529 547.817 915.111 572.442 934.016 580.673C934.393 580.838 934.761 580.989 935.141 581.13L935.117 581.139Z" fill="#231F20"/>
<path d="M512.732 601.827L431.883 572.344C407.404 567.213 389.977 544.037 384.057 519.737C370.277 463.233 395.245 402.316 418.642 352.064C443.761 298.111 473.767 245.617 487.395 187.672C490.96 172.524 493.274 156.25 489.011 141.485C498.917 138.225 509.09 136.105 519.547 135.788C528.249 135.525 537.209 136.832 545.571 139.609L549.653 141.098C563.434 146.594 575.206 156.308 581.044 169.849C588.04 186.095 585.603 204.78 581.553 222.009C567.913 279.95 537.922 332.436 512.799 386.4C489.406 436.641 464.438 497.559 478.214 554.073C478.872 556.794 479.691 559.511 480.63 562.173C486.511 578.757 497.7 593.877 512.728 601.838L512.732 601.827Z" fill="#231F20"/>
<path d="M900.523 184.805C899.262 184.649 897.969 184.571 896.689 184.577C894.623 184.579 892.541 184.802 890.487 185.275C883.254 186.902 876.921 191.22 871.114 195.838C859.747 204.892 849.764 215.278 840.695 226.529C822.491 249.103 807.996 275.091 793.514 300.4C765.044 350.165 735.148 399.121 703.874 447.167C680.77 482.68 653.452 547.621 603.547 548.602C598.734 548.699 594.021 548.081 589.476 546.862C573.044 542.484 558.741 530.278 549.282 515.459C572.738 493.135 589.452 457.841 604.408 434.865C635.682 386.819 665.566 337.862 694.025 288.095C715.712 250.18 737.446 210.745 771.637 183.534C777.443 178.917 783.765 174.598 791.009 172.972C794.33 172.222 797.702 172.1 801.009 172.509L900.51 184.815L900.523 184.805Z" fill="white"/>
</svg>
