<svg width="24" height="24" viewBox="0 0 24 24" fill="none" xmlns="http://www.w3.org/2000/svg">
<path fill-rule="evenodd" clip-rule="evenodd" d="M12 24C18.6274 24 24 18.6274 24 12C24 5.37258 18.6274 0 12 0C5.37258 0 0 5.37258 0 12C0 18.6274 5.37258 24 12 24ZM12.0019 21.2528C17.1122 21.2528 21.2549 17.1101 21.2549 11.9998C21.2549 6.88951 17.1122 2.74679 12.0019 2.74679C6.8916 2.74679 2.74888 6.88951 2.74888 11.9998C2.74888 17.1101 6.8916 21.2528 12.0019 21.2528Z" fill="#D9D9D9"/>
<path fill-rule="evenodd" clip-rule="evenodd" d="M12 2.74679C12.0009 2.74679 12.0018 2.74679 12.0027 2.74679C17.113 2.74679 21.2557 6.88951 21.2557 11.9998C21.2557 13.8531 20.7108 15.5791 19.7726 17.0265L21.9279 18.7438C23.2361 16.8219 24.0008 14.5002 24.0008 12C24.0008 5.37258 18.6282 0 12.0008 0C12.0005 0 12.0003 2.39711e-08 12 2.39711e-08V2.74679Z" fill="#B61212"/>
<path d="M16.75 8.5C16.75 9.32834 16.0783 10 15.25 10C14.4217 10 13.75 9.32834 13.75 8.5C13.75 7.67166 14.4217 7 15.25 7C16.0783 7 16.75 7.67166 16.75 8.5Z" fill="black"/>
<path d="M10.75 8.5C10.75 9.32834 10.0783 10 9.25 10C8.42166 10 7.75 9.32834 7.75 8.5C7.75 7.67166 8.42166 7 9.25 7C10.0783 7 10.75 7.67166 10.75 8.5Z" fill="black"/>
<path d="M11.8539 14.5001C10.1541 14.5006 8.51299 15.1006 7.23843 16.1875C7.04432 16.3678 6.96069 16.6323 7.01748 16.8866C7.07428 17.1409 7.26337 17.3486 7.51706 17.4354C7.77073 17.5223 8.0528 17.4757 8.26248 17.3125C9.25431 16.4668 10.5315 16 11.8541 16C13.1766 16 14.4538 16.4668 15.4456 17.3125C15.5871 17.433 15.7691 17.4997 15.9577 17.5C16.1805 17.4997 16.3925 17.4069 16.5395 17.245C16.6799 17.1006 16.7556 16.9082 16.7497 16.71C16.744 16.512 16.6572 16.324 16.5085 16.1876C15.2237 15.0921 13.5671 14.4914 11.854 14.5001L11.8539 14.5001Z" fill="black"/>
</svg>
