<svg width="16" height="21" viewBox="0 0 16 21" fill="none" xmlns="http://www.w3.org/2000/svg">
<path d="M6.88709 1.67929C7.00531 1.45952 6.9266 1.17981 6.7099 1.05994C6.4935 0.940063 6.21784 1.01998 6.09961 1.23975L1.05904 10.2702C0.98032 10.4101 0.98032 10.5899 1.05904 10.7298L6.21784 19.7603C6.29656 19.9001 6.43424 20 6.59168 20H10.5691C10.825 20 11.022 19.7802 11.022 19.5405C11.022 19.4406 11.0022 19.3407 10.9432 19.2808L5.96164 10.49L10.825 1.91903H13.7786L9.01364 10.2702C8.93493 10.4101 8.93493 10.5899 9.01364 10.7298L14.1527 19.7603C14.2904 19.98 14.566 20.0599 14.7827 19.9201C14.9991 19.8002 15.0584 19.5205 14.9402 19.3007L9.91933 10.49L14.9204 1.71924C14.9794 1.63933 14.9991 1.55941 14.9991 1.45952C14.9991 1.19979 14.8022 1 14.5463 1H10.5691C10.4117 1 10.2737 1.07992 10.195 1.21977L5.03648 10.2702C4.95747 10.4101 4.95747 10.5699 5.03648 10.7298L9.80112 19.081H6.86734L1.98448 10.49L6.88709 1.67929Z" fill="#2B2015" stroke="black"/>
</svg>
