<svg width="22" height="11" viewBox="0 0 22 11" fill="none" xmlns="http://www.w3.org/2000/svg">
<path d="M19.25 2.91269C19.25 4.26829 18.0125 5.37742 16.5 5.37742C14.9875 5.37742 13.75 4.26829 13.75 2.91269C13.75 1.55709 14.9875 0.447968 16.5 0.447968C18.0125 0.447968 19.25 1.55709 19.25 2.91269Z" fill="#008981"/>
<path d="M20.3225 7.32455C21.34 7.71891 22 8.60621 22 9.60443V10.3069H11V9.60443C11 8.60621 11.66 7.71891 12.6775 7.32455C13.8463 6.86858 15.1388 6.60978 16.5 6.60978C17.8612 6.60978 19.1538 6.86858 20.3225 7.32455Z" fill="#008981"/>
<path d="M3.9 7.66468V10.3069L0 6.3633L3.9 2.41974V5.04878L10 5.04878V6.35016V7.66468H3.9Z" fill="#008981"/>
</svg>
