<svg width="268" height="315" viewBox="0 0 268 315" fill="none" xmlns="http://www.w3.org/2000/svg">
<g opacity="0.6">
<path d="M89 20.3648C74.8846 7.32393 62.656 0 42.72 0H0V175.635H42.72C62.6916 175.635 74.9202 182.959 89 195.991V20.356V20.3648Z" fill="#F5F5F5"/>
<path d="M89 22.357V197.991C103.501 184.81 122.524 177.537 142.24 177.635H178V2.00105H142.24C122.523 1.89957 103.499 9.17307 89 22.357Z" fill="#F5F5F5"/>
<path d="M178 226.697C189.67 226.697 200.861 221.989 209.113 213.61C217.364 205.23 222 193.865 222 182.015C222 170.164 217.364 158.799 209.113 150.42C200.861 142.04 189.67 137.333 178 137.333V226.697Z" fill="#F5F5F5"/>
<path d="M178 226.697C166.33 226.697 155.139 221.989 146.887 213.61C138.636 205.23 134 193.865 134 182.015C134 170.164 138.636 158.799 146.887 150.42C155.139 142.04 166.33 137.333 178 137.333V226.697Z" fill="white"/>
<path d="M178 227H178.214C218.306 227 252.525 253.341 263.676 289.516C267.765 302.782 256.188 314.333 242.306 314.333H178V227Z" fill="#F5F5F5"/>
<path d="M179 226.697H178.786C129.979 226.697 90.3738 265.734 90 314.03H179V226.697Z" fill="#F5F5F5"/>
</g>
</svg>
