<svg width="266" height="315" viewBox="0 0 266 315" fill="none" xmlns="http://www.w3.org/2000/svg">
<g opacity="0.4">
<g clip-path="url(#clip0_4066_27067)">
<path d="M244.584 245.001V315H315.001V245.001H244.584Z" fill="#E5E8EC"/>
<path d="M174.178 245.001V315H244.594V245.001H174.178Z" fill="#E5E8EC"/>
<path d="M174.168 175.002V245.001H244.585V175.002H174.168Z" fill="#E5E8EC"/>
<path d="M103.762 245.001V315H174.178V245.001H103.762Z" fill="#E5E8EC"/>
<path d="M103.762 175.002V245.001H174.178V175.002H103.762Z" fill="#E5E8EC"/>
<path d="M103.762 105.013V175.012H174.178V105.013H103.762Z" fill="#E5E8EC"/>
<path d="M105.62 104.993C91.6143 104.993 78.182 99.4622 68.2782 89.6172C58.3744 79.7722 52.8105 66.4195 52.8105 52.4965C52.8105 38.5736 58.3744 25.2209 68.2782 15.3759C78.182 5.53086 91.6143 0 105.62 0V104.993Z" fill="#C8CCD2"/>
<path d="M105.619 104.993C119.625 104.993 133.058 99.4622 142.961 89.6172C152.865 79.7722 158.429 66.4195 158.429 52.4965C158.429 38.5736 152.865 25.2209 142.961 15.3759C133.058 5.53086 119.625 0 105.619 0V104.993Z" fill="#C8CCD2"/>
<path d="M105.62 104.994H105.366C47.4444 104.994 0.433041 151.925 0 209.987H105.62V104.994Z" fill="#C8CCD2"/>
</g>
</g>
<defs>
<clipPath id="clip0_4066_27067">
<rect width="266" height="315" rx="24" fill="white"/>
</clipPath>
</defs>
</svg>
