<svg width="267" height="260" viewBox="0 0 267 260" fill="none" xmlns="http://www.w3.org/2000/svg">
<path d="M89 20.054C74.8846 7.21216 62.656 0 42.72 0H0V172.955H42.72C62.6916 172.955 74.9202 180.167 89 193V20.0454V20.054Z" fill="#E9EBED"/>
<path d="M89 20.0463V193C103.501 180.02 122.524 172.858 142.24 172.955H178V0.00103163H142.24C122.523 -0.0988933 103.499 7.0636 89 20.0463Z" fill="#E9EBED"/>
<path d="M178 174C189.67 174 200.861 169.364 209.113 161.113C217.364 152.861 222 141.67 222 130C222 118.33 217.364 107.139 209.113 98.8873C200.861 90.6357 189.67 86 178 86V174Z" fill="#F5F6F7"/>
<path d="M178 174C166.33 174 155.139 169.364 146.887 161.113C138.636 152.861 134 141.67 134 130C134 118.33 138.636 107.139 146.887 98.8873C155.139 90.6357 166.33 86 178 86V174Z" fill="#F5F6F7"/>
<path d="M178 174H178.214C227.021 174 266.626 212.442 267 260H178V174Z" fill="#F5F6F7"/>
</svg>
