<svg width="719" height="232" viewBox="0 0 719 232" fill="none" xmlns="http://www.w3.org/2000/svg">
<g clip-path="url(#clip0_4629_47554)">
<path d="M637 0C635.759 0 634.495 0.0716482 633.254 0.214931C631.251 0.440089 629.258 0.859703 627.323 1.49424C620.503 3.69465 614.879 8.14664 609.801 12.8033C599.862 21.9325 591.425 32.0748 583.98 42.8722C569.031 64.5386 558.09 88.7841 547.08 112.436C525.437 158.941 502.314 204.894 477.745 250.202C459.597 283.689 440.891 343.316 392.607 349.559C387.95 350.162 383.305 350.132 378.751 349.559C362.288 347.512 346.952 338.403 336 326.49C356.072 304.476 368.049 271.869 379.799 250.202C404.368 204.894 427.48 158.941 449.111 112.436C465.597 77.0042 481.946 40.242 511.843 12.8033C516.921 8.14664 522.534 3.69465 529.365 1.49424C532.496 0.481027 535.752 0.0102289 539.008 0.0102289L636.989 0.0102289L637 0Z" fill="#DA2032"/>
<path d="M718.977 344.197L628.41 344.971C625.206 345.105 621.944 344.775 618.66 343.907C599.032 338.733 591.529 317.612 588.889 299.424C576.972 217.067 602.328 132.428 584.809 50.8869C584.256 48.3462 583.668 45.7951 583 43.2647C590.538 32.3685 599.078 22.1333 609.14 12.9205C614.28 8.22123 619.973 3.72848 626.877 1.50792C628.837 0.877901 630.854 0.444118 632.882 0.216898C634.138 0.0723041 635.418 0 636.674 0C637.93 0 639.256 0.0723041 640.546 0.216898C650.666 1.30136 660.497 6.53774 667.182 13.6745C676.875 24.0337 681.116 37.5945 683.974 50.8869C700.928 129.804 677.727 211.614 687.028 291.451C687.328 294.105 687.674 296.77 688.066 299.424C690.694 317.612 698.208 338.733 717.836 343.907C718.228 344.011 718.608 344.104 719 344.186L718.977 344.197Z" fill="#231F20"/>
</g>
<g clip-path="url(#clip1_4629_47554)">
<path d="M300 56C298.763 56 297.504 56.0719 296.267 56.2155C294.27 56.4413 292.284 56.8622 290.355 57.4985C283.558 59.7052 277.952 64.1699 272.891 68.8399C262.985 77.9951 254.577 88.1665 247.156 98.9947C232.257 120.723 221.352 145.038 210.379 168.757C188.808 215.396 165.761 261.48 141.274 306.917C123.186 340.5 104.543 400.296 56.4188 406.557C51.7777 407.163 47.148 407.132 42.6091 406.557C26.2009 404.505 10.9161 395.37 0 383.423C20.0053 361.346 31.9427 328.645 43.6531 306.917C68.1406 261.48 91.1756 215.396 112.735 168.757C129.166 133.224 145.461 96.3569 175.259 68.8399C180.32 64.1699 185.914 59.7052 192.723 57.4985C195.843 56.4824 199.088 56.0103 202.334 56.0103H299.989L300 56Z" fill="#DA2032"/>
<path d="M379.977 396.206L291.408 396.971C288.275 397.104 285.085 396.777 281.873 395.92C262.678 390.806 255.341 369.929 252.76 351.952C241.105 270.55 265.902 186.892 248.77 106.297C248.228 103.786 247.654 101.264 247 98.7631C254.371 87.9932 262.723 77.8767 272.563 68.7707C277.59 64.1259 283.158 59.6852 289.909 57.4904C291.825 56.8677 293.798 56.439 295.782 56.2144C297.01 56.0715 298.261 56 299.49 56C300.718 56 302.015 56.0715 303.277 56.2144C313.173 57.2863 322.787 62.4619 329.325 69.516C338.804 79.755 342.952 93.1587 345.747 106.297C362.327 184.299 339.638 265.16 348.734 344.071C349.027 346.695 349.365 349.329 349.748 351.952C352.318 369.929 359.667 390.806 378.862 395.92C379.245 396.022 379.617 396.114 380 396.196L379.977 396.206Z" fill="#231F20"/>
</g>
<defs>
<clipPath id="clip0_4629_47554">
<rect width="383" height="232" fill="white" transform="translate(336)"/>
</clipPath>
<clipPath id="clip1_4629_47554">
<rect width="380" height="176" fill="white" transform="translate(0 56)"/>
</clipPath>
</defs>
</svg>
