<svg width="969" height="487" viewBox="0 0 969 487" fill="none" xmlns="http://www.w3.org/2000/svg">
<g clip-path="url(#clip0_4382_35347)">
<path d="M634.5 -281.639C334.545 -281.639 90.9252 -35.618 90.9252 266.18C90.9252 568.477 334.545 813.999 634.5 813.999L634.5 905.135C284.635 905.634 5.13531e-05 619.275 3.59407e-05 266.679C2.05282e-05 -85.9173 284.635 -372.776 634.5 -372.776C734.32 -372.776 815.856 -454.948 815.856 -555.548L906.287 -555.548C906.287 -404.649 784.23 -281.639 634.5 -281.639Z" fill="#F7F7F7"/>
<path d="M634.5 -1742.82C434.86 -1742.82 271.787 -1578.97 271.787 -1377.77C271.787 -1176.58 434.366 -1012.23 634.5 -1012.23C884.05 -1012.23 1087.15 -807.544 1087.64 -556.046C1087.64 -304.547 884.05 -99.863 634.5 -99.8629C434.86 -99.8629 272.282 63.9845 272.282 265.681C272.282 467.378 434.86 630.729 634.5 630.729C884.05 630.729 1087.15 835.414 1087.64 1086.91C1087.64 1338.41 884.05 1543.1 634.5 1543.1C334.546 1543.1 90.4312 1790.11 90.4312 2092.41L0.000171605 2092.41C0.000156193 1739.81 284.636 1451.96 634.5 1451.96C834.14 1451.96 996.718 1288.11 996.718 1086.91C996.718 885.714 834.14 722.364 634.5 722.364C384.456 722.364 181.356 517.678 181.356 265.681C181.356 13.6848 384.456 -190.999 634.5 -190.999C834.14 -190.999 996.718 -354.349 996.718 -555.548C996.718 -756.747 834.14 -920.096 634.5 -920.096C384.456 -920.096 181.356 -1124.78 181.356 -1376.78C181.356 -1628.78 384.455 -1833.46 634.5 -1833.46C884.544 -1833.46 1087.64 -1628.78 1087.64 -1376.78L997.212 -1376.78C997.212 -1577.98 834.634 -1741.82 634.994 -1741.82" fill="#F7F7F7"/>
<path d="M181.358 2091.91C181.358 1839.91 384.457 1634.23 634.501 1634.23C934.455 1634.23 1178.57 1389.71 1178.57 1087.41C1178.57 785.114 934.455 539.591 634.995 539.591C485.265 539.591 363.208 416.581 363.208 265.682C363.208 114.783 485.265 -8.22645 634.995 -8.22646C934.949 -8.22647 1179.06 -254.247 1179.06 -556.045C1179.06 -858.341 934.949 -1103.86 635.489 -1103.86L635.489 -1195C985.353 -1195 1269.99 -908.143 1269.99 -555.547C1269.99 -202.951 985.353 83.9062 635.489 83.9062C535.669 83.9062 454.133 166.08 454.133 266.679C454.133 367.279 535.175 449.451 635.489 449.451C985.353 449.451 1269.49 735.811 1269.99 1087.91C1269.99 1440.01 985.354 1726.37 635.489 1726.37C435.849 1726.37 272.777 1891.71 272.777 2093.41L182.346 2093.41L181.358 2091.91Z" fill="#F7F7F7"/>
</g>
<defs>
<clipPath id="clip0_4382_35347">
<rect width="14589.4" height="1269" fill="white" transform="matrix(4.37114e-08 1 1 -4.37114e-08 0 -12497)"/>
</clipPath>
</defs>
</svg>
