<svg width="344" height="1445" viewBox="0 0 344 1445" fill="none" xmlns="http://www.w3.org/2000/svg">
<g clip-path="url(#clip0_4341_50435)">
<path d="M279.5 271.512C45.7292 271.512 -144.137 458.715 -144.137 688.36C-144.137 918.384 45.7292 1105.21 279.5 1105.21L279.5 1174.56C6.83169 1174.93 -215 957.038 -215 688.739C-215 420.441 6.83167 202.163 279.5 202.163C357.295 202.163 420.84 139.636 420.84 63.0878L491.318 63.0878C491.318 177.911 396.192 271.512 279.5 271.512Z" fill="#F7F7F7"/>
<path d="M279.5 -840.335C123.91 -840.335 -3.18153 -715.659 -3.18152 -562.562C-3.18152 -409.465 123.524 -284.411 279.5 -284.411C473.988 -284.411 632.274 -128.662 632.659 62.7096C632.659 254.081 473.988 409.83 279.5 409.83C123.91 409.83 -2.79636 534.505 -2.79636 687.981C-2.79636 841.457 123.91 965.754 279.5 965.754C473.988 965.754 632.274 1121.5 632.659 1312.87C632.659 1504.25 473.988 1660 279.5 1660C45.7293 1660 -144.522 1847.96 -144.522 2077.98L-215 2077.98C-215 1809.68 6.83178 1590.65 279.5 1590.65C435.09 1590.65 561.796 1465.97 561.796 1312.87C561.796 1159.78 435.09 1035.48 279.5 1035.48C84.6269 1035.48 -73.6593 879.731 -73.6593 687.981C-73.6593 496.231 84.6269 340.482 279.5 340.482C435.09 340.482 561.796 216.185 561.796 63.0883C561.796 -90.0085 435.09 -214.305 279.5 -214.305C84.6269 -214.305 -73.6593 -370.055 -73.6593 -561.805C-73.6593 -753.555 84.6269 -909.304 279.5 -909.304C474.373 -909.304 632.659 -753.555 632.659 -561.805L562.181 -561.805C562.181 -714.902 435.475 -839.577 279.885 -839.577" fill="#F7F7F7"/>
<path d="M-73.6581 2077.6C-73.6581 1885.85 84.628 1729.34 279.501 1729.34C513.271 1729.34 703.523 1543.28 703.523 1313.25C703.523 1083.23 513.271 896.405 279.886 896.405C163.193 896.405 68.0676 802.804 68.0676 687.981C68.0676 573.158 163.193 479.557 279.886 479.557C513.656 479.557 703.908 292.355 703.908 62.7095C703.908 -167.315 513.656 -354.138 280.271 -354.138L280.271 -423.487C552.939 -423.487 774.771 -205.21 774.771 63.0882C774.771 331.387 552.939 549.663 280.271 549.663C202.476 549.663 138.93 612.191 138.93 688.739C138.93 765.288 202.091 827.814 280.271 827.814C552.939 827.814 774.386 1045.71 774.771 1313.63C774.771 1581.55 552.939 1799.45 280.271 1799.45C124.681 1799.45 -2.41014 1925.26 -2.41014 2078.74L-72.8879 2078.74L-73.6581 2077.6Z" fill="#F7F7F7"/>
</g>
<defs>
<clipPath id="clip0_4341_50435">
<rect width="1445" height="344" fill="white" transform="matrix(1.5204e-08 1 1 -1.2567e-07 0 0)"/>
</clipPath>
</defs>
</svg>
