<svg width="470" height="226" viewBox="0 0 470 226" fill="none" xmlns="http://www.w3.org/2000/svg">
<g clip-path="url(#clip0_4382_36162)">
<path d="M201.993 -0.0932617C195.972 0.0314955 189.912 0.927479 184.385 2.49829C177.744 4.38099 171.699 7.04626 166.109 10.1935C158.377 14.526 151.488 19.7602 145.014 25.0623C84.794 74.4662 48.3531 135.966 14.1739 196.683C7.61993 208.325 1.05802 220.064 -8.48222 230.6H-77C-67.4598 220.064 -60.8899 208.319 -54.3439 196.683C-20.1567 135.966 16.2842 74.4662 76.4961 25.0623C87.6449 15.9154 100.068 6.98955 115.868 2.49829C121.402 0.927479 127.454 0.0314955 133.475 -0.0932617H201.993Z" fill="#DA2032"/>
<path d="M289.134 216.682H230.307C213.385 218.417 196.765 210.728 187.273 200.605C165.19 177.072 166.958 145.06 170.215 118.186C173.711 89.3333 180.687 60.3329 175.869 31.5707C174.611 24.0513 172.285 16.2256 166.09 10.1862C171.688 7.0446 177.724 4.37933 184.366 2.49096C189.893 0.920155 195.953 0.0241713 201.973 -0.100586H204.944C215.081 0.114904 224.916 2.59304 231.836 7.81016C240.134 14.0707 242.945 23.0192 244.379 31.5707C249.189 60.3329 242.221 89.3277 238.725 118.186C235.468 145.054 233.7 177.066 255.782 200.605C256.842 201.74 258.004 202.845 259.231 203.906C266.892 210.507 277.618 215.554 289.134 216.688V216.682Z" fill="#231F20"/>
<path d="M469.783 23.0034C468.915 23.0034 468.031 23.0431 467.163 23.1225C465.761 23.2473 464.367 23.4798 463.014 23.8314C458.244 25.0506 454.31 27.5174 450.758 30.0976C443.806 35.1559 437.905 40.7757 432.697 46.7583C422.241 58.7634 414.588 72.1975 406.887 85.3027C391.748 111.071 375.575 136.533 358.389 161.637C345.696 180.192 332.612 213.23 298.839 216.689C295.582 217.024 292.332 217.007 289.147 216.689C277.632 215.555 266.905 210.508 259.244 203.907C273.284 191.709 281.661 173.642 289.88 161.637C307.065 136.533 323.231 111.071 338.361 85.3027C349.892 65.6704 361.328 45.3009 382.24 30.0976C385.792 27.5174 389.718 25.0506 394.496 23.8314C396.686 23.2699 398.963 23.0091 401.241 23.0091H469.775L469.783 23.0034Z" fill="#DA2032"/>
</g>
<defs>
<clipPath id="clip0_4382_36162">
<rect width="470" height="226" rx="24" fill="white"/>
</clipPath>
</defs>
</svg>
