<svg width="271" height="287" viewBox="0 0 271 287" fill="none" xmlns="http://www.w3.org/2000/svg">
<path d="M270.309 0L241.402 42.2239L225.411 39.7761C208.805 50.1791 192.382 64.7078 167.497 90.5672C142.612 116.427 114.068 153.973 101.916 184.069C89.9065 213.816 81.7628 245.095 58.2141 271.152C52.0823 277.929 42.833 284.786 32.4624 286.56H32.4465C29.1778 287.118 25.7978 287.174 22.3701 286.56C22.0997 286.51 21.8372 286.465 21.5668 286.408C8.02294 283.586 2.84556 272.064 1.02433 262.143C0.75393 260.695 0.523324 259.242 0.308594 257.794C16.135 234.768 32.7252 208.881 42.746 184.069C54.8901 153.973 81.8247 109.083 106.71 83.2239C131.594 57.3645 154.143 37.9403 180.833 30.147L152.837 26.3134L270.309 0Z" fill="#DA2032"/>
</svg>
