<svg width="94" height="191" viewBox="0 0 94 191" fill="none" xmlns="http://www.w3.org/2000/svg">
<path d="M93.9531 189.977L31.3761 190.402C29.1622 190.476 26.9085 190.294 24.639 189.818C11.0772 186.977 5.89296 175.38 4.06933 165.394C-4.16491 120.175 13.3547 73.703 1.25022 28.9321C0.867976 27.5371 0.461882 26.1364 0 24.7471C5.20812 18.7644 11.109 13.1447 18.0612 8.08634C21.6129 5.50614 25.5468 3.03934 30.3169 1.82013C31.6707 1.47421 33.0643 1.23604 34.4659 1.11128C35.3339 1.03189 36.2179 0.992188 37.0859 0.992188C37.9539 0.992188 38.8697 1.03189 39.7616 1.11128C46.7536 1.70671 53.5464 4.5818 58.1652 8.50031C64.8625 14.1881 67.7931 21.6338 69.768 28.9321C81.4823 72.2626 65.4518 117.181 71.8783 161.016C72.0854 162.473 72.3243 163.937 72.595 165.394C74.4107 175.38 79.6029 186.977 93.1647 189.818C93.4355 189.875 93.6983 189.926 93.969 189.971L93.9531 189.977Z" fill="#231F20"/>
</svg>
