<svg width="703" height="402" viewBox="0 0 703 402" fill="none" xmlns="http://www.w3.org/2000/svg">
<path d="M324.829 0.0884399C317.82 0.305791 310.764 1.86677 304.329 4.60341C296.597 7.88343 289.559 12.5268 283.051 18.01C274.048 25.558 266.028 34.6769 258.49 43.9143C188.376 129.985 145.948 237.129 106.153 342.91C98.5225 363.193 90.8825 383.644 79.7749 402H0C11.1077 383.644 18.7569 363.183 26.3784 342.91C66.1824 237.129 108.61 129.985 178.715 43.9143C191.695 27.9785 206.159 12.428 224.555 4.60341C230.999 1.86677 238.045 0.305791 245.055 0.0884399H324.829V0.0884399Z" fill="#DA2032"/>
<path d="M426.3 377.756H357.809C338.106 380.779 318.756 367.382 307.704 349.747C281.993 308.747 284.052 252.977 287.844 206.157C291.914 155.89 300.036 105.366 294.427 55.2563C292.962 42.156 290.255 28.5222 283.041 18.0004C289.559 12.5271 296.587 7.88373 304.32 4.59383C310.755 1.85718 317.81 0.296208 324.82 0.0788574H328.278C340.081 0.454282 351.532 4.77167 359.589 13.8609C369.251 24.7679 372.524 40.3579 374.192 55.2563C379.793 105.366 371.68 155.88 367.609 206.157C363.817 252.967 361.759 308.737 387.47 349.747C388.703 351.723 390.057 353.65 391.484 355.497C400.404 366.997 412.893 375.79 426.3 377.766V377.756Z" fill="#231F20"/>
<path d="M636.603 40.3282C635.593 40.3282 634.564 40.3974 633.553 40.5357C631.921 40.7531 630.299 41.1581 628.722 41.7707C623.168 43.8948 618.588 48.1924 614.453 52.6876C606.359 61.5002 599.488 71.2909 593.424 81.7138C581.251 102.629 572.34 126.034 563.374 148.865C545.749 193.758 526.918 238.118 506.909 281.855C492.13 314.181 476.896 371.739 437.574 377.766C433.782 378.348 429.999 378.319 426.29 377.766C412.883 375.79 400.394 366.997 391.475 355.497C407.821 334.246 417.575 302.77 427.143 281.855C447.152 238.118 465.974 193.758 483.59 148.865C497.016 114.662 510.33 79.1748 534.678 52.6876C538.813 48.1924 543.384 43.8948 548.947 41.7707C551.497 40.7926 554.149 40.3381 556.801 40.3381H636.594L636.603 40.3282Z" fill="#DA2032"/>
<path d="M702.815 369.556L629.957 370.296C627.379 370.425 624.755 370.109 622.113 369.279C606.323 364.329 600.287 344.125 598.164 326.728C588.577 247.948 608.975 166.984 594.881 88.9851C594.436 86.5547 593.964 84.1144 593.426 81.6939C599.49 71.271 606.36 61.4803 614.454 52.6677C618.59 48.1725 623.17 43.8749 628.724 41.7508C630.3 41.1481 631.922 40.7332 633.554 40.5158C634.565 40.3775 635.594 40.3083 636.605 40.3083C637.615 40.3083 638.682 40.3775 639.72 40.5158C647.861 41.5532 655.77 46.5621 661.147 53.3889C668.945 63.2982 672.357 76.2701 674.656 88.9851C688.295 164.475 669.631 242.731 677.113 319.1C677.354 321.639 677.633 324.188 677.948 326.728C680.062 344.125 686.107 364.329 701.897 369.279C702.212 369.378 702.518 369.467 702.833 369.546L702.815 369.556Z" fill="#231F20"/>
</svg>
