<svg width="329" height="482" viewBox="0 0 329 482" fill="none" xmlns="http://www.w3.org/2000/svg">
<path d="M328.399 0.00012207L310.931 46.176H288.586C241.624 68.3501 210.109 111.921 181.097 156.541C152.086 201.162 132.624 251.955 118.457 303.886C104.456 355.214 94.9622 409.186 67.5082 454.147C60.3597 465.842 49.5765 477.672 37.486 480.734H37.4675C33.6567 481.697 29.7162 481.794 25.7201 480.734C25.4048 480.647 25.0988 480.569 24.7836 480.472C8.99366 475.602 2.95768 455.722 0.834431 438.603C0.519189 436.104 0.25034 433.596 0 431.098C18.451 391.367 26.9996 346.698 38.6821 303.886C52.8402 251.955 72.3017 201.162 101.313 156.541C130.325 111.921 163.509 60.4759 210.461 38.2921H179.345L328.399 0.00012207Z" fill="#DA2032"/>
</svg>
