<svg width="296" height="600" viewBox="0 0 296 600" fill="none" xmlns="http://www.w3.org/2000/svg">
<g clip-path="url(#clip0_4341_37333)">
<path d="M342.73 35.2959C420.126 35.2959 483.217 -28.1473 483.217 -105.974L436.473 -105.974C436.473 -54.0897 394.583 -11.7086 342.73 -11.7086C161.886 -11.7086 14.7581 136.24 14.7581 318.093L61.5018 318.093C61.5018 162.182 187.684 35.5528 342.475 35.5528" fill="#F7F7F7"/>
<path d="M342.729 176.566C265.334 176.566 202.243 240.009 202.243 317.836C202.243 395.663 265.334 459.107 342.729 459.107C497.775 459.107 623.702 585.993 623.702 741.647C623.702 897.301 497.52 1024.19 342.474 1024.19C213.226 1024.19 108.244 1129.76 108.244 1259.72C108.244 1389.69 213.226 1495.26 342.474 1495.26C471.721 1495.26 576.703 1389.69 576.703 1259.72L529.704 1259.72C529.704 1363.49 445.667 1448.26 342.474 1448.26C239.28 1448.26 155.243 1363.75 155.243 1259.72C155.243 1155.7 239.28 1071.45 342.474 1071.45C523.573 1071.45 670.701 923.501 670.701 741.904C670.701 560.308 523.573 412.102 342.729 412.102C291.132 412.102 248.986 369.721 248.986 317.836C248.986 265.952 291.132 223.571 342.729 223.571C523.573 223.827 670.701 75.879 670.701 -105.974L623.957 -105.974C623.957 49.9366 497.775 176.566 342.729 176.566Z" fill="#F7F7F7"/>
<path d="M623.958 1871.81C623.958 2027.72 497.775 2154.35 342.985 2154.35L342.985 2201.35C523.829 2201.35 670.957 2053.41 670.957 1871.55C670.957 1689.7 523.829 1541.75 342.985 1541.75C187.939 1541.75 62.0117 1414.86 62.0117 1258.95C62.0117 1103.04 187.939 976.413 342.985 976.413C471.977 976.413 576.959 870.845 577.214 741.133C577.214 611.422 471.977 505.854 342.985 505.854C239.791 505.854 155.755 421.349 155.755 317.579C155.755 213.81 239.791 129.048 342.985 129.048C471.977 129.562 576.959 23.9943 576.959 -105.974L530.215 -105.974C530.215 -2.20495 446.179 82.3003 342.729 82.3003C213.482 82.3003 108.5 187.868 108.5 317.836C108.5 447.805 213.482 553.372 342.729 553.372C445.923 553.372 529.96 637.621 529.96 741.39C529.96 845.16 445.923 929.408 342.729 929.408C161.885 929.408 14.7572 1077.36 14.7571 1259.21C14.7571 1441.06 161.885 1589.01 342.729 1589.01C497.775 1589.01 623.702 1715.9 623.702 1871.55" fill="#F7F7F7"/>
</g>
<defs>
<clipPath id="clip0_4341_37333">
<rect x="296" width="600" height="296" rx="24" transform="rotate(90 296 0)" fill="white"/>
</clipPath>
</defs>
</svg>
