<svg width="586" height="404" viewBox="0 0 586 404" fill="none" xmlns="http://www.w3.org/2000/svg">
<g clip-path="url(#clip0_4382_35477)">
<path d="M563.707 -199.158C674.868 -199.158 765.484 -290.661 765.484 -402.91L698.348 -402.91C698.348 -328.078 638.181 -266.952 563.707 -266.952C303.965 -266.952 92.6491 -53.5681 92.6491 208.716L159.786 208.716C159.786 -16.1519 341.019 -198.788 563.34 -198.788" fill="#F7F7F7"/>
<path d="M563.708 4.59382C452.547 4.59382 361.93 96.097 361.93 208.346C361.93 320.595 452.547 412.098 563.708 412.098C786.396 412.098 967.262 595.104 967.262 819.602C967.262 1044.1 786.029 1227.11 563.341 1227.11C377.706 1227.11 226.923 1379.36 226.923 1566.82C226.923 1754.27 377.706 1906.53 563.341 1906.53C748.976 1906.53 899.758 1754.27 899.758 1566.82L832.255 1566.82C832.255 1716.48 711.555 1838.73 563.341 1838.73C415.126 1838.73 294.427 1716.85 294.427 1566.82C294.427 1416.78 415.126 1295.27 563.341 1295.27C823.45 1295.27 1034.77 1081.89 1034.77 819.973C1034.77 558.058 823.45 344.304 563.708 344.304C489.6 344.304 429.067 283.178 429.067 208.346C429.067 133.513 489.6 72.3877 563.708 72.3877C823.45 72.7582 1034.77 -140.626 1034.77 -402.91L967.629 -402.91C967.629 -178.042 786.396 4.59383 563.708 4.59382Z" fill="#F7F7F7"/>
<path d="M967.627 2449.62C967.627 2674.49 786.394 2857.12 564.073 2857.12L564.073 2924.92C823.815 2924.92 1035.13 2711.53 1035.13 2449.25C1035.13 2186.96 823.815 1973.58 564.073 1973.58C341.384 1973.58 160.518 1790.57 160.518 1565.7C160.518 1340.84 341.384 1158.2 564.073 1158.2C749.341 1158.2 900.123 1005.94 900.49 818.861C900.49 631.78 749.341 479.521 564.073 479.521C415.858 479.521 295.159 357.64 295.159 207.975C295.159 58.3102 415.858 -63.941 564.073 -63.941C749.341 -63.2001 900.124 -215.458 900.124 -402.91L832.987 -402.91C832.987 -253.245 712.287 -131.364 563.706 -131.364C378.071 -131.364 227.288 20.8939 227.288 208.346C227.288 395.798 378.071 548.056 563.706 548.056C711.92 548.056 832.62 669.566 832.62 819.231C832.62 968.897 711.92 1090.41 563.706 1090.41C303.963 1090.41 92.6477 1303.79 92.6477 1566.08C92.6477 1828.36 303.963 2041.74 563.706 2041.74C786.394 2041.74 967.26 2224.75 967.26 2449.25" fill="#F7F7F7"/>
</g>
<defs>
<clipPath id="clip0_4382_35477">
<rect x="586" width="404" height="586" rx="24" transform="rotate(90 586 0)" fill="white"/>
</clipPath>
</defs>
</svg>
