<?xml version="1.0" encoding="utf-8"?><svg xmlns="http://www.w3.org/2000/svg" xmlns:xlink="http://www.w3.org/1999/xlink"><symbol viewBox="0 0 51 57" id="alerts" xmlns="http://www.w3.org/2000/svg"><path fill-rule="evenodd" clip-rule="evenodd" d="M28.26 27.176a.86.86 0 011.21 0l1.535 1.522 1.249-1.239a.86.86 0 011.21 0 .844.844 0 010 1.2l-1.249 1.24 1.534 1.52a.844.844 0 010 1.2.86.86 0 01-1.21 0l-1.534-1.52-1.534 1.52a.86.86 0 01-1.21 0 .844.844 0 010-1.2l1.534-1.52-1.534-1.523a.844.844 0 010-1.2zm-15.117.566a.86.86 0 011.21 0l1.82 1.805 1.819-1.805a.86.86 0 011.21 0 .844.844 0 010 1.2l-1.82 1.805 1.25 1.238a.844.844 0 010 1.2.86.86 0 01-1.21 0l-1.25-1.238-1.534 1.522a.86.86 0 01-1.21 0 .844.844 0 010-1.2l1.534-1.522-1.82-1.805a.844.844 0 010-1.2zm16.16 11.833c-1.76-2.522-6.767-4.013-10.652.098a.86.86 0 01-1.21.038.844.844 0 01-.039-1.2c4.672-4.942 10.961-3.264 13.308.098a.844.844 0 01-.216 1.18.86.86 0 01-1.191-.214zM40.756.075a.85.85 0 01.638 1.02l-1.13 4.77a.856.856 0 01-1.665-.388l1.128-4.77a.856.856 0 011.029-.632zm5.718 2.79a.844.844 0 01.104 1.196L42.706 8.63a.86.86 0 01-1.206.103.844.844 0 01-.104-1.196l3.873-4.567a.86.86 0 011.205-.103zm-2.345 7.81a.847.847 0 01.54-1.075l4.868-1.616a.857.857 0 011.084.535.847.847 0 01-.54 1.074l-4.87 1.617a.857.857 0 01-1.082-.536z"/><path d="M42.685 45.315a2.655 2.655 0 01-1.856-.754 2.549 2.549 0 01-.77-1.818V26.505a16.102 16.102 0 00-3.703-10.117 16.691 16.691 0 00-9.327-5.66V8.532c0-1.21-.658-2.329-1.728-2.934a3.521 3.521 0 00-3.459 0 3.376 3.376 0 00-1.729 2.934v2.194a16.697 16.697 0 00-9.325 5.66 16.105 16.105 0 00-3.705 10.118v16.243a2.55 2.55 0 01-.77 1.815 2.657 2.657 0 01-1.854.752c-.604 0-1.183.236-1.61.654a2.212 2.212 0 00-.668 1.577v2.463c.001.591.241 1.158.668 1.577a2.304 2.304 0 001.61.654h13.783a5.312 5.312 0 002.898 3.826 5.51 5.51 0 004.863 0A5.312 5.312 0 0028.9 52.24h13.783c.604 0 1.183-.236 1.61-.654.427-.418.667-.986.668-1.577v-2.463a2.215 2.215 0 00-.668-1.577 2.304 2.304 0 00-1.61-.654zM21.896 8.533c0-.586.32-1.128.838-1.421a1.706 1.706 0 011.676 0c.518.293.837.835.837 1.421v1.9a18.421 18.421 0 00-3.35 0v-1.9zm1.676 46.388a3.68 3.68 0 01-2.226-.75 3.556 3.556 0 01-1.29-1.93h7.032a3.556 3.556 0 01-1.29 1.93 3.68 3.68 0 01-2.226.75zm19.607-4.912a.49.49 0 01-.494.485H4.459a.49.49 0 01-.495-.485v-2.463a.49.49 0 01.495-.484 4.457 4.457 0 003.115-1.267 4.278 4.278 0 001.292-3.052V26.505c-.118-8.657 8.414-15.798 17.125-14.211a14.915 14.915 0 018.77 4.926 14.37 14.37 0 013.516 9.285v16.243a4.278 4.278 0 001.294 3.049 4.456 4.456 0 003.114 1.265.49.49 0 01.494.484v2.463zm3.548-26.907a21.417 21.417 0 00-2.795-8.18 21.856 21.856 0 00-5.825-6.467 2.872 2.872 0 00-2.758-.34 2.779 2.779 0 00-1.72 2.14c-.151.96.222 1.926.983 2.548 3.575 2.673 5.948 6.605 6.615 10.963.15.938.788 1.732 1.685 2.093a2.82 2.82 0 002.7-.326 2.695 2.695 0 001.115-2.431zm-2.002.92a1.011 1.011 0 01-1.033.288.985.985 0 01-.702-.797c-.732-4.806-3.346-9.142-7.287-12.09-1.02-.794.302-2.358 1.314-1.585a20.106 20.106 0 015.366 5.947 19.706 19.706 0 012.579 7.525.89.89 0 01-.237.713zM5.64 23.767c.666-4.357 3.038-8.29 6.613-10.963a2.739 2.739 0 00.964-2.54 2.778 2.778 0 00-1.71-2.128 2.872 2.872 0 00-2.745.32 21.85 21.85 0 00-5.827 6.467 21.41 21.41 0 00-2.795 8.18 2.63 2.63 0 00.669 2.08 2.83 2.83 0 003.799.319 2.724 2.724 0 001.032-1.735zm-3.73-.457a19.708 19.708 0 012.575-7.524 20.108 20.108 0 015.362-5.947 1.058 1.058 0 011.42.184c.35.421.302 1.035-.106 1.4-3.94 2.949-6.554 7.286-7.285 12.09a.987.987 0 01-1.081.808.976.976 0 01-.885-1.01z"/></symbol><symbol viewBox="0 0 22 24" id="basket" xmlns="http://www.w3.org/2000/svg"><g clip-path="url(#aba)"><path d="M10.363 18.443a2.046 2.046 0 00-2.045 2.042 2.046 2.046 0 004.09 0 2.046 2.046 0 00-2.045-2.042zm6.134 0a2.046 2.046 0 00-2.045 2.042 2.046 2.046 0 004.089 0 2.046 2.046 0 00-2.044-2.042zm3.978-8.199L7.413 6.891a.614.614 0 00-.75.73L8.67 16.4h-.786L5.482 5.895a.613.613 0 00-.474-.464l-4.27-.882A.614.614 0 00.489 5.75l3.885.802L6.797 17.15a.613.613 0 00.598.477h12.07a.615.615 0 00.607-.53l.858-6.175a.613.613 0 00-.455-.678zm-8.14 3.91a.613.613 0 01-1.227 0v-2.696a.613.613 0 011.227 0v2.696zm2.625 0a.613.613 0 01-1.227 0v-1.88a.613.613 0 011.227 0v1.88zm2.625 0a.613.613 0 01-1.227 0v-1.226a.613.613 0 011.227 0v1.226z"/></g><path fill-rule="evenodd" clip-rule="evenodd" d="M16.268 4.568a2.996 2.996 0 00-1.693-.523c-.627 0-1.21.193-1.693.523-.28-.843-.492-1.752-.492-2.383C12.39.98 13.37 0 14.575 0s2.185.98 2.185 2.185c0 .631-.212 1.54-.492 2.383zm-4.722 2.274l.024.006v-.011l-.024.005zm4.972 1.217c-1.333-.33-2.766-.681-4.129-1.013a2.185 2.185 0 114.129 1.013zm4.436 1.103c-.866-.217-2.155-.538-3.618-.9a2.995 2.995 0 00.243-1.425c.87.18 1.762.45 2.308.765.596.344.969.928 1.067 1.56zM9.869 6.439c-.36-.086-.706-.167-1.03-.243a2.19 2.19 0 01-.376-2.667 2.188 2.188 0 013.147-.7c.098.738.338 1.599.61 2.353a3.01 3.01 0 00-.449.774c-.628.113-1.305.278-1.902.483zm10.124.075a3.43 3.43 0 01-.217.114c-.696-.295-1.587-.526-2.397-.672a3.01 3.01 0 00-.449-.774c.262-.727.494-1.553.599-2.273.095-.067.189-.128.278-.18a2.188 2.188 0 012.986.8 2.188 2.188 0 01-.8 2.985z"/><defs><clipPath id="aba"><path transform="translate(0 3.064)" d="M0 0h20.936v20.936H0z"/></clipPath></defs></symbol><symbol viewBox="0 0 16 16" id="calendar" xmlns="http://www.w3.org/2000/svg"><g clip-path="url(#aca)"><path d="M14.667 2h-2V.667h-1.333V2H4.667V.667H3.334V2h-2v13.333h13.333V2zm-1.333 12H2.667V5.333h10.667V14z"/></g><defs><clipPath id="aca"><path d="M0 0h16v16H0z"/></clipPath></defs></symbol><symbol viewBox="0 0 24 24" id="change-contact" xmlns="http://www.w3.org/2000/svg"><g clip-path="url(#ada)"><path d="M6 8c1.1 0 2-.9 2-2s-.9-2-2-2-2 .9-2 2 .9 2 2 2zm4 3.43c0-.81-.48-1.53-1.22-1.85a6.95 6.95 0 00-5.56 0A2.01 2.01 0 002 11.43V12h8v-.57zM18 8c1.1 0 2-.9 2-2s-.9-2-2-2-2 .9-2 2 .9 2 2 2zm4 3.43c0-.81-.48-1.53-1.22-1.85a6.95 6.95 0 00-5.56 0A2.01 2.01 0 0014 11.43V12h8v-.57zM19 19v-2.01L5 17v2l-3-3 3-3v2.01L19 15v-2l3 3-3 3z"/></g><defs><clipPath id="ada"><path d="M0 0h24v24H0z"/></clipPath></defs></symbol><symbol viewBox="0 0 24 24" id="chat" xmlns="http://www.w3.org/2000/svg"><path fill-rule="evenodd" clip-rule="evenodd" d="M2 12C2 6.48 6.48 2 12 2s10 4.48 10 10-4.48 10-10 10S2 17.52 2 12zm11 4v2h-2v-2h2zm-1 4c-4.41 0-8-3.59-8-8s3.59-8 8-8 8 3.59 8 8-3.59 8-8 8zM8 10c0-2.21 1.79-4 4-4s4 1.79 4 4c0 1.283-.79 1.973-1.56 2.646C13.712 13.283 13 13.905 13 15h-2c0-1.821.942-2.543 1.77-3.178.65-.498 1.23-.943 1.23-1.822 0-1.1-.9-2-2-2s-2 .9-2 2H8z"/></symbol><symbol viewBox="0 0 344.96 344.96" id="check" xmlns="http://www.w3.org/2000/svg"><g data-name="Слой 2"><path class="afcls-1" d="M321.85 86.24l-40-23.11-23.1-40H212.5L172.48 0l-40 23.11H86.24l-23.11 40-40 23.1v46.21L0 172.48l23.11 40v46.21l40 23.11 23.11 40h46.21l40 23.1 40-23.11h46.21l23.11-40 40-23.11V212.5l23.11-40-23.11-40V86.24zM156.91 243.07a16.79 16.79 0 01-23.34 0l-50.45-50.44a16.19 16.19 0 010-22.89l13.35-13.35a16.19 16.19 0 0122.89 0l25.87 25.87 80.34-80.35a16.19 16.19 0 0122.89 0l13.35 13.35a16.19 16.19 0 010 22.89z" data-name="Capa 1"/></g></symbol><symbol viewBox="0 0 20 20" id="checked" xmlns="http://www.w3.org/2000/svg"><path d="M7.334 13.25l-3.5-3.5-1.167 1.167 4.667 4.666 10-10-1.167-1.166-8.833 8.833z"/></symbol><symbol viewBox="0 0 16 16" id="clock" xmlns="http://www.w3.org/2000/svg"><path fill-rule="evenodd" clip-rule="evenodd" d="M7.994 1.333A6.663 6.663 0 001.334 8c0 3.68 2.98 6.667 6.66 6.667A6.67 6.67 0 0014.667 8a6.67 6.67 0 00-6.673-6.667zm.007 12A5.332 5.332 0 012.667 8a5.332 5.332 0 015.334-5.333A5.332 5.332 0 0113.334 8a5.332 5.332 0 01-5.333 5.333zm-.667-8.666h1v3.5l3 1.78-.5.82-3.5-2.1v-4z"/></symbol><symbol viewBox="0 0 28 16" id="coalla-logo" xmlns="http://www.w3.org/2000/svg"><path fill-rule="evenodd" clip-rule="evenodd" d="M23 11l-1-2c.022 0 .042 0 0 0 3.048-.075 4.049-1.657 4.049-3.5a3.6 3.6 0 00-3.512-3.536C18.108 2 19.307 8.381 19 7c-.565-.31-.892-1.343-1.686-1.54a12.176 12.176 0 00-6.629 0c-.794.2-1.12 1.23-1.686 1.54-.307 1.381.892-5-3.537-5.036A3.6 3.6 0 001.951 5.5c0 1.843 1 3.425 4.049 3.5-.044 0-.023 0 0 0l-1 2a5.6 5.6 0 01-5-5.522A5.52 5.52 0 015.463 0a5.187 5.187 0 014.845 3.475c.03.071.053.15.08.225a23.804 23.804 0 013.088-.657c.173-.028.348-.042.524-.043 1.226.103 2.436.338 3.612.7.027-.075.05-.155.08-.225A5.187 5.187 0 0122.537 0 5.521 5.521 0 0128 5.478 5.6 5.6 0 0123 11zm-1-2c-.022 0-.048 0 0 0zM6 9c.048 0 .022 0 0 0zm3.318 0a1.342 1.342 0 01.627 1.691 1.069 1.069 0 11-.628-1.684L9.318 9zM14 8.995c1.1 0 2 1.57 2 3.505 0 1.935-.9 3.5-2 3.5-1.076 0-1.952-1.492-2-3.355v-.3c.045-1.861.921-3.35 2-3.35zm4.686.013a1.354 1.354 0 011.261 1.292 1.069 1.069 0 11-1.89.4 1.342 1.342 0 01.626-1.693l.003.001z"/></symbol><symbol viewBox="0 0 20 20" id="download" xmlns="http://www.w3.org/2000/svg"><path d="M9.167 4.167a.833.833 0 011.667 0v5.965l2.702-2.703 1.178 1.179L10 13.322 5.286 8.608l1.179-1.179 2.702 2.702V4.167z"/><path d="M3.333 11.667H5V15h10v-3.333h1.667V15c0 .92-.746 1.667-1.667 1.667H5c-.92 0-1.667-.747-1.667-1.667v-3.333z"/></symbol><symbol viewBox="0 0 24 24" id="exit" xmlns="http://www.w3.org/2000/svg"><g clip-path="url(#aka)"><path d="M10.09 15.59L11.5 17l5-5-5-5-1.41 1.41L12.67 11H3v2h9.67l-2.58 2.59zM19 3H5a2 2 0 00-2 2v4h2V5h14v14H5v-4H3v4a2 2 0 002 2h14c1.1 0 2-.9 2-2V5c0-1.1-.9-2-2-2z"/></g><defs><clipPath id="aka"><path d="M0 0h24v24H0z"/></clipPath></defs></symbol><symbol viewBox="0 0 24 24" id="fb" xmlns="http://www.w3.org/2000/svg"><path d="M13.397 20.997v-8.196h2.765l.411-3.209h-3.176V7.548c0-.926.258-1.56 1.587-1.56h1.684v-2.86A22.108 22.108 0 0014.201 3c-2.444 0-4.122 1.492-4.122 4.231v2.355H7.332v3.21h2.753v8.201h3.312z"/></symbol><symbol viewBox="0 0 24 24" id="filter" xmlns="http://www.w3.org/2000/svg"><g clip-path="url(#ama)"><path d="M3 17v2h6v-2H3zM3 5v2h10V5H3zm10 16v-2h8v-2h-8v-2h-2v6h2zM7 9v2H3v2h4v2h2V9H7zm14 4v-2H11v2h10zm-6-4h2V7h4V5h-4V3h-2v6z"/></g><defs><clipPath id="ama"><path d="M0 0h24v24H0z"/></clipPath></defs></symbol><symbol viewBox="0 0 24 24" id="help" xmlns="http://www.w3.org/2000/svg"><path fill-rule="evenodd" clip-rule="evenodd" d="M2 12C2 6.48 6.48 2 12 2s10 4.48 10 10-4.48 10-10 10S2 17.52 2 12zm11 4v2h-2v-2h2zm-1 4c-4.41 0-8-3.59-8-8s3.59-8 8-8 8 3.59 8 8-3.59 8-8 8zM8 10c0-2.21 1.79-4 4-4s4 1.79 4 4c0 1.283-.79 1.973-1.56 2.646C13.712 13.283 13 13.905 13 15h-2c0-1.821.942-2.543 1.77-3.178.65-.498 1.23-.943 1.23-1.822 0-1.1-.9-2-2-2s-2 .9-2 2H8z"/></symbol><symbol viewBox="0 0 22 10" id="in" xmlns="http://www.w3.org/2000/svg"><path d="M19.25 2.447c0 1.346-1.238 2.447-2.75 2.447s-2.75-1.101-2.75-2.447S14.988 0 16.5 0s2.75 1.101 2.75 2.447zm1.073 4.38C21.34 7.22 22 8.1 22 9.091v.697H11v-.697c0-.991.66-1.872 1.678-2.264a10.577 10.577 0 013.822-.71c1.361 0 2.654.258 3.823.71zM6.1 7.165v2.623L10 5.873 6.1 1.958v2.61H0v2.597h6.1z"/></symbol><symbol viewBox="0 0 24 24" id="instagram" xmlns="http://www.w3.org/2000/svg"><path d="M11.999 7.377a4.624 4.624 0 100 9.248 4.624 4.624 0 000-9.248zm0 7.627a3.004 3.004 0 110-6.008 3.004 3.004 0 010 6.008zm4.807-6.719a1.078 1.078 0 100-2.156 1.078 1.078 0 000 2.156z"/><path d="M20.533 6.11A4.605 4.605 0 0017.9 3.48a6.607 6.607 0 00-2.186-.42c-.963-.042-1.268-.054-3.71-.054s-2.755 0-3.71.054a6.554 6.554 0 00-2.184.42 4.6 4.6 0 00-2.633 2.63 6.585 6.585 0 00-.419 2.186c-.043.962-.056 1.267-.056 3.71 0 2.442 0 2.753.056 3.71.015.748.156 1.486.419 2.187a4.61 4.61 0 002.634 2.632 6.583 6.583 0 002.185.45c.963.042 1.268.055 3.71.055s2.755 0 3.71-.055a6.616 6.616 0 002.186-.42 4.613 4.613 0 002.633-2.632c.263-.7.404-1.438.419-2.186.043-.962.056-1.267.056-3.71s0-2.753-.056-3.71a6.583 6.583 0 00-.421-2.217zm-1.218 9.533a5.046 5.046 0 01-.311 1.688 2.987 2.987 0 01-1.712 1.71c-.535.2-1.1.305-1.67.312-.95.044-1.218.055-3.654.055-2.438 0-2.687 0-3.655-.055a4.961 4.961 0 01-1.67-.311 2.984 2.984 0 01-1.718-1.711 5.08 5.08 0 01-.311-1.67c-.043-.95-.053-1.217-.053-3.653 0-2.437 0-2.686.053-3.655a5.038 5.038 0 01.311-1.687c.305-.79.93-1.41 1.719-1.712a5.01 5.01 0 011.669-.311c.95-.043 1.218-.055 3.655-.055s2.687 0 3.654.055a4.96 4.96 0 011.67.31 2.99 2.99 0 011.712 1.713 5.06 5.06 0 01.311 1.669c.043.95.054 1.218.054 3.655 0 2.436 0 2.698-.043 3.654h-.011v-.001z"/></symbol><symbol viewBox="0 0 24 24" id="letter" xmlns="http://www.w3.org/2000/svg"><path fill-rule="evenodd" clip-rule="evenodd" d="M22 6c0-1.1-.9-2-2-2H4c-1.1 0-2 .9-2 2v12c0 1.1.9 2 2 2h16c1.1 0 2-.9 2-2V6zm-2 0l-8 5-8-5h16zm-8 7L4 8v10h16V8l-8 5z"/></symbol><symbol viewBox="0 0 24 24" id="letter-read" xmlns="http://www.w3.org/2000/svg"><path fill-rule="evenodd" clip-rule="evenodd" d="M21.99 8.5c0-.72-.37-1.35-.94-1.7L12 1.5 2.95 6.8c-.57.35-.95.98-.95 1.7v10c0 1.1.9 2 2 2h16c1.1 0 2-.9 2-2l-.01-10zm-2 0v.01L12 13.5l-8-5 8-4.68 7.99 4.68zM4 10.84v7.66h16l-.01-7.63L12 15.86l-8-5.02z"/></symbol><symbol viewBox="0 0 24 24" id="like-btn" xmlns="http://www.w3.org/2000/svg"><path d="M12 21.35l-1.45-1.32C5.4 15.36 2 12.28 2 8.5 2 5.42 4.42 3 7.5 3c1.74 0 3.41.81 4.5 2.09C13.09 3.81 14.76 3 16.5 3 19.58 3 22 5.42 22 8.5c0 3.78-3.4 6.86-8.55 11.54L12 21.35z"/></symbol><symbol viewBox="0 0 16 16" id="list" xmlns="http://www.w3.org/2000/svg"><path fill-rule="evenodd" clip-rule="evenodd" d="M2 2h5.6v5.6H2V2zm1.333 1.333v2.934h2.934V3.333H3.333zM8.4 2H14v5.6H8.4V2zm1.333 1.333v2.934h2.934V3.333H9.733zM2 8.4h5.6V14H2V8.4zm1.333 1.333v2.934h2.934V9.733H3.333zM8.4 8.4H14V14H8.4V8.4zm1.333 1.333v2.934h2.934V9.733H9.733z"/></symbol><symbol viewBox="0 0 24 24" id="list2" xmlns="http://www.w3.org/2000/svg"><g clip-path="url(#aua)"><path d="M3 13h2v-2H3v2zm0 4h2v-2H3v2zm0-8h2V7H3v2zm4 4h14v-2H7v2zm0 4h14v-2H7v2zM7 7v2h14V7H7z"/></g><defs><clipPath id="aua"><path d="M0 0h24v24H0z"/></clipPath></defs></symbol><symbol viewBox="0 0 196 264" id="materials-bg" xmlns="http://www.w3.org/2000/svg"><g clip-path="url(#ava)"><path d="M-124-122.294l250.91 243.53c6.071 5.892 6.071 15.636 0 21.528L-124 386.294v-508.588z"/><path d="M-108-85.465l212.117 205.879c6.071 5.892 6.071 15.635 0 21.527L-108 347.82V-85.465z"/><path d="M-85-42.136l167.476 162.55c6.07 5.892 6.07 15.635 0 21.527L-85 304.491V-42.136z"/><path d="M-64-.974L61.066 120.414c6.071 5.892 6.071 15.635 0 21.527L-64 263.329V-.974z"/></g><defs><clipPath id="ava"><path d="M0 0h196v264H0z"/></clipPath></defs></symbol><symbol viewBox="0 0 24 24" id="msg" xmlns="http://www.w3.org/2000/svg"><g clip-path="url(#awa)"><path d="M20 17.17L18.83 16H4V4h16v13.17zM20 2H4c-1.1 0-2 .9-2 2v12c0 1.1.9 2 2 2h14l4 4V4c0-1.1-.9-2-2-2z"/></g><defs><clipPath id="awa"><path d="M0 0h24v24H0z"/></clipPath></defs></symbol><symbol viewBox="0 0 24 24" id="notifications" xmlns="http://www.w3.org/2000/svg"><path fill-rule="evenodd" clip-rule="evenodd" d="M18 15.75v-5c0-3.07-1.63-5.64-4.5-6.32v-.68c0-.83-.67-1.5-1.5-1.5s-1.5.67-1.5 1.5v.68C7.64 5.11 6 7.67 6 10.75v5l-2 2v1h16v-1l-2-2zm-6 6c1.1 0 2-.9 2-2h-4c0 1.1.9 2 2 2zm-4-5h8v-6c0-2.48-1.51-4.5-4-4.5s-4 2.02-4 4.5v6z"/></symbol><symbol viewBox="0 0 12 20" id="ok" xmlns="http://www.w3.org/2000/svg"><path fill-rule="evenodd" clip-rule="evenodd" d="M11.333 5.161c0 2.846-2.397 5.16-5.347 5.16-2.948 0-5.346-2.314-5.346-5.16S3.038 0 5.986 0c2.95 0 5.347 2.315 5.347 5.161zm-3.133 0c0-1.178-.993-2.136-2.214-2.136-1.22 0-2.213.958-2.213 2.136 0 1.178.994 2.137 2.213 2.137 1.221 0 2.214-.96 2.214-2.137z"/><path d="M11.268 13.293a10.22 10.22 0 01-3.105 1.24l2.99 2.886c.611.59.611 1.548 0 2.138-.613.59-1.604.59-2.215 0L6 16.722l-2.936 2.835A1.594 1.594 0 011.955 20c-.4 0-.801-.148-1.107-.443a1.476 1.476 0 01-.001-2.138l2.99-2.885a10.234 10.234 0 01-3.105-1.242 1.482 1.482 0 01-.49-2.085c.459-.707 1.426-.92 2.159-.475a6.996 6.996 0 007.198 0c.733-.445 1.7-.232 2.16.476.461.706.24 1.64-.491 2.085z"/></symbol><symbol viewBox="0 0 22 11" id="out" xmlns="http://www.w3.org/2000/svg"><path d="M19.25 3.12c0 1.345-1.238 2.446-2.75 2.446s-2.75-1.101-2.75-2.447S14.988.672 16.5.672s2.75 1.101 2.75 2.447zm1.073 4.38C21.34 7.89 22 8.771 22 9.762v.697H11v-.697c0-.991.66-1.872 1.678-2.264a10.577 10.577 0 013.822-.71c1.361 0 2.654.258 3.823.71zM3.9 7.837v2.623L0 6.545 3.9 2.63v2.61H10v2.597H3.9z"/></symbol><symbol viewBox="0 0 24 24" id="pen" xmlns="http://www.w3.org/2000/svg"><path fill-rule="evenodd" clip-rule="evenodd" d="M18.369 3.29l2.34 2.34c.39.39.39 1.02 0 1.41l-1.83 1.83-3.75-3.75 1.83-1.83c.19-.19.44-.29.7-.29.26 0 .51.09.71.29zM2.999 17.25V21h3.75l11.06-11.06-3.75-3.75-11.06 11.06zM5.919 19h-.92v-.92l9.06-9.06.92.92L5.919 19z"/></symbol><symbol viewBox="0 0 24 24" id="person" xmlns="http://www.w3.org/2000/svg"><path fill-rule="evenodd" clip-rule="evenodd" d="M12 4C9.79 4 8 5.79 8 8s1.79 4 4 4 4-1.79 4-4-1.79-4-4-4zm2 4c0-1.1-.9-2-2-2s-2 .9-2 2 .9 2 2 2 2-.9 2-2zm4 10c-.2-.71-3.3-2-6-2-2.69 0-5.77 1.28-6 2h12zM4 18c0-2.66 5.33-4 8-4s8 1.34 8 4v2H4v-2z"/></symbol><symbol viewBox="0 0 24 24" id="question" xmlns="http://www.w3.org/2000/svg"><g clip-path="url(#bca)"><path d="M21 6h-2v9H6v2c0 .55.45 1 1 1h11l4 4V7c0-.55-.45-1-1-1zm-4 6V3c0-.55-.45-1-1-1H3c-.55 0-1 .45-1 1v14l4-4h10c.55 0 1-.45 1-1z"/></g><defs><clipPath id="bca"><path d="M0 0h24v24H0z"/></clipPath></defs></symbol><symbol viewBox="0 0 20 20" id="telegram" xmlns="http://www.w3.org/2000/svg"><path fill-rule="evenodd" clip-rule="evenodd" d="M1.375 8.61c5.369-2.823 8.949-4.683 10.74-5.582C17.229.46 18.292.015 18.985 0c.152-.003.493.042.713.259.186.182.238.428.262.601.025.173.055.567.031.875-.277 3.514-1.476 12.041-2.086 15.977-.259 1.665-.767 2.223-1.259 2.278-1.07.119-1.882-.853-2.917-1.672-1.621-1.282-2.537-2.08-4.11-3.331-1.818-1.446-.64-2.24.396-3.54.272-.34 4.984-5.511 5.075-5.98.011-.059.022-.278-.086-.393-.107-.116-.266-.076-.381-.045-.163.045-2.752 2.11-7.768 6.196-.735.609-1.4.905-1.997.89-.658-.017-1.923-.449-2.863-.818-1.153-.452-2.07-.691-1.99-1.46.041-.4.498-.809 1.37-1.227z"/></symbol><symbol viewBox="0 0 24 24" id="telegram-2" xmlns="http://www.w3.org/2000/svg"><path fill-rule="evenodd" clip-rule="evenodd" d="M3.087 11.422c4.832-2.105 8.054-3.493 9.666-4.164 4.603-1.914 5.56-2.247 6.183-2.258.137-.002.443.032.642.193.168.136.214.32.236.449.022.129.05.423.028.652-.25 2.621-1.33 8.981-1.878 11.916-.233 1.242-.69 1.659-1.133 1.7-.963.088-1.693-.636-2.626-1.247-1.458-.957-2.283-1.552-3.698-2.485-1.637-1.079-.576-1.671.357-2.64.244-.253 4.484-4.11 4.566-4.46.01-.044.02-.208-.077-.294-.096-.086-.24-.056-.343-.033-.146.033-2.476 1.574-6.991 4.621-.661.454-1.26.675-1.797.664-.592-.013-1.73-.335-2.577-.61-1.038-.337-1.863-.516-1.791-1.089.037-.298.448-.603 1.233-.915z"/></symbol><symbol viewBox="0 0 24 24" id="tune" xmlns="http://www.w3.org/2000/svg"><g clip-path="url(#bfa)"><path d="M3 17v2h6v-2H3zM3 5v2h10V5H3zm10 16v-2h8v-2h-8v-2h-2v6h2zM7 9v2H3v2h4v2h2V9H7zm14 4v-2H11v2h10zm-6-4h2V7h4V5h-4V3h-2v6z"/></g><defs><clipPath id="bfa"><path d="M0 0h24v24H0z"/></clipPath></defs></symbol><symbol viewBox="0 0 16 16" id="viber" xmlns="http://www.w3.org/2000/svg"><path d="M8 1.335c-1.071.013-3.374.19-4.662 1.37-.958.948-1.292 2.35-1.331 4.084-.033 1.728-.072 4.973 3.058 5.856v1.346s-.02.538.337.648c.438.14.688-.275 1.105-.72l.778-.879c2.142.178 3.782-.232 3.97-.293.435-.139 2.883-.451 3.283-3.696.41-3.351-.2-5.463-1.301-6.418h-.007c-.332-.306-1.668-1.279-4.652-1.29 0 0-.222-.014-.578-.008zm.037.942a7.02 7.02 0 01.488.011c2.527.007 3.732.767 4.017 1.023.927.794 1.405 2.697 1.055 5.495-.332 2.713-2.317 2.885-2.685 3.002-.156.05-1.6.406-3.42.289 0 0-1.356 1.634-1.78 2.055-.067.074-.146.095-.196.085-.071-.018-.093-.107-.089-.229l.013-2.233c-2.655-.733-2.498-3.5-2.47-4.946.033-1.446.304-2.628 1.113-3.43 1.088-.982 3.043-1.115 3.953-1.122zm.2 1.446a.166.166 0 100 .332 3.136 3.136 0 012.242.883c.606.588.9 1.378.912 2.411 0 .092.074.167.167.167V7.51a.167.167 0 00.168-.165 3.588 3.588 0 00-1.009-2.646c-.66-.645-1.496-.977-2.48-.977zm-2.198.382a.523.523 0 00-.342.067H5.69a2.61 2.61 0 00-.637.523 1.003 1.003 0 00-.256.525.71.71 0 00.026.302l.01.006c.172.504.396.988.67 1.444a8.48 8.48 0 001.29 1.762l.015.022.024.017.015.018.017.015c.532.505 1.127.94 1.769 1.295.734.4 1.18.588 1.447.667v.004c.078.024.15.034.221.034.228-.016.444-.109.613-.262a2.53 2.53 0 00.517-.638v-.004c.128-.241.085-.469-.1-.623-.37-.323-.77-.61-1.195-.857-.285-.155-.574-.061-.69.095l-.25.315c-.129.156-.361.134-.361.134l-.007.004C7.093 8.527 6.63 6.772 6.63 6.772s-.022-.239.139-.36l.312-.252c.15-.122.254-.41.094-.695a7.498 7.498 0 00-.856-1.194.475.475 0 00-.28-.167zm2.486.495c-.221 0-.221.334.003.334A2.098 2.098 0 0110 5.572 1.94 1.94 0 0110.5 7a.168.168 0 00.167.165l.007.009a.169.169 0 00.167-.167c.015-.662-.191-1.218-.595-1.663C9.84 4.9 9.273 4.65 8.549 4.6h-.024zm.274.898c-.228-.006-.236.335-.01.341.55.029.816.306.851.877a.166.166 0 00.165.163h.007a.168.168 0 00.16-.178c-.039-.744-.445-1.164-1.166-1.202H8.8z"/></symbol><symbol viewBox="0 0 21 12" id="vk" xmlns="http://www.w3.org/2000/svg"><path fill-rule="evenodd" clip-rule="evenodd" d="M20.506.833c.155-.47 0-.812-.69-.812h-2.29c-.579 0-.846.3-1.001.62 0 0-1.179 2.733-2.825 4.505-.534.512-.778.683-1.067.683-.156 0-.356-.17-.356-.64V.81c0-.555-.178-.811-.667-.811H8.007c-.356 0-.579.256-.579.512 0 .534.823.662.912 2.157v3.246c0 .704-.133.832-.422.832-.779 0-2.67-2.754-3.803-5.893C3.892.234 3.67 0 3.09 0H.778C.111 0 0 .299 0 .62c0 .576.778 3.48 3.625 7.323 1.89 2.626 4.582 4.036 7.006 4.036 1.468 0 1.646-.32 1.646-.854V9.139c0-.64.133-.748.6-.748.334 0 .934.171 2.291 1.431C16.725 11.317 16.992 12 17.86 12h2.291c.667 0 .979-.32.8-.94-.2-.619-.956-1.516-1.934-2.583-.534-.598-1.335-1.26-1.58-1.58-.333-.427-.244-.598 0-.982-.022 0 2.78-3.801 3.07-5.082z"/></symbol><symbol viewBox="0 0 20 20" id="whatsapp" xmlns="http://www.w3.org/2000/svg"><path fill-rule="evenodd" clip-rule="evenodd" d="M20 10c0 5.523-4.477 10-10 10a9.954 9.954 0 01-5.03-1.355L0 20l1.355-4.97A9.954 9.954 0 010 10C0 4.477 4.477 0 10 0s10 4.477 10 10zM7.155 5.006c.19.008.4.017.6.459.136.302.366.866.549 1.315.134.33.244.598.272.654.067.132.111.287.022.465l-.037.074a1.518 1.518 0 01-.23.368l-.137.164c-.091.11-.183.222-.262.3-.134.133-.273.276-.117.542.156.265.69 1.134 1.483 1.837a6.893 6.893 0 001.966 1.237c.074.032.133.058.177.08.267.132.422.11.578-.067.155-.177.666-.774.843-1.04.178-.265.356-.221.6-.133.245.089 1.555.73 1.822.863.051.026.1.05.145.07.186.09.312.15.366.24.066.11.066.642-.156 1.26-.222.62-1.31 1.218-1.799 1.262l-.142.015c-.452.053-1.022.12-3.056-.679-2.505-.983-4.156-3.419-4.497-3.921l-.057-.083-.003-.004C5.94 10.09 5 8.84 5 7.544c0-1.221.603-1.862.88-2.156l.015-.015.038-.041A.98.98 0 016.643 5h.03c.167 0 .335 0 .482.006z"/></symbol></svg>