<?xml version="1.0" encoding="utf-8"?><svg xmlns="http://www.w3.org/2000/svg" xmlns:xlink="http://www.w3.org/1999/xlink"><symbol viewBox="0 0 100 100" id="alerts" xmlns="http://www.w3.org/2000/svg"><path fill-rule="evenodd" clip-rule="evenodd" d="M54.14 47.124a.86.86 0 011.21 0l1.534 1.521 1.249-1.238a.86.86 0 011.21 0 .844.844 0 010 1.2l-1.249 1.239 1.534 1.521a.844.844 0 010 1.2.86.86 0 01-1.21 0l-1.534-1.521-1.534 1.521a.86.86 0 01-1.21 0 .844.844 0 010-1.2l1.534-1.521-1.535-1.522a.844.844 0 010-1.2zm-15.118.566a.86.86 0 011.21 0l1.82 1.804 1.819-1.804a.86.86 0 011.21 0 .844.844 0 010 1.2l-1.82 1.804 1.25 1.239a.844.844 0 010 1.2.86.86 0 01-1.21 0l-1.25-1.239-1.534 1.522a.86.86 0 01-1.21 0 .844.844 0 010-1.2l1.534-1.522-1.82-1.804a.844.844 0 010-1.2zm16.16 11.833c-1.76-2.523-6.767-4.013-10.652.097a.86.86 0 01-1.21.039.844.844 0 01-.039-1.2c4.672-4.942 10.961-3.265 13.308.097a.844.844 0 01-.216 1.181.86.86 0 01-1.191-.214zm11.453-39.5c.46.107.745.564.637 1.02l-1.128 4.769a.856.856 0 01-1.666-.388l1.128-4.769a.856.856 0 011.029-.632zm5.718 2.79a.844.844 0 01.104 1.196l-3.872 4.567a.86.86 0 01-1.206.104.844.844 0 01-.104-1.196l3.872-4.568a.86.86 0 011.206-.103zm-2.345 7.809a.847.847 0 01.54-1.075l4.868-1.616a.857.857 0 011.083.535.847.847 0 01-.54 1.075l-4.868 1.616a.857.857 0 01-1.083-.535z"/><path d="M68.564 65.263a2.655 2.655 0 01-1.856-.754 2.549 2.549 0 01-.77-1.818V46.452a16.102 16.102 0 00-3.704-10.117 16.69 16.69 0 00-9.326-5.66V28.48c0-1.21-.658-2.329-1.728-2.934a3.521 3.521 0 00-3.459 0 3.376 3.376 0 00-1.729 2.934v2.195a16.694 16.694 0 00-9.325 5.66 16.105 16.105 0 00-3.705 10.117v16.243a2.55 2.55 0 01-.77 1.815 2.657 2.657 0 01-1.855.752 2.303 2.303 0 00-1.609.655 2.212 2.212 0 00-.668 1.577v2.462c.001.592.241 1.159.668 1.577a2.304 2.304 0 001.61.654H44.12a5.312 5.312 0 002.898 3.826 5.51 5.51 0 004.863 0 5.312 5.312 0 002.898-3.826h13.783c.604 0 1.183-.235 1.61-.654.427-.418.667-.985.667-1.577v-2.462c0-.592-.24-1.159-.667-1.577a2.304 2.304 0 00-1.61-.654zM47.775 28.48c0-.587.32-1.129.838-1.422a1.707 1.707 0 011.676 0c.518.293.837.835.837 1.422v1.9a18.44 18.44 0 00-3.35 0v-1.9zm1.676 46.388a3.68 3.68 0 01-2.227-.75 3.556 3.556 0 01-1.29-1.931h7.033a3.556 3.556 0 01-1.29 1.93 3.68 3.68 0 01-2.226.75zm19.607-4.912a.49.49 0 01-.494.484H30.338a.49.49 0 01-.495-.484v-2.463a.49.49 0 01.495-.485 4.457 4.457 0 003.115-1.266 4.278 4.278 0 001.292-3.052V46.452c-.118-8.657 8.414-15.798 17.125-14.21a14.915 14.915 0 018.77 4.925 14.37 14.37 0 013.516 9.285v16.243a4.278 4.278 0 001.294 3.05 4.457 4.457 0 003.113 1.264.49.49 0 01.495.485v2.463zm3.548-26.908a21.416 21.416 0 00-2.795-8.18 21.857 21.857 0 00-5.826-6.466 2.872 2.872 0 00-2.758-.34 2.779 2.779 0 00-1.72 2.14c-.15.96.223 1.926.984 2.548 3.575 2.672 5.948 6.604 6.615 10.963.15.938.788 1.732 1.685 2.093a2.82 2.82 0 002.7-.326 2.695 2.695 0 001.115-2.432zm-2.002.921a1.011 1.011 0 01-1.034.287.984.984 0 01-.7-.797c-.733-4.805-3.347-9.142-7.288-12.09-1.02-.794.302-2.358 1.314-1.585a20.106 20.106 0 015.366 5.947 19.708 19.708 0 012.579 7.525.89.89 0 01-.237.713zm-39.085-.256c.666-4.358 3.038-8.29 6.613-10.964a2.739 2.739 0 00.964-2.54 2.778 2.778 0 00-1.71-2.128 2.872 2.872 0 00-2.745.32 21.853 21.853 0 00-5.827 6.467 21.411 21.411 0 00-2.796 8.18c-.09.755.154 1.512.67 2.08a2.83 2.83 0 003.799.319 2.724 2.724 0 001.032-1.734zm-3.73-.457a19.71 19.71 0 012.575-7.524 20.108 20.108 0 015.362-5.948 1.058 1.058 0 011.42.185c.35.42.302 1.034-.106 1.4-3.941 2.948-6.554 7.285-7.285 12.09a.987.987 0 01-1.081.807.976.976 0 01-.885-1.01z"/></symbol><symbol viewBox="0 0 20 27" id="arrow-right" xmlns="http://www.w3.org/2000/svg"><path d="M18.045 13.222l-4.513 5.753M2 13.222h16.045H2zm16.045 0l-4.513-5.221 4.513 5.221z"/></symbol><symbol viewBox="0 0 22 24" id="basket" xmlns="http://www.w3.org/2000/svg"><g clip-path="url(#aca)"><path d="M10.363 18.443a2.046 2.046 0 00-2.045 2.042 2.046 2.046 0 004.09 0 2.046 2.046 0 00-2.045-2.042zm6.134 0a2.046 2.046 0 00-2.045 2.042 2.046 2.046 0 004.089 0 2.046 2.046 0 00-2.044-2.042zm3.978-8.199L7.413 6.891a.614.614 0 00-.75.73L8.67 16.4h-.786L5.482 5.895a.613.613 0 00-.474-.464l-4.27-.882A.614.614 0 00.489 5.75l3.885.802L6.797 17.15a.613.613 0 00.598.477h12.07a.615.615 0 00.607-.53l.858-6.175a.613.613 0 00-.455-.678zm-8.14 3.91a.613.613 0 01-1.227 0v-2.696a.613.613 0 011.227 0v2.696zm2.625 0a.613.613 0 01-1.227 0v-1.88a.613.613 0 011.227 0v1.88zm2.625 0a.613.613 0 01-1.227 0v-1.226a.613.613 0 011.227 0v1.226z"/></g><path fill-rule="evenodd" clip-rule="evenodd" d="M16.268 4.568a2.996 2.996 0 00-1.693-.523c-.627 0-1.21.193-1.693.523-.28-.843-.492-1.752-.492-2.383C12.39.98 13.37 0 14.575 0s2.185.98 2.185 2.185c0 .631-.212 1.54-.492 2.383zm-4.722 2.274l.024.006v-.011l-.024.005zm4.972 1.217c-1.333-.33-2.766-.681-4.129-1.013a2.185 2.185 0 114.129 1.013zm4.436 1.103c-.866-.217-2.155-.538-3.618-.9a2.995 2.995 0 00.243-1.425c.87.18 1.762.45 2.308.765.596.344.969.928 1.067 1.56zM9.869 6.439c-.36-.086-.706-.167-1.03-.243a2.19 2.19 0 01-.376-2.667 2.188 2.188 0 013.147-.7c.098.738.338 1.599.61 2.353a3.01 3.01 0 00-.449.774c-.628.113-1.305.278-1.902.483zm10.124.075a3.43 3.43 0 01-.217.114c-.696-.295-1.587-.526-2.397-.672a3.01 3.01 0 00-.449-.774c.262-.727.494-1.553.599-2.273.095-.067.189-.128.278-.18a2.188 2.188 0 012.986.8 2.188 2.188 0 01-.8 2.985z"/><defs><clipPath id="aca"><path transform="translate(0 3.064)" d="M0 0h20.936v20.936H0z"/></clipPath></defs></symbol><symbol viewBox="0 0 43 152" id="braces" xmlns="http://www.w3.org/2000/svg"><path d="M6.706 151.911H0v-3.273h6.706c4.906 0 9.05-1.691 12.43-5.073 3.38-3.382 5.07-8.183 5.07-14.402V93.651c0-4.473 1.253-8.182 3.761-11.128 2.508-3.055 5.506-5.237 8.995-6.546-3.489-1.31-6.487-3.437-8.995-6.383-2.508-3.054-3.762-6.818-3.762-11.291V22.79c0-6.218-1.69-11.019-5.07-14.4-3.38-3.383-7.523-5.074-12.43-5.074H0V.043h6.706c5.451 0 10.249 2.018 14.392 6.055 4.252 3.928 6.378 9.492 6.378 16.692v35.513c0 4.91 1.69 8.837 5.07 11.782 3.38 2.837 6.706 4.255 9.977 4.255v3.273c-3.271 0-6.597 1.473-9.977 4.419-3.38 2.837-5.07 6.71-5.07 11.62v35.511c0 7.201-2.126 12.765-6.378 16.693-4.143 4.037-8.94 6.055-14.392 6.055z"/></symbol><symbol viewBox="0 0 308 32" id="braces-2" xmlns="http://www.w3.org/2000/svg"><path d="M0 5.046V0h2.5v5.046c0 3.692 1.292 6.81 3.875 9.354 2.583 2.544 6.25 3.815 11 3.815H140.5c3.417 0 6.25.944 8.5 2.831 2.333 1.887 4 4.144 5 6.77 1-2.626 2.625-4.883 4.875-6.77 2.333-1.887 5.208-2.83 8.625-2.83h123.125c4.75 0 8.417-1.272 11-3.816 2.583-2.544 3.875-5.662 3.875-9.354V0h2.5v5.046c0 4.103-1.542 7.713-4.625 10.83-3 3.2-7.25 4.8-12.75 4.8H167.5c-3.75 0-6.75 1.273-9 3.816-2.167 2.544-3.25 5.046-3.25 7.508h-2.5c0-2.462-1.125-4.964-3.375-7.508-2.167-2.543-5.125-3.815-8.875-3.815H17.375c-5.5 0-9.75-1.6-12.75-4.8C1.542 12.759 0 9.149 0 5.047z"/></symbol><symbol viewBox="0 0 16 16" id="calendar" xmlns="http://www.w3.org/2000/svg"><g clip-path="url(#afa)"><path d="M14 2h-2V.667h-1.333V2H5.333V.667H4V2H2v12h12V2zm-1.333 10.667H3.333v-8h9.334v8z"/></g><defs><clipPath id="afa"><path d="M0 0h16v16H0z"/></clipPath></defs></symbol><symbol viewBox="0 0 128 127" id="cap" xmlns="http://www.w3.org/2000/svg"><path d="M89.653 104.05a58.368 58.368 0 007.896-4.178v19.185a3.946 3.946 0 01-3.948 3.948 3.946 3.946 0 01-3.948-3.948V104.05zM60.507 46.133a3.947 3.947 0 001.625 5.341l23.08 12.309 8.389-4.474-27.753-14.802a3.947 3.947 0 00-5.341 1.626zm64.563-1.626L65.848 12.922a3.949 3.949 0 00-3.716 0L2.911 44.507a3.948 3.948 0 000 6.967l11.728 6.255v24.538a7.925 7.925 0 001.576 4.735c3.911 5.204 18.914 22.184 47.775 22.184a63.493 63.493 0 0025.663-5.16V66.152l-4.442-2.369-21.22 11.318-43.51-23.205-.029-.015-7.294-3.89L63.99 20.88l50.832 27.11-7.294 3.89-.028.016-13.899 7.413 1.858.99a3.999 3.999 0 012.09 3.484v36.06a54.505 54.505 0 0014.216-12.841 7.93 7.93 0 001.577-4.735V57.73l11.728-6.255a3.948 3.948 0 000-6.967z"/></symbol><symbol viewBox="0 0 24 24" id="change-contact" xmlns="http://www.w3.org/2000/svg"><g clip-path="url(#aha)"><path d="M6 8c1.1 0 2-.9 2-2s-.9-2-2-2-2 .9-2 2 .9 2 2 2zm4 3.43c0-.81-.48-1.53-1.22-1.85a6.95 6.95 0 00-5.56 0A2.01 2.01 0 002 11.43V12h8v-.57zM18 8c1.1 0 2-.9 2-2s-.9-2-2-2-2 .9-2 2 .9 2 2 2zm4 3.43c0-.81-.48-1.53-1.22-1.85a6.95 6.95 0 00-5.56 0A2.01 2.01 0 0014 11.43V12h8v-.57zM19 19v-2.01L5 17v2l-3-3 3-3v2.01L19 15v-2l3 3-3 3z"/></g><defs><clipPath id="aha"><path d="M0 0h24v24H0z"/></clipPath></defs></symbol><symbol viewBox="0 0 24 24" id="chat" xmlns="http://www.w3.org/2000/svg"><path fill-rule="evenodd" clip-rule="evenodd" d="M2 12C2 6.48 6.48 2 12 2s10 4.48 10 10-4.48 10-10 10S2 17.52 2 12zm11 4v2h-2v-2h2zm-1 4c-4.41 0-8-3.59-8-8s3.59-8 8-8 8 3.59 8 8-3.59 8-8 8zM8 10c0-2.21 1.79-4 4-4s4 1.79 4 4c0 1.283-.79 1.973-1.56 2.646C13.712 13.283 13 13.905 13 15h-2c0-1.821.942-2.543 1.77-3.178.65-.498 1.23-.943 1.23-1.822 0-1.1-.9-2-2-2s-2 .9-2 2H8z"/></symbol><symbol viewBox="0 0 344.96 344.96" id="check" xmlns="http://www.w3.org/2000/svg"><g data-name="Слой 2"><path class="ajcls-1" d="M321.85 86.24l-40-23.11-23.1-40H212.5L172.48 0l-40 23.11H86.24l-23.11 40-40 23.1v46.21L0 172.48l23.11 40v46.21l40 23.11 23.11 40h46.21l40 23.1 40-23.11h46.21l23.11-40 40-23.11V212.5l23.11-40-23.11-40V86.24zM156.91 243.07a16.79 16.79 0 01-23.34 0l-50.45-50.44a16.19 16.19 0 010-22.89l13.35-13.35a16.19 16.19 0 0122.89 0l25.87 25.87 80.34-80.35a16.19 16.19 0 0122.89 0l13.35 13.35a16.19 16.19 0 010 22.89z" data-name="Capa 1"/></g></symbol><symbol viewBox="0 0 44 44" id="check-rounded" xmlns="http://www.w3.org/2000/svg"><circle cx="22" cy="22" r="21"/><path d="M10.215 20.036l9.036 9.035 14.142-14.143"/></symbol><symbol viewBox="0 0 20 20" id="checked" xmlns="http://www.w3.org/2000/svg"><path d="M7.334 13.25l-3.5-3.5-1.167 1.167 4.667 4.666 10-10-1.167-1.166-8.833 8.833z"/></symbol><symbol viewBox="0 0 24 24" id="chevron-down" xmlns="http://www.w3.org/2000/svg"><path d="M12 16l6-6-1.41-1.41L12 13.17 7.41 8.59 6 10l6 6z"/></symbol><symbol viewBox="0 0 24 24" id="chevron-left" xmlns="http://www.w3.org/2000/svg"><path d="M15.41 7.41L14 6l-6 6 6 6 1.41-1.41L10.83 12l4.58-4.59z"/></symbol><symbol viewBox="0 0 24 24" id="chevron-right" xmlns="http://www.w3.org/2000/svg"><path d="M10.004 6l-1.41 1.41 4.58 4.59-4.58 4.59 1.41 1.41 6-6-6-6z"/></symbol><symbol viewBox="0 0 24 24" id="clip" xmlns="http://www.w3.org/2000/svg"><path d="M11.21 4a.58.58 0 01.421.171l7.093 7.21c1.701 1.746 1.701 4.571 0 6.3a4.285 4.285 0 01-3.1 1.319 4.308 4.308 0 01-3.1-1.301L4.91 9.959a3.22 3.22 0 010-4.486c1.179-1.199 3.234-1.199 4.414 0l7.614 7.74a1.913 1.913 0 010 2.67 1.84 1.84 0 01-2.628 0L7.218 8.676a.586.586 0 010-.84.564.564 0 01.825 0l7.11 7.192c.27.274.69.274.96 0a.69.69 0 000-.976l-7.615-7.74a1.95 1.95 0 00-2.746 0A1.98 1.98 0 005.179 7.7c0 .53.202 1.027.573 1.387l7.598 7.756a3.173 3.173 0 004.549 0 3.304 3.304 0 000-4.606l-7.093-7.209a.586.586 0 010-.839.593.593 0 01.405-.188z"/></symbol><symbol viewBox="0 0 16 16" id="clock" xmlns="http://www.w3.org/2000/svg"><path fill-rule="evenodd" clip-rule="evenodd" d="M7.994 1.333A6.663 6.663 0 001.334 8c0 3.68 2.98 6.667 6.66 6.667A6.67 6.67 0 0014.667 8a6.67 6.67 0 00-6.673-6.667zm.007 12A5.332 5.332 0 012.667 8a5.332 5.332 0 015.334-5.333A5.332 5.332 0 0113.334 8a5.332 5.332 0 01-5.333 5.333zm-.667-8.666h1v3.5l3 1.78-.5.82-3.5-2.1v-4z"/></symbol><symbol viewBox="0 0 28 16" id="coalla-logo" xmlns="http://www.w3.org/2000/svg"><path fill-rule="evenodd" clip-rule="evenodd" d="M23 11l-1-2c.022 0 .042 0 0 0 3.048-.075 4.049-1.657 4.049-3.5a3.6 3.6 0 00-3.512-3.536C18.108 2 19.307 8.381 19 7c-.565-.31-.892-1.343-1.686-1.54a12.176 12.176 0 00-6.629 0c-.794.2-1.12 1.23-1.686 1.54-.307 1.381.892-5-3.537-5.036A3.6 3.6 0 001.951 5.5c0 1.843 1 3.425 4.049 3.5-.044 0-.023 0 0 0l-1 2a5.6 5.6 0 01-5-5.522A5.52 5.52 0 015.463 0a5.187 5.187 0 014.845 3.475c.03.071.053.15.08.225a23.804 23.804 0 013.088-.657c.173-.028.348-.042.524-.043 1.226.103 2.436.338 3.612.7.027-.075.05-.155.08-.225A5.187 5.187 0 0122.537 0 5.521 5.521 0 0128 5.478 5.6 5.6 0 0123 11zm-1-2c-.022 0-.048 0 0 0zM6 9c.048 0 .022 0 0 0zm3.318 0a1.342 1.342 0 01.627 1.691 1.069 1.069 0 11-.628-1.684L9.318 9zM14 8.995c1.1 0 2 1.57 2 3.505 0 1.935-.9 3.5-2 3.5-1.076 0-1.952-1.492-2-3.355v-.3c.045-1.861.921-3.35 2-3.35zm4.686.013a1.354 1.354 0 011.261 1.292 1.069 1.069 0 11-1.89.4 1.342 1.342 0 01.626-1.693l.003.001z"/></symbol><symbol viewBox="0 0 18 18" id="doc" xmlns="http://www.w3.org/2000/svg"><path d="M14.308 2.25v10.8h-3.453v3.45H3V2.25h11.308z"/><path d="M14.308 13.05l-3.453 3.45v-3.45h3.453z"/></symbol><symbol viewBox="0 0 20 20" id="download" xmlns="http://www.w3.org/2000/svg"><path d="M9.167 4.167a.833.833 0 011.667 0v5.965l2.702-2.703 1.178 1.179L10 13.322 5.286 8.608l1.179-1.179 2.702 2.702V4.167z"/><path d="M3.333 11.667H5V15h10v-3.333h1.667V15c0 .92-.746 1.667-1.667 1.667H5c-.92 0-1.667-.747-1.667-1.667v-3.333z"/></symbol><symbol viewBox="0 0 16 17" id="email" xmlns="http://www.w3.org/2000/svg"><path fill-rule="evenodd" clip-rule="evenodd" d="M14.667 4.5c0-.733-.6-1.333-1.333-1.333H2.667c-.733 0-1.333.6-1.333 1.333v8c0 .733.6 1.333 1.333 1.333h10.667c.733 0 1.333-.6 1.333-1.333v-8zm-1.333 0L8.001 7.833 2.667 4.5h10.667zM8.001 9.166L2.667 5.833V12.5h10.667V5.833L8.001 9.166z"/></symbol><symbol viewBox="0 0 24 24" id="exit" xmlns="http://www.w3.org/2000/svg"><g clip-path="url(#ava)"><path d="M10.09 15.59L11.5 17l5-5-5-5-1.41 1.41L12.67 11H3v2h9.67l-2.58 2.59zM19 3H5a2 2 0 00-2 2v4h2V5h14v14H5v-4H3v4a2 2 0 002 2h14c1.1 0 2-.9 2-2V5c0-1.1-.9-2-2-2z"/></g><defs><clipPath id="ava"><path d="M0 0h24v24H0z"/></clipPath></defs></symbol><symbol viewBox="0 0 24 24" id="fb" xmlns="http://www.w3.org/2000/svg"><path d="M13.397 20.997v-8.196h2.765l.411-3.209h-3.176V7.548c0-.926.258-1.56 1.587-1.56h1.684v-2.86A22.108 22.108 0 0014.201 3c-2.444 0-4.122 1.492-4.122 4.231v2.355H7.332v3.21h2.753v8.201h3.312z"/></symbol><symbol viewBox="0 0 24 24" id="filter" xmlns="http://www.w3.org/2000/svg"><g clip-path="url(#axa)"><path d="M3 17v2h6v-2H3zM3 5v2h10V5H3zm10 16v-2h8v-2h-8v-2h-2v6h2zM7 9v2H3v2h4v2h2V9H7zm14 4v-2H11v2h10zm-6-4h2V7h4V5h-4V3h-2v6z"/></g><defs><clipPath id="axa"><path d="M0 0h24v24H0z"/></clipPath></defs></symbol><symbol viewBox="0 0 96 63" id="handshake" xmlns="http://www.w3.org/2000/svg"><mask id="aya"><path d="M2.503 28.83l9.683 5.176a6.639 6.639 0 00-1.542 2.615 6.744 6.744 0 00.448 5.077 6.61 6.61 0 002.145 2.388c-.273.458-.51.939-.671 1.464a6.743 6.743 0 00.445 5.081c.814 1.563 2.161 2.714 3.81 3.25.635.202 1.285.3 1.932.3.593 0 1.18-.093 1.754-.259.082.796.302 1.588.684 2.336a6.53 6.53 0 003.807 3.293c.651.21 1.318.314 1.978.314 1.031 0 2.05-.254 2.98-.754l3.595-1.926c.101.755.322 1.498.674 2.2 1.167 2.29 3.433 3.612 5.752 3.612.97 0 1.949-.23 2.861-.717l5.163-2.76 5.167 2.76c.89.478 1.862.72 2.846.72.676 0 1.359-.114 2.025-.343 1.608-.553 2.93-1.715 3.727-3.281a6.96 6.96 0 00.674-2.192l3.6 1.924c.93.505 1.945.761 2.976.761.66 0 1.327-.105 1.978-.317 1.653-.537 3.004-1.695 3.813-3.274.382-.757.6-1.555.681-2.356.572.165 1.16.258 1.753.258.648 0 1.3-.1 1.94-.301a6.473 6.473 0 003.8-3.26 6.72 6.72 0 00.449-5.07c-.521-1.7-1.657-3.086-3.194-3.9l-.61-.328c.24-.246.492-.477.722-.734 1.558-1.763 2.593-3.976 2.996-6.328l10.152-5.424a4.708 4.708 0 002.287-2.797 4.844 4.844 0 00-.312-3.636L85.388 2.568A4.65 4.65 0 0082.659.223a4.514 4.514 0 00-3.545.32l-8.258 4.412C65.325.05 53.035 2.255 49.135 3.122l-.024.008c-.022.005-.044.004-.067.01l-1.053.283-1.038-.283c-.017-.004-.033-.004-.05-.007-.016-.005-.03-.012-.045-.015C42.95 2.25 30.615.04 25.136 4.953L16.883.543a4.51 4.51 0 00-3.546-.319 4.651 4.651 0 00-2.729 2.345L.528 22.398a4.843 4.843 0 00-.31 3.636 4.71 4.71 0 002.286 2.796zm12.981 11.552a2.29 2.29 0 01-.622-.735c-.021-.041-.032-.086-.05-.129.21.3.437.585.672.864zm2.612 9.321a2.274 2.274 0 01-1.458-2.844 2.25 2.25 0 011.094-1.338l1.23-.658a5.57 5.57 0 00.863-.374l.212-.112a27.095 27.095 0 002.443 1.512l2.073 1.108-4.77 2.547a2.176 2.176 0 01-1.687.16zm9.882 5.532a2.16 2.16 0 01-1.69.146 2.214 2.214 0 01-1.3-1.123c-.565-1.107-.141-2.48.939-3.059l3.242-1.733c2.025 1.082 3.585 1.916 4.8 2.56l-5.99 3.21zm12.89 3.163c-.992.53-2.303.054-2.854-1.028a2.434 2.434 0 01-.154-1.811c.096-.322.318-.741.752-1.054l4.772 2.548-2.516 1.345zM68.686 8.921c.076.11.136.23.172.293l6.888 13.697a2.129 2.129 0 001.898 1.185c.33 0 .663-.079.976-.244 1.047-.553 1.458-1.872.918-2.946l-6.21-12.343 7.76-4.146a.382.382 0 01.519.168L91.688 24.42a.4.4 0 01.026.301.381.381 0 01-.19.23l-8.26 4.414a13.238 13.238 0 00-1.1-3.233c-.533-1.078-1.818-1.507-2.867-.962-1.05.545-1.47 1.862-.939 2.94.475.96.753 2 .857 3.06a6.467 6.467 0 00-1.046-.7L52.16 16.413c.269-.436.395-.965.309-1.513-.19-1.19-1.28-1.998-2.448-1.808l-3.717.619-6.502.93c-1.353.196-2.943-.76-3.097-1.907l-.124-.766c-.024-.167-.056-.344-.088-.524a12.804 12.804 0 01-.071-.406c.04-.008.08-.018.118-.028l12.143-3.254.005-.001 1.34-.359h.013c9.162-2.038 16.648-1.434 18.645 1.526V8.92zM4.312 24.419L14.396 4.585a.378.378 0 01.226-.194.367.367 0 01.292.026l7.766 4.149-1.587 3.152c-.539 1.072-.13 2.393.918 2.946.312.165.646.244.977.244.773 0 1.518-.432 1.897-1.184l2.28-4.532c.038-.077.077-.151.172-.285 1.326-1.957 5.093-2.875 10.158-2.676l-1.921.515c-1.24.204-2.175.742-2.78 1.601-.957 1.364-.668 2.95-.495 3.897.023.132.048.261.069.408l.118.733c.475 3.528 3.879 5.65 6.99 5.65.307 0 .613-.021.912-.064l5.823-.833 29.982 16.207c1.083.578 1.502 1.955.938 3.07-.534 1.047-1.9 1.523-2.974.975l-.423-.226L50.99 26.002c-1.043-.56-2.334-.144-2.878.927a2.231 2.231 0 00-.235.845c-.067.85.357 1.7 1.14 2.118l22.705 12.13 3.2 1.712.01.005 3.34 1.786c.526.28.912.751 1.09 1.329a2.285 2.285 0 01-.158 1.73 2.2 2.2 0 01-1.284 1.113 2.214 2.214 0 01-1.702-.152l-5.496-2.933h-.002l-2.905-1.552a2.052 2.052 0 00-.504-.184 2.127 2.127 0 00-.447-.338l-9.144-5.006-.002-.001-9.21-5.042-2.01 3.858 9.21 5.042h.002l9.144 5.007c.172.094.35.157.531.2.137.13.285.249.459.342l2.905 1.553.097.05 1.223.655c1.084.58 1.51 1.956.955 3.054-.276.54-.745.939-1.317 1.125a2.113 2.113 0 01-1.68-.146l-8.816-4.712c-.015-.008-.028-.02-.043-.03l-.77-.416s-8.92-4.756-9.377-5.006l-.041-.022-5.115-2.731a2.109 2.109 0 00-2.88.92c-.547 1.07-.145 2.392.898 2.953l1.66.886c.02.01.034.025.053.036l3.417 1.826c.042.023.086.044.128.063l10.068 5.381c.561.324.822.825.933 1.185.18.59.12 1.23-.162 1.793a2.3 2.3 0 01-1.297 1.147 1.913 1.913 0 01-1.541-.107l-15.57-8.31a1.974 1.974 0 00-.042-.021c-.473-.248-9.006-4.809-9.343-4.988a.939.939 0 01-.031-.017l-5.692-3.041a21.521 21.521 0 01-3.05-1.982l-.037-.028a17.758 17.758 0 01-2.576-2.362c-.875-.986-1.506-2.219-1.833-3.596a7.855 7.855 0 01-.221-1.37 8.806 8.806 0 01.917-4.613L22.23 19c.54-1.073.13-2.393-.917-2.946-1.047-.553-2.334-.134-2.874.94l-4.56 9.06a13.046 13.046 0 00-1.148 3.306l-8.253-4.409a.386.386 0 01-.189-.23.406.406 0 01.025-.302z"/></mask><path d="M2.503 28.83l9.683 5.176a6.639 6.639 0 00-1.542 2.615 6.744 6.744 0 00.448 5.077 6.61 6.61 0 002.145 2.388c-.273.458-.51.939-.671 1.464a6.743 6.743 0 00.445 5.081c.814 1.563 2.161 2.714 3.81 3.25.635.202 1.285.3 1.932.3.593 0 1.18-.093 1.754-.259.082.796.302 1.588.684 2.336a6.53 6.53 0 003.807 3.293c.651.21 1.318.314 1.978.314 1.031 0 2.05-.254 2.98-.754l3.595-1.926c.101.755.322 1.498.674 2.2 1.167 2.29 3.433 3.612 5.752 3.612.97 0 1.949-.23 2.861-.717l5.163-2.76 5.167 2.76c.89.478 1.862.72 2.846.72.676 0 1.359-.114 2.025-.343 1.608-.553 2.93-1.715 3.727-3.281a6.96 6.96 0 00.674-2.192l3.6 1.924c.93.505 1.945.761 2.976.761.66 0 1.327-.105 1.978-.317 1.653-.537 3.004-1.695 3.813-3.274.382-.757.6-1.555.681-2.356.572.165 1.16.258 1.753.258.648 0 1.3-.1 1.94-.301a6.473 6.473 0 003.8-3.26 6.72 6.72 0 00.449-5.07c-.521-1.7-1.657-3.086-3.194-3.9l-.61-.328c.24-.246.492-.477.722-.734 1.558-1.763 2.593-3.976 2.996-6.328l10.152-5.424a4.708 4.708 0 002.287-2.797 4.844 4.844 0 00-.312-3.636L85.388 2.568A4.65 4.65 0 0082.659.223a4.514 4.514 0 00-3.545.32l-8.258 4.412C65.325.05 53.035 2.255 49.135 3.122l-.024.008c-.022.005-.044.004-.067.01l-1.053.283-1.038-.283c-.017-.004-.033-.004-.05-.007-.016-.005-.03-.012-.045-.015C42.95 2.25 30.615.04 25.136 4.953L16.883.543a4.51 4.51 0 00-3.546-.319 4.651 4.651 0 00-2.729 2.345L.528 22.398a4.843 4.843 0 00-.31 3.636 4.71 4.71 0 002.286 2.796zm12.981 11.552a2.29 2.29 0 01-.622-.735c-.021-.041-.032-.086-.05-.129.21.3.437.585.672.864zm2.612 9.321a2.274 2.274 0 01-1.458-2.844 2.25 2.25 0 011.094-1.338l1.23-.658a5.57 5.57 0 00.863-.374l.212-.112a27.095 27.095 0 002.443 1.512l2.073 1.108-4.77 2.547a2.176 2.176 0 01-1.687.16zm9.882 5.532a2.16 2.16 0 01-1.69.146 2.214 2.214 0 01-1.3-1.123c-.565-1.107-.141-2.48.939-3.059l3.242-1.733c2.025 1.082 3.585 1.916 4.8 2.56l-5.99 3.21zm12.89 3.163c-.992.53-2.303.054-2.854-1.028a2.434 2.434 0 01-.154-1.811c.096-.322.318-.741.752-1.054l4.772 2.548-2.516 1.345zM68.686 8.921c.076.11.136.23.172.293l6.888 13.697a2.129 2.129 0 001.898 1.185c.33 0 .663-.079.976-.244 1.047-.553 1.458-1.872.918-2.946l-6.21-12.343 7.76-4.146a.382.382 0 01.519.168L91.688 24.42a.4.4 0 01.026.301.381.381 0 01-.19.23l-8.26 4.414a13.238 13.238 0 00-1.1-3.233c-.533-1.078-1.818-1.507-2.867-.962-1.05.545-1.47 1.862-.939 2.94.475.96.753 2 .857 3.06a6.467 6.467 0 00-1.046-.7L52.16 16.413c.269-.436.395-.965.309-1.513-.19-1.19-1.28-1.998-2.448-1.808l-3.717.619-6.502.93c-1.353.196-2.943-.76-3.097-1.907l-.124-.766c-.024-.167-.056-.344-.088-.524a12.804 12.804 0 01-.071-.406c.04-.008.08-.018.118-.028l12.143-3.254.005-.001 1.34-.359h.013c9.162-2.038 16.648-1.434 18.645 1.526V8.92zM4.312 24.419L14.396 4.585a.378.378 0 01.226-.194.367.367 0 01.292.026l7.766 4.149-1.587 3.152c-.539 1.072-.13 2.393.918 2.946.312.165.646.244.977.244.773 0 1.518-.432 1.897-1.184l2.28-4.532c.038-.077.077-.151.172-.285 1.326-1.957 5.093-2.875 10.158-2.676l-1.921.515c-1.24.204-2.175.742-2.78 1.601-.957 1.364-.668 2.95-.495 3.897.023.132.048.261.069.408l.118.733c.475 3.528 3.879 5.65 6.99 5.65.307 0 .613-.021.912-.064l5.823-.833 29.982 16.207c1.083.578 1.502 1.955.938 3.07-.534 1.047-1.9 1.523-2.974.975l-.423-.226L50.99 26.002c-1.043-.56-2.334-.144-2.878.927a2.231 2.231 0 00-.235.845c-.067.85.357 1.7 1.14 2.118l22.705 12.13 3.2 1.712.01.005 3.34 1.786c.526.28.912.751 1.09 1.329a2.285 2.285 0 01-.158 1.73 2.2 2.2 0 01-1.284 1.113 2.214 2.214 0 01-1.702-.152l-5.496-2.933h-.002l-2.905-1.552a2.052 2.052 0 00-.504-.184 2.127 2.127 0 00-.447-.338l-9.144-5.006-.002-.001-9.21-5.042-2.01 3.858 9.21 5.042h.002l9.144 5.007c.172.094.35.157.531.2.137.13.285.249.459.342l2.905 1.553.097.05 1.223.655c1.084.58 1.51 1.956.955 3.054-.276.54-.745.939-1.317 1.125a2.113 2.113 0 01-1.68-.146l-8.816-4.712c-.015-.008-.028-.02-.043-.03l-.77-.416s-8.92-4.756-9.377-5.006l-.041-.022-5.115-2.731a2.109 2.109 0 00-2.88.92c-.547 1.07-.145 2.392.898 2.953l1.66.886c.02.01.034.025.053.036l3.417 1.826c.042.023.086.044.128.063l10.068 5.381c.561.324.822.825.933 1.185.18.59.12 1.23-.162 1.793a2.3 2.3 0 01-1.297 1.147 1.913 1.913 0 01-1.541-.107l-15.57-8.31a1.974 1.974 0 00-.042-.021c-.473-.248-9.006-4.809-9.343-4.988a.939.939 0 01-.031-.017l-5.692-3.041a21.521 21.521 0 01-3.05-1.982l-.037-.028a17.758 17.758 0 01-2.576-2.362c-.875-.986-1.506-2.219-1.833-3.596a7.855 7.855 0 01-.221-1.37 8.806 8.806 0 01.917-4.613L22.23 19c.54-1.073.13-2.393-.917-2.946-1.047-.553-2.334-.134-2.874.94l-4.56 9.06a13.046 13.046 0 00-1.148 3.306l-8.253-4.409a.386.386 0 01-.189-.23.406.406 0 01.025-.302z" mask="url(#aya)"/></symbol><symbol viewBox="0 0 24 24" id="help" xmlns="http://www.w3.org/2000/svg"><path fill-rule="evenodd" clip-rule="evenodd" d="M2 12C2 6.48 6.48 2 12 2s10 4.48 10 10-4.48 10-10 10S2 17.52 2 12zm11 4v2h-2v-2h2zm-1 4c-4.41 0-8-3.59-8-8s3.59-8 8-8 8 3.59 8 8-3.59 8-8 8zM8 10c0-2.21 1.79-4 4-4s4 1.79 4 4c0 1.283-.79 1.973-1.56 2.646C13.712 13.283 13 13.905 13 15h-2c0-1.821.942-2.543 1.77-3.178.65-.498 1.23-.943 1.23-1.822 0-1.1-.9-2-2-2s-2 .9-2 2H8z"/></symbol><symbol viewBox="0 0 22 10" id="in" xmlns="http://www.w3.org/2000/svg"><path d="M19.25 2.447c0 1.346-1.238 2.447-2.75 2.447s-2.75-1.101-2.75-2.447S14.988 0 16.5 0s2.75 1.101 2.75 2.447zm1.073 4.38C21.34 7.22 22 8.1 22 9.091v.697H11v-.697c0-.991.66-1.872 1.678-2.264a10.577 10.577 0 013.822-.71c1.361 0 2.654.258 3.823.71zM6.1 7.165v2.623L10 5.873 6.1 1.958v2.61H0v2.597h6.1z"/></symbol><symbol viewBox="0 0 24 24" id="instagram" xmlns="http://www.w3.org/2000/svg"><path d="M11.999 7.377a4.624 4.624 0 100 9.248 4.624 4.624 0 000-9.248zm0 7.627a3.004 3.004 0 110-6.008 3.004 3.004 0 010 6.008zm4.807-6.719a1.078 1.078 0 100-2.156 1.078 1.078 0 000 2.156z"/><path d="M20.533 6.11A4.605 4.605 0 0017.9 3.48a6.607 6.607 0 00-2.186-.42c-.963-.042-1.268-.054-3.71-.054s-2.755 0-3.71.054a6.554 6.554 0 00-2.184.42 4.6 4.6 0 00-2.633 2.63 6.585 6.585 0 00-.419 2.186c-.043.962-.056 1.267-.056 3.71 0 2.442 0 2.753.056 3.71.015.748.156 1.486.419 2.187a4.61 4.61 0 002.634 2.632 6.583 6.583 0 002.185.45c.963.042 1.268.055 3.71.055s2.755 0 3.71-.055a6.616 6.616 0 002.186-.42 4.613 4.613 0 002.633-2.632c.263-.7.404-1.438.419-2.186.043-.962.056-1.267.056-3.71s0-2.753-.056-3.71a6.583 6.583 0 00-.421-2.217zm-1.218 9.533a5.046 5.046 0 01-.311 1.688 2.987 2.987 0 01-1.712 1.71c-.535.2-1.1.305-1.67.312-.95.044-1.218.055-3.654.055-2.438 0-2.687 0-3.655-.055a4.961 4.961 0 01-1.67-.311 2.984 2.984 0 01-1.718-1.711 5.08 5.08 0 01-.311-1.67c-.043-.95-.053-1.217-.053-3.653 0-2.437 0-2.686.053-3.655a5.038 5.038 0 01.311-1.687c.305-.79.93-1.41 1.719-1.712a5.01 5.01 0 011.669-.311c.95-.043 1.218-.055 3.655-.055s2.687 0 3.654.055a4.96 4.96 0 011.67.31 2.99 2.99 0 011.712 1.713 5.06 5.06 0 01.311 1.669c.043.95.054 1.218.054 3.655 0 2.436 0 2.698-.043 3.654h-.011v-.001z"/></symbol><symbol viewBox="0 0 16 17" id="internet" xmlns="http://www.w3.org/2000/svg"><g clip-path="url(#bca)"><path fill-rule="evenodd" clip-rule="evenodd" d="M8.002 1.5A7.005 7.005 0 001 8.502a7.005 7.005 0 007.002 7.002 7.005 7.005 0 007.002-7.002A7.005 7.005 0 008.002 1.5zm2.468 9.742c-.209.998-.53 1.86-.93 2.504-.436.705-.955 1.149-1.538 1.149-.583 0-1.102-.444-1.539-1.15-.4-.644-.72-1.505-.93-2.503h4.937zm-5.556 0H2.225a6.413 6.413 0 004.19 3.454 4.294 4.294 0 01-.47-.63c-.446-.72-.806-1.694-1.031-2.825zm8.865 0h-2.69c-.225 1.13-.584 2.104-1.031 2.825a4.292 4.292 0 01-.47.63 6.414 6.414 0 004.19-3.455zM4.808 6.37H1.973A6.375 6.375 0 001.61 8.5c0 .748.128 1.465.364 2.132h2.835a14.51 14.51 0 01-.155-2.131c0-.744.055-1.46.155-2.131zm5.773 0c.104.668.16 1.385.16 2.13 0 .747-.056 1.464-.16 2.132H5.423a13.896 13.896 0 01-.16-2.131c0-.746.055-1.463.16-2.131h5.158zm3.45 0h-2.835c.1.67.155 1.387.155 2.13 0 .744-.055 1.46-.155 2.132h2.835a6.377 6.377 0 00.364-2.131c0-.747-.129-1.465-.364-2.131zM6.415 2.308a6.414 6.414 0 00-4.19 3.454h2.689c.225-1.13.585-2.105 1.032-2.825.147-.237.304-.448.47-.63zm4.055 3.454H5.533c.21-.999.53-1.86.93-2.504.437-.705.956-1.15 1.539-1.15s1.102.445 1.538 1.15c.4.644.721 1.505.93 2.504zm-.882-3.454c.165.181.323.392.47.629.447.72.806 1.694 1.032 2.825h2.689a6.413 6.413 0 00-4.19-3.454z"/></g><defs><clipPath id="bca"><path transform="translate(0 .5)" d="M0 0h16v16H0z"/></clipPath></defs></symbol><symbol viewBox="0 0 24 24" id="letter" xmlns="http://www.w3.org/2000/svg"><path fill-rule="evenodd" clip-rule="evenodd" d="M22 6c0-1.1-.9-2-2-2H4c-1.1 0-2 .9-2 2v12c0 1.1.9 2 2 2h16c1.1 0 2-.9 2-2V6zm-2 0l-8 5-8-5h16zm-8 7L4 8v10h16V8l-8 5z"/></symbol><symbol viewBox="0 0 24 24" id="letter-read" xmlns="http://www.w3.org/2000/svg"><path fill-rule="evenodd" clip-rule="evenodd" d="M21.99 8.5c0-.72-.37-1.35-.94-1.7L12 1.5 2.95 6.8c-.57.35-.95.98-.95 1.7v10c0 1.1.9 2 2 2h16c1.1 0 2-.9 2-2l-.01-10zm-2 0v.01L12 13.5l-8-5 8-4.68 7.99 4.68zM4 10.84v7.66h16l-.01-7.63L12 15.86l-8-5.02z"/></symbol><symbol viewBox="0 0 24 24" id="like-btn" xmlns="http://www.w3.org/2000/svg"><path d="M12 21.35l-1.45-1.32C5.4 15.36 2 12.28 2 8.5 2 5.42 4.42 3 7.5 3c1.74 0 3.41.81 4.5 2.09C13.09 3.81 14.76 3 16.5 3 19.58 3 22 5.42 22 8.5c0 3.78-3.4 6.86-8.55 11.54L12 21.35z"/></symbol><symbol viewBox="0 0 16 16" id="list" xmlns="http://www.w3.org/2000/svg"><path fill-rule="evenodd" clip-rule="evenodd" d="M2 2h5.6v5.6H2V2zm1.333 1.333v2.934h2.934V3.333H3.333zM8.4 2H14v5.6H8.4V2zm1.333 1.333v2.934h2.934V3.333H9.733zM2 8.4h5.6V14H2V8.4zm1.333 1.333v2.934h2.934V9.733H3.333zM8.4 8.4H14V14H8.4V8.4zm1.333 1.333v2.934h2.934V9.733H9.733z"/></symbol><symbol viewBox="0 0 14 24" id="list-dot" xmlns="http://www.w3.org/2000/svg"><circle cx="7" cy="12" r="5"/></symbol><symbol viewBox="0 0 24 24" id="list2" xmlns="http://www.w3.org/2000/svg"><g clip-path="url(#bia)"><path d="M3 13h2v-2H3v2zm0 4h2v-2H3v2zm0-8h2V7H3v2zm4 4h14v-2H7v2zm0 4h14v-2H7v2zM7 7v2h14V7H7z"/></g><defs><clipPath id="bia"><path d="M0 0h24v24H0z"/></clipPath></defs></symbol><symbol viewBox="0 0 16 17" id="map-pin" xmlns="http://www.w3.org/2000/svg"><g clip-path="url(#bja)" stroke-width=".6"><path d="M7.696 15.665c.12.06.18.06.3.06s.18-.06.301-.12c.24-.181 5.35-4.269 5.35-8.716-.06-3.066-2.525-5.59-5.65-5.59-3.126 0-5.59 2.524-5.59 5.65 0 4.388 5.108 8.535 5.289 8.716zm.3-13.465a4.695 4.695 0 014.689 4.688c0 3.427-3.667 6.853-4.689 7.755-1.081-.902-4.688-4.328-4.688-7.755A4.695 4.695 0 017.996 2.2z"/><path d="M10.7 7.009a2.694 2.694 0 00-2.704-2.705A2.694 2.694 0 005.29 7.009a2.694 2.694 0 002.705 2.705A2.694 2.694 0 0010.7 7.009zm-4.507 0c0-1.022.781-1.804 1.803-1.804 1.022 0 1.803.782 1.803 1.804a1.771 1.771 0 01-1.803 1.803 1.771 1.771 0 01-1.803-1.803z"/></g><defs><clipPath id="bja"><path transform="translate(0 .5)" d="M0 0h16v16H0z"/></clipPath></defs></symbol><symbol viewBox="0 0 18 18" id="map-pin2" xmlns="http://www.w3.org/2000/svg"><path d="M13.121 3.36a6.371 6.371 0 00-8.993 0 6.28 6.28 0 000 8.966L8.626 16.8l4.496-4.474a6.28 6.28 0 000-8.966zm-.752 8.2l-3.744 3.725L4.88 11.56a5.232 5.232 0 010-7.45 5.334 5.334 0 013.744-1.534c1.402 0 2.748.551 3.744 1.533a5.232 5.232 0 010 7.45z"/><path d="M8.624 5.325a2.55 2.55 0 100 5.1 2.55 2.55 0 000-5.1zm0 3.956a1.425 1.425 0 110-2.85 1.425 1.425 0 010 2.85z"/></symbol><symbol viewBox="0 0 196 264" id="materials-bg" xmlns="http://www.w3.org/2000/svg"><g clip-path="url(#bla)"><path d="M-124-122.294l250.91 243.53c6.071 5.892 6.071 15.636 0 21.528L-124 386.294v-508.588z"/><path d="M-108-85.465l212.117 205.879c6.071 5.892 6.071 15.635 0 21.527L-108 347.82V-85.465z"/><path d="M-85-42.136l167.476 162.55c6.07 5.892 6.07 15.635 0 21.527L-85 304.491V-42.136z"/><path d="M-64-.974L61.066 120.414c6.071 5.892 6.071 15.635 0 21.527L-64 263.329V-.974z"/></g><defs><clipPath id="bla"><path d="M0 0h196v264H0z"/></clipPath></defs></symbol><symbol viewBox="0 0 24 24" id="msg" xmlns="http://www.w3.org/2000/svg"><g clip-path="url(#bma)"><path d="M20 17.17L18.83 16H4V4h16v13.17zM20 2H4c-1.1 0-2 .9-2 2v12c0 1.1.9 2 2 2h14l4 4V4c0-1.1-.9-2-2-2z"/></g><defs><clipPath id="bma"><path d="M0 0h24v24H0z"/></clipPath></defs></symbol><symbol viewBox="0 0 24 24" id="notifications" xmlns="http://www.w3.org/2000/svg"><path fill-rule="evenodd" clip-rule="evenodd" d="M18 15.75v-5c0-3.07-1.63-5.64-4.5-6.32v-.68c0-.83-.67-1.5-1.5-1.5s-1.5.67-1.5 1.5v.68C7.64 5.11 6 7.67 6 10.75v5l-2 2v1h16v-1l-2-2zm-6 6c1.1 0 2-.9 2-2h-4c0 1.1.9 2 2 2zm-4-5h8v-6c0-2.48-1.51-4.5-4-4.5s-4 2.02-4 4.5v6z"/></symbol><symbol viewBox="0 0 12 20" id="ok" xmlns="http://www.w3.org/2000/svg"><path fill-rule="evenodd" clip-rule="evenodd" d="M11.333 5.161c0 2.846-2.397 5.16-5.347 5.16-2.948 0-5.346-2.314-5.346-5.16S3.038 0 5.986 0c2.95 0 5.347 2.315 5.347 5.161zm-3.133 0c0-1.178-.993-2.136-2.214-2.136-1.22 0-2.213.958-2.213 2.136 0 1.178.994 2.137 2.213 2.137 1.221 0 2.214-.96 2.214-2.137z"/><path d="M11.268 13.293a10.22 10.22 0 01-3.105 1.24l2.99 2.886c.611.59.611 1.548 0 2.138-.613.59-1.604.59-2.215 0L6 16.722l-2.936 2.835A1.594 1.594 0 011.955 20c-.4 0-.801-.148-1.107-.443a1.476 1.476 0 01-.001-2.138l2.99-2.885a10.234 10.234 0 01-3.105-1.242 1.482 1.482 0 01-.49-2.085c.459-.707 1.426-.92 2.159-.475a6.996 6.996 0 007.198 0c.733-.445 1.7-.232 2.16.476.461.706.24 1.64-.491 2.085z"/></symbol><symbol viewBox="0 0 22 11" id="out" xmlns="http://www.w3.org/2000/svg"><path d="M19.25 3.12c0 1.345-1.238 2.446-2.75 2.446s-2.75-1.101-2.75-2.447S14.988.672 16.5.672s2.75 1.101 2.75 2.447zm1.073 4.38C21.34 7.89 22 8.771 22 9.762v.697H11v-.697c0-.991.66-1.872 1.678-2.264a10.577 10.577 0 013.822-.71c1.361 0 2.654.258 3.823.71zM3.9 7.837v2.623L0 6.545 3.9 2.63v2.61H10v2.597H3.9z"/></symbol><symbol viewBox="0 0 24 24" id="pen" xmlns="http://www.w3.org/2000/svg"><path fill-rule="evenodd" clip-rule="evenodd" d="M18.369 3.29l2.34 2.34c.39.39.39 1.02 0 1.41l-1.83 1.83-3.75-3.75 1.83-1.83c.19-.19.44-.29.7-.29.26 0 .51.09.71.29zM2.999 17.25V21h3.75l11.06-11.06-3.75-3.75-11.06 11.06zM5.919 19h-.92v-.92l9.06-9.06.92.92L5.919 19z"/></symbol><symbol viewBox="0 0 24 24" id="person" xmlns="http://www.w3.org/2000/svg"><path fill-rule="evenodd" clip-rule="evenodd" d="M12 4C9.79 4 8 5.79 8 8s1.79 4 4 4 4-1.79 4-4-1.79-4-4-4zm2 4c0-1.1-.9-2-2-2s-2 .9-2 2 .9 2 2 2 2-.9 2-2zm4 10c-.2-.71-3.3-2-6-2-2.69 0-5.77 1.28-6 2h12zM4 18c0-2.66 5.33-4 8-4s8 1.34 8 4v2H4v-2z"/></symbol><symbol viewBox="0 0 24 24" id="question" xmlns="http://www.w3.org/2000/svg"><g clip-path="url(#bsa)"><path d="M21 6h-2v9H6v2c0 .55.45 1 1 1h11l4 4V7c0-.55-.45-1-1-1zm-4 6V3c0-.55-.45-1-1-1H3c-.55 0-1 .45-1 1v14l4-4h10c.55 0 1-.45 1-1z"/></g><defs><clipPath id="bsa"><path d="M0 0h24v24H0z"/></clipPath></defs></symbol><symbol viewBox="0 0 49 49" id="round-check" xmlns="http://www.w3.org/2000/svg"><path d="M47.873 24.023c0 12.716-10.298 23.023-23 23.023s-23-10.306-23-23.023C1.873 11.307 12.171 1 24.873 1s23 10.307 23 23.023z"/><path d="M12.016 21.878l9.857 9.867L37.3 16.3"/></symbol><symbol viewBox="0 0 79 74" id="star-labels" xmlns="http://www.w3.org/2000/svg"><path d="M39.008 8.25a25.284 25.284 0 00-15.138 4.984 1.744 1.744 0 00-.368 2.433 1.728 1.728 0 002.424.369 21.851 21.851 0 0113.082-4.307c12.175 0 22.08 9.943 22.08 22.165a22.05 22.05 0 01-4.223 13.04 1.743 1.743 0 00.38 2.431 1.732 1.732 0 002.422-.38 25.526 25.526 0 004.889-15.09c0-14.141-11.461-25.646-25.548-25.646zm14.969 41.939a21.964 21.964 0 01-14.967 5.87c-12.176 0-22.081-9.944-22.081-22.164 0-5.62 2.098-10.981 5.91-15.094a1.746 1.746 0 00-.089-2.46 1.73 1.73 0 00-2.45.089 25.615 25.615 0 00-6.84 17.464c0 14.14 11.462 25.644 25.55 25.644 6.439 0 12.59-2.412 17.319-6.793a1.744 1.744 0 00.097-2.458 1.729 1.729 0 00-2.448-.098h-.001z"/><path d="M55.605 28.443a3.107 3.107 0 00-2.519-2.133l-7.793-1.137-3.486-7.09a3.103 3.103 0 00-2.799-1.745 3.1 3.1 0 00-2.799 1.746l-3.486 7.09-7.793 1.137a3.105 3.105 0 00-2.519 2.133 3.12 3.12 0 00.79 3.211l5.639 5.517-1.332 7.792c-.156.913.094 1.84.686 2.544a3.119 3.119 0 002.39 1.122c.5 0 1.003-.127 1.453-.363l6.972-3.678 6.97 3.678c1.278.675 2.92.342 3.845-.758a3.128 3.128 0 00.685-2.544l-1.332-7.791 5.64-5.518a3.125 3.125 0 00.788-3.213zm-9.501 6.876c-.408.4-.596.976-.498 1.54l1.367 8-7.157-3.777a1.734 1.734 0 00-1.614 0l-7.157 3.776 1.367-7.999a1.745 1.745 0 00-.498-1.54l-5.79-5.665 8.001-1.167a1.734 1.734 0 001.306-.951l3.578-7.28 3.578 7.279c.254.514.74.87 1.306.952l8 1.166-5.79 5.666z"/><path d="M67.95 51.33a33.782 33.782 0 004.822-17.435C72.772 15.205 57.625 0 39.007 0 20.39 0 5.243 15.205 5.243 33.895a34.044 34.044 0 004.826 17.428L.508 60.921a1.746 1.746 0 00-.404 1.825c.23.635.805 1.08 1.476 1.14l7.143.638.635 7.17a1.738 1.738 0 001.727 1.586c.452 0 .896-.179 1.228-.511l9.605-9.657a33.501 33.501 0 0017.089 4.678c6.233 0 12.072-1.71 17.089-4.679l9.607 9.657a1.733 1.733 0 002.954-1.075l.635-7.17 7.143-.638a1.734 1.734 0 001.476-1.14 1.745 1.745 0 00-.404-1.824l-9.557-9.592zm-45.316 8.14c-.015-.01-.028-.02-.044-.029a30.59 30.59 0 01-4.204-3.283 1.726 1.726 0 00-2.45.088 1.743 1.743 0 00.089 2.46 33.987 33.987 0 002.944 2.444l-6.486 6.521-.436-4.906a1.738 1.738 0 00-1.573-1.579l-4.892-.437 6.458-6.483c.245.328.494.653.752.972a1.73 1.73 0 002.438.253 1.745 1.745 0 00.252-2.448 30.527 30.527 0 01-6.774-19.146c0-16.771 13.592-30.415 30.297-30.415s30.297 13.644 30.297 30.415c0 16.769-13.592 30.413-30.297 30.413a30.06 30.06 0 01-16.37-4.84h-.001zm44.906 1.715a1.738 1.738 0 00-1.573 1.58l-.435 4.906-6.483-6.518a34.112 34.112 0 006.925-6.886l6.457 6.482-4.89.436z"/></symbol><symbol viewBox="0 0 80 68" id="teacher" xmlns="http://www.w3.org/2000/svg"><path d="M30.015 53.6c6.038 0 10.934-4.896 10.934-10.934 0-6.038-4.895-10.933-10.934-10.933-6.038 0-10.933 4.895-10.933 10.933S23.977 53.6 30.015 53.6zm32.8-2.43V17.155H16.652"/><path d="M48.075 65.747h26.179a3.122 3.122 0 002.219-.925 3.16 3.16 0 00.92-2.233V5.736c0-.838-.332-1.64-.92-2.233a3.128 3.128 0 00-2.22-.925H5.214c-.833 0-1.631.332-2.22.925a3.169 3.169 0 00-.919 2.233V62.59a3.176 3.176 0 00.92 2.234 3.138 3.138 0 002.219.925l7.349-.001h-.001a18.947 18.947 0 016.884-9.156 18.755 18.755 0 0110.873-3.477c3.895 0 7.693 1.214 10.873 3.477a18.946 18.946 0 016.885 9.155h-.001z"/></symbol><symbol viewBox="0 0 16 17" id="tel" xmlns="http://www.w3.org/2000/svg"><path fill-rule="evenodd" clip-rule="evenodd" d="M2.667 2.5H5c.367 0 .667.3.667.667 0 .833.133 1.633.38 2.38a.669.669 0 01-.167.68L4.413 7.693a10.1 10.1 0 004.394 4.394l1.466-1.467a.683.683 0 01.68-.16 7.6 7.6 0 002.38.38c.367 0 .667.3.667.667v2.326c0 .367-.3.667-.667.667C7.073 14.5 2 9.427 2 3.167c0-.367.3-.667.667-.667zM4.36 3.833a8.2 8.2 0 00.3 1.727l-.8.8a9.884 9.884 0 01-.507-2.527H4.36zm6.573 8.014c.567.16 1.147.26 1.734.3v.993c-.88-.06-1.727-.233-2.534-.5l.8-.793z"/></symbol><symbol viewBox="0 0 20 20" id="telegram" xmlns="http://www.w3.org/2000/svg"><path fill-rule="evenodd" clip-rule="evenodd" d="M1.375 8.61c5.369-2.823 8.949-4.683 10.74-5.582C17.229.46 18.292.015 18.985 0c.152-.003.493.042.713.259.186.182.238.428.262.601.025.173.055.567.031.875-.277 3.514-1.476 12.041-2.086 15.977-.259 1.665-.767 2.223-1.259 2.278-1.07.119-1.882-.853-2.917-1.672-1.621-1.282-2.537-2.08-4.11-3.331-1.818-1.446-.64-2.24.396-3.54.272-.34 4.984-5.511 5.075-5.98.011-.059.022-.278-.086-.393-.107-.116-.266-.076-.381-.045-.163.045-2.752 2.11-7.768 6.196-.735.609-1.4.905-1.997.89-.658-.017-1.923-.449-2.863-.818-1.153-.452-2.07-.691-1.99-1.46.041-.4.498-.809 1.37-1.227z"/></symbol><symbol viewBox="0 0 24 24" id="telegram-2" xmlns="http://www.w3.org/2000/svg"><path fill-rule="evenodd" clip-rule="evenodd" d="M3.087 11.422c4.832-2.105 8.054-3.493 9.666-4.164 4.603-1.914 5.56-2.247 6.183-2.258.137-.002.443.032.642.193.168.136.214.32.236.449.022.129.05.423.028.652-.25 2.621-1.33 8.981-1.878 11.916-.233 1.242-.69 1.659-1.133 1.7-.963.088-1.693-.636-2.626-1.247-1.458-.957-2.283-1.552-3.698-2.485-1.637-1.079-.576-1.671.357-2.64.244-.253 4.484-4.11 4.566-4.46.01-.044.02-.208-.077-.294-.096-.086-.24-.056-.343-.033-.146.033-2.476 1.574-6.991 4.621-.661.454-1.26.675-1.797.664-.592-.013-1.73-.335-2.577-.61-1.038-.337-1.863-.516-1.791-1.089.037-.298.448-.603 1.233-.915z"/></symbol><symbol viewBox="0 0 24 24" id="tune" xmlns="http://www.w3.org/2000/svg"><g clip-path="url(#bza)"><path d="M3 17v2h6v-2H3zM3 5v2h10V5H3zm10 16v-2h8v-2h-8v-2h-2v6h2zM7 9v2H3v2h4v2h2V9H7zm14 4v-2H11v2h10zm-6-4h2V7h4V5h-4V3h-2v6z"/></g><defs><clipPath id="bza"><path d="M0 0h24v24H0z"/></clipPath></defs></symbol><symbol viewBox="0 0 16 16" id="viber" xmlns="http://www.w3.org/2000/svg"><path d="M8 1.335c-1.071.013-3.374.19-4.662 1.37-.958.948-1.292 2.35-1.331 4.084-.033 1.728-.072 4.973 3.058 5.856v1.346s-.02.538.337.648c.438.14.688-.275 1.105-.72l.778-.879c2.142.178 3.782-.232 3.97-.293.435-.139 2.883-.451 3.283-3.696.41-3.351-.2-5.463-1.301-6.418h-.007c-.332-.306-1.668-1.279-4.652-1.29 0 0-.222-.014-.578-.008zm.037.942a7.02 7.02 0 01.488.011c2.527.007 3.732.767 4.017 1.023.927.794 1.405 2.697 1.055 5.495-.332 2.713-2.317 2.885-2.685 3.002-.156.05-1.6.406-3.42.289 0 0-1.356 1.634-1.78 2.055-.067.074-.146.095-.196.085-.071-.018-.093-.107-.089-.229l.013-2.233c-2.655-.733-2.498-3.5-2.47-4.946.033-1.446.304-2.628 1.113-3.43 1.088-.982 3.043-1.115 3.953-1.122zm.2 1.446a.166.166 0 100 .332 3.136 3.136 0 012.242.883c.606.588.9 1.378.912 2.411 0 .092.074.167.167.167V7.51a.167.167 0 00.168-.165 3.588 3.588 0 00-1.009-2.646c-.66-.645-1.496-.977-2.48-.977zm-2.198.382a.523.523 0 00-.342.067H5.69a2.61 2.61 0 00-.637.523 1.003 1.003 0 00-.256.525.71.71 0 00.026.302l.01.006c.172.504.396.988.67 1.444a8.48 8.48 0 001.29 1.762l.015.022.024.017.015.018.017.015c.532.505 1.127.94 1.769 1.295.734.4 1.18.588 1.447.667v.004c.078.024.15.034.221.034.228-.016.444-.109.613-.262a2.53 2.53 0 00.517-.638v-.004c.128-.241.085-.469-.1-.623-.37-.323-.77-.61-1.195-.857-.285-.155-.574-.061-.69.095l-.25.315c-.129.156-.361.134-.361.134l-.007.004C7.093 8.527 6.63 6.772 6.63 6.772s-.022-.239.139-.36l.312-.252c.15-.122.254-.41.094-.695a7.498 7.498 0 00-.856-1.194.475.475 0 00-.28-.167zm2.486.495c-.221 0-.221.334.003.334A2.098 2.098 0 0110 5.572 1.94 1.94 0 0110.5 7a.168.168 0 00.167.165l.007.009a.169.169 0 00.167-.167c.015-.662-.191-1.218-.595-1.663C9.84 4.9 9.273 4.65 8.549 4.6h-.024zm.274.898c-.228-.006-.236.335-.01.341.55.029.816.306.851.877a.166.166 0 00.165.163h.007a.168.168 0 00.16-.178c-.039-.744-.445-1.164-1.166-1.202H8.8z"/></symbol><symbol viewBox="0 0 21 12" id="vk" xmlns="http://www.w3.org/2000/svg"><path fill-rule="evenodd" clip-rule="evenodd" d="M20.506.833c.155-.47 0-.812-.69-.812h-2.29c-.579 0-.846.3-1.001.62 0 0-1.179 2.733-2.825 4.505-.534.512-.778.683-1.067.683-.156 0-.356-.17-.356-.64V.81c0-.555-.178-.811-.667-.811H8.007c-.356 0-.579.256-.579.512 0 .534.823.662.912 2.157v3.246c0 .704-.133.832-.422.832-.779 0-2.67-2.754-3.803-5.893C3.892.234 3.67 0 3.09 0H.778C.111 0 0 .299 0 .62c0 .576.778 3.48 3.625 7.323 1.89 2.626 4.582 4.036 7.006 4.036 1.468 0 1.646-.32 1.646-.854V9.139c0-.64.133-.748.6-.748.334 0 .934.171 2.291 1.431C16.725 11.317 16.992 12 17.86 12h2.291c.667 0 .979-.32.8-.94-.2-.619-.956-1.516-1.934-2.583-.534-.598-1.335-1.26-1.58-1.58-.333-.427-.244-.598 0-.982-.022 0 2.78-3.801 3.07-5.082z"/></symbol><symbol viewBox="0 0 20 20" id="whatsapp" xmlns="http://www.w3.org/2000/svg"><path fill-rule="evenodd" clip-rule="evenodd" d="M20 10c0 5.523-4.477 10-10 10a9.954 9.954 0 01-5.03-1.355L0 20l1.355-4.97A9.954 9.954 0 010 10C0 4.477 4.477 0 10 0s10 4.477 10 10zM7.155 5.006c.19.008.4.017.6.459.136.302.366.866.549 1.315.134.33.244.598.272.654.067.132.111.287.022.465l-.037.074a1.518 1.518 0 01-.23.368l-.137.164c-.091.11-.183.222-.262.3-.134.133-.273.276-.117.542.156.265.69 1.134 1.483 1.837a6.893 6.893 0 001.966 1.237c.074.032.133.058.177.08.267.132.422.11.578-.067.155-.177.666-.774.843-1.04.178-.265.356-.221.6-.133.245.089 1.555.73 1.822.863.051.026.1.05.145.07.186.09.312.15.366.24.066.11.066.642-.156 1.26-.222.62-1.31 1.218-1.799 1.262l-.142.015c-.452.053-1.022.12-3.056-.679-2.505-.983-4.156-3.419-4.497-3.921l-.057-.083-.003-.004C5.94 10.09 5 8.84 5 7.544c0-1.221.603-1.862.88-2.156l.015-.015.038-.041A.98.98 0 016.643 5h.03c.167 0 .335 0 .482.006z"/></symbol><symbol viewBox="0 0 64 64" id="youtube-icon" xmlns="http://www.w3.org/2000/svg"><path d="M62.603 16.596a8.06 8.06 0 00-5.669-5.669C51.964 9.57 31.96 9.57 31.96 9.57s-20.005.04-24.976 1.397a8.06 8.06 0 00-5.669 5.669C0 21.607 0 32 0 32s0 10.393 1.356 15.404a8.06 8.06 0 005.669 5.669C11.995 54.43 32 54.43 32 54.43s20.005 0 24.976-1.356a8.06 8.06 0 005.669-5.669C64 42.434 64 32 64 32s-.04-10.393-1.397-15.404z"/><path d="M25.592 41.612L42.187 32l-16.596-9.612z"/></symbol></svg>