<svg width="19" height="15" viewBox="0 0 19 15" fill="none" xmlns="http://www.w3.org/2000/svg">
<path fill-rule="evenodd" clip-rule="evenodd" d="M2.08653 6.42171C6.91836 4.31656 10.1403 2.92872 11.7525 2.25819C16.3554 0.343671 17.3118 0.0110988 17.9352 0.00011709C18.0724 -0.00229822 18.3789 0.0316819 18.5775 0.192818C18.7452 0.328879 18.7913 0.512677 18.8134 0.641677C18.8355 0.770678 18.863 1.06454 18.8411 1.29416C18.5917 3.91499 17.5124 10.275 16.9633 13.2104C16.731 14.4525 16.2735 14.8689 15.8306 14.9097C14.8681 14.9983 14.1372 14.2736 13.2049 13.6625C11.7461 12.7063 10.922 12.111 9.50603 11.1779C7.8696 10.0995 8.93043 9.50679 9.86303 8.53816C10.1071 8.28466 14.348 4.42727 14.43 4.07735C14.4403 4.03358 14.4498 3.87045 14.3529 3.78431C14.256 3.69817 14.113 3.72763 14.0098 3.75106C13.8634 3.78426 11.533 5.32458 7.0185 8.372C6.35702 8.82623 5.75787 9.04754 5.22105 9.03594C4.62925 9.02316 3.49087 8.70133 2.6446 8.42624C1.60662 8.08883 0.781645 7.91045 0.853482 7.33742C0.890899 7.03896 1.30191 6.73372 2.08653 6.42171Z" fill="#4ED0C8"/>
</svg>
