<svg width="322" height="136" viewBox="0 0 322 136" fill="none" xmlns="http://www.w3.org/2000/svg">
<path d="M23.8194 28.7804H25.8266V37.7909H21.9459V32.4381H4.0591V37.7909H0V28.7804H1.47198C2.60199 28.7804 3.44949 28.1857 4.0145 26.9962C4.5795 25.7769 4.862 23.6656 4.862 20.6621V1.2137H23.8194V28.7804ZM7.18149 28.7804H19.7156V4.87142H9.01032V20.5729C9.01032 23.9927 8.40071 26.7285 7.18149 28.7804Z" fill="#3E4260"/>
<path d="M28.619 28.8696H29.7787C31.2953 28.8696 32.4402 28.26 33.2133 27.0408C33.9865 25.7918 34.3731 23.6656 34.3731 20.6621V1.2137H54.1779V32.4381H50.1188V4.82681H38.4322V20.7513C38.4322 28.7209 35.7559 32.7058 30.4032 32.7058H28.619V28.8696Z" fill="#3E4260"/>
<path d="M70.0052 1.2137H81.2012V32.4381H77.1421V22.7586H70.6297L64.608 32.4381H59.969L66.303 22.1787C64.2214 21.465 62.571 20.2011 61.3518 18.3871C60.1325 16.5732 59.5229 14.4469 59.5229 12.0084C59.5229 8.85625 60.5043 6.26909 62.4669 4.24693C64.4295 2.22478 66.9423 1.2137 70.0052 1.2137ZM70.2283 19.1008H77.1421V4.87142H70.2283C68.2954 4.87142 66.7044 5.54052 65.4555 6.87871C64.2065 8.2169 63.582 9.9268 63.582 12.0084C63.582 14.0603 64.2065 15.7554 65.4555 17.0936C66.7044 18.4317 68.2954 19.1008 70.2283 19.1008Z" fill="#3E4260"/>
<path d="M113.914 33.1518C108.948 33.1518 105.008 31.6204 102.093 28.5574C99.2088 25.4944 97.7666 21.5839 97.7666 16.8259C97.7666 12.0679 99.2088 8.15742 102.093 5.09445C105.008 2.03148 108.948 0.5 113.914 0.5C118.018 0.5 121.378 1.51108 123.995 3.53323C126.641 5.55539 128.262 8.20203 128.857 11.4732H124.396C123.801 9.2131 122.612 7.42885 120.828 6.1204C119.043 4.81195 116.754 4.15772 113.958 4.15772C110.271 4.15772 107.357 5.33235 105.216 7.68162C103.075 10.0309 102.004 13.079 102.004 16.8259C102.004 20.5729 103.075 23.621 105.216 25.9702C107.357 28.3195 110.271 29.4941 113.958 29.4941C116.754 29.4941 119.043 28.8399 120.828 27.5314C122.612 26.223 123.801 24.4387 124.396 22.1787H128.857C128.262 25.4498 126.641 28.0965 123.995 30.1186C121.378 32.1408 118.018 33.1518 113.914 33.1518Z" fill="#3E4260"/>
<path d="M134.052 32.4381V1.2137H151.805V4.87142H138.112V15.0863H151.805V18.744H138.112V28.7804H151.805V32.4381H134.052Z" fill="#3E4260"/>
<path d="M158.359 32.4381V1.2137H176.112V4.87142H162.418V14.5956H169.956C172.514 14.5956 174.61 15.4729 176.246 17.2274C177.911 18.9522 178.744 21.0487 178.744 23.5169C178.744 25.9851 177.911 28.0965 176.246 29.851C174.581 31.5757 172.469 32.4381 169.912 32.4381H158.359ZM162.418 28.7804H169.912C171.28 28.7804 172.41 28.2749 173.302 27.2638C174.224 26.223 174.685 24.974 174.685 23.5169C174.685 22.0597 174.239 20.8256 173.346 19.8145C172.454 18.7737 171.324 18.2533 169.956 18.2533H162.418V28.7804Z" fill="#3E4260"/>
<path d="M192.191 1.2137H203.387V32.4381H199.328V22.7586H192.816L186.794 32.4381H182.155L188.489 22.1787C186.407 21.465 184.757 20.2011 183.538 18.3871C182.319 16.5732 181.709 14.4469 181.709 12.0084C181.709 8.85625 182.69 6.26909 184.653 4.24693C186.616 2.22478 189.128 1.2137 192.191 1.2137ZM192.414 19.1008H199.328V4.87142H192.414C190.481 4.87142 188.89 5.54052 187.642 6.87871C186.393 8.2169 185.768 9.9268 185.768 12.0084C185.768 14.0603 186.393 15.7554 187.642 17.0936C188.89 18.4317 190.481 19.1008 192.414 19.1008Z" fill="#3E4260"/>
<path d="M211.704 37.7909C211.109 37.7909 210.603 37.7463 210.187 37.6571V35.7836C210.544 35.8431 211.094 35.8728 211.838 35.8728C213.057 35.8728 213.889 35.3673 214.335 34.3562C214.722 33.7317 214.915 32.9288 214.915 31.9475C214.529 32.4233 213.919 32.6612 213.087 32.6612C212.224 32.6612 211.51 32.3787 210.945 31.8136C210.38 31.2486 210.098 30.5052 210.098 29.5833C210.098 28.6615 210.395 27.9032 210.99 27.3084C211.615 26.7137 212.388 26.4163 213.31 26.4163C214.38 26.4163 215.317 26.8623 216.12 27.7545C216.952 28.6169 217.369 29.8658 217.369 31.5014C217.369 33.3749 216.863 34.8915 215.852 36.0513C214.871 37.211 213.488 37.7909 211.704 37.7909Z" fill="#3E4260"/>
<path d="M23.8194 77.635H25.8266V86.6455H21.9459V81.2927H4.0591V86.6455H0V77.635H1.47198C2.60199 77.635 3.44949 77.0402 4.0145 75.8507C4.5795 74.6315 4.862 72.5201 4.862 69.5166V50.0683H23.8194V77.635ZM7.18149 77.635H19.7156V53.726H9.01032V69.4274C9.01032 72.8472 8.40071 75.5831 7.18149 77.635Z" fill="#3E4260"/>
<path d="M28.619 77.7242H29.7787C31.2953 77.7242 32.4402 77.1146 33.2133 75.8953C33.9865 74.6464 34.3731 72.5201 34.3731 69.5166V50.0683H54.1779V81.2927H50.1188V53.6814H38.4322V69.6058C38.4322 77.5755 35.7559 81.5603 30.4032 81.5603H28.619V77.7242Z" fill="#3E4260"/>
<path d="M70.0052 50.0683H81.2012V81.2927H77.1421V71.6131H70.6297L64.608 81.2927H59.969L66.303 71.0332C64.2214 70.3195 62.571 69.0557 61.3518 67.2417C60.1325 65.4277 59.5229 63.3015 59.5229 60.863C59.5229 57.7108 60.5043 55.1236 62.4669 53.1015C64.4295 51.0793 66.9423 50.0683 70.0052 50.0683ZM70.2283 67.9554H77.1421V53.726H70.2283C68.2954 53.726 66.7044 54.3951 65.4555 55.7333C64.2065 57.0715 63.582 58.7814 63.582 60.863C63.582 62.9149 64.2065 64.6099 65.4555 65.9481C66.7044 67.2863 68.2954 67.9554 70.2283 67.9554Z" fill="#3E4260"/>
<path d="M107.892 65.3236L122.121 81.2927H116.947L103.699 65.9481V81.2927H99.64V50.0683H103.699V63.4502H105.037C106.435 63.4502 107.565 62.677 108.427 61.1306L112.843 54.172C113.795 52.6257 114.672 51.5254 115.475 50.8712C116.308 50.2169 117.319 49.8898 118.508 49.8898H120.917V53.5922H119.356C118.701 53.5922 118.136 53.7855 117.661 54.172C117.185 54.5289 116.605 55.2426 115.921 56.3131L111.594 63.2717C110.762 64.6397 109.706 65.3236 108.427 65.3236H107.892Z" fill="#3E4260"/>
<path d="M149.819 77.2781C146.905 80.4303 143.009 82.0064 138.132 82.0064C133.255 82.0064 129.345 80.4303 126.401 77.2781C123.487 74.1259 122.03 70.2601 122.03 65.6805C122.03 61.1009 123.487 57.235 126.401 54.0828C129.345 50.9307 133.255 49.3546 138.132 49.3546C143.009 49.3546 146.905 50.9307 149.819 54.0828C152.763 57.235 154.235 61.1009 154.235 65.6805C154.235 70.2601 152.763 74.1259 149.819 77.2781ZM129.479 74.691C131.62 77.1294 134.504 78.3487 138.132 78.3487C141.76 78.3487 144.645 77.1294 146.786 74.691C148.927 72.2525 149.982 69.249 149.953 65.6805C149.982 62.112 148.927 59.1085 146.786 56.67C144.645 54.2315 141.76 53.0123 138.132 53.0123C134.504 53.0123 131.62 54.2315 129.479 56.67C127.338 59.1085 126.267 62.112 126.267 65.6805C126.267 69.249 127.338 72.2525 129.479 74.691Z" fill="#3E4260"/>
<path d="M159.448 81.2927V50.0683H163.373L174.079 75.5385L184.784 50.0683H188.709V81.2927H184.784V58.4989L175.64 81.2927H172.517L163.373 58.365V81.2927H159.448Z" fill="#3E4260"/>
<path d="M213.439 81.2927L211.967 76.5198H198.987L197.515 81.2927H193.099L203.67 50.0683H207.283L217.855 81.2927H213.439ZM200.146 72.8175H210.807L205.454 55.6887L200.146 72.8175Z" fill="#3E4260"/>
<path d="M222.175 81.2927V50.0683H226.234V63.9408H240.775V50.0683H244.834V81.2927H240.775V67.5986H226.234V81.2927H222.175Z" fill="#3E4260"/>
<path d="M273.157 77.635H275.165V86.6455H271.284V81.2927H253.397V86.6455H249.338V77.635H250.81C251.94 77.635 252.787 77.0402 253.352 75.8507C253.917 74.6315 254.2 72.5201 254.2 69.5166V50.0683H273.157V77.635ZM256.519 77.635H269.054V53.726H258.348V69.4274C258.348 72.8472 257.739 75.5831 256.519 77.635Z" fill="#3E4260"/>
<path d="M280.589 81.2927V50.0683H284.648V63.4502H292.186C294.743 63.4502 296.84 64.3274 298.475 66.0819C300.141 67.8067 300.973 69.9032 300.973 72.3714C300.973 74.8396 300.141 76.951 298.475 78.7055C296.81 80.4303 294.699 81.2927 292.141 81.2927H280.589ZM303.962 81.2927V50.0683H308.021V81.2927H303.962ZM284.648 77.635H292.141C293.509 77.635 294.639 77.1294 295.531 76.1184C296.453 75.0775 296.914 73.8286 296.914 72.3714C296.914 70.9143 296.468 69.6802 295.576 68.6691C294.684 67.6283 293.554 67.1079 292.186 67.1079H284.648V77.635Z" fill="#3E4260"/>
<path d="M316.335 86.6455C315.74 86.6455 315.235 86.6008 314.818 86.5116V84.6382C315.175 84.6976 315.725 84.7274 316.469 84.7274C317.688 84.7274 318.521 84.2218 318.967 83.2108C319.353 82.5863 319.547 81.7834 319.547 80.802C319.16 81.2778 318.55 81.5157 317.718 81.5157C316.855 81.5157 316.142 81.2332 315.577 80.6682C315.012 80.1032 314.729 79.3597 314.729 78.4379C314.729 77.516 315.027 76.7577 315.621 76.163C316.246 75.5682 317.019 75.2708 317.941 75.2708C319.011 75.2708 319.948 75.7169 320.751 76.609C321.584 77.4714 322 78.7204 322 80.356C322 82.2294 321.494 83.746 320.483 84.9058C319.502 86.0656 318.119 86.6455 316.335 86.6455Z" fill="#3E4260"/>
<path d="M23.8194 126.49H25.8266V135.5H21.9459V130.147H4.0591V135.5H0V126.49H1.47198C2.60199 126.49 3.44949 125.895 4.0145 124.705C4.5795 123.486 4.862 121.375 4.862 118.371V98.9228H23.8194V126.49ZM7.18149 126.49H19.7156V102.581H9.01032V118.282C9.01032 121.702 8.40071 124.438 7.18149 126.49Z" fill="#3E4260"/>
<path d="M28.619 126.579H29.7787C31.2953 126.579 32.4402 125.969 33.2133 124.75C33.9865 123.501 34.3731 121.375 34.3731 118.371V98.9228H54.1779V130.147H50.1188V102.536H38.4322V118.46C38.4322 126.43 35.7559 130.415 30.4032 130.415H28.619V126.579Z" fill="#3E4260"/>
<path d="M70.0052 98.9228H81.2012V130.147H77.1421V120.468H70.6297L64.608 130.147H59.969L66.303 119.888C64.2214 119.174 62.571 117.91 61.3518 116.096C60.1325 114.282 59.5229 112.156 59.5229 109.718C59.5229 106.565 60.5043 103.978 62.4669 101.956C64.4295 99.9339 66.9423 98.9228 70.0052 98.9228ZM70.2283 116.81H77.1421V102.581H70.2283C68.2954 102.581 66.7044 103.25 65.4555 104.588C64.2065 105.926 63.582 107.636 63.582 109.718C63.582 111.769 64.2065 113.464 65.4555 114.803C66.7044 116.141 68.2954 116.81 70.2283 116.81Z" fill="#3E4260"/>
<path d="M99.64 98.9228H117.17V102.759H103.699V130.147H99.64V98.9228Z" fill="#3E4260"/>
<path d="M144.897 126.133C141.982 129.285 138.087 130.861 133.21 130.861C128.333 130.861 124.423 129.285 121.479 126.133C118.564 122.98 117.107 119.115 117.107 114.535C117.107 109.955 118.564 106.09 121.479 102.937C124.423 99.7852 128.333 98.2091 133.21 98.2091C138.087 98.2091 141.982 99.7852 144.897 102.937C147.84 106.09 149.312 109.955 149.312 114.535C149.312 119.115 147.84 122.98 144.897 126.133ZM124.556 123.546C126.697 125.984 129.582 127.203 133.21 127.203C136.838 127.203 139.722 125.984 141.863 123.546C144.004 121.107 145.06 118.104 145.03 114.535C145.06 110.967 144.004 107.963 141.863 105.525C139.722 103.086 136.838 101.867 133.21 101.867C129.582 101.867 126.697 103.086 124.556 105.525C122.415 107.963 121.345 110.967 121.345 114.535C121.345 118.104 122.415 121.107 124.556 123.546Z" fill="#3E4260"/>
<path d="M165.722 98.9228C168.785 98.9228 171.297 99.9339 173.26 101.956C175.223 103.978 176.204 106.565 176.204 109.718C176.204 112.84 175.223 115.412 173.26 117.434C171.297 119.457 168.785 120.468 165.722 120.468H158.585V130.147H154.526V98.9228H165.722ZM165.499 116.81C167.432 116.81 169.023 116.141 170.271 114.803C171.52 113.464 172.145 111.769 172.145 109.718C172.145 107.636 171.52 105.926 170.271 104.588C169.023 103.25 167.432 102.581 165.499 102.581H158.585V116.81H165.499Z" fill="#3E4260"/>
<path d="M206.665 126.133C203.75 129.285 199.855 130.861 194.978 130.861C190.101 130.861 186.191 129.285 183.247 126.133C180.333 122.98 178.875 119.115 178.875 114.535C178.875 109.955 180.333 106.09 183.247 102.937C186.191 99.7852 190.101 98.2091 194.978 98.2091C199.855 98.2091 203.75 99.7852 206.665 102.937C209.609 106.09 211.081 109.955 211.081 114.535C211.081 119.115 209.609 122.98 206.665 126.133ZM186.325 123.546C188.466 125.984 191.35 127.203 194.978 127.203C198.606 127.203 201.49 125.984 203.632 123.546C205.773 121.107 206.828 118.104 206.799 114.535C206.828 110.967 205.773 107.963 203.632 105.525C201.49 103.086 198.606 101.867 194.978 101.867C191.35 101.867 188.466 103.086 186.325 105.525C184.184 107.963 183.113 110.967 183.113 114.535C183.113 118.104 184.184 121.107 186.325 123.546Z" fill="#3E4260"/>
<path d="M235.913 126.49H237.921V135.5H234.04V130.147H216.153V135.5H212.094V126.49H213.566C214.696 126.49 215.544 125.895 216.109 124.705C216.674 123.486 216.956 121.375 216.956 118.371V98.9228H235.913V126.49ZM219.276 126.49H231.81V102.581H221.104V118.282C221.104 121.702 220.495 124.438 219.276 126.49Z" fill="#3E4260"/>
<path d="M260.919 130.147L259.447 125.374H246.467L244.995 130.147H240.579L251.151 98.9228H254.764L265.335 130.147H260.919ZM247.627 121.672H258.288L252.935 104.543L247.627 121.672Z" fill="#3E4260"/>
</svg>
