<svg width="378" height="146" viewBox="0 0 378 146" fill="none" xmlns="http://www.w3.org/2000/svg">
<path d="M3.21111 63.3829V12.7875H21.4074V30.7127H31.9683V12.7875H50.1646V63.3829H31.9683V45.819H21.4074V63.3829H3.21111Z" fill="#3E4260"/>
<path d="M90.0949 63.3829L88.7391 57.8174H74.1107L72.7549 63.3829H54.0592L71.1851 12.7875H91.6648L108.791 63.3829H90.0949ZM77.2505 45.1685H85.528L81.3893 28.3998L77.2505 45.1685Z" fill="#3E4260"/>
<path d="M135.162 65.1898C126.884 65.1898 120.058 62.636 114.682 57.5282C109.307 52.4205 106.619 45.9395 106.619 38.0852C106.619 30.2308 109.307 23.7498 114.682 18.6421C120.058 13.5343 126.884 10.9805 135.162 10.9805C143.487 10.9805 150.123 12.9079 155.071 16.7628C160.066 20.5695 162.825 26.0627 163.348 33.2425H144.367C143.986 31.4596 142.987 30.0381 141.37 28.978C139.753 27.9179 137.707 27.3878 135.233 27.3878C132.189 27.3878 129.81 28.3516 128.097 30.279C126.385 32.1583 125.529 34.7603 125.529 38.0852C125.529 41.41 126.385 44.0361 128.097 45.9636C129.81 47.8428 132.189 48.7825 135.233 48.7825C137.707 48.7825 139.753 48.2524 141.37 47.1923C142.987 46.1322 143.986 44.7107 144.367 42.9279H163.348C162.825 50.1076 160.066 55.6249 155.071 59.4798C150.123 63.2865 143.487 65.1898 135.162 65.1898Z" fill="#3E4260"/>
<path d="M175.812 63.3829V28.3275H163.752V12.7875H206.068V28.3275H194.008V63.3829H175.812Z" fill="#3E4260"/>
<path d="M237.29 12.7875C242.855 12.7875 247.47 14.6426 251.133 18.353C254.796 22.0151 256.628 26.641 256.628 32.2305C256.628 37.7719 254.772 42.3978 251.062 46.1081C247.399 49.7703 242.808 51.6014 237.29 51.6014H228.512V63.3829H210.316V12.7875H237.29ZM232.865 37.8683C234.388 37.8683 235.624 37.3383 236.576 36.2782C237.575 35.2181 238.074 33.8689 238.074 32.2305C238.074 30.5922 237.575 29.243 236.576 28.1829C235.624 27.1228 234.411 26.5928 232.937 26.5928H228.512V37.8683H232.865Z" fill="#3E4260"/>
<path d="M306.72 57.3114C301.582 62.5637 294.708 65.1898 286.097 65.1898C277.487 65.1898 270.589 62.5637 265.403 57.3114C260.266 52.0109 257.697 45.6022 257.697 38.0852C257.697 30.5681 260.266 24.1835 265.403 18.9312C270.589 13.6307 277.487 10.9805 286.097 10.9805C294.708 10.9805 301.582 13.6307 306.72 18.9312C311.905 24.1835 314.498 30.5681 314.498 38.0852C314.498 45.6022 311.905 52.0109 306.72 57.3114ZM279.033 45.6745C280.65 47.6983 283.005 48.7102 286.097 48.7102C289.189 48.7102 291.544 47.6983 293.162 45.6745C294.779 43.6025 295.588 41.0727 295.588 38.0852C295.588 35.0976 294.779 32.5919 293.162 30.5681C291.544 28.4961 289.189 27.4601 286.097 27.4601C283.005 27.4601 280.65 28.4961 279.033 30.5681C277.415 32.5919 276.607 35.0976 276.607 38.0852C276.607 41.0727 277.415 43.6025 279.033 45.6745Z" fill="#3E4260"/>
<path d="M352.703 7.87248C350.134 9.70355 346.947 10.6191 343.141 10.6191C339.335 10.6191 336.148 9.70355 333.579 7.87248C331.01 5.99322 329.631 3.53573 329.44 0.5H337.076C337.266 1.80103 337.908 2.81293 339.002 3.53572C340.144 4.21033 341.524 4.54764 343.141 4.54764C344.759 4.54764 346.114 4.21033 347.209 3.53572C348.35 2.81293 349.016 1.80103 349.207 0.5H356.842C356.652 3.53573 355.272 5.99322 352.703 7.87248ZM348.065 38.808L337.361 59.9135V63.3829H319.165V12.7875H337.361V37.3624L348.065 16.2569V12.7875H366.261V63.3829H348.065V38.808Z" fill="#3E4260"/>
<path d="M28.5432 145.5C20.2656 145.5 13.4391 142.946 8.06344 137.838C2.68781 132.731 0 126.25 0 118.395C0 110.541 2.68781 104.06 8.06344 98.9522C13.4391 93.8445 20.2656 91.2906 28.5432 91.2906C36.8682 91.2906 43.5045 93.2181 48.452 97.073C53.4471 100.88 56.2062 106.373 56.7295 113.553H37.7483C37.3677 111.77 36.3687 110.348 34.7513 109.288C33.1338 108.228 31.0883 107.698 28.6145 107.698C25.5699 107.698 23.1913 108.662 21.4787 110.589C19.7661 112.468 18.9098 115.07 18.9098 118.395C18.9098 121.72 19.7661 124.346 21.4787 126.274C23.1913 128.153 25.5699 129.093 28.6145 129.093C31.0883 129.093 33.1338 128.563 34.7513 127.503C36.3687 126.442 37.3677 125.021 37.7483 123.238H56.7295C56.2062 130.418 53.4471 135.935 48.452 139.79C43.5045 143.597 36.8682 145.5 28.5432 145.5Z" fill="#3E4260"/>
<path d="M89.95 119.118L79.2463 140.224V143.693H61.05V93.0976H79.2463V117.673L89.95 96.567V93.0976H108.146V143.693H89.95V119.118Z" fill="#3E4260"/>
<path d="M141.294 145.5C133.017 145.5 126.19 142.946 120.814 137.838C115.439 132.731 112.751 126.25 112.751 118.395C112.751 110.541 115.439 104.06 120.814 98.9522C126.19 93.8445 133.017 91.2906 141.294 91.2906C149.619 91.2906 156.256 93.2181 161.203 97.073C166.198 100.88 168.957 106.373 169.481 113.553H150.499C150.119 111.77 149.12 110.348 147.502 109.288C145.885 108.228 143.839 107.698 141.366 107.698C138.321 107.698 135.942 108.662 134.23 110.589C132.517 112.468 131.661 115.07 131.661 118.395C131.661 121.72 132.517 124.346 134.23 126.274C135.942 128.153 138.321 129.093 141.366 129.093C143.839 129.093 145.885 128.563 147.502 127.503C149.12 126.442 150.119 125.021 150.499 123.238H169.481C168.957 130.418 166.198 135.935 161.203 139.79C156.256 143.597 149.619 145.5 141.294 145.5Z" fill="#3E4260"/>
<path d="M181.944 143.693V108.638H169.885V93.0976H212.2V108.638H200.14V143.693H181.944Z" fill="#3E4260"/>
<path d="M216.449 143.693V93.0976H250.272V106.325H234.645V112.324H250.272V124.828H234.645V130.466H250.272V143.693H216.449Z" fill="#3E4260"/>
<path d="M257.772 143.693V93.0976H282.176L290.097 123.31L298.018 93.0976H321.709V143.693H304.226V112.252L296.876 143.693H283.532L275.255 112.252V143.693H257.772Z" fill="#3E4260"/>
<path d="M357.663 93.0976H378L353.239 143.693H332.759L340.68 127.069L324.91 93.0976H346.317L351.598 109.216L357.663 93.0976Z" fill="#3E4260"/>
</svg>
