<svg width="18" height="11" viewBox="0 0 18 11" fill="none" xmlns="http://www.w3.org/2000/svg">
<path fill-rule="evenodd" clip-rule="evenodd" d="M17.5764 0.749465C17.7099 0.326689 17.5764 0.0192168 16.9855 0.0192168H15.0219C14.5263 0.0192168 14.2975 0.288256 14.1641 0.576512C14.1641 0.576512 13.1537 3.0363 11.743 4.63131C11.2855 5.09253 11.0758 5.24626 10.828 5.24626C10.6946 5.24626 10.523 5.09253 10.523 4.66975V0.730248C10.523 0.230604 10.3705 0 9.95108 0H6.86281C6.5578 0 6.36717 0.230604 6.36717 0.461209C6.36717 0.941636 7.07251 1.05694 7.14876 2.40214V5.32313C7.14876 5.95729 7.03438 6.0726 6.78656 6.0726C6.11934 6.0726 4.49895 3.59359 3.52672 0.768683C3.33609 0.211388 3.14546 0 2.64981 0H0.667218C0.0953168 0 0 0.269038 0 0.557294C0 1.07616 0.667218 3.68968 3.10733 7.14875C4.72772 9.51245 7.03438 10.7808 9.11229 10.7808C10.3705 10.7808 10.523 10.4925 10.523 10.0121V8.22491C10.523 7.6484 10.6374 7.55231 11.0377 7.55231C11.3236 7.55231 11.8384 7.70605 13.0012 8.83986C14.3357 10.1851 14.5644 10.8 15.3079 10.8H17.2714C17.8433 10.8 18.1102 10.5117 17.9577 9.95445C17.7861 9.39715 17.138 8.59003 16.2992 7.62918C15.8417 7.0911 15.1554 6.49537 14.9457 6.20712C14.6597 5.82278 14.736 5.66904 14.9457 5.32313C14.9266 5.32313 17.3286 1.90249 17.5764 0.749465Z" fill="#4ED0C8"/>
</svg>
