<svg width="86" height="86" viewBox="0 0 86 86" fill="none" xmlns="http://www.w3.org/2000/svg">
<path fill-rule="evenodd" clip-rule="evenodd" d="M46.1395 42.1237C46.4736 41.7922 47.0155 41.7922 47.3496 42.1237L48.8839 43.6453L50.1328 42.4066C50.467 42.0751 51.0088 42.0751 51.343 42.4066C51.6772 42.738 51.6772 43.2754 51.343 43.6068L50.094 44.8455L51.6282 46.3671C51.9624 46.6985 51.9624 47.2359 51.6282 47.5673C51.2941 47.8987 50.7522 47.8987 50.4181 47.5673L48.8839 46.0457L47.3496 47.5673C47.0155 47.8987 46.4736 47.8987 46.1395 47.5673C45.8053 47.2359 45.8053 46.6985 46.1395 46.3671L47.6737 44.8455L46.1395 43.3239C45.8053 42.9925 45.8053 42.4551 46.1395 42.1237ZM31.0218 42.6895C31.356 42.358 31.8978 42.358 32.2319 42.6895L34.0514 44.4939L35.8709 42.6895C36.205 42.358 36.7468 42.358 37.081 42.6895C37.4152 43.0209 37.4152 43.5582 37.081 43.8897L35.2616 45.6942L36.5105 46.9329C36.8447 47.2643 36.8447 47.8017 36.5105 48.1331C36.1764 48.4645 35.6346 48.4645 35.3004 48.1331L34.0514 46.8944L32.5172 48.416C32.183 48.7474 31.6412 48.7474 31.307 48.416C30.9728 48.0845 30.9728 47.5472 31.307 47.2158L32.8412 45.6942L31.0218 43.8897C30.6876 43.5582 30.6876 43.0209 31.0218 42.6895ZM47.1819 54.5226C45.4213 52.0003 40.415 50.5097 36.5297 54.62C36.2065 54.9619 35.665 54.9792 35.3202 54.6587C34.9754 54.3381 34.9579 53.801 35.2812 53.4591C39.9531 48.5167 46.2423 50.1945 48.5891 53.5565C48.8581 53.9418 48.7612 54.4705 48.3726 54.7373C47.984 55.0041 47.451 54.908 47.1819 54.5226Z" fill="#00A89E"/>
<path fill-rule="evenodd" clip-rule="evenodd" d="M58.6349 15.0226C59.095 15.1297 59.3804 15.5865 59.2724 16.0428L58.1438 20.8119C58.0359 21.2682 57.5753 21.5513 57.1152 21.4442C56.6551 21.3371 56.3697 20.8804 56.4777 20.4241L57.6063 15.655C57.7143 15.1986 58.1748 14.9155 58.6349 15.0226ZM64.3532 17.8131C64.7149 18.1148 64.7615 18.6501 64.4573 19.0089L60.5847 23.5763C60.2805 23.935 59.7407 23.9812 59.379 23.6796C59.0173 23.3779 58.9706 22.8425 59.2748 22.4838L63.1475 17.9164C63.4516 17.5577 63.9914 17.5114 64.3532 17.8131ZM62.0077 25.6217C61.8577 25.1772 62.0994 24.6963 62.5475 24.5475L67.4163 22.931C67.8644 22.7822 68.3493 23.0219 68.4994 23.4663C68.6494 23.9108 68.4077 24.3917 67.9596 24.5405L63.0908 26.157C62.6427 26.3058 62.1578 26.0661 62.0077 25.6217Z" fill="#00A89E"/>
<path d="M60.5635 60.2627C59.8676 60.2619 59.2003 59.991 58.7082 59.5087C58.216 59.0265 57.9395 58.3727 57.9387 57.6909V41.4521C57.9064 37.7664 56.601 34.2001 54.2344 31.3352C51.8683 28.4697 48.5809 26.4745 44.9085 25.6749V23.4804C44.9085 22.2699 44.2496 21.1515 43.1796 20.5461C42.1097 19.941 40.7912 19.941 39.7213 20.5461C38.6514 21.1515 37.9924 22.2699 37.9924 23.4804V25.6749C34.3204 26.4749 31.0331 28.4697 28.6665 31.3352C26.3003 34.2006 24.9944 37.7665 24.9622 41.4521V57.6948C24.9602 58.3759 24.6829 59.0289 24.1911 59.51C23.699 59.9911 23.0325 60.2617 22.3374 60.2625C21.7338 60.2632 21.155 60.4983 20.728 60.9166C20.3011 61.3349 20.0611 61.9022 20.0603 62.4936V64.9563C20.0611 65.5477 20.3011 66.1149 20.728 66.5333C21.1549 66.9516 21.7338 67.1867 22.3374 67.1875H36.1208C36.4144 68.8404 37.4895 70.2595 39.0189 71.0135C40.5488 71.7674 42.352 71.7674 43.8818 71.0135C45.4113 70.2595 46.4863 68.8405 46.78 67.1875H60.5633C61.1669 67.1867 61.7458 66.9516 62.1727 66.5333C62.5997 66.115 62.8396 65.5477 62.8404 64.9563V62.4936C62.8396 61.9022 62.5997 61.335 62.1727 60.9166C61.7458 60.4983 61.1671 60.2635 60.5635 60.2627ZM39.7754 23.4807C39.7754 22.8944 40.0945 22.3521 40.613 22.0589C41.1314 21.7658 41.7704 21.7658 42.2888 22.0589C42.8073 22.3521 43.1264 22.8944 43.1264 23.4807V25.3808C42.0119 25.2791 40.8899 25.2791 39.7755 25.3808L39.7754 23.4807ZM41.4509 69.8687C40.6444 69.8679 39.861 69.6036 39.2244 69.1182C38.5878 68.6328 38.1342 67.9537 37.9349 67.1876H44.967C44.7677 67.9537 44.3141 68.6328 43.6775 69.1182C43.0409 69.6036 42.2574 69.8679 41.4509 69.8687ZM61.0584 64.9565C61.058 65.2239 60.8368 65.4407 60.5639 65.4411H22.3378C22.0648 65.4407 21.8436 65.2239 21.8432 64.9565V62.4938C21.8436 62.2263 22.0648 62.0096 22.3378 62.0092C23.5064 62.008 24.6268 61.5527 25.4528 60.7429C26.2792 59.9336 26.7439 58.8358 26.7452 57.6908V41.452C26.6274 32.7954 35.1588 25.6543 43.8704 27.2412C47.2914 27.8271 50.3945 29.5706 52.6394 32.167C54.8846 34.7639 56.1288 38.0494 56.1562 41.4521V57.6949C56.1586 58.8391 56.6237 59.9357 57.4501 60.7443C58.2761 61.5532 59.3958 62.0078 60.5634 62.009C60.8364 62.0094 61.0576 62.2261 61.058 62.4936L61.0584 64.9565ZM64.6063 38.0489C64.2423 35.1667 63.2918 32.3851 61.8113 29.8694C60.3303 27.3537 58.3493 25.1546 55.9855 23.4026C55.1906 22.8232 54.1437 22.6942 53.2274 23.063C52.3107 23.4314 51.6582 24.2435 51.5074 25.2029C51.3565 26.1623 51.7298 27.1287 52.4909 27.7505C56.0663 30.4233 58.4389 34.3554 59.1056 38.7138C59.2552 39.6517 59.8942 40.4455 60.7907 40.8065C61.6871 41.1679 62.7109 41.0439 63.4911 40.4806C64.2709 39.9169 64.6939 38.9946 64.6063 38.0489ZM62.6038 38.9701C62.346 39.2547 61.9425 39.367 61.5705 39.2574C61.1984 39.1479 60.9247 38.8368 60.8694 38.4602C60.1373 33.6549 57.5232 29.3181 53.5818 26.3702C52.562 25.5765 53.8838 24.0124 54.8964 24.785C57.0728 26.3955 58.897 28.4184 60.2618 30.7322C61.6265 33.0464 62.5035 35.605 62.8409 38.2571C62.8711 38.5175 62.7848 38.7771 62.6038 38.9701ZM23.5191 38.7136C24.1851 34.3558 26.5573 30.4235 30.1323 27.7504C30.8831 27.1262 31.2483 26.164 31.0959 25.2109C30.9435 24.2577 30.2958 23.4511 29.3859 23.0819C28.4763 22.7123 27.4358 22.834 26.6405 23.4024C24.2763 25.1544 22.2953 27.3535 20.8143 29.8692C19.3334 32.385 18.3825 35.1665 18.0185 38.0487C17.9281 38.8039 18.172 39.5609 18.6877 40.129C19.1616 40.644 19.8177 40.9637 20.5228 41.0229C21.2282 41.0822 21.93 40.8763 22.4863 40.4475C23.0425 40.0187 23.4116 39.3989 23.5191 38.7136ZM19.7886 38.2567C20.1248 35.6054 21.0005 33.0467 22.3636 30.7325C23.7272 28.4183 25.5506 26.3958 27.7259 24.7849C28.1747 24.4676 28.7977 24.5487 29.1463 24.9697C29.4952 25.3904 29.4483 26.0044 29.0397 26.3696C25.099 29.3181 22.4857 33.6552 21.7545 38.4597C21.6694 38.9668 21.1951 39.3208 20.6735 39.267C20.1519 39.2128 19.7635 38.7701 19.7886 38.2567Z" fill="#00A89E"/>
</svg>
