<svg width="100" height="100" viewBox="0 0 100 100" fill="none" xmlns="http://www.w3.org/2000/svg">
<path fill-rule="evenodd" clip-rule="evenodd" d="M54.1395 47.1237C54.4736 46.7922 55.0155 46.7922 55.3496 47.1237L56.8839 48.6453L58.1328 47.4066C58.467 47.0751 59.0088 47.0751 59.343 47.4066C59.6772 47.738 59.6772 48.2754 59.343 48.6068L58.094 49.8455L59.6282 51.3671C59.9624 51.6985 59.9624 52.2359 59.6282 52.5673C59.2941 52.8987 58.7522 52.8987 58.4181 52.5673L56.8839 51.0457L55.3496 52.5673C55.0155 52.8987 54.4736 52.8987 54.1395 52.5673C53.8053 52.2359 53.8053 51.6985 54.1395 51.3671L55.6737 49.8455L54.1395 48.3239C53.8053 47.9925 53.8053 47.4551 54.1395 47.1237ZM39.0218 47.6895C39.356 47.358 39.8978 47.358 40.232 47.6895L42.0514 49.4939L43.8709 47.6895C44.205 47.358 44.7468 47.358 45.081 47.6895C45.4152 48.0209 45.4152 48.5582 45.081 48.8897L43.2616 50.6942L44.5105 51.9329C44.8447 52.2643 44.8447 52.8017 44.5105 53.1331C44.1764 53.4645 43.6346 53.4645 43.3004 53.1331L42.0514 51.8944L40.5172 53.416C40.183 53.7474 39.6412 53.7474 39.307 53.416C38.9728 53.0845 38.9728 52.5472 39.307 52.2158L40.8412 50.6942L39.0218 48.8897C38.6876 48.5582 38.6876 48.0209 39.0218 47.6895ZM55.1819 59.5226C53.4213 57.0003 48.415 55.5097 44.5297 59.62C44.2065 59.9619 43.665 59.9792 43.3202 59.6587C42.9754 59.3381 42.9579 58.801 43.2812 58.4591C47.9531 53.5167 54.2423 55.1945 56.5891 58.5565C56.8581 58.9418 56.7612 59.4705 56.3726 59.7373C55.984 60.0041 55.451 59.908 55.1819 59.5226Z" fill="#00A89E"/>
<path fill-rule="evenodd" clip-rule="evenodd" d="M66.6349 20.0226C67.095 20.1297 67.3804 20.5865 67.2724 21.0428L66.1439 25.8119C66.0359 26.2682 65.5753 26.5513 65.1152 26.4442C64.6551 26.3371 64.3697 25.8804 64.4777 25.4241L65.6063 20.655C65.7143 20.1986 66.1748 19.9155 66.6349 20.0226ZM72.3532 22.8131C72.7149 23.1148 72.7615 23.6501 72.4573 24.0089L68.5847 28.5763C68.2805 28.935 67.7407 28.9812 67.379 28.6796C67.0173 28.3779 66.9706 27.8425 67.2748 27.4838L71.1475 22.9164C71.4516 22.5577 71.9914 22.5114 72.3532 22.8131ZM70.0077 30.6217C69.8577 30.1772 70.0994 29.6963 70.5475 29.5475L75.4163 27.931C75.8644 27.7822 76.3493 28.0219 76.4994 28.4663C76.6494 28.9108 76.4077 29.3917 75.9596 29.5405L71.0908 31.157C70.6427 31.3058 70.1578 31.0661 70.0077 30.6217Z" fill="#00A89E"/>
<path d="M68.5635 65.2627C67.8676 65.2619 67.2003 64.991 66.7082 64.5087C66.216 64.0265 65.9395 63.3727 65.9387 62.6909V46.4521C65.9064 42.7664 64.601 39.2001 62.2344 36.3352C59.8683 33.4697 56.5809 31.4745 52.9085 30.6749V28.4804C52.9085 27.2699 52.2496 26.1515 51.1796 25.5461C50.1097 24.941 48.7912 24.941 47.7213 25.5461C46.6514 26.1515 45.9924 27.2699 45.9924 28.4804V30.6749C42.3204 31.4749 39.0331 33.4697 36.6665 36.3352C34.3003 39.2006 32.9944 42.7665 32.9622 46.4521V62.6948C32.9602 63.3759 32.6829 64.0289 32.1911 64.51C31.699 64.9911 31.0325 65.2617 30.3374 65.2625C29.7338 65.2632 29.155 65.4983 28.728 65.9166C28.3011 66.3349 28.0611 66.9022 28.0603 67.4936V69.9563C28.0611 70.5477 28.3011 71.1149 28.728 71.5333C29.1549 71.9516 29.7338 72.1867 30.3374 72.1875H44.1208C44.4144 73.8404 45.4895 75.2595 47.0189 76.0135C48.5488 76.7674 50.352 76.7674 51.8818 76.0135C53.4113 75.2595 54.4863 73.8405 54.78 72.1875H68.5633C69.1669 72.1867 69.7458 71.9516 70.1727 71.5333C70.5997 71.115 70.8396 70.5477 70.8404 69.9563V67.4936C70.8396 66.9022 70.5997 66.335 70.1727 65.9166C69.7458 65.4983 69.1671 65.2635 68.5635 65.2627ZM47.7754 28.4807C47.7754 27.8944 48.0945 27.3521 48.613 27.0589C49.1314 26.7658 49.7704 26.7658 50.2888 27.0589C50.8073 27.3521 51.1264 27.8944 51.1264 28.4807V30.3808C50.0119 30.2791 48.8899 30.2791 47.7755 30.3808L47.7754 28.4807ZM49.4509 74.8687C48.6444 74.8679 47.861 74.6036 47.2244 74.1182C46.5878 73.6328 46.1342 72.9537 45.9349 72.1876H52.967C52.7677 72.9537 52.3141 73.6328 51.6775 74.1182C51.0409 74.6036 50.2574 74.8679 49.4509 74.8687ZM69.0584 69.9565C69.058 70.2239 68.8368 70.4407 68.5639 70.4411H30.3378C30.0648 70.4407 29.8436 70.2239 29.8432 69.9565V67.4938C29.8436 67.2263 30.0648 67.0096 30.3378 67.0092C31.5064 67.008 32.6268 66.5527 33.4528 65.7429C34.2792 64.9336 34.7439 63.8358 34.7452 62.6908V46.452C34.6274 37.7954 43.1588 30.6543 51.8704 32.2412C55.2914 32.8271 58.3945 34.5706 60.6393 37.167C62.8846 39.7639 64.1288 43.0494 64.1562 46.4521V62.6949C64.1586 63.8391 64.6237 64.9357 65.4501 65.7443C66.2761 66.5532 67.3958 67.0078 68.5634 67.009C68.8364 67.0094 69.0576 67.2261 69.058 67.4936L69.0584 69.9565ZM72.6063 43.0489C72.2423 40.1667 71.2918 37.3851 69.8113 34.8694C68.3303 32.3537 66.3493 30.1546 63.9855 28.4026C63.1906 27.8232 62.1437 27.6942 61.2274 28.063C60.3107 28.4314 59.6582 29.2435 59.5074 30.2029C59.3565 31.1623 59.7298 32.1287 60.4909 32.7505C64.0663 35.4233 66.4389 39.3554 67.1056 43.7138C67.2552 44.6517 67.8942 45.4455 68.7907 45.8065C69.6871 46.1679 70.7109 46.0439 71.4911 45.4806C72.2709 44.9169 72.6939 43.9946 72.6063 43.0489ZM70.6038 43.9701C70.346 44.2547 69.9425 44.367 69.5705 44.2574C69.1984 44.1479 68.9247 43.8368 68.8694 43.4602C68.1373 38.6549 65.5232 34.3181 61.5818 31.3702C60.562 30.5765 61.8838 29.0124 62.8964 29.785C65.0728 31.3955 66.897 33.4184 68.2618 35.7322C69.6265 38.0464 70.5035 40.605 70.8409 43.2571C70.8711 43.5175 70.7848 43.7771 70.6038 43.9701ZM31.5191 43.7136C32.1851 39.3558 34.5573 35.4235 38.1323 32.7504C38.8831 32.1262 39.2483 31.164 39.0959 30.2109C38.9435 29.2577 38.2958 28.4511 37.3859 28.0819C36.4763 27.7123 35.4358 27.834 34.6405 28.4024C32.2763 30.1544 30.2953 32.3535 28.8143 34.8692C27.3334 37.385 26.3825 40.1665 26.0185 43.0487C25.9281 43.8039 26.172 44.5609 26.6877 45.129C27.1616 45.644 27.8177 45.9637 28.5228 46.0229C29.2282 46.0822 29.93 45.8763 30.4863 45.4475C31.0425 45.0187 31.4116 44.3989 31.5191 43.7136ZM27.7886 43.2567C28.1248 40.6054 29.0005 38.0467 30.3636 35.7325C31.7272 33.4183 33.5506 31.3958 35.7259 29.7849C36.1747 29.4676 36.7977 29.5487 37.1463 29.9697C37.4952 30.3904 37.4483 31.0044 37.0397 31.3696C33.099 34.3181 30.4857 38.6552 29.7545 43.4597C29.6694 43.9668 29.1951 44.3208 28.6735 44.267C28.1519 44.2128 27.7635 43.7701 27.7886 43.2567Z" fill="#00A89E"/>
</svg>
