<svg width="51" height="57" viewBox="0 0 51 57" fill="none" xmlns="http://www.w3.org/2000/svg">
<path fill-rule="evenodd" clip-rule="evenodd" d="M28.2606 27.1763C28.5947 26.8449 29.1366 26.8449 29.4707 27.1763L31.0049 28.6979L32.2539 27.4592C32.5881 27.1277 33.1299 27.1277 33.4641 27.4592C33.7983 27.7906 33.7983 28.328 33.4641 28.6594L32.2151 29.8981L33.7493 31.4197C34.0835 31.7511 34.0835 32.2885 33.7493 32.6199C33.4151 32.9513 32.8733 32.9513 32.5392 32.6199L31.0049 31.0983L29.4707 32.6199C29.1366 32.9513 28.5947 32.9513 28.2606 32.6199C27.9264 32.2885 27.9264 31.7511 28.2606 31.4197L29.7948 29.8981L28.2606 28.3765C27.9264 28.0451 27.9264 27.5077 28.2606 27.1763ZM13.1429 27.7421C13.4771 27.4106 14.0189 27.4106 14.353 27.7421L16.1725 29.5466L17.9919 27.7421C18.3261 27.4106 18.8679 27.4106 19.2021 27.7421C19.5363 28.0735 19.5363 28.6109 19.2021 28.9423L17.3827 30.7468L18.6316 31.9855C18.9658 32.3169 18.9658 32.8543 18.6316 33.1857C18.2975 33.5171 17.7556 33.5171 17.4215 33.1857L16.1725 31.947L14.6383 33.4686C14.3041 33.8 13.7623 33.8 13.4281 33.4686C13.0939 33.1372 13.0939 32.5998 13.4281 32.2684L14.9623 30.7468L13.1429 28.9423C12.8087 28.6109 12.8087 28.0735 13.1429 27.7421ZM29.303 39.5752C27.5424 37.053 22.5361 35.5623 18.6508 39.6726C18.3276 40.0145 17.7861 40.0319 17.4413 39.7113C17.0965 39.3907 17.079 38.8536 17.4023 38.5117C22.0741 33.5693 28.3634 35.2471 30.7102 38.6091C30.9792 38.9944 30.8823 39.5231 30.4937 39.7899C30.1051 40.0567 29.5721 39.9606 29.303 39.5752Z" fill="#00A89E"/>
<path fill-rule="evenodd" clip-rule="evenodd" d="M40.756 0.0752544C41.2161 0.182352 41.5015 0.639087 41.3935 1.0954L40.2649 5.86453C40.157 6.32085 39.6964 6.60394 39.2363 6.49685C38.7762 6.38975 38.4908 5.93301 38.5988 5.4767L39.7274 0.707568C39.8354 0.251253 40.2959 -0.031843 40.756 0.0752544ZM46.4742 2.86573C46.836 3.16739 46.8826 3.70276 46.5784 4.06149L42.7058 8.62886C42.4016 8.9876 41.8618 9.03386 41.5001 8.73219C41.1384 8.43052 41.0917 7.89516 41.3959 7.53643L45.2686 2.96905C45.5727 2.61032 46.1125 2.56406 46.4742 2.86573ZM44.1288 10.6743C43.9788 10.2298 44.2205 9.74888 44.6686 9.60009L49.5374 7.98358C49.9855 7.83478 50.4704 8.07447 50.6205 8.51894C50.7705 8.96341 50.5288 9.44435 50.0807 9.59314L45.2119 11.2097C44.7638 11.3584 44.2789 11.1188 44.1288 10.6743Z" fill="#00A89E"/>
<path d="M42.6846 45.3153C41.9887 45.3146 41.3214 45.0436 40.8293 44.5614C40.3371 44.0791 40.0606 43.4253 40.0598 42.7435V26.5047C40.0275 22.819 38.7221 19.2527 36.3555 16.3878C33.9894 13.5224 30.702 11.5271 27.0295 10.7275V8.53305C27.0295 7.32256 26.3707 6.20408 25.3007 5.59868C24.2308 4.99363 22.9123 4.99363 21.8424 5.59868C20.7724 6.20412 20.1135 7.32256 20.1135 8.53305V10.7275C16.4415 11.5275 13.1542 13.5224 10.7876 16.3878C8.42142 19.2532 7.1155 22.8191 7.08332 26.5047V42.7475C7.08133 43.4285 6.80401 44.0815 6.31223 44.5627C5.82005 45.0437 5.1536 45.3143 4.45853 45.3151C3.85494 45.3159 3.27606 45.5509 2.84908 45.9692C2.42215 46.3876 2.18222 46.9548 2.18143 47.5462V50.0089C2.18223 50.6003 2.42215 51.1675 2.84908 51.5859C3.276 52.0042 3.85492 52.2393 4.45853 52.2401H18.2419C18.5355 53.893 19.6106 55.3121 21.14 56.0661C22.6699 56.8201 24.4731 56.8201 26.0029 56.0661C27.5324 55.3121 28.6074 53.8931 28.901 52.2401H42.6844C43.288 52.2393 43.8669 52.0042 44.2938 51.5859C44.7208 51.1676 44.9607 50.6004 44.9615 50.0089V47.5462C44.9607 46.9548 44.7208 46.3876 44.2938 45.9692C43.8669 45.5509 43.2882 45.3161 42.6846 45.3153ZM21.8965 8.53332C21.8965 7.94699 22.2156 7.40466 22.7341 7.11155C23.2525 6.81838 23.8915 6.81838 24.4099 7.11155C24.9284 7.40471 25.2475 7.947 25.2475 8.53332V10.4335C24.133 10.3317 23.011 10.3317 21.8966 10.4335L21.8965 8.53332ZM23.572 54.9213C22.7655 54.9205 21.9821 54.6562 21.3455 54.1708C20.7089 53.6854 20.2553 53.0063 20.056 52.2402H27.0881C26.8888 53.0063 26.4352 53.6854 25.7986 54.1708C25.162 54.6562 24.3785 54.9205 23.572 54.9213ZM43.1795 50.0091C43.1791 50.2766 42.9579 50.4933 42.6849 50.4937H4.45888C4.18593 50.4933 3.96471 50.2766 3.96431 50.0091V47.5464C3.96471 47.279 4.18593 47.0622 4.45888 47.0618C5.62749 47.0606 6.74792 46.6053 7.57388 45.7955C8.40028 44.9862 8.86503 43.8884 8.86625 42.7434V26.5046C8.74848 17.848 17.2799 10.707 25.9915 12.2938C29.4125 12.8798 32.5156 14.6232 34.7604 17.2196C37.0057 19.8165 38.2499 23.1021 38.2773 26.5047V42.7475C38.2797 43.8917 38.7448 44.9883 39.5712 45.7969C40.3972 46.6059 41.5168 47.0604 42.6845 47.0616C42.9575 47.062 43.1787 47.2788 43.1791 47.5462L43.1795 50.0091ZM46.7274 23.1015C46.3634 20.2193 45.4128 17.4378 43.9323 14.922C42.4514 12.4063 40.4704 10.2072 38.1066 8.45518C37.3116 7.87586 36.2648 7.74681 35.3485 8.11562C34.4318 8.48403 33.7793 9.29608 33.6285 10.2555C33.4776 11.2149 33.8509 12.1814 34.612 12.8031C38.1874 15.4759 40.56 19.408 41.2267 23.7664C41.3763 24.7043 42.0153 25.4981 42.9118 25.8591C43.8082 26.2205 44.832 26.0965 45.6122 25.5332C46.392 24.9695 46.815 24.0472 46.7274 23.1015ZM44.7249 24.0227C44.4671 24.3073 44.0636 24.4196 43.6916 24.3101C43.3195 24.2005 43.0458 23.8894 42.9905 23.5128C42.2584 18.7075 39.6443 14.3707 35.7029 11.4228C34.6831 10.6291 36.0049 9.06498 37.0175 9.83765C39.1939 11.4481 41.0181 13.471 42.3829 15.7848C43.7476 18.099 44.6246 20.6576 44.9619 23.3097C44.9922 23.5701 44.9059 23.8298 44.7249 24.0227ZM5.64017 23.7662C6.30623 19.4085 8.67838 15.4761 12.2534 12.803C13.0042 12.1788 13.3694 11.2166 13.217 10.2635C13.0646 9.31032 12.4169 8.5037 11.5069 8.13454C10.5974 7.76496 9.55689 7.88659 8.76158 8.45499C6.39737 10.207 4.41635 12.4061 2.93544 14.9219C1.45454 17.4376 0.503595 20.2191 0.139557 23.1013C0.0492376 23.8565 0.293138 24.6135 0.808791 25.1816C1.28266 25.6966 1.9388 26.0163 2.64385 26.0755C3.3493 26.1348 4.05112 25.9289 4.60736 25.5001C5.16359 25.0713 5.5327 24.4516 5.64017 23.7662ZM1.90965 23.3093C2.24586 20.658 3.12154 18.0993 4.4847 15.7851C5.84827 13.4709 7.67172 11.4484 9.84698 9.83755C10.2958 9.52021 10.9188 9.6013 11.2674 10.0223C11.6163 10.443 11.5694 11.057 11.1608 11.4223C7.22009 14.3707 4.60684 18.7078 3.87561 23.5123C3.79046 24.0195 3.31618 24.3734 2.79459 24.3196C2.27297 24.2655 1.88458 23.8228 1.90965 23.3093Z" fill="#00A89E"/>
</svg>
