<svg width="308" height="32" viewBox="0 0 308 32" fill="none" xmlns="http://www.w3.org/2000/svg">
<path d="M-2.20575e-07 5.04615L0 -5.07052e-06L2.5 -4.96124e-06L2.5 5.04615C2.5 8.73846 3.79166 11.8564 6.375 14.4C8.95834 16.9436 12.625 18.2154 17.375 18.2154L140.5 18.2154C143.917 18.2154 146.75 19.159 149 21.0461C151.333 22.9333 153 25.1897 154 27.8154C155 25.1897 156.625 22.9333 158.875 21.0461C161.208 19.159 164.083 18.2154 167.5 18.2154L290.625 18.2154C295.375 18.2154 299.042 16.9436 301.625 14.4C304.208 11.8564 305.5 8.73846 305.5 5.04615L305.5 -1.09278e-07L308 0L308 5.04615C308 9.14872 306.458 12.759 303.375 15.8769C300.375 19.0769 296.125 20.6769 290.625 20.6769L167.5 20.6769C163.75 20.6769 160.75 21.9487 158.5 24.4923C156.333 27.0359 155.25 29.5385 155.25 32L152.75 32C152.75 29.5385 151.625 27.0359 149.375 24.4923C147.208 21.9487 144.25 20.6769 140.5 20.6769L17.375 20.6769C11.875 20.6769 7.625 19.0769 4.625 15.8769C1.54166 12.759 -3.99904e-07 9.14872 -2.20575e-07 5.04615Z" fill="#3E4260"/>
</svg>
