<svg width="43" height="152" viewBox="0 0 43 152" fill="none" xmlns="http://www.w3.org/2000/svg">
<path d="M6.70555 151.911H0V148.638H6.70555C11.6121 148.638 15.7553 146.947 19.1354 143.565C22.5154 140.183 24.2054 135.382 24.2054 129.163V93.6512C24.2054 89.1781 25.4593 85.4687 27.9671 82.523C30.4748 79.4681 33.4732 77.2861 36.9623 75.9769C33.4732 74.6677 30.4748 72.5403 27.9671 69.5945C25.4593 66.5397 24.2054 62.7758 24.2054 58.3026V22.7904C24.2054 16.5717 22.5154 11.7713 19.1354 8.38916C15.7553 5.00704 11.6121 3.31598 6.70555 3.31598H0V0.0429688H6.70555C12.1572 0.0429688 16.9547 2.06133 21.098 6.09805C25.3503 10.0257 27.4764 15.5898 27.4764 22.7904V58.3026C27.4764 63.2122 29.1664 67.1398 32.5465 70.0855C35.9265 72.9221 39.252 74.3404 42.523 74.3404V77.6134C39.252 77.6134 35.9265 79.0863 32.5465 82.032C29.1664 84.8686 27.4764 88.7417 27.4764 93.6512V129.163C27.4764 136.364 25.3503 141.928 21.098 145.856C16.9547 149.893 12.1572 151.911 6.70555 151.911Z" fill="#3E4260"/>
</svg>
