<svg width="128" height="127" viewBox="0 0 128 127" fill="none" xmlns="http://www.w3.org/2000/svg">
<path d="M89.6529 104.05C92.3878 102.861 95.0276 101.464 97.5491 99.8715V119.057C97.5491 120.104 97.1332 121.108 96.3927 121.848C95.6523 122.589 94.6481 123.005 93.601 123.005C92.5539 123.005 91.5497 122.589 90.8093 121.848C90.0688 121.108 89.6529 120.104 89.6529 119.057V104.05ZM60.5066 46.1326C60.2626 46.5901 60.1111 47.0911 60.0608 47.6072C60.0104 48.1232 60.0622 48.644 60.2132 49.14C60.3641 49.636 60.6113 50.0974 60.9406 50.4979C61.2698 50.8984 61.6748 51.2301 62.1322 51.4741L85.2115 63.783L93.601 59.3086L65.8481 44.507C65.3906 44.2629 64.8896 44.1113 64.3735 44.0609C63.8575 44.0105 63.3366 44.0622 62.8405 44.2132C62.3445 44.3642 61.8831 44.6114 61.4826 44.9407C61.0822 45.2701 60.7505 45.6751 60.5066 46.1326ZM125.07 44.507L65.8481 12.9221C65.2763 12.6172 64.6382 12.4576 63.9901 12.4576C63.3421 12.4576 62.704 12.6172 62.1322 12.9221L2.91052 44.507C2.27913 44.8437 1.75112 45.3457 1.38296 45.9593C1.01479 46.5729 0.820313 47.275 0.820312 47.9906C0.820312 48.7061 1.01479 49.4082 1.38296 50.0218C1.75112 50.6354 2.27913 51.1374 2.91052 51.4741L14.6387 57.7291V82.2672C14.6407 83.9739 15.1936 85.6343 16.2152 87.0016C20.1262 92.2059 35.1292 109.186 63.9901 109.186C72.8099 109.267 81.5497 107.51 89.6529 104.026V66.1518L85.2115 63.783L63.9901 75.1011L20.4802 51.8957L20.452 51.8806L13.1582 47.9906L63.9901 20.88L114.822 47.9906L107.528 51.8806L107.5 51.8957L93.601 59.3086L95.4589 60.2995C96.0867 60.6405 96.6117 61.1434 96.9793 61.7561C97.3469 62.3687 97.5437 63.0686 97.5491 63.783V99.8425C103.009 96.4352 107.821 92.088 111.765 87.002C112.786 85.6347 113.34 83.9741 113.342 82.2672V57.7291L125.07 51.474C125.701 51.1373 126.229 50.6354 126.597 50.0218C126.965 49.4082 127.16 48.7061 127.16 47.9905C127.16 47.275 126.965 46.5729 126.597 45.9593C126.229 45.3457 125.701 44.8437 125.07 44.507V44.507Z" fill="#3E4260"/>
</svg>
