<svg width="24" height="24" viewBox="0 0 24 24" fill="none" xmlns="http://www.w3.org/2000/svg">
<path d="M11.2103 4C11.3619 4 11.5135 4.05136 11.6315 4.17128L18.7239 11.3801C20.4254 13.1267 20.4254 15.952 18.7239 17.6815C17.8984 18.5376 16.7865 19 15.6241 19C14.4449 19 13.3498 18.5376 12.5244 17.6987L4.90971 9.95898C3.69676 8.72611 3.69676 6.70558 4.90971 5.47271C6.08894 4.27411 8.14425 4.27411 9.32351 5.47271L16.9382 13.2124C17.6625 13.9486 17.6625 15.1473 16.9382 15.8836C16.2138 16.6198 15.0345 16.6198 14.3101 15.8836L7.21772 8.67471C6.98188 8.43499 6.98188 8.05828 7.21772 7.83565C7.45357 7.59593 7.8242 7.59593 8.04324 7.83565L15.1525 15.0274C15.4221 15.3014 15.8432 15.3014 16.1128 15.0274C16.3824 14.7534 16.3824 14.3253 16.1128 14.0513L8.49815 6.31162C7.75687 5.55817 6.49338 5.55817 5.75213 6.31162C5.38151 6.68833 5.17938 7.18487 5.17938 7.69857C5.17938 8.22936 5.3815 8.72602 5.75213 9.08552L13.3499 16.8423C13.9564 17.4588 14.765 17.8012 15.6243 17.8012C16.4834 17.8012 17.2921 17.4588 17.8986 16.8423C19.1453 15.5752 19.1453 13.5033 17.8986 12.2362L10.8062 5.02732C10.5704 4.7876 10.5704 4.41088 10.8062 4.18825C10.9241 4.06857 11.0757 4.00001 11.2105 4.00001L11.2103 4Z" fill="#757B8A"/>
</svg>
