<svg width="96" height="63" viewBox="0 0 96 63" fill="none" xmlns="http://www.w3.org/2000/svg">
<mask id="path-1-inside-1_4382_36282" fill="white">
<path d="M2.50337 28.8307L12.1862 34.0056C11.4942 34.7402 10.9511 35.6151 10.6438 36.6206C10.1252 38.3155 10.2815 40.1135 11.0917 41.6978C11.6051 42.6818 12.3529 43.4782 13.2368 44.0855C12.9645 44.5439 12.7272 45.0245 12.5657 45.55C12.0449 47.2473 12.2011 49.0459 13.0114 50.6312C13.8253 52.1942 15.1721 53.3451 16.8216 53.8816C17.4562 54.083 18.1065 54.1814 18.7531 54.1814C19.3461 54.1814 19.9339 54.0883 20.5068 53.922C20.5887 54.7184 20.8089 55.5102 21.1906 56.2577C21.9554 57.807 23.3378 59.0069 24.9977 59.5515C25.6495 59.7613 26.3162 59.865 26.9762 59.865C28.0074 59.865 29.026 59.611 29.9553 59.1114L33.5512 57.1845C33.6524 57.9405 33.8734 58.6827 34.2253 59.3859C35.392 61.6759 37.6576 62.997 39.9774 62.997C40.9469 62.997 41.9259 62.7666 42.8383 62.2799L48.001 59.5208L53.1676 62.2791C54.0582 62.7582 55.0299 63 56.0142 63C56.6905 63 57.3728 62.8863 58.0395 62.6567C59.6466 62.1037 60.9695 60.942 61.7662 59.3759C62.1174 58.6771 62.3377 57.9365 62.4396 57.1835L66.0391 59.108C66.9692 59.613 67.9855 59.8693 69.016 59.8693C69.6759 59.8693 70.3426 59.764 70.9944 59.552C72.6469 59.015 73.9982 57.857 74.8069 56.278C75.1886 55.5213 75.4073 54.7226 75.4884 53.9217C76.0599 54.0865 76.6476 54.1796 77.2406 54.1796C77.8894 54.1796 78.5419 54.0804 79.1812 53.879C80.8344 53.3473 82.1855 52.1848 82.9816 50.6181C83.7904 49.0467 83.9489 47.2464 83.4296 45.5492C82.9087 43.8497 81.7733 42.4628 80.2361 41.6481L79.6253 41.3209C79.8663 41.0745 80.1178 40.8441 80.3485 40.5871C81.9057 38.8242 82.9414 36.6106 83.344 34.2589L93.4956 28.8347C94.5975 28.2465 95.4093 27.2534 95.7828 26.0383C96.1563 24.8231 96.0454 23.5317 95.471 22.402L85.3878 2.5676C84.8142 1.43788 83.8455 0.60564 82.6595 0.222699C81.4765 -0.160222 80.2161 -0.0465691 79.1143 0.542312L70.8564 4.95521C65.3245 0.0504074 53.0347 2.2549 49.135 3.12219C49.1268 3.12448 49.1201 3.12753 49.1112 3.12982C49.0888 3.13516 49.0665 3.1344 49.0442 3.1405L47.9914 3.42273L46.9527 3.1405C46.9364 3.13592 46.92 3.13592 46.9036 3.13287C46.8873 3.12829 46.8739 3.12066 46.8575 3.11761C42.9505 2.25031 30.6146 0.0412004 25.1361 4.95291L16.8833 0.543925C15.7814 -0.0457172 14.5224 -0.159388 13.3366 0.224314C12.1513 0.607235 11.1819 1.43947 10.6082 2.56921L0.528854 22.3978C-0.046276 23.5275 -0.155663 24.8188 0.217109 26.034C0.590605 27.2484 1.40236 28.2409 2.50429 28.8296L2.50337 28.8307ZM15.4844 40.3818C15.2292 40.182 15.0119 39.9333 14.8624 39.6472C14.8408 39.606 14.8304 39.561 14.8111 39.5183C15.0216 39.8181 15.2486 40.1034 15.4844 40.3818L15.4844 40.3818ZM18.096 49.7032C17.532 49.5209 17.0625 49.1159 16.785 48.5827C16.5127 48.0502 16.4606 47.4384 16.6377 46.8595C16.817 46.2767 17.2039 45.8022 17.7321 45.5207L18.9613 44.8632C19.2812 44.7518 19.5788 44.6267 19.8251 44.4894L20.0371 44.3765C20.7953 44.8983 21.5952 45.4086 22.4798 45.8892L24.5534 46.9968L19.7834 49.5438C19.2552 49.8237 18.6503 49.881 18.096 49.7032H18.096ZM27.9782 55.2351C27.4619 55.5127 26.857 55.5631 26.2878 55.3807C25.7216 55.1946 25.2521 54.7949 24.9872 54.2579C24.4232 53.1511 24.8466 51.7788 25.9269 51.1991L29.1693 49.466C31.1938 50.5484 32.754 51.3821 33.9683 52.0259L27.9782 55.2351ZM40.8678 58.3984C39.876 58.9285 38.565 58.4518 38.0145 57.3701C37.7311 56.8049 37.6753 56.1641 37.8598 55.5585C37.9565 55.2373 38.1775 54.8178 38.612 54.505L43.3843 57.0528L40.8678 58.3984ZM68.6862 8.92074C68.7621 9.03135 68.8216 9.15035 68.8581 9.21366L75.7463 22.9107C76.125 23.6628 76.8713 24.0961 77.6436 24.0961C77.9732 24.0961 78.3073 24.0175 78.6198 23.852C79.6674 23.2989 80.078 21.98 79.5379 20.906L73.3289 8.56305L81.0876 4.41729C81.2014 4.35474 81.3093 4.36771 81.38 4.39136C81.4492 4.41424 81.5452 4.46535 81.6062 4.58511L91.6894 24.4195C91.7504 24.5385 91.7362 24.6491 91.7147 24.7201C91.6931 24.791 91.6425 24.8886 91.5257 24.9504L83.2647 29.3641C83.0378 28.2474 82.674 27.1596 82.1658 26.1313C81.6323 25.0527 80.3474 24.624 79.2982 25.1686C78.2477 25.714 77.8273 27.0306 78.3593 28.1085C78.834 29.0689 79.1122 30.1086 79.2156 31.1697C78.8942 30.9073 78.5468 30.6708 78.1695 30.4695L52.1606 16.4126C52.4285 15.977 52.555 15.4484 52.4686 14.8999C52.2797 13.7092 51.1897 12.9022 50.0207 13.0921L46.3042 13.7107L39.8021 14.6406C38.4487 14.8366 36.8595 13.8816 36.7046 12.7343L36.5811 11.9677C36.5566 11.8006 36.5246 11.6244 36.4926 11.4437C36.471 11.33 36.4442 11.1812 36.4219 11.0378C36.4621 11.0302 36.5023 11.0203 36.5402 11.0096L48.6828 7.75551C48.685 7.75474 48.6872 7.75474 48.688 7.75474L50.028 7.39623C50.0325 7.39547 50.0362 7.39623 50.0406 7.39547C59.2027 5.35794 66.689 5.96217 68.6861 8.92184L68.6862 8.92074ZM4.31247 24.4194L14.3957 4.58498C14.4567 4.46598 14.5512 4.41335 14.6219 4.39123C14.691 4.36834 14.7982 4.35538 14.9143 4.41716L22.6798 8.56604L21.0935 11.718C20.5541 12.7905 20.9633 14.111 22.0109 14.664C22.3234 14.8288 22.6575 14.9081 22.9878 14.9081C23.7609 14.9081 24.5064 14.4763 24.8851 13.7235L27.1656 9.19163C27.2028 9.11535 27.2423 9.0406 27.3375 8.90711C28.6633 6.94984 32.4303 6.03203 37.495 6.23122L35.5739 6.74611C34.3336 6.94978 33.3991 7.48756 32.7949 8.34723C31.8373 9.71113 32.126 11.2963 32.2986 12.2436C32.3224 12.3756 32.347 12.5052 32.3678 12.6517L32.4861 13.3848C32.9608 16.9127 36.3647 19.0342 39.4755 19.0342C39.7835 19.0342 40.0886 19.0136 40.3877 18.9708L46.2111 18.1379L76.1933 34.3452C77.2759 34.9226 77.6955 36.3003 77.1308 37.4148C76.5973 38.4621 75.2313 38.9381 74.157 38.3904L73.7336 38.1638L50.9913 26.0017C49.9481 25.4418 48.6572 25.8575 48.1134 26.9293C47.9758 27.2008 47.8991 27.4869 47.8776 27.7737C47.8106 28.6242 48.2347 29.4732 49.0189 29.8921L71.7231 42.0222L74.9233 43.7339C74.9262 43.7362 74.93 43.7369 74.9329 43.7392L78.2729 45.525C78.7989 45.8041 79.185 46.2763 79.3621 46.8538C79.5385 47.4304 79.4849 48.0399 79.2051 48.5838C78.9321 49.1231 78.4715 49.519 77.9209 49.6967C77.3495 49.876 76.7424 49.8203 76.2193 49.5449L70.7233 46.6119C70.7233 46.6119 70.7225 46.6119 70.721 46.6111L67.8163 45.0596C67.6534 44.9718 67.4823 44.9162 67.3119 44.8757C67.1787 44.7476 67.0336 44.6309 66.8647 44.5378L57.7213 39.5315C57.7206 39.5315 57.7206 39.5315 57.7191 39.5307L48.5088 34.4886L46.4984 38.3469L55.7087 43.389C55.7094 43.389 55.7094 43.3898 55.7109 43.3898L64.8551 48.3961C65.0269 48.4899 65.2048 48.5532 65.3863 48.5952C65.5232 48.7256 65.6713 48.8446 65.8446 48.9377L68.7501 50.4907H68.7508L68.8475 50.5419L70.07 51.1956C71.154 51.7753 71.5796 53.1523 71.0246 54.2499C70.7486 54.79 70.2798 55.1889 69.7076 55.3751C69.137 55.5589 68.5462 55.5108 68.0276 55.2294L59.2116 50.5175C59.1968 50.5091 59.1841 50.4969 59.1692 50.4878L58.3992 50.0713C58.3992 50.0713 49.479 45.3145 49.0222 45.0649C49.0081 45.0573 48.9954 45.0497 48.9806 45.0428L43.866 42.312C42.8251 41.7521 41.5335 42.1625 40.9859 43.2327C40.439 44.3022 40.8408 45.6241 41.8839 46.1855L43.5438 47.0712C43.5632 47.0818 43.5781 47.0963 43.5974 47.107L47.0141 48.9332C47.0558 48.9561 47.0997 48.9767 47.1421 48.9957L57.2102 54.3774C57.7712 54.7008 58.0316 55.202 58.1432 55.562C58.3225 56.1517 58.2638 56.7924 57.981 57.3546C57.7028 57.9016 57.2422 58.3096 56.6842 58.5019C56.1574 58.6834 55.6113 58.6453 55.1425 58.3951L39.573 50.0858C39.5589 50.0782 39.544 50.0705 39.5306 50.0637C39.0581 49.8165 30.5249 45.255 30.1878 45.0757C30.1811 45.0726 30.1565 45.0589 30.1565 45.0589L24.4646 42.0177C23.3486 41.4105 22.3487 40.7644 21.4923 40.0939C21.47 40.0763 21.4432 40.0565 21.4142 40.0359C21.4023 40.026 21.3904 40.0176 21.3777 40.0084C20.4656 39.328 19.6188 38.5507 18.802 37.6459C17.927 36.6604 17.2961 35.427 16.9694 34.0501C16.8534 33.5886 16.7805 33.1401 16.7477 32.6801C16.6346 31.066 16.9501 29.474 17.6651 28.0674L22.229 18.9999C22.7684 17.9274 22.3592 16.6069 21.3116 16.0539C20.2655 15.5009 18.9776 15.9204 18.4382 16.9945L13.8781 26.0536C13.3483 27.0979 12.9637 28.2101 12.73 29.3605L4.47728 24.9515C4.36121 24.8889 4.30987 24.792 4.28829 24.7211C4.2682 24.6509 4.25183 24.5395 4.31285 24.419L4.31247 24.4194Z"/>
</mask>
<path d="M2.50337 28.8307L12.1862 34.0056C11.4942 34.7402 10.9511 35.6151 10.6438 36.6206C10.1252 38.3155 10.2815 40.1135 11.0917 41.6978C11.6051 42.6818 12.3529 43.4782 13.2368 44.0855C12.9645 44.5439 12.7272 45.0245 12.5657 45.55C12.0449 47.2473 12.2011 49.0459 13.0114 50.6312C13.8253 52.1942 15.1721 53.3451 16.8216 53.8816C17.4562 54.083 18.1065 54.1814 18.7531 54.1814C19.3461 54.1814 19.9339 54.0883 20.5068 53.922C20.5887 54.7184 20.8089 55.5102 21.1906 56.2577C21.9554 57.807 23.3378 59.0069 24.9977 59.5515C25.6495 59.7613 26.3162 59.865 26.9762 59.865C28.0074 59.865 29.026 59.611 29.9553 59.1114L33.5512 57.1845C33.6524 57.9405 33.8734 58.6827 34.2253 59.3859C35.392 61.6759 37.6576 62.997 39.9774 62.997C40.9469 62.997 41.9259 62.7666 42.8383 62.2799L48.001 59.5208L53.1676 62.2791C54.0582 62.7582 55.0299 63 56.0142 63C56.6905 63 57.3728 62.8863 58.0395 62.6567C59.6466 62.1037 60.9695 60.942 61.7662 59.3759C62.1174 58.6771 62.3377 57.9365 62.4396 57.1835L66.0391 59.108C66.9692 59.613 67.9855 59.8693 69.016 59.8693C69.6759 59.8693 70.3426 59.764 70.9944 59.552C72.6469 59.015 73.9982 57.857 74.8069 56.278C75.1886 55.5213 75.4073 54.7226 75.4884 53.9217C76.0599 54.0865 76.6476 54.1796 77.2406 54.1796C77.8894 54.1796 78.5419 54.0804 79.1812 53.879C80.8344 53.3473 82.1855 52.1848 82.9816 50.6181C83.7904 49.0467 83.9489 47.2464 83.4296 45.5492C82.9087 43.8497 81.7733 42.4628 80.2361 41.6481L79.6253 41.3209C79.8663 41.0745 80.1178 40.8441 80.3485 40.5871C81.9057 38.8242 82.9414 36.6106 83.344 34.2589L93.4956 28.8347C94.5975 28.2465 95.4093 27.2534 95.7828 26.0383C96.1563 24.8231 96.0454 23.5317 95.471 22.402L85.3878 2.5676C84.8142 1.43788 83.8455 0.60564 82.6595 0.222699C81.4765 -0.160222 80.2161 -0.0465691 79.1143 0.542312L70.8564 4.95521C65.3245 0.0504074 53.0347 2.2549 49.135 3.12219C49.1268 3.12448 49.1201 3.12753 49.1112 3.12982C49.0888 3.13516 49.0665 3.1344 49.0442 3.1405L47.9914 3.42273L46.9527 3.1405C46.9364 3.13592 46.92 3.13592 46.9036 3.13287C46.8873 3.12829 46.8739 3.12066 46.8575 3.11761C42.9505 2.25031 30.6146 0.0412004 25.1361 4.95291L16.8833 0.543925C15.7814 -0.0457172 14.5224 -0.159388 13.3366 0.224314C12.1513 0.607235 11.1819 1.43947 10.6082 2.56921L0.528854 22.3978C-0.046276 23.5275 -0.155663 24.8188 0.217109 26.034C0.590605 27.2484 1.40236 28.2409 2.50429 28.8296L2.50337 28.8307ZM15.4844 40.3818C15.2292 40.182 15.0119 39.9333 14.8624 39.6472C14.8408 39.606 14.8304 39.561 14.8111 39.5183C15.0216 39.8181 15.2486 40.1034 15.4844 40.3818L15.4844 40.3818ZM18.096 49.7032C17.532 49.5209 17.0625 49.1159 16.785 48.5827C16.5127 48.0502 16.4606 47.4384 16.6377 46.8595C16.817 46.2767 17.2039 45.8022 17.7321 45.5207L18.9613 44.8632C19.2812 44.7518 19.5788 44.6267 19.8251 44.4894L20.0371 44.3765C20.7953 44.8983 21.5952 45.4086 22.4798 45.8892L24.5534 46.9968L19.7834 49.5438C19.2552 49.8237 18.6503 49.881 18.096 49.7032H18.096ZM27.9782 55.2351C27.4619 55.5127 26.857 55.5631 26.2878 55.3807C25.7216 55.1946 25.2521 54.7949 24.9872 54.2579C24.4232 53.1511 24.8466 51.7788 25.9269 51.1991L29.1693 49.466C31.1938 50.5484 32.754 51.3821 33.9683 52.0259L27.9782 55.2351ZM40.8678 58.3984C39.876 58.9285 38.565 58.4518 38.0145 57.3701C37.7311 56.8049 37.6753 56.1641 37.8598 55.5585C37.9565 55.2373 38.1775 54.8178 38.612 54.505L43.3843 57.0528L40.8678 58.3984ZM68.6862 8.92074C68.7621 9.03135 68.8216 9.15035 68.8581 9.21366L75.7463 22.9107C76.125 23.6628 76.8713 24.0961 77.6436 24.0961C77.9732 24.0961 78.3073 24.0175 78.6198 23.852C79.6674 23.2989 80.078 21.98 79.5379 20.906L73.3289 8.56305L81.0876 4.41729C81.2014 4.35474 81.3093 4.36771 81.38 4.39136C81.4492 4.41424 81.5452 4.46535 81.6062 4.58511L91.6894 24.4195C91.7504 24.5385 91.7362 24.6491 91.7147 24.7201C91.6931 24.791 91.6425 24.8886 91.5257 24.9504L83.2647 29.3641C83.0378 28.2474 82.674 27.1596 82.1658 26.1313C81.6323 25.0527 80.3474 24.624 79.2982 25.1686C78.2477 25.714 77.8273 27.0306 78.3593 28.1085C78.834 29.0689 79.1122 30.1086 79.2156 31.1697C78.8942 30.9073 78.5468 30.6708 78.1695 30.4695L52.1606 16.4126C52.4285 15.977 52.555 15.4484 52.4686 14.8999C52.2797 13.7092 51.1897 12.9022 50.0207 13.0921L46.3042 13.7107L39.8021 14.6406C38.4487 14.8366 36.8595 13.8816 36.7046 12.7343L36.5811 11.9677C36.5566 11.8006 36.5246 11.6244 36.4926 11.4437C36.471 11.33 36.4442 11.1812 36.4219 11.0378C36.4621 11.0302 36.5023 11.0203 36.5402 11.0096L48.6828 7.75551C48.685 7.75474 48.6872 7.75474 48.688 7.75474L50.028 7.39623C50.0325 7.39547 50.0362 7.39623 50.0406 7.39547C59.2027 5.35794 66.689 5.96217 68.6861 8.92184L68.6862 8.92074ZM4.31247 24.4194L14.3957 4.58498C14.4567 4.46598 14.5512 4.41335 14.6219 4.39123C14.691 4.36834 14.7982 4.35538 14.9143 4.41716L22.6798 8.56604L21.0935 11.718C20.5541 12.7905 20.9633 14.111 22.0109 14.664C22.3234 14.8288 22.6575 14.9081 22.9878 14.9081C23.7609 14.9081 24.5064 14.4763 24.8851 13.7235L27.1656 9.19163C27.2028 9.11535 27.2423 9.0406 27.3375 8.90711C28.6633 6.94984 32.4303 6.03203 37.495 6.23122L35.5739 6.74611C34.3336 6.94978 33.3991 7.48756 32.7949 8.34723C31.8373 9.71113 32.126 11.2963 32.2986 12.2436C32.3224 12.3756 32.347 12.5052 32.3678 12.6517L32.4861 13.3848C32.9608 16.9127 36.3647 19.0342 39.4755 19.0342C39.7835 19.0342 40.0886 19.0136 40.3877 18.9708L46.2111 18.1379L76.1933 34.3452C77.2759 34.9226 77.6955 36.3003 77.1308 37.4148C76.5973 38.4621 75.2313 38.9381 74.157 38.3904L73.7336 38.1638L50.9913 26.0017C49.9481 25.4418 48.6572 25.8575 48.1134 26.9293C47.9758 27.2008 47.8991 27.4869 47.8776 27.7737C47.8106 28.6242 48.2347 29.4732 49.0189 29.8921L71.7231 42.0222L74.9233 43.7339C74.9262 43.7362 74.93 43.7369 74.9329 43.7392L78.2729 45.525C78.7989 45.8041 79.185 46.2763 79.3621 46.8538C79.5385 47.4304 79.4849 48.0399 79.2051 48.5838C78.9321 49.1231 78.4715 49.519 77.9209 49.6967C77.3495 49.876 76.7424 49.8203 76.2193 49.5449L70.7233 46.6119C70.7233 46.6119 70.7225 46.6119 70.721 46.6111L67.8163 45.0596C67.6534 44.9718 67.4823 44.9162 67.3119 44.8757C67.1787 44.7476 67.0336 44.6309 66.8647 44.5378L57.7213 39.5315C57.7206 39.5315 57.7206 39.5315 57.7191 39.5307L48.5088 34.4886L46.4984 38.3469L55.7087 43.389C55.7094 43.389 55.7094 43.3898 55.7109 43.3898L64.8551 48.3961C65.0269 48.4899 65.2048 48.5532 65.3863 48.5952C65.5232 48.7256 65.6713 48.8446 65.8446 48.9377L68.7501 50.4907H68.7508L68.8475 50.5419L70.07 51.1956C71.154 51.7753 71.5796 53.1523 71.0246 54.2499C70.7486 54.79 70.2798 55.1889 69.7076 55.3751C69.137 55.5589 68.5462 55.5108 68.0276 55.2294L59.2116 50.5175C59.1968 50.5091 59.1841 50.4969 59.1692 50.4878L58.3992 50.0713C58.3992 50.0713 49.479 45.3145 49.0222 45.0649C49.0081 45.0573 48.9954 45.0497 48.9806 45.0428L43.866 42.312C42.8251 41.7521 41.5335 42.1625 40.9859 43.2327C40.439 44.3022 40.8408 45.6241 41.8839 46.1855L43.5438 47.0712C43.5632 47.0818 43.5781 47.0963 43.5974 47.107L47.0141 48.9332C47.0558 48.9561 47.0997 48.9767 47.1421 48.9957L57.2102 54.3774C57.7712 54.7008 58.0316 55.202 58.1432 55.562C58.3225 56.1517 58.2638 56.7924 57.981 57.3546C57.7028 57.9016 57.2422 58.3096 56.6842 58.5019C56.1574 58.6834 55.6113 58.6453 55.1425 58.3951L39.573 50.0858C39.5589 50.0782 39.544 50.0705 39.5306 50.0637C39.0581 49.8165 30.5249 45.255 30.1878 45.0757C30.1811 45.0726 30.1565 45.0589 30.1565 45.0589L24.4646 42.0177C23.3486 41.4105 22.3487 40.7644 21.4923 40.0939C21.47 40.0763 21.4432 40.0565 21.4142 40.0359C21.4023 40.026 21.3904 40.0176 21.3777 40.0084C20.4656 39.328 19.6188 38.5507 18.802 37.6459C17.927 36.6604 17.2961 35.427 16.9694 34.0501C16.8534 33.5886 16.7805 33.1401 16.7477 32.6801C16.6346 31.066 16.9501 29.474 17.6651 28.0674L22.229 18.9999C22.7684 17.9274 22.3592 16.6069 21.3116 16.0539C20.2655 15.5009 18.9776 15.9204 18.4382 16.9945L13.8781 26.0536C13.3483 27.0979 12.9637 28.2101 12.73 29.3605L4.47728 24.9515C4.36121 24.8889 4.30987 24.792 4.28829 24.7211C4.2682 24.6509 4.25183 24.5395 4.31285 24.419L4.31247 24.4194Z" fill="#302525" stroke="white" mask="url(#path-1-inside-1_4382_36282)"/>
</svg>
