<svg width="22" height="10" viewBox="0 0 22 10" fill="none" xmlns="http://www.w3.org/2000/svg">
<path d="M19.25 2.44709C19.25 3.79299 18.0125 4.89418 16.5 4.89418C14.9875 4.89418 13.75 3.79299 13.75 2.44709C13.75 1.10119 14.9875 0 16.5 0C18.0125 0 19.25 1.10119 19.25 2.44709Z" fill="white"/>
<path d="M20.3225 6.82738C21.34 7.21891 22 8.09987 22 9.09094V9.78836H11V9.09094C11 8.09987 11.66 7.21891 12.6775 6.82738C13.8463 6.37467 15.1388 6.11772 16.5 6.11772C17.8612 6.11772 19.1538 6.37467 20.3225 6.82738Z" fill="white"/>
<path d="M6.1 7.16508V9.78836L10 5.87302L6.1 1.95767V4.5679L0 4.5679V5.85996V7.16508H6.1Z" fill="white"/>
</svg>
