<svg width="16" height="17" viewBox="0 0 16 17" fill="none" xmlns="http://www.w3.org/2000/svg">
<g clip-path="url(#clip0_4066_27306)">
<path fill-rule="evenodd" clip-rule="evenodd" d="M8.00182 1.5C4.13729 1.5 1 4.63729 1 8.50182C1 12.3663 4.13729 15.5036 8.00182 15.5036C11.8663 15.5036 15.0036 12.3663 15.0036 8.50182C15.0036 4.63729 11.8663 1.5 8.00182 1.5ZM10.4704 11.2417C10.261 12.2402 9.94011 13.1012 9.54043 13.7459C9.10356 14.451 8.58473 14.8949 8.00179 14.8949C7.41885 14.8949 6.90002 14.451 6.46316 13.7459C6.0635 13.1012 5.74262 12.2402 5.53314 11.2417H10.4704ZM4.91398 11.2417H2.22499C3.03116 12.9368 4.56153 14.2219 6.41543 14.696C6.2502 14.5146 6.09283 14.3039 5.94574 14.0667C5.49888 13.3462 5.13927 12.3722 4.914 11.2415L4.91398 11.2417ZM13.7787 11.2417H11.0897C10.8644 12.3723 10.5048 13.3462 10.0579 14.0669C9.91084 14.3041 9.75346 14.5148 9.58823 14.6962C11.4418 14.2221 12.9721 12.9372 13.7787 11.2419L13.7787 11.2417ZM4.80804 6.37072H1.97318C1.73721 7.03745 1.60877 7.75472 1.60877 8.50177C1.60877 9.24881 1.73721 9.96609 1.97318 10.6328H4.80804C4.70753 9.96181 4.6531 9.24545 4.6531 8.50177C4.6531 7.75809 4.70753 7.04173 4.80804 6.37072ZM10.5813 6.37072C10.6854 7.03867 10.7418 7.75563 10.7418 8.50177C10.7418 9.2479 10.6854 9.96486 10.5813 10.6328H5.42255C5.31848 9.96486 5.26211 9.2479 5.26211 8.50177C5.26211 7.75563 5.31848 7.03867 5.42255 6.37072H10.5813ZM14.0305 6.37072H11.1956C11.2961 7.04173 11.3505 7.75809 11.3505 8.50177C11.3505 9.24545 11.2961 9.96181 11.1956 10.6328H14.0305C14.2664 9.96609 14.3949 9.24881 14.3949 8.50177C14.3949 7.75472 14.2664 7.03745 14.0305 6.37072ZM6.41543 2.30761C4.56184 2.78169 3.03155 4.06661 2.22499 5.76194H4.91398C5.13924 4.63134 5.49885 3.6574 5.94571 2.93674C6.0928 2.69955 6.25018 2.48886 6.4154 2.30743L6.41543 2.30761ZM10.4704 5.76194H5.53319C5.74265 4.76343 6.06353 3.90243 6.46321 3.25772C6.90007 2.55266 7.4189 2.10877 8.00184 2.10877C8.58478 2.10877 9.10361 2.55269 9.54048 3.25772C9.94014 3.90243 10.261 4.76343 10.4705 5.76194H10.4704ZM9.58823 2.30761C9.75346 2.48905 9.91083 2.69973 10.0579 2.93692C10.5048 3.65746 10.8644 4.63142 11.0897 5.76213H13.7787C12.9725 4.06703 11.4421 2.78192 9.58821 2.30779L9.58823 2.30761Z" fill="#3E4260" stroke="#3E4260"/>
</g>
<defs>
<clipPath id="clip0_4066_27306">
<rect width="16" height="16" fill="white" transform="translate(0 0.5)"/>
</clipPath>
</defs>
</svg>
