<svg width="18" height="18" viewBox="0 0 18 18" fill="none" xmlns="http://www.w3.org/2000/svg">
<path d="M13.1212 3.36036C12.3335 2.5722 11.3506 2.00512 10.2719 1.71653C9.19315 1.42782 8.05682 1.42782 6.97804 1.71653C5.89929 2.0051 4.91641 2.5722 4.12869 3.36036C3.33297 4.14466 2.76018 5.12453 2.46864 6.20049C2.17712 7.27636 2.17712 8.41003 2.46864 9.48592C2.76016 10.5619 3.33297 11.5419 4.12869 12.3261L8.625 16.8L13.1213 12.3261C13.917 11.5419 14.4898 10.5619 14.7814 9.48592C15.0729 8.41006 15.0729 7.27639 14.7814 6.20049C14.4898 5.1245 13.917 4.14463 13.1213 3.36036H13.1212ZM12.3689 11.5596L8.62494 15.2849L4.881 11.5596C4.22209 10.9065 3.74815 10.0921 3.50686 9.19838C3.26557 8.3048 3.26557 7.3637 3.50686 6.46999C3.74815 5.57641 4.22209 4.7619 4.881 4.10889C5.87728 3.12701 7.22265 2.57637 8.62494 2.57637C10.0272 2.57637 11.3726 3.12705 12.3689 4.10889C13.0278 4.7619 13.5017 5.57638 13.743 6.46999C13.9843 7.3637 13.9843 8.3048 13.743 9.19838C13.5017 10.0921 13.0278 10.9065 12.3689 11.5596Z" fill="black" stroke="black" stroke-width="0.4"/>
<path d="M8.62422 5.3252C7.94792 5.3252 7.29935 5.59383 6.82116 6.07214C6.34288 6.5503 6.07422 7.19888 6.07422 7.87521C6.07422 8.55151 6.34286 9.20009 6.82116 9.67838C7.29931 10.1565 7.94789 10.4252 8.62422 10.4252C9.30055 10.4252 9.94909 10.1566 10.4273 9.67838C10.9056 9.20009 11.1742 8.55151 11.1742 7.87521C11.1742 7.19891 10.9056 6.55033 10.4273 6.07214C9.94912 5.59385 9.30055 5.3252 8.62422 5.3252ZM8.62422 9.28142C8.24521 9.28142 7.88186 9.13036 7.61441 8.86172C7.34708 8.59322 7.19773 8.22908 7.19941 7.85007C7.20111 7.47105 7.35361 7.10838 7.62342 6.84219C7.89323 6.57591 8.25786 6.42812 8.63691 6.4315C9.01592 6.43477 9.37796 6.58897 9.64293 6.85997C9.90804 7.13084 10.0541 7.49613 10.0492 7.87515C10.0443 8.24984 9.89196 8.60743 9.62529 8.8707C9.35861 9.13384 8.99895 9.28139 8.62425 9.28139L8.62422 9.28142Z" fill="black" stroke="black" stroke-width="0.4"/>
</svg>
