<svg width="16" height="17" viewBox="0 0 16 17" fill="none" xmlns="http://www.w3.org/2000/svg">
<g clip-path="url(#clip0_4066_27300)">
<path d="M7.69591 15.6645C7.81617 15.7246 7.87624 15.7246 7.99649 15.7246C8.11675 15.7246 8.17682 15.6645 8.29708 15.6043C8.53748 15.424 13.6469 11.3365 13.6469 6.88853C13.5867 3.82294 11.1222 1.29834 7.99644 1.29834C4.87068 1.29834 2.40625 3.82294 2.40625 6.94856C2.40625 11.3367 7.51548 15.4843 7.69581 15.6646L7.69591 15.6645ZM7.99649 2.19988C10.5811 2.19988 12.685 4.30375 12.685 6.88843C12.685 10.3147 9.01844 13.7409 7.99649 14.6426C6.91452 13.7409 3.30795 10.3147 3.30795 6.88843C3.30795 4.3038 5.41182 2.19988 7.99649 2.19988Z" fill="#3E4260" stroke="#3E4260" stroke-width="0.6"/>
<path d="M10.7009 7.00864C10.7009 5.50583 9.49865 4.30371 7.99595 4.30371C6.49324 4.30371 5.29102 5.50583 5.29102 7.00864C5.29102 8.51135 6.49324 9.71358 7.99595 9.71358C9.49865 9.71358 10.7009 8.51135 10.7009 7.00864ZM6.19266 7.00864C6.19266 5.98675 6.97405 5.20536 7.99595 5.20536C9.01784 5.20536 9.79924 5.98675 9.79924 7.00864C9.79924 8.03054 9.01784 8.81193 7.99595 8.81193C6.97405 8.81193 6.19266 8.03044 6.19266 7.00864Z" fill="#3E4260" stroke="#3E4260" stroke-width="0.6"/>
</g>
<defs>
<clipPath id="clip0_4066_27300">
<rect width="16" height="16" fill="white" transform="translate(0 0.5)"/>
</clipPath>
</defs>
</svg>
