<svg width="12" height="20" viewBox="0 0 12 20" fill="none" xmlns="http://www.w3.org/2000/svg">
<path fill-rule="evenodd" clip-rule="evenodd" d="M11.333 5.16132C11.333 8.00662 8.93565 10.3211 5.98642 10.3211C3.03785 10.3211 0.639823 8.00662 0.639823 5.16132C0.639823 2.31509 3.03785 0 5.98642 0C8.93565 0 11.333 2.31509 11.333 5.16132ZM8.20017 5.16132C8.20017 3.98293 7.20716 3.02472 5.9864 3.02472C4.7666 3.02472 3.77265 3.98293 3.77265 5.16132C3.77265 6.33878 4.7666 7.29761 5.9864 7.29761C7.20716 7.29761 8.20017 6.33878 8.20017 5.16132Z" fill="#4ED0C8"/>
<path d="M11.268 13.2925C10.3012 13.8786 9.25161 14.2943 8.16331 14.5336L11.1522 17.419C11.7645 18.0088 11.7645 18.9667 11.1522 19.5572C10.5405 20.1476 9.54913 20.1476 8.93811 19.5572L5.99945 16.7218L3.06335 19.5572C2.7572 19.8521 2.35604 19.9997 1.95486 19.9997C1.55436 19.9997 1.15383 19.8521 0.847674 19.5572C0.236024 18.9667 0.236024 18.0095 0.84702 17.419L3.83624 14.5336C2.74792 14.2943 1.6983 13.878 0.731559 13.2925C-7.78096e-05 12.8472 -0.219857 11.9143 0.241124 11.2075C0.700824 10.4997 1.66759 10.2866 2.40051 10.7319C4.5893 12.061 7.40897 12.0613 9.59904 10.7319C10.332 10.2866 11.2984 10.4997 11.7591 11.2075C12.22 11.9137 11.9996 12.8472 11.268 13.2925Z" fill="#4ED0C8"/>
</svg>
