<svg width="22" height="11" viewBox="0 0 22 11" fill="none" xmlns="http://www.w3.org/2000/svg">
<path d="M19.25 3.11906C19.25 4.46496 18.0125 5.56615 16.5 5.56615C14.9875 5.56615 13.75 4.46496 13.75 3.11906C13.75 1.77316 14.9875 0.671967 16.5 0.671967C18.0125 0.671967 19.25 1.77316 19.25 3.11906Z" fill="white"/>
<path d="M20.3225 7.49935C21.34 7.89088 22 8.77183 22 9.76291V10.4603H11V9.76291C11 8.77183 11.66 7.89088 12.6775 7.49935C13.8463 7.04664 15.1388 6.78969 16.5 6.78969C17.8612 6.78969 19.1538 7.04664 20.3225 7.49935Z" fill="white"/>
<path d="M3.9 7.83705V10.4603L0 6.54498L3.9 2.62964V5.23987L10 5.23987V6.53193V7.83705H3.9Z" fill="white"/>
</svg>
