<svg width="24" height="24" viewBox="0 0 24 24" fill="none" xmlns="http://www.w3.org/2000/svg">
<g id="file_type_outlook_icon_130283 1">
<path id="Vector" d="M14.6133 5.95276V10.0605L16.0503 10.9643C16.1022 10.9757 16.1559 10.9757 16.2078 10.9643L22.3863 6.79876C22.3818 6.5966 22.3078 6.40215 22.1768 6.24809C22.0459 6.09402 21.8658 5.98974 21.667 5.95276H14.6133Z" fill="white"/>
<path id="Vector_2" d="M14.6131 11.5927L15.9233 12.4927C15.9847 12.5301 16.0551 12.5498 16.1269 12.5498C16.1988 12.5498 16.2692 12.5301 16.3306 12.4927C16.1056 12.6285 22.3853 8.45923 22.3853 8.45923V16.0087C22.4017 16.1617 22.3844 16.3164 22.3348 16.462C22.2851 16.6076 22.2042 16.7406 22.0978 16.8517C21.9913 16.9628 21.8619 17.0493 21.7185 17.1051C21.5752 17.161 21.4213 17.1848 21.2678 17.175H14.6123L14.6131 11.5927Z" fill="white"/>
<path id="Vector_3" d="M7.82967 9.69902C7.61197 9.69797 7.39804 9.75583 7.21055 9.86648C7.02306 9.97713 6.86899 10.1364 6.76467 10.3275C6.47976 10.834 6.34305 11.4105 6.37017 11.991C6.34056 12.5703 6.47746 13.146 6.76467 13.65C6.86855 13.8332 7.01883 13.9859 7.20039 14.0926C7.38196 14.1994 7.58842 14.2564 7.79903 14.2581C8.00965 14.2598 8.21699 14.206 8.40023 14.1022C8.58347 13.9983 8.73615 13.8481 8.84292 13.6665C9.12701 13.1648 9.26107 12.5922 9.22917 12.0165C9.2617 11.4228 9.13207 10.8314 8.85417 10.3058C8.75486 10.1209 8.60694 9.9667 8.42639 9.85977C8.24584 9.75283 8.03951 9.69725 7.82967 9.69902Z" fill="white"/>
<path id="Vector_4" d="M1.61523 3.86625V19.9365L13.8402 22.5V1.5L1.61523 3.86625ZM9.79623 14.6182C9.56755 14.9406 9.26347 15.2022 8.91051 15.3801C8.55755 15.558 8.16642 15.6469 7.77123 15.639C7.38599 15.6458 7.0048 15.5595 6.66007 15.3874C6.31534 15.2153 6.01728 14.9625 5.79123 14.6505C5.25512 13.902 4.98694 12.9947 5.02998 12.075C4.98438 11.1102 5.25741 10.1572 5.80698 9.363C6.03856 9.03445 6.34741 8.76791 6.70631 8.5869C7.06521 8.40588 7.46312 8.31594 7.86498 8.325C8.24743 8.31733 8.62592 8.40365 8.96722 8.57639C9.30852 8.74913 9.6022 9.00302 9.82248 9.31575C10.3532 10.0805 10.6169 10.9989 10.5725 11.9287C10.6192 12.8865 10.3462 13.8327 9.79623 14.6182Z" fill="white"/>
</g>
</svg>
