<svg width="16" height="16" viewBox="0 0 16 16" fill="none" xmlns="http://www.w3.org/2000/svg">
<g id="Frame 2237">
<g id="Group 1972">
<path id="Vector" d="M11.6633 2.98696C10.9631 2.28638 10.0894 1.78231 9.13058 1.52578C8.17169 1.26916 7.16162 1.26916 6.2027 1.52578C5.24381 1.78229 4.37014 2.28638 3.66994 2.98696C2.96264 3.68413 2.4535 4.55512 2.19435 5.51153C1.93522 6.46785 1.93522 7.47556 2.19435 8.43191C2.45348 9.38835 2.96264 10.2595 3.66994 10.9565L7.66667 14.9333L11.6634 10.9565C12.3707 10.2594 12.8798 9.38832 13.139 8.43191C13.3981 7.47559 13.3981 6.46788 13.139 5.51153C12.8799 4.55509 12.3707 3.6841 11.6634 2.98696H11.6633ZM10.9946 10.2752L7.66661 13.5866L4.33866 10.2752C3.75297 9.69462 3.33169 8.97075 3.11721 8.17631C2.90273 7.38202 2.90273 6.54549 3.11721 5.75108C3.33169 4.95679 3.75297 4.23278 4.33866 3.65232C5.22425 2.77955 6.42014 2.29008 7.66661 2.29008C8.91308 2.29008 10.109 2.77958 10.9946 3.65232C11.5802 4.23278 12.0015 4.95676 12.216 5.75108C12.4305 6.54549 12.4305 7.38202 12.216 8.17631C12.0015 8.97072 11.5802 9.69462 10.9946 10.2752Z" fill="black" stroke="black" stroke-width="0.4"/>
<path id="Vector_2" d="M7.66706 4.73334C7.0659 4.73334 6.48939 4.97213 6.06434 5.39729C5.6392 5.82232 5.40039 6.39883 5.40039 7.00002C5.40039 7.60118 5.63918 8.17769 6.06434 8.60284C6.48936 9.02786 7.06587 9.26667 7.66706 9.26667C8.26824 9.26667 8.84472 9.02788 9.26977 8.60284C9.69492 8.17769 9.93372 7.60118 9.93372 7.00002C9.93372 6.39886 9.69493 5.82235 9.26977 5.39729C8.84475 4.97215 8.26824 4.73334 7.66706 4.73334ZM7.66706 8.24998C7.33016 8.24998 7.00718 8.11571 6.76945 7.87692C6.53182 7.63824 6.39907 7.31457 6.40056 6.97767C6.40207 6.64077 6.53762 6.31839 6.77746 6.08178C7.01729 5.84508 7.34141 5.71372 7.67834 5.71672C8.01524 5.71963 8.33705 5.8567 8.57258 6.09758C8.80823 6.33835 8.93808 6.66306 8.93368 6.99996C8.92938 7.33302 8.79394 7.65088 8.5569 7.88489C8.31985 8.1188 8.00015 8.24995 7.66709 8.24995L7.66706 8.24998Z" fill="#2B2015" stroke="black" stroke-width="0.4"/>
</g>
</g>
</svg>
