<svg width="61" height="61" viewBox="0 0 61 61" fill="none" xmlns="http://www.w3.org/2000/svg">
<path d="M60.2345 49.138L58.8903 46.7091L58.9003 36.5216C58.9003 36.3495 58.8568 36.1801 58.7734 36.0298L52.3821 24.494C51.8246 23.5017 50.8772 22.7888 49.7698 22.5275V3.04342C49.7698 2.23636 49.4492 1.46186 48.8785 0.891305C48.3079 0.320754 47.5334 0 46.7264 0H14.2626C13.4556 0 12.681 0.32065 12.1105 0.891305C11.5399 1.46196 11.2192 2.23647 11.2192 3.04342V22.5345C10.1123 22.7935 9.16435 23.5046 8.6069 24.4955L2.21559 36.0304C2.13226 36.1807 2.08877 36.3496 2.08877 36.5213L2.09874 46.7079L0.756821 49.1322C0.494143 49.6037 0.42983 50.1598 0.578375 50.6784C0.726467 51.1965 1.07521 51.6349 1.54713 51.8958L17.5089 60.7391C17.9813 61.0063 18.542 61.0715 19.0632 60.9198C19.5754 60.7744 20.0075 60.4288 20.262 59.961L21.6569 57.4492L25.8834 53.7676H35.1053L39.3317 57.4492L40.7217 59.9529H40.7212C40.9762 60.4243 41.4105 60.7726 41.9255 60.9198C42.1094 60.9728 42.2996 61 42.4907 61C42.8349 61 43.1737 60.9112 43.474 60.7423L59.4403 51.8967C59.9118 51.6363 60.2601 51.1992 60.4091 50.6816C60.5576 50.164 60.4947 49.6087 60.2338 49.1377L60.2345 49.138ZM20.1904 56.0365H20.19C20.1012 56.114 20.0269 56.2059 19.9699 56.3092L18.498 58.9673L2.52928 50.1158L4.00035 47.4577C4.08323 47.3087 4.1267 47.1411 4.12717 46.9708L4.1172 36.7834L10.3807 25.479C10.6394 25.0053 11.0768 24.6552 11.5955 24.5062C12.114 24.3572 12.6706 24.4224 13.1412 24.6864C13.4591 24.8631 13.7241 25.1212 13.9089 25.4342C14.0932 25.7476 14.191 26.1044 14.191 26.4681C14.187 26.811 14.0982 27.1475 13.9324 27.4477L10.9804 32.7739C10.8495 33.0094 10.8183 33.2875 10.8926 33.5461C10.9668 33.8052 11.1412 34.0235 11.3767 34.1539C12.5447 34.7979 13.4111 35.8762 13.7884 37.1557C14.1652 38.4347 14.0226 39.8111 13.3908 40.9854L11.3813 44.0895H11.3808C11.2757 44.253 11.2191 44.4433 11.2187 44.6376V50.7245C11.2187 51.5316 11.5393 52.3061 12.11 52.8766C12.6806 53.4472 13.4551 53.7679 14.2621 53.7679H22.7938L20.1904 56.0365ZM14.2624 51.739C13.7022 51.739 13.2479 51.2848 13.2479 50.7245V44.9419L15.1289 42.0312C15.9581 40.5389 16.2213 38.797 15.8693 37.1258C15.5174 35.4546 14.5745 33.9668 13.2136 32.9355L15.7122 28.4292C16.041 27.8291 16.2154 27.157 16.2195 26.4732C16.2186 25.7463 16.0234 25.0334 15.6538 24.4075C15.2843 23.7817 14.7544 23.2662 14.1185 22.9143C13.8422 22.7639 13.5497 22.6448 13.2471 22.5592V3.04385C13.2471 2.48362 13.7014 2.02936 14.2616 2.02936H46.7266C46.9956 2.02936 47.2538 2.13624 47.444 2.32646C47.6342 2.51668 47.7411 2.77483 47.7411 3.04385V22.5546C47.4363 22.6411 47.1419 22.7616 46.8634 22.9137C46.2298 23.2652 45.7013 23.7797 45.333 24.4038C44.9648 25.0284 44.7701 25.7395 44.7687 26.4645C44.7733 27.1506 44.9494 27.8254 45.281 28.4264L47.7778 32.931V32.9306C46.4145 33.9736 45.4739 35.4732 45.1279 37.1544C44.7824 38.835 45.0546 40.5841 45.8947 42.0805L47.7412 44.9424V50.725C47.7412 50.9941 47.6343 51.2522 47.4441 51.4424C47.2539 51.6326 46.9957 51.7395 46.7267 51.7395L14.2624 51.739ZM42.5001 58.9773L41.0192 56.3092C40.9621 56.206 40.8879 56.114 40.7991 56.0366L38.1949 53.7681H46.7266C47.5337 53.7681 48.3082 53.4474 48.8788 52.8768C49.4493 52.3061 49.7701 51.5316 49.7701 50.7246V44.6377C49.7701 44.4425 49.7139 44.2509 49.6079 44.087L47.6346 41.0435C47.0141 39.9194 46.8425 38.6018 47.1554 37.3569C47.4679 36.1114 48.241 35.0312 49.3184 34.3333C49.4126 34.2695 49.5082 34.2156 49.6328 34.1417H49.6332C50.1083 33.8637 50.275 33.2572 50.0082 32.7754L47.0603 27.4551C46.8922 27.1535 46.8017 26.8147 46.7976 26.4692C46.7971 26.1064 46.8936 25.7504 47.0775 25.4379C47.2614 25.1254 47.5254 24.8677 47.8424 24.6915C48.1273 24.5299 48.4475 24.4402 48.775 24.4298C49.5286 24.428 50.2269 24.8279 50.607 25.4791L56.8714 36.7835L56.8615 46.971C56.861 47.1431 56.9049 47.3125 56.9883 47.4628L58.4594 50.1219L42.5001 58.9773Z" fill="#008981"/>
<path d="M18.3203 6.08643H22.3783V8.11541H18.3203V6.08643Z" fill="#008981"/>
<path d="M24.4062 6.08643H42.6671V8.11541H24.4062V6.08643Z" fill="#008981"/>
<path d="M18.3203 10.1445H42.6682V12.1735H18.3203V10.1445Z" fill="#008981"/>
<path d="M18.3203 14.2021H30.4942V16.2311H18.3203V14.2021Z" fill="#008981"/>
<path d="M32.5234 14.2021H42.6684V16.2311H32.5234V14.2021Z" fill="#008981"/>
<path d="M18.3203 18.2603H42.6682V20.2892H18.3203V18.2603Z" fill="#008981"/>
<path d="M18.3203 26.376H30.4942V28.405H18.3203V26.376Z" fill="#008981"/>
<path d="M32.5234 26.376H42.6684V28.405H32.5234V26.376Z" fill="#008981"/>
<path d="M18.3203 30.4341H42.6682V32.4631H18.3203V30.4341Z" fill="#008981"/>
<path d="M18.3203 42.6079H30.4942V44.6369H18.3203V42.6079Z" fill="#008981"/>
<path d="M32.5234 42.6079H42.6684V44.6369H32.5234V42.6079Z" fill="#008981"/>
<path d="M18.3203 22.3184H26.4363V24.3473H18.3203V22.3184Z" fill="#008981"/>
<path d="M28.4648 22.3184H32.5228V24.3473H28.4648V22.3184Z" fill="#008981"/>
<path d="M34.5508 22.3184H42.6667V24.3473H34.5508V22.3184Z" fill="#008981"/>
<path d="M18.3203 38.5498H33.5377V40.5788H18.3203V38.5498Z" fill="#008981"/>
<path d="M35.5664 38.5498H42.6679V40.5788H35.5664V38.5498Z" fill="#008981"/>
<path d="M18.3203 34.4922H28.4652V36.5212H18.3203V34.4922Z" fill="#008981"/>
<path d="M30.4961 34.4922H34.5541V36.5212H30.4961V34.4922Z" fill="#008981"/>
<path d="M36.5781 34.4922H42.6651V36.5212H36.5781V34.4922Z" fill="#008981"/>
</svg>
