<svg width="79" height="74" viewBox="0 0 79 74" fill="none" xmlns="http://www.w3.org/2000/svg">
<path d="M39.0078 8.2491C33.5146 8.2491 28.2801 9.97293 23.8698 13.2341C23.0982 13.8041 22.9344 14.8936 23.5021 15.6668C24.0705 16.4413 25.1559 16.6058 25.9255 16.0358C29.736 13.2183 34.2595 11.7288 39.0078 11.7288C51.183 11.7288 61.0887 21.6721 61.0887 33.8942C61.0887 38.6201 59.6278 43.1293 56.8646 46.9344C56.3004 47.7113 56.4703 48.8002 57.2443 49.3653C57.5521 49.5905 57.91 49.6998 58.2637 49.6998C58.7988 49.6998 59.3267 49.4515 59.6665 48.9848C62.8651 44.5793 64.5557 39.3606 64.5557 33.895C64.5557 19.7538 53.0946 8.2489 39.0076 8.2489L39.0078 8.2491Z" fill="#302525"/>
<path d="M53.9769 50.1889C49.8908 53.9739 44.5746 56.0588 39.0095 56.0588C26.8343 56.0588 16.9286 46.1155 16.9286 33.8949C16.9286 28.2743 19.0274 22.9136 22.8385 18.8014C23.4903 18.0973 23.4516 16.9969 22.7502 16.3413C22.0488 15.687 20.9514 15.7259 20.2996 16.4299C15.8899 21.1886 13.4609 27.3912 13.4609 33.8935C13.4609 48.0341 24.9215 59.538 39.0091 59.538C45.4487 59.538 51.5991 57.126 56.3286 52.7454C57.0324 52.0936 57.0759 50.9932 56.4265 50.2867C55.779 49.5826 54.6816 49.5364 53.9778 50.1889L53.9769 50.1889Z" fill="#302525"/>
<path d="M55.6053 28.443C55.2359 27.3007 54.2703 26.4838 53.0864 26.3101L45.293 25.1726L41.8072 18.0832C41.2775 17.0071 40.2043 16.3376 39.0082 16.3376C37.8122 16.3376 36.739 17.0065 36.2093 18.0838L32.7234 25.1732L24.93 26.3107C23.7461 26.4837 22.7811 27.3006 22.4111 28.4436C22.0411 29.586 22.3434 30.8163 23.2008 31.6551L28.8398 37.1725L27.5084 44.9636C27.3524 45.877 27.6021 46.8039 28.1935 47.508C28.7915 48.2205 29.6634 48.6296 30.5842 48.6296C31.0842 48.6296 31.5873 48.5034 32.0372 48.2667L39.0088 44.5891L45.9791 48.2673C47.2568 48.9423 48.8983 48.609 49.8235 47.5092C50.4149 46.8051 50.6646 45.8777 50.5086 44.9648L49.1771 37.1737L54.8162 31.6563C55.673 30.8163 55.9753 29.586 55.6052 28.443H55.6053ZM46.1038 35.3194C45.6957 35.7187 45.5082 36.2954 45.6056 36.8592L46.9727 44.8584L39.8161 41.0818C39.5628 40.9489 39.2864 40.8827 39.0089 40.8827C38.7314 40.8827 38.4551 40.9495 38.2017 41.0818L31.0451 44.8584L32.4122 36.8592C32.5084 36.2954 32.3221 35.7188 31.914 35.3194L26.1245 29.6539L34.1253 28.4873C34.6895 28.4054 35.1774 28.0497 35.4308 27.5356L39.0091 20.2562L42.5874 27.535C42.8407 28.0485 43.3274 28.4054 43.8928 28.4867L51.8936 29.6533L46.1038 35.3194Z" fill="#302525"/>
<path d="M67.9504 51.3294C71.0088 46.2321 72.7719 40.2675 72.7719 33.8954C72.7719 15.2043 57.6253 0 39.0074 0C20.3895 0 5.24299 15.2051 5.24299 33.8954C5.24299 40.0439 6.93779 46.0834 10.0694 51.3232L0.507956 60.9213C0.0320992 61.3989 -0.125725 62.1109 0.104046 62.7458C0.333817 63.3813 0.909435 63.8256 1.58 63.8857L8.72281 64.5236L9.3583 71.6938C9.41816 72.3675 9.86076 72.9453 10.4938 73.1754C10.6873 73.2458 10.8863 73.2798 11.0852 73.2798C11.5375 73.2798 11.9813 73.1013 12.3126 72.7687L21.9181 63.1119C27.0614 66.1546 32.9349 67.7898 39.007 67.7898C45.2398 67.7898 51.0794 66.0793 56.0959 63.1113L65.7025 72.7681C66.0338 73.1007 66.4776 73.2792 66.9299 73.2792C67.1282 73.2792 67.3278 73.2452 67.5212 73.1748C68.1543 72.9441 68.5969 72.3663 68.6568 71.6931L69.2923 64.523L76.4351 63.885C77.1062 63.825 77.6819 63.3806 77.911 62.7452C78.1408 62.1097 77.983 61.3983 77.5071 60.9206L67.9504 51.3294ZM22.634 59.4695C22.6195 59.4598 22.6056 59.4501 22.5905 59.441C21.1091 58.4777 19.6996 57.3846 18.3857 56.1579C17.6844 55.5018 16.5869 55.5418 15.9363 56.2465C15.2833 56.9506 15.3232 58.051 16.0246 58.7053C16.9636 59.5824 17.9499 60.3932 18.9692 61.1501L12.4826 67.6714L12.0472 62.7653C11.9728 61.9265 11.3095 61.2606 10.4739 61.186L5.58223 60.749L12.0399 54.2665C12.2854 54.5937 12.5339 54.919 12.7915 55.2377C13.3968 55.9836 14.4882 56.0971 15.2301 55.4908C15.9732 54.8844 16.0857 53.7889 15.4822 53.0429C11.1136 47.6452 8.70766 40.8459 8.70766 33.8965C8.70766 17.1259 22.2997 3.4817 39.0048 3.4817C55.7099 3.4817 69.3019 17.1258 69.3019 33.8965C69.3019 50.6655 55.7099 64.3097 39.0048 64.3097C33.1452 64.3091 27.4887 62.6133 22.6342 59.4692L22.634 59.4695ZM67.5403 61.1854C66.7046 61.2601 66.0413 61.9259 65.967 62.7647L65.5316 67.6714L59.0485 61.1533C61.6733 59.203 64.0079 56.8827 65.9735 54.2667L72.4312 60.7491L67.5403 61.1854Z" fill="#302525"/>
</svg>
