<svg width="80" height="68" viewBox="0 0 80 68" fill="none" xmlns="http://www.w3.org/2000/svg">
<path d="M30.0153 53.5994C36.0535 53.5994 40.9485 48.7044 40.9485 42.6662C40.9485 36.6279 36.0535 31.7329 30.0153 31.7329C23.977 31.7329 19.082 36.6279 19.082 42.6662C19.082 48.7044 23.977 53.5994 30.0153 53.5994Z" stroke="#3E4260" stroke-width="3.64441" stroke-linecap="round" stroke-linejoin="round"/>
<path d="M62.8149 51.1698V17.1553H16.6523" stroke="#3E4260" stroke-width="3.64441" stroke-linecap="round" stroke-linejoin="round"/>
<path d="M48.0749 65.7469L74.2538 65.7474C74.6659 65.7474 75.074 65.6657 75.4548 65.507C75.8355 65.3483 76.1815 65.1156 76.4729 64.8223C76.7643 64.529 76.9955 64.1808 77.1532 63.7976C77.3109 63.4144 77.3921 63.0037 77.3921 62.5889V5.73613C77.3921 4.89844 77.0615 4.09507 76.4729 3.50274C75.8844 2.91041 75.0862 2.57764 74.2539 2.57764H5.21246C4.38015 2.57764 3.58193 2.91041 2.99339 3.50274C2.40485 4.09507 2.07422 4.89844 2.07422 5.73613V62.589C2.07422 63.0038 2.1554 63.4145 2.31313 63.7977C2.47085 64.181 2.70203 64.5292 2.99347 64.8225C3.28491 65.1157 3.63089 65.3484 4.01167 65.5071C4.39245 65.6658 4.80056 65.7475 5.2127 65.7475L12.5619 65.7469L12.5607 65.7465C13.8601 62.0517 16.2653 58.853 19.4454 56.5906C22.6255 54.3283 26.4241 53.1135 30.3184 53.1135C34.2127 53.1135 38.0114 54.3282 41.1914 56.5906C44.3715 58.8529 46.7768 62.0517 48.0761 65.7465L48.0749 65.7469Z" stroke="#3E4260" stroke-width="3.64441" stroke-linecap="round" stroke-linejoin="round"/>
</svg>
