<svg width="16" height="17" viewBox="0 0 16 17" fill="none" xmlns="http://www.w3.org/2000/svg">
<path fill-rule="evenodd" clip-rule="evenodd" d="M2.66667 2.5H5C5.36667 2.5 5.66667 2.8 5.66667 3.16667C5.66667 4 5.8 4.8 6.04667 5.54667C6.12 5.78 6.06667 6.04 5.88 6.22667L4.41333 7.69333C5.37333 9.58 6.92 11.12 8.80667 12.0867L10.2733 10.62C10.4067 10.4933 10.5733 10.4267 10.7467 10.4267C10.8133 10.4267 10.8867 10.4333 10.9533 10.46C11.7 10.7067 12.5067 10.84 13.3333 10.84C13.7 10.84 14 11.14 14 11.5067V13.8333C14 14.2 13.7 14.5 13.3333 14.5C7.07333 14.5 2 9.42667 2 3.16667C2 2.8 2.3 2.5 2.66667 2.5ZM4.36 3.83333C4.4 4.42667 4.5 5.00667 4.66 5.56L3.86 6.36C3.58667 5.56 3.41333 4.71333 3.35333 3.83333H4.36ZM10.9333 11.8467C11.5 12.0067 12.08 12.1067 12.6667 12.1467V13.14C11.7867 13.08 10.94 12.9067 10.1333 12.64L10.9333 11.8467Z" fill="#3E4260"/>
</svg>
