<svg width="21" height="12" viewBox="0 0 21 12" fill="none" xmlns="http://www.w3.org/2000/svg">
<path fill-rule="evenodd" clip-rule="evenodd" d="M20.5058 0.832739C20.6615 0.362988 20.5058 0.021352 19.8164 0.021352H17.5256C16.9473 0.021352 16.6804 0.320285 16.5248 0.640569C16.5248 0.640569 15.346 3.37366 13.7002 5.14591C13.1664 5.65836 12.9218 5.82918 12.6327 5.82918C12.477 5.82918 12.2768 5.65836 12.2768 5.18861V0.811387C12.2768 0.256227 12.0989 0 11.6096 0H8.00661C7.65077 0 7.42836 0.256226 7.42836 0.512454C7.42836 1.04626 8.25126 1.17438 8.34022 2.66904V5.91459C8.34022 6.61922 8.20678 6.74733 7.91765 6.74733C7.13923 6.74733 5.24878 3.99288 4.11451 0.854093C3.8921 0.234875 3.6697 0 3.09144 0H0.778421C0.111203 0 0 0.298931 0 0.619216C0 1.19573 0.778422 4.09964 3.62522 7.94306C5.51567 10.5694 8.20678 11.9786 10.631 11.9786C12.0989 11.9786 12.2768 11.6584 12.2768 11.1246V9.13879C12.2768 8.49822 12.4103 8.39146 12.8773 8.39146C13.2109 8.39146 13.8114 8.56228 15.1681 9.82207C16.7249 11.3167 16.9918 12 17.8592 12H20.15C20.8172 12 21.1286 11.6797 20.9506 11.0605C20.7505 10.4413 19.9943 9.54448 19.0157 8.47687C18.4819 7.879 17.6813 7.21708 17.4366 6.8968C17.103 6.46975 17.192 6.29893 17.4366 5.91459C17.4144 5.91459 20.2167 2.11388 20.5058 0.832739Z" fill="#4ED0C8"/>
</svg>
