<svg width="20" height="20" viewBox="0 0 20 20" fill="none" xmlns="http://www.w3.org/2000/svg">
<path fill-rule="evenodd" clip-rule="evenodd" d="M20 10C20 15.5228 15.5228 20 10 20C8.16607 20 6.44744 19.5063 4.96976 18.6446L0 20L1.35539 15.0302C0.493677 13.5526 0 11.8339 0 10C0 4.47715 4.47715 0 10 0C15.5228 0 20 4.47715 20 10ZM7.15456 5.00617C7.34437 5.01392 7.55455 5.02287 7.75434 5.46453C7.89091 5.76688 8.12087 6.33082 8.30393 6.77976C8.43845 7.10967 8.54771 7.37761 8.57589 7.43379C8.64262 7.56643 8.68697 7.72134 8.59807 7.89852C8.58492 7.92472 8.57274 7.94947 8.5611 7.97312C8.49421 8.10905 8.44511 8.20882 8.33194 8.34077C8.2871 8.39282 8.24075 8.44893 8.19443 8.505C8.10289 8.61581 8.01141 8.72655 7.93196 8.8055C7.7983 8.93774 7.65944 9.08131 7.81488 9.34678C7.97052 9.61225 8.50536 10.4807 9.29774 11.1838C10.1489 11.9392 10.8884 12.2587 11.2639 12.4209C11.3377 12.4528 11.3974 12.4786 11.4411 12.5004C11.7078 12.6331 11.8633 12.611 12.0187 12.4338C12.1744 12.2568 12.6848 11.6595 12.8624 11.394C13.0403 11.1285 13.2179 11.1727 13.4622 11.2612C13.7066 11.3497 15.017 11.9916 15.2835 12.1242C15.3355 12.15 15.384 12.1733 15.429 12.1949C15.6152 12.2843 15.7409 12.3446 15.7946 12.4338C15.8611 12.5448 15.8611 13.0755 15.639 13.6949C15.417 14.3144 14.3287 14.9119 13.84 14.9561C13.793 14.9603 13.7462 14.9658 13.6982 14.9714C13.2464 15.0242 12.6762 15.0909 10.6415 14.2923C8.13707 13.3094 6.486 10.8733 6.14532 10.3707C6.11748 10.3296 6.09834 10.3013 6.08827 10.288L6.08503 10.2836C5.94045 10.0912 5 8.83952 5 7.54436C5 6.32265 5.60331 5.68227 5.88092 5.3876L5.89488 5.37278C5.90854 5.35826 5.9213 5.34464 5.93303 5.33189C6.17718 5.06642 6.46588 5 6.64369 5L6.67253 5C6.84048 4.99998 7.00754 4.99996 7.15456 5.00617Z" fill="#4ED0C8"/>
</svg>
